<svg xmlns="http://www.w3.org/2000/svg" xmlns:xlink="http://www.w3.org/1999/xlink" viewBox="0 0 1000 2200"><defs><style>.a,.s,.t,.v,.w{fill:none;}.b{fill:#e1e2e3;}.c{isolation:isolate;}.d{clip-path:url(#a);}.e{clip-path:url(#b);}.f{fill:#fff;}.g{fill:url(#c);}.h{fill:url(#d);}.i,.j,.l,.m,.o,.p,.q{mix-blend-mode:multiply;}.i{fill:url(#e);}.j{fill:url(#f);}.k{fill:url(#g);}.l{fill:url(#h);}.m{fill:url(#i);}.n{fill:url(#j);}.o{fill:url(#k);}.p{fill:url(#l);}.q{fill:url(#m);}.r{fill:url(#n);}.s,.t,.v,.w{stroke-miterlimit:10;stroke-width:0.5px;stroke-dasharray:1;}.s{stroke:url(#o);}.t{stroke:url(#p);}.u{fill:url(#r);}.v{stroke:url(#cm);}.w{stroke:url(#cn);}.x{fill:url(#cp);}.y{clip-path:url(#hk);}.z{fill:url(#hl);}</style><clipPath id="a"><polygon class="a" points="1000 2200 1000 0 0 176.33 0 2200 1000 2200"/></clipPath><clipPath id="b"><rect class="a" width="1000" height="2200"/></clipPath><linearGradient id="c" x1="-911.54" y1="-5544.14" x2="-911.54" y2="-5749.77" gradientTransform="translate(1228.27 5781.94)" gradientUnits="userSpaceOnUse"><stop offset="0" stop-color="#fff"/><stop offset="0.4" stop-color="#fafafa"/><stop offset="0.88" stop-color="#ebeced"/><stop offset="1" stop-color="#e6e7e8"/></linearGradient><linearGradient id="d" x1="15319.69" y1="-3161.98" x2="15319.69" y2="-3390.97" gradientTransform="translate(-14503.11 4490.45)" xlink:href="#c"/><linearGradient id="e" x1="12115.11" y1="-2239.64" x2="12399.26" y2="-1157.7" gradientTransform="translate(8322.22 -8414.73) rotate(135)" gradientUnits="userSpaceOnUse"><stop offset="0" stop-color="#e6e7e8"/><stop offset="0.02" stop-color="#ebebec"/><stop offset="0.1" stop-color="#f6f7f7"/><stop offset="0.2" stop-color="#fdfdfd"/><stop offset="0.5" stop-color="#fff"/></linearGradient><linearGradient id="f" x1="-1491.43" y1="-4924.75" x2="-860.64" y2="-5649.25" gradientTransform="translate(4719.4 3580.73) rotate(-45)" xlink:href="#c"/><linearGradient id="g" x1="-658.9" y1="-5093.21" x2="-448.72" y2="-5617.49" gradientTransform="translate(4719.4 3580.73) rotate(-45)" gradientUnits="userSpaceOnUse"><stop offset="0" stop-color="#fff"/><stop offset="1" stop-color="#e6e7e8"/></linearGradient><linearGradient id="h" x1="-1299.05" y1="-5025.06" x2="-771.84" y2="-5607.13" gradientTransform="translate(4719.4 3580.73) rotate(-45)" xlink:href="#c"/><linearGradient id="i" x1="-734.29" y1="-4829.47" x2="-338.11" y2="-5266.88" gradientTransform="translate(4719.4 3580.73) rotate(-45)" xlink:href="#c"/><linearGradient id="j" x1="-715.04" y1="-5048.05" x2="-311.95" y2="-5011.41" gradientTransform="translate(4719.4 3580.73) rotate(-45)" gradientUnits="userSpaceOnUse"><stop offset="0" stop-color="#fff" stop-opacity="0"/><stop offset="0.21" stop-color="#fff" stop-opacity="0.22"/><stop offset="0.76" stop-color="#fff" stop-opacity="0.78"/><stop offset="1" stop-color="#fff"/></linearGradient><linearGradient id="k" x1="-633.15" y1="-4628.46" x2="-1181.43" y2="-5076.46" gradientTransform="translate(4719.4 3580.73) rotate(-45)" xlink:href="#c"/><linearGradient id="l" x1="-1061.59" y1="-5489.85" x2="-821.24" y2="-4574.66" gradientTransform="translate(4719.4 3580.73) rotate(-45)" xlink:href="#e"/><linearGradient id="m" x1="11115.28" y1="-7781.03" x2="11355.63" y2="-6865.83" gradientTransform="translate(11560.02 -6270.15) rotate(180)" xlink:href="#e"/><linearGradient id="n" x1="2396.18" y1="2549.67" x2="2350.94" y2="2315.48" gradientTransform="translate(-908.54 -2455.61) rotate(19.55)" gradientUnits="userSpaceOnUse"><stop offset="0" stop-color="#fff" stop-opacity="0"/><stop offset="0.54" stop-color="#fff" stop-opacity="0.28"/><stop offset="1" stop-color="#fff" stop-opacity="0.5"/></linearGradient><linearGradient id="o" x1="-7961.99" y1="-2686.33" x2="-6707.04" y2="-2686.33" gradientTransform="matrix(1, 0, 0, -1, 8797.05, -610.67)" gradientUnits="userSpaceOnUse"><stop offset="0" stop-color="#795e34"/><stop offset="0.06" stop-color="#866b3f"/><stop offset="0.25" stop-color="#a78c5c"/><stop offset="0.41" stop-color="#bca16e"/><stop offset="0.51" stop-color="#c3a874"/><stop offset="0.61" stop-color="#bea370"/><stop offset="0.74" stop-color="#af9463"/><stop offset="0.87" stop-color="#977c4e"/><stop offset="1" stop-color="#795e34"/></linearGradient><linearGradient id="p" x1="-8044.44" y1="-2749.67" x2="-6644.69" y2="-2749.67" gradientTransform="matrix(1, 0, 0, -1, 8850.77, -627.05)" xlink:href="#o"/><linearGradient id="r" x1="-4289.78" y1="-1460.52" x2="9592.97" y2="17227.78" gradientTransform="matrix(-0.92, -0.39, -0.39, 0.92, 17200.54, -6944.68)" xlink:href="#o"/><linearGradient id="cm" x1="6763.64" y1="-2482.69" x2="8018.6" y2="-2482.69" gradientTransform="matrix(-1, 0, 0, 1, 7056.78, 2513.2)" xlink:href="#o"/><linearGradient id="cn" x1="6681.2" y1="-2546.03" x2="8080.95" y2="-2546.03" gradientTransform="matrix(-1, 0, 0, 1, 7049.06, 2512.45)" xlink:href="#o"/><linearGradient id="cp" x1="-4801.34" y1="-3756.79" x2="555.55" y2="3454.4" gradientTransform="matrix(0.92, 0.39, 0.39, -0.92, -1949.94, 606.6)" xlink:href="#o"/><clipPath id="hk"><polygon class="a" points="0 208.39 51.44 156.95 762.65 31.36 807.16 75.87 953.92 -2.37 1000 -10.31 1000 2200 0 2200 0 208.39"/></clipPath><pattern id="hl" width="28.8" height="28.8" patternTransform="translate(3.16 34.03) scale(0.6)" patternUnits="userSpaceOnUse" viewBox="0 0 28.8 28.8"><rect class="a" width="28.8" height="28.8"/><circle class="b" cx="28.8" cy="28.8" r="0.72"/><circle class="b" cx="14.4" cy="28.8" r="0.72"/><circle class="b" cx="28.8" cy="14.4" r="0.72"/><circle class="b" cx="14.4" cy="14.4" r="0.72"/><circle class="b" cx="7.2" cy="21.6" r="0.72"/><circle class="b" cx="21.6" cy="21.6" r="0.72"/><circle class="b" cx="7.2" cy="7.2" r="0.72"/><circle class="b" cx="21.6" cy="7.2" r="0.72"/><circle class="b" cy="28.8" r="0.72"/><circle class="b" cy="14.4" r="0.72"/><circle class="b" cx="28.8" r="0.72"/><circle class="b" cx="14.4" r="0.72"/><circle class="b" r="0.72"/></pattern></defs><title>BG</title><g class="c"><g class="d"><g class="e"><polygon class="f" points="1010 2220 -10 2220 -10 496 1010 254 1010 2220"/><rect class="g" x="-283.58" y="67.51" width="1200.62" height="799.33" transform="translate(-237.57 360.79) rotate(-45)"/><rect class="h" x="148.07" y="1138.83" width="1337.03" height="890.14" transform="translate(2513.98 2126.49) rotate(135)"/><polygon class="i" points="540.7 204 1344 1007.3 837.06 2507.64 540.7 204"/><polygon class="j" points="661.1 321.31 145.35 1141.02 -391.61 604.05 -158.61 371.05 661.1 321.31"/><polygon class="k" points="513.78 652.55 851.69 130.71 466.71 -254.27 152.94 59.5 513.78 652.55"/><polygon class="l" points="-5.19 1511.34 513.78 652.55 152.94 59.5 -20.15 232.59 -5.19 1511.34"/><polygon class="m" points="1105.06 1084.59 481.09 603.12 1000 4.65 1105.06 1084.59"/><polygon class="n" points="325.71 342.86 1033.12 632.22 1468.24 197.1 1166.01 -105.13 325.71 342.86"/><polygon class="o" points="1003.05 330.13 484.08 603.13 844.91 1196.19 1018.01 1023.09 1003.05 330.13"/><polygon class="p" points="762.27 1745.04 82.77 1065.55 511.58 -203.57 762.27 1745.04"/><polygon class="q" points="883.23 117.17 883.23 1078.12 -317.38 1672.31 883.23 117.17"/><polygon class="r" points="-78.74 900.2 -44.89 505.96 1079.47 712.2 -78.74 900.2"/><circle class="s" cx="1462.36" cy="2075.71" r="627.24" transform="translate(-1073.51 1947.4) rotate(-51.94)"/><circle class="t" cx="1506.04" cy="2122.67" r="699.64" transform="translate(-1093.73 1999.79) rotate(-51.94)"/><circle class="t" cx="1506.04" cy="2122.67" r="699.64" transform="translate(-1093.73 1999.79) rotate(-51.94)"/><path class="u" d="M1000.09,1766.1l-0.38-1-0.87.33-0.1-.28,0.88-.33-0.16-.41-0.87.33-0.1-.28,0.73-.28-1.65-1.32,0.52-.2,1,0.91a4.81,4.81,0,0,1,.42.44h0c0-.19,0-0.37,0-0.59l0.14-1.38,0.53-.2-0.3,2.06,0.73-.28,0.1,0.27-0.87.33,0.16,0.41,0.87-.33,0.1,0.27-0.87.33,0.38,1Z"/><path class="u" d="M991.2,1769.55l-0.16-.41,1.66-.66h0a1.26,1.26,0,0,1-.62-0.45,2.09,2.09,0,0,1-.27-0.62l-0.76.3-0.14-.35,0.8-.32a3.3,3.3,0,0,0-.17-0.62,0.64,0.64,0,0,0-.88-0.46,1.12,1.12,0,0,0-.46.31l-0.25-.33a1.25,1.25,0,0,1,.55-0.38,1.11,1.11,0,0,1,1.5.67,3.86,3.86,0,0,1,.18.63l0.52-.21,0.14,0.35-0.58.23a2.57,2.57,0,0,0,.13.4,1.2,1.2,0,0,0,1,.73l0.11,0.28Z"/><path class="u" d="M983.1,1772.23a1.5,1.5,0,0,0,.75-0.1,1.12,1.12,0,0,0,.65-0.64,1.41,1.41,0,0,0,0-.85l-1.57.65-0.11-.28,1.61-.66,0-.09a1.72,1.72,0,0,0-.11-0.23l-1.6.66-0.11-.28,1.55-.64a1.5,1.5,0,0,0-.62-0.58,1.07,1.07,0,0,0-.86,0,1.42,1.42,0,0,0-.56.41l-0.26-.32a1.7,1.7,0,0,1,.67-0.48,1.57,1.57,0,0,1,1.28,0,1.86,1.86,0,0,1,.84.75l0.37-.15,0.11,0.28-0.33.13,0.11,0.24,0,0.08,0.32-.13,0.12,0.28-0.34.14a1.85,1.85,0,0,1,0,1.12,1.57,1.57,0,0,1-.92,1,1.63,1.63,0,0,1-.92.11Z"/><path class="u" d="M976.8,1776l-0.24-.57a1,1,0,0,1-1.27-.57,1.16,1.16,0,0,1,.43-1.37,0.86,0.86,0,0,0,.42-0.92,0.55,0.55,0,0,0-.79-0.23,1.44,1.44,0,0,0-.61.49l-0.29-.31a1.65,1.65,0,0,1,.64-0.5l-0.23-.54,0.35-.15,0.23,0.55a1,1,0,0,1,1.2.54,1.19,1.19,0,0,1-.5,1.35,0.83,0.83,0,0,0-.35.92,0.63,0.63,0,0,0,.89.26,1.63,1.63,0,0,0,.69-0.57l0.29,0.31a1.73,1.73,0,0,1-.74.6l0.23,0.55Z"/><path class="u" d="M968.77,1779l-0.43-1-0.86.38-0.12-.27,0.86-.38-0.18-.4-0.86.38-0.12-.27,0.71-.32-1.72-1.23,0.51-.22,1.09,0.86a5.08,5.08,0,0,1,.44.41h0c0-.19,0-0.37,0-0.6l0.07-1.38,0.52-.23-0.2,2.07,0.72-.32,0.12,0.27-0.85.38,0.18,0.4,0.85-.37,0.12,0.27-0.85.37,0.43,1Z"/><path class="u" d="M960.06,1782.85l-0.18-.4,1.63-.74h0a1.25,1.25,0,0,1-.64-0.42,2.08,2.08,0,0,1-.3-0.6l-0.74.34-0.16-.34,0.79-.36a3.24,3.24,0,0,0-.21-0.61,0.64,0.64,0,0,0-.91-0.41,1.1,1.1,0,0,0-.44.33l-0.27-.31a1.25,1.25,0,0,1,.53-0.41,1.11,1.11,0,0,1,1.53.59,4.08,4.08,0,0,1,.21.62l0.51-.23,0.16,0.34-0.56.26a2.51,2.51,0,0,0,.15.39,1.2,1.2,0,0,0,1.06.67l0.12,0.27Z"/><path class="u" d="M952.1,1785.92a1.48,1.48,0,0,0,.75-0.13,1.12,1.12,0,0,0,.62-0.67,1.4,1.4,0,0,0,0-.85l-1.54.72-0.13-.27,1.57-.74,0-.09a1.77,1.77,0,0,0-.12-0.22l-1.56.73-0.13-.27,1.52-.71a1.48,1.48,0,0,0-.65-0.54,1.08,1.08,0,0,0-.86,0,1.39,1.39,0,0,0-.54.44l-0.28-.31a1.68,1.68,0,0,1,.65-0.51,1.57,1.57,0,0,1,1.28-.05,1.86,1.86,0,0,1,.88.71l0.36-.17,0.13,0.27-0.32.15,0.12,0.23,0,0.08,0.31-.14,0.13,0.27-0.34.16a1.84,1.84,0,0,1,0,1.12,1.57,1.57,0,0,1-.87,1,1.64,1.64,0,0,1-.91.16Z"/><path class="u" d="M946,1790l-0.27-.56a1,1,0,0,1-1.3-.5,1.16,1.16,0,0,1,.36-1.39,0.86,0.86,0,0,0,.37-0.94,0.55,0.55,0,0,0-.8-0.19,1.45,1.45,0,0,0-.59.52l-0.31-.29a1.63,1.63,0,0,1,.61-0.53l-0.25-.52,0.34-.17,0.26,0.54a1,1,0,0,1,1.23.48,1.19,1.19,0,0,1-.43,1.37,0.83,0.83,0,0,0-.3.94,0.63,0.63,0,0,0,.9.22,1.59,1.59,0,0,0,.66-0.61l0.31,0.3a1.73,1.73,0,0,1-.7.63l0.26,0.54Z"/><path class="u" d="M938.15,1793.33l-0.47-.95-0.84.42-0.13-.26,0.84-.42-0.2-.39-0.84.42-0.13-.26,0.7-.35-1.77-1.15,0.49-.25,1.13,0.81a5,5,0,0,1,.46.39h0c0-.19,0-0.37,0-0.6v-1.38l0.5-.25-0.09,2.08,0.7-.35,0.13,0.26-0.83.42,0.2,0.39,0.83-.42,0.13,0.26-0.83.42,0.47,0.95Z"/><path class="u" d="M929.64,1797.66l-0.2-.39,1.59-.82h0a1.26,1.26,0,0,1-.67-0.39,2.12,2.12,0,0,1-.33-0.59l-0.73.38-0.17-.34,0.77-.4a3.35,3.35,0,0,0-.24-0.6,0.64,0.64,0,0,0-.93-0.37,1.1,1.1,0,0,0-.42.36l-0.28-.3a1.26,1.26,0,0,1,.51-0.43,1.11,1.11,0,0,1,1.56.51,4,4,0,0,1,.24.61l0.5-.26L931,1795l-0.55.28a2.46,2.46,0,0,0,.17.39,1.2,1.2,0,0,0,1.09.62l0.14,0.27Z"/><path class="u" d="M921.84,1801.13a1.49,1.49,0,0,0,.74-0.17,1.12,1.12,0,0,0,.58-0.71,1.39,1.39,0,0,0-.08-0.85l-1.5.8-0.14-.26,1.54-.82,0-.09a1.74,1.74,0,0,0-.13-0.22l-1.52.81-0.14-.27,1.48-.79a1.5,1.5,0,0,0-.67-0.51,1.07,1.07,0,0,0-.86.09,1.4,1.4,0,0,0-.51.46l-0.29-.29a1.71,1.71,0,0,1,.62-0.55,1.56,1.56,0,0,1,1.28-.12,1.85,1.85,0,0,1,.91.66l0.35-.19,0.14,0.26-0.31.17,0.13,0.23,0,0.08,0.3-.16,0.14,0.26-0.33.18a1.85,1.85,0,0,1,.1,1.11,1.56,1.56,0,0,1-.83,1,1.64,1.64,0,0,1-.9.2Z"/><path class="u" d="M916,1805.52l-0.3-.55a1,1,0,0,1-1.32-.44,1.17,1.17,0,0,1,.29-1.41,0.86,0.86,0,0,0,.32-1,0.55,0.55,0,0,0-.81-0.15,1.43,1.43,0,0,0-.56.55l-0.32-.27a1.64,1.64,0,0,1,.58-0.56l-0.28-.51,0.33-.18,0.29,0.53a1,1,0,0,1,1.25.41,1.19,1.19,0,0,1-.37,1.39,0.83,0.83,0,0,0-.25,1,0.63,0.63,0,0,0,.91.17,1.62,1.62,0,0,0,.63-0.64l0.32,0.28a1.73,1.73,0,0,1-.67.67l0.29,0.53Z"/><path class="u" d="M908.26,1809.22l-0.52-.92-0.82.46-0.14-.26,0.81-.46-0.22-.38-0.81.46-0.15-.26,0.68-.38-1.83-1.05,0.48-.27,1.17,0.75a5,5,0,0,1,.48.37h0c0-.19,0-0.37-0.06-0.59l-0.06-1.38,0.49-.28v2.08l0.68-.39,0.14,0.25-0.81.46,0.21,0.38,0.81-.46,0.15,0.26-0.81.46,0.52,0.92Z"/><path class="u" d="M900,1814l-0.22-.38,1.55-.9h0a1.25,1.25,0,0,1-.68-0.35,2.12,2.12,0,0,1-.36-0.57l-0.71.41-0.19-.33,0.75-.43a3.15,3.15,0,0,0-.26-0.59,0.64,0.64,0,0,0-.94-0.32,1.11,1.11,0,0,0-.41.38l-0.3-.29a1.24,1.24,0,0,1,.49-0.46,1.11,1.11,0,0,1,1.58.44,4,4,0,0,1,.27.59l0.48-.28,0.19,0.33-0.53.31a2.58,2.58,0,0,0,.18.38,1.2,1.2,0,0,0,1.12.57l0.15,0.26Z"/><path class="u" d="M892.36,1817.81a1.51,1.51,0,0,0,.73-0.21,1.12,1.12,0,0,0,.55-0.73,1.41,1.41,0,0,0-.12-0.84l-1.46.87-0.15-.26,1.5-.89-0.05-.09a1.76,1.76,0,0,0-.14-0.21l-1.49.89-0.15-.26,1.44-.86a1.5,1.5,0,0,0-.7-0.48,1.08,1.08,0,0,0-.85.13,1.39,1.39,0,0,0-.49.49l-0.31-.28a1.71,1.71,0,0,1,.59-0.58,1.57,1.57,0,0,1,1.27-.18,1.86,1.86,0,0,1,.94.62l0.34-.2L894,1815l-0.3.18,0.15,0.22,0,0.08,0.29-.18,0.15,0.26-0.32.19a1.86,1.86,0,0,1,.16,1.11,1.57,1.57,0,0,1-.77,1.08,1.65,1.65,0,0,1-.89.25Z"/><path class="u" d="M886.7,1822.5l-0.33-.53a1,1,0,0,1-1.34-.37,1.17,1.17,0,0,1,.22-1.42,0.86,0.86,0,0,0,.28-1,0.55,0.55,0,0,0-.82-0.11,1.45,1.45,0,0,0-.53.57l-0.33-.26a1.63,1.63,0,0,1,.56-0.59l-0.3-.5,0.32-.2,0.31,0.51a1,1,0,0,1,1.27.35,1.19,1.19,0,0,1-.3,1.41,0.82,0.82,0,0,0-.21,1,0.63,0.63,0,0,0,.92.13,1.6,1.6,0,0,0,.6-0.67l0.33,0.27a1.72,1.72,0,0,1-.64.7l0.31,0.51Z"/><path class="u" d="M879.2,1826.56l-0.56-.89-0.79.5-0.16-.25,0.79-.5-0.23-.37-0.79.5-0.16-.25,0.66-.42-1.88-1,0.47-.29,1.2,0.69a5,5,0,0,1,.5.34h0c0-.19-0.06-0.37-0.09-0.59l-0.13-1.38,0.48-.3,0.11,2.08,0.67-.42,0.16,0.25-0.79.5,0.23,0.37,0.79-.5,0.16,0.25-0.79.5,0.56,0.89Z"/><path class="u" d="M871.18,1831.71l-0.24-.37,1.5-1h0a1.25,1.25,0,0,1-.7-0.32,2.06,2.06,0,0,1-.38-0.55l-0.69.44-0.21-.32,0.73-.47a3.18,3.18,0,0,0-.29-0.57,0.64,0.64,0,0,0-1-.27,1.1,1.1,0,0,0-.39.39l-0.31-.27a1.25,1.25,0,0,1,.47-0.48,1.11,1.11,0,0,1,1.6.36,4,4,0,0,1,.3.58l0.47-.3,0.21,0.32-0.52.34a2.42,2.42,0,0,0,.2.37,1.2,1.2,0,0,0,1.14.51l0.16,0.25Z"/><path class="u" d="M863.76,1835.93a1.49,1.49,0,0,0,.72-0.24,1.12,1.12,0,0,0,.51-0.76,1.39,1.39,0,0,0-.16-0.84l-1.42.94-0.17-.25,1.45-1-0.06-.08a1.48,1.48,0,0,0-.15-0.2l-1.44,1-0.17-.25,1.39-.93a1.51,1.51,0,0,0-.72-0.44,1.08,1.08,0,0,0-.84.17,1.41,1.41,0,0,0-.47.51l-0.32-.26a1.74,1.74,0,0,1,.56-0.61,1.57,1.57,0,0,1,1.26-.24,1.87,1.87,0,0,1,1,.57l0.33-.22,0.17,0.25-0.29.2,0.16,0.21,0,0.07,0.29-.19,0.17,0.25-0.31.21a1.83,1.83,0,0,1,.21,1.1,1.56,1.56,0,0,1-.72,1.12,1.64,1.64,0,0,1-.88.29Z"/><path class="u" d="M858.33,1840.9l-0.35-.51a1,1,0,0,1-1.36-.3,1.16,1.16,0,0,1,.15-1.43,0.86,0.86,0,0,0,.23-1,0.55,0.55,0,0,0-.82-0.07,1.44,1.44,0,0,0-.5.6l-0.35-.24a1.66,1.66,0,0,1,.52-0.62l-0.33-.48,0.31-.21,0.34,0.49a1,1,0,0,1,1.29.29,1.19,1.19,0,0,1-.23,1.42,0.82,0.82,0,0,0-.15,1,0.63,0.63,0,0,0,.92.08,1.61,1.61,0,0,0,.56-0.7l0.35,0.25a1.72,1.72,0,0,1-.6.73l0.34,0.5Z"/><path class="u" d="M851,1845.35l-0.61-.86-0.77.54-0.17-.24,0.76-.54-0.25-.36-0.76.54-0.17-.24,0.64-.45-1.92-.87,0.45-.32,1.23,0.63a4.85,4.85,0,0,1,.52.32h0c0-.19-0.08-0.36-0.12-0.58l-0.2-1.37,0.46-.32,0.22,2.07,0.64-.45,0.17,0.24-0.76.54,0.25,0.36,0.76-.53,0.17,0.24-0.76.54,0.61,0.86Z"/><path class="u" d="M843.28,1850.88l-0.26-.35,1.45-1h0a1.25,1.25,0,0,1-.71-0.28,2.13,2.13,0,0,1-.41-0.53l-0.66.48-0.22-.31,0.7-.51a3.19,3.19,0,0,0-.32-0.56,0.64,0.64,0,0,0-1-.23,1.12,1.12,0,0,0-.37.41l-0.32-.25a1.26,1.26,0,0,1,.44-0.5,1.11,1.11,0,0,1,1.62.27,3.94,3.94,0,0,1,.33.56l0.45-.33,0.22,0.31-0.5.36a2.67,2.67,0,0,0,.22.36,1.2,1.2,0,0,0,1.17.45l0.18,0.24Z"/><path class="u" d="M836.07,1855.47a1.49,1.49,0,0,0,.71-0.28,1.12,1.12,0,0,0,.47-0.78,1.4,1.4,0,0,0-.2-0.83l-1.36,1-0.18-.24,1.4-1-0.06-.08a1.5,1.5,0,0,0-.16-0.2l-1.39,1-0.18-.24,1.35-1a1.5,1.5,0,0,0-.74-0.41,1.07,1.07,0,0,0-.83.21,1.4,1.4,0,0,0-.44.53l-0.33-.25a1.69,1.69,0,0,1,.53-0.63,1.57,1.57,0,0,1,1.25-.3,1.85,1.85,0,0,1,1,.52l0.32-.23,0.18,0.24-0.28.21,0.17,0.21,0.05,0.07,0.28-.2,0.18,0.24-0.3.22a1.84,1.84,0,0,1,.27,1.09,1.56,1.56,0,0,1-.66,1.15,1.63,1.63,0,0,1-.86.33Z"/><path class="u" d="M830.9,1860.7l-0.38-.5a1,1,0,0,1-1.37-.24,1.17,1.17,0,0,1,.08-1.43,0.86,0.86,0,0,0,.18-1,0.55,0.55,0,0,0-.82,0,1.44,1.44,0,0,0-.48.63l-0.36-.23a1.66,1.66,0,0,1,.5-0.64l-0.35-.46,0.3-.23,0.36,0.48a1,1,0,0,1,1.3.22,1.19,1.19,0,0,1-.16,1.43,0.83,0.83,0,0,0-.11,1,0.63,0.63,0,0,0,.93,0A1.62,1.62,0,0,0,831,1859l0.36,0.23a1.72,1.72,0,0,1-.57.76l0.36,0.48Z"/><path class="u" d="M823.84,1865.5l-0.65-.83-0.74.58-0.18-.23,0.74-.58-0.27-.35-0.74.58-0.18-.23,0.61-.48-2-.77,0.43-.34,1.26,0.57a5.06,5.06,0,0,1,.53.29h0c-0.05-.19-0.1-0.36-0.15-0.58l-0.27-1.36,0.44-.35,0.32,2.06,0.62-.48,0.18,0.23-0.73.57,0.27,0.34,0.73-.57,0.18,0.23-0.73.57,0.65,0.83Z"/><path class="u" d="M816.36,1871.42l-0.27-.34,1.4-1.12h0a1.24,1.24,0,0,1-.73-0.25,2.12,2.12,0,0,1-.44-0.51l-0.64.51-0.24-.3,0.67-.54a3.25,3.25,0,0,0-.35-0.54,0.64,0.64,0,0,0-1-.18,1.13,1.13,0,0,0-.35.43l-0.34-.24a1.28,1.28,0,0,1,.42-0.53,1.11,1.11,0,0,1,1.63.19,4.09,4.09,0,0,1,.35.55l0.43-.35,0.24,0.29-0.48.39a2.51,2.51,0,0,0,.24.35,1.2,1.2,0,0,0,1.19.39l0.19,0.23Z"/><path class="u" d="M809.39,1876.37a1.5,1.5,0,0,0,.69-0.31,1.12,1.12,0,0,0,.43-0.81,1.4,1.4,0,0,0-.24-0.82l-1.31,1.08-0.19-.23,1.35-1.11-0.07-.08a1.56,1.56,0,0,0-.17-0.19l-1.34,1.1-0.19-.23,1.3-1.06a1.5,1.5,0,0,0-.76-0.37,1.08,1.08,0,0,0-.82.26,1.4,1.4,0,0,0-.41.56l-0.34-.23a1.72,1.72,0,0,1,.5-0.66,1.57,1.57,0,0,1,1.23-.37,1.87,1.87,0,0,1,1,.47l0.31-.25,0.19,0.23-0.27.22,0.18,0.2,0.06,0.07,0.26-.22,0.19,0.23-0.29.24a1.85,1.85,0,0,1,.32,1.07,1.57,1.57,0,0,1-.6,1.19,1.64,1.64,0,0,1-.85.38Z"/><path class="u" d="M804.5,1881.84l-0.4-.48a1,1,0,0,1-1.38-.17,1.16,1.16,0,0,1,0-1.43,0.86,0.86,0,0,0,.13-1,0.55,0.55,0,0,0-.82,0,1.44,1.44,0,0,0-.44.65l-0.37-.21a1.64,1.64,0,0,1,.46-0.66l-0.37-.44,0.29-.24,0.39,0.46a1,1,0,0,1,1.31.16,1.19,1.19,0,0,1-.08,1.44,0.82,0.82,0,0,0-.06,1,0.63,0.63,0,0,0,.92,0,1.62,1.62,0,0,0,.49-0.75l0.37,0.21a1.72,1.72,0,0,1-.53.79l0.39,0.46Z"/><path class="u" d="M797.69,1887l-0.69-.8-0.71.61-0.19-.22,0.71-.61-0.29-.33-0.71.61-0.19-.22,0.59-.51-2-.67,0.42-.36,1.29,0.5a5,5,0,0,1,.55.27h0c-0.06-.18-0.11-0.35-0.17-0.57l-0.34-1.34,0.43-.37,0.42,2,0.59-.51,0.19,0.22-0.7.61,0.29,0.33,0.7-.61,0.19,0.22-0.7.61,0.69,0.8Z"/><path class="u" d="M790.52,1893.26l-0.29-.33,1.34-1.18h0a1.25,1.25,0,0,1-.74-0.21,2.11,2.11,0,0,1-.46-0.49l-0.61.54-0.25-.28,0.65-.57a3.32,3.32,0,0,0-.38-0.53,0.64,0.64,0,0,0-1-.13,1.1,1.1,0,0,0-.32.45l-0.35-.22a1.26,1.26,0,0,1,.39-0.55,1.11,1.11,0,0,1,1.64.11,4,4,0,0,1,.38.53l0.42-.37,0.25,0.28-0.46.41a2.68,2.68,0,0,0,.26.33,1.2,1.2,0,0,0,1.21.33l0.2,0.22Z"/><path class="u" d="M783.81,1898.55a1.47,1.47,0,0,0,.67-0.34,1.12,1.12,0,0,0,.39-0.83,1.4,1.4,0,0,0-.28-0.8l-1.26,1.14-0.2-.22,1.29-1.17-0.07-.08a1.8,1.8,0,0,0-.18-0.18l-1.28,1.16-0.2-.22,1.24-1.12a1.5,1.5,0,0,0-.78-0.33,1.07,1.07,0,0,0-.81.3,1.39,1.39,0,0,0-.38.58l-0.35-.21a1.72,1.72,0,0,1,.46-0.68,1.57,1.57,0,0,1,1.21-.43,1.87,1.87,0,0,1,1,.42l0.29-.27,0.2,0.22-0.26.24,0.19,0.19,0.06,0.07,0.25-.23,0.2,0.22-0.28.25a1.85,1.85,0,0,1,.37,1.05,1.56,1.56,0,0,1-.54,1.21,1.63,1.63,0,0,1-.83.42Z"/><path class="u" d="M779.2,1904.26l-0.42-.46a1,1,0,0,1-1.39-.1,1.16,1.16,0,0,1-.06-1.43,0.86,0.86,0,0,0,.08-1,0.55,0.55,0,0,0-.82.05,1.44,1.44,0,0,0-.41.67l-0.38-.19a1.66,1.66,0,0,1,.43-0.68l-0.4-.43,0.28-.26,0.41,0.44a1,1,0,0,1,1.32.1,1.19,1.19,0,0,1,0,1.44,0.82,0.82,0,0,0,0,1,0.63,0.63,0,0,0,.92-0.05,1.61,1.61,0,0,0,.45-0.77l0.38,0.2a1.73,1.73,0,0,1-.49.81l0.41,0.44Z"/><path class="u" d="M772.63,1909.76l-0.73-.76-0.68.65-0.2-.21,0.68-.65-0.3-.32-0.68.65-0.2-.21,0.56-.54-2-.57,0.4-.38,1.31,0.44a5.34,5.34,0,0,1,.56.24h0c-0.07-.18-0.13-0.35-0.2-0.56l-0.4-1.32,0.41-.39,0.52,2,0.57-.54,0.2,0.21-0.67.64,0.3,0.32,0.67-.64,0.2,0.21-0.67.64,0.73,0.76Z"/><path class="u" d="M765.78,1916.4l-0.31-.31,1.28-1.25h0a1.26,1.26,0,0,1-.75-0.17,2.09,2.09,0,0,1-.49-0.46l-0.58.57-0.27-.27,0.62-.6a3.16,3.16,0,0,0-.4-0.5,0.64,0.64,0,0,0-1-.08,1.12,1.12,0,0,0-.3.46l-0.36-.2a1.26,1.26,0,0,1,.36-0.56,1.11,1.11,0,0,1,1.64,0,4,4,0,0,1,.41.51l0.4-.39,0.26,0.27-0.44.43a2.7,2.7,0,0,0,.27.32,1.2,1.2,0,0,0,1.22.27l0.21,0.21Z"/><path class="u" d="M759.37,1922a1.47,1.47,0,0,0,.66-0.38,1.12,1.12,0,0,0,.35-0.84,1.42,1.42,0,0,0-.32-0.79l-1.2,1.2-0.21-.21,1.23-1.23-0.07-.07a1.77,1.77,0,0,0-.19-0.17l-1.22,1.22-0.21-.21,1.18-1.19a1.5,1.5,0,0,0-.79-0.29,1.07,1.07,0,0,0-.79.34,1.39,1.39,0,0,0-.36.59l-0.37-.19a1.74,1.74,0,0,1,.43-0.71,1.57,1.57,0,0,1,1.19-.48,1.85,1.85,0,0,1,1.07.37l0.28-.28,0.21,0.21-0.25.25,0.2,0.18,0.06,0.06,0.24-.24,0.21,0.21-0.26.26a1.85,1.85,0,0,1,.43,1,1.56,1.56,0,0,1-.48,1.24,1.63,1.63,0,0,1-.81.46Z"/><path class="u" d="M755,1928l-0.45-.43a1,1,0,0,1-1.39,0,1.17,1.17,0,0,1-.14-1.43,0.86,0.86,0,0,0,0-1,0.55,0.55,0,0,0-.82.09,1.44,1.44,0,0,0-.38.69l-0.39-.17a1.66,1.66,0,0,1,.39-0.71l-0.42-.41,0.26-.27,0.43,0.42a1,1,0,0,1,1.32,0,1.19,1.19,0,0,1,.06,1.44,0.83,0.83,0,0,0,0,1,0.63,0.63,0,0,0,.92-0.1,1.62,1.62,0,0,0,.41-0.8l0.39,0.18a1.71,1.71,0,0,1-.44.84l0.43,0.42Z"/><path class="u" d="M748.76,1933.75L748,1933l-0.65.68-0.21-.2,0.64-.68-0.32-.3-0.64.68-0.21-.2,0.54-.57-2.06-.47,0.38-.4,1.34,0.37a5.49,5.49,0,0,1,.57.21h0c-0.08-.18-0.15-0.34-0.23-0.55l-0.47-1.3,0.39-.41,0.62,2,0.54-.57,0.21,0.2-0.64.68,0.32,0.3,0.64-.68L749,1932l-0.64.68,0.77,0.73Z"/><path class="u" d="M742.25,1940.73l-0.32-.3,1.21-1.31h0a1.25,1.25,0,0,1-.76-0.14,2.09,2.09,0,0,1-.51-0.44l-0.55.6-0.28-.26,0.59-.63a3.34,3.34,0,0,0-.43-0.48,0.64,0.64,0,0,0-1,0,1.12,1.12,0,0,0-.28.48l-0.37-.18a1.24,1.24,0,0,1,.33-0.58,1.11,1.11,0,0,1,1.64-.05,4.07,4.07,0,0,1,.43.49l0.38-.41,0.28,0.26-0.42.45a2.73,2.73,0,0,0,.29.31,1.2,1.2,0,0,0,1.23.21l0.22,0.2Z"/><path class="u" d="M736.13,1946.65a1.48,1.48,0,0,0,.64-0.41,1.12,1.12,0,0,0,.31-0.86,1.4,1.4,0,0,0-.36-0.77l-1.13,1.26-0.22-.2,1.16-1.29-0.08-.07a1.71,1.71,0,0,0-.2-0.16l-1.15,1.28-0.22-.2L736,1944a1.51,1.51,0,0,0-.81-0.25,1.08,1.08,0,0,0-.77.38,1.38,1.38,0,0,0-.32.61l-0.38-.18a1.72,1.72,0,0,1,.39-0.73,1.56,1.56,0,0,1,1.16-.55,1.85,1.85,0,0,1,1.08.31l0.27-.29,0.22,0.2-0.24.26,0.2,0.17,0.07,0.06,0.23-.25,0.22,0.2-0.25.28a1.86,1.86,0,0,1,.48,1,1.56,1.56,0,0,1-.42,1.26,1.63,1.63,0,0,1-.78.5Z"/><path class="u" d="M732.1,1952.8l-0.47-.41a1,1,0,0,1-1.39,0A1.17,1.17,0,0,1,730,1951a0.86,0.86,0,0,0,0-1,0.55,0.55,0,0,0-.81.13,1.43,1.43,0,0,0-.34.71l-0.4-.15a1.65,1.65,0,0,1,.36-0.73l-0.44-.38,0.25-.28,0.45,0.4a1,1,0,0,1,1.32,0,1.19,1.19,0,0,1,.13,1.43,0.83,0.83,0,0,0,.09,1,0.63,0.63,0,0,0,.91-0.15,1.62,1.62,0,0,0,.37-0.82l0.4,0.16a1.72,1.72,0,0,1-.4.86l0.45,0.4Z"/><path class="u" d="M726.13,1958.92l-0.8-.69-0.61.71-0.22-.19,0.61-.71-0.33-.28-0.61.71-0.22-.19,0.51-.59-2.08-.37,0.36-.42,1.35,0.3a5,5,0,0,1,.58.18h0c-0.09-.17-0.16-0.33-0.26-0.54l-0.53-1.28,0.37-.43,0.72,2,0.51-.6,0.22,0.19-0.6.71,0.33,0.28,0.6-.71,0.22,0.19-0.6.71,0.8,0.69Z"/><path class="u" d="M720,1966.2l-0.34-.28,1.15-1.38h0a1.24,1.24,0,0,1-.76-0.1,2.05,2.05,0,0,1-.53-0.41l-0.52.63-0.29-.24,0.55-.66a3.22,3.22,0,0,0-.45-0.46,0.64,0.64,0,0,0-1,0,1.12,1.12,0,0,0-.25.49l-0.38-.17a1.25,1.25,0,0,1,.3-0.6,1.11,1.11,0,0,1,1.64-.14,4.11,4.11,0,0,1,.46.47l0.36-.43,0.29,0.24-0.4.47a2.44,2.44,0,0,0,.3.29,1.2,1.2,0,0,0,1.25.15l0.23,0.19Z"/><path class="u" d="M714.15,1972.42a1.5,1.5,0,0,0,.62-0.44,1.12,1.12,0,0,0,.26-0.88,1.4,1.4,0,0,0-.4-0.75l-1.07,1.32-0.23-.19,1.1-1.35-0.08-.06a1.56,1.56,0,0,0-.2-0.15l-1.09,1.34-0.23-.19,1.06-1.3a1.5,1.5,0,0,0-.82-0.21,1.08,1.08,0,0,0-.75.41,1.42,1.42,0,0,0-.29.63l-0.38-.16a1.71,1.71,0,0,1,.36-0.74,1.57,1.57,0,0,1,1.13-.6,1.87,1.87,0,0,1,1.1.26l0.25-.31,0.23,0.19-0.22.27,0.21,0.16,0.07,0.06,0.22-.27,0.23,0.19-0.23.29a1.86,1.86,0,0,1,.53,1,1.56,1.56,0,0,1-.36,1.28,1.64,1.64,0,0,1-.76.54Z"/><path class="u" d="M710.43,1978.78l-0.49-.39a1,1,0,0,1-1.39.11,1.17,1.17,0,0,1-.28-1.41,0.86,0.86,0,0,0-.07-1,0.55,0.55,0,0,0-.8.17,1.45,1.45,0,0,0-.3.72l-0.4-.13a1.66,1.66,0,0,1,.32-0.74l-0.46-.36,0.24-.3,0.47,0.37a1,1,0,0,1,1.32-.11,1.19,1.19,0,0,1,.2,1.42,0.82,0.82,0,0,0,.14,1,0.63,0.63,0,0,0,.9-0.19,1.63,1.63,0,0,0,.33-0.83l0.4,0.14a1.73,1.73,0,0,1-.36.88l0.47,0.37Z"/><path class="u" d="M704.79,1985.18l-0.84-.65-0.57.74-0.23-.18,0.57-.74-0.35-.27-0.57.74-0.23-.18L703,1984l-2.1-.26,0.34-.44,1.37,0.23a5.18,5.18,0,0,1,.59.15h0c-0.1-.17-0.18-0.32-0.29-0.52l-0.6-1.25,0.34-.45,0.82,1.92,0.48-.62,0.23,0.18-0.57.74L704,1984l0.57-.74,0.23,0.18-0.57.74,0.84,0.65Z"/><path class="u" d="M699,1992.78l-0.35-.26,1.08-1.43h0A1.26,1.26,0,0,1,699,1991a2,2,0,0,1-.55-0.38l-0.49.65-0.3-.23,0.52-.69a3.26,3.26,0,0,0-.47-0.44,0.64,0.64,0,0,0-1,.07,1.11,1.11,0,0,0-.23.5l-0.39-.15a1.27,1.27,0,0,1,.27-0.61,1.11,1.11,0,0,1,1.63-.22,4,4,0,0,1,.48.44l0.33-.45,0.3,0.23-0.37.49a2.63,2.63,0,0,0,.32.28,1.2,1.2,0,0,0,1.25.08l0.24,0.18Z"/><path class="u" d="M693.5,1999.28a1.49,1.49,0,0,0,.59-0.47,1.12,1.12,0,0,0,.22-0.89,1.39,1.39,0,0,0-.44-0.73l-1,1.37-0.24-.18,1-1.4-0.08-.06-0.21-.14-1,1.39-0.24-.18,1-1.35a1.52,1.52,0,0,0-.83-0.17,1.08,1.08,0,0,0-.73.45,1.38,1.38,0,0,0-.26.64l-0.39-.14a1.71,1.71,0,0,1,.32-0.76,1.57,1.57,0,0,1,1.1-.66,1.86,1.86,0,0,1,1.11.2l0.23-.32,0.24,0.18-0.21.29,0.22,0.15,0.07,0.05,0.2-.28,0.24,0.18-0.22.3a1.86,1.86,0,0,1,.58,1,1.56,1.56,0,0,1-.29,1.3,1.65,1.65,0,0,1-.73.58Z"/><path class="u" d="M690.11,2005.81l-0.51-.36a1,1,0,0,1-1.38.18,1.17,1.17,0,0,1-.35-1.39,0.86,0.86,0,0,0-.12-1,0.55,0.55,0,0,0-.79.21,1.44,1.44,0,0,0-.27.74l-0.41-.11a1.63,1.63,0,0,1,.28-0.76l-0.47-.34,0.22-.31,0.49,0.35a1,1,0,0,1,1.31-.17,1.19,1.19,0,0,1,.27,1.41,0.82,0.82,0,0,0,.19,1,0.63,0.63,0,0,0,.89-0.24,1.62,1.62,0,0,0,.29-0.85l0.41,0.12a1.73,1.73,0,0,1-.32.89l0.49,0.35Z"/><path class="u" d="M684.79,2012.48l-0.87-.6-0.53.77-0.24-.17,0.54-.77-0.36-.25-0.54.77-0.24-.17,0.45-.64-2.11-.16,0.31-.45,1.38,0.17a5.32,5.32,0,0,1,.59.12v0c-0.11-.16-0.2-0.31-0.31-0.51l-0.66-1.22,0.32-.46,0.91,1.87,0.45-.65,0.24,0.17-0.53.76,0.36,0.25,0.53-.76,0.24,0.17-0.53.76,0.87,0.6Z"/><path class="u" d="M679.41,2020.35l-0.36-.24,1-1.48h0a1.25,1.25,0,0,1-.77,0,2.13,2.13,0,0,1-.57-0.36l-0.46.68-0.31-.21,0.48-.72a3.28,3.28,0,0,0-.5-0.41,0.64,0.64,0,0,0-1,.12,1.14,1.14,0,0,0-.2.52l-0.39-.13a1.24,1.24,0,0,1,.24-0.63,1.11,1.11,0,0,1,1.61-.3,4,4,0,0,1,.5.42l0.31-.46,0.31,0.21-0.35.51a2.48,2.48,0,0,0,.33.26,1.2,1.2,0,0,0,1.25,0l0.25,0.17Z"/><path class="u" d="M674.22,2027.14a1.49,1.49,0,0,0,.57-0.5,1.12,1.12,0,0,0,.17-0.9,1.4,1.4,0,0,0-.48-0.71l-0.93,1.42-0.25-.17,1-1.45-0.08-.06-0.22-.13-0.95,1.44-0.25-.17,0.92-1.4a1.51,1.51,0,0,0-.84-0.13,1.08,1.08,0,0,0-.71.49,1.39,1.39,0,0,0-.23.65l-0.4-.12a1.7,1.7,0,0,1,.28-0.78,1.57,1.57,0,0,1,1.07-.71,1.85,1.85,0,0,1,1.12.15l0.22-.33,0.25,0.17-0.19.29,0.23,0.14,0.08,0,0.19-.29,0.25,0.17-0.2.31a1.86,1.86,0,0,1,.63.93,1.56,1.56,0,0,1-.22,1.31,1.64,1.64,0,0,1-.7.61Z"/><path class="u" d="M671.16,2033.83l-0.53-.34a1,1,0,0,1-1.37.25,1.17,1.17,0,0,1-.42-1.37,0.86,0.86,0,0,0-.17-1,0.55,0.55,0,0,0-.78.25,1.45,1.45,0,0,0-.23.75l-0.41-.09a1.63,1.63,0,0,1,.24-0.77l-0.49-.31,0.2-.32,0.51,0.32a1,1,0,0,1,1.3-.24,1.19,1.19,0,0,1,.35,1.4,0.82,0.82,0,0,0,.24,1,0.63,0.63,0,0,0,.88-0.28,1.62,1.62,0,0,0,.25-0.86l0.42,0.1a1.73,1.73,0,0,1-.27.91l0.51,0.32Z"/><path class="u" d="M666.19,2040.76l-0.9-.56-0.49.8-0.25-.16,0.49-.8-0.37-.23-0.49.8-0.25-.16,0.41-.66-2.11,0,0.29-.47,1.38,0.1a5.09,5.09,0,0,1,.6.09h0c-0.11-.16-0.21-0.3-0.34-0.49l-0.72-1.18,0.3-.48,1,1.82,0.42-.67,0.25,0.16-0.49.79,0.37,0.23,0.49-.79L666,2039l-0.49.79,0.9,0.56Z"/><path class="u" d="M661.2,2048.89l-0.37-.23,0.93-1.53h0a1.25,1.25,0,0,1-.77,0,2.12,2.12,0,0,1-.59-0.33l-0.42.7-0.32-.2,0.45-.74a3.16,3.16,0,0,0-.51-0.39,0.64,0.64,0,0,0-1,.17,1.1,1.1,0,0,0-.18.52l-0.4-.11a1.26,1.26,0,0,1,.21-0.64,1.11,1.11,0,0,1,1.6-.38,4,4,0,0,1,.52.39l0.29-.48,0.32,0.2-0.32.53a2.55,2.55,0,0,0,.34.24,1.2,1.2,0,0,0,1.25,0l0.26,0.16Z"/><path class="u" d="M656.35,2055.93a1.5,1.5,0,0,0,.54-0.53,1.12,1.12,0,0,0,.13-0.91,1.4,1.4,0,0,0-.51-0.68l-0.86,1.46-0.26-.15,0.88-1.5-0.09-.05-0.22-.12-0.88,1.49-0.26-.15,0.85-1.44a1.5,1.5,0,0,0-.84-0.09,1.08,1.08,0,0,0-.69.52,1.41,1.41,0,0,0-.2.66l-0.4-.1a1.72,1.72,0,0,1,.24-0.79,1.57,1.57,0,0,1,1-.77,1.88,1.88,0,0,1,1.12.09l0.2-.34,0.26,0.15-0.18.3,0.23,0.12,0.08,0,0.17-.29L657,2053l-0.19.32a1.85,1.85,0,0,1,.67.9,1.57,1.57,0,0,1-.16,1.32,1.65,1.65,0,0,1-.67.64Z"/><path class="u" d="M653.65,2062.75l-0.54-.31a1,1,0,0,1-1.36.32,1.16,1.16,0,0,1-.49-1.35,0.86,0.86,0,0,0-.22-1,0.55,0.55,0,0,0-.77.29,1.44,1.44,0,0,0-.19.76l-0.42-.07a1.65,1.65,0,0,1,.21-0.78l-0.51-.29,0.19-.33,0.52,0.3a1,1,0,0,1,1.29-.3,1.19,1.19,0,0,1,.41,1.38,0.83,0.83,0,0,0,.28.95,0.63,0.63,0,0,0,.87-0.33,1.61,1.61,0,0,0,.2-0.87l0.42,0.07a1.73,1.73,0,0,1-.22.92l0.52,0.3Z"/><path class="u" d="M649,2069.94l-0.92-.51-0.46.82-0.26-.14,0.46-.82-0.38-.21-0.45.82-0.26-.14,0.38-.68-2.11.06,0.27-.48,1.38,0a4.94,4.94,0,0,1,.6.06v0c-0.12-.15-0.23-0.29-0.36-0.48l-0.78-1.14,0.28-.49,1.1,1.77,0.38-.69,0.26,0.14-0.45.81,0.38,0.21,0.45-.81,0.26,0.14-0.45.81,0.92,0.51Z"/><path class="u" d="M644.44,2078.29l-0.39-.21,0.85-1.58h0a1.25,1.25,0,0,1-.77.06,2.09,2.09,0,0,1-.6-0.3l-0.39.72-0.33-.18,0.41-.76a3.24,3.24,0,0,0-.53-0.36,0.64,0.64,0,0,0-1,.22,1.12,1.12,0,0,0-.15.53l-0.4-.09a1.26,1.26,0,0,1,.18-0.65,1.11,1.11,0,0,1,1.58-.46,4,4,0,0,1,.54.37l0.26-.49,0.33,0.18-0.29.54a2.67,2.67,0,0,0,.36.23,1.2,1.2,0,0,0,1.25-.1l0.26,0.14Z"/><path class="u" d="M640,2085.55a1.49,1.49,0,0,0,.51-0.56,1.12,1.12,0,0,0,.08-0.91,1.4,1.4,0,0,0-.54-0.66l-0.79,1.51-0.27-.14,0.81-1.54-0.09,0-0.23-.11-0.8,1.53-0.26-.14,0.78-1.48a1.51,1.51,0,0,0-.85,0,1.08,1.08,0,0,0-.66.56,1.4,1.4,0,0,0-.16.67l-0.41-.08a1.72,1.72,0,0,1,.2-0.8,1.58,1.58,0,0,1,1-.82,1.87,1.87,0,0,1,1.13,0l0.18-.35,0.26,0.14-0.16.31,0.24,0.11,0.08,0,0.16-.3,0.27,0.14-0.17.33a1.84,1.84,0,0,1,.71.86,1.56,1.56,0,0,1-.09,1.33,1.64,1.64,0,0,1-.63.68Z"/><path class="u" d="M637.57,2092.53l-0.55-.28a1,1,0,0,1-1.34.38,1.16,1.16,0,0,1-.55-1.32,0.86,0.86,0,0,0-.27-1,0.55,0.55,0,0,0-.75.33,1.45,1.45,0,0,0-.16.77l-0.42,0a1.63,1.63,0,0,1,.17-0.79l-0.52-.26,0.17-.34,0.53,0.27a1,1,0,0,1,1.27-.36,1.19,1.19,0,0,1,.48,1.36,0.82,0.82,0,0,0,.33.93,0.63,0.63,0,0,0,.85-0.37,1.61,1.61,0,0,0,.16-0.88l0.42,0.05a1.72,1.72,0,0,1-.18.93l0.53,0.27Z"/><path class="u" d="M633.3,2099.93l-0.95-.47-0.42.84-0.26-.13,0.42-.84-0.39-.19-0.41.84-0.26-.13,0.35-.7-2.11.16,0.25-.5,1.38,0a5.08,5.08,0,0,1,.61,0v0c-0.13-.14-0.24-0.28-0.38-0.46l-0.83-1.11,0.25-.51,1.18,1.71,0.35-.71,0.26,0.13-0.41.83,0.39,0.2,0.41-.84,0.26,0.13-0.41.83,0.95,0.47Z"/><path class="u" d="M629.15,2108.51l-0.4-.19,0.77-1.61h0a1.25,1.25,0,0,1-.76.09,2.1,2.1,0,0,1-.62-0.27l-0.35.74-0.34-.16,0.37-.78a3.2,3.2,0,0,0-.55-0.34,0.64,0.64,0,0,0-1,.27,1.12,1.12,0,0,0-.12.54l-0.41-.07a1.26,1.26,0,0,1,.15-0.65,1.11,1.11,0,0,1,1.55-.54,4.1,4.1,0,0,1,.56.34l0.24-.5,0.34,0.16-0.27.56a2.54,2.54,0,0,0,.37.21,1.2,1.2,0,0,0,1.24-.17l0.27,0.13Z"/><path class="u" d="M625,2116a1.51,1.51,0,0,0,.49-0.58,1.12,1.12,0,0,0,0-.91,1.41,1.41,0,0,0-.57-0.63l-0.71,1.54-0.27-.13,0.73-1.58-0.09,0-0.23-.1-0.73,1.57-0.27-.12,0.7-1.52a1.49,1.49,0,0,0-.85,0,1.07,1.07,0,0,0-.63.59,1.41,1.41,0,0,0-.13.68l-0.41-.06a1.69,1.69,0,0,1,.16-0.81,1.57,1.57,0,0,1,.95-0.86,1.85,1.85,0,0,1,1.13,0l0.17-.36,0.27,0.13-0.15.32,0.24,0.1,0.08,0,0.14-.31,0.27,0.13-0.16.34a1.85,1.85,0,0,1,.76.83,1.56,1.56,0,0,1,0,1.33,1.64,1.64,0,0,1-.6.71Z"/><path class="u" d="M623,2123l-0.57-.25a1,1,0,0,1-1.32.45,1.16,1.16,0,0,1-.62-1.29,0.86,0.86,0,0,0-.32-1,0.55,0.55,0,0,0-.74.37,1.44,1.44,0,0,0-.12.78l-0.42,0a1.62,1.62,0,0,1,.13-0.8l-0.53-.24,0.15-.34,0.55,0.25a1,1,0,0,1,1.25-.43,1.19,1.19,0,0,1,.55,1.33,0.83,0.83,0,0,0,.38.91,0.63,0.63,0,0,0,.83-0.41,1.62,1.62,0,0,0,.11-0.89l0.42,0a1.73,1.73,0,0,1-.13.94l0.55,0.25Z"/><path class="u" d="M619.09,2130.66l-1-.43-0.38.85-0.27-.12,0.38-.85-0.4-.18-0.38.85-0.27-.12,0.32-.71-2.1.24,0.22-.5,1.38-.1a5.09,5.09,0,0,1,.61,0v0l-0.4-.44-0.87-1.07,0.23-.52,1.25,1.67,0.32-.72,0.27,0.12-0.38.85,0.4,0.18,0.38-.85,0.27,0.12-0.38.85,1,0.43Z"/><path class="u" d="M615.38,2139.42l-0.41-.17,0.68-1.65h0a1.25,1.25,0,0,1-.76.14,2.09,2.09,0,0,1-.63-0.23l-0.31.75-0.35-.14,0.33-.8a3.34,3.34,0,0,0-.57-0.3,0.64,0.64,0,0,0-.94.32,1.12,1.12,0,0,0-.09.54l-0.41,0a1.21,1.21,0,0,1,.11-0.66,1.1,1.1,0,0,1,1.52-.62,4,4,0,0,1,.57.31l0.21-.52,0.35,0.14-0.23.57a2.59,2.59,0,0,0,.38.19A1.2,1.2,0,0,0,616,2137l0.28,0.11Z"/><path class="u" d="M611.61,2147.1a1.47,1.47,0,0,0,.46-0.6,1.11,1.11,0,0,0,0-.91,1.4,1.4,0,0,0-.6-0.6l-0.64,1.57-0.28-.11,0.65-1.61-0.09,0-0.24-.08-0.65,1.6-0.28-.11,0.63-1.55a1.51,1.51,0,0,0-.85,0,1.07,1.07,0,0,0-.6.62,1.39,1.39,0,0,0-.1.69l-0.41,0a1.71,1.71,0,0,1,.12-0.82,1.57,1.57,0,0,1,.91-0.91,1.86,1.86,0,0,1,1.12-.08l0.15-.37,0.28,0.11-0.13.33,0.25,0.09,0.08,0,0.13-.32,0.28,0.11-0.14.34a1.86,1.86,0,0,1,.79.79,1.57,1.57,0,0,1,0,1.33,1.63,1.63,0,0,1-.56.73Z"/><path class="u" d="M609.93,2154.27l-0.58-.23a1,1,0,0,1-1.29.51,1.16,1.16,0,0,1-.68-1.26,0.86,0.86,0,0,0-.37-0.94,0.55,0.55,0,0,0-.72.4,1.44,1.44,0,0,0-.08.78h-0.42a1.65,1.65,0,0,1,.09-0.8l-0.54-.21,0.14-.35,0.56,0.22a1,1,0,0,1,1.23-.49,1.19,1.19,0,0,1,.61,1.3,0.83,0.83,0,0,0,.42.89,0.63,0.63,0,0,0,.81-0.45,1.6,1.6,0,0,0,.07-0.89h0.43a1.72,1.72,0,0,1-.09.95l0.56,0.22Z"/><path class="u" d="M606.4,2162.07l-1-.37-0.33.88-0.28-.1,0.33-.88-0.41-.15-0.33.88-0.28-.1,0.27-.73-2.08.37,0.19-.52,1.37-.18a5.07,5.07,0,0,1,.61,0v0c-0.14-.13-0.27-0.26-0.43-0.42l-0.94-1,0.2-.53,1.34,1.59L605,2160l0.27,0.1-0.33.87,0.41,0.15,0.33-.87,0.28,0.1-0.33.87,1,0.37Z"/><path class="u" d="M603.11,2171l-0.41-.15,0.61-1.68h0a1.25,1.25,0,0,1-.75.17,2.11,2.11,0,0,1-.64-0.21l-0.28.77-0.36-.13,0.29-.81a3.35,3.35,0,0,0-.58-0.28,0.64,0.64,0,0,0-.93.36,1.12,1.12,0,0,0-.07.55l-0.41,0a1.22,1.22,0,0,1,.08-0.67,1.11,1.11,0,0,1,1.49-.69,3.94,3.94,0,0,1,.59.28l0.19-.53,0.36,0.13-0.21.58a2.58,2.58,0,0,0,.38.17,1.2,1.2,0,0,0,1.22-.29l0.28,0.1Z"/><path class="u" d="M599.74,2178.85a1.5,1.5,0,0,0,.43-0.62,1.13,1.13,0,0,0-.05-0.91,1.4,1.4,0,0,0-.63-0.57l-0.56,1.6-0.28-.1,0.57-1.64-0.1,0-0.24-.07-0.57,1.63L598,2178l0.55-1.58a1.5,1.5,0,0,0-.84.08,1.07,1.07,0,0,0-.57.65,1.41,1.41,0,0,0-.06.69l-0.41,0a1.68,1.68,0,0,1,.08-0.82,1.57,1.57,0,0,1,.86-1,1.87,1.87,0,0,1,1.12-.13l0.13-.37,0.28,0.1L599,2176l0.25,0.08,0.09,0,0.11-.32,0.28,0.1-0.12.35a1.85,1.85,0,0,1,.83.75,1.56,1.56,0,0,1,.11,1.32,1.63,1.63,0,0,1-.53.76Z"/><path class="u" d="M598.42,2186.07l-0.59-.2a1,1,0,0,1-1.27.57,1.17,1.17,0,0,1-.74-1.23,0.86,0.86,0,0,0-.41-0.92,0.55,0.55,0,0,0-.7.44,1.43,1.43,0,0,0,0,.78l-0.42,0a1.64,1.64,0,0,1,0-.81l-0.55-.19,0.12-.36,0.57,0.19a1,1,0,0,1,1.2-.55,1.19,1.19,0,0,1,.67,1.27,0.82,0.82,0,0,0,.46.87,0.63,0.63,0,0,0,.78-0.49,1.61,1.61,0,0,0,0-.9H598a1.73,1.73,0,0,1,0,.95l0.57,0.19Z"/><path class="u" d="M595.28,2194l-1-.32-0.29.89-0.28-.09,0.29-.89-0.42-.13-0.29.89-0.28-.09,0.24-.74-2.06.47,0.17-.53,1.36-.24a5.18,5.18,0,0,1,.6-0.06v0l-0.45-.4-1-1,0.17-.54,1.42,1.52,0.24-.75,0.28,0.09-0.29.89,0.42,0.13,0.29-.89,0.28,0.09-0.28.89,1,0.32Z"/><circle class="v" cx="-334.5" cy="30.44" r="627.24" transform="translate(-6.13 -40.18) rotate(-6.94)"/><circle class="w" cx="-332.18" cy="-33.65" r="699.64" transform="translate(1.63 -40.37) rotate(-6.94)"/><circle class="w" cx="-332.18" cy="-33.65" r="699.64" transform="translate(1.63 -40.37) rotate(-6.94)"/><path class="x" d="M-0.15,657.26l-0.09,1.05,0.93,0.08,0,0.29-0.93-.08,0,0.44,0.93,0.08,0,0.29-0.78-.07,0.92,1.9-0.55,0-0.54-1.27a5.09,5.09,0,0,1-.19-0.58h0l-0.28.52L-1.57,661l-0.56,0L-1,659.28l-0.78-.07,0-.29L-0.8,659l0-.44-0.93-.08,0-.29,0.93,0.08,0.09-1.05Z"/><path class="x" d="M9.35,658l0,0.44-1.78-.13h0a1.26,1.26,0,0,1,.37.68,2.13,2.13,0,0,1,0,.67l0.81,0.06,0,0.38L7.81,660a3.36,3.36,0,0,0-.11.64,0.64,0.64,0,0,0,.6.8,1.13,1.13,0,0,0,.55-0.08l0.08,0.4a1.25,1.25,0,0,1-.66.1,1.11,1.11,0,0,1-1.07-1.25A4.06,4.06,0,0,1,7.31,660l-0.56,0,0-.38,0.62,0a2.56,2.56,0,0,0,.06-0.42,1.2,1.2,0,0,0-.61-1.1l0-.3Z"/><path class="x" d="M17.8,659.1a1.49,1.49,0,0,0-.72-0.24,1.12,1.12,0,0,0-.87.3,1.41,1.41,0,0,0-.38.76l1.69,0.1,0,0.3-1.74-.1s0,0.07,0,.1a1.75,1.75,0,0,0,0,.25l1.72,0.1,0,0.3-1.67-.1a1.51,1.51,0,0,0,.31.79,1.07,1.07,0,0,0,.78.37,1.39,1.39,0,0,0,.68-0.13l0.1,0.4a1.69,1.69,0,0,1-.81.14,1.57,1.57,0,0,1-1.15-.57,1.86,1.86,0,0,1-.43-1l-0.4,0,0-.3,0.35,0c0-.08,0-0.17,0-0.26s0-.06,0-0.09l-0.34,0,0-.3,0.37,0a1.84,1.84,0,0,1,.49-1,1.56,1.56,0,0,1,1.25-.46,1.64,1.64,0,0,1,.88.3Z"/><path class="x" d="M25.13,658.41l0,0.63a1,1,0,0,1,.9,1.06,1.17,1.17,0,0,1-1,1,0.86,0.86,0,0,0-.78.65,0.55,0.55,0,0,0,.61.55,1.44,1.44,0,0,0,.77-0.17l0.13,0.4a1.64,1.64,0,0,1-.79.17l0,0.58-0.38,0,0-.6a1,1,0,0,1-.85-1,1.19,1.19,0,0,1,1-1,0.83,0.83,0,0,0,.71-0.68,0.63,0.63,0,0,0-.69-0.62,1.6,1.6,0,0,0-.87.22l-0.12-.41a1.74,1.74,0,0,1,.92-0.22l0-.6Z"/><path class="x" d="M33.62,659.26l0,1.06,0.94,0v0.29l-0.94,0,0,0.44,0.94,0v0.29l-0.78,0,1,1.86-0.55,0-0.61-1.25a4.83,4.83,0,0,1-.22-0.57h0c-0.08.18-.16,0.34-0.26,0.54l-0.67,1.22-0.56,0,1.08-1.78-0.79,0V661l0.93,0v-0.44l-0.93,0v-0.29l0.93,0,0-1.06Z"/><path class="x" d="M43.17,659.52V660l-1.79,0h0a1.26,1.26,0,0,1,.4.66,2.13,2.13,0,0,1,0,.67l0.82,0v0.38l-0.86,0a3.28,3.28,0,0,0-.08.64,0.64,0.64,0,0,0,.64.76,1.12,1.12,0,0,0,.54-0.11l0.11,0.4a1.26,1.26,0,0,1-.66.13,1.11,1.11,0,0,1-1.12-1.2,3.87,3.87,0,0,1,.08-0.65H40.67v-0.38H41.3a2.73,2.73,0,0,0,0-.42,1.2,1.2,0,0,0-.66-1.06v-0.3Z"/><path class="x" d="M51.66,660.2a1.5,1.5,0,0,0-.73-0.2,1.12,1.12,0,0,0-.85.34,1.4,1.4,0,0,0-.34.78h1.7v0.3l-1.74,0s0,0.07,0,.1a1.75,1.75,0,0,0,0,.25h1.73v0.3H49.76a1.51,1.51,0,0,0,.35.77,1.08,1.08,0,0,0,.8.33,1.4,1.4,0,0,0,.67-0.16l0.12,0.4a1.72,1.72,0,0,1-.81.18,1.57,1.57,0,0,1-1.18-.51,1.86,1.86,0,0,1-.48-1h-0.4v-0.3h0.35c0-.08,0-0.17,0-0.26v-0.09H48.83v-0.3h0.37a1.85,1.85,0,0,1,.44-1,1.56,1.56,0,0,1,1.22-.52,1.65,1.65,0,0,1,.89.25Z"/><path class="x" d="M58.93,659.14v0.62a1,1,0,0,1,1,1,1.16,1.16,0,0,1-.93,1.09,0.86,0.86,0,0,0-.74.68,0.55,0.55,0,0,0,.64.52,1.44,1.44,0,0,0,.75-0.21l0.15,0.4a1.65,1.65,0,0,1-.78.21v0.58H58.61v-0.6a1,1,0,0,1-.9-1,1.19,1.19,0,0,1,1-1,0.83,0.83,0,0,0,.67-0.71,0.63,0.63,0,0,0-.71-0.59,1.61,1.61,0,0,0-.86.26l-0.15-.4a1.74,1.74,0,0,1,.91-0.27v-0.6h0.38Z"/><path class="x" d="M67.49,659.56l0,1.06,0.94,0v0.29l-0.94,0v0.44h0.94v0.29H67.68l1.1,1.8H68.23l-0.67-1.21a5.31,5.31,0,0,1-.25-0.55h0c-0.07.18-.14,0.34-0.23,0.55l-0.6,1.25H65.9l1-1.83H66.09v-0.29l0.93,0v-0.44H66.08v-0.29l0.93,0,0-1.06h0.5Z"/><path class="x" d="M77,659.34v0.44l-1.79.05h0a1.25,1.25,0,0,1,.43.64,2.07,2.07,0,0,1,0,.67l0.81,0v0.38l-0.86,0a3.23,3.23,0,0,0,0,.64,0.64,0.64,0,0,0,.67.73,1.13,1.13,0,0,0,.54-0.13L77,663.16a1.28,1.28,0,0,1-.65.17,1.11,1.11,0,0,1-1.18-1.14,3.94,3.94,0,0,1,0-.65H74.61v-0.38l0.62,0a2.52,2.52,0,0,0,0-.42,1.2,1.2,0,0,0-.71-1v-0.3Z"/><path class="x" d="M85.54,659.59a1.49,1.49,0,0,0-.74-0.17,1.12,1.12,0,0,0-.83.38,1.39,1.39,0,0,0-.3.8l1.7-.07v0.3l-1.74.07V661a1.62,1.62,0,0,0,0,.25l1.73-.07v0.3l-1.67.07a1.5,1.5,0,0,0,.39.75,1.07,1.07,0,0,0,.81.29,1.4,1.4,0,0,0,.66-0.2l0.14,0.39a1.71,1.71,0,0,1-.79.23,1.57,1.57,0,0,1-1.2-.45,1.86,1.86,0,0,1-.53-1l-0.4,0v-0.3h0.35c0-.08,0-0.17,0-0.26v-0.09H82.78v-0.3l0.37,0a1.85,1.85,0,0,1,.39-1,1.56,1.56,0,0,1,1.19-.58,1.62,1.62,0,0,1,.9.21Z"/><path class="x" d="M92.76,658.17l0,0.62a1,1,0,0,1,1,1,1.16,1.16,0,0,1-.87,1.14,0.86,0.86,0,0,0-.71.72,0.55,0.55,0,0,0,.66.49,1.45,1.45,0,0,0,.74-0.25l0.17,0.39a1.65,1.65,0,0,1-.77.25l0,0.58-0.38,0,0-.6a1,1,0,0,1-1-.92,1.19,1.19,0,0,1,.93-1.09,0.83,0.83,0,0,0,.64-0.75,0.63,0.63,0,0,0-.74-0.55,1.61,1.61,0,0,0-.84.3l-0.16-.39a1.73,1.73,0,0,1,.9-0.31l0-.6Z"/><path class="x" d="M101.29,658.16l0.07,1.05,0.94-.06,0,0.29-0.94.06,0,0.44,0.94-.06,0,0.29-0.78.05,1.19,1.74-0.55,0-0.73-1.18a5.22,5.22,0,0,1-.28-0.54h0c-0.06.18-.12,0.35-0.2,0.56l-0.54,1.28-0.56,0,0.89-1.88-0.79.05,0-.29,0.93-.06,0-.44-0.93.06,0-.29,0.93-.06-0.07-1.05Z"/><path class="x" d="M110.82,657.47l0,0.44-1.78.14h0a1.24,1.24,0,0,1,.46.61,2.07,2.07,0,0,1,.08.67l0.82-.06,0,0.38-0.86.07a3.21,3.21,0,0,0,0,.64,0.64,0.64,0,0,0,.71.7,1.12,1.12,0,0,0,.53-0.16l0.14,0.39a1.25,1.25,0,0,1-.64.2,1.11,1.11,0,0,1-1.24-1.08,4,4,0,0,1,0-.65l-0.56,0,0-.38,0.62,0a2.62,2.62,0,0,0,0-.42,1.2,1.2,0,0,0-.76-1l0-.3Z"/><path class="x" d="M119.33,657.29a1.49,1.49,0,0,0-.75-0.13,1.12,1.12,0,0,0-.81.42,1.4,1.4,0,0,0-.26.81l1.69-.15,0,0.3-1.73.16v0.1a1.65,1.65,0,0,0,0,.25l1.72-.16,0,0.3-1.67.15a1.51,1.51,0,0,0,.42.73,1.08,1.08,0,0,0,.82.25,1.38,1.38,0,0,0,.65-0.23l0.15,0.38a1.71,1.71,0,0,1-.78.26,1.56,1.56,0,0,1-1.22-.39,1.85,1.85,0,0,1-.58-1l-0.39,0,0-.3,0.35,0c0-.08,0-0.17,0-0.26v-0.09l-0.34,0,0-.3,0.37,0a1.85,1.85,0,0,1,.34-1.07,1.56,1.56,0,0,1,1.16-.64,1.64,1.64,0,0,1,.91.16Z"/><path class="x" d="M126.47,655.51l0.07,0.62a1,1,0,0,1,1,.92,1.17,1.17,0,0,1-.81,1.18,0.86,0.86,0,0,0-.67.76,0.55,0.55,0,0,0,.69.45,1.44,1.44,0,0,0,.73-0.29l0.19,0.38a1.65,1.65,0,0,1-.75.29L127,660.4l-0.38,0-0.06-.6a1,1,0,0,1-1-.87,1.19,1.19,0,0,1,.88-1.14,0.83,0.83,0,0,0,.6-0.78,0.63,0.63,0,0,0-.77-0.51,1.61,1.61,0,0,0-.83.35l-0.19-.39a1.74,1.74,0,0,1,.88-0.36l-0.06-.6Z"/><path class="x" d="M135,655.08l0.12,1L136,656l0,0.29-0.93.11,0.05,0.44,0.93-.11,0,0.29-0.77.09,1.28,1.68-0.55.06-0.79-1.14a5,5,0,0,1-.3-0.53h0c-0.05.19-.1,0.36-0.17,0.57l-0.48,1.3-0.56.06,0.79-1.92-0.78.09,0-.29,0.92-.11-0.05-.43-0.92.11,0-.29,0.92-.11-0.12-1Z"/><path class="x" d="M144.45,653.91l0.06,0.43-1.77.23h0a1.25,1.25,0,0,1,.49.59,2.09,2.09,0,0,1,.11.66l0.81-.1,0,0.38-0.86.11a3.36,3.36,0,0,0,0,.64,0.64,0.64,0,0,0,.74.66,1.11,1.11,0,0,0,.52-0.19l0.16,0.38a1.26,1.26,0,0,1-.63.23,1.11,1.11,0,0,1-1.29-1,4,4,0,0,1,0-.65l-0.55.07,0-.37,0.61-.08a2.53,2.53,0,0,0,0-.42,1.2,1.2,0,0,0-.81-1l0-.3Z"/><path class="x" d="M153,653.31a1.48,1.48,0,0,0-.75-0.09,1.12,1.12,0,0,0-.79.46,1.4,1.4,0,0,0-.22.83l1.68-.24,0,0.3-1.72.24v0.1a1.66,1.66,0,0,0,0,.25l1.71-.24,0,0.3-1.66.23a1.51,1.51,0,0,0,.46.71,1.08,1.08,0,0,0,.84.21,1.39,1.39,0,0,0,.64-0.26l0.17,0.38a1.72,1.72,0,0,1-.77.3,1.57,1.57,0,0,1-1.24-.33,1.87,1.87,0,0,1-.63-0.94l-0.39.05,0-.3,0.35,0c0-.08,0-0.17,0-0.26v-0.09l-0.34,0,0-.3,0.37-.05a1.86,1.86,0,0,1,.29-1.08,1.56,1.56,0,0,1,1.13-.7,1.65,1.65,0,0,1,.92.12Z"/><path class="x" d="M160,651.17l0.1,0.62a1,1,0,0,1,1.09.86,1.16,1.16,0,0,1-.75,1.22,0.86,0.86,0,0,0-.63.79,0.55,0.55,0,0,0,.71.42,1.44,1.44,0,0,0,.72-0.32l0.21,0.37a1.64,1.64,0,0,1-.74.33L160.8,656l-0.37.06-0.09-.59a1,1,0,0,1-1-.82,1.19,1.19,0,0,1,.82-1.18,0.83,0.83,0,0,0,.56-0.81,0.63,0.63,0,0,0-.8-0.47,1.6,1.6,0,0,0-.81.39l-0.2-.38a1.73,1.73,0,0,1,.86-0.4l-0.09-.59Z"/><path class="x" d="M168.51,650.32l0.17,1,0.92-.16,0,0.29-0.92.16,0.07,0.43,0.92-.15,0,0.29-0.77.13,1.36,1.61-0.54.09-0.84-1.1a5.2,5.2,0,0,1-.33-0.51h0c0,0.19-.08.36-0.15,0.58l-0.41,1.32-0.56.09,0.7-2-0.77.13,0-.29,0.92-.15-0.07-.43-0.92.15,0-.29,0.92-.15-0.18-1Z"/><path class="x" d="M177.91,648.68l0.08,0.43-1.76.32h0a1.26,1.26,0,0,1,.52.57,2.12,2.12,0,0,1,.14.66l0.8-.14,0.07,0.37-0.85.15a3.27,3.27,0,0,0,0,.64,0.64,0.64,0,0,0,.78.62,1.13,1.13,0,0,0,.51-0.21l0.18,0.37a1.25,1.25,0,0,1-.62.26,1.11,1.11,0,0,1-1.34-.95,4.06,4.06,0,0,1,0-.65l-0.55.1-0.07-.37,0.61-.11a2.62,2.62,0,0,0,0-.42,1.2,1.2,0,0,0-.86-0.91l-0.05-.29Z"/><path class="x" d="M186.38,647.65a1.49,1.49,0,0,0-.76-0.06,1.12,1.12,0,0,0-.77.5,1.4,1.4,0,0,0-.17.83l1.67-.32,0.06,0.29-1.71.33,0,0.1a1.77,1.77,0,0,0,.06.25l1.7-.33,0.06,0.29-1.64.32a1.51,1.51,0,0,0,.49.69,1.08,1.08,0,0,0,.85.17,1.39,1.39,0,0,0,.63-0.29l0.19,0.37a1.72,1.72,0,0,1-.75.34,1.56,1.56,0,0,1-1.25-.26,1.86,1.86,0,0,1-.68-0.9L184,650l-0.06-.29,0.35-.07c0-.08,0-0.17-0.06-0.26l0-.09-0.34.06-0.06-.29,0.37-.07a1.84,1.84,0,0,1,.23-1.09,1.56,1.56,0,0,1,1.1-.76,1.63,1.63,0,0,1,.92.07Z"/><path class="x" d="M193.3,645.17l0.13,0.61a1,1,0,0,1,1.13.81,1.16,1.16,0,0,1-.69,1.26,0.86,0.86,0,0,0-.59.82,0.55,0.55,0,0,0,.73.38,1.44,1.44,0,0,0,.7-0.36l0.23,0.36a1.63,1.63,0,0,1-.72.36l0.12,0.57-0.37.08-0.12-.59a1,1,0,0,1-1.08-.76,1.19,1.19,0,0,1,.76-1.22,0.82,0.82,0,0,0,.52-0.83,0.63,0.63,0,0,0-.82-0.43,1.62,1.62,0,0,0-.79.43l-0.22-.37a1.72,1.72,0,0,1,.84-0.44l-0.12-.59Z"/><path class="x" d="M201.74,643.89l0.23,1,0.91-.2,0.06,0.29-0.91.2,0.09,0.43,0.91-.2,0.06,0.29-0.76.17,1.44,1.54-0.54.12-0.9-1.06A5,5,0,0,1,202,646h0c0,0.19-.07.36-0.12,0.58l-0.34,1.34-0.55.12,0.6-2-0.77.17-0.06-.29,0.91-.2-0.09-.43-0.91.2-0.06-.29,0.91-.2-0.23-1Z"/><path class="x" d="M211,641.79l0.1,0.43-1.74.4h0a1.25,1.25,0,0,1,.55.54,2.13,2.13,0,0,1,.18.65l0.79-.18L211,644l-0.84.2a3.31,3.31,0,0,0,.08.64,0.64,0.64,0,0,0,.81.58,1.12,1.12,0,0,0,.5-0.24l0.2,0.36a1.27,1.27,0,0,1-.6.29,1.11,1.11,0,0,1-1.39-.88,3.89,3.89,0,0,1-.08-0.65l-0.54.13-0.09-.37,0.6-.14a2.55,2.55,0,0,0-.06-0.42,1.2,1.2,0,0,0-.9-0.87l-0.07-.29Z"/><path class="x" d="M219.46,640.34a1.48,1.48,0,0,0-.76,0,1.12,1.12,0,0,0-.74.54,1.41,1.41,0,0,0-.13.84l1.65-.4,0.07,0.29-1.69.41,0,0.1a1.54,1.54,0,0,0,.07.24l1.68-.41,0.07,0.29-1.63.4a1.49,1.49,0,0,0,.53.66,1.07,1.07,0,0,0,.85.13,1.39,1.39,0,0,0,.61-0.32l0.21,0.36a1.7,1.7,0,0,1-.73.38,1.57,1.57,0,0,1-1.27-.2,1.86,1.86,0,0,1-.72-0.87l-0.39.09-0.07-.29,0.34-.08c0-.08-0.05-0.17-0.08-0.25l0-.09-0.33.08-0.07-.29,0.36-.09a1.85,1.85,0,0,1,.17-1.11,1.56,1.56,0,0,1,1.06-.81,1.63,1.63,0,0,1,.93,0v0.4Z"/><path class="x" d="M226.24,637.52l0.16,0.6a1,1,0,0,1,1.17.75,1.16,1.16,0,0,1-.63,1.29,0.86,0.86,0,0,0-.55.85,0.55,0.55,0,0,0,.75.35,1.44,1.44,0,0,0,.68-0.39l0.24,0.35a1.66,1.66,0,0,1-.7.4l0.15,0.56-0.37.09-0.15-.58a1,1,0,0,1-1.11-.71,1.19,1.19,0,0,1,.7-1.26A0.83,0.83,0,0,0,227,639a0.63,0.63,0,0,0-.84-0.39,1.62,1.62,0,0,0-.77.46l-0.24-.35a1.72,1.72,0,0,1,.82-0.48l-0.15-.58Z"/><path class="x" d="M234.62,635.82l0.28,1,0.9-.25,0.08,0.28-0.9.25,0.11,0.42,0.9-.25,0.08,0.28-0.75.2,1.52,1.47-0.53.14-0.95-1a5.19,5.19,0,0,1-.38-0.48h0c0,0.19,0,.37-0.09.59l-0.28,1.36L234,640l0.5-2-0.76.21-0.08-.28,0.9-.24-0.11-.42-0.9.25-0.08-.28,0.9-.24-0.28-1Z"/><path class="x" d="M243.78,633.27l0.12,0.42-1.72.49h0a1.25,1.25,0,0,1,.58.51,2.12,2.12,0,0,1,.21.64l0.79-.22,0.1,0.36-0.83.24a3.24,3.24,0,0,0,.11.64,0.64,0.64,0,0,0,.83.54,1.13,1.13,0,0,0,.49-0.26l0.22,0.35a1.25,1.25,0,0,1-.59.32,1.11,1.11,0,0,1-1.43-.81,3.91,3.91,0,0,1-.11-0.64L242,636l-0.1-.36,0.59-.17a2.6,2.6,0,0,0-.09-0.41,1.2,1.2,0,0,0-.94-0.82l-0.08-.29Z"/><path class="x" d="M252.12,631.41a1.49,1.49,0,0,0-.76,0,1.12,1.12,0,0,0-.71.58,1.4,1.4,0,0,0-.09.85l1.63-.48,0.09,0.29-1.67.5,0,0.1a1.79,1.79,0,0,0,.08.24l1.66-.49,0.09,0.29-1.61.48a1.51,1.51,0,0,0,.56.64,1.08,1.08,0,0,0,.86.08,1.39,1.39,0,0,0,.6-0.35l0.23,0.35a1.71,1.71,0,0,1-.72.41,1.57,1.57,0,0,1-1.28-.14,1.85,1.85,0,0,1-.76-0.83L250,634l-0.09-.29,0.34-.1c0-.08-0.06-0.16-0.09-0.25l0-.09-0.33.1-0.09-.29L250,633a1.84,1.84,0,0,1,.12-1.11,1.56,1.56,0,0,1,1-.86,1.63,1.63,0,0,1,.93,0v0.4Z"/><path class="x" d="M258.77,628.24l0.19,0.59a1,1,0,0,1,1.21.69,1.16,1.16,0,0,1-.56,1.32,0.86,0.86,0,0,0-.5.88,0.55,0.55,0,0,0,.76.31,1.43,1.43,0,0,0,.66-0.43l0.26,0.33a1.63,1.63,0,0,1-.68.43l0.17,0.56-0.36.11-0.18-.57a1,1,0,0,1-1.15-.65,1.19,1.19,0,0,1,.63-1.29,0.83,0.83,0,0,0,.43-0.88,0.63,0.63,0,0,0-.86-0.35,1.61,1.61,0,0,0-.74.5l-0.26-.34a1.73,1.73,0,0,1,.79-0.52l-0.18-.57Z"/><path class="x" d="M267,626.13l0.33,1,0.89-.29,0.09,0.28-0.89.29,0.14,0.42,0.89-.29,0.09,0.28-0.74.24,1.59,1.39-0.52.17-1-1a5.05,5.05,0,0,1-.4-0.46h0c0,0.19,0,.37-0.06.59l-0.21,1.37-0.54.17,0.4-2-0.75.24-0.09-.28,0.88-.29-0.14-.42-0.88.29-0.09-.28,0.88-.29-0.33-1Z"/><path class="x" d="M276.1,623.12l0.14,0.41-1.69.57h0a1.24,1.24,0,0,1,.6.48,2.09,2.09,0,0,1,.24.63l0.77-.26,0.12,0.36-0.82.28a3.32,3.32,0,0,0,.14.63,0.64,0.64,0,0,0,.86.5,1.13,1.13,0,0,0,.47-0.29l0.23,0.34a1.25,1.25,0,0,1-.57.35,1.11,1.11,0,0,1-1.47-.74,4,4,0,0,1-.15-0.63l-0.53.18-0.12-.36,0.58-.2a2.42,2.42,0,0,0-.11-0.41,1.2,1.2,0,0,0-1-.78l-0.1-.28Z"/><path class="x" d="M284.33,620.85a1.5,1.5,0,0,0-.76.06,1.12,1.12,0,0,0-.68.61,1.4,1.4,0,0,0,0,.85l1.6-.57,0.1,0.28-1.64.58,0,0.1a1.68,1.68,0,0,0,.1.23l1.63-.58,0.1,0.28-1.58.56a1.5,1.5,0,0,0,.59.61,1.08,1.08,0,0,0,.86,0,1.4,1.4,0,0,0,.58-0.38l0.25,0.33a1.71,1.71,0,0,1-.7.45,1.57,1.57,0,0,1-1.28-.08,1.87,1.87,0,0,1-.8-0.79l-0.37.13-0.1-.28,0.33-.12c0-.08-0.07-0.16-0.1-0.25l0-.08-0.32.11-0.1-.28,0.35-.12a1.86,1.86,0,0,1,.06-1.12,1.56,1.56,0,0,1,1-.91,1.63,1.63,0,0,1,.92-0.07Z"/><path class="x" d="M290.8,617.36l0.22,0.59a1,1,0,0,1,1.24.63,1.16,1.16,0,0,1-.5,1.34,0.86,0.86,0,0,0-.46.9,0.55,0.55,0,0,0,.78.27,1.47,1.47,0,0,0,.64-0.46L293,621a1.66,1.66,0,0,1-.66.47l0.2,0.54-0.36.13-0.21-.56a1,1,0,0,1-1.18-.6,1.19,1.19,0,0,1,.57-1.32,0.82,0.82,0,0,0,.39-0.9,0.63,0.63,0,0,0-.87-0.31,1.62,1.62,0,0,0-.72.54l-0.27-.33a1.72,1.72,0,0,1,.76-0.56l-0.21-.56Z"/><path class="x" d="M299,614.85l0.38,1,0.88-.33,0.1,0.28-0.87.33,0.16,0.41,0.88-.33,0.1,0.28-0.73.28,1.65,1.32-0.51.2-1-.91a5,5,0,0,1-.42-0.44h0c0,0.19,0,.37,0,0.6l-0.14,1.38-0.53.2,0.3-2.06-0.73.28-0.11-.27,0.87-.33-0.16-.41-0.87.33-0.1-.28,0.87-.33-0.38-1Z"/><path class="x" d="M307.86,611.39l0.16,0.41-1.66.66h0a1.25,1.25,0,0,1,.62.45,2.07,2.07,0,0,1,.27.62l0.76-.3,0.14,0.35-0.8.32a3.3,3.3,0,0,0,.17.62,0.64,0.64,0,0,0,.88.46,1.11,1.11,0,0,0,.46-0.31l0.25,0.33a1.25,1.25,0,0,1-.55.38,1.11,1.11,0,0,1-1.5-.67,4,4,0,0,1-.18-0.63l-0.52.21-0.14-.35,0.58-.22a2.59,2.59,0,0,0-.13-0.4,1.2,1.2,0,0,0-1-.73l-0.11-.28Z"/><path class="x" d="M316,608.71a1.49,1.49,0,0,0-.75.09,1.12,1.12,0,0,0-.65.64,1.4,1.4,0,0,0,0,.85l1.57-.64,0.11,0.28-1.61.66,0,0.09a1.78,1.78,0,0,0,.11.23l1.6-.66,0.11,0.28-1.55.64a1.5,1.5,0,0,0,.62.58,1.08,1.08,0,0,0,.86,0,1.41,1.41,0,0,0,.56-0.41l0.26,0.32a1.7,1.7,0,0,1-.67.48,1.58,1.58,0,0,1-1.28,0,1.87,1.87,0,0,1-.84-0.75l-0.37.15-0.11-.28,0.33-.13-0.11-.24,0-.08-0.32.13-0.11-.28,0.34-.14a1.85,1.85,0,0,1,0-1.12,1.57,1.57,0,0,1,.92-1,1.65,1.65,0,0,1,.92-0.11Z"/><path class="x" d="M322.26,604.91l0.24,0.57a1,1,0,0,1,1.27.57,1.16,1.16,0,0,1-.43,1.37,0.86,0.86,0,0,0-.42.92,0.55,0.55,0,0,0,.79.23,1.45,1.45,0,0,0,.61-0.49l0.29,0.31a1.64,1.64,0,0,1-.64.5l0.23,0.54-0.35.15-0.23-.55a1,1,0,0,1-1.21-.54,1.19,1.19,0,0,1,.5-1.35,0.82,0.82,0,0,0,.35-0.92,0.63,0.63,0,0,0-.89-0.26,1.61,1.61,0,0,0-.69.57l-0.29-.31a1.72,1.72,0,0,1,.74-0.6l-0.23-.55Z"/><path class="x" d="M330.29,602l0.43,1,0.86-.38,0.12,0.27-0.86.38,0.18,0.4,0.86-.38,0.12,0.27-0.71.31,1.72,1.23-0.51.22-1.09-.86A5,5,0,0,1,331,604h0c0,0.19,0,.37,0,0.6L330.86,606l-0.52.23,0.2-2.07-0.72.32-0.12-.27,0.85-.37-0.18-.4-0.85.38-0.12-.27,0.85-.37-0.43-1Z"/><path class="x" d="M339,598.09l0.18,0.4-1.63.74h0a1.25,1.25,0,0,1,.65.42,2.1,2.1,0,0,1,.3.6l0.74-.34,0.16,0.34-0.79.36a3.28,3.28,0,0,0,.21.61,0.64,0.64,0,0,0,.91.41,1.1,1.1,0,0,0,.44-0.33l0.27,0.31a1.25,1.25,0,0,1-.53.41,1.11,1.11,0,0,1-1.53-.59,4.08,4.08,0,0,1-.21-0.62l-0.51.23-0.16-.35,0.56-.25a2.58,2.58,0,0,0-.15-0.4,1.2,1.2,0,0,0-1.06-.67l-0.12-.27Z"/><path class="x" d="M347,595a1.48,1.48,0,0,0-.75.13,1.11,1.11,0,0,0-.62.67,1.39,1.39,0,0,0,0,.85l1.54-.72,0.13,0.27-1.57.74,0,0.09a1.65,1.65,0,0,0,.12.22l1.56-.73,0.13,0.27-1.52.71a1.49,1.49,0,0,0,.65.54,1.07,1.07,0,0,0,.86,0,1.39,1.39,0,0,0,.54-0.44l0.28,0.31a1.67,1.67,0,0,1-.65.52,1.57,1.57,0,0,1-1.28.05,1.86,1.86,0,0,1-.87-0.71l-0.36.17-0.13-.27,0.32-.15-0.12-.23,0-.08-0.31.14-0.13-.27,0.34-.16a1.85,1.85,0,0,1,0-1.12,1.56,1.56,0,0,1,.88-1,1.63,1.63,0,0,1,.91-0.16Z"/><path class="x" d="M353.06,590.91l0.27,0.56a1,1,0,0,1,1.3.5,1.16,1.16,0,0,1-.36,1.39,0.86,0.86,0,0,0-.37.94,0.55,0.55,0,0,0,.8.19,1.43,1.43,0,0,0,.59-0.52l0.31,0.29a1.67,1.67,0,0,1-.61.53l0.25,0.52-0.34.17-0.26-.54a1,1,0,0,1-1.23-.48,1.19,1.19,0,0,1,.43-1.37,0.82,0.82,0,0,0,.3-0.94,0.63,0.63,0,0,0-.9-0.22,1.59,1.59,0,0,0-.66.61l-0.31-.3a1.72,1.72,0,0,1,.71-0.63l-0.26-.54Z"/><path class="x" d="M360.94,587.6l0.47,0.95,0.84-.42,0.13,0.26-0.84.42,0.2,0.39,0.84-.42,0.13,0.26-0.7.35,1.77,1.15-0.49.25-1.13-.81a5.4,5.4,0,0,1-.47-0.39h0c0,0.19,0,.37,0,0.6v1.39l-0.5.25,0.09-2.08-0.7.35-0.13-.26,0.83-.42-0.2-.39-0.83.42-0.13-.26,0.83-.42-0.47-.95Z"/><path class="x" d="M369.42,583.28l0.2,0.39-1.59.82h0a1.25,1.25,0,0,1,.66.38,2.11,2.11,0,0,1,.33.59l0.73-.37,0.17,0.34-0.77.4a3.25,3.25,0,0,0,.24.6,0.64,0.64,0,0,0,.93.37,1.12,1.12,0,0,0,.42-0.35l0.28,0.3a1.26,1.26,0,0,1-.51.43,1.11,1.11,0,0,1-1.56-.51,4.07,4.07,0,0,1-.24-0.61l-0.5.26L368,586l0.55-.28a2.56,2.56,0,0,0-.17-0.39,1.2,1.2,0,0,0-1.09-.62l-0.14-.27Z"/><path class="x" d="M377.22,579.82a1.49,1.49,0,0,0-.74.17,1.12,1.12,0,0,0-.58.71,1.41,1.41,0,0,0,.08.85l1.5-.8,0.14,0.26-1.54.82,0,0.09a1.8,1.8,0,0,0,.13.22l1.53-.81,0.14,0.27-1.48.79a1.5,1.5,0,0,0,.67.51,1.07,1.07,0,0,0,.86-0.09,1.41,1.41,0,0,0,.51-0.46l0.29,0.29a1.72,1.72,0,0,1-.62.55,1.56,1.56,0,0,1-1.28.12,1.86,1.86,0,0,1-.91-0.66l-0.35.19-0.14-.27,0.31-.17-0.14-.23,0-.08-0.3.16-0.14-.26,0.33-.18a1.85,1.85,0,0,1-.1-1.11,1.56,1.56,0,0,1,.83-1,1.64,1.64,0,0,1,.9-0.2Z"/><path class="x" d="M383.12,575.41l0.3,0.55a1,1,0,0,1,1.32.44,1.16,1.16,0,0,1-.29,1.4,0.86,0.86,0,0,0-.32,1,0.55,0.55,0,0,0,.81.15,1.44,1.44,0,0,0,.56-0.55l0.32,0.28a1.64,1.64,0,0,1-.58.56l0.28,0.51-0.33.18-0.29-.53a1,1,0,0,1-1.25-.41,1.19,1.19,0,0,1,.37-1.39,0.83,0.83,0,0,0,.25-1,0.63,0.63,0,0,0-.91-0.17,1.62,1.62,0,0,0-.63.64l-0.32-.28a1.74,1.74,0,0,1,.67-0.67l-0.29-.53Z"/><path class="x" d="M390.81,571.72l0.52,0.92,0.81-.46,0.15,0.26-0.81.46,0.22,0.38,0.81-.46,0.14,0.25-0.68.38,1.83,1.05-0.48.27-1.17-.75a5.34,5.34,0,0,1-.48-0.37h0c0,0.19,0,.37.06,0.59l0.07,1.38-0.49.28v-2.08l-0.68.39-0.14-.26,0.81-.46-0.21-.38-0.81.46-0.14-.26,0.81-.46-0.52-.92Z"/><path class="x" d="M399.1,567l0.22,0.38-1.55.9h0a1.24,1.24,0,0,1,.68.35,2.08,2.08,0,0,1,.36.57l0.71-.41,0.19,0.33-0.75.43a3.19,3.19,0,0,0,.26.59,0.64,0.64,0,0,0,.94.32,1.11,1.11,0,0,0,.41-0.37l0.3,0.29a1.25,1.25,0,0,1-.49.46,1.11,1.11,0,0,1-1.58-.44,3.83,3.83,0,0,1-.27-0.59l-0.48.28-0.19-.33,0.54-.31a2.58,2.58,0,0,0-.19-0.38,1.2,1.2,0,0,0-1.12-.57l-0.15-.26Z"/><path class="x" d="M406.7,563.13a1.51,1.51,0,0,0-.73.21,1.12,1.12,0,0,0-.55.73,1.41,1.41,0,0,0,.12.85L407,564l0.15,0.26-1.5.89,0.05,0.09a1.72,1.72,0,0,0,.14.21l1.49-.89,0.15,0.26-1.44.86a1.51,1.51,0,0,0,.7.48,1.08,1.08,0,0,0,.85-0.13,1.42,1.42,0,0,0,.49-0.49l0.31,0.28a1.7,1.7,0,0,1-.59.58,1.56,1.56,0,0,1-1.27.18,1.86,1.86,0,0,1-.94-0.62l-0.34.2-0.15-.26,0.3-.18-0.15-.22,0-.08-0.29.18-0.15-.26,0.32-.19a1.86,1.86,0,0,1-.16-1.11,1.56,1.56,0,0,1,.77-1.08,1.63,1.63,0,0,1,.89-0.25Z"/><path class="x" d="M412.36,558.44l0.33,0.53a1,1,0,0,1,1.34.38,1.17,1.17,0,0,1-.22,1.42,0.86,0.86,0,0,0-.28,1,0.55,0.55,0,0,0,.82.11,1.45,1.45,0,0,0,.53-0.57l0.33,0.26a1.63,1.63,0,0,1-.56.59l0.31,0.5-0.32.2-0.31-.51a1,1,0,0,1-1.27-.35,1.19,1.19,0,0,1,.3-1.41,0.83,0.83,0,0,0,.2-1,0.63,0.63,0,0,0-.92-0.13,1.61,1.61,0,0,0-.6.67l-0.33-.27a1.72,1.72,0,0,1,.64-0.7l-0.31-.51Z"/><path class="x" d="M419.89,554.36l0.56,0.89,0.79-.5L421.4,555l-0.79.5,0.23,0.37,0.79-.5,0.16,0.25-0.66.42,1.88,1-0.47.29-1.2-.69a5.2,5.2,0,0,1-.5-0.34h0c0,0.19.06,0.37,0.09,0.59l0.13,1.38-0.48.3-0.11-2.08-0.67.42-0.16-.25,0.79-.5-0.23-.37-0.79.5-0.16-.25,0.79-.5-0.56-.89Z"/><path class="x" d="M427.91,549.22l0.24,0.37-1.5,1h0a1.24,1.24,0,0,1,.7.32,2.08,2.08,0,0,1,.38.55l0.69-.44,0.21,0.32-0.73.47a3.27,3.27,0,0,0,.29.57,0.64,0.64,0,0,0,1,.27,1.12,1.12,0,0,0,.39-0.39l0.31,0.27a1.26,1.26,0,0,1-.47.48,1.11,1.11,0,0,1-1.6-.36,4,4,0,0,1-.3-0.58l-0.47.3-0.21-.32,0.52-.34a2.58,2.58,0,0,0-.2-0.37,1.2,1.2,0,0,0-1.14-.51l-0.16-.25Z"/><path class="x" d="M435.33,545a1.49,1.49,0,0,0-.72.24,1.12,1.12,0,0,0-.51.76,1.38,1.38,0,0,0,.16.84l1.41-.94,0.17,0.25-1.45,1,0.06,0.08a1.56,1.56,0,0,0,.15.2l1.44-1,0.17,0.25-1.4.93a1.52,1.52,0,0,0,.72.44,1.08,1.08,0,0,0,.84-0.17,1.41,1.41,0,0,0,.47-0.51l0.32,0.26a1.73,1.73,0,0,1-.56.61,1.57,1.57,0,0,1-1.26.24,1.87,1.87,0,0,1-1-.57l-0.33.22-0.17-.25,0.29-.2-0.16-.21,0-.07-0.28.19-0.17-.25,0.31-.21a1.84,1.84,0,0,1-.21-1.1,1.56,1.56,0,0,1,.72-1.12,1.63,1.63,0,0,1,.88-0.29Z"/><path class="x" d="M440.73,540l0.35,0.51a1,1,0,0,1,1.36.3,1.17,1.17,0,0,1-.15,1.43,0.86,0.86,0,0,0-.23,1,0.55,0.55,0,0,0,.82.07,1.44,1.44,0,0,0,.5-0.6l0.35,0.24a1.65,1.65,0,0,1-.52.62l0.33,0.48-0.31.21-0.34-.49a1,1,0,0,1-1.29-.29,1.19,1.19,0,0,1,.23-1.42,0.83,0.83,0,0,0,.15-1,0.63,0.63,0,0,0-.92-0.08,1.6,1.6,0,0,0-.56.7l-0.35-.25a1.71,1.71,0,0,1,.6-0.73l-0.34-.5Z"/><path class="x" d="M448,535.59l0.61,0.86,0.77-.54,0.17,0.24-0.77.54,0.25,0.36,0.76-.54,0.17,0.24-0.64.45,1.92,0.87-0.45.32-1.23-.63a4.9,4.9,0,0,1-.52-0.32h0c0,0.19.08,0.36,0.12,0.58l0.2,1.37-0.46.32-0.22-2.07-0.64.45-0.17-.24,0.76-.54L448.4,537l-0.76.53-0.17-.24,0.76-.54-0.61-.86Z"/><path class="x" d="M455.81,530l0.26,0.36-1.45,1h0a1.24,1.24,0,0,1,.71.28,2.09,2.09,0,0,1,.41.53l0.66-.48,0.22,0.31-0.7.51a3.22,3.22,0,0,0,.32.56,0.64,0.64,0,0,0,1,.22,1.13,1.13,0,0,0,.37-0.41l0.32,0.25a1.26,1.26,0,0,1-.44.5,1.11,1.11,0,0,1-1.62-.27,3.76,3.76,0,0,1-.33-0.56l-0.45.33-0.22-.31,0.5-.36a2.51,2.51,0,0,0-.22-0.36,1.2,1.2,0,0,0-1.17-.45l-0.18-.24Z"/><path class="x" d="M463,525.47a1.48,1.48,0,0,0-.71.28,1.12,1.12,0,0,0-.47.78,1.4,1.4,0,0,0,.2.83l1.37-1,0.18,0.24-1.4,1,0.06,0.08a1.58,1.58,0,0,0,.16.2l1.39-1,0.18,0.24-1.35,1a1.5,1.5,0,0,0,.74.41,1.08,1.08,0,0,0,.83-0.21,1.4,1.4,0,0,0,.44-0.53L465,528a1.69,1.69,0,0,1-.53.63,1.57,1.57,0,0,1-1.25.3,1.85,1.85,0,0,1-1-.52l-0.32.24-0.18-.24,0.28-.21L461.8,528l-0.05-.07-0.27.2-0.18-.24,0.3-.22a1.85,1.85,0,0,1-.27-1.09,1.56,1.56,0,0,1,.66-1.15,1.63,1.63,0,0,1,.86-0.33Z"/><path class="x" d="M468.16,520.24l0.38,0.5a1,1,0,0,1,1.37.24,1.17,1.17,0,0,1-.08,1.43,0.86,0.86,0,0,0-.18,1,0.55,0.55,0,0,0,.82,0,1.45,1.45,0,0,0,.48-0.63l0.36,0.23a1.65,1.65,0,0,1-.5.64l0.35,0.46-0.3.23-0.36-.48a1,1,0,0,1-1.3-.23,1.19,1.19,0,0,1,.16-1.43,0.83,0.83,0,0,0,.11-1,0.63,0.63,0,0,0-.93,0,1.62,1.62,0,0,0-.53.72l-0.36-.23a1.72,1.72,0,0,1,.57-0.76l-0.36-.48Z"/><path class="x" d="M475.22,515.44l0.65,0.83,0.74-.58,0.18,0.23-0.74.58,0.27,0.35,0.74-.58,0.18,0.23-0.61.48,2,0.77-0.43.34-1.26-.57a4.8,4.8,0,0,1-.53-0.29h0c0.05,0.19.1,0.36,0.15,0.58l0.27,1.36-0.44.35L476,517.48l-0.62.48-0.18-.23,0.73-.57-0.27-.34-0.73.57-0.18-.23,0.73-.57-0.65-.83Z"/><path class="x" d="M482.7,509.52l0.27,0.34-1.4,1.12h0a1.25,1.25,0,0,1,.73.25,2.16,2.16,0,0,1,.44.51l0.64-.51,0.24,0.29-0.67.54a3.25,3.25,0,0,0,.35.54,0.64,0.64,0,0,0,1,.18,1.13,1.13,0,0,0,.35-0.43L485,512.6a1.26,1.26,0,0,1-.42.52,1.11,1.11,0,0,1-1.63-.19,4.1,4.1,0,0,1-.35-0.55l-0.43.35-0.24-.29,0.48-.39a2.44,2.44,0,0,0-.24-0.35,1.2,1.2,0,0,0-1.19-.39l-0.19-.23Z"/><path class="x" d="M489.67,504.58a1.49,1.49,0,0,0-.69.31,1.12,1.12,0,0,0-.43.81,1.4,1.4,0,0,0,.24.82l1.31-1.08,0.19,0.23-1.35,1.11,0.07,0.08a1.56,1.56,0,0,0,.17.19l1.34-1.1,0.19,0.23-1.3,1.06a1.5,1.5,0,0,0,.76.37,1.08,1.08,0,0,0,.82-0.26,1.41,1.41,0,0,0,.41-0.56l0.34,0.23a1.71,1.71,0,0,1-.5.66A1.57,1.57,0,0,1,490,508a1.87,1.87,0,0,1-1-.47l-0.31.25-0.19-.23,0.27-.22-0.18-.2-0.06-.07-0.26.22-0.19-.23,0.29-.24a1.86,1.86,0,0,1-.32-1.07,1.57,1.57,0,0,1,.6-1.19,1.62,1.62,0,0,1,.85-0.38Z"/><path class="x" d="M494.56,499.1l0.4,0.48a1,1,0,0,1,1.38.17,1.16,1.16,0,0,1,0,1.43,0.86,0.86,0,0,0-.13,1,0.55,0.55,0,0,0,.82,0,1.44,1.44,0,0,0,.44-0.65l0.37,0.21a1.62,1.62,0,0,1-.46.66l0.38,0.45-0.29.24-0.39-.46a1,1,0,0,1-1.31-.16,1.19,1.19,0,0,1,.08-1.44,0.83,0.83,0,0,0,.06-1,0.63,0.63,0,0,0-.92,0,1.63,1.63,0,0,0-.49.75l-0.37-.21a1.73,1.73,0,0,1,.53-0.79l-0.39-.46Z"/><path class="x" d="M501.37,494l0.69,0.8,0.71-.61,0.19,0.22-0.71.61,0.29,0.33,0.71-.61,0.19,0.22-0.59.51,2,0.67-0.42.36-1.29-.5a4.77,4.77,0,0,1-.55-0.27h0c0.06,0.18.11,0.35,0.17,0.57l0.34,1.34-0.43.37-0.42-2-0.6.51-0.19-.22,0.7-.61-0.29-.33-0.7.61-0.19-.22,0.7-.61-0.69-.8Z"/><path class="x" d="M508.57,487.66l0.29,0.33-1.34,1.18h0a1.25,1.25,0,0,1,.74.21,2.08,2.08,0,0,1,.46.49l0.61-.54,0.25,0.28-0.65.57a3.27,3.27,0,0,0,.38.53,0.64,0.64,0,0,0,1,.13,1.09,1.09,0,0,0,.33-0.45l0.35,0.22a1.26,1.26,0,0,1-.39.55A1.11,1.11,0,0,1,509,491a3.86,3.86,0,0,1-.38-0.53l-0.42.37-0.25-.28,0.46-.41a2.77,2.77,0,0,0-.26-0.33,1.2,1.2,0,0,0-1.21-.33l-0.2-.22Z"/><path class="x" d="M515.25,482.39a1.49,1.49,0,0,0-.67.34,1.12,1.12,0,0,0-.39.83,1.4,1.4,0,0,0,.28.8l1.26-1.14,0.2,0.22-1.29,1.17,0.07,0.08a1.79,1.79,0,0,0,.18.18l1.28-1.16,0.2,0.22-1.24,1.12a1.49,1.49,0,0,0,.78.33,1.07,1.07,0,0,0,.81-0.29,1.39,1.39,0,0,0,.39-0.58l0.35,0.21a1.71,1.71,0,0,1-.47.68,1.57,1.57,0,0,1-1.21.43,1.86,1.86,0,0,1-1-.42l-0.29.27-0.2-.22,0.26-.24-0.19-.19-0.06-.07-0.25.23-0.2-.22,0.28-.25a1.84,1.84,0,0,1-.37-1.05,1.56,1.56,0,0,1,.54-1.21,1.64,1.64,0,0,1,.83-0.42Z"/><path class="x" d="M519.89,476.66l0.42,0.46a1,1,0,0,1,1.39.1,1.16,1.16,0,0,1,.06,1.43,0.86,0.86,0,0,0-.08,1,0.55,0.55,0,0,0,.82,0,1.44,1.44,0,0,0,.41-0.67l0.38,0.19a1.63,1.63,0,0,1-.43.68l0.4,0.43-0.28.26-0.41-.44a1,1,0,0,1-1.32-.09,1.19,1.19,0,0,1,0-1.44,0.82,0.82,0,0,0,0-1,0.63,0.63,0,0,0-.92.05,1.61,1.61,0,0,0-.45.77l-0.38-.2a1.73,1.73,0,0,1,.49-0.81l-0.41-.44Z"/><path class="x" d="M526.43,471.18l0.73,0.76,0.68-.65,0.2,0.21-0.68.65,0.3,0.32,0.68-.65,0.2,0.21-0.56.54,2,0.57-0.4.38-1.31-.44a5,5,0,0,1-.56-0.24h0c0.07,0.18.13,0.35,0.2,0.56l0.4,1.32-0.41.39-0.52-2-0.57.54-0.2-.21,0.67-.64-0.3-.32-0.67.64-0.2-.21,0.67-.64-0.73-.76Z"/><path class="x" d="M533.28,464.54l0.31,0.31-1.28,1.25h0a1.25,1.25,0,0,1,.75.17,2.11,2.11,0,0,1,.49.46l0.58-.57,0.27,0.27-0.62.6a3.22,3.22,0,0,0,.4.5,0.64,0.64,0,0,0,1,.08,1.11,1.11,0,0,0,.3-0.46l0.36,0.2a1.23,1.23,0,0,1-.36.56,1.11,1.11,0,0,1-1.64,0,4.25,4.25,0,0,1-.41-0.51l-0.4.39-0.26-.27,0.44-.43a2.49,2.49,0,0,0-.27-0.32,1.2,1.2,0,0,0-1.22-.27l-0.21-.21Z"/><path class="x" d="M539.71,458.93a1.5,1.5,0,0,0-.66.38,1.13,1.13,0,0,0-.35.84,1.41,1.41,0,0,0,.32.79l1.2-1.2,0.21,0.21-1.23,1.23,0.07,0.07a1.82,1.82,0,0,0,.19.17l1.22-1.22,0.21,0.21-1.18,1.19a1.49,1.49,0,0,0,.79.29,1.07,1.07,0,0,0,.79-0.34,1.4,1.4,0,0,0,.35-0.6l0.36,0.2a1.73,1.73,0,0,1-.43.71,1.57,1.57,0,0,1-1.19.49,1.86,1.86,0,0,1-1.07-.37l-0.28.28-0.21-.21,0.25-.25-0.2-.18-0.06-.06-0.24.24-0.21-.21,0.26-.26a1.86,1.86,0,0,1-.43-1,1.56,1.56,0,0,1,.48-1.24,1.63,1.63,0,0,1,.81-0.46Z"/><path class="x" d="M544,453l0.45,0.43a1,1,0,0,1,1.39,0,1.17,1.17,0,0,1,.14,1.43,0.86,0.86,0,0,0,0,1,0.55,0.55,0,0,0,.82-0.09,1.44,1.44,0,0,0,.38-0.69l0.39,0.17a1.69,1.69,0,0,1-.39.71l0.42,0.4-0.26.27-0.43-.42a1,1,0,0,1-1.32,0,1.19,1.19,0,0,1-.06-1.44,0.83,0.83,0,0,0,0-1,0.63,0.63,0,0,0-.92.1,1.62,1.62,0,0,0-.41.8l-0.39-.18a1.72,1.72,0,0,1,.44-0.84l-0.43-.42Z"/><path class="x" d="M550.3,447.19l0.77,0.73,0.65-.68,0.21,0.2-0.64.68,0.32,0.3,0.64-.68,0.21,0.2-0.54.57L554,449l-0.38.4-1.34-.37a5.33,5.33,0,0,1-.57-0.21h0c0.08,0.18.15,0.34,0.23,0.55l0.47,1.3-0.39.41-0.62-2-0.54.57-0.21-.2,0.64-.68-0.32-.3-0.64.68-0.21-.2,0.64-.68-0.77-.73Z"/><path class="x" d="M556.81,440.21l0.32,0.3-1.21,1.31h0a1.24,1.24,0,0,1,.76.14,2.09,2.09,0,0,1,.51.44l0.55-.6,0.28,0.26-0.59.63a3.25,3.25,0,0,0,.43.48,0.64,0.64,0,0,0,1,0,1.12,1.12,0,0,0,.28-0.48l0.37,0.18a1.24,1.24,0,0,1-.33.58,1.11,1.11,0,0,1-1.64.05,4,4,0,0,1-.43-0.49l-0.38.41-0.28-.26,0.42-.45a2.77,2.77,0,0,0-.29-0.31,1.2,1.2,0,0,0-1.23-.21l-0.22-.2Z"/><path class="x" d="M562.94,434.29a1.49,1.49,0,0,0-.64.41,1.12,1.12,0,0,0-.31.86,1.4,1.4,0,0,0,.36.77l1.13-1.26,0.22,0.2-1.16,1.29,0.08,0.07a1.64,1.64,0,0,0,.2.16l1.15-1.29,0.22,0.2L563.08,437a1.5,1.5,0,0,0,.81.25,1.07,1.07,0,0,0,.77-0.38,1.4,1.4,0,0,0,.32-0.61l0.38,0.18a1.72,1.72,0,0,1-.39.73,1.57,1.57,0,0,1-1.16.55,1.86,1.86,0,0,1-1.08-.31l-0.26.29-0.22-.2,0.24-.26-0.2-.17L562.2,437l-0.23.25-0.22-.2,0.25-.28a1.85,1.85,0,0,1-.48-1,1.56,1.56,0,0,1,.42-1.26,1.63,1.63,0,0,1,.78-0.5Z"/><path class="x" d="M567,428.14l0.47,0.41a1,1,0,0,1,1.39,0,1.16,1.16,0,0,1,.21,1.42,0.86,0.86,0,0,0,0,1,0.55,0.55,0,0,0,.81-0.13,1.44,1.44,0,0,0,.34-0.71l0.4,0.15a1.63,1.63,0,0,1-.36.73l0.44,0.38-0.25.29-0.45-.4a1,1,0,0,1-1.32,0,1.19,1.19,0,0,1-.13-1.43,0.83,0.83,0,0,0-.09-1,0.63,0.63,0,0,0-.91.15,1.61,1.61,0,0,0-.37.81l-0.4-.16a1.72,1.72,0,0,1,.4-0.86l-0.45-.4Z"/><path class="x" d="M572.93,422l0.8,0.69,0.61-.71,0.22,0.19-0.61.71,0.33,0.28,0.61-.71,0.22,0.19-0.51.59,2.08,0.37-0.36.42-1.35-.3a5.19,5.19,0,0,1-.58-0.18h0c0.09,0.17.17,0.33,0.26,0.54l0.53,1.28-0.37.43-0.72-2-0.51.6-0.22-.19,0.6-.71-0.33-.29L573,424l-0.22-.19,0.6-.71-0.8-.69Z"/><path class="x" d="M579.09,414.71l0.34,0.28-1.14,1.38h0a1.26,1.26,0,0,1,.76.1,2.1,2.1,0,0,1,.53.41l0.52-.63,0.29,0.24-0.55.67a3.24,3.24,0,0,0,.45.46,0.64,0.64,0,0,0,1,0,1.12,1.12,0,0,0,.25-0.49l0.38,0.17a1.25,1.25,0,0,1-.3.6A1.11,1.11,0,0,1,580,418a3.83,3.83,0,0,1-.46-0.46l-0.36.43-0.29-.24,0.4-.48A2.49,2.49,0,0,0,579,417a1.2,1.2,0,0,0-1.25-.15l-0.23-.19Z"/><path class="x" d="M584.91,408.52a1.49,1.49,0,0,0-.62.44,1.12,1.12,0,0,0-.26.88,1.39,1.39,0,0,0,.4.75l1.07-1.32,0.23,0.19-1.1,1.35,0.08,0.06a1.62,1.62,0,0,0,.2.15l1.09-1.34,0.23,0.19-1.06,1.3a1.5,1.5,0,0,0,.82.21,1.07,1.07,0,0,0,.76-0.41,1.42,1.42,0,0,0,.29-0.63l0.38,0.16a1.71,1.71,0,0,1-.36.75,1.57,1.57,0,0,1-1.13.6,1.87,1.87,0,0,1-1.1-.26l-0.25.31-0.23-.19,0.22-.27-0.21-.16-0.07-.06-0.22.27-0.23-.19,0.23-.29a1.85,1.85,0,0,1-.53-1,1.57,1.57,0,0,1,.36-1.28,1.63,1.63,0,0,1,.76-0.54Z"/><path class="x" d="M588.63,402.16l0.49,0.39a1,1,0,0,1,1.39-.11,1.17,1.17,0,0,1,.28,1.41,0.85,0.85,0,0,0,.07,1,0.55,0.55,0,0,0,.8-0.17A1.44,1.44,0,0,0,592,404l0.4,0.13a1.68,1.68,0,0,1-.32.74l0.46,0.36-0.24.3-0.47-.37a1,1,0,0,1-1.32.1,1.19,1.19,0,0,1-.2-1.42,0.82,0.82,0,0,0-.14-1,0.63,0.63,0,0,0-.9.19,1.63,1.63,0,0,0-.33.83l-0.4-.14a1.71,1.71,0,0,1,.36-0.88l-0.47-.37Z"/><path class="x" d="M594.28,395.76l0.84,0.65,0.57-.74,0.23,0.18-0.57.74,0.35,0.27,0.57-.74,0.23,0.18-0.48.62,2.1,0.26-0.34.44-1.37-.23a5,5,0,0,1-.59-0.15h0c0.1,0.17.18,0.32,0.29,0.52l0.6,1.25-0.34.45-0.82-1.91-0.48.62-0.23-.18,0.57-.74L595,397l-0.57.74-0.23-.18,0.57-.74-0.84-.65Z"/><path class="x" d="M600.05,388.16l0.35,0.26-1.07,1.43h0a1.24,1.24,0,0,1,.77.06,2.09,2.09,0,0,1,.55.38l0.49-.65,0.3,0.23-0.52.69a3.32,3.32,0,0,0,.47.44,0.64,0.64,0,0,0,1-.07,1.11,1.11,0,0,0,.23-0.5l0.39,0.15a1.27,1.27,0,0,1-.27.61,1.11,1.11,0,0,1-1.63.22,4.08,4.08,0,0,1-.48-0.44l-0.33.45-0.3-.23,0.37-.49a2.62,2.62,0,0,0-.32-0.28,1.2,1.2,0,0,0-1.25-.08l-0.24-.18Z"/><path class="x" d="M605.56,381.66a1.48,1.48,0,0,0-.59.47,1.12,1.12,0,0,0-.22.89,1.39,1.39,0,0,0,.44.73l1-1.37,0.24,0.18-1,1.4,0.08,0.06,0.21,0.14,1-1.4,0.24,0.18-1,1.35a1.52,1.52,0,0,0,.83.17,1.08,1.08,0,0,0,.73-0.45,1.4,1.4,0,0,0,.26-0.64l0.39,0.14a1.7,1.7,0,0,1-.32.76,1.57,1.57,0,0,1-1.1.66,1.86,1.86,0,0,1-1.11-.2l-0.23.32-0.24-.18,0.21-.29-0.22-.15-0.07-.05-0.2.28-0.24-.18,0.22-.3a1.85,1.85,0,0,1-.58-1,1.57,1.57,0,0,1,.29-1.3,1.65,1.65,0,0,1,.73-0.58Z"/><path class="x" d="M609,375.13l0.51,0.36a1,1,0,0,1,1.38-.18,1.16,1.16,0,0,1,.35,1.39,0.86,0.86,0,0,0,.12,1,0.55,0.55,0,0,0,.79-0.21,1.46,1.46,0,0,0,.27-0.74l0.41,0.11a1.64,1.64,0,0,1-.28.76L613,378l-0.22.31-0.49-.35a1,1,0,0,1-1.31.17,1.19,1.19,0,0,1-.27-1.41,0.82,0.82,0,0,0-.19-1,0.63,0.63,0,0,0-.89.24,1.62,1.62,0,0,0-.29.85l-0.41-.12a1.72,1.72,0,0,1,.32-0.9l-0.49-.35Z"/><path class="x" d="M614.29,368.44l0.87,0.6,0.54-.77,0.24,0.17-0.53.77,0.36,0.25,0.53-.77,0.24,0.17-0.45.64,2.11,0.16-0.31.45-1.37-.17a5,5,0,0,1-.59-0.12h0c0.11,0.16.2,0.31,0.31,0.51l0.66,1.22-0.32.46-0.91-1.87-0.45.64-0.24-.17,0.53-.76-0.36-.25-0.53.76-0.24-.17,0.53-.76-0.87-.6Z"/><path class="x" d="M619.67,360.57l0.36,0.25-1,1.48h0a1.27,1.27,0,0,1,.77,0,2.11,2.11,0,0,1,.57.36l0.46-.68,0.31,0.21-0.48.71a3.22,3.22,0,0,0,.5.41,0.64,0.64,0,0,0,1-.12,1.13,1.13,0,0,0,.2-0.52l0.39,0.13a1.25,1.25,0,0,1-.24.63,1.11,1.11,0,0,1-1.62.3,3.87,3.87,0,0,1-.5-0.42l-0.31.46-0.31-.21,0.35-.51a2.69,2.69,0,0,0-.33-0.26,1.2,1.2,0,0,0-1.25,0l-0.25-.17Z"/><path class="x" d="M624.84,353.8a1.49,1.49,0,0,0-.57.5,1.12,1.12,0,0,0-.17.9,1.4,1.4,0,0,0,.48.71l0.93-1.42,0.25,0.17-1,1.45,0.08,0.06,0.22,0.13,1-1.44,0.25,0.17-0.92,1.4a1.49,1.49,0,0,0,.84.13,1.08,1.08,0,0,0,.71-0.49,1.39,1.39,0,0,0,.23-0.65l0.4,0.12a1.69,1.69,0,0,1-.28.78,1.57,1.57,0,0,1-1.07.71,1.86,1.86,0,0,1-1.12-.15l-0.22.33-0.25-.16,0.19-.3-0.23-.13-0.08,0-0.19.29-0.25-.16,0.2-.31a1.84,1.84,0,0,1-.62-0.93,1.56,1.56,0,0,1,.22-1.31,1.63,1.63,0,0,1,.7-0.61Z"/><path class="x" d="M627.9,347.11l0.53,0.34a1,1,0,0,1,1.37-.25,1.16,1.16,0,0,1,.42,1.37,0.86,0.86,0,0,0,.17,1,0.55,0.55,0,0,0,.78-0.25,1.45,1.45,0,0,0,.23-0.75l0.41,0.09a1.63,1.63,0,0,1-.24.77l0.49,0.31-0.2.32-0.51-.32a1,1,0,0,1-1.3.24,1.19,1.19,0,0,1-.35-1.4,0.83,0.83,0,0,0-.24-1,0.63,0.63,0,0,0-.88.28,1.62,1.62,0,0,0-.25.86l-0.42-.09a1.74,1.74,0,0,1,.27-0.91l-0.51-.32Z"/><path class="x" d="M632.89,340.16l0.9,0.56,0.5-.79,0.25,0.16-0.5.8,0.37,0.23,0.49-.79,0.25,0.15-0.41.66,2.11,0-0.29.47-1.38-.09a5,5,0,0,1-.6-0.09v0c0.11,0.16.21,0.3,0.34,0.49l0.72,1.18-0.3.48-1-1.82-0.41.67-0.25-.16,0.49-.79-0.37-.23-0.49.79-0.25-.15,0.49-.79-0.9-.56Z"/><path class="x" d="M637.86,332.06l0.37,0.23-0.93,1.53h0a1.26,1.26,0,0,1,.77,0,2.11,2.11,0,0,1,.59.33l0.42-.7,0.32,0.2-0.45.74a3.23,3.23,0,0,0,.52.39,0.64,0.64,0,0,0,1-.17,1.12,1.12,0,0,0,.18-0.52l0.4,0.11a1.25,1.25,0,0,1-.21.64,1.11,1.11,0,0,1-1.6.38,3.89,3.89,0,0,1-.52-0.39l-0.29.48-0.32-.2,0.32-.53a2.48,2.48,0,0,0-.34-0.24,1.2,1.2,0,0,0-1.25,0l-0.26-.16Z"/><path class="x" d="M642.71,325a1.48,1.48,0,0,0-.54.53,1.12,1.12,0,0,0-.13.91,1.4,1.4,0,0,0,.51.68l0.86-1.46,0.26,0.15-0.88,1.5,0.09,0.05,0.22,0.12L644,326l0.26,0.15-0.85,1.44a1.5,1.5,0,0,0,.84.08,1.08,1.08,0,0,0,.68-0.52,1.4,1.4,0,0,0,.2-0.66l0.4,0.1a1.71,1.71,0,0,1-.24.79,1.57,1.57,0,0,1-1,.77,1.86,1.86,0,0,1-1.12-.09l-0.2.34-0.26-.15,0.18-.31-0.23-.12-0.08,0-0.17.29-0.26-.15,0.19-.32a1.86,1.86,0,0,1-.67-0.9,1.57,1.57,0,0,1,.16-1.32,1.64,1.64,0,0,1,.67-0.64Z"/><path class="x" d="M645.43,318.17l0.54,0.31a1,1,0,0,1,1.36-.32,1.17,1.17,0,0,1,.49,1.35,0.86,0.86,0,0,0,.22,1,0.55,0.55,0,0,0,.77-0.29,1.45,1.45,0,0,0,.19-0.76l0.42,0.07a1.65,1.65,0,0,1-.21.78l0.51,0.29-0.19.33-0.52-.3a1,1,0,0,1-1.29.3,1.19,1.19,0,0,1-.42-1.38,0.83,0.83,0,0,0-.28-0.94,0.63,0.63,0,0,0-.87.33,1.6,1.6,0,0,0-.2.87l-0.42-.07a1.73,1.73,0,0,1,.22-0.92l-0.52-.3Z"/><path class="x" d="M650.06,311l0.92,0.51,0.46-.82,0.26,0.14-0.46.82,0.38,0.21,0.45-.82,0.26,0.14-0.38.68,2.11-.06-0.27.48-1.38,0a5,5,0,0,1-.6-0.06v0c0.12,0.15.23,0.29,0.36,0.47l0.78,1.15-0.28.49-1.1-1.77-0.38.69-0.26-.14,0.45-.81-0.38-.21-0.45.81-0.26-.14,0.45-.81-0.92-.51Z"/><path class="x" d="M654.64,302.62l0.39,0.21-0.85,1.58h0a1.25,1.25,0,0,1,.77-0.06,2.16,2.16,0,0,1,.6.3l0.39-.72,0.33,0.18-0.41.76a3.21,3.21,0,0,0,.53.36,0.64,0.64,0,0,0,1-.22,1.12,1.12,0,0,0,.15-0.53l0.4,0.09a1.26,1.26,0,0,1-.18.65,1.11,1.11,0,0,1-1.58.46,3.92,3.92,0,0,1-.54-0.37l-0.26.49-0.33-.18,0.29-.54a2.57,2.57,0,0,0-.36-0.23,1.2,1.2,0,0,0-1.25.1l-0.27-.14Z"/><path class="x" d="M659.12,295.36a1.48,1.48,0,0,0-.51.56,1.11,1.11,0,0,0-.08.91,1.4,1.4,0,0,0,.54.66l0.79-1.5,0.27,0.14-0.81,1.54,0.09,0,0.23,0.11,0.8-1.53,0.27,0.14-0.78,1.48a1.51,1.51,0,0,0,.85,0,1.08,1.08,0,0,0,.66-0.56,1.4,1.4,0,0,0,.16-0.67l0.41,0.08a1.72,1.72,0,0,1-.2.8,1.58,1.58,0,0,1-1,.82,1.86,1.86,0,0,1-1.13,0l-0.18.35-0.27-.14,0.16-.31-0.24-.11-0.08,0-0.16.3-0.27-.14,0.17-.33a1.84,1.84,0,0,1-.71-0.86,1.56,1.56,0,0,1,.09-1.33,1.63,1.63,0,0,1,.63-0.68Z"/><path class="x" d="M661.49,288.42L662,288.7a1,1,0,0,1,1.34-.38,1.16,1.16,0,0,1,.55,1.32,0.85,0.85,0,0,0,.27,1,0.55,0.55,0,0,0,.75-0.33,1.44,1.44,0,0,0,.16-0.77l0.42,0a1.63,1.63,0,0,1-.17.79l0.52,0.26-0.17.34-0.53-.27a1,1,0,0,1-1.27.36,1.19,1.19,0,0,1-.48-1.36,0.82,0.82,0,0,0-.33-0.93,0.63,0.63,0,0,0-.85.37,1.61,1.61,0,0,0-.16.88l-0.42-.05a1.71,1.71,0,0,1,.18-0.93l-0.54-.27Z"/><path class="x" d="M665.76,281l0.95,0.47,0.42-.84,0.26,0.13-0.42.84,0.39,0.2,0.42-.84L668,281.1l-0.34.7,2.11-.16-0.25.49-1.38,0a5.12,5.12,0,0,1-.61,0v0c0.13,0.14.24,0.28,0.38,0.46l0.83,1.11-0.25.51-1.18-1.72-0.35.7-0.26-.13,0.41-.83-0.39-.19-0.41.83-0.26-.13,0.41-.83-0.95-.47Z"/><path class="x" d="M669.91,272.44l0.4,0.19-0.77,1.61h0a1.27,1.27,0,0,1,.76-0.09,2.1,2.1,0,0,1,.62.27l0.35-.74,0.34,0.16-0.37.78a3.2,3.2,0,0,0,.55.34,0.64,0.64,0,0,0,1-.27,1.11,1.11,0,0,0,.13-0.54l0.41,0.07a1.25,1.25,0,0,1-.15.66,1.11,1.11,0,0,1-1.55.53,4.1,4.1,0,0,1-.56-0.34l-0.24.5-0.34-.16,0.27-.56a2.43,2.43,0,0,0-.37-0.21,1.2,1.2,0,0,0-1.24.16l-0.27-.13Z"/><path class="x" d="M674,264.95a1.47,1.47,0,0,0-.49.58,1.11,1.11,0,0,0,0,.91,1.41,1.41,0,0,0,.57.63l0.71-1.54,0.27,0.13-0.73,1.58,0.09,0,0.24,0.09,0.72-1.57,0.27,0.13-0.7,1.52a1.5,1.5,0,0,0,.85,0,1.08,1.08,0,0,0,.63-0.59,1.41,1.41,0,0,0,.13-0.68l0.41,0.06a1.72,1.72,0,0,1-.16.81,1.57,1.57,0,0,1-.95.86,1.87,1.87,0,0,1-1.13,0l-0.17.36-0.27-.13,0.15-.32-0.24-.1-0.08,0L674,268l-0.27-.12,0.16-.34a1.86,1.86,0,0,1-.76-0.83,1.56,1.56,0,0,1,0-1.33,1.64,1.64,0,0,1,.6-0.71Z"/><path class="x" d="M676.05,257.91l0.57,0.25a1,1,0,0,1,1.32-.45,1.16,1.16,0,0,1,.62,1.29,0.86,0.86,0,0,0,.32,1,0.55,0.55,0,0,0,.74-0.37,1.44,1.44,0,0,0,.12-0.78l0.42,0a1.63,1.63,0,0,1-.13.8l0.53,0.24-0.15.34-0.55-.24a1,1,0,0,1-1.25.43,1.19,1.19,0,0,1-.55-1.33,0.83,0.83,0,0,0-.37-0.91,0.63,0.63,0,0,0-.83.41,1.63,1.63,0,0,0-.11.89l-0.43,0a1.73,1.73,0,0,1,.13-0.94l-0.55-.25Z"/><path class="x" d="M680,250.28l1,0.43,0.38-.86,0.27,0.12-0.38.86,0.4,0.18,0.38-.86,0.27,0.12-0.32.71,2.1-.24-0.22.5-1.38.1a5.54,5.54,0,0,1-.61,0v0c0.14,0.14.25,0.27,0.4,0.44l0.88,1.07-0.23.51-1.25-1.66-0.32.72-0.27-.12,0.38-.85-0.4-.18-0.38.85-0.27-.12,0.38-.85-1-.43Z"/><path class="x" d="M683.69,241.49l0.41,0.17-0.67,1.66h0a1.25,1.25,0,0,1,.76-0.14,2,2,0,0,1,.63.23l0.31-.76,0.35,0.14-0.33.8a3.31,3.31,0,0,0,.57.3,0.64,0.64,0,0,0,.94-0.32,1.11,1.11,0,0,0,.09-0.54l0.41,0a1.24,1.24,0,0,1-.11.66,1.1,1.1,0,0,1-1.52.62,3.9,3.9,0,0,1-.58-0.31l-0.21.52-0.35-.14,0.23-.57a2.76,2.76,0,0,0-.38-0.19,1.2,1.2,0,0,0-1.23.24l-0.28-.11Z"/><path class="x" d="M687.46,233.81a1.47,1.47,0,0,0-.46.6,1.11,1.11,0,0,0,0,.91,1.41,1.41,0,0,0,.6.6l0.64-1.57,0.28,0.11-0.65,1.61,0.09,0,0.24,0.08,0.65-1.6,0.28,0.11-0.63,1.55a1.51,1.51,0,0,0,.84,0,1.08,1.08,0,0,0,.6-0.62,1.4,1.4,0,0,0,.1-0.69l0.41,0a1.72,1.72,0,0,1-.12.82,1.57,1.57,0,0,1-.91.91,1.86,1.86,0,0,1-1.12.08l-0.15.37-0.28-.11,0.13-.33-0.25-.09-0.08,0-0.13.32-0.28-.11,0.14-.35a1.85,1.85,0,0,1-.79-0.79,1.57,1.57,0,0,1,0-1.33,1.63,1.63,0,0,1,.56-0.73Z"/><path class="x" d="M689.13,226.67l0.58,0.23a1,1,0,0,1,1.29-.51,1.16,1.16,0,0,1,.68,1.26,0.86,0.86,0,0,0,.37.94,0.55,0.55,0,0,0,.72-0.4,1.44,1.44,0,0,0,.08-0.78h0.42a1.64,1.64,0,0,1-.09.8l0.54,0.21-0.14.35-0.56-.22a1,1,0,0,1-1.23.49,1.19,1.19,0,0,1-.61-1.3,0.83,0.83,0,0,0-.42-0.89,0.63,0.63,0,0,0-.81.45,1.61,1.61,0,0,0-.07.89h-0.43a1.73,1.73,0,0,1,.08-0.95L689,227Z"/><path class="x" d="M692.66,218.88l1,0.37,0.33-.88,0.28,0.1-0.33.88,0.41,0.15,0.33-.88,0.28,0.1-0.27.73,2.08-.37-0.19.52-1.37.18a5.07,5.07,0,0,1-.61,0v0l0.43,0.42,0.94,1-0.2.53-1.34-1.59-0.28.74-0.27-.1,0.33-.87-0.41-.15-0.33.87-0.28-.1,0.33-.87-1-.37Z"/><path class="x" d="M696,209.93l0.41,0.15-0.61,1.68h0a1.24,1.24,0,0,1,.75-0.17,2.12,2.12,0,0,1,.64.21l0.28-.77,0.36,0.13-0.29.81a3.21,3.21,0,0,0,.58.28,0.64,0.64,0,0,0,.93-0.36,1.14,1.14,0,0,0,.07-0.55l0.41,0a1.25,1.25,0,0,1-.08.67,1.11,1.11,0,0,1-1.49.69,4.09,4.09,0,0,1-.59-0.28l-0.19.53-0.36-.13,0.21-.58a2.69,2.69,0,0,0-.38-0.17,1.21,1.21,0,0,0-1.22.29l-0.28-.1Z"/><path class="x" d="M699.32,202.09a1.49,1.49,0,0,0-.43.63,1.11,1.11,0,0,0,.05.91,1.39,1.39,0,0,0,.63.57l0.56-1.6,0.28,0.1-0.57,1.64,0.1,0,0.24,0.07,0.57-1.63,0.28,0.1-0.55,1.58a1.51,1.51,0,0,0,.84-0.08,1.08,1.08,0,0,0,.57-0.65,1.4,1.4,0,0,0,.06-0.69l0.41,0a1.69,1.69,0,0,1-.08.82,1.57,1.57,0,0,1-.86,1,1.86,1.86,0,0,1-1.12.13l-0.13.37-0.28-.1,0.12-.33-0.25-.08-0.09,0-0.11.32-0.28-.1,0.12-.35a1.85,1.85,0,0,1-.83-0.75,1.56,1.56,0,0,1-.11-1.33,1.64,1.64,0,0,1,.53-0.76Z"/><path class="x" d="M700.64,194.87l0.59,0.2a1,1,0,0,1,1.27-.57,1.16,1.16,0,0,1,.74,1.23,0.86,0.86,0,0,0,.41.92,0.55,0.55,0,0,0,.7-0.44,1.42,1.42,0,0,0,0-.78l0.42,0a1.64,1.64,0,0,1,0,.81l0.55,0.18-0.12.36-0.57-.19a1,1,0,0,1-1.2.55,1.19,1.19,0,0,1-.67-1.27,0.83,0.83,0,0,0-.46-0.87,0.63,0.63,0,0,0-.78.49,1.61,1.61,0,0,0,0,.9H701a1.72,1.72,0,0,1,0-.95l-0.57-.19Z"/><path class="x" d="M703.78,186.93l1,0.32,0.29-.89,0.28,0.09-0.29.89,0.42,0.13,0.29-.89,0.28,0.09-0.24.74,2.06-.46-0.17.53-1.36.24a5,5,0,0,1-.6.06v0l0.45,0.4,1,1-0.17.54-1.42-1.52-0.24.75-0.28-.09,0.29-.89-0.42-.13-0.29.88-0.28-.09,0.28-.89-1-.32Z"/><path class="x" d="M706.63,177.82l0.42,0.13-0.52,1.71h0a1.24,1.24,0,0,1,.74-0.21,2.09,2.09,0,0,1,.65.17l0.24-.78,0.36,0.11-0.25.83a3.18,3.18,0,0,0,.59.25,0.64,0.64,0,0,0,.91-0.4,1.13,1.13,0,0,0,0-.55h0.41a1.25,1.25,0,0,1,0,.67,1.11,1.11,0,0,1-1.46.76,3.93,3.93,0,0,1-.6-0.25l-0.16.53-0.36-.11,0.18-.59a2.76,2.76,0,0,0-.39-0.15,1.2,1.2,0,0,0-1.2.35l-0.29-.09Z"/><path class="x" d="M709.6,169.82a1.5,1.5,0,0,0-.4.65,1.12,1.12,0,0,0,.1.91,1.4,1.4,0,0,0,.66.54l0.48-1.63,0.29,0.08L710.24,172l0.1,0,0.24,0.06,0.49-1.66,0.29,0.09-0.47,1.61a1.51,1.51,0,0,0,.84-0.12,1.07,1.07,0,0,0,.54-0.68,1.39,1.39,0,0,0,0-.69h0.41a1.71,1.71,0,0,1,0,.83,1.57,1.57,0,0,1-.81,1,1.86,1.86,0,0,1-1.11.19l-0.11.38-0.29-.08,0.1-.34-0.26-.06-0.09,0-0.1.33-0.29-.08,0.11-.36a1.86,1.86,0,0,1-.87-0.71,1.57,1.57,0,0,1-.17-1.32,1.65,1.65,0,0,1,.49-0.79Z"/><path class="x" d="M710.56,162.53l0.6,0.17a1,1,0,0,1,1.24-.64,1.17,1.17,0,0,1,.8,1.19,0.86,0.86,0,0,0,.46.9,0.55,0.55,0,0,0,.67-0.47,1.44,1.44,0,0,0,0-.79l0.42,0a1.62,1.62,0,0,1,0,.81l0.56,0.16-0.1.37-0.58-.16a1,1,0,0,1-1.17.61,1.19,1.19,0,0,1-.74-1.24,0.83,0.83,0,0,0-.51-0.85,0.63,0.63,0,0,0-.76.53,1.62,1.62,0,0,0,0,.9L711,164a1.73,1.73,0,0,1,0-1l-0.58-.16Z"/><path class="x" d="M713.31,154.42l1,0.27,0.24-.9,0.28,0.07-0.24.9,0.42,0.11,0.24-.9,0.28,0.08-0.2.75,2-.57-0.14.53-1.35.31a5,5,0,0,1-.6.09v0l0.47,0.37,1,0.92-0.15.54-1.5-1.45-0.2.76-0.28-.08,0.24-.9-0.42-.11-0.24.9-0.28-.08,0.24-.9-1-.27Z"/><path class="x" d="M715.7,145.18l0.43,0.11L715.69,147h0a1.26,1.26,0,0,1,.73-0.24,2.1,2.1,0,0,1,.66.14l0.2-.79,0.37,0.09-0.21.84a3.26,3.26,0,0,0,.61.22,0.64,0.64,0,0,0,.89-0.45,1.13,1.13,0,0,0,0-.55h0.41a1.26,1.26,0,0,1,0,.67,1.11,1.11,0,0,1-1.42.83,4,4,0,0,1-.61-0.22l-0.14.54-0.37-.09,0.15-.6a2.69,2.69,0,0,0-.4-0.13,1.2,1.2,0,0,0-1.19.41l-0.29-.07Z"/><path class="x" d="M718.27,137.07a1.5,1.5,0,0,0-.36.67,1.12,1.12,0,0,0,.14.9,1.4,1.4,0,0,0,.69.51l0.4-1.65,0.29,0.07L719,139.25l0.1,0,0.25,0,0.41-1.68,0.29,0.07-0.39,1.63a1.49,1.49,0,0,0,.83-0.17,1.07,1.07,0,0,0,.5-0.7,1.4,1.4,0,0,0,0-.69l0.41,0a1.69,1.69,0,0,1,0,.83,1.57,1.57,0,0,1-.76,1,1.85,1.85,0,0,1-1.1.24l-0.09.38-0.29-.07,0.08-.34-0.26,0-0.09,0-0.08.33-0.29-.07,0.09-.36a1.84,1.84,0,0,1-.9-0.66,1.56,1.56,0,0,1-.23-1.31,1.63,1.63,0,0,1,.45-0.81Z"/><path class="x" d="M718.87,129.73l0.61,0.14a1,1,0,0,1,1.2-.7,1.17,1.17,0,0,1,.86,1.15,0.85,0.85,0,0,0,.5.88,0.55,0.55,0,0,0,.65-0.5,1.44,1.44,0,0,0,0-.78l0.42-.06a1.63,1.63,0,0,1,0,.81l0.57,0.13-0.08.37L723,131a1,1,0,0,1-1.14.66,1.19,1.19,0,0,1-.8-1.2,0.83,0.83,0,0,0-.54-0.82,0.63,0.63,0,0,0-.73.57,1.62,1.62,0,0,0,.06.89l-0.42.05a1.73,1.73,0,0,1-.05-0.95l-0.58-.13Z"/><path class="x" d="M721.2,121.5l1,0.22,0.2-.92,0.29,0.06-0.2.92,0.43,0.09,0.19-.92,0.29,0.06-0.16.76,2-.67-0.12.54-1.33.38a5.14,5.14,0,0,1-.6.12v0l0.48,0.35,1.08,0.87-0.12.55-1.57-1.37-0.16.77-0.29-.06,0.2-.91-0.43-.09-0.19.91-0.29-.06,0.2-.91-1-.22Z"/><path class="x" d="M723.13,112.16l0.43,0.09L723.2,114h0a1.25,1.25,0,0,1,.72-0.28,2.14,2.14,0,0,1,.66.11l0.16-.8,0.37,0.07L725,114a3.31,3.31,0,0,0,.62.19,0.64,0.64,0,0,0,.86-0.49,1.1,1.1,0,0,0,0-.55l0.41,0a1.29,1.29,0,0,1,0,.67,1.11,1.11,0,0,1-1.37.9,4.05,4.05,0,0,1-.62-0.19l-0.11.55-0.37-.07,0.12-.61a2.81,2.81,0,0,0-.41-0.11,1.2,1.2,0,0,0-1.16.46l-0.29-.06Z"/><path class="x" d="M725.28,103.92a1.48,1.48,0,0,0-.33.68,1.12,1.12,0,0,0,.19.9,1.4,1.4,0,0,0,.71.47l0.31-1.67,0.29,0.06-0.32,1.71,0.1,0,0.25,0,0.32-1.7,0.29,0.06-0.31,1.65a1.5,1.5,0,0,0,.82-0.21,1.08,1.08,0,0,0,.47-0.72,1.4,1.4,0,0,0,0-.69l0.41,0a1.71,1.71,0,0,1,0,.83,1.57,1.57,0,0,1-.71,1.07,1.86,1.86,0,0,1-1.09.3l-0.07.39-0.29-.06,0.06-.35-0.26,0-0.09,0-0.06.34-0.29-.05,0.07-.37a1.85,1.85,0,0,1-.93-0.62,1.57,1.57,0,0,1-.3-1.3,1.63,1.63,0,0,1,.41-0.83Z"/><path class="x" d="M725.52,96.56l0.62,0.11a1,1,0,0,1,1.17-.76,1.16,1.16,0,0,1,.92,1.1,0.86,0.86,0,0,0,.55.85,0.55,0.55,0,0,0,.62-0.54,1.43,1.43,0,0,0-.08-0.78l0.42-.08a1.64,1.64,0,0,1,.07.81l0.57,0.1-0.06.37-0.59-.1a1,1,0,0,1-1.11.72,1.19,1.19,0,0,1-.86-1.16,0.82,0.82,0,0,0-.59-0.79,0.63,0.63,0,0,0-.7.6,1.61,1.61,0,0,0,.11.89l-0.42.07A1.74,1.74,0,0,1,726,97l-0.59-.1Z"/><path class="x" d="M727.43,88.25l1,0.17,0.15-.92,0.29,0-0.15.92,0.43,0.07,0.15-.92,0.29,0-0.13.77,2-.77-0.09.54-1.31.44a4.91,4.91,0,0,1-.59.15v0l0.5,0.32L731.11,90l-0.09.56-1.63-1.29-0.13.78L729,90l0.15-.92L728.69,89l-0.15.92-0.29,0,0.15-.92-1-.17Z"/><path class="x" d="M728.89,78.82l0.43,0.07-0.27,1.77h0a1.25,1.25,0,0,1,.7-0.31,2.11,2.11,0,0,1,.67.08l0.12-.81,0.37,0.06-0.13.86a3.14,3.14,0,0,0,.63.16,0.64,0.64,0,0,0,.84-0.54,1.12,1.12,0,0,0,0-.55l0.41-.05a1.26,1.26,0,0,1,.05.67,1.11,1.11,0,0,1-1.33,1,3.93,3.93,0,0,1-.63-0.16l-0.08.55-0.37-.06,0.09-.61a2.7,2.7,0,0,0-.41-0.09,1.2,1.2,0,0,0-1.14.52l-0.3,0Z"/><path class="x" d="M730.63,70.48a1.52,1.52,0,0,0-.29.7,1.12,1.12,0,0,0,.23.88,1.41,1.41,0,0,0,.73.43l0.23-1.68,0.3,0-0.23,1.72h0.1l0.25,0,0.23-1.71,0.3,0-0.22,1.66a1.49,1.49,0,0,0,.81-0.25,1.08,1.08,0,0,0,.43-0.75,1.38,1.38,0,0,0-.08-0.69l0.41-.07a1.7,1.7,0,0,1,.08.82,1.56,1.56,0,0,1-.65,1.1,1.86,1.86,0,0,1-1.07.35l-0.05.39-0.3,0,0-.35-0.26,0h-0.09l0,0.34-0.3,0,0-.37a1.84,1.84,0,0,1-1-.57,1.57,1.57,0,0,1-.37-1.28,1.64,1.64,0,0,1,.37-0.85Z"/><path class="x" d="M730.49,63.11l0.62,0.08a1,1,0,0,1,1.13-.82,1.17,1.17,0,0,1,1,1.06,0.86,0.86,0,0,0,.59.82,0.55,0.55,0,0,0,.6-0.57,1.43,1.43,0,0,0-.12-0.78l0.41-.1a1.63,1.63,0,0,1,.11.8l0.58,0.07,0,0.38-0.6-.07a1,1,0,0,1-1.07.78,1.19,1.19,0,0,1-.92-1.11,0.83,0.83,0,0,0-.63-0.76,0.63,0.63,0,0,0-.67.64,1.6,1.6,0,0,0,.15.88l-0.42.09a1.73,1.73,0,0,1-.15-0.94l-0.6-.07Z"/><path class="x" d="M732,54.7l1,0.12,0.1-.93,0.29,0-0.1.93,0.43,0,0.1-.93,0.29,0-0.09.77,1.92-.87-0.06.55-1.29.51a5.22,5.22,0,0,1-.58.18v0l0.52,0.3,1.16,0.76-0.06.56L734,55.57l-0.09.78-0.29,0,0.1-.92-0.44,0-0.1.92-0.29,0,0.1-.92-1-.12Z"/></g><g class="y"><rect class="z" x="-105.71" y="-78.94" width="1200" height="2527.25"/></g></g></g></svg>