<svg xmlns="http://www.w3.org/2000/svg" xmlns:xlink="http://www.w3.org/1999/xlink" viewBox="0 0 1000 1600"><defs><style>.a,.s,.t,.v,.w,.x,.y,.z{fill:none;}.b{fill:#e1e2e3;}.c{isolation:isolate;}.d{clip-path:url(#a);}.e{clip-path:url(#b);}.f{fill:#fff;}.g{fill:url(#c);}.h{fill:url(#d);}.i,.j,.l,.m,.o,.p,.q{mix-blend-mode:multiply;}.i{fill:url(#e);}.j{fill:url(#f);}.k{fill:url(#g);}.l{fill:url(#h);}.m{fill:url(#i);}.n{fill:url(#j);}.o{fill:url(#k);}.p{fill:url(#l);}.q{fill:url(#m);}.r{fill:url(#n);}.s,.t,.v,.w,.x,.y,.z{stroke-miterlimit:10;}.s,.t,.x,.y,.z{stroke-width:0.5px;}.s,.t,.v,.x,.y,.z{stroke-dasharray:1;}.s{stroke:url(#o);}.t{stroke:url(#p);}.u{fill:url(#r);}.v{stroke-width:3px;stroke:url(#x);}.w{stroke:url(#y);}.x{stroke:url(#z);}.y{stroke:url(#aa);}.z{stroke:url(#ab);}.aa{fill:url(#ad);}.ab{clip-path:url(#fp);}.ac{fill:url(#fq);}</style><clipPath id="a"><polygon class="a" points="1000 1600 1000 0 0 179.75 0 1600 1000 1600"/></clipPath><clipPath id="b"><rect class="a" width="1000" height="2037.57"/></clipPath><linearGradient id="c" x1="-4207.28" y1="1501.47" x2="-4207.28" y2="1295.84" gradientTransform="translate(4158.01 -1196.65) scale(0.94 1)" gradientUnits="userSpaceOnUse"><stop offset="0" stop-color="#fff"/><stop offset="0.4" stop-color="#fafafa"/><stop offset="0.88" stop-color="#ebeced"/><stop offset="1" stop-color="#e6e7e8"/></linearGradient><linearGradient id="d" x1="-2086.2" y1="-9982.74" x2="-2086.2" y2="-10188.37" gradientTransform="translate(2776.32 11142.42)" xlink:href="#c"/><linearGradient id="e" x1="-5362.92" y1="-8780.51" x2="-5122.57" y2="-7865.31" gradientTransform="translate(-8953.5 -1143.2) rotate(135)" gradientUnits="userSpaceOnUse"><stop offset="0" stop-color="#e6e7e8"/><stop offset="0.02" stop-color="#ebebec"/><stop offset="0.1" stop-color="#f6f7f7"/><stop offset="0.2" stop-color="#fdfdfd"/><stop offset="0.5" stop-color="#fff"/></linearGradient><linearGradient id="f" x1="-4787.17" y1="2120.86" x2="-4156.38" y2="1396.36" gradientTransform="translate(1986.74 -3690.81) rotate(-45)" xlink:href="#c"/><linearGradient id="g" x1="-3954.64" y1="1952.4" x2="-3744.46" y2="1428.12" gradientTransform="translate(1986.74 -3690.81) rotate(-45)" gradientUnits="userSpaceOnUse"><stop offset="0" stop-color="#fff"/><stop offset="1" stop-color="#e6e7e8"/></linearGradient><linearGradient id="h" x1="-4594.79" y1="2020.55" x2="-4067.58" y2="1438.49" gradientTransform="translate(1986.74 -3690.81) rotate(-45)" xlink:href="#c"/><linearGradient id="i" x1="-4030.04" y1="2216.14" x2="-3633.85" y2="1778.73" gradientTransform="translate(1986.74 -3690.81) rotate(-45)" xlink:href="#c"/><linearGradient id="j" x1="-4022.61" y1="1974.82" x2="-3619.52" y2="2011.46" gradientTransform="translate(1986.74 -3690.81) rotate(-45)" gradientUnits="userSpaceOnUse"><stop offset="0" stop-color="#fff" stop-opacity="0"/><stop offset="0.21" stop-color="#fff" stop-opacity="0.22"/><stop offset="0.76" stop-color="#fff" stop-opacity="0.78"/><stop offset="1" stop-color="#fff"/></linearGradient><linearGradient id="k" x1="-3928.9" y1="2417.16" x2="-4477.17" y2="1969.16" gradientTransform="translate(1986.74 -3690.81) rotate(-45)" xlink:href="#c"/><linearGradient id="l" x1="-9709.56" y1="-3849.85" x2="-9469.2" y2="-2934.66" gradientTransform="matrix(-0.71, -0.71, -0.71, 0.71, -8590.66, -3690.81)" xlink:href="#e"/><linearGradient id="m" x1="-1458.14" y1="-7774.11" x2="-1221.28" y2="-6872.21" gradientTransform="matrix(1, 0, 0, -1, 2123.75, -6270.15)" xlink:href="#e"/><linearGradient id="n" x1="-5729.59" y1="1775.89" x2="-5774.83" y2="1541.69" gradientTransform="matrix(-0.94, 0.33, 0.33, 0.94, -5381.61, 986.23)" gradientUnits="userSpaceOnUse"><stop offset="0" stop-color="#fff" stop-opacity="0"/><stop offset="0.54" stop-color="#fff" stop-opacity="0.28"/><stop offset="1" stop-color="#fff" stop-opacity="0.5"/></linearGradient><linearGradient id="o" x1="-11748.83" y1="-10663.98" x2="-10493.88" y2="-10663.98" gradientTransform="matrix(1, 0, 0, -1, 12587.16, -8785.3)" gradientUnits="userSpaceOnUse"><stop offset="0" stop-color="#795e34"/><stop offset="0.06" stop-color="#866b3f"/><stop offset="0.25" stop-color="#a78c5c"/><stop offset="0.41" stop-color="#bca16e"/><stop offset="0.51" stop-color="#c3a874"/><stop offset="0.61" stop-color="#bea370"/><stop offset="0.74" stop-color="#af9463"/><stop offset="0.87" stop-color="#977c4e"/><stop offset="1" stop-color="#795e34"/></linearGradient><linearGradient id="p" x1="-11831.27" y1="-10727.31" x2="-10431.52" y2="-10727.31" gradientTransform="matrix(1, 0, 0, -1, 12640.88, -8801.68)" xlink:href="#o"/><linearGradient id="r" x1="-10416.24" y1="8265.06" x2="-8022.37" y2="11487.57" gradientTransform="matrix(-0.92, -0.39, -0.39, 0.92, -2542.88, -10975.63)" xlink:href="#o"/><linearGradient id="x" x1="-17044.7" y1="-5845.2" x2="-16311.18" y2="-5845.2" gradientTransform="matrix(0, -1, -1, 0, -5744.87, -16930.19)" xlink:href="#o"/><linearGradient id="y" x1="-16985.96" y1="-5839.08" x2="-16356.27" y2="-5839.08" gradientTransform="matrix(0, -1, -1, 0, -5746.2, -16918.02)" xlink:href="#o"/><linearGradient id="z" x1="-16954.53" y1="-5808.61" x2="-16329.37" y2="-5808.61" gradientTransform="matrix(0, -1, -1, 0, -5748.01, -16861.71)" xlink:href="#o"/><linearGradient id="aa" x1="-17215.57" y1="-5798.79" x2="-16275.33" y2="-5798.79" gradientTransform="matrix(0, -1, -1, 0, -5636.35, -16944.25)" xlink:href="#o"/><linearGradient id="ab" x1="-17277.33" y1="-5846.23" x2="-16228.62" y2="-5846.23" gradientTransform="matrix(0, -1, -1, 0, -5671.19, -16998.14)" xlink:href="#o"/><linearGradient id="ad" x1="-9743.26" y1="5536.77" x2="-2290.61" y2="15569.16" gradientTransform="matrix(0.3, 0.96, 0.96, -0.3, -12903.16, 6413.83)" xlink:href="#o"/><clipPath id="fp"><polygon class="a" points="0 231.16 51.44 162.72 725.84 43.57 807.16 114.65 953.92 10.56 1000 0 1000 1600 0 1600 0 231.16"/></clipPath><pattern id="fq" width="28.8" height="28.8" patternTransform="translate(10.66 81.96) scale(0.6)" patternUnits="userSpaceOnUse" viewBox="0 0 28.8 28.8"><rect class="a" width="28.8" height="28.8"/><circle class="b" cx="28.8" cy="28.8" r="0.72"/><circle class="b" cx="14.4" cy="28.8" r="0.72"/><circle class="b" cx="28.8" cy="14.4" r="0.72"/><circle class="b" cx="14.4" cy="14.4" r="0.72"/><circle class="b" cx="7.2" cy="21.6" r="0.72"/><circle class="b" cx="21.6" cy="21.6" r="0.72"/><circle class="b" cx="7.2" cy="7.2" r="0.72"/><circle class="b" cx="21.6" cy="7.2" r="0.72"/><circle class="b" cy="28.8" r="0.72"/><circle class="b" cy="14.4" r="0.72"/><circle class="b" cx="28.8" r="0.72"/><circle class="b" cx="14.4" r="0.72"/><circle class="b" r="0.72"/></pattern></defs><title>BG</title><g class="c"><g class="d"><g class="e"><polygon class="f" points="-9.09 261.21 1007.86 144.12 1007.86 1608.04 -9.09 1608.04 -9.09 261.21"/><rect class="g" x="-353.86" y="134.53" width="1126.76" height="799.33" transform="translate(-316.36 304.62) rotate(-45)"/><rect class="h" x="89.81" y="989.39" width="1200.62" height="799.33" transform="translate(2160.32 1883.27) rotate(135)"/><polygon class="i" points="371.97 -22.16 1051.47 657.33 622.66 1926.45 371.97 -22.16"/><polygon class="j" points="580 362.21 64.25 1181.92 -472.71 644.96 -239.71 411.96 580 362.21"/><polygon class="k" points="432.69 693.46 770.6 171.62 385.62 -213.36 71.85 100.41 432.69 693.46"/><polygon class="l" points="-86.28 1552.25 432.69 693.46 71.85 100.41 -101.25 273.5 -86.28 1552.25"/><polygon class="m" points="1023.97 1125.5 400 644.02 918.9 45.55 1023.97 1125.5"/><polygon class="n" points="220.18 376.05 927.58 665.41 1362.71 230.29 1060.47 -71.94 220.18 376.05"/><polygon class="o" points="921.95 371.04 402.99 644.04 763.82 1237.1 936.92 1064 921.95 371.04"/><polygon class="p" points="321.85 1748.2 1001.34 1068.7 572.53 -200.42 321.85 1748.2"/><polygon class="q" points="224.77 128.21 224.77 1078.03 1425.38 1665.34 224.77 128.21"/><polygon class="r" points="1186.74 893.23 1152.89 498.99 28.53 705.23 1186.74 893.23"/><circle class="s" cx="1465.54" cy="1878.91" r="627.24" transform="matrix(0.62, -0.79, 0.79, 0.62, -917.33, 1874.42)"/><circle class="t" cx="1509.21" cy="1925.87" r="699.64" transform="matrix(0.62, -0.79, 0.79, 0.62, -937.56, 1926.82)"/><circle class="t" cx="1509.21" cy="1925.87" r="699.64" transform="matrix(0.62, -0.79, 0.79, 0.62, -937.56, 1926.82)"/><path class="u" d="M993.88,1573l-0.61-1.53-1.36.54-0.17-.43,1.36-.54-0.25-.64-1.36.54-0.17-.43,1.13-.45-2.61-2,0.8-.32,1.65,1.4a8,8,0,0,1,.67.67h0c0-.3,0-0.58,0-0.93l0.19-2.16,0.82-.33-0.42,3.23,1.14-.46,0.17,0.43-1.35.54,0.25,0.64,1.35-.54,0.17,0.43-1.35.54,0.61,1.53Z"/><path class="u" d="M980.12,1578.67l-0.27-.63,2.57-1.08v0a2,2,0,0,1-1-.68,3.31,3.31,0,0,1-.44-1l-1.17.49-0.23-.54,1.24-.52a5,5,0,0,0-.29-1,1,1,0,0,0-1.4-.68,1.74,1.74,0,0,0-.7.5l-0.4-.5a2,2,0,0,1,.85-0.61,1.73,1.73,0,0,1,2.37,1,6.22,6.22,0,0,1,.3,1l0.8-.34,0.23,0.54-0.89.38a4.11,4.11,0,0,0,.21.62,1.88,1.88,0,0,0,1.62,1.1l0.18,0.43Z"/><path class="u" d="M967.59,1583.17a2.32,2.32,0,0,0,1.17-.18,1.75,1.75,0,0,0,1-1,2.17,2.17,0,0,0,0-1.33l-2.42,1.07-0.19-.43,2.48-1.1-0.06-.15a2.64,2.64,0,0,0-.18-0.35l-2.47,1.09-0.19-.43,2.39-1.06a2.34,2.34,0,0,0-1-.87,1.68,1.68,0,0,0-1.34,0,2.2,2.2,0,0,0-.85.67l-0.42-.49a2.65,2.65,0,0,1,1-.78,2.44,2.44,0,0,1,2,0,2.9,2.9,0,0,1,1.34,1.14l0.57-.25,0.19,0.43-0.5.22c0.06,0.12.13,0.24,0.18,0.37l0.06,0.13,0.49-.22,0.19,0.43-0.53.24a2.9,2.9,0,0,1,0,1.75,2.44,2.44,0,0,1-1.4,1.53,2.55,2.55,0,0,1-1.43.21Z"/><path class="u" d="M958,1589.42l-0.41-.88a1.62,1.62,0,0,1-2-.82,1.82,1.82,0,0,1,.59-2.16c0.59-.66.8-1,0.6-1.46a0.85,0.85,0,0,0-1.25-.32,2.26,2.26,0,0,0-.93.8l-0.47-.46a2.58,2.58,0,0,1,1-.81l-0.38-.82,0.54-.25,0.4,0.85a1.53,1.53,0,0,1,1.91.77c0.35,0.74,0,1.39-.71,2.13a1.29,1.29,0,0,0-.49,1.46,1,1,0,0,0,1.4.36,2.53,2.53,0,0,0,1-.93l0.47,0.47a2.7,2.7,0,0,1-1.12,1l0.4,0.85Z"/><path class="u" d="M945.62,1594.46l-0.73-1.48-1.31.64-0.2-.41,1.31-.64-0.3-.61-1.31.64-0.2-.41,1.09-.54-2.76-1.81,0.77-.38,1.75,1.27a7.94,7.94,0,0,1,.72.62h0c0-.3,0-0.58,0-0.93l0-2.16,0.79-.39-0.17,3.25,1.1-.54,0.2,0.41-1.3.64,0.3,0.62,1.3-.64,0.2,0.41-1.3.64,0.73,1.48Z"/><path class="u" d="M932.32,1601.17l-0.31-.61,2.48-1.28v0a2,2,0,0,1-1-.6,3.26,3.26,0,0,1-.51-0.92l-1.13.58-0.27-.53,1.2-.62a4.92,4.92,0,0,0-.37-0.94,1,1,0,0,0-1.44-.57,1.73,1.73,0,0,0-.67.55l-0.44-.47a2,2,0,0,1,.8-0.68,1.73,1.73,0,0,1,2.44.8,6.21,6.21,0,0,1,.37.95l0.77-.4,0.27,0.53-0.86.44a4.13,4.13,0,0,0,.26.61,1.88,1.88,0,0,0,1.7,1l0.21,0.42Z"/><circle class="v" cx="100.44" cy="-251.86" r="365.27" transform="translate(339.96 -124.77) rotate(-83.79)"/><circle class="w" cx="93" cy="-246.51" r="314.35" transform="translate(328.01 -127.41) rotate(-83.79)"/><circle class="x" cx="60.71" cy="-219.37" r="312.34" transform="matrix(0.11, -0.99, 0.99, 0.11, 272.23, -135.3)"/><circle class="y" cx="162.54" cy="-198.41" r="469.88" transform="translate(342.21 -15.38) rotate(-83.79)"/><circle class="z" cx="175.15" cy="-244.77" r="524.12" transform="translate(399.55 -44.18) rotate(-83.79)"/><circle class="z" cx="175.15" cy="-244.77" r="524.12" transform="translate(399.55 -44.18) rotate(-83.79)"/><path class="aa" d="M1.39,109.26l-0.92.52,0.46,0.81-0.26.14-0.46-.81-0.38.22L0.29,111,0,111.1l-0.38-.68-1.05,1.83-0.27-.48,0.75-1.17a5.16,5.16,0,0,1,.37-0.48v0l-0.59.06-1.38.07-0.28-.49h2.08L-1.12,109l0.26-.15,0.46,0.81L0,109.5l-0.46-.81,0.25-.14,0.46,0.81,0.92-.52Z"/><path class="aa" d="M6.18,117.55l-0.38.22-0.91-1.54h0a1.25,1.25,0,0,1-.35.69,2.06,2.06,0,0,1-.57.36L4.38,118l-0.33.19-0.44-.75a3.26,3.26,0,0,0-.59.27,0.64,0.64,0,0,0-.32.94,1.13,1.13,0,0,0,.38.41l-0.28.3a1.25,1.25,0,0,1-.46-0.49,1.11,1.11,0,0,1,.43-1.59A4,4,0,0,1,3.36,117l-0.28-.48,0.33-.19,0.31,0.53a2.67,2.67,0,0,0,.38-0.19,1.2,1.2,0,0,0,.56-1.12l0.26-.15Z"/><path class="aa" d="M10.08,125.11a1.49,1.49,0,0,0-.21-0.73,1.12,1.12,0,0,0-.74-0.54,1.4,1.4,0,0,0-.84.13l0.89,1.45-0.26.16L8,124.09l-0.09.05-0.21.14,0.9,1.47-0.26.16-0.87-1.43a1.5,1.5,0,0,0-.47.7,1.08,1.08,0,0,0,.14.85,1.4,1.4,0,0,0,.49.49l-0.27.31a1.7,1.7,0,0,1-.58-0.58A1.57,1.57,0,0,1,6.6,125,1.86,1.86,0,0,1,7.21,124L7,123.69l0.25-.15,0.19,0.3,0.22-.15,0.08,0-0.18-.29,0.26-.16L8,123.51a1.85,1.85,0,0,1,1.1-.17,1.57,1.57,0,0,1,1.09.76,1.64,1.64,0,0,1,.26.89Z"/><path class="aa" d="M14.85,130.72l-0.53.33A1,1,0,0,1,14,132.4a1.16,1.16,0,0,1-1.42-.2,0.86,0.86,0,0,0-1-.26,0.55,0.55,0,0,0-.1.82,1.44,1.44,0,0,0,.58.53l-0.25.34a1.65,1.65,0,0,1-.59-0.55l-0.49.31-0.2-.32,0.51-.32a1,1,0,0,1,.33-1.28,1.19,1.19,0,0,1,1.41.28,0.83,0.83,0,0,0,1,.19,0.63,0.63,0,0,0,.11-0.92,1.61,1.61,0,0,0-.68-0.58l0.26-.34a1.74,1.74,0,0,1,.71.63l0.51-.32Z"/><path class="aa" d="M19,138.16l-0.88.58,0.51,0.78-0.25.16-0.51-.78-0.37.24,0.51,0.78-0.25.16-0.43-.65-0.93,1.9-0.3-.46,0.67-1.21a5.15,5.15,0,0,1,.34-0.51h0l-0.59.1-1.37.16-0.31-.47,2.08-.15-0.43-.66,0.25-.16,0.51,0.78,0.37-.24-0.51-.78,0.25-.16,0.51,0.78,0.88-.58Z"/><path class="aa" d="M24.37,146.07l-0.36.25-1-1.48h0a1.24,1.24,0,0,1-.3.71,2,2,0,0,1-.54.4l0.46,0.67-0.31.21-0.49-.71a3.31,3.31,0,0,0-.57.31,0.64,0.64,0,0,0-.25,1,1.13,1.13,0,0,0,.4.38l-0.26.32a1.25,1.25,0,0,1-.49-0.46A1.11,1.11,0,0,1,21,146a3.88,3.88,0,0,1,.57-0.31l-0.31-.46,0.31-.21,0.35,0.51a2.63,2.63,0,0,0,.36-0.21,1.2,1.2,0,0,0,.48-1.16L23,144Z"/><path class="aa" d="M28.79,153.39a1.5,1.5,0,0,0-.26-0.71,1.12,1.12,0,0,0-.77-0.49,1.41,1.41,0,0,0-.83.18l1,1.39-0.25.17-1-1.42-0.08.06a1.62,1.62,0,0,0-.2.16l1,1.41-0.25.17-1-1.37a1.48,1.48,0,0,0-.42.73,1.08,1.08,0,0,0,.2.84,1.4,1.4,0,0,0,.53.45l-0.25.33a1.7,1.7,0,0,1-.62-0.55,1.57,1.57,0,0,1-.28-1.25,1.85,1.85,0,0,1,.54-1l-0.23-.32,0.25-.17,0.21,0.29,0.21-.16,0.07-.05-0.2-.28,0.25-.17,0.21,0.3a1.86,1.86,0,0,1,1.09-.24,1.56,1.56,0,0,1,1.14.69,1.63,1.63,0,0,1,.32.87Z"/><path class="aa" d="M33.9,158.63l-0.5.37a1,1,0,0,1-.26,1.37,1.17,1.17,0,0,1-1.43-.11,0.86,0.86,0,0,0-1-.2,0.55,0.55,0,0,0,0,.82,1.45,1.45,0,0,0,.62.49l-0.23.35a1.66,1.66,0,0,1-.63-0.51l-0.47.34-0.22-.31,0.48-.35a1,1,0,0,1,.25-1.3,1.19,1.19,0,0,1,1.43.18,0.82,0.82,0,0,0,1,.13,0.63,0.63,0,0,0,.05-0.92,1.61,1.61,0,0,0-.71-0.54l0.24-.35a1.72,1.72,0,0,1,.75.58l0.48-.35Z"/><path class="aa" d="M38.59,165.77l-0.84.64,0.57,0.74-0.23.18-0.57-.74-0.35.26,0.57,0.75-0.23.18L37,167.16l-0.79,2-0.33-.44,0.58-1.26a5.24,5.24,0,0,1,.3-0.53h0l-0.58.14-1.36.25-0.34-.45,2.06-.29-0.48-.63,0.23-.18,0.56,0.74,0.35-.27-0.56-.74,0.23-.18L37.45,166l0.84-.64Z"/><path class="aa" d="M44.44,173.33l-0.34.27L43,172.19h0a1.26,1.26,0,0,1-.25.73,2.11,2.11,0,0,1-.51.43l0.5,0.64-0.3.23-0.53-.68a3.36,3.36,0,0,0-.54.35,0.64,0.64,0,0,0-.19,1,1.13,1.13,0,0,0,.43.35l-0.24.33a1.26,1.26,0,0,1-.52-0.42,1.11,1.11,0,0,1,.21-1.63,3.89,3.89,0,0,1,.55-0.35l-0.35-.44,0.3-.23L41.91,173a2.62,2.62,0,0,0,.35-0.24,1.2,1.2,0,0,0,.4-1.19l0.24-.19Z"/><path class="aa" d="M49.33,180.32a1.49,1.49,0,0,0-.31-0.69,1.12,1.12,0,0,0-.8-0.44,1.41,1.41,0,0,0-.82.24l1.07,1.32-0.23.19-1.1-1.35-0.08.06a1.79,1.79,0,0,0-.19.17L48,181.16l-0.23.19-1.06-1.3a1.51,1.51,0,0,0-.37.76,1.08,1.08,0,0,0,.25.82,1.4,1.4,0,0,0,.55.42l-0.23.34a1.72,1.72,0,0,1-.66-0.5,1.57,1.57,0,0,1-.36-1.23,1.86,1.86,0,0,1,.48-1l-0.25-.31,0.23-.19,0.22,0.27,0.2-.18,0.07-.06-0.22-.27,0.23-.19L47.06,179a1.85,1.85,0,0,1,1.07-.32,1.57,1.57,0,0,1,1.18.61,1.65,1.65,0,0,1,.37.85Z"/><path class="aa" d="M54.79,185.22l-0.48.4a1,1,0,0,1-.17,1.38,1.16,1.16,0,0,1-1.43,0,0.86,0.86,0,0,0-1-.13,0.55,0.55,0,0,0,0,.82,1.45,1.45,0,0,0,.65.44l-0.21.37A1.64,1.64,0,0,1,51.5,188l-0.45.37-0.24-.29,0.46-.39a1,1,0,0,1,.16-1.31,1.19,1.19,0,0,1,1.44.08,0.83,0.83,0,0,0,1,.06,0.63,0.63,0,0,0,0-.92,1.62,1.62,0,0,0-.75-0.49l0.21-.37a1.73,1.73,0,0,1,.79.53l0.46-.39Z"/><path class="aa" d="M60,192l-0.8.69,0.61,0.71-0.22.19-0.61-.71-0.33.29,0.61,0.71-0.22.19-0.51-.59-0.67,2-0.36-.42,0.5-1.29a5.09,5.09,0,0,1,.26-0.55h0l-0.57.18-1.34.34-0.37-.43,2-.43-0.52-.59,0.22-.19,0.61,0.7,0.33-.29-0.61-.7,0.22-.19,0.61,0.7,0.8-.69Z"/><path class="aa" d="M66.29,199.18l-0.33.29-1.2-1.33h0a1.26,1.26,0,0,1-.2.74,2.12,2.12,0,0,1-.48.47L64.62,200l-0.28.25-0.58-.64a3.19,3.19,0,0,0-.52.38,0.64,0.64,0,0,0-.12,1,1.13,1.13,0,0,0,.45.32l-0.22.35a1.27,1.27,0,0,1-.55-0.39,1.11,1.11,0,0,1,.1-1.64,3.87,3.87,0,0,1,.53-0.38L63,198.79l0.28-.25L63.74,199a2.77,2.77,0,0,0,.33-0.26,1.2,1.2,0,0,0,.32-1.21l0.22-.2Z"/><path class="aa" d="M71.62,205.81a1.48,1.48,0,0,0-.35-0.67,1.11,1.11,0,0,0-.83-0.38,1.4,1.4,0,0,0-.8.29l1.16,1.24-0.22.2-1.19-1.27-0.07.07a1.53,1.53,0,0,0-.18.18l1.18,1.26-0.22.21L69,205.72a1.49,1.49,0,0,0-.32.78,1.08,1.08,0,0,0,.31.8,1.4,1.4,0,0,0,.58.38l-0.21.36a1.69,1.69,0,0,1-.69-0.46,1.57,1.57,0,0,1-.44-1.21,1.87,1.87,0,0,1,.41-1.05L68.32,205l0.22-.2,0.24,0.26,0.18-.19,0.07-.06-0.23-.25,0.22-.2,0.25,0.27a1.86,1.86,0,0,1,1-.39,1.57,1.57,0,0,1,1.22.53,1.64,1.64,0,0,1,.43.82Z"/><path class="aa" d="M77.42,210.36L77,210.8a1,1,0,0,1-.08,1.39,1.17,1.17,0,0,1-1.43.09,0.86,0.86,0,0,0-1-.06,0.55,0.55,0,0,0,.06.82,1.43,1.43,0,0,0,.68.4l-0.18.38a1.66,1.66,0,0,1-.69-0.42l-0.42.4-0.26-.27,0.43-.42a1,1,0,0,1,.07-1.32,1.19,1.19,0,0,1,1.44,0,0.83,0.83,0,0,0,1,0,0.63,0.63,0,0,0-.07-0.92,1.6,1.6,0,0,0-.78-0.44l0.19-.38a1.72,1.72,0,0,1,.82.47l0.43-.42Z"/><path class="aa" d="M83,216.8l-0.75.75,0.66,0.66-0.21.21-0.66-.66-0.31.31,0.66,0.66-0.21.21-0.55-.55-0.53,2L80.73,220l0.41-1.32a5,5,0,0,1,.23-0.56h0l-0.56.22-1.32.43-0.4-.4,2-.57-0.55-.56,0.21-.21,0.66,0.66,0.31-.31L81,216.74l0.21-.21,0.66,0.66,0.75-.75Z"/><path class="aa" d="M89.81,223.51l-0.3.31-1.28-1.25h0a1.25,1.25,0,0,1-.16.75,2.1,2.1,0,0,1-.45.5l0.58,0.57-0.26.27-0.62-.6a3.22,3.22,0,0,0-.5.41,0.64,0.64,0,0,0-.05,1,1.14,1.14,0,0,0,.47.29l-0.19.36a1.24,1.24,0,0,1-.57-0.35,1.11,1.11,0,0,1,0-1.64,4,4,0,0,1,.5-0.42l-0.4-.39,0.26-.27,0.44,0.43a2.52,2.52,0,0,0,.31-0.28,1.2,1.2,0,0,0,.24-1.23l0.21-.21Z"/><path class="aa" d="M95.59,229.79a1.49,1.49,0,0,0-.4-0.65,1.12,1.12,0,0,0-.85-0.33,1.41,1.41,0,0,0-.78.35l1.24,1.16-0.21.22-1.27-1.19-0.07.07a1.65,1.65,0,0,0-.16.19l1.26,1.19-0.21.22-1.22-1.15a1.52,1.52,0,0,0-.27.8,1.08,1.08,0,0,0,.36.78,1.41,1.41,0,0,0,.6.34l-0.18.37a1.7,1.7,0,0,1-.72-0.41,1.57,1.57,0,0,1-.52-1.17,1.86,1.86,0,0,1,.34-1.08l-0.29-.27,0.21-.22,0.26,0.24,0.17-.2,0.06-.07-0.25-.23,0.21-.22,0.27,0.26a1.84,1.84,0,0,1,1-.46,1.56,1.56,0,0,1,1.25.45,1.64,1.64,0,0,1,.48.79Z"/><path class="aa" d="M101.66,233.92l-0.42.46a1,1,0,0,1,0,1.39,1.17,1.17,0,0,1-1.42.18,0.86,0.86,0,0,0-1,0,0.55,0.55,0,0,0,.12.81,1.42,1.42,0,0,0,.7.35l-0.16.4a1.64,1.64,0,0,1-.72-0.37l-0.39.43-0.28-.25,0.4-.44a1,1,0,0,1,0-1.32,1.19,1.19,0,0,1,1.44-.11,0.82,0.82,0,0,0,1-.07,0.63,0.63,0,0,0-.13-0.92,1.62,1.62,0,0,0-.81-0.39l0.16-.39a1.73,1.73,0,0,1,.85.42l0.4-.45Z"/><path class="aa" d="M107.69,240l-0.7.79,0.7,0.62-0.2.22-0.7-.62-0.29.33,0.7,0.62-0.19.22-0.58-.51-0.4,2.07-0.41-.37,0.32-1.35a4.82,4.82,0,0,1,.19-0.58h0l-0.54.25-1.28.51-0.42-.37,2-.69-0.59-.52,0.19-.22,0.7,0.61,0.29-.33-0.7-.61,0.19-.22,0.7,0.61,0.7-.79Z"/><path class="aa" d="M114.9,246.22l-0.28.33-1.36-1.16h0a1.25,1.25,0,0,1-.1.76,2.1,2.1,0,0,1-.42.53l0.62,0.53-0.24.29-0.66-.56a3.23,3.23,0,0,0-.47.45,0.64,0.64,0,0,0,0,1,1.12,1.12,0,0,0,.49.26l-0.17.38a1.25,1.25,0,0,1-.59-0.31,1.11,1.11,0,0,1-.12-1.64,4.14,4.14,0,0,1,.47-0.45l-0.42-.36,0.24-.29,0.47,0.4a2.66,2.66,0,0,0,.29-0.3,1.2,1.2,0,0,0,.16-1.24l0.19-.23Z"/><path class="aa" d="M121.08,252.09a1.5,1.5,0,0,0-.44-0.62,1.12,1.12,0,0,0-.87-0.27,1.39,1.39,0,0,0-.75.4l1.31,1.08-0.19.23-1.34-1.11-0.07.08a1.78,1.78,0,0,0-.15.2l1.33,1.1-0.19.23-1.29-1.06a1.49,1.49,0,0,0-.21.82,1.07,1.07,0,0,0,.41.76,1.41,1.41,0,0,0,.63.3l-0.16.38a1.71,1.71,0,0,1-.74-0.36,1.56,1.56,0,0,1-.6-1.13A1.85,1.85,0,0,1,118,252l-0.31-.25,0.19-.23,0.27,0.22,0.16-.21,0.06-.07-0.26-.22,0.19-.23,0.29,0.24a1.84,1.84,0,0,1,1-.52,1.56,1.56,0,0,1,1.28.36,1.64,1.64,0,0,1,.53.76Z"/><path class="aa" d="M127.42,255.82l-0.39.49a1,1,0,0,1,.11,1.39,1.16,1.16,0,0,1-1.41.28,0.86,0.86,0,0,0-1,.07,0.55,0.55,0,0,0,.17.8,1.43,1.43,0,0,0,.72.31l-0.13.4a1.64,1.64,0,0,1-.74-0.32l-0.36.46-0.29-.24,0.37-.47a1,1,0,0,1-.1-1.32,1.19,1.19,0,0,1,1.43-.2,0.83,0.83,0,0,0,1-.14,0.63,0.63,0,0,0-.19-0.91,1.63,1.63,0,0,0-.83-0.33l0.14-.4a1.73,1.73,0,0,1,.88.36l0.37-.47Z"/><path class="aa" d="M133.83,261.47l-0.64.84,0.74,0.57-0.18.23-0.74-.57-0.27.35,0.74,0.57-0.18.23-0.62-.48-0.26,2.1L132,265l0.23-1.37a5,5,0,0,1,.15-0.59h0l-0.52.29-1.25.6-0.45-.34,1.91-.82-0.62-.48,0.18-.23,0.74,0.57,0.27-.35-0.74-.57,0.18-.23,0.74,0.57,0.64-.84Z"/><path class="aa" d="M141.45,267.2l-0.26.35-1.44-1.06h0a1.25,1.25,0,0,1-.05.77,2.08,2.08,0,0,1-.38.55l0.66,0.49-0.23.3L139,268.1a3.28,3.28,0,0,0-.44.48,0.64,0.64,0,0,0,.08,1,1.12,1.12,0,0,0,.5.22l-0.14.39a1.28,1.28,0,0,1-.62-0.27,1.11,1.11,0,0,1-.23-1.63,4.06,4.06,0,0,1,.44-0.48l-0.45-.33,0.23-.3,0.5,0.37a2.43,2.43,0,0,0,.28-0.32,1.2,1.2,0,0,0,.07-1.25l0.18-.24Z"/><path class="aa" d="M148,272.65a1.5,1.5,0,0,0-.48-0.59,1.12,1.12,0,0,0-.89-0.21,1.41,1.41,0,0,0-.73.45l1.38,1-0.17.25-1.42-1-0.06.08a1.55,1.55,0,0,0-.14.21l1.41,1-0.17.24-1.36-1a1.51,1.51,0,0,0-.16.83,1.08,1.08,0,0,0,.46.73,1.39,1.39,0,0,0,.64.25l-0.13.39a1.71,1.71,0,0,1-.77-0.31,1.56,1.56,0,0,1-.67-1.09,1.86,1.86,0,0,1,.19-1.11l-0.32-.23,0.17-.24,0.29,0.21,0.14-.22,0.05-.07L145,272l0.17-.24,0.3,0.22a1.86,1.86,0,0,1,1-.59,1.57,1.57,0,0,1,1.3.27,1.64,1.64,0,0,1,.58.72Z"/><path class="aa" d="M154.58,276l-0.36.51a1,1,0,0,1,.2,1.38,1.16,1.16,0,0,1-1.39.37,0.86,0.86,0,0,0-1,.14,0.55,0.55,0,0,0,.23.79,1.45,1.45,0,0,0,.74.26l-0.1.41a1.62,1.62,0,0,1-.76-0.27l-0.33.48-0.31-.22,0.34-.49a1,1,0,0,1-.19-1.31,1.19,1.19,0,0,1,1.41-.3,0.83,0.83,0,0,0,1-.2,0.63,0.63,0,0,0-.25-0.89,1.62,1.62,0,0,0-.85-0.28l0.11-.41a1.73,1.73,0,0,1,.9.3l0.34-.49Z"/><path class="aa" d="M161.35,281.18l-0.59.88,0.78,0.52-0.16.24-0.78-.52-0.24.37,0.78,0.52-0.16.24-0.65-.43-0.12,2.11-0.46-.3,0.14-1.38a4.9,4.9,0,0,1,.11-0.6h0l-0.5.32-1.21.68-0.47-.31,1.85-1-0.65-.44,0.16-.25,0.77,0.52,0.24-.36-0.77-.52,0.16-.25,0.77,0.52,0.59-.88Z"/><path class="aa" d="M169.32,286.39l-0.24.37-1.5-1h0a1.25,1.25,0,0,1,0,.77,2.08,2.08,0,0,1-.34.58l0.69,0.44-0.21.32-0.73-.47a3.21,3.21,0,0,0-.4.5,0.64,0.64,0,0,0,.14,1,1.12,1.12,0,0,0,.52.19l-0.12.39a1.25,1.25,0,0,1-.63-0.23,1.11,1.11,0,0,1-.33-1.61,3.86,3.86,0,0,1,.41-0.51l-0.47-.3,0.2-.32,0.52,0.33a2.66,2.66,0,0,0,.25-0.34,1.2,1.2,0,0,0,0-1.25l0.16-.25Z"/><path class="aa" d="M176.23,291.4a1.49,1.49,0,0,0-.52-0.55,1.12,1.12,0,0,0-.9-0.15,1.39,1.39,0,0,0-.69.49l1.44,0.9-0.16.25-1.48-.92-0.05.09a1.56,1.56,0,0,0-.12.22l1.47,0.91-0.16.25-1.42-.88a1.51,1.51,0,0,0-.11.84,1.08,1.08,0,0,0,.51.7,1.42,1.42,0,0,0,.66.21l-0.11.4a1.72,1.72,0,0,1-.79-0.26,1.57,1.57,0,0,1-.74-1,1.86,1.86,0,0,1,.12-1.12l-0.34-.21,0.16-.25,0.3,0.19,0.13-.23,0-.08-0.29-.18,0.16-.26,0.32,0.2a1.84,1.84,0,0,1,.91-0.65,1.56,1.56,0,0,1,1.32.19,1.64,1.64,0,0,1,.63.68Z"/><path class="aa" d="M183,294.26l-0.32.54a1,1,0,0,1,.29,1.36,1.17,1.17,0,0,1-1.36.46,0.86,0.86,0,0,0-1,.21,0.55,0.55,0,0,0,.28.77,1.42,1.42,0,0,0,.76.21l-0.07.42a1.64,1.64,0,0,1-.78-0.22l-0.3.5-0.32-.19,0.31-.51a1,1,0,0,1-.28-1.29,1.19,1.19,0,0,1,1.38-.39,0.82,0.82,0,0,0,.95-0.26,0.63,0.63,0,0,0-.31-0.87,1.63,1.63,0,0,0-.87-0.22l0.08-.42a1.74,1.74,0,0,1,.92.24l0.31-.51Z"/><path class="aa" d="M190.11,299l-0.53.92,0.81,0.47-0.15.26-0.81-.47-0.22.38L190,301l-0.15.26-0.68-.39,0,2.11-0.48-.28,0-1.38a5.21,5.21,0,0,1,.07-0.6h0l-0.48.35-1.16.76-0.49-.28,1.79-1.07-0.68-.39,0.15-.25,0.81,0.46,0.22-.38-0.81-.46,0.15-.25,0.81,0.46,0.53-.92Z"/><path class="aa" d="M198.41,303.7l-0.21.38-1.56-.87h0a1.25,1.25,0,0,1,0,.77,2.06,2.06,0,0,1-.31.6l0.71,0.4-0.18.33-0.75-.42a3.18,3.18,0,0,0-.37.53,0.64,0.64,0,0,0,.21,1,1.14,1.14,0,0,0,.53.16l-0.09.4a1.24,1.24,0,0,1-.64-0.19,1.11,1.11,0,0,1-.44-1.58,4.24,4.24,0,0,1,.37-0.53l-0.49-.27,0.18-.33,0.54,0.3a2.53,2.53,0,0,0,.23-0.35,1.2,1.2,0,0,0-.09-1.25l0.15-.26Z"/><path class="aa" d="M205.64,308.23a1.49,1.49,0,0,0-.55-0.52,1.12,1.12,0,0,0-.91-0.09,1.39,1.39,0,0,0-.66.54L205,309l-0.14.26-1.54-.82,0,0.09a1.82,1.82,0,0,0-.11.23l1.52,0.81-0.14.27-1.48-.79a1.49,1.49,0,0,0,0,.84,1.07,1.07,0,0,0,.55.66,1.4,1.4,0,0,0,.67.17l-0.08.41a1.71,1.71,0,0,1-.8-0.21,1.57,1.57,0,0,1-.81-1,1.86,1.86,0,0,1,0-1.12l-0.35-.19,0.14-.27,0.31,0.17c0-.08.07-0.16,0.11-0.24l0-.08-0.3-.16,0.14-.26,0.33,0.17a1.85,1.85,0,0,1,.87-0.71,1.57,1.57,0,0,1,1.33.1,1.65,1.65,0,0,1,.67.64Z"/><path class="aa" d="M212.59,310.64l-0.28.56a1,1,0,0,1,.38,1.34,1.17,1.17,0,0,1-1.32.55,0.85,0.85,0,0,0-1,.27,0.55,0.55,0,0,0,.33.75,1.46,1.46,0,0,0,.77.16l0,0.42a1.64,1.64,0,0,1-.79-0.17l-0.26.52-0.34-.17,0.27-.54a1,1,0,0,1-.36-1.27,1.19,1.19,0,0,1,1.36-.48,0.83,0.83,0,0,0,.93-0.33,0.63,0.63,0,0,0-.37-0.85,1.64,1.64,0,0,0-.88-0.16l0.05-.42a1.73,1.73,0,0,1,.93.18l0.27-.53Z"/><path class="aa" d="M220,314.91l-0.47.95,0.84,0.41-0.13.26-0.84-.41-0.19.39,0.84,0.41-0.13.26-0.7-.34,0.16,2.11-0.5-.24,0-1.38a4.73,4.73,0,0,1,0-.61h0l-0.46.38-1.11.83-0.51-.25,1.71-1.18-0.71-.35,0.13-.26,0.84,0.41,0.19-.39-0.83-.41,0.13-.26,0.83,0.41,0.47-.95Z"/><path class="aa" d="M228.58,319l-0.19.4-1.62-.76h0a1.24,1.24,0,0,1,.1.76,2.06,2.06,0,0,1-.26.62l0.74,0.35-0.16.34-0.78-.37a3.26,3.26,0,0,0-.33.55,0.64,0.64,0,0,0,.27,1,1.12,1.12,0,0,0,.54.12l-0.07.41a1.25,1.25,0,0,1-.65-0.14,1.11,1.11,0,0,1-.54-1.55,4,4,0,0,1,.34-0.56l-0.5-.24,0.16-.34,0.56,0.26a2.52,2.52,0,0,0,.21-0.37,1.2,1.2,0,0,0-.17-1.24l0.13-.27Z"/><path class="aa" d="M236.09,323.09a1.49,1.49,0,0,0-.59-0.48,1.12,1.12,0,0,0-.91,0,1.4,1.4,0,0,0-.62.58l1.55,0.7-0.12.27-1.59-.71,0,0.09a1.46,1.46,0,0,0-.09.24l1.58,0.71-0.12.27L233.6,324a1.48,1.48,0,0,0,0,.84,1.07,1.07,0,0,0,.59.62,1.42,1.42,0,0,0,.68.12l-0.05.41a1.71,1.71,0,0,1-.81-0.16,1.57,1.57,0,0,1-.87-0.94,1.87,1.87,0,0,1,0-1.13l-0.36-.16,0.12-.27,0.32,0.14,0.1-.25,0-.08-0.31-.14,0.12-.27,0.34,0.15a1.84,1.84,0,0,1,.82-0.76,1.56,1.56,0,0,1,1.33,0,1.65,1.65,0,0,1,.71.59Z"/><path class="aa" d="M243.19,325l-0.25.57a1,1,0,0,1,.47,1.31,1.16,1.16,0,0,1-1.29.63,0.86,0.86,0,0,0-1,.33,0.55,0.55,0,0,0,.38.73,1.45,1.45,0,0,0,.78.11l0,0.42a1.63,1.63,0,0,1-.8-0.12l-0.23.53-0.35-.15,0.24-.55a1,1,0,0,1-.44-1.24A1.19,1.19,0,0,1,242,327a0.82,0.82,0,0,0,.9-0.39,0.63,0.63,0,0,0-.42-0.82,1.6,1.6,0,0,0-.89-0.1l0-.43a1.71,1.71,0,0,1,.94.12l0.24-.55Z"/><path class="aa" d="M250.83,328.8l-0.4,1,0.87,0.36-0.11.27-0.87-.36-0.17.41L251,330.8l-0.11.27-0.72-.3,0.3,2.09-0.51-.21-0.13-1.38a5.18,5.18,0,0,1,0-.61h0l-0.43.41-1,.91-0.52-.21,1.63-1.29-0.73-.3,0.11-.27,0.86,0.35,0.17-.41L249,329.5l0.11-.27,0.86,0.35,0.4-1Z"/><path class="aa" d="M259.69,332.34l-0.16.41-1.66-.65h0a1.25,1.25,0,0,1,.15.75,2.11,2.11,0,0,1-.22.63l0.76,0.3-0.14.35-0.8-.32a3.24,3.24,0,0,0-.29.57,0.64,0.64,0,0,0,.33.94,1.12,1.12,0,0,0,.55.08l0,0.41a1.25,1.25,0,0,1-.66-0.1,1.11,1.11,0,0,1-.64-1.51,4,4,0,0,1,.3-0.58l-0.52-.2,0.14-.35,0.58,0.23a2.55,2.55,0,0,0,.18-0.38,1.2,1.2,0,0,0-.25-1.23l0.11-.28Z"/><path class="aa" d="M267.46,335.9a1.49,1.49,0,0,0-.62-0.44,1.12,1.12,0,0,0-.91,0,1.4,1.4,0,0,0-.58.62l1.59,0.59-0.1.28-1.63-.61,0,0.1a1.74,1.74,0,0,0-.08.24l1.62,0.6-0.11.28L265,337a1.49,1.49,0,0,0,.06.84,1.07,1.07,0,0,0,.63.58,1.41,1.41,0,0,0,.69.08l0,0.41a1.69,1.69,0,0,1-.82-0.1,1.56,1.56,0,0,1-.93-0.88,1.86,1.86,0,0,1-.11-1.12l-0.37-.14,0.1-.28,0.33,0.12c0-.08,0-0.17.08-0.25l0-.08-0.32-.12,0.1-.28,0.35,0.13a1.84,1.84,0,0,1,.76-0.82,1.56,1.56,0,0,1,1.33-.07,1.62,1.62,0,0,1,.75.54Z"/><path class="aa" d="M274.66,337.36l-0.21.59a1,1,0,0,1,.55,1.28,1.16,1.16,0,0,1-1.24.72,0.86,0.86,0,0,0-.93.4,0.55,0.55,0,0,0,.42.7,1.43,1.43,0,0,0,.78.05v0.42a1.62,1.62,0,0,1-.8-0.06L273,342l-0.36-.13,0.2-.57a1,1,0,0,1-.53-1.21,1.19,1.19,0,0,1,1.28-.65,0.82,0.82,0,0,0,.88-0.45,0.63,0.63,0,0,0-.48-0.79,1.61,1.61,0,0,0-.89,0v-0.43a1.72,1.72,0,0,1,.95.06l0.2-.56Z"/><path class="aa" d="M282.55,340.62l-0.34,1,0.89,0.3-0.09.28-0.89-.3-0.14.42,0.89,0.3-0.09.28-0.74-.25,0.44,2.07-0.52-.18-0.22-1.37a5,5,0,0,1,0-.6h0c-0.12.15-.25,0.28-0.4,0.44l-1,1-0.53-.18,1.54-1.4-0.75-.25,0.09-.28,0.88,0.3,0.14-.41-0.88-.3,0.09-.28,0.88,0.3,0.34-1Z"/><path class="aa" d="M291.62,343.56l-0.13.42-1.7-.54h0a1.25,1.25,0,0,1,.2.74,2.08,2.08,0,0,1-.18.65l0.78,0.25-0.11.36-0.82-.26a3.25,3.25,0,0,0-.26.59,0.64,0.64,0,0,0,.4.91,1.13,1.13,0,0,0,.55,0v0.41a1.25,1.25,0,0,1-.67-0.05,1.11,1.11,0,0,1-.74-1.46,3.87,3.87,0,0,1,.26-0.6l-0.53-.17,0.11-.36,0.59,0.19a2.47,2.47,0,0,0,.16-0.39,1.2,1.2,0,0,0-.33-1.21l0.09-.29Z"/><path class="aa" d="M299.6,346.59a1.49,1.49,0,0,0-.64-0.4,1.12,1.12,0,0,0-.91.09,1.41,1.41,0,0,0-.54.66l1.63,0.49-0.09.29-1.67-.5,0,0.1a1.68,1.68,0,0,0-.06.24l1.66,0.5-0.09.29-1.61-.48a1.5,1.5,0,0,0,.12.84,1.08,1.08,0,0,0,.67.54,1.4,1.4,0,0,0,.69,0v0.41a1.72,1.72,0,0,1-.83,0,1.56,1.56,0,0,1-1-.82,1.86,1.86,0,0,1-.18-1.11l-0.38-.11,0.09-.29,0.34,0.1c0-.08,0-0.17.06-0.26l0-.09-0.33-.1,0.09-.29,0.36,0.11a1.85,1.85,0,0,1,.71-0.87,1.56,1.56,0,0,1,1.32-.16,1.64,1.64,0,0,1,.79.49Z"/><path class="aa" d="M306.89,347.58l-0.17.6a1,1,0,0,1,.64,1.24,1.17,1.17,0,0,1-1.19.8,0.85,0.85,0,0,0-.9.46,0.55,0.55,0,0,0,.47.67,1.44,1.44,0,0,0,.78,0l0,0.42a1.65,1.65,0,0,1-.81,0l-0.16.56-0.36-.1,0.16-.58a1,1,0,0,1-.6-1.17,1.19,1.19,0,0,1,1.23-.74,0.82,0.82,0,0,0,.84-0.5,0.63,0.63,0,0,0-.53-0.76,1.62,1.62,0,0,0-.89,0l0-.42a1.71,1.71,0,0,1,.95,0l0.16-.58Z"/><path class="aa" d="M315,350.31l-0.27,1,0.91,0.24-0.08.28-0.91-.24-0.11.42,0.91,0.24-0.08.29-0.75-.2,0.58,2-0.53-.14-0.32-1.35a4.91,4.91,0,0,1-.09-0.6h0c-0.12.16-.23,0.29-0.37,0.47l-0.92,1-0.55-.14,1.44-1.5-0.76-.2,0.08-.28,0.9,0.24,0.11-.42-0.9-.24,0.08-.28,0.9,0.24,0.27-1Z"/><path class="aa" d="M324.22,352.64l-0.1.42-1.74-.43h0a1.24,1.24,0,0,1,.25.73,2.1,2.1,0,0,1-.14.66l0.79,0.19-0.09.37-0.84-.21a3.3,3.3,0,0,0-.22.61,0.64,0.64,0,0,0,.46.88,1.13,1.13,0,0,0,.55,0l0,0.41a1.26,1.26,0,0,1-.67,0,1.11,1.11,0,0,1-.84-1.41,3.91,3.91,0,0,1,.22-0.61l-0.54-.13,0.09-.37,0.6,0.15a2.47,2.47,0,0,0,.13-0.4,1.2,1.2,0,0,0-.41-1.18l0.07-.29Z"/><path class="aa" d="M332.41,355.15a1.5,1.5,0,0,0-.67-0.36,1.12,1.12,0,0,0-.9.15,1.4,1.4,0,0,0-.5.69L332,356l-0.07.29-1.7-.39,0,0.1a1.77,1.77,0,0,0,0,.25l1.68,0.39-0.07.29-1.63-.37a1.5,1.5,0,0,0,.17.83,1.08,1.08,0,0,0,.71.49,1.41,1.41,0,0,0,.69,0l0,0.41a1.72,1.72,0,0,1-.83,0,1.56,1.56,0,0,1-1-.75,1.85,1.85,0,0,1-.25-1.1l-0.39-.09,0.07-.29,0.34,0.08c0-.08,0-0.17,0-0.26l0-.09-0.33-.08,0.07-.29,0.36,0.08a1.85,1.85,0,0,1,.65-0.91,1.56,1.56,0,0,1,1.31-.25,1.63,1.63,0,0,1,.81.44Z"/><path class="aa" d="M339.74,355.64l-0.13.61a1,1,0,0,1,.72,1.19,1.17,1.17,0,0,1-1.13.88,0.86,0.86,0,0,0-.87.52,0.55,0.55,0,0,0,.51.64,1.43,1.43,0,0,0,.78,0l0.07,0.42a1.65,1.65,0,0,1-.81,0l-0.12.57-0.37-.08,0.12-.59a1,1,0,0,1-.68-1.13,1.19,1.19,0,0,1,1.18-.82,0.82,0.82,0,0,0,.81-0.56,0.63,0.63,0,0,0-.58-0.72,1.61,1.61,0,0,0-.89.08l-0.06-.42a1.72,1.72,0,0,1,.95-0.07l0.12-.59Z"/><path class="aa" d="M348,357.82l-0.2,1,0.92,0.18-0.06.29-0.92-.18-0.08.43,0.92,0.18-0.05.29-0.77-.15,0.71,2-0.54-.11-0.41-1.32a5.12,5.12,0,0,1-.13-0.59h0c-0.1.16-.21,0.31-0.34,0.49l-0.85,1.09-0.55-.11,1.34-1.59-0.77-.15,0.06-.29,0.91,0.18,0.08-.43-0.91-.17,0.05-.29,0.91,0.18,0.2-1Z"/><path class="aa" d="M357.37,359.54l-0.07.43-1.76-.31h0a1.25,1.25,0,0,1,.3.71,2.08,2.08,0,0,1-.09.67l0.8,0.14-0.06.37-0.85-.15a3.3,3.3,0,0,0-.18.62,0.64,0.64,0,0,0,.52.85,1.12,1.12,0,0,0,.55,0l0,0.41a1.26,1.26,0,0,1-.67,0A1.11,1.11,0,0,1,355,362a4,4,0,0,1,.18-0.63l-0.55-.1,0.07-.37,0.61,0.11a2.48,2.48,0,0,0,.1-0.41,1.2,1.2,0,0,0-.49-1.15l0.05-.3Z"/><path class="aa" d="M365.69,361.49a1.49,1.49,0,0,0-.69-0.31,1.12,1.12,0,0,0-.89.21,1.4,1.4,0,0,0-.45.73l1.68,0.27,0,0.3-1.72-.27,0,0.1a1.59,1.59,0,0,0,0,.25l1.71,0.27,0,0.3-1.65-.26a1.5,1.5,0,0,0,.23.82,1.07,1.07,0,0,0,.74.45,1.4,1.4,0,0,0,.69-0.06l0.06,0.41a1.72,1.72,0,0,1-.83.06,1.56,1.56,0,0,1-1.09-.68A1.87,1.87,0,0,1,363,363l-0.39-.06,0-.3,0.35,0.06c0-.08,0-0.18,0-0.26v-0.09l-0.34-.05,0-.3,0.37,0.06a1.85,1.85,0,0,1,.59-1,1.56,1.56,0,0,1,1.29-.34,1.64,1.64,0,0,1,.84.38Z"/><path class="aa" d="M373,361.49l-0.09.62a1,1,0,0,1,.8,1.14,1.16,1.16,0,0,1-1.08,1,0.86,0.86,0,0,0-.83.57,0.55,0.55,0,0,0,.56.61,1.44,1.44,0,0,0,.78-0.1l0.09,0.42a1.65,1.65,0,0,1-.8.1l-0.08.58-0.37-.05,0.08-.59a1,1,0,0,1-.76-1.08,1.19,1.19,0,0,1,1.13-.9,0.83,0.83,0,0,0,.77-0.61,0.63,0.63,0,0,0-.62-0.68,1.6,1.6,0,0,0-.89.13l-0.09-.42a1.72,1.72,0,0,1,.94-0.13l0.08-.6Z"/><path class="aa" d="M381.41,363.12l-0.13,1,0.93,0.12,0,0.29-0.93-.12-0.05.43,0.93,0.12,0,0.29-0.77-.1,0.84,1.94-0.55-.07-0.49-1.29a5.1,5.1,0,0,1-.17-0.58h0c-0.09.17-.19,0.32-0.31,0.51l-0.77,1.15-0.56-.07,1.23-1.68-0.78-.1,0-.29,0.92,0.12,0.05-.43-0.92-.12,0-.29,0.92,0.12,0.13-1Z"/><path class="aa" d="M390.88,364.21l0,0.44-1.78-.19h0a1.25,1.25,0,0,1,.34.69,2.12,2.12,0,0,1,0,.67l0.81,0.09,0,0.38-0.86-.09a3.29,3.29,0,0,0-.13.63,0.64,0.64,0,0,0,.57.82,1.15,1.15,0,0,0,.55-0.06l0.07,0.41a1.26,1.26,0,0,1-.67.08,1.11,1.11,0,0,1-1-1.29,4,4,0,0,1,.13-0.64l-0.55-.06,0-.37,0.61,0.07a2.66,2.66,0,0,0,.08-0.41,1.2,1.2,0,0,0-.57-1.12l0-.3Z"/><path class="aa" d="M399.31,365.59a1.49,1.49,0,0,0-.71-0.26,1.11,1.11,0,0,0-.87.27,1.39,1.39,0,0,0-.4.75L399,366.5l0,0.3-1.74-.16v0.1a1.73,1.73,0,0,0,0,.25l1.72,0.16,0,0.3-1.67-.15a1.5,1.5,0,0,0,.28.8,1.08,1.08,0,0,0,.77.39,1.39,1.39,0,0,0,.69-0.11l0.08,0.41a1.71,1.71,0,0,1-.82.12,1.57,1.57,0,0,1-1.13-.6,1.86,1.86,0,0,1-.4-1.06l-0.39,0,0-.3,0.35,0c0-.08,0-0.17,0-0.26v-0.09l-0.34,0,0-.3,0.37,0a1.84,1.84,0,0,1,.52-1,1.56,1.56,0,0,1,1.26-.42,1.64,1.64,0,0,1,.87.33Z"/><path class="aa" d="M406.65,365.1l0,0.62a1,1,0,0,1,.87,1.09,1.17,1.17,0,0,1-1,1,0.86,0.86,0,0,0-.79.63,0.55,0.55,0,0,0,.6.57,1.45,1.45,0,0,0,.77-0.15l0.12,0.41a1.65,1.65,0,0,1-.79.15l0,0.58-0.38,0,0-.6a1,1,0,0,1-.83-1,1.19,1.19,0,0,1,1.07-1,0.82,0.82,0,0,0,.73-0.66,0.63,0.63,0,0,0-.67-0.64,1.61,1.61,0,0,0-.87.19l-0.11-.41a1.73,1.73,0,0,1,.93-0.2l0-.6Z"/><path class="aa" d="M415.13,366.16l-0.06,1.05,0.93,0.05,0,0.29-0.93-.05,0,0.44L416,368l0,0.29-0.78,0,1,1.87-0.55,0L415,368.83a4.86,4.86,0,0,1-.21-0.57h0c-0.08.18-.16,0.33-0.27,0.53l-0.69,1.2-0.56,0,1.11-1.75-0.78,0,0-.29,0.93,0.05,0-.44-0.93-.05,0-.29,0.93,0.05,0.06-1.05Z"/><path class="aa" d="M424.65,366.62l0,0.44-1.79-.07h0a1.25,1.25,0,0,1,.39.67,2.1,2.1,0,0,1,0,.67l0.82,0,0,0.38-0.86,0a3.36,3.36,0,0,0-.09.64,0.64,0.64,0,0,0,.63.78,1.13,1.13,0,0,0,.54-0.1l0.1,0.4a1.25,1.25,0,0,1-.66.12,1.11,1.11,0,0,1-1.11-1.22,4.18,4.18,0,0,1,.09-0.65l-0.56,0v-0.38l0.62,0a2.58,2.58,0,0,0,0-.42,1.2,1.2,0,0,0-.64-1.08v-0.3Z"/><path class="aa" d="M433.13,367.43a1.5,1.5,0,0,0-.73-0.21,1.12,1.12,0,0,0-.85.33,1.4,1.4,0,0,0-.35.78l1.7,0v0.3l-1.74,0s0,0.07,0,.1a1.78,1.78,0,0,0,0,.25l1.73,0v0.3l-1.67,0a1.5,1.5,0,0,0,.34.78,1.08,1.08,0,0,0,.79.34,1.4,1.4,0,0,0,.68-0.15l0.11,0.4a1.7,1.7,0,0,1-.81.17,1.57,1.57,0,0,1-1.17-.53,1.86,1.86,0,0,1-.47-1h-0.4V369h0.35c0-.08,0-0.17,0-0.26s0-.06,0-0.09h-0.34v-0.3h0.37a1.85,1.85,0,0,1,.46-1,1.56,1.56,0,0,1,1.23-.5,1.64,1.64,0,0,1,.89.27Z"/><path class="aa" d="M440.43,366.46v0.62a1,1,0,0,1,.94,1,1.16,1.16,0,0,1-.94,1.08,0.86,0.86,0,0,0-.75.68,0.55,0.55,0,0,0,.63.53,1.42,1.42,0,0,0,.76-0.21l0.15,0.4a1.65,1.65,0,0,1-.78.2v0.58H440v-0.6a1,1,0,0,1-.89-1,1.19,1.19,0,0,1,1-1,0.82,0.82,0,0,0,.68-0.71,0.63,0.63,0,0,0-.71-0.59,1.6,1.6,0,0,0-.86.25l-0.14-.4a1.72,1.72,0,0,1,.92-0.26v-0.6h0.38Z"/><path class="aa" d="M449,366.95V368h0.94v0.29H449v0.44h0.94V369h-0.78l1.09,1.81h-0.55L449,369.62a5,5,0,0,1-.25-0.56h0c-0.07.18-.14,0.34-0.23,0.55l-0.61,1.24h-0.56l1-1.83h-0.79v-0.29h0.93V368.3h-0.93V368h0.93V367H449Z"/><path class="aa" d="M458.5,366.76v0.44l-1.79,0h0a1.26,1.26,0,0,1,.43.64,2.1,2.1,0,0,1,0,.67l0.82,0v0.38l-0.86,0a3.31,3.31,0,0,0,0,.65,0.64,0.64,0,0,0,.67.73,1.13,1.13,0,0,0,.54-0.13l0.13,0.39a1.26,1.26,0,0,1-.65.17,1.11,1.11,0,0,1-1.18-1.14,4,4,0,0,1,0-.65H456.1V368.6l0.62,0a2.58,2.58,0,0,0,0-.42,1.2,1.2,0,0,0-.71-1v-0.3Z"/><path class="aa" d="M467,367a1.48,1.48,0,0,0-.74-0.17,1.12,1.12,0,0,0-.83.38,1.4,1.4,0,0,0-.3.8l1.7-.07v0.3l-1.74.07s0,0.07,0,.1a1.75,1.75,0,0,0,0,.25l1.73-.07v0.3l-1.67.07a1.5,1.5,0,0,0,.38.75,1.07,1.07,0,0,0,.81.29,1.43,1.43,0,0,0,.66-0.2l0.14,0.39a1.72,1.72,0,0,1-.79.23,1.57,1.57,0,0,1-1.2-.45,1.85,1.85,0,0,1-.53-1l-0.4,0v-0.3l0.35,0c0-.08,0-0.17,0-0.26v-0.09h-0.34v-0.3l0.37,0a1.85,1.85,0,0,1,.39-1,1.56,1.56,0,0,1,1.19-.58,1.63,1.63,0,0,1,.9.21Z"/><path class="aa" d="M474.23,365.54l0,0.62a1,1,0,0,1,1,1,1.16,1.16,0,0,1-.86,1.15,0.86,0.86,0,0,0-.7.73,0.55,0.55,0,0,0,.67.48,1.45,1.45,0,0,0,.74-0.26l0.17,0.39a1.63,1.63,0,0,1-.77.26l0,0.58-0.38,0,0-.6a1,1,0,0,1-1-.91,1.19,1.19,0,0,1,.92-1.1,0.83,0.83,0,0,0,.63-0.75,0.63,0.63,0,0,0-.75-0.54,1.61,1.61,0,0,0-.84.31l-0.17-.39a1.74,1.74,0,0,1,.89-0.32l0-.6Z"/><path class="aa" d="M482.77,365.46l0.08,1.05,0.93-.07,0,0.29-0.93.07,0,0.44,0.93-.07,0,0.29-0.78.06,1.21,1.73-0.55,0L483,368.13a5,5,0,0,1-.28-0.54h0c-0.06.19-.12,0.35-0.2,0.56L482,369.44l-0.56,0,0.87-1.89-0.79.06,0-.29,0.93-.07,0-.44-0.93.07,0-.29,0.93-.07-0.08-1.05Z"/><path class="aa" d="M492.28,364.63l0,0.44-1.78.17h0a1.26,1.26,0,0,1,.47.61,2.14,2.14,0,0,1,.09.67l0.81-.08,0,0.38-0.86.08a3.26,3.26,0,0,0,0,.65,0.64,0.64,0,0,0,.72.68,1.11,1.11,0,0,0,.53-0.17l0.15,0.38a1.24,1.24,0,0,1-.64.21,1.11,1.11,0,0,1-1.26-1.06,4.08,4.08,0,0,1,0-.65L490,367l0-.38,0.62-.06a2.58,2.58,0,0,0,0-.42,1.2,1.2,0,0,0-.78-1l0-.3Z"/><path class="aa" d="M500.79,364.31a1.48,1.48,0,0,0-.75-0.12,1.12,1.12,0,0,0-.8.44,1.4,1.4,0,0,0-.24.82l1.69-.19,0,0.3-1.73.19v0.1a1.67,1.67,0,0,0,0,.25l1.72-.19,0,0.3-1.66.18a1.52,1.52,0,0,0,.44.72,1.08,1.08,0,0,0,.83.23,1.4,1.4,0,0,0,.65-0.24l0.16,0.38a1.71,1.71,0,0,1-.78.28,1.57,1.57,0,0,1-1.23-.37,1.86,1.86,0,0,1-.6-1l-0.39,0,0-.3,0.35,0c0-.08,0-0.17,0-0.26v-0.09l-0.34,0,0-.3,0.37,0a1.85,1.85,0,0,1,.32-1.07,1.56,1.56,0,0,1,1.15-.66,1.63,1.63,0,0,1,.92.14Z"/><path class="aa" d="M507.89,362.37L508,363a1,1,0,0,1,1.07.89,1.16,1.16,0,0,1-.79,1.2,0.86,0.86,0,0,0-.65.77,0.55,0.55,0,0,0,.7.44A1.45,1.45,0,0,0,509,366l0.2,0.37a1.65,1.65,0,0,1-.75.31l0.07,0.58-0.37,0-0.08-.59a1,1,0,0,1-1-.84,1.19,1.19,0,0,1,.85-1.16,0.83,0.83,0,0,0,.58-0.79,0.63,0.63,0,0,0-.78-0.49,1.61,1.61,0,0,0-.82.36l-0.19-.38a1.72,1.72,0,0,1,.87-0.38l-0.08-.6Z"/><path class="aa" d="M516.41,361.72l0.15,1,0.93-.13,0,0.29-0.92.13,0.06,0.43,0.93-.13,0,0.29-0.77.11,1.32,1.64-0.55.08-0.82-1.12a5,5,0,0,1-.32-0.52h0c0,0.19-.09.36-0.16,0.57l-0.44,1.31-0.56.08,0.74-1.94-0.78.11,0-.29,0.92-.13-0.06-.43-0.92.13,0-.29,0.92-.13-0.15-1Z"/><path class="aa" d="M525.83,360.26l0.07,0.43-1.76.28h0a1.24,1.24,0,0,1,.51.57,2.09,2.09,0,0,1,.13.66l0.81-.13,0.06,0.37-0.85.14a3.25,3.25,0,0,0,0,.64,0.64,0.64,0,0,0,.76.64,1.13,1.13,0,0,0,.51-0.2l0.17,0.37a1.25,1.25,0,0,1-.62.25,1.11,1.11,0,0,1-1.32-1,4,4,0,0,1,0-.65l-0.55.09-0.06-.37,0.61-.1a2.49,2.49,0,0,0,0-.42,1.2,1.2,0,0,0-.84-0.93l0-.3Z"/><path class="aa" d="M534.32,359.36a1.51,1.51,0,0,0-.75-0.07,1.12,1.12,0,0,0-.77.49,1.4,1.4,0,0,0-.19.83l1.67-.3,0.05,0.3-1.71.31,0,0.1a1.79,1.79,0,0,0,.06.25l1.7-.3,0.05,0.29-1.65.29a1.49,1.49,0,0,0,.48.69,1.07,1.07,0,0,0,.84.18,1.4,1.4,0,0,0,.63-0.28l0.19,0.37a1.71,1.71,0,0,1-.76.33,1.57,1.57,0,0,1-1.25-.28,1.86,1.86,0,0,1-.66-0.91l-0.39.07-0.05-.3,0.35-.06c0-.08,0-0.17-0.06-0.26l0-.09-0.34.06-0.05-.29,0.37-.07a1.86,1.86,0,0,1,.24-1.09,1.57,1.57,0,0,1,1.1-.74,1.65,1.65,0,0,1,.92.08Z"/><path class="aa" d="M541.28,357l0.12,0.61a1,1,0,0,1,1.13.82,1.17,1.17,0,0,1-.7,1.25,0.86,0.86,0,0,0-.6.81,0.55,0.55,0,0,0,.72.39,1.45,1.45,0,0,0,.7-0.35l0.22,0.36a1.64,1.64,0,0,1-.73.36l0.11,0.57-0.37.07-0.11-.59a1,1,0,0,1-1.07-.78,1.19,1.19,0,0,1,.77-1.21,0.83,0.83,0,0,0,.53-0.83,0.63,0.63,0,0,0-.81-0.44,1.61,1.61,0,0,0-.79.42l-0.22-.37a1.73,1.73,0,0,1,.84-0.43L540.9,357Z"/><path class="aa" d="M549.73,355.74l0.22,1,0.92-.2,0.06,0.29-0.92.2,0.09,0.43,0.92-.2,0.06,0.29-0.76.16,1.43,1.55-0.54.12-0.89-1.06a4.88,4.88,0,0,1-.35-0.5h0c0,0.19-.07.37-0.12,0.58l-0.35,1.34-0.55.12,0.61-2-0.77.16-0.06-.29,0.91-.19-0.09-.43-0.91.2-0.06-.29,0.91-.2-0.22-1Z"/><path class="aa" d="M559,353.67l0.1,0.43-1.74.4h0a1.25,1.25,0,0,1,.55.54,2.09,2.09,0,0,1,.17.65l0.79-.18,0.08,0.37-0.84.19a3.25,3.25,0,0,0,.08.64,0.64,0.64,0,0,0,.8.58,1.12,1.12,0,0,0,.5-0.24l0.2,0.36a1.26,1.26,0,0,1-.6.29,1.11,1.11,0,0,1-1.38-.88,3.92,3.92,0,0,1-.08-0.65l-0.54.13-0.08-.37,0.6-.14a2.58,2.58,0,0,0-.06-0.42,1.2,1.2,0,0,0-.9-0.87l-0.07-.29Z"/><path class="aa" d="M567.43,352.2a1.5,1.5,0,0,0-.76,0,1.12,1.12,0,0,0-.74.54,1.4,1.4,0,0,0-.13.84l1.65-.41,0.07,0.29-1.69.42,0,0.1a1.54,1.54,0,0,0,.07.24l1.68-.42,0.07,0.29-1.63.4a1.5,1.5,0,0,0,.53.66,1.08,1.08,0,0,0,.85.12,1.39,1.39,0,0,0,.61-0.33l0.21,0.36a1.72,1.72,0,0,1-.73.38,1.57,1.57,0,0,1-1.27-.2,1.86,1.86,0,0,1-.72-0.87l-0.38.1-0.07-.29,0.34-.09c0-.08-0.05-0.17-0.08-0.25l0-.09-0.33.08-0.07-.29,0.36-.09a1.85,1.85,0,0,1,.17-1.11,1.57,1.57,0,0,1,1.05-.81,1.64,1.64,0,0,1,.93,0v0.4Z"/><path class="aa" d="M574.22,349.34l0.16,0.6a1,1,0,0,1,1.18.74,1.17,1.17,0,0,1-.62,1.29,0.86,0.86,0,0,0-.54.85,0.55,0.55,0,0,0,.75.34,1.44,1.44,0,0,0,.68-0.4l0.25,0.34a1.64,1.64,0,0,1-.7.4l0.15,0.56-0.37.1-0.15-.58a1,1,0,0,1-1.12-.7,1.19,1.19,0,0,1,.69-1.26,0.83,0.83,0,0,0,.47-0.87,0.63,0.63,0,0,0-.84-0.38,1.62,1.62,0,0,0-.76.47l-0.24-.35A1.72,1.72,0,0,1,574,350l-0.15-.58Z"/><path class="aa" d="M582.56,347.57l0.29,1,0.9-.25,0.08,0.28-0.9.26,0.12,0.42,0.9-.26,0.08,0.28-0.75.21,1.53,1.46-0.53.15-1-1a5.13,5.13,0,0,1-.38-0.47h0c0,0.19,0,.37-0.08.59l-0.26,1.36-0.54.15,0.48-2-0.75.21-0.08-.28,0.89-.25-0.12-.42-0.89.25-0.08-.28,0.89-.25-0.29-1Z"/><path class="aa" d="M591.73,344.89l0.12,0.42-1.72.5h0a1.25,1.25,0,0,1,.58.5,2.1,2.1,0,0,1,.21.64l0.78-.23,0.11,0.36-0.83.24a3.24,3.24,0,0,0,.12.63,0.64,0.64,0,0,0,.84.53,1.12,1.12,0,0,0,.49-0.27l0.22,0.35a1.26,1.26,0,0,1-.58.33,1.11,1.11,0,0,1-1.43-.8,4,4,0,0,1-.12-0.64l-0.54.16-0.11-.36,0.59-.17a2.55,2.55,0,0,0-.09-0.41,1.2,1.2,0,0,0-1-.82l-0.08-.29Z"/><path class="aa" d="M600,342.87a1.5,1.5,0,0,0-.76,0,1.12,1.12,0,0,0-.7.59,1.4,1.4,0,0,0-.07.85l1.61-.53,0.09,0.29-1.65.54,0,0.1a1.66,1.66,0,0,0,.09.24l1.64-.54,0.09,0.29-1.59.52a1.5,1.5,0,0,0,.57.62,1.08,1.08,0,0,0,.86.06,1.4,1.4,0,0,0,.59-0.37l0.24,0.34a1.71,1.71,0,0,1-.7.43,1.57,1.57,0,0,1-1.28-.11,1.86,1.86,0,0,1-.78-0.81l-0.38.12-0.09-.29,0.34-.11c0-.08-0.07-0.16-0.09-0.25l0-.09-0.33.11-0.09-.29,0.35-.12a1.85,1.85,0,0,1,.09-1.12,1.57,1.57,0,0,1,1-.88,1.63,1.63,0,0,1,.92,0Z"/><path class="aa" d="M606.58,339.58l0.2,0.59a1,1,0,0,1,1.22.66,1.16,1.16,0,0,1-.53,1.33,0.86,0.86,0,0,0-.49.88,0.55,0.55,0,0,0,.77.29,1.43,1.43,0,0,0,.65-0.44l0.27,0.33a1.65,1.65,0,0,1-.67.45l0.19,0.55-0.36.12-0.19-.57a1,1,0,0,1-1.16-.63,1.19,1.19,0,0,1,.61-1.31,0.83,0.83,0,0,0,.41-0.89,0.63,0.63,0,0,0-.86-0.33,1.61,1.61,0,0,0-.73.52l-0.26-.34a1.73,1.73,0,0,1,.78-0.54l-0.19-.57Z"/><path class="aa" d="M614.82,337.27l0.35,1,0.88-.31,0.1,0.28-0.88.31,0.15,0.41,0.88-.31,0.1,0.28-0.74.26,1.62,1.36-0.52.18-1-.94a5,5,0,0,1-.41-0.45h0c0,0.19,0,.37,0,0.6l-0.18,1.37-0.53.19,0.35-2.05-0.74.26-0.1-.28,0.88-.31-0.15-.41-0.88.31-0.1-.28,0.88-.31-0.35-1Z"/><path class="aa" d="M623.76,334l0.15,0.41-1.68.63h0a1.26,1.26,0,0,1,.62.46,2.13,2.13,0,0,1,.26.62l0.76-.29L624,336.2l-0.81.3a3.27,3.27,0,0,0,.16.63,0.64,0.64,0,0,0,.88.47,1.12,1.12,0,0,0,.46-0.3l0.25,0.33a1.26,1.26,0,0,1-.56.37,1.11,1.11,0,0,1-1.49-.69,3.93,3.93,0,0,1-.16-0.63l-0.52.2-0.13-.35,0.58-.22a2.39,2.39,0,0,0-.12-0.4,1.2,1.2,0,0,0-1-.75l-0.11-.28Z"/><path class="aa" d="M631.9,331.45a1.5,1.5,0,0,0-.75.08,1.12,1.12,0,0,0-.66.63,1.41,1.41,0,0,0,0,.85l1.58-.62,0.11,0.28-1.62.64,0,0.09a1.62,1.62,0,0,0,.1.23l1.61-.63,0.11,0.28-1.56.61a1.49,1.49,0,0,0,.61.59,1.07,1.07,0,0,0,.86,0,1.37,1.37,0,0,0,.56-0.4l0.26,0.33a1.71,1.71,0,0,1-.68.47,1.57,1.57,0,0,1-1.28,0,1.86,1.86,0,0,1-.83-0.76l-0.37.14-0.11-.28,0.33-.13c0-.08-0.08-0.16-0.11-0.24l0-.08-0.32.13-0.11-.28,0.35-.14a1.85,1.85,0,0,1,0-1.12,1.56,1.56,0,0,1,.94-0.94,1.64,1.64,0,0,1,.92-0.1Z"/><path class="aa" d="M638.25,327.73l0.24,0.58a1,1,0,0,1,1.27.58,1.17,1.17,0,0,1-.44,1.37,0.86,0.86,0,0,0-.43.92,0.55,0.55,0,0,0,.79.24,1.45,1.45,0,0,0,.62-0.48l0.29,0.31a1.63,1.63,0,0,1-.64.49l0.22,0.54-0.35.14-0.23-.55a1,1,0,0,1-1.2-.55,1.19,1.19,0,0,1,.52-1.35,0.83,0.83,0,0,0,.36-0.92,0.63,0.63,0,0,0-.89-0.27,1.61,1.61,0,0,0-.7.57l-0.29-.32a1.72,1.72,0,0,1,.74-0.59l-0.23-.56Z"/><path class="aa" d="M646.3,324.88l0.42,1,0.86-.37,0.12,0.27-0.86.37,0.17,0.4,0.86-.37,0.12,0.27-0.72.31L649,328l-0.51.22-1.08-.87a5.05,5.05,0,0,1-.44-0.42h0c0,0.19,0,.37,0,0.6l-0.08,1.38-0.52.22,0.21-2.07-0.72.31-0.12-.27,0.85-.37-0.17-.4-0.85.37-0.12-.27,0.85-.37-0.42-1Z"/><path class="aa" d="M655,321l0.18,0.4-1.63.74h0a1.24,1.24,0,0,1,.64.42,2.12,2.12,0,0,1,.3.6l0.74-.34,0.16,0.34-0.79.36a3.28,3.28,0,0,0,.2.61,0.64,0.64,0,0,0,.91.41,1.11,1.11,0,0,0,.44-0.33l0.27,0.31a1.27,1.27,0,0,1-.53.41,1.11,1.11,0,0,1-1.53-.59,4,4,0,0,1-.21-0.62l-0.51.23-0.16-.34,0.56-.25a2.43,2.43,0,0,0-.15-0.39,1.2,1.2,0,0,0-1.06-.67l-0.12-.27Z"/><path class="aa" d="M663,317.95a1.47,1.47,0,0,0-.75.13,1.12,1.12,0,0,0-.62.67,1.4,1.4,0,0,0,0,.85l1.54-.72,0.13,0.27-1.57.74,0,0.09a1.77,1.77,0,0,0,.12.22l1.56-.74,0.13,0.27-1.51.71a1.5,1.5,0,0,0,.65.54,1.07,1.07,0,0,0,.86,0,1.42,1.42,0,0,0,.54-0.44l0.28,0.31a1.71,1.71,0,0,1-.64.52,1.57,1.57,0,0,1-1.28.05,1.86,1.86,0,0,1-.88-0.71l-0.36.17-0.13-.27,0.32-.15-0.12-.23,0-.08-0.31.15-0.13-.27,0.34-.16a1.85,1.85,0,0,1,0-1.12,1.56,1.56,0,0,1,.87-1,1.64,1.64,0,0,1,.91-0.16Z"/><path class="aa" d="M669.07,313.79l0.28,0.56a1,1,0,0,1,1.3.5,1.16,1.16,0,0,1-.35,1.39,0.86,0.86,0,0,0-.36.94,0.55,0.55,0,0,0,.8.19,1.45,1.45,0,0,0,.58-0.52l0.31,0.29a1.64,1.64,0,0,1-.61.53l0.26,0.52-0.34.17-0.27-.54a1,1,0,0,1-1.23-.47,1.19,1.19,0,0,1,.43-1.37,0.83,0.83,0,0,0,.29-0.94,0.63,0.63,0,0,0-.9-0.21,1.61,1.61,0,0,0-.66.61l-0.31-.3a1.7,1.7,0,0,1,.7-0.64l-0.27-.54Z"/><path class="aa" d="M676.92,310.42l0.48,0.94,0.83-.43,0.13,0.26-0.83.43,0.2,0.39,0.83-.43,0.13,0.26-0.69.36,1.79,1.13-0.49.25-1.13-.79a4.88,4.88,0,0,1-.47-0.39h0c0,0.19,0,.37,0,0.59v1.38l-0.5.26,0.07-2.08-0.7.36-0.13-.26,0.83-.42-0.2-.39-0.83.42-0.13-.26,0.83-.42-0.48-.94Z"/><path class="aa" d="M685.34,306l0.21,0.39-1.58.85h0a1.25,1.25,0,0,1,.67.38,2.1,2.1,0,0,1,.34.58l0.72-.38,0.18,0.33-0.76.41a3.15,3.15,0,0,0,.25.6,0.64,0.64,0,0,0,.93.35,1.12,1.12,0,0,0,.42-0.36l0.29,0.29a1.26,1.26,0,0,1-.51.44,1.11,1.11,0,0,1-1.57-.49,3.94,3.94,0,0,1-.25-0.6l-0.49.26-0.18-.33,0.54-.29a2.63,2.63,0,0,0-.17-0.38,1.2,1.2,0,0,0-1.1-.6l-0.14-.27Z"/><path class="aa" d="M693.08,302.39a1.48,1.48,0,0,0-.74.18,1.12,1.12,0,0,0-.57.71,1.4,1.4,0,0,0,.09.85l1.49-.82,0.15,0.26-1.52.85,0,0.09a1.54,1.54,0,0,0,.13.21l1.51-.84,0.15,0.26-1.46.81a1.5,1.5,0,0,0,.68.5,1.07,1.07,0,0,0,.86-0.1,1.39,1.39,0,0,0,.51-0.47l0.3,0.29a1.71,1.71,0,0,1-.61.56,1.57,1.57,0,0,1-1.28.14,1.88,1.88,0,0,1-.92-0.65l-0.35.19-0.15-.26,0.31-.17-0.14-.22,0-.08-0.3.17-0.15-.26,0.33-.18a1.84,1.84,0,0,1-.12-1.11,1.56,1.56,0,0,1,.81-1.06A1.63,1.63,0,0,1,693,302Z"/><path class="aa" d="M698.86,297.86l0.31,0.54a1,1,0,0,1,1.33.41,1.16,1.16,0,0,1-.26,1.41,0.86,0.86,0,0,0-.3,1,0.55,0.55,0,0,0,.81.13,1.43,1.43,0,0,0,.55-0.56l0.33,0.27a1.64,1.64,0,0,1-.57.57l0.29,0.5-0.33.19-0.3-.52a1,1,0,0,1-1.26-.38,1.19,1.19,0,0,1,.33-1.4,0.83,0.83,0,0,0,.23-1,0.63,0.63,0,0,0-.91-0.15,1.62,1.62,0,0,0-.61.65l-0.33-.27a1.73,1.73,0,0,1,.66-0.69l-0.3-.52Z"/><path class="aa" d="M706.48,294l0.54,0.91,0.8-.48,0.15,0.25-0.8.48,0.23,0.38,0.8-.48,0.15,0.25-0.67.4,1.86,1-0.47.28-1.19-.72a5,5,0,0,1-.49-0.36h0c0,0.19.05,0.37,0.08,0.59l0.1,1.38-0.48.29L707,296.07l-0.67.41-0.15-.25,0.8-.48-0.23-.38-0.8.48-0.15-.25,0.8-.48-0.54-.91Z"/><path class="aa" d="M714.6,289l0.23,0.37-1.52.95h0a1.25,1.25,0,0,1,.69.33,2.09,2.09,0,0,1,.38.56l0.69-.43,0.2,0.32-0.73.46a3.18,3.18,0,0,0,.28.58,0.64,0.64,0,0,0,1,.29,1.11,1.11,0,0,0,.39-0.39l0.31,0.28a1.26,1.26,0,0,1-.47.47,1.11,1.11,0,0,1-1.6-.38,4.05,4.05,0,0,1-.29-0.58l-0.47.29-0.2-.32,0.52-.33a2.57,2.57,0,0,0-.2-0.37,1.2,1.2,0,0,0-1.13-.53l-0.16-.25Z"/><path class="aa" d="M722.07,284.86a1.5,1.5,0,0,0-.72.23,1.12,1.12,0,0,0-.52.75,1.4,1.4,0,0,0,.15.84l1.42-.92,0.16,0.25-1.46.95,0.06,0.09a1.81,1.81,0,0,0,.15.21l1.45-.94,0.16,0.25-1.4.91a1.49,1.49,0,0,0,.71.45,1.07,1.07,0,0,0,.84-0.16,1.4,1.4,0,0,0,.47-0.51l0.32,0.27a1.71,1.71,0,0,1-.57.6,1.57,1.57,0,0,1-1.26.23,1.86,1.86,0,0,1-1-.58l-0.33.21-0.16-.25,0.3-.19-0.15-.21,0-.07-0.29.18-0.16-.25,0.31-.2a1.85,1.85,0,0,1-.2-1.1,1.56,1.56,0,0,1,.73-1.11,1.64,1.64,0,0,1,.88-0.28Z"/><path class="aa" d="M727.54,280l0.35,0.52a1,1,0,0,1,1.36.32,1.17,1.17,0,0,1-.16,1.43,0.86,0.86,0,0,0-.24,1,0.55,0.55,0,0,0,.82.08,1.45,1.45,0,0,0,.51-0.6l0.34,0.25a1.64,1.64,0,0,1-.53.61l0.33,0.48-0.31.21-0.33-.5a1,1,0,0,1-1.29-.3,1.19,1.19,0,0,1,.24-1.42,0.83,0.83,0,0,0,.17-1,0.63,0.63,0,0,0-.92-0.09,1.61,1.61,0,0,0-.57.69l-0.34-.25a1.74,1.74,0,0,1,.61-0.73l-0.33-.5Z"/><path class="aa" d="M734.88,275.55l0.6,0.87,0.77-.53,0.17,0.24-0.77.53L735.9,277l0.77-.53,0.17,0.24-0.64.45,1.92,0.88-0.45.32-1.23-.64a5,5,0,0,1-.52-0.32h0c0,0.19.08,0.36,0.11,0.59l0.19,1.37-0.46.32-0.2-2.07-0.65.45-0.17-.24,0.76-.53-0.25-.36-0.76.53-0.17-.24,0.76-.53-0.6-.87Z"/><path class="aa" d="M742.66,270l0.26,0.36-1.45,1h0a1.25,1.25,0,0,1,.71.28,2.1,2.1,0,0,1,.41.53l0.66-.48,0.22,0.31-0.7.51a3.28,3.28,0,0,0,.32.56,0.64,0.64,0,0,0,1,.23,1.12,1.12,0,0,0,.37-0.42l0.32,0.26a1.26,1.26,0,0,1-.44.51,1.11,1.11,0,0,1-1.62-.28,4,4,0,0,1-.33-0.56l-0.45.33-0.22-.31,0.5-.36a2.79,2.79,0,0,0-.22-0.36,1.2,1.2,0,0,0-1.17-.45l-0.18-.24Z"/><path class="aa" d="M749.84,265.41a1.5,1.5,0,0,0-.71.28,1.12,1.12,0,0,0-.47.79,1.4,1.4,0,0,0,.21.83l1.36-1,0.18,0.24-1.39,1,0.06,0.08a1.65,1.65,0,0,0,.16.19l1.38-1,0.18,0.24-1.34,1a1.5,1.5,0,0,0,.74.4,1.07,1.07,0,0,0,.83-0.22,1.4,1.4,0,0,0,.44-0.54l0.33,0.25a1.7,1.7,0,0,1-.53.63,1.57,1.57,0,0,1-1.24.31,1.86,1.86,0,0,1-1-.52l-0.32.24-0.18-.24,0.28-.21-0.17-.2-0.05-.07-0.27.21-0.18-.24,0.3-.22a1.85,1.85,0,0,1-.27-1.08,1.56,1.56,0,0,1,.66-1.16,1.65,1.65,0,0,1,.86-0.34Z"/><path class="aa" d="M755,260.15l0.38,0.49a1,1,0,0,1,1.37.23,1.16,1.16,0,0,1-.07,1.43,0.86,0.86,0,0,0-.17,1,0.55,0.55,0,0,0,.82,0,1.44,1.44,0,0,0,.47-0.63l0.36,0.22a1.64,1.64,0,0,1-.49.64L758,264l-0.3.23-0.37-.47a1,1,0,0,1-1.3-.21,1.19,1.19,0,0,1,.14-1.43,0.83,0.83,0,0,0,.1-1,0.63,0.63,0,0,0-.92,0,1.62,1.62,0,0,0-.52.73l-0.36-.23a1.73,1.73,0,0,1,.56-0.77l-0.37-.47Z"/><path class="aa" d="M762,255.29l0.66,0.83,0.73-.58,0.18,0.23-0.73.58,0.27,0.34,0.73-.58,0.18,0.23-0.61.49,2,0.75-0.43.35-1.27-.55a4.85,4.85,0,0,1-.54-0.29h0c0.06,0.19.1,0.36,0.15,0.58l0.29,1.36-0.44.35-0.34-2.05-0.61.49-0.18-.23,0.73-.58-0.27-.34-0.73.58-0.18-.23,0.73-.58-0.66-.82Z"/><path class="aa" d="M769.37,249.24l0.28,0.34-1.37,1.14h0a1.25,1.25,0,0,1,.73.24,2.1,2.1,0,0,1,.45.5l0.63-.52,0.24,0.29-0.66.55a3.24,3.24,0,0,0,.36.54,0.64,0.64,0,0,0,1,.16,1.13,1.13,0,0,0,.34-0.44l0.34,0.23a1.26,1.26,0,0,1-.41.53,1.11,1.11,0,0,1-1.63-.17,4,4,0,0,1-.36-0.54l-0.43.35-0.24-.29,0.48-.39a2.54,2.54,0,0,0-.25-0.34,1.2,1.2,0,0,0-1.19-.37l-0.19-.23Z"/><path class="aa" d="M776.22,244.18a1.47,1.47,0,0,0-.69.33,1.11,1.11,0,0,0-.42.81,1.4,1.4,0,0,0,.26.81l1.29-1.1,0.19,0.23-1.32,1.13,0.07,0.08a1.51,1.51,0,0,0,.17.18l1.31-1.12,0.2,0.23L776,246.84a1.5,1.5,0,0,0,.77.35,1.07,1.07,0,0,0,.82-0.27,1.4,1.4,0,0,0,.4-0.56l0.35,0.22a1.72,1.72,0,0,1-.49.67,1.57,1.57,0,0,1-1.22.39,1.86,1.86,0,0,1-1-.45l-0.3.26-0.2-.23,0.27-.23-0.18-.19-0.06-.07-0.26.22-0.19-.23,0.28-.24a1.86,1.86,0,0,1-.34-1.07,1.56,1.56,0,0,1,.58-1.2,1.64,1.64,0,0,1,.84-0.39Z"/><path class="aa" d="M781,238.57l0.41,0.47a1,1,0,0,1,1.38.14,1.16,1.16,0,0,1,0,1.43,0.86,0.86,0,0,0-.1,1,0.55,0.55,0,0,0,.82,0,1.45,1.45,0,0,0,.43-0.66l0.37,0.2a1.63,1.63,0,0,1-.44.67l0.39,0.44-0.28.25-0.4-.45a1,1,0,0,1-1.31-.13,1.19,1.19,0,0,1,0-1.44,0.82,0.82,0,0,0,0-1,0.63,0.63,0,0,0-.92,0,1.61,1.61,0,0,0-.47.76l-0.37-.21a1.72,1.72,0,0,1,.51-0.8l-0.4-.45Z"/><path class="aa" d="M787.66,233.25l0.71,0.78,0.69-.63,0.2,0.22-0.69.63,0.3,0.32,0.69-.63,0.2,0.22-0.57.53,2,0.62-0.41.37-1.3-.46a5.25,5.25,0,0,1-.55-0.25h0c0.07,0.18.12,0.35,0.19,0.56l0.38,1.33-0.42.38-0.48-2-0.58.53-0.2-.22,0.68-.63-0.3-.32-0.68.63-0.2-.22,0.69-.63-0.71-.78Z"/><path class="aa" d="M794.62,226.74l0.3,0.32-1.3,1.23h0a1.25,1.25,0,0,1,.75.19,2.08,2.08,0,0,1,.48.47l0.59-.56,0.26,0.27-0.63.59a3.34,3.34,0,0,0,.39.51,0.64,0.64,0,0,0,1,.09,1.11,1.11,0,0,0,.31-0.46l0.36,0.21a1.27,1.27,0,0,1-.37.56,1.1,1.1,0,0,1-1.64-.06,4.08,4.08,0,0,1-.4-0.51l-0.4.38-0.26-.27,0.45-.42a2.42,2.42,0,0,0-.27-0.33,1.2,1.2,0,0,0-1.22-.29l-0.21-.22Z"/><path class="aa" d="M801.15,221.21a1.48,1.48,0,0,0-.66.37,1.11,1.11,0,0,0-.36.84,1.39,1.39,0,0,0,.31.79l1.21-1.19,0.21,0.22-1.24,1.22,0.07,0.07a1.76,1.76,0,0,0,.19.17l1.24-1.21,0.21,0.21-1.2,1.17a1.52,1.52,0,0,0,.79.3,1.07,1.07,0,0,0,.8-0.33,1.41,1.41,0,0,0,.36-0.59l0.36,0.2a1.71,1.71,0,0,1-.44.7,1.57,1.57,0,0,1-1.19.47,1.87,1.87,0,0,1-1.06-.38l-0.28.28-0.21-.22,0.25-.25-0.19-.18-0.06-.06-0.24.24-0.21-.21,0.27-.26a1.85,1.85,0,0,1-.41-1,1.56,1.56,0,0,1,.5-1.24,1.63,1.63,0,0,1,.81-0.45Z"/><path class="aa" d="M805.53,215.3l0.44,0.44a1,1,0,0,1,1.39,0,1.16,1.16,0,0,1,.13,1.43,0.86,0.86,0,0,0,0,1,0.55,0.55,0,0,0,.82-0.09,1.44,1.44,0,0,0,.38-0.68l0.39,0.17a1.66,1.66,0,0,1-.4.7l0.41,0.41-0.26.27-0.43-.42a1,1,0,0,1-1.32,0,1.19,1.19,0,0,1,0-1.44,0.82,0.82,0,0,0,0-1,0.63,0.63,0,0,0-.92.1,1.61,1.61,0,0,0-.42.79l-0.39-.18a1.73,1.73,0,0,1,.45-0.83l-0.43-.42Z"/><path class="aa" d="M811.82,209.54l0.76,0.73,0.65-.68,0.21,0.2-0.64.68,0.32,0.3,0.65-.68,0.21,0.2-0.54.56,2.06,0.48-0.38.4-1.33-.37a5.06,5.06,0,0,1-.57-0.21h0c0.08,0.18.15,0.34,0.23,0.55l0.46,1.3-0.39.41-0.62-2-0.54.57-0.21-.2,0.64-.67-0.32-.3-0.64.67-0.21-.2,0.64-.67-0.76-.73Z"/><path class="aa" d="M818.35,202.57l0.32,0.3-1.21,1.31h0a1.25,1.25,0,0,1,.76.14,2.13,2.13,0,0,1,.51.44l0.55-.6,0.28,0.26-0.59.63a3.2,3.2,0,0,0,.43.48,0.64,0.64,0,0,0,1,0,1.12,1.12,0,0,0,.28-0.48l0.37,0.18a1.25,1.25,0,0,1-.33.58,1.11,1.11,0,0,1-1.64.05,4,4,0,0,1-.43-0.49l-0.38.41-0.28-.26,0.42-.45a2.72,2.72,0,0,0-.29-0.31,1.2,1.2,0,0,0-1.23-.21l-0.22-.2Z"/><path class="aa" d="M824.46,196.64a1.49,1.49,0,0,0-.64.42,1.12,1.12,0,0,0-.3.86,1.41,1.41,0,0,0,.37.77l1.13-1.27,0.22,0.2-1.16,1.3,0.08,0.07a1.75,1.75,0,0,0,.2.16l1.15-1.29,0.22,0.2-1.12,1.25a1.5,1.5,0,0,0,.81.25,1.07,1.07,0,0,0,.77-0.38,1.41,1.41,0,0,0,.32-0.61l0.38,0.17a1.72,1.72,0,0,1-.39.73,1.57,1.57,0,0,1-1.16.55,1.85,1.85,0,0,1-1.08-.31L824,200l-0.22-.2,0.24-.26-0.21-.17-0.07-.06-0.23.26-0.22-.2,0.25-.28a1.85,1.85,0,0,1-.48-1,1.56,1.56,0,0,1,.41-1.27,1.62,1.62,0,0,1,.78-0.5Z"/><path class="aa" d="M828.45,190.44l0.47,0.41a1,1,0,0,1,1.39-.05,1.16,1.16,0,0,1,.22,1.42,0.86,0.86,0,0,0,0,1,0.55,0.55,0,0,0,.81-0.14,1.43,1.43,0,0,0,.33-0.71l0.4,0.14a1.64,1.64,0,0,1-.35.73l0.44,0.38-0.25.29-0.46-.39a1,1,0,0,1-1.32.05,1.19,1.19,0,0,1-.15-1.43,0.82,0.82,0,0,0-.1-1,0.63,0.63,0,0,0-.91.16,1.62,1.62,0,0,0-.36.82l-0.4-.15a1.72,1.72,0,0,1,.4-0.86l-0.46-.39Z"/><path class="aa" d="M834.35,184.28l0.81,0.68,0.6-.72,0.23,0.19-0.6.72,0.34,0.28,0.6-.72,0.23,0.19-0.5.6,2.08,0.34-0.35.42-1.35-.29a4.87,4.87,0,0,1-.58-0.17h0c0.09,0.17.17,0.33,0.27,0.53l0.55,1.27-0.36.43-0.75-1.94-0.5.6-0.23-.19,0.6-.71-0.34-.28-0.6.71-0.23-.19,0.6-.71-0.81-.68Z"/><path class="aa" d="M840.37,176.9l0.34,0.28-1.12,1.39h0a1.25,1.25,0,0,1,.76.08,2.08,2.08,0,0,1,.54.4l0.51-.64,0.29,0.24-0.54.67a3.32,3.32,0,0,0,.46.45,0.64,0.64,0,0,0,1,0,1.13,1.13,0,0,0,.25-0.5l0.38,0.16a1.26,1.26,0,0,1-.29.6,1.11,1.11,0,0,1-1.63.17,4.22,4.22,0,0,1-.46-0.46l-0.35.43-0.29-.24,0.39-.48a2.47,2.47,0,0,0-.31-0.29A1.2,1.2,0,0,0,839,179l-0.23-.19Z"/><path class="aa" d="M846.1,170.57a1.49,1.49,0,0,0-.61.46,1.12,1.12,0,0,0-.25.88,1.4,1.4,0,0,0,.42.75l1-1.34,0.24,0.18-1.07,1.37,0.08,0.06,0.21,0.15,1.06-1.36,0.24,0.18-1,1.32a1.53,1.53,0,0,0,.82.19A1.08,1.08,0,0,0,848,173a1.42,1.42,0,0,0,.28-0.63l0.39,0.15a1.73,1.73,0,0,1-.34.75,1.58,1.58,0,0,1-1.12.63,1.87,1.87,0,0,1-1.1-.24l-0.24.31-0.24-.18,0.22-.28-0.22-.15-0.07-.05-0.21.27-0.24-.19,0.23-.29a1.87,1.87,0,0,1-.55-1,1.57,1.57,0,0,1,.33-1.29,1.64,1.64,0,0,1,.74-0.55Z"/><path class="aa" d="M849.66,164.13l0.5,0.38a1,1,0,0,1,1.38-.14,1.17,1.17,0,0,1,.31,1.4,0.85,0.85,0,0,0,.1,1,0.55,0.55,0,0,0,.8-0.19,1.43,1.43,0,0,0,.29-0.73l0.41,0.12a1.64,1.64,0,0,1-.3.75l0.46,0.35-0.23.3L852.9,167a1,1,0,0,1-1.31.14,1.19,1.19,0,0,1-.24-1.42,0.82,0.82,0,0,0-.16-1,0.63,0.63,0,0,0-.9.21,1.62,1.62,0,0,0-.31.84l-0.41-.13a1.71,1.71,0,0,1,.34-0.89l-0.48-.36Z"/><path class="aa" d="M855.14,157.57l0.85,0.62,0.55-.76,0.24,0.17-0.55.76,0.35,0.26,0.55-.76,0.24,0.17-0.46.63,2.1,0.2-0.33.45-1.37-.2a5,5,0,0,1-.59-0.13v0c0.1,0.16.19,0.32,0.3,0.51l0.63,1.23-0.33.46-0.88-1.89L856,160l-0.24-.17,0.55-.75-0.35-.26-0.55.75-0.24-.17,0.55-.75-0.86-.62Z"/><path class="aa" d="M860.67,149.81l0.36,0.25-1,1.46h0a1.26,1.26,0,0,1,.77,0,2.12,2.12,0,0,1,.56.37l0.47-.67,0.31,0.22-0.5.71a3.25,3.25,0,0,0,.49.42,0.64,0.64,0,0,0,1-.1,1.14,1.14,0,0,0,.21-0.51l0.39,0.13a1.27,1.27,0,0,1-.25.62,1.11,1.11,0,0,1-1.62.27,3.86,3.86,0,0,1-.49-0.43l-0.32.46-0.31-.22,0.35-.51a2.57,2.57,0,0,0-.33-0.27,1.2,1.2,0,0,0-1.25,0l-0.25-.17Z"/><path class="aa" d="M866,143.1a1.49,1.49,0,0,0-.58.49,1.12,1.12,0,0,0-.19.9,1.4,1.4,0,0,0,.47.71l1-1.41,0.25,0.17-1,1.44,0.08,0.06a1.64,1.64,0,0,0,.22.13l1-1.43,0.25,0.17-0.94,1.39a1.51,1.51,0,0,0,.83.14,1.08,1.08,0,0,0,.71-0.48,1.41,1.41,0,0,0,.24-0.65l0.4,0.12a1.71,1.71,0,0,1-.29.77,1.57,1.57,0,0,1-1.08.7,1.87,1.87,0,0,1-1.12-.16l-0.22.33-0.25-.17,0.2-.29-0.23-.14-0.07,0-0.19.28-0.25-.17,0.21-.31a1.85,1.85,0,0,1-.61-0.94,1.57,1.57,0,0,1,.24-1.31,1.65,1.65,0,0,1,.71-0.6Z"/><path class="aa" d="M869.08,136.46l0.52,0.34a1,1,0,0,1,1.37-.24,1.17,1.17,0,0,1,.4,1.38,0.86,0.86,0,0,0,.17,1,0.55,0.55,0,0,0,.79-0.25,1.45,1.45,0,0,0,.24-0.75L873,138a1.64,1.64,0,0,1-.25.77l0.49,0.32-0.21.32-0.5-.33a1,1,0,0,1-1.3.22,1.19,1.19,0,0,1-.33-1.4,0.83,0.83,0,0,0-.23-1,0.63,0.63,0,0,0-.88.28,1.62,1.62,0,0,0-.25.86l-0.42-.1a1.72,1.72,0,0,1,.28-0.91l-0.5-.33Z"/><path class="aa" d="M874.12,129.56l0.89,0.56,0.5-.79,0.25,0.16-0.5.79,0.37,0.23,0.5-.79,0.25,0.16-0.42.66,2.11,0.06-0.29.47-1.38-.1a5.22,5.22,0,0,1-.6-0.1h0c0.11,0.16.21,0.3,0.33,0.5l0.71,1.19-0.3.48-1-1.83-0.42.67-0.25-.16,0.5-.79L875,130.7l-0.5.79-0.25-.16,0.5-.79-0.89-.56Z"/><path class="aa" d="M879.13,121.44l0.38,0.23-0.93,1.53h0a1.25,1.25,0,0,1,.77,0,2,2,0,0,1,.59.33l0.42-.7,0.32,0.2-0.45.74a3.26,3.26,0,0,0,.51.39,0.64,0.64,0,0,0,1-.17,1.12,1.12,0,0,0,.18-0.52l0.4,0.11a1.26,1.26,0,0,1-.21.64,1.11,1.11,0,0,1-1.6.38,3.89,3.89,0,0,1-.52-0.39l-0.29.48-0.32-.2,0.32-.53a2.63,2.63,0,0,0-.34-0.24,1.2,1.2,0,0,0-1.25,0l-0.26-.16Z"/><path class="aa" d="M884,114.4a1.5,1.5,0,0,0-.54.53,1.12,1.12,0,0,0-.13.91,1.4,1.4,0,0,0,.51.68l0.86-1.47,0.26,0.15-0.88,1.5,0.09,0.05,0.22,0.12,0.87-1.49,0.26,0.15L884.64,117a1.49,1.49,0,0,0,.84.08,1.07,1.07,0,0,0,.68-0.53,1.4,1.4,0,0,0,.19-0.67l0.4,0.1a1.72,1.72,0,0,1-.24.79,1.57,1.57,0,0,1-1,.77,1.86,1.86,0,0,1-1.12-.09l-0.2.34-0.26-.15,0.18-.31-0.23-.12-0.08,0-0.17.3-0.26-.15,0.19-.32a1.85,1.85,0,0,1-.67-0.9,1.56,1.56,0,0,1,.15-1.32,1.65,1.65,0,0,1,.66-0.65Z"/><path class="aa" d="M886.64,107.56l0.54,0.31a1,1,0,0,1,1.35-.32,1.17,1.17,0,0,1,.49,1.35,0.86,0.86,0,0,0,.23,1,0.55,0.55,0,0,0,.77-0.3,1.44,1.44,0,0,0,.19-0.76l0.42,0.06a1.64,1.64,0,0,1-.2.78l0.51,0.29-0.19.33-0.52-.3a1,1,0,0,1-1.28.31,1.19,1.19,0,0,1-.42-1.38,0.82,0.82,0,0,0-.29-0.94,0.63,0.63,0,0,0-.86.33,1.61,1.61,0,0,0-.2.87l-0.42-.07a1.72,1.72,0,0,1,.22-0.92l-0.52-.3Z"/><path class="aa" d="M891.21,100.34l0.93,0.5,0.45-.82,0.26,0.14-0.45.82,0.38,0.21,0.45-.82,0.26,0.14-0.37.69,2.11-.08-0.26.49h-1.38a4.73,4.73,0,0,1-.61-0.05h0l0.37,0.47,0.79,1.14-0.27.5-1.11-1.76-0.37.69-0.26-.14,0.44-.82-0.38-.21-0.44.82-0.26-.14,0.44-.82-0.93-.5Z"/><path class="aa" d="M895.67,91.91l0.39,0.2-0.82,1.59h0a1.25,1.25,0,0,1,.77-0.07,2.1,2.1,0,0,1,.61.29L897,93.2l0.34,0.17-0.4.77a3.17,3.17,0,0,0,.54.35,0.64,0.64,0,0,0,1-.24,1.1,1.1,0,0,0,.14-0.53l0.4,0.08a1.26,1.26,0,0,1-.17.65,1.11,1.11,0,0,1-1.57.48,4.16,4.16,0,0,1-.54-0.36l-0.26.5-0.33-.17,0.28-.55a2.66,2.66,0,0,0-.36-0.22,1.2,1.2,0,0,0-1.25.12l-0.27-.14Z"/><path class="aa" d="M900,84.58a1.48,1.48,0,0,0-.5.57,1.12,1.12,0,0,0-.07.91,1.4,1.4,0,0,0,.55.65l0.76-1.52L901,85.32l-0.78,1.56,0.09,0,0.23,0.1,0.77-1.54,0.27,0.13-0.75,1.5a1.51,1.51,0,0,0,.85,0,1.08,1.08,0,0,0,.65-0.57,1.41,1.41,0,0,0,.15-0.68L902.92,86a1.7,1.7,0,0,1-.19.8,1.57,1.57,0,0,1-1,.83,1.86,1.86,0,0,1-1.13,0l-0.18.35-0.27-.14,0.16-.32-0.24-.11-0.08,0-0.15.31-0.27-.14,0.17-.33a1.84,1.84,0,0,1-.73-0.85,1.57,1.57,0,0,1,.07-1.33,1.64,1.64,0,0,1,.62-0.69Z"/><path class="aa" d="M902.24,77.56l0.56,0.27a1,1,0,0,1,1.33-.42,1.16,1.16,0,0,1,.58,1.31,0.86,0.86,0,0,0,.3,1,0.55,0.55,0,0,0,.75-0.35,1.45,1.45,0,0,0,.14-0.77l0.42,0a1.65,1.65,0,0,1-.15.79l0.52,0.25-0.16.34L906,79.74a1,1,0,0,1-1.26.39,1.19,1.19,0,0,1-.51-1.34,0.83,0.83,0,0,0-.35-0.92,0.63,0.63,0,0,0-.84.39,1.6,1.6,0,0,0-.14.88l-0.42,0a1.72,1.72,0,0,1,.15-0.94l-0.54-.26Z"/><path class="aa" d="M906.32,70.06l1,0.44,0.39-.85,0.27,0.12-0.39.85,0.4,0.18,0.39-.85,0.27,0.12-0.33.71,2.1-.22-0.23.5-1.38.08a5.2,5.2,0,0,1-.61,0h0c0.13,0.14.25,0.27,0.4,0.45l0.86,1.08-0.23.51-1.23-1.68-0.33.71-0.27-.12,0.39-.85-0.4-.18-0.39.84-0.27-.12,0.39-.84-1-.44Z"/><path class="aa" d="M910.22,61.36l0.4,0.18-0.72,1.64h0a1.24,1.24,0,0,1,.76-0.12,2.1,2.1,0,0,1,.63.25l0.33-.75L912,62.71l-0.35.79a3.34,3.34,0,0,0,.56.32,0.64,0.64,0,0,0,.95-0.3,1.12,1.12,0,0,0,.11-0.54L913.65,63a1.26,1.26,0,0,1-.13.66,1.1,1.1,0,0,1-1.53.58,3.89,3.89,0,0,1-.57-0.32l-0.22.51-0.35-.15,0.25-.56a2.59,2.59,0,0,0-.37-0.2,1.2,1.2,0,0,0-1.24.2l-0.27-.12Z"/><path class="aa" d="M914.08,53.74a1.49,1.49,0,0,0-.47.6,1.12,1.12,0,0,0,0,.92,1.4,1.4,0,0,0,.6.61l0.65-1.57,0.28,0.12L914.47,56l0.09,0,0.24,0.08,0.67-1.6,0.28,0.12L915.1,56.2a1.51,1.51,0,0,0,.85,0,1.07,1.07,0,0,0,.61-0.61,1.4,1.4,0,0,0,.1-0.68l0.41,0a1.72,1.72,0,0,1-.13.82,1.57,1.57,0,0,1-.92.9,1.86,1.86,0,0,1-1.13.06l-0.15.37-0.28-.12,0.14-.33-0.25-.09-0.08,0-0.13.32-0.28-.12,0.14-.34a1.86,1.86,0,0,1-.79-0.8,1.57,1.57,0,0,1,0-1.33,1.64,1.64,0,0,1,.57-0.73Z"/><path class="aa" d="M915.84,46.59l0.58,0.23a1,1,0,0,1,1.3-.5,1.16,1.16,0,0,1,.67,1.27,0.86,0.86,0,0,0,.36.94,0.55,0.55,0,0,0,.72-0.4,1.45,1.45,0,0,0,.08-0.78H920a1.65,1.65,0,0,1-.09.8l0.54,0.21-0.14.35-0.56-.22a1,1,0,0,1-1.23.48,1.19,1.19,0,0,1-.6-1.31,0.83,0.83,0,0,0-.41-0.89,0.63,0.63,0,0,0-.81.45,1.62,1.62,0,0,0-.08.89h-0.43a1.73,1.73,0,0,1,.09-0.95l-0.56-.22Z"/><path class="aa" d="M919.41,38.85l1,0.37,0.33-.87,0.27,0.1-0.33.88,0.41,0.15,0.33-.87,0.27,0.1-0.28.73,2.08-.36-0.2.52-1.37.17a5.06,5.06,0,0,1-.61,0v0l0.43,0.42,0.93,1-0.2.53-1.34-1.59-0.28.74-0.28-.11,0.33-.87-0.41-.16-0.33.87-0.27-.1,0.33-.87-1-.37Z"/><path class="aa" d="M922.71,29.91l0.41,0.15-0.61,1.68h0a1.27,1.27,0,0,1,.75-0.17,2.1,2.1,0,0,1,.64.21L924.2,31l0.36,0.13-0.29.81a3.33,3.33,0,0,0,.58.28,0.64,0.64,0,0,0,.93-0.36,1.13,1.13,0,0,0,.07-0.55l0.41,0a1.27,1.27,0,0,1-.08.67,1.11,1.11,0,0,1-1.49.69,4,4,0,0,1-.59-0.28L923.9,33l-0.36-.13,0.21-.58a2.58,2.58,0,0,0-.38-0.17,1.2,1.2,0,0,0-1.22.29l-0.28-.1Z"/><path class="aa" d="M926.07,22a1.5,1.5,0,0,0-.43.63,1.12,1.12,0,0,0,.06.91,1.4,1.4,0,0,0,.64.57l0.55-1.61,0.28,0.1-0.57,1.65,0.1,0,0.24,0.07,0.56-1.64,0.28,0.1-0.54,1.58a1.51,1.51,0,0,0,.84-0.08,1.08,1.08,0,0,0,.57-0.65,1.4,1.4,0,0,0,.06-0.69h0.41a1.7,1.7,0,0,1-.08.82,1.57,1.57,0,0,1-.86,1,1.85,1.85,0,0,1-1.12.14l-0.13.38-0.28-.1,0.12-.33-0.25-.07-0.09,0-0.11.32L926,25l0.12-.35a1.85,1.85,0,0,1-.84-0.75,1.57,1.57,0,0,1-.11-1.33,1.64,1.64,0,0,1,.52-0.77Z"/><path class="aa" d="M927.34,14.81L927.94,15a1,1,0,0,1,1.26-.58,1.16,1.16,0,0,1,.75,1.22,0.86,0.86,0,0,0,.42.92,0.55,0.55,0,0,0,.69-0.44,1.45,1.45,0,0,0,0-.78l0.42,0a1.65,1.65,0,0,1,0,.81L932,16.3l-0.12.36-0.57-.19a1,1,0,0,1-1.2.56,1.19,1.19,0,0,1-.68-1.26A0.83,0.83,0,0,0,929,14.9a0.63,0.63,0,0,0-.78.5,1.63,1.63,0,0,0,0,.9h-0.43a1.73,1.73,0,0,1,0-.95l-0.57-.19Z"/><path class="aa" d="M930.39,6.83l1,0.31,0.27-.89L932,6.33l-0.27.89,0.42,0.13,0.27-.89,0.28,0.09-0.23.74,2.05-.49-0.16.53L933,7.59a5.34,5.34,0,0,1-.6.07v0l0.45,0.39,1,1-0.17.54-1.44-1.5L932,8.81l-0.28-.09L932,7.83l-0.42-.13-0.27.89L931,8.51l0.27-.89-1-.31Z"/><path class="aa" d="M933.11-2.32l0.42,0.12L933-.48h0a1.25,1.25,0,0,1,.74-0.22,2.07,2.07,0,0,1,.65.16l0.23-.78L935-1.21l-0.24.83a3.3,3.3,0,0,0,.6.24,0.64,0.64,0,0,0,.9-0.42,1.12,1.12,0,0,0,0-.55h0.41a1.25,1.25,0,0,1,0,.67,1.11,1.11,0,0,1-1.45.78,4,4,0,0,1-.6-0.24l-0.15.54-0.36-.11,0.17-.59a2.68,2.68,0,0,0-.4-0.15,1.2,1.2,0,0,0-1.2.37l-0.29-.08Z"/></g></g><g class="ab"><rect class="ac" x="-100" y="-290.21" width="1200" height="2527.25"/></g></g></svg>