<svg xmlns="http://www.w3.org/2000/svg" xmlns:xlink="http://www.w3.org/1999/xlink" viewBox="0 0 1000 2100"><defs><style>.a,.aa,.ab,.ac,.ad,.t,.u,.v,.w,.x,.y,.z{fill:none;}.b{fill:#e1e2e3;}.c{isolation:isolate;}.d{clip-path:url(#a);}.e{clip-path:url(#b);}.f{fill:#fff;}.g{fill:url(#c);}.h{fill:url(#d);}.i{fill:url(#e);}.j,.k,.m,.n,.p,.q,.r{mix-blend-mode:multiply;}.j{fill:url(#f);}.k{fill:url(#g);}.l{fill:url(#h);}.m{fill:url(#i);}.n{fill:url(#j);}.o{fill:url(#k);}.p{fill:url(#l);}.q{fill:url(#m);}.r{fill:url(#n);}.s{fill:url(#o);}.aa,.ab,.ac,.ad,.t,.u,.v,.w,.x,.y,.z{stroke-miterlimit:10;}.t,.y{stroke-width:3px;}.ab,.ac,.ad,.t,.v,.w,.x,.y{stroke-dasharray:1;}.t{stroke:url(#p);}.u{stroke:url(#q);}.ab,.ac,.ad,.v,.w,.x,.z{stroke-width:0.5px;}.v{stroke:url(#r);}.w{stroke:url(#s);}.x{stroke:url(#t);}.y{stroke:url(#v);}.z{stroke:url(#w);}.aa{stroke:url(#x);}.ab{stroke:url(#y);}.ac{stroke:url(#z);}.ad{stroke:url(#aa);}.ae{clip-path:url(#ac);}.af{fill:url(#ad);}</style><clipPath id="a"><polygon class="a" points="1000 2100 1000 0 0 185.33 0 2100 1000 2100"/></clipPath><clipPath id="b"><rect class="a" width="1000" height="2100"/></clipPath><linearGradient id="c" x1="1788.28" y1="-1210.3" x2="1042.39" y2="-1819.77" gradientTransform="matrix(-0.71, 0.71, 0.71, 0.71, 2565.99, 1532.47)" gradientUnits="userSpaceOnUse"><stop offset="0" stop-color="#fff"/><stop offset="0.4" stop-color="#fafafa"/><stop offset="0.88" stop-color="#ebeced"/><stop offset="1" stop-color="#e6e7e8"/></linearGradient><linearGradient id="d" x1="685" y1="275.94" x2="685" y2="70.31" gradientTransform="matrix(1, 0, 0, -1, 136.37, 1050.36)" xlink:href="#c"/><linearGradient id="e" x1="4992.62" y1="-9185.62" x2="4992.62" y2="-9591.97" gradientTransform="matrix(0.71, 0.71, 0.69, -0.69, 2428.99, -8218.69)" xlink:href="#c"/><linearGradient id="f" x1="1831.78" y1="-7905.61" x2="2097.85" y2="-6892.47" gradientTransform="matrix(0.71, 0.71, 0.71, -0.71, 3877.45, -5506.12)" gradientUnits="userSpaceOnUse"><stop offset="0" stop-color="#e6e7e8"/><stop offset="0.02" stop-color="#ebebec"/><stop offset="0.1" stop-color="#f6f7f7"/><stop offset="0.2" stop-color="#fdfdfd"/><stop offset="0.5" stop-color="#fff"/></linearGradient><linearGradient id="g" x1="105.11" y1="895.33" x2="735.91" y2="170.83" gradientTransform="matrix(-0.71, -0.71, -0.71, 0.71, 1663.05, 672.11)" xlink:href="#c"/><linearGradient id="h" x1="937.64" y1="726.87" x2="1147.83" y2="202.59" gradientTransform="matrix(-0.71, -0.71, -0.71, 0.71, 1663.05, 672.11)" gradientUnits="userSpaceOnUse"><stop offset="0" stop-color="#fff"/><stop offset="1" stop-color="#e6e7e8"/></linearGradient><linearGradient id="i" x1="297.49" y1="795.02" x2="824.71" y2="212.95" gradientTransform="matrix(-0.71, -0.71, -0.71, 0.71, 1663.05, 672.11)" xlink:href="#c"/><linearGradient id="j" x1="862.25" y1="990.61" x2="1258.44" y2="553.2" gradientTransform="matrix(-0.71, -0.71, -0.71, 0.71, 1663.05, 672.11)" xlink:href="#c"/><linearGradient id="k" x1="881.5" y1="772.02" x2="1284.6" y2="808.67" gradientTransform="matrix(-0.71, -0.71, -0.71, 0.71, 1663.05, 672.11)" gradientUnits="userSpaceOnUse"><stop offset="0" stop-color="#fff" stop-opacity="0"/><stop offset="0.21" stop-color="#fff" stop-opacity="0.22"/><stop offset="0.76" stop-color="#fff" stop-opacity="0.78"/><stop offset="1" stop-color="#fff"/></linearGradient><linearGradient id="l" x1="963.39" y1="1191.62" x2="415.12" y2="743.62" gradientTransform="matrix(-0.71, -0.71, -0.71, 0.71, 1663.05, 672.11)" xlink:href="#c"/><linearGradient id="m" x1="-2260.77" y1="-2458.7" x2="-2049.35" y2="-1653.67" gradientTransform="translate(3514.61 672.11) rotate(-45)" xlink:href="#f"/><linearGradient id="n" x1="2999.69" y1="-7778.14" x2="3230.89" y2="-6897.78" gradientTransform="translate(3333.22 -6270.15) rotate(180)" xlink:href="#f"/><linearGradient id="o" x1="2120.93" y1="1218.27" x2="2075.68" y2="984.07" gradientTransform="translate(-1145.77 -1078.87) rotate(19.55)" gradientUnits="userSpaceOnUse"><stop offset="0" stop-color="#fff" stop-opacity="0"/><stop offset="0.54" stop-color="#fff" stop-opacity="0.28"/><stop offset="1" stop-color="#fff" stop-opacity="0.5"/></linearGradient><linearGradient id="p" x1="-9444.65" y1="-5799.74" x2="-8466.48" y2="-5799.74" gradientTransform="matrix(1, 0, 0, -1, 10292.73, -3767.03)" gradientUnits="userSpaceOnUse"><stop offset="0" stop-color="#795e34"/><stop offset="0.06" stop-color="#866b3f"/><stop offset="0.25" stop-color="#a78c5c"/><stop offset="0.41" stop-color="#bca16e"/><stop offset="0.51" stop-color="#c3a874"/><stop offset="0.61" stop-color="#bea370"/><stop offset="0.74" stop-color="#af9463"/><stop offset="0.87" stop-color="#977c4e"/><stop offset="1" stop-color="#795e34"/></linearGradient><linearGradient id="q" x1="-9366.57" y1="-5791.58" x2="-8526.34" y2="-5791.58" gradientTransform="matrix(1, 0, 0, -1, 10282.81, -3771.08)" xlink:href="#p"/><linearGradient id="r" x1="-9324.7" y1="-5750.9" x2="-8490.35" y2="-5750.9" gradientTransform="matrix(1, 0, 0, -1, 10235.85, -3786.13)" xlink:href="#p"/><linearGradient id="s" x1="-9673.16" y1="-5737.78" x2="-8418.21" y2="-5737.78" gradientTransform="matrix(1, 0, 0, -1, 10278.51, -3672.32)" xlink:href="#p"/><linearGradient id="t" x1="-9755.6" y1="-5801.12" x2="-8355.85" y2="-5801.12" gradientTransform="matrix(1, 0, 0, -1, 10332.23, -3688.7)" xlink:href="#p"/><linearGradient id="v" x1="-8822.75" y1="-3343.09" x2="-7844.58" y2="-3343.09" gradientTransform="matrix(1, 0, 0, -1, 8119.95, -3314.58)" xlink:href="#p"/><linearGradient id="w" x1="-8598.9" y1="-3487.72" x2="-7733.88" y2="-3487.72" gradientTransform="matrix(1, 0, 0, -1, 8169.68, -3501.75)" xlink:href="#p"/><linearGradient id="x" x1="-8744.66" y1="-3334.93" x2="-7904.44" y2="-3334.93" gradientTransform="matrix(1, 0, 0, -1, 8110.03, -3318.62)" xlink:href="#p"/><linearGradient id="y" x1="-8702.8" y1="-3294.25" x2="-7868.44" y2="-3294.25" gradientTransform="matrix(1, 0, 0, -1, 8063.07, -3333.68)" xlink:href="#p"/><linearGradient id="z" x1="-9051.25" y1="-3281.13" x2="-7796.3" y2="-3281.13" gradientTransform="matrix(1, 0, 0, -1, 8105.73, -3219.87)" xlink:href="#p"/><linearGradient id="aa" x1="-9133.7" y1="-3344.47" x2="-7733.95" y2="-3344.47" gradientTransform="matrix(1, 0, 0, -1, 8159.45, -3236.25)" xlink:href="#p"/><clipPath id="ac"><polygon class="a" points="0 218.45 51.44 167.07 762.65 41.62 807.16 86.08 953.92 7.93 1000 0 1000 2100 0 2100 0 218.45"/></clipPath><pattern id="ad" width="28.8" height="28.8" patternTransform="translate(3.87 41.9) scale(0.6)" patternUnits="userSpaceOnUse" viewBox="0 0 28.8 28.8"><rect class="a" width="28.8" height="28.8"/><circle class="b" cx="28.8" cy="28.8" r="0.72"/><circle class="b" cx="14.4" cy="28.8" r="0.72"/><circle class="b" cx="28.8" cy="14.4" r="0.72"/><circle class="b" cx="14.4" cy="14.4" r="0.72"/><circle class="b" cx="7.2" cy="21.6" r="0.72"/><circle class="b" cx="21.6" cy="21.6" r="0.72"/><circle class="b" cx="7.2" cy="7.2" r="0.72"/><circle class="b" cx="21.6" cy="7.2" r="0.72"/><circle class="b" cy="28.8" r="0.72"/><circle class="b" cy="14.4" r="0.72"/><circle class="b" cx="28.8" r="0.72"/><circle class="b" cx="14.4" r="0.72"/><circle class="b" r="0.72"/></pattern></defs><title>BG</title><g class="c"><g class="d"><g class="e"><polygon class="f" points="1033.6 221.11 -27.51 437.78 -27.51 2115.56 1033.6 2115.56 1033.6 221.11"/><polygon class="g" points="-416.4 1918.33 -79.88 1208.8 1333.6 1707.22 1175.27 1990.56 -416.4 1918.33"/><rect class="h" x="221.06" y="145.39" width="1200.62" height="799.33" transform="translate(1016.75 1511.26) rotate(-135)"/><polygon class="i" points="625.27 1646.11 -9.8 280.26 -1097.41 1367.88 -248.45 2216.84 625.27 1646.11"/><polygon class="j" points="285.19 -132.26 -88.62 1860 216.93 2110 285.19 -132.26"/><polygon class="k" points="477 399.18 992.75 1218.89 1529.71 681.93 1296.71 448.93 477 399.18"/><polygon class="l" points="624.32 730.43 286.41 208.59 671.39 -176.39 985.15 137.37 624.32 730.43"/><polygon class="m" points="1143.29 1589.22 624.32 730.43 985.15 137.37 1158.25 310.47 1143.29 1589.22"/><polygon class="n" points="33.04 1162.47 657.01 680.99 138.1 82.52 33.04 1162.47"/><polygon class="o" points="812.38 420.73 104.98 710.1 -330.14 274.98 -27.91 -27.26 812.38 420.73"/><polygon class="p" points="135.05 408.01 654.02 681.01 293.18 1274.07 120.09 1100.97 135.05 408.01"/><polygon class="q" points="711.27 1775.04 31.77 1095.55 611.38 -145.56 711.27 1775.04"/><polygon class="r" points="610.01 205.5 522.49 1421.11 -438.08 925.17 610.01 205.5"/><polygon class="s" points="-129.74 930.2 -95.88 535.96 1028.47 742.2 -129.74 930.2"/><circle class="t" cx="1336.95" cy="2032.83" r="487.59" transform="translate(-1087.84 1832.21) rotate(-51.94)"/><circle class="u" cx="1336.14" cy="2020.62" r="419.62" transform="translate(-1078.53 1826.89) rotate(-51.94)"/><circle class="v" cx="1328.11" cy="1964.89" r="416.94" transform="translate(-1037.73 1799.2) rotate(-51.94)"/><circle class="w" cx="1232.61" cy="2065.58" r="627.24" transform="translate(-1153.64 1762.62) rotate(-51.94)"/><circle class="x" cx="1276.28" cy="2112.54" r="699.64" transform="translate(-1173.86 1815.01) rotate(-51.94)"/><circle class="x" cx="1276.28" cy="2112.54" r="699.64" transform="translate(-1173.86 1815.01) rotate(-51.94)"/><circle class="y" cx="-213.91" cy="28.58" r="487.59" transform="translate(-104.53 -157.46) rotate(-51.94)"/><circle class="z" cx="3.1" cy="-13.96" r="432.27" transform="translate(12.18 -2.91) rotate(-51.94)"/><circle class="aa" cx="-214.72" cy="16.37" r="419.62" transform="translate(-95.23 -162.78) rotate(-51.94)"/><circle class="ab" cx="-222.75" cy="-39.37" r="416.94" transform="translate(-54.43 -190.48) rotate(-51.94)"/><circle class="ac" cx="-318.25" cy="61.33" r="627.24" transform="matrix(0.62, -0.79, 0.79, 0.62, -170.33, -227.05)"/><circle class="ad" cx="-274.58" cy="108.29" r="699.64" transform="translate(-190.56 -174.66) rotate(-51.94)"/><circle class="ad" cx="-274.58" cy="108.29" r="699.64" transform="translate(-190.56 -174.66) rotate(-51.94)"/></g></g><g class="ae"><rect class="af" x="-105.71" y="-295.71" width="1200" height="2527.25"/></g></g></svg>