<svg xmlns="http://www.w3.org/2000/svg" xmlns:xlink="http://www.w3.org/1999/xlink" viewBox="0 0 1000 2100"><defs><style>.a,.aa,.ab,.ac,.ad,.t,.u,.v,.w,.x,.y,.z{fill:none;}.b{fill:#e1e2e3;}.c{isolation:isolate;}.d{clip-path:url(#a);}.e{clip-path:url(#b);}.f{fill:url(#c);}.g{fill:url(#d);}.h{fill:url(#e);}.i{fill:url(#f);}.j,.k,.m,.n,.p,.q,.r{mix-blend-mode:multiply;}.j{fill:url(#g);}.k{fill:url(#h);}.l{fill:url(#i);}.m{fill:url(#j);}.n{fill:url(#k);}.o{fill:url(#l);}.p{fill:url(#m);}.q{fill:url(#n);}.r{fill:url(#o);}.s{fill:url(#p);}.aa,.ab,.ac,.ad,.t,.u,.v,.w,.x,.y,.z{stroke-miterlimit:10;}.t,.y{stroke-width:3px;}.ab,.ac,.ad,.t,.v,.w,.x,.y{stroke-dasharray:1;}.t{stroke:url(#q);}.u{stroke:url(#r);}.ab,.ac,.ad,.v,.w,.x,.z{stroke-width:0.5px;}.v{stroke:url(#s);}.w{stroke:url(#t);}.x{stroke:url(#u);}.y{stroke:url(#w);}.z{stroke:url(#x);}.aa{stroke:url(#y);}.ab{stroke:url(#z);}.ac{stroke:url(#aa);}.ad{stroke:url(#ab);}.ae{clip-path:url(#ac);}.af{fill:url(#ad);}</style><clipPath id="a"><polygon class="a" points="1000 2100 1000 0 0 176.33 0 2100 1000 2100"/></clipPath><clipPath id="b"><rect class="a" width="1000" height="2100"/></clipPath><linearGradient id="c" x1="269.55" y1="301.59" x2="651.61" y2="1756.36" gradientUnits="userSpaceOnUse"><stop offset="0" stop-color="#e6e7e8"/><stop offset="0.02" stop-color="#ebebec"/><stop offset="0.1" stop-color="#f6f7f7"/><stop offset="0.2" stop-color="#fdfdfd"/><stop offset="0.5" stop-color="#fff"/></linearGradient><linearGradient id="d" x1="5458.55" y1="-1976.8" x2="4197.48" y2="-3007.23" gradientTransform="matrix(-0.99, 0.12, 0.12, 0.99, 6305.05, 3551)" gradientUnits="userSpaceOnUse"><stop offset="0" stop-color="#fff"/><stop offset="0.4" stop-color="#fafafa"/><stop offset="0.88" stop-color="#ebeced"/><stop offset="1" stop-color="#e6e7e8"/></linearGradient><linearGradient id="e" x1="4181.16" y1="1672.98" x2="4181.16" y2="1467.34" gradientTransform="matrix(1, 0, 0, -1, -3308.8, 2417.4)" xlink:href="#d"/><linearGradient id="f" x1="6260.47" y1="-10556.2" x2="6260.47" y2="-10802.43" gradientTransform="matrix(1, 0, 0, -1, -5895.73, -8434.26)" xlink:href="#d"/><linearGradient id="g" x1="2589.33" y1="-9483.06" x2="2832.01" y2="-8559.01" gradientTransform="matrix(0.71, 0.71, 0.71, -0.71, 4479.84, -6960.42)" xlink:href="#c"/><linearGradient id="h" x1="3601.27" y1="2292.36" x2="4232.07" y2="1567.86" gradientTransform="matrix(-0.71, -0.71, -0.71, 0.71, 5174.05, 2126.42)" xlink:href="#d"/><linearGradient id="i" x1="4452.86" y1="2131.54" x2="4663.04" y2="1607.26" gradientTransform="matrix(-0.71, -0.71, -0.71, 0.71, 5174.05, 2126.42)" gradientUnits="userSpaceOnUse"><stop offset="0" stop-color="#fff"/><stop offset="1" stop-color="#e6e7e8"/></linearGradient><linearGradient id="j" x1="3793.65" y1="2192.06" x2="4320.86" y2="1609.99" gradientTransform="matrix(-0.71, -0.71, -0.71, 0.71, 5174.05, 2126.42)" xlink:href="#d"/><linearGradient id="k" x1="4358.41" y1="2387.64" x2="4754.6" y2="1950.23" gradientTransform="matrix(-0.71, -0.71, -0.71, 0.71, 5174.05, 2126.42)" xlink:href="#d"/><linearGradient id="l" x1="4377.66" y1="2169.06" x2="4780.75" y2="2205.7" gradientTransform="matrix(-0.71, -0.71, -0.71, 0.71, 5174.05, 2126.42)" gradientUnits="userSpaceOnUse"><stop offset="0" stop-color="#fff" stop-opacity="0"/><stop offset="0.21" stop-color="#fff" stop-opacity="0.22"/><stop offset="0.76" stop-color="#fff" stop-opacity="0.78"/><stop offset="1" stop-color="#fff"/></linearGradient><linearGradient id="m" x1="4459.55" y1="2588.66" x2="3911.27" y2="2140.66" gradientTransform="matrix(-0.71, -0.71, -0.71, 0.71, 5174.05, 2126.42)" xlink:href="#d"/><linearGradient id="n" x1="-1690.5" y1="-4017.52" x2="-1450.15" y2="-3102.32" gradientTransform="translate(4117 2126.42) rotate(-45)" xlink:href="#c"/><linearGradient id="o" x1="6910.78" y1="-7716.4" x2="7143.48" y2="-6830.34" gradientTransform="translate(7446.62 -6270.15) rotate(180)" xlink:href="#c"/><linearGradient id="p" x1="2277.56" y1="1861.3" x2="2232.32" y2="1627.11" gradientTransform="translate(-1027.15 -1767.24) rotate(19.55)" gradientUnits="userSpaceOnUse"><stop offset="0" stop-color="#fff" stop-opacity="0"/><stop offset="0.54" stop-color="#fff" stop-opacity="0.28"/><stop offset="1" stop-color="#fff" stop-opacity="0.5"/></linearGradient><linearGradient id="q" x1="-8847.45" y1="-4244.91" x2="-7869.28" y2="-4244.91" gradientTransform="matrix(1, 0, 0, -1, 9628.18, -2021.61)" gradientUnits="userSpaceOnUse"><stop offset="0" stop-color="#795e34"/><stop offset="0.06" stop-color="#866b3f"/><stop offset="0.25" stop-color="#a78c5c"/><stop offset="0.41" stop-color="#bca16e"/><stop offset="0.51" stop-color="#c3a874"/><stop offset="0.61" stop-color="#bea370"/><stop offset="0.74" stop-color="#af9463"/><stop offset="0.87" stop-color="#977c4e"/><stop offset="1" stop-color="#795e34"/></linearGradient><linearGradient id="r" x1="-8769.36" y1="-4236.75" x2="-7929.14" y2="-4236.75" gradientTransform="matrix(1, 0, 0, -1, 9618.26, -2025.65)" xlink:href="#q"/><linearGradient id="s" x1="-8727.5" y1="-4196.07" x2="-7893.14" y2="-4196.07" gradientTransform="matrix(1, 0, 0, -1, 9571.29, -2040.7)" xlink:href="#q"/><linearGradient id="t" x1="-9075.95" y1="-4182.95" x2="-7821" y2="-4182.95" gradientTransform="matrix(1, 0, 0, -1, 9613.95, -1926.89)" xlink:href="#q"/><linearGradient id="u" x1="-9158.4" y1="-4246.29" x2="-7758.65" y2="-4246.29" gradientTransform="matrix(1, 0, 0, -1, 9667.67, -1943.27)" xlink:href="#q"/><linearGradient id="w" x1="-2994.93" y1="-1015.65" x2="-2026.57" y2="-1015.65" gradientTransform="translate(-2810.99 -1023.09) rotate(180)" xlink:href="#q"/><linearGradient id="x" x1="-3099.51" y1="-1368.44" x2="-2243.18" y2="-1368.44" gradientTransform="translate(-2601.97 -1492.69) rotate(180)" xlink:href="#q"/><linearGradient id="y" x1="-2917.62" y1="-1007.56" x2="-2085.84" y2="-1007.56" gradientTransform="translate(-2811.08 -1007.03) rotate(180)" xlink:href="#q"/><linearGradient id="z" x1="-2876.18" y1="-967.29" x2="-2050.21" y2="-967.29" gradientTransform="translate(-2817.17 -933.36) rotate(180)" xlink:href="#q"/><linearGradient id="aa" x1="-3221.13" y1="-954.31" x2="-1978.79" y2="-954.31" gradientTransform="translate(-2950.31 -1057.72) rotate(180)" xlink:href="#q"/><linearGradient id="ab" x1="-3302.75" y1="-1017.01" x2="-1917.06" y2="-1017.01" gradientTransform="translate(-2896.81 -1122.72) rotate(180)" xlink:href="#q"/><clipPath id="ac"><polygon class="a" points="0 218.7 51.44 167.26 762.65 41.67 807.16 86.18 953.92 7.94 1000 0 1000 2100 0 2100 0 218.7"/></clipPath><pattern id="ad" width="28.8" height="28.8" patternTransform="translate(-13.77 -27.22) scale(0.6)" patternUnits="userSpaceOnUse" viewBox="0 0 28.8 28.8"><rect class="a" width="28.8" height="28.8"/><circle class="b" cx="28.8" cy="28.8" r="0.72"/><circle class="b" cx="14.4" cy="28.8" r="0.72"/><circle class="b" cx="28.8" cy="14.4" r="0.72"/><circle class="b" cx="14.4" cy="14.4" r="0.72"/><circle class="b" cx="7.2" cy="21.6" r="0.72"/><circle class="b" cx="21.6" cy="21.6" r="0.72"/><circle class="b" cx="7.2" cy="7.2" r="0.72"/><circle class="b" cx="21.6" cy="7.2" r="0.72"/><circle class="b" cy="28.8" r="0.72"/><circle class="b" cy="14.4" r="0.72"/><circle class="b" cx="28.8" r="0.72"/><circle class="b" cx="14.4" r="0.72"/><circle class="b" r="0.72"/></pattern></defs><title>BG</title><g class="c"><g class="d"><g class="e"><polygon class="f" points="1042.3 199 -49.7 447 -49.7 2131 1042.3 2131 1042.3 199"/><polygon class="g" points="400.92 2544.2 475.84 1280.49 1834.94 2182.63 1444.32 2502.17 400.92 2544.2"/><rect class="h" x="272.06" y="115.39" width="1200.62" height="799.33" transform="translate(1125.02 1496.11) rotate(-135)"/><rect class="i" x="-354.09" y="1368.71" width="1437.67" height="957.14" transform="translate(1413.06 283.15) rotate(45)"/><polygon class="j" points="281.38 257.95 -398.11 937.45 39.95 2245.41 281.38 257.95"/><polygon class="k" points="528 369.18 1043.75 1188.89 1580.71 651.93 1347.71 418.93 528 369.18"/><polygon class="l" points="675.32 700.43 266.54 239.86 722.38 -206.39 1036.15 107.38 675.32 700.43"/><polygon class="m" points="1194.28 1559.22 675.32 700.43 1036.15 107.38 1209.25 280.47 1194.28 1559.22"/><polygon class="n" points="84.03 1132.47 708 651 189.09 52.52 84.03 1132.47"/><polygon class="o" points="863.38 390.73 155.98 680.1 -279.15 244.98 23.09 -57.25 863.38 390.73"/><polygon class="p" points="186.05 378.01 705.01 651.01 344.18 1244.07 171.08 1070.97 186.05 378.01"/><polygon class="q" points="756.27 1776.54 76.77 1097.05 505.58 -172.07 756.27 1776.54"/><polygon class="r" points="883.23 117.17 883.23 1078.12 -124.88 1582.28 883.23 117.17"/><polygon class="s" points="-78.74 900.2 -44.89 505.96 1079.47 712.2 -78.74 900.2"/><circle class="t" cx="1269.62" cy="2223.39" r="487.59" transform="translate(-1263.69 1852.27) rotate(-51.94)"/><circle class="u" cx="1268.81" cy="2211.18" r="419.62" transform="translate(-1254.39 1846.95) rotate(-51.94)"/><circle class="v" cx="1260.78" cy="2155.45" r="416.94" transform="translate(-1213.59 1819.26) rotate(-51.94)"/><circle class="w" cx="1165.27" cy="2256.14" r="627.24" transform="translate(-1329.5 1782.68) rotate(-51.94)"/><circle class="x" cx="1208.95" cy="2303.1" r="699.64" transform="translate(-1349.72 1835.07) rotate(-51.94)"/><circle class="x" cx="1208.95" cy="2303.1" r="699.64" transform="translate(-1349.72 1835.07) rotate(-51.94)"/><circle class="y" cx="-300.18" cy="-7.42" r="482.69" transform="translate(-256.55 -304.5) rotate(-83.06)"/><circle class="z" cx="69.44" cy="-124.23" r="427.92" transform="translate(184.37 -40.29) rotate(-83.06)"/><circle class="aa" cx="-309.29" cy="0.56" r="415.4" transform="translate(-272.48 -306.54) rotate(-83.06)"/><circle class="ab" cx="-353.92" cy="33.95" r="412.75" transform="translate(-344.87 -321.48) rotate(-83.06)"/><circle class="ac" cx="-350.29" cy="-103.39" r="620.93" transform="translate(-205.34 -438.62) rotate(-83.06)"/><circle class="ad" cx="-286.85" cy="-105.69" r="692.61" transform="translate(-147.28 -377.67) rotate(-83.06)"/></g></g><g class="ae"><rect class="af" x="-105.71" y="-295.71" width="1200" height="2527.25"/></g></g></svg>