<svg xmlns="http://www.w3.org/2000/svg" xmlns:xlink="http://www.w3.org/1999/xlink" viewBox="0 0 1000 1600"><defs><style>.a,.aa,.ab,.ac,.ad,.ae,.t,.u,.v,.w,.x,.y,.z{fill:none;}.b{fill:#e1e2e3;}.c{isolation:isolate;}.d{clip-path:url(#a);}.e{clip-path:url(#b);}.f{fill:#fff;}.g{fill:url(#c);}.h{fill:url(#d);}.i{fill:url(#e);}.j,.k,.m,.n,.p,.q,.r{mix-blend-mode:multiply;}.j{fill:url(#f);}.k{fill:url(#g);}.l{fill:url(#h);}.m{fill:url(#i);}.n{fill:url(#j);}.o{fill:url(#k);}.p{fill:url(#l);}.q{fill:url(#m);}.r{fill:url(#n);}.s{fill:url(#o);}.aa,.ab,.ac,.ad,.ae,.t,.u,.v,.w,.x,.y,.z{stroke-miterlimit:10;}.t,.y{stroke-width:3px;}.ab,.ac,.ad,.ae,.t,.v,.w,.x,.y{stroke-dasharray:1;}.t{stroke:url(#p);}.u{stroke:url(#q);}.ab,.ac,.ad,.ae,.v,.w,.x,.z{stroke-width:0.5px;}.v{stroke:url(#r);}.w{stroke:url(#s);}.x{stroke:url(#t);}.y{stroke:url(#v);}.z{stroke:url(#w);}.aa{stroke:url(#x);}.ab{stroke:url(#y);}.ac{stroke:url(#z);}.ad{stroke:url(#aa);}.ae{stroke:url(#ab);}.af{clip-path:url(#ac);}.ag{fill:url(#ad);}</style><clipPath id="a"><polygon class="a" points="1000 1600 1000 0 0 185.33 0 1600 1000 1600"/></clipPath><clipPath id="b"><rect class="a" width="1000" height="1767.55"/></clipPath><linearGradient id="c" x1="-5753.98" y1="1642.98" x2="-6376.44" y2="1134.36" gradientTransform="matrix(-0.71, 0.71, 0.71, 0.71, -4456.02, 4441.08)" gradientUnits="userSpaceOnUse"><stop offset="0" stop-color="#fff"/><stop offset="0.4" stop-color="#fafafa"/><stop offset="0.88" stop-color="#ebeced"/><stop offset="1" stop-color="#e6e7e8"/></linearGradient><linearGradient id="d" x1="-6535.71" y1="-2885.11" x2="-6535.71" y2="-3090.74" gradientTransform="matrix(1, 0, 0, -1, 7676.07, -2148.69)" xlink:href="#c"/><linearGradient id="e" x1="3879.41" y1="-5410.56" x2="3879.41" y2="-5616.19" gradientTransform="matrix(1, 0, 0, -1.52, -3547.26, -6830.77)" xlink:href="#c"/><linearGradient id="f" x1="432.07" y1="-4815.62" x2="775.88" y2="-3506.47" gradientTransform="matrix(0.71, 0.71, 0.71, -0.71, 2672.66, -2597.5)" gradientUnits="userSpaceOnUse"><stop offset="0" stop-color="#e6e7e8"/><stop offset="0.02" stop-color="#ebebec"/><stop offset="0.1" stop-color="#f6f7f7"/><stop offset="0.2" stop-color="#fdfdfd"/><stop offset="0.5" stop-color="#fff"/></linearGradient><linearGradient id="g" x1="-7115.6" y1="-2265.72" x2="-6484.8" y2="-2990.22" gradientTransform="matrix(-0.71, -0.71, -0.71, 0.71, -5358.97, -2236.5)" xlink:href="#c"/><linearGradient id="h" x1="-6293.64" y1="-2438.42" x2="-6083.46" y2="-2962.7" gradientTransform="matrix(-0.71, -0.71, -0.71, 0.71, -5358.97, -2236.5)" gradientUnits="userSpaceOnUse"><stop offset="0" stop-color="#fff"/><stop offset="1" stop-color="#e6e7e8"/></linearGradient><linearGradient id="i" x1="-6923.22" y1="-2366.03" x2="-6396" y2="-2948.09" gradientTransform="matrix(-0.71, -0.71, -0.71, 0.71, -5358.97, -2236.5)" xlink:href="#c"/><linearGradient id="j" x1="-6358.46" y1="-2170.44" x2="-5962.27" y2="-2607.85" gradientTransform="matrix(-0.71, -0.71, -0.71, 0.71, -5358.97, -2236.5)" xlink:href="#c"/><linearGradient id="k" x1="-6404.28" y1="-2402.45" x2="-5960.53" y2="-2362.11" gradientTransform="matrix(-0.71, -0.71, -0.71, 0.71, -5358.97, -2236.5)" gradientUnits="userSpaceOnUse"><stop offset="0" stop-color="#fff" stop-opacity="0"/><stop offset="0.21" stop-color="#fff" stop-opacity="0.22"/><stop offset="0.76" stop-color="#fff" stop-opacity="0.78"/><stop offset="1" stop-color="#fff"/></linearGradient><linearGradient id="l" x1="-6257.32" y1="-1969.42" x2="-6805.59" y2="-2417.42" gradientTransform="matrix(-0.71, -0.71, -0.71, 0.71, -5358.97, -2236.5)" xlink:href="#c"/><linearGradient id="m" x1="-3398.79" y1="243.52" x2="-3092.88" y2="1408.32" gradientTransform="translate(2309.82 -2236.5) rotate(-45)" xlink:href="#f"/><linearGradient id="n" x1="-5623.04" y1="-7854.99" x2="-5366.46" y2="-6877.98" gradientTransform="translate(-4893.58 -6270.15) rotate(180)" xlink:href="#f"/><linearGradient id="o" x1="2171.57" y1="-301.04" x2="2126.33" y2="-535.24" gradientTransform="translate(-1383.01 297.87) rotate(19.55)" gradientUnits="userSpaceOnUse"><stop offset="0" stop-color="#fff" stop-opacity="0"/><stop offset="0.54" stop-color="#fff" stop-opacity="0.28"/><stop offset="1" stop-color="#fff" stop-opacity="0.5"/></linearGradient><linearGradient id="p" x1="-10709.76" y1="-8851.08" x2="-9731.59" y2="-8851.08" gradientTransform="matrix(1, 0, 0, -1, 11603.03, -7179.85)" gradientUnits="userSpaceOnUse"><stop offset="0" stop-color="#795e34"/><stop offset="0.06" stop-color="#866b3f"/><stop offset="0.25" stop-color="#a78c5c"/><stop offset="0.41" stop-color="#bca16e"/><stop offset="0.51" stop-color="#c3a874"/><stop offset="0.61" stop-color="#bea370"/><stop offset="0.74" stop-color="#af9463"/><stop offset="0.87" stop-color="#977c4e"/><stop offset="1" stop-color="#795e34"/></linearGradient><linearGradient id="q" x1="-10631.68" y1="-8842.91" x2="-9791.45" y2="-8842.91" gradientTransform="matrix(1, 0, 0, -1, 11593.11, -7183.89)" xlink:href="#p"/><linearGradient id="r" x1="-10589.81" y1="-8802.23" x2="-9755.46" y2="-8802.23" gradientTransform="matrix(1, 0, 0, -1, 11546.14, -7198.94)" xlink:href="#p"/><linearGradient id="s" x1="-10938.27" y1="-8789.12" x2="-9683.32" y2="-8789.12" gradientTransform="matrix(1, 0, 0, -1, 11588.8, -7085.13)" xlink:href="#p"/><linearGradient id="t" x1="-11020.71" y1="-8852.45" x2="-9620.96" y2="-8852.45" gradientTransform="matrix(1, 0, 0, -1, 11642.52, -7101.51)" xlink:href="#p"/><linearGradient id="v" x1="-11280.38" y1="-5747.89" x2="-10453.91" y2="-5747.89" gradientTransform="translate(10617.51 5932.2)" xlink:href="#p"/><linearGradient id="w" x1="-11078.92" y1="-5846.15" x2="-10348.38" y2="-5846.15" gradientTransform="translate(10385 5866.22)" xlink:href="#p"/><linearGradient id="x" x1="-11196.47" y1="-5715.14" x2="-10486.79" y2="-5715.14" gradientTransform="translate(10627.58 5878.07)" xlink:href="#p"/><linearGradient id="y" x1="-11166.65" y1="-5682.77" x2="-10462.01" y2="-5682.77" gradientTransform="translate(10635.71 5822.52)" xlink:href="#p"/><linearGradient id="z" x1="-11431.18" y1="-5668.65" x2="-10371.37" y2="-5668.65" gradientTransform="translate(10726.17 5896.4)" xlink:href="#p"/><linearGradient id="aa" x1="-11052.86" y1="-5583.15" x2="-9870.78" y2="-5583.15" gradientTransform="translate(10424.68 5384.99)" xlink:href="#p"/><linearGradient id="ab" x1="-11541.93" y1="-5753.15" x2="-10359.85" y2="-5753.15" gradientTransform="translate(10685.91 6019.96)" xlink:href="#p"/><clipPath id="ac"><polygon class="a" points="0 218.45 51.44 167.07 762.65 41.62 807.16 86.08 953.92 7.93 1000 0 1000 1600 0 1600 0 218.45"/></clipPath><pattern id="ad" width="28.8" height="28.8" patternTransform="translate(4.59 93.74) scale(0.6)" patternUnits="userSpaceOnUse" viewBox="0 0 28.8 28.8"><rect class="a" width="28.8" height="28.8"/><circle class="b" cx="28.8" cy="28.8" r="0.72"/><circle class="b" cx="14.4" cy="28.8" r="0.72"/><circle class="b" cx="28.8" cy="14.4" r="0.72"/><circle class="b" cx="14.4" cy="14.4" r="0.72"/><circle class="b" cx="7.2" cy="21.6" r="0.72"/><circle class="b" cx="21.6" cy="21.6" r="0.72"/><circle class="b" cx="7.2" cy="7.2" r="0.72"/><circle class="b" cx="21.6" cy="7.2" r="0.72"/><circle class="b" cy="28.8" r="0.72"/><circle class="b" cy="14.4" r="0.72"/><circle class="b" cx="28.8" r="0.72"/><circle class="b" cx="14.4" r="0.72"/><circle class="b" r="0.72"/></pattern></defs><title>bg-partners</title><g class="c"><g class="d"><g class="e"><polygon class="f" points="1016.2 113 -15.8 236.44 -15.8 1619 1016.2 1619 1016.2 113"/><polygon class="g" points="225.62 1532.28 239.12 1170.8 1397.06 1029.81 1284.57 1521.78 225.62 1532.28"/><rect class="h" x="540.06" y="107.39" width="1200.62" height="799.33" transform="translate(1588.19 1671.95) rotate(-135)"/><rect class="i" x="-268.16" y="458.98" width="1200.62" height="1218.62" transform="translate(852.68 78.03) rotate(45)"/><polygon class="j" points="735.64 -403.75 119.04 188.32 -15.8 1711 735.64 -403.75"/><polygon class="k" points="796 361.18 1311.75 1180.89 1848.71 643.93 1615.71 410.93 796 361.18"/><polygon class="l" points="943.32 692.43 648.19 128.47 990.38 -214.39 1304.15 99.38 943.32 692.43"/><polygon class="m" points="1462.28 1551.22 943.32 692.43 1304.15 99.38 1477.25 272.47 1462.28 1551.22"/><polygon class="n" points="352.04 1124.47 976 643 457.1 44.52 352.04 1124.47"/><polygon class="o" points="1202.01 422.11 423.98 672.1 -25.29 225.11 291.08 -65.25 1202.01 422.11"/><polygon class="p" points="454.05 370.01 973.01 643.01 612.18 1236.07 439.08 1062.97 454.05 370.01"/><polygon class="q" points="1078.31 1748.29 -284.87 1056.11 891.43 -115.81 1078.31 1748.29"/><polygon class="r" points="1151.23 109.17 1151.23 1070.12 -37.8 1745 1151.23 109.17"/><polygon class="s" points="189.26 892.2 223.11 497.96 1347.47 704.2 189.26 892.2"/><circle class="t" cx="1382.11" cy="1671.42" r="487.59" transform="translate(-785.96 1729.17) rotate(-51.94)"/><circle class="u" cx="1381.29" cy="1659.21" r="419.62" transform="translate(-776.66 1723.84) rotate(-51.94)"/><circle class="v" cx="1373.26" cy="1603.47" r="416.94" transform="translate(-735.86 1696.15) rotate(-51.94)"/><circle class="w" cx="1277.76" cy="1704.17" r="627.24" transform="translate(-851.77 1659.57) rotate(-51.94)"/><circle class="x" cx="1321.44" cy="1751.13" r="699.64" transform="translate(-871.99 1711.97) rotate(-51.94)"/><circle class="x" cx="1321.44" cy="1751.13" r="699.64" transform="translate(-871.99 1711.97) rotate(-51.94)"/><circle class="y" cx="-249.9" cy="184.19" r="411.74" transform="translate(-402.56 -86.12) rotate(-83.06)"/><circle class="z" cx="-328.91" cy="19.95" r="365.03" transform="translate(-308.97 -308.96) rotate(-83.06)"/><circle class="aa" cx="-214.31" cy="162.82" r="354.35" transform="translate(-350.04 -69.59) rotate(-83.06)"/><circle class="ab" cx="-178.88" cy="139.63" r="352.08" transform="translate(-295.88 -54.81) rotate(-83.06)"/><circle class="ac" cx="-175.36" cy="227.64" r="529.67" transform="translate(-380.15 26.07) rotate(-83.06)"/><circle class="ad" cx="-37.4" cy="-198.27" r="590.8" transform="translate(163.94 -211.44) rotate(-83.06)"/><circle class="ae" cx="-265.24" cy="266.69" r="590.8" transform="translate(-497.94 -28.82) rotate(-83.06)"/></g></g><g class="af"><rect class="ag" x="-105.71" y="-295.71" width="1200" height="2527.25"/></g></g></svg>