<svg xmlns="http://www.w3.org/2000/svg" xmlns:xlink="http://www.w3.org/1999/xlink" viewBox="0 0 1000 1600"><defs><style>.a,.f,.r,.s,.t,.u,.v,.w,.x,.y{fill:none;}.b{fill:#e1e2e3;}.c{isolation:isolate;}.d{clip-path:url(#a);}.e{clip-path:url(#b);}.f,.r,.s,.t,.u,.v,.w,.x,.y{stroke-miterlimit:10;}.f{stroke:url(#c);}.g{fill:url(#d);}.h{fill:url(#e);}.i,.k,.l,.n,.o,.p{mix-blend-mode:multiply;}.i{fill:url(#f);}.j{fill:url(#g);}.k{fill:url(#h);}.l{fill:url(#i);}.m{fill:url(#j);}.n{fill:url(#k);}.o{fill:url(#l);}.p{fill:url(#m);}.q{fill:url(#n);}.r{stroke-width:3px;stroke:url(#o);}.r,.u,.v,.w,.x,.y{stroke-dasharray:1;}.s,.u,.v,.w,.x,.y{stroke-width:0.5px;}.s{stroke:url(#p);}.t{stroke:url(#q);}.u{stroke:url(#r);}.v{stroke:url(#s);}.w{stroke:url(#t);}.x{stroke:url(#v);}.y{stroke:url(#w);}.z{fill:url(#y);}.aa{clip-path:url(#dj);}.ab{fill:url(#dk);}</style><clipPath id="a"><polygon class="a" points="1000 1600 1000 0 0 185.33 0 1600 1000 1600"/></clipPath><clipPath id="b"><rect class="a" width="1000" height="1600"/></clipPath><linearGradient id="c" x1="-25.26" y1="1619.95" x2="1114.4" y2="164.49" gradientUnits="userSpaceOnUse"><stop offset="0" stop-color="#795e34"/><stop offset="0.06" stop-color="#866b3f"/><stop offset="0.25" stop-color="#a78c5c"/><stop offset="0.41" stop-color="#bca16e"/><stop offset="0.51" stop-color="#c3a874"/><stop offset="0.61" stop-color="#bea370"/><stop offset="0.74" stop-color="#af9463"/><stop offset="0.87" stop-color="#977c4e"/><stop offset="1" stop-color="#795e34"/></linearGradient><linearGradient id="d" x1="-2884.55" y1="-1289.94" x2="-2884.55" y2="-1495.57" gradientTransform="translate(3030.7 1568.13)" gradientUnits="userSpaceOnUse"><stop offset="0" stop-color="#fff"/><stop offset="0.4" stop-color="#fafafa"/><stop offset="0.88" stop-color="#ebeced"/><stop offset="1" stop-color="#e6e7e8"/></linearGradient><linearGradient id="e" x1="4753.17" y1="-7228.06" x2="4753.17" y2="-7461.69" gradientTransform="translate(-915.47 -6941.07) rotate(135)" xlink:href="#d"/><linearGradient id="f" x1="1302.15" y1="-5567.28" x2="1538.94" y2="-4665.65" gradientTransform="translate(2116.74 -4060.6) rotate(180)" gradientUnits="userSpaceOnUse"><stop offset="0" stop-color="#e6e7e8"/><stop offset="0.02" stop-color="#ebebec"/><stop offset="0.1" stop-color="#f6f7f7"/><stop offset="0.2" stop-color="#fdfdfd"/><stop offset="0.5" stop-color="#fff"/></linearGradient><linearGradient id="g" x1="-2588.66" y1="-798.12" x2="-2412.2" y2="-1238.28" gradientTransform="translate(2935.77 -782.19) rotate(-45)" gradientUnits="userSpaceOnUse"><stop offset="0" stop-color="#fff"/><stop offset="1" stop-color="#e6e7e8"/></linearGradient><linearGradient id="h" x1="-3272.06" y1="-770.86" x2="-2744.85" y2="-1352.93" gradientTransform="translate(2935.77 -782.19) rotate(-45)" xlink:href="#d"/><linearGradient id="i" x1="-2707.3" y1="-575.28" x2="-2311.11" y2="-1012.68" gradientTransform="translate(2935.77 -782.19) rotate(-45)" xlink:href="#d"/><linearGradient id="j" x1="-2688.05" y1="-793.86" x2="-2284.96" y2="-757.21" gradientTransform="translate(2935.77 -782.19) rotate(-45)" gradientUnits="userSpaceOnUse"><stop offset="0" stop-color="#fff" stop-opacity="0"/><stop offset="0.21" stop-color="#fff" stop-opacity="0.22"/><stop offset="0.76" stop-color="#fff" stop-opacity="0.78"/><stop offset="1" stop-color="#fff"/></linearGradient><linearGradient id="k" x1="-2606.16" y1="-374.26" x2="-3154.44" y2="-822.26" gradientTransform="translate(2935.77 -782.19) rotate(-45)" xlink:href="#d"/><linearGradient id="l" x1="-2814.47" y1="-1083.24" x2="-2574.12" y2="-168.04" gradientTransform="matrix(-0.71, -0.71, -0.71, 0.71, -1824.41, -782.19)" xlink:href="#f"/><linearGradient id="m" x1="-1662.29" y1="-7909.88" x2="-1378.13" y2="-6827.89" gradientTransform="matrix(1, 0, 0, -1, 1867.99, -6270.15)" xlink:href="#f"/><linearGradient id="n" x1="2103.11" y1="454.3" x2="2057.87" y2="220.11" gradientTransform="matrix(-0.94, 0.33, 0.33, 0.94, 2352.2, -390.5)" gradientUnits="userSpaceOnUse"><stop offset="0" stop-color="#fff" stop-opacity="0"/><stop offset="0.54" stop-color="#fff" stop-opacity="0.28"/><stop offset="1" stop-color="#fff" stop-opacity="0.5"/></linearGradient><linearGradient id="o" x1="-10307.94" y1="-7166.24" x2="-9329.77" y2="-7166.24" gradientTransform="matrix(1, 0, 0, -1, 10911.04, -5230.72)" xlink:href="#c"/><linearGradient id="p" x1="-10084.09" y1="-7310.87" x2="-9219.07" y2="-7310.87" gradientTransform="matrix(1, 0, 0, -1, 10960.77, -5417.89)" xlink:href="#c"/><linearGradient id="q" x1="-10229.86" y1="-7158.07" x2="-9389.63" y2="-7158.07" gradientTransform="matrix(1, 0, 0, -1, 10901.12, -5234.77)" xlink:href="#c"/><linearGradient id="r" x1="-10187.99" y1="-7117.39" x2="-9353.64" y2="-7117.39" gradientTransform="matrix(1, 0, 0, -1, 10854.16, -5249.82)" xlink:href="#c"/><linearGradient id="s" x1="-10536.45" y1="-7104.28" x2="-9281.5" y2="-7104.28" gradientTransform="matrix(1, 0, 0, -1, 10896.81, -5136.01)" xlink:href="#c"/><linearGradient id="t" x1="-10618.89" y1="-7167.61" x2="-9219.15" y2="-7167.61" gradientTransform="matrix(1, 0, 0, -1, 10950.53, -5152.39)" xlink:href="#c"/><linearGradient id="v" x1="-5493.77" y1="-1863.99" x2="-4238.82" y2="-1863.99" gradientTransform="matrix(-1, 0, 0, 1, -5253.4, 1773.3)" xlink:href="#c"/><linearGradient id="w" x1="-5576.22" y1="-1927.32" x2="-4176.47" y2="-1927.32" gradientTransform="matrix(-1, 0, 0, 1, -5261.12, 1772.55)" xlink:href="#c"/><linearGradient id="y" x1="-6015.29" y1="257.23" x2="-1066.83" y2="6918.61" gradientTransform="matrix(0.92, 0.39, 0.39, -0.92, -2444.09, 3025.16)" xlink:href="#c"/><clipPath id="dj"><polygon class="a" points="0 218.45 51.44 167.07 762.65 41.62 807.16 86.08 953.92 7.93 1000 0 1000 1600 0 1600 0 218.45"/></clipPath><pattern id="dk" width="28.8" height="28.8" patternTransform="translate(56.07 -9.94) scale(0.6)" patternUnits="userSpaceOnUse" viewBox="0 0 28.8 28.8"><rect class="a" width="28.8" height="28.8"/><circle class="b" cx="28.8" cy="28.8" r="0.72"/><circle class="b" cx="14.4" cy="28.8" r="0.72"/><circle class="b" cx="28.8" cy="14.4" r="0.72"/><circle class="b" cx="14.4" cy="14.4" r="0.72"/><circle class="b" cx="7.2" cy="21.6" r="0.72"/><circle class="b" cx="21.6" cy="21.6" r="0.72"/><circle class="b" cx="7.2" cy="7.2" r="0.72"/><circle class="b" cx="21.6" cy="7.2" r="0.72"/><circle class="b" cy="28.8" r="0.72"/><circle class="b" cy="14.4" r="0.72"/><circle class="b" cx="28.8" r="0.72"/><circle class="b" cx="14.4" r="0.72"/><circle class="b" r="0.72"/></pattern></defs><title>BG</title><g class="c"><g class="d"><g class="e"><polygon class="f" points="-23.77 1620.22 1031.79 1620.22 1031.79 100.78 -12.66 253.56 -23.77 1620.22"/><rect class="g" x="-454.16" y="107.89" width="1200.62" height="799.33" transform="translate(-316.09 252) rotate(-45)"/><polygon class="h" points="-165.43 1520.22 1073.46 789.67 1465.99 1173.11 617.02 2022.07 -165.43 1520.22"/><polygon class="i" points="1306.84 117.8 1306.84 1078.75 3.52 1681.54 1306.84 117.8"/><polygon class="j" points="343.2 692.93 637.98 -211.37 -17.64 99.88 343.2 692.93"/><polygon class="k" points="-175.77 1551.72 343.2 692.93 -17.64 99.88 -190.74 272.97 -175.77 1551.72"/><polygon class="l" points="934.48 1124.97 310.51 643.5 829.42 45.02 934.48 1124.97"/><polygon class="m" points="155.13 383.23 862.53 672.6 1297.66 237.48 995.43 -64.75 155.13 383.23"/><polygon class="n" points="832.46 370.51 313.5 643.51 674.33 1236.57 847.43 1063.47 832.46 370.51"/><polygon class="o" points="256.25 1737.54 935.74 1058.05 506.93 -211.07 256.25 1737.54"/><polygon class="p" points="135.28 109.67 135.28 1070.62 658.74 1712.92 135.28 109.67"/><polygon class="q" points="1097.26 892.7 1063.4 498.46 -60.96 704.7 1097.26 892.7"/><circle class="r" cx="1091.94" cy="1935.66" r="487.59" transform="translate(-1105.29 1602.04) rotate(-51.94)"/><circle class="s" cx="1308.95" cy="1893.13" r="432.27" transform="translate(-988.58 1756.59) rotate(-51.94)"/><circle class="t" cx="1091.13" cy="1923.46" r="419.62" transform="translate(-1095.99 1596.72) rotate(-51.94)"/><circle class="u" cx="1083.1" cy="1867.72" r="416.94" transform="translate(-1055.18 1569.03) rotate(-51.94)"/><circle class="v" cx="987.6" cy="1968.42" r="627.24" transform="translate(-1171.09 1532.45) rotate(-51.94)"/><circle class="w" cx="1031.28" cy="2015.37" r="699.64" transform="matrix(0.62, -0.79, 0.79, 0.62, -1191.31, 1584.84)"/><circle class="w" cx="1031.28" cy="2015.37" r="699.64" transform="matrix(0.62, -0.79, 0.79, 0.62, -1191.31, 1584.84)"/><circle class="x" cx="-386.98" cy="-90.72" r="627.24" transform="translate(8.13 -47.41) rotate(-6.94)"/><circle class="y" cx="-384.66" cy="-154.81" r="699.64" transform="translate(15.88 -47.6) rotate(-6.94)"/><circle class="y" cx="-384.66" cy="-154.81" r="699.64" transform="translate(15.88 -47.6) rotate(-6.94)"/><path class="z" d="M6,323.51l0,0.44-1.78-.13h0a1.26,1.26,0,0,1,.37.68,2.11,2.11,0,0,1,0,.67l0.81,0.06,0,0.38-0.86-.06a3.25,3.25,0,0,0-.12.64A0.64,0.64,0,0,0,5,327a1.09,1.09,0,0,0,.54-0.08l0.09,0.4a1.28,1.28,0,0,1-.66.1,1.11,1.11,0,0,1-1.07-1.25A4.07,4.07,0,0,1,4,325.52l-0.56,0,0-.38,0.62,0a2.56,2.56,0,0,0,.06-0.42,1.2,1.2,0,0,0-.61-1.1l0-.3Z"/><path class="z" d="M14.5,324.62a1.55,1.55,0,0,0-.72-0.24,1.14,1.14,0,0,0-.87.3,1.45,1.45,0,0,0-.38.76l1.69,0.1,0,0.29-1.74-.1s0,0.07,0,.11,0,0.17,0,.25l1.72,0.1,0,0.3-1.67-.1a1.43,1.43,0,0,0,.31.78,1,1,0,0,0,.77.38,1.4,1.4,0,0,0,.68-0.13l0.1,0.4a1.71,1.71,0,0,1-.81.14,1.58,1.58,0,0,1-1.15-.57,1.91,1.91,0,0,1-.43-1l-0.4,0,0-.3,0.35,0c0-.08,0-0.17,0-0.27s0-.06,0-0.09l-0.34,0,0-.29,0.37,0a1.84,1.84,0,0,1,.49-1,1.57,1.57,0,0,1,1.25-.46,1.62,1.62,0,0,1,.88.31Z"/><path class="z" d="M21.83,323.92l0,0.62a1,1,0,0,1,.9,1.06,1.17,1.17,0,0,1-1,1.05,0.84,0.84,0,0,0-.78.65,0.55,0.55,0,0,0,.61.55,1.46,1.46,0,0,0,.77-0.17l0.13,0.4a1.59,1.59,0,0,1-.79.17l0,0.58-0.37,0,0-.61a1,1,0,0,1-.86-1,1.19,1.19,0,0,1,1-1,0.83,0.83,0,0,0,.71-0.68,0.63,0.63,0,0,0-.69-0.62,1.59,1.59,0,0,0-.88.22l-0.12-.41a1.75,1.75,0,0,1,.93-0.22l0-.61Z"/><path class="z" d="M30.33,324.78l0,1,0.94,0v0.3l-0.94,0v0.43l0.94,0v0.3l-0.78,0,1,1.85-0.55,0-0.61-1.25a5,5,0,0,1-.22-0.57h0c-0.08.18-.16,0.34-0.26,0.54l-0.67,1.21-0.56,0,1.07-1.78-0.78,0v-0.3l0.93,0v-0.43l-0.93,0v-0.3l0.93,0,0-1.05Z"/><path class="z" d="M39.84,325v0.44l-1.79,0h0a1.24,1.24,0,0,1,.4.66,2.08,2.08,0,0,1,0,.67l0.82,0v0.38l-0.86,0a3.28,3.28,0,0,0-.09.64,0.64,0.64,0,0,0,.64.76,1.1,1.1,0,0,0,.54-0.11l0.11,0.4a1.27,1.27,0,0,1-.66.13,1.11,1.11,0,0,1-1.12-1.2,4.1,4.1,0,0,1,.08-0.65H37.34v-0.38H38a2.59,2.59,0,0,0,0-.42,1.2,1.2,0,0,0-.66-1.06V325Z"/><path class="z" d="M48.36,325.71a1.56,1.56,0,0,0-.73-0.2,1.14,1.14,0,0,0-.85.34,1.45,1.45,0,0,0-.34.78h1.7v0.29l-1.74,0s0,0.07,0,.11,0,0.17,0,.25h1.73v0.3H46.46a1.42,1.42,0,0,0,.35.76,1,1,0,0,0,.79.34,1.38,1.38,0,0,0,.67-0.16l0.12,0.4a1.72,1.72,0,0,1-.8.18,1.58,1.58,0,0,1-1.18-.51,1.9,1.9,0,0,1-.48-1h-0.4v-0.3h0.35c0-.08,0-0.17,0-0.27v-0.09H45.54v-0.29h0.37a1.85,1.85,0,0,1,.44-1,1.58,1.58,0,0,1,1.22-.52,1.62,1.62,0,0,1,.89.26Z"/><path class="z" d="M55.64,324.65v0.63a1,1,0,0,1,1,1,1.17,1.17,0,0,1-.93,1.1,0.84,0.84,0,0,0-.74.69,0.54,0.54,0,0,0,.64.51,1.47,1.47,0,0,0,.76-0.21l0.15,0.4a1.6,1.6,0,0,1-.78.21v0.58H55.32V329a1,1,0,0,1-.91-1,1.18,1.18,0,0,1,1-1,0.83,0.83,0,0,0,.68-0.72,0.63,0.63,0,0,0-.71-0.59,1.61,1.61,0,0,0-.86.26l-0.14-.4a1.73,1.73,0,0,1,.92-0.27v-0.61h0.38Z"/><path class="z" d="M64.16,325.08l0,1h0.94v0.3l-0.94,0v0.43l0.94,0v0.3H64.35l1.1,1.8H64.9l-0.67-1.21A5,5,0,0,1,64,327.2h0c-0.07.18-.14,0.34-0.23,0.55L63.13,329H62.57l1-1.83H62.77v-0.3l0.93,0v-0.43l-0.93,0v-0.3h0.93l0-1h0.5Z"/><path class="z" d="M73.71,324.86v0.44l-1.79,0h0a1.25,1.25,0,0,1,.43.64,2.08,2.08,0,0,1,0,.67l0.81,0V327l-0.86,0a3.18,3.18,0,0,0-.05.64,0.64,0.64,0,0,0,.68.73,1.07,1.07,0,0,0,.53-0.13l0.13,0.39a1.25,1.25,0,0,1-.65.17,1.11,1.11,0,0,1-1.18-1.14,4,4,0,0,1,0-.65H71.32V326.7l0.62,0a2.46,2.46,0,0,0,0-.42,1.2,1.2,0,0,0-.71-1v-0.3Z"/><path class="z" d="M82.21,325.11a1.55,1.55,0,0,0-.74-0.17,1.14,1.14,0,0,0-.83.38,1.44,1.44,0,0,0-.3.8l1.7-.07v0.29l-1.74.07s0,0.07,0,.11,0,0.17,0,.25l1.73-.07V327l-1.67.07a1.42,1.42,0,0,0,.39.75,1,1,0,0,0,.81.3,1.39,1.39,0,0,0,.66-0.2l0.14,0.39a1.68,1.68,0,0,1-.79.22,1.58,1.58,0,0,1-1.21-.45,1.9,1.9,0,0,1-.53-1l-0.4,0v-0.3h0.35c0-.08,0-0.17,0-0.27v-0.09H79.45v-0.29l0.37,0a1.84,1.84,0,0,1,.39-1,1.57,1.57,0,0,1,1.2-.58,1.63,1.63,0,0,1,.9.21Z"/><path class="z" d="M89.43,323.68l0,0.62a1,1,0,0,1,1,1,1.17,1.17,0,0,1-.87,1.15,0.85,0.85,0,0,0-.71.72,0.55,0.55,0,0,0,.66.48,1.46,1.46,0,0,0,.74-0.24l0.17,0.39a1.6,1.6,0,0,1-.77.25l0,0.58-0.37,0,0-.61a1,1,0,0,1-1-.92A1.19,1.19,0,0,1,89.3,326a0.83,0.83,0,0,0,.64-0.75,0.63,0.63,0,0,0-.74-0.55,1.61,1.61,0,0,0-.85.3l-0.16-.39a1.74,1.74,0,0,1,.9-0.31l0-.61Z"/><path class="z" d="M98,323.68l0.07,1,0.93-.06,0,0.3-0.94.06,0,0.43L99,325.4l0,0.3-0.78.05,1.19,1.74-0.55,0-0.73-1.18a5.23,5.23,0,0,1-.28-0.54h0c-0.06.19-.12,0.35-0.2,0.56l-0.54,1.28-0.56,0,0.89-1.88-0.78.05,0-.3,0.93-.06,0-.43-0.93.06,0-.3,0.93-.06-0.07-1Z"/><path class="z" d="M107.49,323l0,0.44-1.78.14h0a1.25,1.25,0,0,1,.46.61,2.08,2.08,0,0,1,.08.67l0.81-.06,0,0.38-0.86.07a3.15,3.15,0,0,0,0,.65,0.65,0.65,0,0,0,.72.7,1.1,1.1,0,0,0,.52-0.16l0.15,0.39a1.25,1.25,0,0,1-.64.2,1.11,1.11,0,0,1-1.24-1.08,4.11,4.11,0,0,1,0-.65l-0.56,0,0-.38,0.62,0a2.69,2.69,0,0,0,0-.42,1.2,1.2,0,0,0-.76-1l0-.3Z"/><path class="z" d="M116,322.81a1.55,1.55,0,0,0-.75-0.13,1.13,1.13,0,0,0-.81.42,1.43,1.43,0,0,0-.26.81l1.69-.15,0,0.29-1.73.16s0,0.07,0,.11,0,0.17,0,.25l1.72-.16,0,0.3-1.67.15a1.43,1.43,0,0,0,.43.73,1,1,0,0,0,.82.26,1.38,1.38,0,0,0,.65-0.23l0.16,0.38a1.72,1.72,0,0,1-.78.26,1.59,1.59,0,0,1-1.23-.39,1.9,1.9,0,0,1-.58-1l-0.39,0,0-.3,0.35,0c0-.08,0-0.17,0-0.27v-0.09l-0.34,0,0-.29,0.37,0a1.85,1.85,0,0,1,.34-1.07,1.58,1.58,0,0,1,1.16-.64,1.62,1.62,0,0,1,.91.17Z"/><path class="z" d="M123.17,321l0.06,0.62a1,1,0,0,1,1,.92,1.17,1.17,0,0,1-.81,1.19,0.85,0.85,0,0,0-.67.76,0.55,0.55,0,0,0,.69.45,1.45,1.45,0,0,0,.73-0.28l0.19,0.38a1.59,1.59,0,0,1-.75.29l0.06,0.58-0.37,0-0.06-.6a1,1,0,0,1-1-.87,1.19,1.19,0,0,1,.88-1.14,0.83,0.83,0,0,0,.6-0.78,0.63,0.63,0,0,0-.77-0.51,1.59,1.59,0,0,0-.83.35L122,322a1.75,1.75,0,0,1,.89-0.36l-0.06-.6Z"/><path class="z" d="M131.7,320.6l0.12,1,0.93-.11,0,0.3-0.93.11,0.05,0.43,0.93-.11,0,0.3-0.77.09,1.28,1.68-0.55.06L132,323.25a4.84,4.84,0,0,1-.3-0.53h0c-0.05.19-.1,0.36-0.17,0.57l-0.48,1.3-0.56.07,0.79-1.92-0.77.09,0-.3,0.92-.11,0-.43-0.92.11,0-.3,0.92-.11-0.12-1Z"/><path class="z" d="M141.16,319.43l0.06,0.43-1.77.23h0a1.26,1.26,0,0,1,.49.59,2.08,2.08,0,0,1,.11.66l0.81-.1,0,0.37-0.86.11a3.23,3.23,0,0,0,0,.65,0.64,0.64,0,0,0,.75.66,1.11,1.11,0,0,0,.51-0.19l0.17,0.38a1.25,1.25,0,0,1-.63.23,1.11,1.11,0,0,1-1.29-1,4,4,0,0,1,0-.65l-0.55.07,0-.37,0.61-.08a2.55,2.55,0,0,0,0-.42,1.2,1.2,0,0,0-.81-1l0-.3Z"/><path class="z" d="M149.66,318.83a1.56,1.56,0,0,0-.75-0.09,1.14,1.14,0,0,0-.79.46,1.45,1.45,0,0,0-.22.82l1.68-.24,0,0.29-1.72.24v0.11c0,0.08,0,.17,0,0.25l1.71-.24,0,0.3-1.66.23a1.41,1.41,0,0,0,.46.7,1,1,0,0,0,.83.22,1.38,1.38,0,0,0,.64-0.26l0.17,0.38a1.7,1.7,0,0,1-.76.3,1.59,1.59,0,0,1-1.25-.33,1.92,1.92,0,0,1-.63-0.94l-0.39.06,0-.3,0.35,0c0-.08,0-0.17,0-0.27V320.4l-0.34,0,0-.29,0.37-.05a1.84,1.84,0,0,1,.28-1.08,1.57,1.57,0,0,1,1.13-.7,1.61,1.61,0,0,1,.92.13Z"/><path class="z" d="M156.71,316.68l0.1,0.62a1,1,0,0,1,1.09.86,1.17,1.17,0,0,1-.75,1.23,0.84,0.84,0,0,0-.63.79,0.55,0.55,0,0,0,.71.41,1.47,1.47,0,0,0,.72-0.32l0.21,0.37a1.59,1.59,0,0,1-.74.33l0.09,0.58-0.37.06L157,321a1,1,0,0,1-1-.82,1.19,1.19,0,0,1,.82-1.18,0.83,0.83,0,0,0,.56-0.81,0.63,0.63,0,0,0-.8-0.47,1.61,1.61,0,0,0-.81.39l-0.2-.38a1.76,1.76,0,0,1,.87-0.4l-0.09-.6Z"/><path class="z" d="M165.18,315.84l0.18,1,0.92-.15,0,0.29-0.92.16,0.07,0.43,0.92-.16,0,0.29-0.77.13,1.36,1.61-0.54.09-0.84-1.1a5.08,5.08,0,0,1-.33-0.51h0c0,0.19-.08.36-0.14,0.58l-0.41,1.32-0.56.09,0.69-2-0.77.13-0.05-.3,0.92-.15-0.07-.43-0.92.15-0.05-.3,0.92-.15-0.17-1Z"/><path class="z" d="M174.59,314.2l0.08,0.43-1.76.32h0a1.26,1.26,0,0,1,.52.57,2.13,2.13,0,0,1,.14.66l0.8-.14,0.07,0.37-0.85.15a3.28,3.28,0,0,0,0,.65,0.65,0.65,0,0,0,.78.62,1.11,1.11,0,0,0,.51-0.21l0.19,0.37a1.25,1.25,0,0,1-.62.26,1.11,1.11,0,0,1-1.34-.95,4,4,0,0,1,0-.65l-0.55.1-0.07-.37,0.61-.11a2.7,2.7,0,0,0,0-.42,1.2,1.2,0,0,0-.86-0.91l-0.05-.3Z"/><path class="z" d="M183.05,313.17a1.56,1.56,0,0,0-.76-0.06,1.15,1.15,0,0,0-.77.5,1.45,1.45,0,0,0-.17.83l1.67-.32,0.06,0.29-1.71.33,0,0.11c0,0.08,0,.17.06,0.25l1.7-.33,0.06,0.29-1.65.32a1.44,1.44,0,0,0,.5.68,1,1,0,0,0,.84.17,1.37,1.37,0,0,0,.63-0.29l0.19,0.37a1.69,1.69,0,0,1-.75.34,1.58,1.58,0,0,1-1.26-.26,1.89,1.89,0,0,1-.68-0.9l-0.39.08-0.06-.29,0.35-.07c0-.08,0-0.17-0.06-0.26l0-.09-0.34.07-0.06-.29,0.37-.07a1.84,1.84,0,0,1,.23-1.1,1.57,1.57,0,0,1,1.09-.76,1.63,1.63,0,0,1,.92.08Z"/><path class="z" d="M190,310.68l0.13,0.61a1,1,0,0,1,1.13.81,1.17,1.17,0,0,1-.69,1.26,0.84,0.84,0,0,0-.59.82,0.55,0.55,0,0,0,.73.38,1.44,1.44,0,0,0,.7-0.35l0.23,0.36a1.6,1.6,0,0,1-.72.36L191,315.5l-0.36.07-0.12-.59a1,1,0,0,1-1.08-.76,1.18,1.18,0,0,1,.76-1.22,0.82,0.82,0,0,0,.52-0.84,0.63,0.63,0,0,0-.82-0.43,1.6,1.6,0,0,0-.79.43l-0.22-.36a1.74,1.74,0,0,1,.85-0.44l-0.12-.59Z"/><path class="z" d="M198.44,309.41l0.22,1,0.91-.2,0.07,0.29-0.91.2,0.09,0.42,0.91-.2,0.06,0.29-0.76.17,1.44,1.54-0.54.12L199,312a5,5,0,0,1-.35-0.49h0c0,0.19-.07.37-0.12,0.58l-0.34,1.34-0.55.12,0.59-2-0.76.17-0.06-.29,0.91-.2-0.09-.42-0.91.2-0.07-.29,0.91-.2-0.22-1Z"/><path class="z" d="M207.74,307.31l0.1,0.43-1.74.4h0a1.26,1.26,0,0,1,.55.54,2.1,2.1,0,0,1,.18.65l0.8-.18,0.09,0.37-0.84.2a3.18,3.18,0,0,0,.08.64,0.64,0.64,0,0,0,.81.58,1.09,1.09,0,0,0,.49-0.24l0.21,0.36a1.27,1.27,0,0,1-.6.29,1.11,1.11,0,0,1-1.39-.88,4,4,0,0,1-.08-0.65l-0.54.13-0.09-.37,0.6-.14a2.52,2.52,0,0,0-.06-0.42,1.2,1.2,0,0,0-.9-0.87l-0.07-.29Z"/><path class="z" d="M216.13,305.87a1.56,1.56,0,0,0-.76,0,1.14,1.14,0,0,0-.74.54,1.45,1.45,0,0,0-.13.84l1.65-.41,0.07,0.29-1.69.41,0,0.11c0,0.08,0,.17.07,0.24l1.68-.41,0.07,0.29-1.63.4a1.43,1.43,0,0,0,.53.66,1,1,0,0,0,.85.13,1.38,1.38,0,0,0,.61-0.32L217,309a1.71,1.71,0,0,1-.73.38,1.58,1.58,0,0,1-1.27-.2,1.9,1.9,0,0,1-.72-0.87l-0.39.09-0.07-.29,0.34-.08c0-.08-0.05-0.17-0.08-0.26l0-.09-0.33.08-0.07-.29,0.36-.09a1.85,1.85,0,0,1,.17-1.11,1.57,1.57,0,0,1,1.06-.81,1.62,1.62,0,0,1,.93,0v0.39Z"/><path class="z" d="M222.94,303l0.16,0.6a1,1,0,0,1,1.18.75,1.17,1.17,0,0,1-.63,1.3,0.85,0.85,0,0,0-.55.85,0.55,0.55,0,0,0,.75.34,1.47,1.47,0,0,0,.68-0.39l0.24,0.35a1.6,1.6,0,0,1-.7.4l0.15,0.56-0.36.09-0.15-.59a1,1,0,0,1-1.12-.71,1.19,1.19,0,0,1,.7-1.25,0.83,0.83,0,0,0,.48-0.86,0.63,0.63,0,0,0-.84-0.39,1.6,1.6,0,0,0-.77.47l-0.24-.35a1.76,1.76,0,0,1,.82-0.49l-0.15-.59Z"/><path class="z" d="M231.29,301.35l0.27,1,0.9-.25,0.08,0.29-0.9.25,0.11,0.42,0.9-.25,0.08,0.29-0.75.21,1.52,1.47-0.53.14-0.95-1a5,5,0,0,1-.38-0.48h0c0,0.19,0,.37-0.09.59l-0.28,1.36-0.55.15,0.5-2-0.75.21-0.08-.29,0.9-.25-0.11-.42-0.9.24-0.08-.29,0.9-.25-0.27-1Z"/><path class="z" d="M240.49,298.79l0.12,0.42-1.72.49h0a1.25,1.25,0,0,1,.58.51,2.17,2.17,0,0,1,.21.64l0.78-.22,0.1,0.36-0.83.24a3.09,3.09,0,0,0,.11.64,0.65,0.65,0,0,0,.84.54,1.12,1.12,0,0,0,.48-0.26l0.22,0.35a1.25,1.25,0,0,1-.59.32,1.11,1.11,0,0,1-1.43-.81,4,4,0,0,1-.11-0.64l-0.54.15-0.1-.36,0.59-.17a2.5,2.5,0,0,0-.09-0.41,1.2,1.2,0,0,0-.94-0.82l-0.08-.29Z"/><path class="z" d="M248.82,296.92a1.56,1.56,0,0,0-.76,0,1.15,1.15,0,0,0-.71.58,1.45,1.45,0,0,0-.09.85l1.63-.48,0.08,0.28-1.67.5,0,0.1c0,0.08.06,0.17,0.08,0.24l1.66-.49,0.08,0.29-1.61.48a1.42,1.42,0,0,0,.56.63,1,1,0,0,0,.85.09,1.36,1.36,0,0,0,.6-0.35L249.8,300a1.71,1.71,0,0,1-.71.41,1.58,1.58,0,0,1-1.28-.14,1.89,1.89,0,0,1-.76-0.83l-0.38.11-0.09-.29,0.34-.1c0-.08-0.06-0.16-0.09-0.26l0-.09-0.33.1-0.08-.28,0.36-.11a1.85,1.85,0,0,1,.12-1.11,1.57,1.57,0,0,1,1-.86,1.61,1.61,0,0,1,.93,0v0.39Z"/><path class="z" d="M255.47,293.75l0.19,0.59a1,1,0,0,1,1.21.69,1.17,1.17,0,0,1-.56,1.32,0.84,0.84,0,0,0-.51.87,0.55,0.55,0,0,0,.76.3,1.45,1.45,0,0,0,.66-0.42l0.26,0.33a1.61,1.61,0,0,1-.68.43l0.17,0.55-0.35.11-0.18-.58a1,1,0,0,1-1.15-.65,1.19,1.19,0,0,1,.63-1.29,0.83,0.83,0,0,0,.43-0.88,0.63,0.63,0,0,0-.86-0.35,1.59,1.59,0,0,0-.75.5l-0.26-.34a1.75,1.75,0,0,1,.8-0.53l-0.18-.58Z"/><path class="z" d="M263.72,291.66l0.33,1,0.89-.29,0.09,0.29-0.89.29,0.13,0.41,0.89-.29,0.09,0.29-0.74.24L266.1,295l-0.52.17-1-1a4.8,4.8,0,0,1-.4-0.46h0c0,0.19,0,.37-0.06.6l-0.21,1.37-0.54.17,0.39-2-0.74.24-0.09-.29,0.88-.29-0.14-.41-0.88.29-0.09-.28,0.88-.29-0.33-1Z"/><path class="z" d="M272.77,288.64l0.14,0.42-1.69.57h0a1.26,1.26,0,0,1,.6.48,2.11,2.11,0,0,1,.24.63l0.77-.26,0.12,0.36-0.82.28a3.25,3.25,0,0,0,.14.63,0.64,0.64,0,0,0,.87.5,1.08,1.08,0,0,0,.47-0.29l0.24,0.34a1.27,1.27,0,0,1-.57.35,1.11,1.11,0,0,1-1.47-.74,4,4,0,0,1-.15-0.63l-0.53.18-0.12-.36,0.58-.2a2.47,2.47,0,0,0-.11-0.41,1.2,1.2,0,0,0-1-.77l-0.1-.28Z"/><path class="z" d="M281,286.37a1.57,1.57,0,0,0-.76.06,1.15,1.15,0,0,0-.68.61,1.44,1.44,0,0,0,0,.85l1.6-.57,0.1,0.28-1.64.58,0,0.1c0,0.08.06,0.16,0.1,0.23l1.63-.58,0.1,0.28-1.58.56a1.41,1.41,0,0,0,.59.6,1,1,0,0,0,.86,0,1.39,1.39,0,0,0,.58-0.38l0.25,0.33a1.7,1.7,0,0,1-.69.45,1.58,1.58,0,0,1-1.29-.07,1.91,1.91,0,0,1-.8-0.79l-0.37.13-0.1-.28,0.33-.12c0-.08-0.07-0.16-0.1-0.25l0-.08-0.32.11-0.1-.28,0.35-.12a1.87,1.87,0,0,1,.06-1.12,1.57,1.57,0,0,1,1-.91A1.6,1.6,0,0,1,281,286Z"/><path class="z" d="M287.48,282.88l0.21,0.58a1,1,0,0,1,1.24.63,1.17,1.17,0,0,1-.5,1.35,0.84,0.84,0,0,0-.46.9,0.55,0.55,0,0,0,.77.27,1.47,1.47,0,0,0,.64-0.45l0.28,0.32a1.6,1.6,0,0,1-.66.47l0.2,0.55-0.35.13-0.21-.57a1,1,0,0,1-1.18-.59,1.18,1.18,0,0,1,.57-1.31,0.82,0.82,0,0,0,.39-0.9,0.63,0.63,0,0,0-.87-0.31,1.61,1.61,0,0,0-.72.54l-0.27-.33a1.75,1.75,0,0,1,.77-0.56l-0.21-.57Z"/><path class="z" d="M295.64,280.37l0.37,1,0.87-.33L297,281.3l-0.87.33,0.15,0.4,0.87-.33,0.11,0.28-0.73.28,1.65,1.32-0.51.2-1-.91a4.74,4.74,0,0,1-.42-0.44h0c0,0.19,0,.37,0,0.59L296,284.41l-0.53.2,0.29-2.06-0.73.28-0.11-.28,0.87-.33-0.15-.4-0.87.33-0.11-.28,0.87-.33-0.38-1Z"/><path class="z" d="M304.53,276.92l0.16,0.41L303,278h0a1.25,1.25,0,0,1,.62.45,2.07,2.07,0,0,1,.27.62l0.76-.3,0.14,0.35-0.8.32a3.3,3.3,0,0,0,.17.62,0.64,0.64,0,0,0,.89.46,1.07,1.07,0,0,0,.45-0.31l0.26,0.32a1.25,1.25,0,0,1-.55.38,1.11,1.11,0,0,1-1.5-.67,3.9,3.9,0,0,1-.18-0.63l-0.52.21-0.14-.35,0.58-.23a2.59,2.59,0,0,0-.13-0.4,1.2,1.2,0,0,0-1-.73l-0.11-.28Z"/><path class="z" d="M312.63,274.24a1.57,1.57,0,0,0-.75.09,1.15,1.15,0,0,0-.65.64,1.45,1.45,0,0,0,0,.85l1.57-.65,0.11,0.27-1.61.66,0,0.1,0.11,0.23,1.6-.66,0.11,0.28-1.55.64a1.41,1.41,0,0,0,.62.57,1,1,0,0,0,.86,0,1.38,1.38,0,0,0,.56-0.41l0.26,0.32a1.68,1.68,0,0,1-.67.48,1.59,1.59,0,0,1-1.29,0,1.91,1.91,0,0,1-.84-0.75l-0.37.15-0.11-.28,0.33-.13-0.11-.25,0-.08-0.32.13-0.11-.27,0.34-.14a1.85,1.85,0,0,1,0-1.12,1.57,1.57,0,0,1,.92-1,1.62,1.62,0,0,1,.92-0.11Z"/><path class="z" d="M318.93,270.43l0.24,0.57a1,1,0,0,1,1.27.57A1.17,1.17,0,0,1,320,273a0.85,0.85,0,0,0-.42.92,0.55,0.55,0,0,0,.79.23,1.45,1.45,0,0,0,.62-0.48l0.29,0.31a1.6,1.6,0,0,1-.64.5l0.23,0.54-0.34.15-0.24-.56a1,1,0,0,1-1.21-.54,1.19,1.19,0,0,1,.51-1.34,0.83,0.83,0,0,0,.35-0.92,0.63,0.63,0,0,0-.89-0.26,1.61,1.61,0,0,0-.7.58l-0.29-.31a1.74,1.74,0,0,1,.74-0.6l-0.24-.56Z"/><path class="z" d="M327,267.52l0.42,1,0.86-.38,0.12,0.27-0.86.38,0.17,0.39,0.86-.38,0.12,0.28-0.71.31,1.72,1.23-0.51.22-1.09-.86a5.17,5.17,0,0,1-.45-0.41h0c0,0.19,0,.37,0,0.6l-0.07,1.38-0.52.23,0.19-2.07-0.71.32-0.12-.28,0.85-.37-0.17-.4-0.85.38-0.12-.27,0.85-.37-0.42-1Z"/><path class="z" d="M335.67,263.62l0.18,0.4-1.63.74h0a1.26,1.26,0,0,1,.65.42,2.12,2.12,0,0,1,.3.6l0.74-.34,0.16,0.34-0.79.36a3.19,3.19,0,0,0,.2.62,0.64,0.64,0,0,0,.91.41,1.08,1.08,0,0,0,.44-0.33l0.27,0.31a1.26,1.26,0,0,1-.53.41A1.11,1.11,0,0,1,335,267a4.06,4.06,0,0,1-.21-0.62l-0.51.23-0.16-.35,0.56-.25a2.47,2.47,0,0,0-.15-0.4,1.2,1.2,0,0,0-1.06-.67l-0.12-.27Z"/><path class="z" d="M343.63,260.55a1.55,1.55,0,0,0-.75.13,1.14,1.14,0,0,0-.62.67,1.45,1.45,0,0,0,0,.85l1.54-.72,0.12,0.27-1.58.74,0,0.1,0.12,0.22,1.56-.73,0.13,0.27-1.51.71a1.41,1.41,0,0,0,.65.54,1,1,0,0,0,.86,0,1.37,1.37,0,0,0,.54-0.44l0.28,0.31a1.69,1.69,0,0,1-.64.51,1.59,1.59,0,0,1-1.29.05,1.91,1.91,0,0,1-.87-0.71l-0.36.17-0.13-.27,0.32-.15L342,262.8l0-.08-0.31.14-0.13-.27,0.34-.16a1.84,1.84,0,0,1,0-1.12,1.57,1.57,0,0,1,.88-1,1.62,1.62,0,0,1,.92-0.15Z"/><path class="z" d="M349.73,256.44L350,257a1,1,0,0,1,1.3.5,1.17,1.17,0,0,1-.36,1.39,0.85,0.85,0,0,0-.37.94,0.55,0.55,0,0,0,.8.19,1.44,1.44,0,0,0,.59-0.51l0.31,0.29a1.59,1.59,0,0,1-.61.53l0.25,0.52-0.33.16-0.26-.54a1,1,0,0,1-1.23-.47,1.19,1.19,0,0,1,.44-1.36,0.83,0.83,0,0,0,.3-0.94,0.63,0.63,0,0,0-.9-0.22,1.6,1.6,0,0,0-.66.61l-0.3-.3a1.76,1.76,0,0,1,.71-0.64l-0.26-.54Z"/><path class="z" d="M357.62,253.13l0.47,0.94,0.84-.42,0.13,0.27-0.84.42,0.19,0.39,0.84-.42,0.13,0.27-0.7.35,1.77,1.15-0.49.25-1.13-.81a5.36,5.36,0,0,1-.46-0.39h0c0,0.19,0,.37,0,0.6v1.39l-0.5.25,0.09-2.08-0.7.35-0.13-.27,0.83-.42-0.19-.39-0.83.42-0.13-.27,0.83-.42-0.47-.94Z"/><path class="z" d="M366.12,248.8l0.2,0.39-1.59.82h0a1.26,1.26,0,0,1,.66.39,2.11,2.11,0,0,1,.33.59l0.73-.37,0.17,0.34-0.77.4a3.17,3.17,0,0,0,.23.6,0.64,0.64,0,0,0,.93.36,1.08,1.08,0,0,0,.42-0.35l0.29,0.3a1.26,1.26,0,0,1-.51.43,1.11,1.11,0,0,1-1.56-.51,3.9,3.9,0,0,1-.24-0.61l-0.5.26-0.17-.34,0.55-.28a2.56,2.56,0,0,0-.17-0.39,1.2,1.2,0,0,0-1.09-.62l-0.14-.27Z"/><path class="z" d="M373.9,245.35a1.56,1.56,0,0,0-.74.17,1.14,1.14,0,0,0-.58.7,1.44,1.44,0,0,0,.08.85l1.5-.8,0.14,0.26-1.54.82,0.05,0.1,0.13,0.22,1.53-.81,0.14,0.27-1.48.79a1.42,1.42,0,0,0,.68.5,1,1,0,0,0,.85-0.08,1.38,1.38,0,0,0,.51-0.46l0.29,0.29a1.71,1.71,0,0,1-.62.54,1.58,1.58,0,0,1-1.28.12,1.9,1.9,0,0,1-.91-0.66l-0.35.19-0.14-.27,0.31-.17a2.66,2.66,0,0,1-.14-0.23l0-.08-0.3.16-0.14-.26,0.33-.18a1.85,1.85,0,0,1-.1-1.11,1.57,1.57,0,0,1,.82-1,1.62,1.62,0,0,1,.91-0.2Z"/><path class="z" d="M379.79,240.93l0.3,0.55a1,1,0,0,1,1.32.44,1.17,1.17,0,0,1-.29,1.41,0.85,0.85,0,0,0-.32,1,0.55,0.55,0,0,0,.81.15,1.45,1.45,0,0,0,.56-0.54l0.32,0.28a1.59,1.59,0,0,1-.58.56l0.28,0.51-0.33.18-0.29-.53a1,1,0,0,1-1.26-.41,1.18,1.18,0,0,1,.37-1.39,0.82,0.82,0,0,0,.25-1A0.63,0.63,0,0,0,380,242a1.61,1.61,0,0,0-.63.64l-0.32-.28a1.75,1.75,0,0,1,.68-0.67l-0.29-.53Z"/><path class="z" d="M387.51,237.24l0.52,0.91,0.81-.46L389,238l-0.82.46,0.21,0.38,0.81-.46,0.15,0.26-0.68.38L390.5,240l-0.48.27-1.17-.75a4.85,4.85,0,0,1-.48-0.37h0c0,0.19,0,.37.06,0.59l0.06,1.38-0.49.28,0-2.08-0.68.38-0.15-.26,0.81-.46-0.21-.37-0.81.46-0.15-.26,0.81-.46-0.52-.91Z"/><path class="z" d="M395.77,232.51l0.22,0.38-1.55.9h0a1.26,1.26,0,0,1,.68.35,2.1,2.1,0,0,1,.36.57l0.71-.41,0.19,0.33-0.75.43a3.21,3.21,0,0,0,.26.59,0.64,0.64,0,0,0,.95.32,1.11,1.11,0,0,0,.4-0.37l0.3,0.28a1.25,1.25,0,0,1-.49.46,1.11,1.11,0,0,1-1.58-.44,3.88,3.88,0,0,1-.27-0.59l-0.48.28-0.19-.33,0.54-.31a2.63,2.63,0,0,0-.18-0.38,1.2,1.2,0,0,0-1.12-.57l-0.15-.26Z"/><path class="z" d="M403.38,228.67a1.57,1.57,0,0,0-.73.21,1.15,1.15,0,0,0-.55.73,1.44,1.44,0,0,0,.12.84l1.46-.87,0.15,0.25-1.5.89,0.06,0.09,0.14,0.21,1.49-.89,0.15,0.26-1.44.86a1.43,1.43,0,0,0,.7.47,1,1,0,0,0,.85-0.12,1.39,1.39,0,0,0,.49-0.49l0.31,0.28a1.7,1.7,0,0,1-.59.57,1.58,1.58,0,0,1-1.28.18,1.9,1.9,0,0,1-.94-0.62l-0.34.2-0.15-.26,0.3-.18-0.15-.23,0-.08-0.29.17-0.15-.25,0.32-.19a1.85,1.85,0,0,1-.16-1.11,1.57,1.57,0,0,1,.77-1.08,1.62,1.62,0,0,1,.9-0.24Z"/><path class="z" d="M409.06,224l0.33,0.53a1,1,0,0,1,1.34.37,1.17,1.17,0,0,1-.22,1.42,0.85,0.85,0,0,0-.28,1,0.55,0.55,0,0,0,.81.11,1.46,1.46,0,0,0,.54-0.57l0.33,0.26a1.61,1.61,0,0,1-.56.59l0.31,0.5-0.32.2-0.32-.52a1,1,0,0,1-1.28-.35,1.19,1.19,0,0,1,.3-1.4,0.83,0.83,0,0,0,.2-1,0.63,0.63,0,0,0-.92-0.13,1.61,1.61,0,0,0-.6.67l-0.33-.27a1.74,1.74,0,0,1,.65-0.71l-0.32-.52Z"/><path class="z" d="M416.56,219.9l0.56,0.89,0.79-.5,0.16,0.25-0.79.5,0.23,0.37,0.79-.5,0.16,0.25-0.66.42,1.88,1-0.47.29-1.2-.69a4.7,4.7,0,0,1-.5-0.34h0c0,0.19.06,0.37,0.09,0.59l0.13,1.38-0.48.3L417.12,222l-0.66.42-0.16-.25,0.79-.5-0.23-.37-0.79.5-0.16-.25,0.79-.5-0.56-.89Z"/><path class="z" d="M424.59,214.75l0.24,0.37-1.5,1h0a1.25,1.25,0,0,1,.7.32,2.1,2.1,0,0,1,.38.55l0.69-.44,0.21,0.32-0.73.47a3.3,3.3,0,0,0,.29.58,0.64,0.64,0,0,0,1,.27,1.08,1.08,0,0,0,.38-0.39l0.32,0.27a1.24,1.24,0,0,1-.47.48,1.11,1.11,0,0,1-1.6-.36,3.86,3.86,0,0,1-.3-0.58l-0.47.3-0.21-.32,0.52-.34a2.41,2.41,0,0,0-.2-0.37,1.2,1.2,0,0,0-1.14-.51l-0.16-.25Z"/><path class="z" d="M432,210.53a1.55,1.55,0,0,0-.72.24,1.14,1.14,0,0,0-.51.76,1.45,1.45,0,0,0,.16.84l1.42-.94,0.16,0.24-1.45,1,0.06,0.09,0.15,0.2,1.44-1,0.17,0.25-1.4.93a1.42,1.42,0,0,0,.72.44,1,1,0,0,0,.84-0.16,1.37,1.37,0,0,0,.47-0.51l0.32,0.26a1.73,1.73,0,0,1-.56.6A1.58,1.58,0,0,1,432,214a1.9,1.9,0,0,1-1-.57l-0.33.22-0.17-.25,0.29-.2-0.16-.22,0-.08-0.28.19-0.16-.24,0.31-.21a1.86,1.86,0,0,1-.21-1.1,1.57,1.57,0,0,1,.72-1.12,1.61,1.61,0,0,1,.88-0.29Z"/><path class="z" d="M437.43,205.55l0.35,0.51a1,1,0,0,1,1.36.3,1.17,1.17,0,0,1-.15,1.43,0.85,0.85,0,0,0-.23,1,0.55,0.55,0,0,0,.82.06,1.45,1.45,0,0,0,.51-0.6l0.35,0.24a1.62,1.62,0,0,1-.52.61l0.33,0.48-0.31.21-0.34-.5a1,1,0,0,1-1.29-.28,1.18,1.18,0,0,1,.23-1.42,0.82,0.82,0,0,0,.15-1,0.63,0.63,0,0,0-.92-0.08,1.59,1.59,0,0,0-.57.7l-0.35-.25a1.75,1.75,0,0,1,.61-0.74l-0.34-.5Z"/><path class="z" d="M444.73,201.11l0.6,0.86,0.76-.54,0.17,0.25-0.76.54,0.25,0.35,0.76-.54,0.17,0.25-0.64.45,1.92,0.87-0.45.32-1.23-.63a5.12,5.12,0,0,1-.52-0.32h0c0,0.19.08,0.36,0.12,0.58l0.2,1.37-0.46.32-0.22-2.07-0.64.45-0.17-.25,0.76-.54-0.25-.35-0.76.54-0.17-.25,0.76-.53-0.6-.86Z"/><path class="z" d="M452.48,195.58l0.26,0.35-1.45,1h0a1.24,1.24,0,0,1,.72.28,2.09,2.09,0,0,1,.41.53l0.66-.48,0.22,0.31-0.7.51a3.21,3.21,0,0,0,.32.56,0.64,0.64,0,0,0,1,.22,1.07,1.07,0,0,0,.36-0.41l0.33,0.25a1.26,1.26,0,0,1-.44.5,1.11,1.11,0,0,1-1.62-.27,4,4,0,0,1-.33-0.56l-0.45.33-0.22-.31,0.5-.36a2.5,2.5,0,0,0-.22-0.36,1.2,1.2,0,0,0-1.17-.45l-0.18-.24Z"/><path class="z" d="M459.7,191a1.56,1.56,0,0,0-.71.28,1.14,1.14,0,0,0-.47.78,1.44,1.44,0,0,0,.2.83l1.36-1,0.17,0.24-1.4,1,0.06,0.09,0.16,0.2,1.39-1,0.18,0.24-1.35,1a1.43,1.43,0,0,0,.74.4,1,1,0,0,0,.83-0.21,1.38,1.38,0,0,0,.44-0.54l0.33,0.25a1.7,1.7,0,0,1-.53.63,1.59,1.59,0,0,1-1.25.31,1.91,1.91,0,0,1-1-.52l-0.32.24-0.18-.24,0.28-.21-0.17-.21-0.05-.07-0.27.2-0.17-.24,0.3-.22a1.84,1.84,0,0,1-.27-1.09,1.56,1.56,0,0,1,.66-1.15,1.61,1.61,0,0,1,.87-0.33Z"/><path class="z" d="M464.86,185.75l0.38,0.5a1,1,0,0,1,1.37.24,1.17,1.17,0,0,1-.08,1.44,0.84,0.84,0,0,0-.18,1,0.55,0.55,0,0,0,.82,0,1.45,1.45,0,0,0,.48-0.62l0.36,0.23a1.6,1.6,0,0,1-.5.64l0.35,0.46-0.3.22-0.37-.48a1,1,0,0,1-1.31-.22,1.18,1.18,0,0,1,.16-1.43,0.83,0.83,0,0,0,.11-1,0.63,0.63,0,0,0-.93,0,1.62,1.62,0,0,0-.53.73l-0.36-.23a1.75,1.75,0,0,1,.57-0.77l-0.37-.48Z"/><path class="z" d="M471.92,181l0.65,0.83,0.74-.58,0.18,0.24-0.74.58,0.27,0.34,0.74-.58,0.19,0.24-0.62.48,2,0.77-0.44.34-1.26-.56a5,5,0,0,1-.53-0.29h0c0.05,0.19.1,0.36,0.15,0.58l0.27,1.36L473,185,472.69,183l-0.61.48-0.18-.24,0.73-.57-0.27-.34-0.73.57-0.19-.24,0.73-.57-0.65-.83Z"/><path class="z" d="M479.4,175l0.27,0.34-1.39,1.12h0a1.25,1.25,0,0,1,.73.25,2.12,2.12,0,0,1,.44.51l0.64-.51,0.24,0.29-0.67.54a3.27,3.27,0,0,0,.35.55,0.64,0.64,0,0,0,1,.17,1.1,1.1,0,0,0,.34-0.43l0.34,0.23a1.26,1.26,0,0,1-.42.52,1.11,1.11,0,0,1-1.63-.19,3.91,3.91,0,0,1-.35-0.55l-0.44.35-0.24-.3,0.48-.38a2.51,2.51,0,0,0-.24-0.35,1.2,1.2,0,0,0-1.19-.39l-0.19-.23Z"/><path class="z" d="M486.35,170.11a1.55,1.55,0,0,0-.69.31,1.14,1.14,0,0,0-.43.81,1.44,1.44,0,0,0,.24.82l1.31-1.08L487,171.2l-1.35,1.11,0.07,0.08,0.17,0.19,1.34-1.1,0.19,0.23-1.3,1.06a1.42,1.42,0,0,0,.76.36,1,1,0,0,0,.82-0.25,1.39,1.39,0,0,0,.41-0.56l0.34,0.23a1.72,1.72,0,0,1-.5.66,1.59,1.59,0,0,1-1.24.37,1.91,1.91,0,0,1-1-.47l-0.31.25-0.19-.23,0.27-.22-0.18-.2-0.06-.07-0.26.22-0.19-.23,0.29-.24a1.85,1.85,0,0,1-.32-1.07,1.57,1.57,0,0,1,.6-1.19,1.62,1.62,0,0,1,.85-0.37Z"/><path class="z" d="M491.26,164.61l0.4,0.48a1,1,0,0,1,1.38.17,1.17,1.17,0,0,1,0,1.44,0.85,0.85,0,0,0-.13,1,0.55,0.55,0,0,0,.82,0,1.45,1.45,0,0,0,.45-0.64l0.37,0.21a1.6,1.6,0,0,1-.46.66l0.38,0.44-0.28.24-0.39-.46a1,1,0,0,1-1.31-.15,1.19,1.19,0,0,1,.09-1.43,0.82,0.82,0,0,0,.06-1,0.63,0.63,0,0,0-.92,0,1.59,1.59,0,0,0-.49.75l-0.37-.21a1.75,1.75,0,0,1,.53-0.79l-0.39-.46Z"/><path class="z" d="M498.07,159.48l0.69,0.8,0.71-.61,0.2,0.23-0.71.61,0.28,0.33,0.71-.61,0.2,0.23-0.59.51,2,0.67-0.42.36-1.29-.5a5.12,5.12,0,0,1-.55-0.27h0c0.06,0.18.11,0.35,0.17,0.57l0.34,1.34-0.43.37-0.43-2-0.59.51-0.2-.23,0.7-.61-0.28-.33-0.7.61-0.2-.23,0.7-.61-0.69-.79Z"/><path class="z" d="M505.25,153.2l0.29,0.33-1.34,1.18h0a1.25,1.25,0,0,1,.74.21,2.1,2.1,0,0,1,.46.49l0.61-.54,0.25,0.28-0.65.57a3.31,3.31,0,0,0,.37.53,0.64,0.64,0,0,0,1,.13,1.07,1.07,0,0,0,.32-0.44l0.35,0.22a1.27,1.27,0,0,1-.39.55,1.11,1.11,0,0,1-1.64-.11,4,4,0,0,1-.38-0.53l-0.42.37-0.25-.28,0.46-.41a2.63,2.63,0,0,0-.26-0.33,1.2,1.2,0,0,0-1.21-.33l-0.2-.22Z"/><path class="z" d="M512,147.91a1.55,1.55,0,0,0-.67.34,1.15,1.15,0,0,0-.39.83,1.43,1.43,0,0,0,.29.8l1.25-1.14,0.2,0.22-1.29,1.17,0.07,0.08,0.18,0.18,1.28-1.16,0.2,0.22-1.24,1.12a1.41,1.41,0,0,0,.78.32,1,1,0,0,0,.81-0.29,1.38,1.38,0,0,0,.38-0.57l0.35,0.21a1.69,1.69,0,0,1-.46.68,1.58,1.58,0,0,1-1.21.43,1.91,1.91,0,0,1-1-.42l-0.29.27-0.2-.22,0.26-.24-0.19-.19-0.06-.07-0.25.23-0.2-.22,0.28-.25a1.86,1.86,0,0,1-.37-1.05,1.57,1.57,0,0,1,.54-1.21,1.62,1.62,0,0,1,.83-0.41Z"/><path class="z" d="M516.56,142.19l0.42,0.46a1,1,0,0,1,1.39.1,1.17,1.17,0,0,1,.07,1.44,0.85,0.85,0,0,0-.08,1,0.55,0.55,0,0,0,.82-0.05,1.45,1.45,0,0,0,.42-0.66l0.38,0.19a1.6,1.6,0,0,1-.43.68l0.4,0.43-0.27.25-0.41-.44a1,1,0,0,1-1.32-.09,1.18,1.18,0,0,1,0-1.43,0.83,0.83,0,0,0,0-1,0.63,0.63,0,0,0-.92.05,1.61,1.61,0,0,0-.46.78l-0.38-.2a1.75,1.75,0,0,1,.49-0.82l-0.41-.44Z"/><path class="z" d="M523.11,136.72l0.72,0.76,0.68-.65,0.21,0.22-0.68.65,0.3,0.31,0.68-.64,0.21,0.22-0.56.54,2,0.57-0.4.38-1.31-.44a5,5,0,0,1-.56-0.24h0c0.07,0.18.13,0.35,0.2,0.56l0.4,1.32-0.41.39-0.53-2-0.56.54L523.3,139l0.67-.64-0.3-.31-0.67.64-0.21-.22,0.67-.64-0.72-.76Z"/><path class="z" d="M530,130.08l0.3,0.31L529,131.65h0a1.25,1.25,0,0,1,.75.17,2.08,2.08,0,0,1,.49.46l0.58-.57,0.26,0.27-0.62.6a3.17,3.17,0,0,0,.4.51,0.64,0.64,0,0,0,1,.07,1.09,1.09,0,0,0,.3-0.46l0.36,0.2a1.24,1.24,0,0,1-.36.56,1.11,1.11,0,0,1-1.64,0,4,4,0,0,1-.41-0.51l-0.4.39-0.26-.27,0.44-.43a2.57,2.57,0,0,0-.27-0.32,1.2,1.2,0,0,0-1.22-.27l-0.21-.21Z"/><path class="z" d="M536.39,124.47a1.54,1.54,0,0,0-.66.38,1.15,1.15,0,0,0-.35.84,1.46,1.46,0,0,0,.33.79l1.2-1.2,0.21,0.21-1.23,1.23,0.08,0.08,0.19,0.17,1.22-1.22,0.21,0.21-1.18,1.19a1.41,1.41,0,0,0,.79.28,1,1,0,0,0,.79-0.33,1.37,1.37,0,0,0,.36-0.59l0.37,0.19a1.71,1.71,0,0,1-.43.7,1.58,1.58,0,0,1-1.19.49,1.9,1.9,0,0,1-1.07-.37l-0.28.28-0.21-.21,0.25-.25-0.2-.18-0.06-.06-0.24.24-0.21-.21,0.26-.26a1.86,1.86,0,0,1-.43-1,1.58,1.58,0,0,1,.48-1.24,1.63,1.63,0,0,1,.81-0.46Z"/><path class="z" d="M540.73,118.5l0.45,0.43a1,1,0,0,1,1.39,0,1.17,1.17,0,0,1,.14,1.43,0.84,0.84,0,0,0,0,1,0.55,0.55,0,0,0,.81-0.1,1.45,1.45,0,0,0,.38-0.68l0.39,0.17a1.6,1.6,0,0,1-.39.71l0.42,0.41-0.26.27-0.44-.42a1,1,0,0,1-1.33,0,1.19,1.19,0,0,1-.05-1.43,0.82,0.82,0,0,0,0-1,0.63,0.63,0,0,0-.92.1,1.59,1.59,0,0,0-.42.8l-0.39-.18a1.73,1.73,0,0,1,.45-0.84l-0.43-.42Z"/><path class="z" d="M547,112.71l0.76,0.72,0.64-.68,0.22,0.21-0.64.68,0.31,0.3,0.64-.68,0.22,0.21-0.54.57,2.06,0.47-0.38.4-1.33-.37a5.25,5.25,0,0,1-.57-0.21h0c0.08,0.18.15,0.34,0.23,0.55l0.47,1.3-0.39.41-0.63-2-0.54.57-0.22-.21,0.64-.67-0.31-.3-0.64.68-0.22-.21,0.64-.68-0.76-.72Z"/><path class="z" d="M553.49,105.75l0.32,0.3-1.21,1.31h0a1.26,1.26,0,0,1,.76.13,2.11,2.11,0,0,1,.51.44l0.55-.6,0.28,0.26-0.58.63a3.19,3.19,0,0,0,.42.49,0.64,0.64,0,0,0,1,0,1.1,1.1,0,0,0,.27-0.47l0.37,0.18a1.25,1.25,0,0,1-.33.58,1.11,1.11,0,0,1-1.64.05,4,4,0,0,1-.43-0.49l-0.38.41-0.28-.26,0.42-.45a2.57,2.57,0,0,0-.29-0.31,1.2,1.2,0,0,0-1.23-.21l-0.22-.2Z"/><path class="z" d="M559.64,99.81a1.54,1.54,0,0,0-.64.41,1.14,1.14,0,0,0-.31.86,1.46,1.46,0,0,0,.37.77l1.13-1.26,0.22,0.2-1.16,1.29,0.08,0.07,0.2,0.16,1.15-1.28,0.22,0.2-1.12,1.25a1.42,1.42,0,0,0,.81.24,1.05,1.05,0,0,0,.78-0.37,1.39,1.39,0,0,0,.32-0.61l0.37,0.18a1.7,1.7,0,0,1-.39.72,1.58,1.58,0,0,1-1.16.55,1.9,1.9,0,0,1-1.08-.31l-0.27.29-0.22-.2,0.24-.26-0.21-.17-0.07-.06-0.23.25-0.22-.2,0.25-.28a1.86,1.86,0,0,1-.48-1,1.57,1.57,0,0,1,.42-1.26,1.62,1.62,0,0,1,.78-0.5Z"/><path class="z" d="M563.66,93.65l0.47,0.41a1,1,0,0,1,1.39,0,1.17,1.17,0,0,1,.21,1.43,0.85,0.85,0,0,0,0,1,0.55,0.55,0,0,0,.81-0.14,1.45,1.45,0,0,0,.35-0.7l0.4,0.15a1.6,1.6,0,0,1-.36.73l0.44,0.38-0.25.28-0.46-.4a1,1,0,0,1-1.33,0,1.19,1.19,0,0,1-.13-1.43,0.83,0.83,0,0,0-.09-1,0.63,0.63,0,0,0-.91.15,1.61,1.61,0,0,0-.38.82l-0.4-.16a1.76,1.76,0,0,1,.41-0.87l-0.46-.4Z"/><path class="z" d="M569.63,87.54l0.8,0.68,0.61-.71,0.23,0.2-0.61.71L571,88.7l0.61-.71,0.23,0.2-0.51.59,2.08,0.37-0.36.42-1.35-.3a5.18,5.18,0,0,1-.58-0.18h0c0.09,0.17.17,0.33,0.26,0.54l0.53,1.28-0.37.43-0.73-1.95-0.51.59-0.23-.2,0.6-.71-0.33-.28-0.6.71-0.23-.2,0.6-.71-0.8-.68Z"/><path class="z" d="M575.78,80.26l0.34,0.28L575,81.91h0a1.24,1.24,0,0,1,.76.1,2,2,0,0,1,.53.41l0.52-.63L577.09,82l-0.55.66a3.15,3.15,0,0,0,.45.47,0.65,0.65,0,0,0,1,0,1.08,1.08,0,0,0,.25-0.49l0.38,0.16a1.26,1.26,0,0,1-.3.6,1.11,1.11,0,0,1-1.64.14,4.1,4.1,0,0,1-.46-0.47l-0.36.43-0.29-.24,0.4-.47a2.41,2.41,0,0,0-.3-0.29,1.2,1.2,0,0,0-1.25-.15l-0.23-.19Z"/><path class="z" d="M581.61,74a1.57,1.57,0,0,0-.62.44,1.14,1.14,0,0,0-.26.88,1.45,1.45,0,0,0,.4.75l1.07-1.32L582.43,75l-1.1,1.35,0.08,0.07,0.2,0.15,1.09-1.34,0.23,0.19-1.06,1.3a1.43,1.43,0,0,0,.82.2,1.05,1.05,0,0,0,.76-0.41,1.39,1.39,0,0,0,.29-0.63L584.14,76a1.69,1.69,0,0,1-.36.74,1.58,1.58,0,0,1-1.14.61,1.91,1.91,0,0,1-1.1-.26l-0.25.31-0.23-.19,0.22-.27-0.22-.16L581,76.73l-0.22.27-0.23-.19,0.23-.29a1.84,1.84,0,0,1-.53-1,1.57,1.57,0,0,1,.35-1.28,1.61,1.61,0,0,1,.76-0.53Z"/><path class="z" d="M585.32,67.67l0.49,0.39A1,1,0,0,1,587.2,68a1.17,1.17,0,0,1,.28,1.41,0.85,0.85,0,0,0,.07,1,0.55,0.55,0,0,0,.8-0.18,1.45,1.45,0,0,0,.31-0.72l0.41,0.13a1.64,1.64,0,0,1-.32.74l0.46,0.36L589,71l-0.47-.38a1,1,0,0,1-1.32.11,1.18,1.18,0,0,1-.2-1.42,0.83,0.83,0,0,0-.14-1,0.63,0.63,0,0,0-.9.19,1.59,1.59,0,0,0-.33.84l-0.41-.14a1.76,1.76,0,0,1,.36-0.88L585.09,68Z"/><path class="z" d="M591,61.28l0.83,0.64,0.57-.74,0.24,0.18L592,62.1l0.34,0.26,0.57-.74,0.24,0.18-0.48.62,2.1,0.26-0.34.44-1.37-.23a5.4,5.4,0,0,1-.59-0.15h0c0.1,0.17.18,0.32,0.29,0.52l0.6,1.25-0.34.45-0.83-1.91-0.48.62-0.24-.18,0.57-.74-0.34-.26-0.57.74L590.94,63l0.57-.74-0.83-.64Z"/><path class="z" d="M596.73,53.71L597.08,54,596,55.4h0a1.25,1.25,0,0,1,.77.06,2.12,2.12,0,0,1,.55.38l0.49-.65,0.3,0.23-0.52.69a3.21,3.21,0,0,0,.47.44,0.65,0.65,0,0,0,1-.08,1.09,1.09,0,0,0,.22-0.5l0.39,0.14a1.27,1.27,0,0,1-.27.61,1.11,1.11,0,0,1-1.63.22,4,4,0,0,1-.48-0.44L597,57l-0.3-.23,0.37-.49a2.41,2.41,0,0,0-.32-0.28,1.2,1.2,0,0,0-1.25-.08l-0.24-.18Z"/><path class="z" d="M602.26,47.18a1.56,1.56,0,0,0-.59.47,1.14,1.14,0,0,0-.22.89,1.44,1.44,0,0,0,.44.73l1-1.37,0.24,0.17-1,1.41,0.09,0.06,0.21,0.14,1-1.39,0.24,0.18-1,1.35a1.43,1.43,0,0,0,.83.16,1.06,1.06,0,0,0,.73-0.45,1.37,1.37,0,0,0,.26-0.64L604.89,49a1.69,1.69,0,0,1-.32.76,1.59,1.59,0,0,1-1.1.67,1.91,1.91,0,0,1-1.11-.2l-0.23.32-0.24-.18,0.21-.29L601.87,50l-0.07-.05-0.2.28L601.36,50l0.22-.3a1.87,1.87,0,0,1-.58-1,1.57,1.57,0,0,1,.29-1.3,1.61,1.61,0,0,1,.73-0.57Z"/><path class="z" d="M605.65,40.65L606.16,41a1,1,0,0,1,1.38-.18,1.17,1.17,0,0,1,.35,1.39,0.85,0.85,0,0,0,.12,1A0.55,0.55,0,0,0,608.8,43a1.45,1.45,0,0,0,.27-0.73l0.41,0.11a1.61,1.61,0,0,1-.28.76l0.47,0.34-0.21.3L609,43.43a1,1,0,0,1-1.31.17,1.18,1.18,0,0,1-.27-1.41,0.82,0.82,0,0,0-.19-1,0.63,0.63,0,0,0-.89.24,1.6,1.6,0,0,0-.29.85l-0.41-.12a1.75,1.75,0,0,1,.32-0.9L605.43,41Z"/><path class="z" d="M611,34l0.86,0.6,0.53-.77L612.61,34l-0.53.77L612.43,35l0.53-.77,0.25,0.17-0.45.64,2.11,0.16-0.31.45-1.37-.17a5.11,5.11,0,0,1-.59-0.12v0c0.11,0.16.2,0.31,0.31,0.51l0.66,1.22-0.32.46-0.92-1.87-0.45.64-0.25-.17,0.53-.76-0.35-.25-0.53.76L611,35.75l0.53-.76-0.86-.6Z"/><path class="z" d="M616.36,26.11l0.36,0.25-1,1.48h0a1.25,1.25,0,0,1,.77,0,2.09,2.09,0,0,1,.57.36l0.46-.68,0.31,0.21-0.48.72a3.27,3.27,0,0,0,.49.42,0.64,0.64,0,0,0,1-.13,1.09,1.09,0,0,0,.2-0.51l0.39,0.12a1.26,1.26,0,0,1-.24.63,1.11,1.11,0,0,1-1.62.3,3.94,3.94,0,0,1-.5-0.42l-0.31.46-0.31-.21,0.35-.51a2.48,2.48,0,0,0-.33-0.26,1.2,1.2,0,0,0-1.25,0L615,28.17Z"/><path class="z" d="M621.55,19.32a1.56,1.56,0,0,0-.57.5,1.14,1.14,0,0,0-.17.9,1.44,1.44,0,0,0,.48.71L622.21,20l0.25,0.16-1,1.45,0.09,0.06,0.22,0.13,0.95-1.44L623,20.53l-0.92,1.4a1.4,1.4,0,0,0,.83.12,1,1,0,0,0,.71-0.48,1.36,1.36,0,0,0,.23-0.65l0.4,0.12a1.7,1.7,0,0,1-.28.77,1.59,1.59,0,0,1-1.07.72,1.9,1.9,0,0,1-1.12-.15l-0.22.33-0.25-.17,0.19-.3-0.23-.14-0.08,0-0.19.29-0.25-.16,0.2-.31a1.85,1.85,0,0,1-.62-0.93,1.56,1.56,0,0,1,.22-1.31,1.6,1.6,0,0,1,.7-0.61Z"/><path class="z" d="M624.6,12.62L625.12,13a1,1,0,0,1,1.37-.25,1.17,1.17,0,0,1,.42,1.38,0.85,0.85,0,0,0,.17,1,0.55,0.55,0,0,0,.78-0.26,1.45,1.45,0,0,0,.24-0.75l0.41,0.09a1.6,1.6,0,0,1-.24.77l0.49,0.31-0.2.31-0.51-.33a1,1,0,0,1-1.3.24,1.19,1.19,0,0,1-.34-1.39,0.82,0.82,0,0,0-.24-1,0.63,0.63,0,0,0-.88.28,1.6,1.6,0,0,0-.25.87l-0.42-.1a1.74,1.74,0,0,1,.27-0.92l-0.51-.33Z"/><path class="z" d="M629.58,5.7l0.89,0.56,0.5-.79,0.25,0.16-0.5.8,0.37,0.23,0.5-.8L631.85,6l-0.41.66,2.11,0.05-0.29.47-1.38-.1a5.19,5.19,0,0,1-.6-0.09h0c0.12,0.16.21,0.3,0.34,0.49l0.72,1.19-0.3.48-1-1.82L630.59,8l-0.25-.16,0.49-.79-0.37-.23L630,7.63l-0.25-.16,0.49-.79-0.89-.56Z"/><path class="z" d="M634.57-2.42l0.38,0.23L634-.67h0a1.25,1.25,0,0,1,.77,0,2.05,2.05,0,0,1,.59.33L635.8-1l0.32,0.2-0.45.74a3.12,3.12,0,0,0,.51.39,0.64,0.64,0,0,0,1-.17,1.07,1.07,0,0,0,.17-0.52l0.4,0.1a1.26,1.26,0,0,1-.21.64,1.11,1.11,0,0,1-1.6.38,4,4,0,0,1-.52-0.39l-0.29.48-0.32-.2,0.32-.53a2.57,2.57,0,0,0-.34-0.24,1.2,1.2,0,0,0-1.25,0L633.28-.3Z"/></g></g><g class="aa"><rect class="ab" x="-105.71" y="-295.71" width="1200" height="2527.25"/></g></g></svg>