<?xml version="1.0" encoding="utf-8"?>
<!-- Generator: Adobe Illustrator 15.1.0, SVG Export Plug-In . SVG Version: 6.00 Build 0)  -->
<!DOCTYPE svg PUBLIC "-//W3C//DTD SVG 1.1//EN" "http://www.w3.org/Graphics/SVG/1.1/DTD/svg11.dtd">
<svg version="1.1" id="Layer_1" xmlns="http://www.w3.org/2000/svg" xmlns:xlink="http://www.w3.org/1999/xlink" x="0px" y="0px"
	 width="237px" height="140px" viewBox="179.129 345.8 237 140" enable-background="new 179.129 345.8 237 140"
	 xml:space="preserve">
<title>Texty-Decor</title>
<path fill="#E9EAEB" d="M264.78,373.586c-1.024,2.33-2.479,4.446-4.288,6.237c-4.149,4.09-9.767,6.344-15.592,6.257
	c-0.766,2.401-1.715,4.74-2.839,6.997c-1.001,2.01-2.137,3.95-3.398,5.807c-1.133,1.671-2.386,3.257-3.748,4.748
	c-1.299,1.413-2.595,2.719-3.888,3.918s-2.555,2.319-3.789,3.358c-1.239,1.04-2.396,2.039-3.468,2.999
	c0.625,0.89,1.102,1.876,1.409,2.918c0.304,1.029,0.459,2.097,0.46,3.169c0.014,1.857-0.354,3.697-1.08,5.407
	c-0.711,1.668-1.687,3.21-2.889,4.568c-1.262,1.409-2.696,2.655-4.268,3.708c-1.617,1.094-3.346,2.012-5.157,2.738
	c-1.802,0.726-3.665,1.288-5.567,1.68c-1.805,0.377-3.644,0.571-5.487,0.579c-2.721,0-5.422-0.449-7.996-1.329
	c-2.558-0.85-4.952-2.131-7.077-3.788c-2.079-1.631-3.801-3.672-5.058-5.997c-1.306-2.41-1.97-5.115-1.929-7.856
	c0.001-1.98,0.417-3.938,1.219-5.747c0.851-1.922,1.946-3.726,3.259-5.368c1.39-1.749,2.946-3.359,4.647-4.808
	c1.727-1.454,3.539-2.802,5.427-4.038c1.796-1.203,3.658-2.304,5.578-3.298c1.653-0.864,3.355-1.632,5.097-2.299
	c2.344-3.02,4.967-5.811,7.837-8.336c2.357-2.076,4.912-3.917,7.626-5.498c2.19-1.269,4.521-2.275,6.947-2.999
	c1.877-0.575,3.825-0.888,5.787-0.93c1.774-1.104,3.801-1.733,5.888-1.829c0.979-0.015,1.949,0.19,2.838,0.6
	c0.839,0.396,1.577,0.978,2.159,1.7c0.62,0.781,1.085,1.673,1.369,2.628c0.329,1.089,0.49,2.221,0.48,3.358
	c0,0.394-0.02,0.788-0.06,1.18c-0.041,0.4-0.09,0.806-0.15,1.219c1.72-0.002,3.431-0.254,5.078-0.75
	c1.669-0.496,3.276-1.184,4.787-2.049c1.523-0.874,2.941-1.916,4.229-3.109c1.274-1.173,2.401-2.495,3.358-3.938
	c0.925-1.393,1.671-2.897,2.219-4.478c0.536-1.54,0.81-3.158,0.81-4.788c0.017-1.96-0.424-3.898-1.289-5.658
	c-0.842-1.708-2.018-3.231-3.458-4.478c-1.477-1.271-3.169-2.266-4.998-2.938c-1.869-0.704-3.85-1.063-5.847-1.06
	c-1.811,0.011-3.611,0.277-5.348,0.79c-1.777,0.507-3.463,1.29-4.998,2.319c-1.491,0.995-2.761,2.288-3.728,3.798
	c-0.982,1.556-1.486,3.367-1.449,5.208c-0.003,1.143,0.187,2.278,0.56,3.358c0.366,1.062,0.929,2.045,1.66,2.898
	c1.56,1.838,3.867,2.874,6.276,2.819c0.67-0.002,1.339-0.059,2-0.17c0.729-0.124,1.446-0.318,2.139-0.58
	c-1.628,0.627-3.354,0.966-5.098,1c-1.31,0.028-2.608-0.242-3.798-0.789c-1.073-0.483-2.033-1.185-2.819-2.06
	c-0.763-0.874-1.341-1.895-1.699-2.999c-0.371-1.102-0.559-2.256-0.56-3.418c-0.009-1.31,0.247-2.608,0.75-3.818
	c0.49-1.17,1.165-2.253,1.999-3.208c0.849-0.971,1.82-1.827,2.889-2.549c1.07-0.735,2.208-1.368,3.398-1.889
	c1.135-0.48,2.313-0.852,3.519-1.109c1.082-0.25,2.188-0.381,3.298-0.39c2.394-0.027,4.775,0.344,7.046,1.099
	c2.017,0.667,3.879,1.731,5.478,3.128c1.521,1.354,2.732,3.022,3.549,4.888c0.866,2.016,1.299,4.192,1.269,6.387
	C266.279,369.082,265.761,371.425,264.78,373.586z M222.88,414.367c-2.085,1.422-4.378,2.514-6.796,3.238
	c-2.125,0.64-4.329,0.976-6.547,1c-1.344,0.007-2.685-0.134-3.999-0.419c-1.166-0.248-2.294-0.644-3.358-1.18
	c-0.939-0.48-1.785-1.123-2.5-1.899c-0.651-0.687-1.127-1.52-1.389-2.429c-1.28,0.746-2.339,1.819-3.069,3.108
	c-0.522,0.983-0.806,2.075-0.83,3.188c0,0.488,0.058,0.975,0.17,1.449c0.099,0.441,0.236,0.872,0.41,1.289
	c-0.572-0.895-0.874-1.936-0.87-2.998c0.005-1.412,0.4-2.795,1.14-3.998c0.694-1.211,1.633-2.263,2.758-3.089
	c-0.012-0.18-0.012-0.36,0-0.54v-0.52c0.027-2.467,0.491-4.911,1.37-7.217c1.138-2.912,2.614-5.679,4.398-8.246
	c-1.882,0.715-3.707,1.574-5.457,2.569c-1.886,1.063-3.696,2.255-5.418,3.568c-1.737,1.318-3.389,2.744-4.948,4.268
	c-1.485,1.446-2.845,3.015-4.068,4.688c-1.112,1.513-2.038,3.154-2.759,4.888c-0.644,1.522-0.983,3.155-0.999,4.808
	c-0.039,2.604,0.551,5.179,1.719,7.506c1.121,2.201,2.682,4.147,4.587,5.718c1.966,1.607,4.208,2.844,6.617,3.648
	c2.533,0.862,5.191,1.298,7.866,1.289c1.619-0.017,3.233-0.19,4.818-0.52c1.792-0.362,3.549-0.884,5.248-1.56
	c1.776-0.7,3.486-1.56,5.107-2.569c1.612-0.995,3.085-2.202,4.377-3.588c1.268-1.361,2.304-2.922,3.069-4.618
	c0.78-1.775,1.168-3.698,1.14-5.637c0.026-1.897-0.606-3.744-1.79-5.228V414.367z M240.422,385.3
	c-0.956-0.476-1.835-1.093-2.609-1.829c-0.3,1.697-0.731,3.368-1.289,4.998c-1.185,3.508-2.966,6.785-5.268,9.686
	c-1.129,1.434-2.424,2.729-3.858,3.858c-1.393,1.096-2.943,1.975-4.598,2.609c-1.692,0.658-3.492,0.998-5.308,1
	c-1.563,0.12-3.103-0.437-4.228-1.529c-0.965-1.103-1.47-2.534-1.409-3.999c0.031-1.403,0.319-2.789,0.849-4.088
	c0.649-1.622,1.535-3.137,2.629-4.498l-8.086,2.409c-0.939,1.159-1.798,2.381-2.568,3.659c-0.796,1.328-1.504,2.707-2.119,4.128
	c-0.601,1.391-1.099,2.824-1.489,4.288c-0.378,1.39-0.629,2.812-0.75,4.248c2.965-1.516,6.246-2.31,9.576-2.319
	c1.428-0.005,2.852,0.142,4.248,0.44c1.261,0.287,2.493,0.691,3.678,1.209c1.051,0.447,2.055,0.996,2.999,1.639
	c0.793,0.533,1.53,1.146,2.199,1.829c2.442-1.987,4.737-4.148,6.867-6.467c2.09-2.268,4.055-4.646,5.887-7.126
	c1.679-2.267,3.208-4.641,4.578-7.107c1.159-2.054,2.123-4.212,2.879-6.447c-0.971,0.002-1.93-0.209-2.809-0.62V385.3z
	 M220.271,411.958c-0.953-0.547-1.957-0.999-2.998-1.35c-1.211-0.402-2.451-0.712-3.708-0.93c-1.34-0.235-2.698-0.352-4.058-0.35
	c-1.591-0.001-3.177,0.18-4.728,0.54c-1.525,0.35-2.98,0.951-4.308,1.779c-0.012,0.918,0.249,1.819,0.75,2.589
	c0.515,0.783,1.198,1.442,1.999,1.929c0.931,0.554,1.943,0.959,2.999,1.199c1.216,0.282,2.46,0.42,3.708,0.41
	c2.14-0.02,4.266-0.357,6.307-1c2.212-0.676,4.28-1.757,6.097-3.188C221.749,412.923,221.051,412.371,220.271,411.958z
	 M226.268,377.974c-2.125,0.815-4.156,1.857-6.057,3.108c-2.325,1.508-4.512,3.217-6.537,5.108c-2.23,2.094-4.24,4.412-5.997,6.917
	l8.296-2.739c1.273-1.659,2.522-3.158,3.749-4.498c1.16-1.271,2.384-2.482,3.668-3.628c2.319-2.069,4.88-3.851,7.626-5.307
	c-1.642,0.076-3.258,0.435-4.778,1.059L226.268,377.974z M242.521,376.704c-1.042-1.124-2.527-1.731-4.059-1.659
	c-1.741,0.051-3.449,0.492-4.997,1.29c0.516,0.146,0.97,0.458,1.289,0.89c0.277,0.409,0.42,0.895,0.41,1.389
	c-0.037,0.839-0.281,1.657-0.709,2.379c-0.548,0.96-1.298,1.789-2.199,2.429c-1.333,0.993-2.582,1.849-3.748,2.569
	c-1.167,0.72-2.349,1.37-3.549,1.949c-1.186,0.58-2.396,1.106-3.628,1.58c-1.232,0.473-2.565,0.956-3.998,1.449
	c-0.6,0.77-1.154,1.574-1.659,2.409c-0.503,0.824-0.948,1.682-1.33,2.569c-0.362,0.837-0.653,1.703-0.87,2.589
	c-0.198,0.788-0.302,1.596-0.31,2.409c-0.026,1.049,0.33,2.072,1,2.879c0.842,0.833,2.01,1.25,3.188,1.139
	c1.827,0.004,3.635-0.359,5.318-1.069c1.685-0.716,3.257-1.672,4.667-2.839c1.433-1.176,2.721-2.519,3.838-3.998
	c1.117-1.46,2.119-3.004,2.999-4.618c0.808-1.501,1.5-3.062,2.069-4.668c0.492-1.353,0.86-2.749,1.1-4.168
	c-0.262-0.408-0.47-0.848-0.62-1.31c-0.097-0.287-0.154-0.586-0.17-0.89c0-0.413,0.124-0.62,0.37-0.62
	c0.3,0.071,0.552,0.278,0.679,0.56c0.268,0.517,0.388,1.098,0.35,1.679c0.657,0.685,1.437,1.24,2.299,1.639
	c0.998,0.388,2.058,0.591,3.128,0.6c0.356-1.256,0.551-2.553,0.58-3.858c0.117-1.685-0.408-3.353-1.469-4.667L242.521,376.704z
	 M234.125,377.244c-0.454-0.447-1.132-0.577-1.719-0.33c-2.355,1.332-4.557,2.917-6.567,4.728c-2.814,2.517-5.403,5.276-7.736,8.246
	c1.766-0.667,3.341-1.29,4.728-1.869c1.386-0.58,2.622-1.173,3.708-1.779c1.093-0.58,2.065-1.153,2.918-1.719
	s1.639-1.139,2.359-1.719c0.872-0.63,1.611-1.425,2.179-2.339c0.356-0.583,0.562-1.247,0.6-1.929c0.016-0.471-0.166-0.927-0.5-1.259
	L234.125,377.244z"/>
<path fill="#E9EAEB" d="M267.019,414.217c-2.114,1.901-4.699,3.202-7.486,3.768c-1.335,0.276-2.695,0.417-4.058,0.42
	c-1.005,0.017-2.01-0.066-2.999-0.25c-0.803-0.168-1.453-0.757-1.699-1.539c-0.081-0.288-0.017-0.597,0.17-0.83
	c0.225,0.093,0.385,0.298,0.42,0.54c0.271,0.454,0.607,0.865,0.999,1.22c0.446,0.373,1.02,0.559,1.599,0.52
	c1.484,0.033,2.953-0.311,4.268-1c1.137-0.607,2.131-1.449,2.918-2.469c0.759-0.994,1.329-2.119,1.68-3.318
	c0.349-1.145,0.53-2.333,0.54-3.528c0-0.841-0.07-1.68-0.21-2.509c-0.125-0.757-0.299-1.505-0.52-2.239
	c-0.178-0.604-0.406-1.192-0.68-1.759c-0.19-0.41-0.443-0.788-0.749-1.119c-0.72,1.272-1.523,2.648-2.409,4.128
	s-1.802,2.918-2.749,4.318c-0.878,1.3-1.826,2.551-2.838,3.748c-0.773,0.959-1.691,1.792-2.719,2.469l-0.459-0.29
	c1.163-0.885,2.208-1.917,3.108-3.068c1.02-1.273,1.999-2.605,2.938-3.999c0.939-1.393,1.816-2.769,2.629-4.128
	c0.813-1.333,1.539-2.479,2.179-3.438h0.87l-0.12,0.46c1.119,1.289,1.978,2.782,2.528,4.398c0.482,1.417,0.735,2.901,0.75,4.398
	c0.073,1.738-0.321,3.463-1.14,4.998c-0.61,1.16-1.577,2.092-2.758,2.659c0.414-0.083,0.816-0.214,1.199-0.39
	c0.805-0.335,1.581-0.736,2.319-1.2c0.964-0.593,1.88-1.261,2.739-1.999c0.963-0.828,1.801-1.791,2.488-2.859l0.29,0.29
	C269.216,411.952,268.194,413.163,267.019,414.217z"/>
<path fill="#E9EAEB" d="M306.221,458.126c0.021,2.245-0.344,4.477-1.08,6.598c-0.694,1.973-1.689,3.826-2.948,5.497
	c-1.262,1.664-2.757,3.139-4.438,4.378c-1.713,1.269-3.563,2.339-5.518,3.188c-1.985,0.863-4.056,1.517-6.177,1.949
	c-2.128,0.438-4.294,0.658-6.467,0.659c-1.705-0.016-3.405-0.19-5.078-0.52c-1.894-0.362-3.752-0.884-5.558-1.56
	c-1.88-0.698-3.695-1.558-5.428-2.568c-1.703-0.983-3.272-2.183-4.667-3.568c-1.313-1.324-2.397-2.857-3.208-4.538
	c-1.742-3.731-1.62-8.067,0.33-11.694c1.004-1.778,2.366-3.33,3.999-4.558c1.672-1.244,3.544-2.19,5.537-2.799
	c1.97-0.641,4.026-0.978,6.097-1c1.597-0.003,3.189,0.171,4.748,0.521c1.44,0.312,2.839,0.792,4.167,1.429
	c1.165,0.554,2.229,1.297,3.149,2.199c0.806,0.772,1.392,1.745,1.699,2.818c-0.49-1.025-1.188-1.938-2.049-2.679
	c-0.947-0.814-2.008-1.488-3.148-1.999c-1.254-0.571-2.568-0.997-3.918-1.27c-1.434-0.294-2.894-0.441-4.358-0.439
	c-1.956,0.01-3.899,0.31-5.768,0.89c-1.918,0.572-3.731,1.453-5.367,2.608c-1.609,1.129-2.969,2.574-3.998,4.248
	c-1.057,1.75-1.597,3.764-1.56,5.808c-0.024,1.881,0.365,3.744,1.14,5.457c0.757,1.641,1.795,3.136,3.068,4.418
	c1.329,1.331,2.828,2.48,4.458,3.419c1.671,0.975,3.428,1.794,5.248,2.448c1.781,0.641,3.613,1.126,5.477,1.449
	c1.703,0.307,3.428,0.467,5.158,0.48c3.274,0.025,6.53-0.492,9.635-1.529c2.868-0.949,5.524-2.45,7.816-4.418
	c2.225-1.935,4.014-4.319,5.247-6.997c1.32-2.929,1.979-6.113,1.93-9.325c0.047-2.984-0.561-5.942-1.779-8.666
	c-1.174-2.552-2.788-4.876-4.768-6.867c-2.05-2.047-4.383-3.79-6.927-5.178c-2.629-1.454-5.39-2.655-8.246-3.588
	c-5.531-1.798-11.306-2.735-17.122-2.779c-0.966,0-1.939,0.021-2.919,0.061c-0.979,0.04-1.952,0.117-2.919,0.229
	c-1.958,2.899-4.147,5.954-6.566,9.166c-2.577,3.393-5.34,6.639-8.276,9.726c-3.302,3.467-6.814,6.729-10.516,9.766
	c-4.183,3.425-8.609,6.541-13.244,9.325c-2.171,1.367-4.527,2.414-6.997,3.108c-1.981,0.547-4.023,0.839-6.077,0.87
	c-2.204,0.12-4.383-0.514-6.177-1.8c-1.522-1.199-2.372-3.061-2.279-4.997c0-1.999,0.816-4.375,2.449-7.127
	c1.73-2.866,3.869-5.465,6.347-7.716c2.726-2.511,5.666-4.778,8.786-6.777c3.295-2.12,6.731-4.01,10.285-5.657
	c3.535-1.652,7.154-3.114,10.845-4.378c3.436-1.181,6.937-2.162,10.485-2.938c3.022-0.683,6.094-1.121,9.186-1.31l21.18-33.625
	h1.999l-4.998,7.836c0.701-0.37,1.349-0.83,1.929-1.369l1.33-1.29c0.377-0.368,0.805-0.681,1.269-0.93
	c0.556-0.258,1.167-0.377,1.779-0.35c0.481-0.031,0.945,0.179,1.24,0.56c0.288,0.405,0.435,0.893,0.419,1.389
	c-0.008,0.338-0.059,0.674-0.15,1c-0.091,0.358-0.202,0.712-0.33,1.06c-0.127,0.333-0.256,0.643-0.39,0.929
	c-0.14,0.29-0.25,0.5-0.33,0.64l-5.268,9.346c-0.22,0.413-0.399,0.78-0.539,1.1c-0.127,0.266-0.198,0.555-0.21,0.85
	c-0.021,0.656,0.493,1.206,1.149,1.228c0.101,0.003,0.202-0.006,0.3-0.028c1.426-0.158,2.795-0.647,3.998-1.429
	c2.095-1.256,4.005-2.797,5.677-4.578l0.29,0.169c-0.81,1.004-1.729,1.917-2.739,2.719c-0.928,0.745-1.914,1.413-2.949,1.999
	c-0.896,0.506-1.84,0.921-2.818,1.24c-0.76,0.264-1.556,0.413-2.359,0.44c-0.517,0.028-1.032-0.086-1.489-0.33
	c-0.379-0.258-0.586-0.703-0.54-1.16c0.021-0.399,0.113-0.792,0.27-1.159c0.203-0.515,0.447-1.013,0.729-1.489
	c0.247-0.5,0.58-1.136,1-1.909l1.429-2.489l1.56-2.679l1.409-2.429c0.362-0.611,0.66-1.257,0.89-1.929
	c0.187-0.514,0.291-1.053,0.31-1.599c0.11-0.428-0.147-0.864-0.575-0.975c-0.07-0.018-0.143-0.026-0.215-0.025
	c-0.916,0.058-1.789,0.408-2.489,1c-1.025,0.798-1.969,1.695-2.818,2.679c-1.021,1.161-1.976,2.379-2.859,3.648
	c-0.939,1.332-1.823,2.665-2.648,3.998l-11.155,17.791c1.686-0.166,3.352-0.249,4.998-0.249c3.384-0.003,6.763,0.295,10.095,0.889
	c3.25,0.571,6.442,1.438,9.536,2.589c2.951,1.097,5.778,2.5,8.436,4.188c2.501,1.575,4.768,3.493,6.737,5.697
	c1.867,2.1,3.374,4.494,4.458,7.087c1.094,2.662,1.645,5.518,1.619,8.396v0.08H306.221z M250.247,431.219
	c-3.09,0.563-6.144,1.311-9.146,2.239c-3.473,1.064-6.887,2.316-10.225,3.748c-3.571,1.528-7.025,3.315-10.335,5.348
	c-3.417,2.092-6.65,4.47-9.666,7.106c-3.028,2.655-5.714,5.678-7.996,8.996c-0.738,1.012-1.318,2.131-1.719,3.318
	c-0.332,0.989-0.507,2.025-0.52,3.068c-0.06,1.682,0.625,3.305,1.869,4.438c1.518,1.226,3.442,1.833,5.388,1.7
	c2.043-0.054,4.067-0.425,5.997-1.101c2.632-0.902,5.159-2.089,7.536-3.538c3.873-2.3,7.55-4.914,10.995-7.816
	c3.449-2.898,6.735-5.985,9.845-9.245c3.065-3.219,5.884-6.474,8.456-9.766c2.572-3.292,4.825-6.4,6.757-9.325
	c-2.415,0.12-4.818,0.397-7.197,0.829H250.247z"/>
<path fill="#E9EAEB" d="M306.8,405.051l-0.789,0.08c-1.016,0-2.026-0.147-2.999-0.439c-0.806-0.222-1.589-0.52-2.339-0.89
	c-0.374,1.192-0.853,2.35-1.429,3.458c-0.686,1.345-1.474,2.635-2.359,3.858c-0.94,1.301-1.979,2.528-3.109,3.668
	c-1.08,1.107-2.299,2.068-3.628,2.859c-0.839,0.426-1.759,0.668-2.699,0.709c-1.332,0-1.999-0.759-1.999-2.279
	c0.027-0.677,0.138-1.349,0.33-1.999c0.294-0.977,0.655-1.932,1.079-2.859c0.49-1.085,1.051-2.138,1.68-3.148
	c0.658-1.042,1.379-2.044,2.159-2.999c0.758-0.947,1.598-1.827,2.509-2.628c0.835-0.743,1.771-1.365,2.778-1.85
	c0.92-0.443,1.927-0.676,2.948-0.679c0.442-0.038,0.879,0.115,1.199,0.42c0.257,0.292,0.454,0.632,0.58,1
	c-0.011,0.193-0.011,0.386,0,0.58c0.013,0.236,0.013,0.473,0,0.709c0.003,0.183-0.024,0.365-0.08,0.54l0.601,0.459
	c0.319,0.25,0.677,0.445,1.059,0.58c0.626,0.281,1.279,0.496,1.949,0.64c0.559,0.12,1.128,0.184,1.699,0.19
	c0.44,0.005,0.878-0.073,1.289-0.23c0.289-0.103,0.566-0.233,0.83-0.39v0.16C307.682,404.825,307.251,404.989,306.8,405.051z
	 M299.934,400.633c-0.237-0.261-0.577-0.404-0.93-0.39c-0.931,0.063-1.814,0.436-2.509,1.06c-0.994,0.799-1.905,1.696-2.719,2.679
	c-0.956,1.14-1.841,2.338-2.649,3.588c-0.859,1.333-1.625,2.599-2.299,3.798c-0.673,1.199-1.25,2.266-1.729,3.198
	c-0.34,0.644-0.63,1.312-0.87,1.999c-0.045,0.163-0.072,0.331-0.08,0.5c-0.031,0.601,0.43,1.113,1.031,1.145
	c0.1,0.005,0.2-0.003,0.298-0.025c0.446-0.01,0.887-0.088,1.31-0.23c0.558-0.189,1.084-0.462,1.559-0.81
	c1.392-0.999,2.678-2.138,3.838-3.398c1.175-1.266,2.236-2.635,3.169-4.088c0.869-1.335,1.591-2.759,2.159-4.248
	c0.495-1.255,0.763-2.589,0.789-3.938C300.285,401.157,300.154,400.859,299.934,400.633z"/>
<path fill="#E9EAEB" d="M331.969,378.354c-0.701,1.473-1.52,2.887-2.449,4.228c-1.111,1.608-2.302,3.159-3.568,4.648
	c-1.333,1.606-2.742,3.162-4.228,4.667c-1.486,1.506-2.973,2.902-4.458,4.188c-1.352,1.168-2.77,2.256-4.249,3.259
	c-0.266,0.698-0.601,1.367-0.999,1.999c-0.526,0.9-1.093,1.833-1.699,2.799c-0.606,0.966-1.192,1.872-1.759,2.719
	c-0.566,0.846-0.946,1.433-1.14,1.759c-0.36,0.572-0.775,1.108-1.239,1.6c-0.518,0.559-1.102,1.053-1.739,1.469
	c0.27,0.026,0.509,0.183,0.64,0.419c0.162,0.277,0.28,0.577,0.35,0.89c0.08,0.347,0.15,0.713,0.21,1.1
	c0.061,0.387,0.116,0.72,0.17,1l0.25,0.999c0.073,0.347,0.19,0.683,0.35,1c0.134,0.269,0.316,0.51,0.54,0.71
	c0.214,0.183,0.488,0.279,0.77,0.27c1.013,0.023,2.002-0.306,2.799-0.93c0.797-0.631,1.516-1.356,2.139-2.159
	c0.667-0.813,1.26-1.599,1.779-2.359c0.442-0.669,1.058-1.208,1.779-1.559h0.41c-0.798,0.436-1.482,1.052-2,1.799
	c-0.579,0.812-1.179,1.629-1.799,2.449c-0.635,0.81-1.374,1.533-2.198,2.149c-0.902,0.652-1.997,0.979-3.109,0.93
	c-0.801-0.02-1.556-0.384-2.069-1c-0.605-0.685-0.958-1.556-0.999-2.469c0-0.333-0.021-0.666-0.06-1
	c-0.01-0.304-0.036-0.608-0.08-0.91c-0.032-0.219-0.089-0.434-0.17-0.64c-0.049-0.151-0.191-0.253-0.35-0.25
	c-0.204,0.017-0.396,0.105-0.54,0.25l-0.29-0.29c0.5-0.526,0.923-0.99,1.27-1.39s0.643-0.766,0.89-1.099
	c0.247-0.333,0.473-0.667,0.68-1c0.207-0.333,0.406-0.667,0.6-1c1.659-2.738,3.325-5.48,4.997-8.226
	c1.673-2.745,3.275-5.391,4.809-7.936c1.56-2.546,3.071-4.938,4.537-7.177c1.467-2.239,2.836-4.201,4.108-5.887
	c0.446-0.565,0.931-1.1,1.449-1.599c0.567-0.555,1.176-1.066,1.819-1.529c0.592-0.429,1.217-0.81,1.869-1.14
	c0.497-0.275,1.052-0.433,1.619-0.46c0.336-0.007,0.665,0.103,0.93,0.31c0.277,0.255,0.422,0.624,0.39,1
	C332.863,376.145,332.534,377.305,331.969,378.354z M332.198,374.355c-0.133-0.223-0.381-0.351-0.64-0.33
	c-0.464,0.062-0.903,0.249-1.27,0.54c-0.73,0.536-1.401,1.149-1.999,1.829c-0.485,0.544-0.937,1.118-1.349,1.719
	c-0.667,0.899-1.434,1.992-2.3,3.278s-1.825,2.682-2.879,4.188c-1.025,1.52-2.025,3.039-2.998,4.558
	c-0.973,1.519-1.899,2.962-2.778,4.328c-0.874,1.366-1.6,2.519-2.18,3.458c1.493-1.053,2.992-2.229,4.498-3.528
	s2.942-2.662,4.308-4.088c1.366-1.426,2.646-2.862,3.839-4.308c1.106-1.342,2.145-2.74,3.108-4.188
	c0.792-1.181,1.481-2.429,2.06-3.729c0.441-0.913,0.696-1.905,0.749-2.918c0.014-0.291-0.048-0.58-0.18-0.84L332.198,374.355z"/>
<path fill="#E9EAEB" d="M333.997,405.051l-0.789,0.08c-1.016,0-2.026-0.147-2.999-0.439c-0.806-0.222-1.589-0.52-2.339-0.89
	c-0.374,1.192-0.853,2.35-1.43,3.458c-0.685,1.345-1.473,2.635-2.358,3.858c-0.939,1.301-1.979,2.528-3.108,3.668
	c-1.08,1.107-2.3,2.068-3.628,2.859c-0.839,0.426-1.759,0.668-2.699,0.709c-1.332,0-1.999-0.759-1.999-2.279
	c0.027-0.677,0.139-1.349,0.33-1.999c0.294-0.977,0.654-1.932,1.079-2.859c0.489-1.085,1.051-2.138,1.68-3.148
	c0.658-1.042,1.379-2.044,2.158-2.999c0.759-0.947,1.598-1.827,2.51-2.628c0.835-0.743,1.771-1.365,2.778-1.85
	c0.92-0.443,1.927-0.676,2.949-0.679c0.44-0.038,0.877,0.115,1.199,0.42c0.256,0.292,0.453,0.632,0.579,1
	c-0.01,0.193-0.01,0.386,0,0.58c0.013,0.236,0.013,0.473,0,0.709c0.003,0.183-0.024,0.365-0.08,0.54l0.6,0.459
	c0.32,0.25,0.678,0.445,1.06,0.58c0.626,0.281,1.279,0.496,1.949,0.64c0.559,0.12,1.128,0.184,1.699,0.19
	c0.44,0.005,0.878-0.073,1.289-0.23c0.289-0.103,0.567-0.233,0.83-0.39v0.16C334.879,404.825,334.448,404.989,333.997,405.051z
	 M327.131,400.633c-0.237-0.261-0.577-0.404-0.93-0.39c-0.932,0.063-1.814,0.436-2.509,1.06c-0.994,0.799-1.905,1.696-2.719,2.679
	c-0.956,1.14-1.841,2.338-2.649,3.588c-0.859,1.333-1.625,2.599-2.299,3.798c-0.673,1.199-1.246,2.266-1.719,3.198
	c-0.34,0.644-0.631,1.312-0.87,1.999c-0.045,0.163-0.071,0.331-0.079,0.5c-0.032,0.601,0.43,1.113,1.03,1.145
	c0.101,0.005,0.201-0.003,0.299-0.025c0.445-0.01,0.887-0.088,1.31-0.23c0.558-0.189,1.084-0.462,1.56-0.81
	c1.392-0.999,2.678-2.138,3.838-3.398c1.175-1.266,2.235-2.635,3.168-4.088c0.869-1.335,1.593-2.759,2.159-4.248
	c0.496-1.255,0.763-2.589,0.79-3.938C327.49,401.156,327.355,400.858,327.131,400.633L327.131,400.633z"/>
<path fill="#E9EAEB" d="M342.843,403.162c-0.52,0.509-1.081,0.974-1.679,1.389l-0.12-0.29c0.526-0.312,1.008-0.695,1.43-1.139
	c0.246-0.328,0.369-0.73,0.35-1.14c0.137-0.727-0.343-1.427-1.07-1.563c-0.125-0.023-0.252-0.029-0.379-0.016
	c-1.09,0.155-2.104,0.648-2.898,1.409c-1.033,0.833-1.989,1.756-2.859,2.759c-1.035,1.164-1.99,2.396-2.858,3.688
	c-0.845,1.244-1.588,2.554-2.219,3.918c-0.536,1.07-0.84,2.242-0.89,3.438c-0.032,0.622,0.168,1.235,0.56,1.719
	c0.449,0.458,1.08,0.693,1.72,0.64c1.225,0.004,2.436-0.258,3.548-0.77c1.066-0.494,2.072-1.107,2.999-1.829
	c0.842-0.642,1.618-1.365,2.318-2.159c0.499-0.552,0.957-1.14,1.369-1.759h0.501c-0.616,0.953-1.315,1.85-2.09,2.679
	c-0.784,0.84-1.659,1.591-2.608,2.239c-0.929,0.638-1.937,1.152-2.999,1.529c-1.08,0.374-2.215,0.562-3.358,0.56
	c-1.006,0.1-1.993-0.313-2.628-1.1c-0.534-0.804-0.804-1.754-0.771-2.719c0.021-0.994,0.195-1.979,0.52-2.919
	c0.369-1.12,0.842-2.204,1.409-3.238c0.62-1.127,1.343-2.194,2.159-3.188c0.824-1.018,1.755-1.943,2.779-2.759
	c0.973-0.781,2.045-1.429,3.188-1.929c1.09-0.479,2.268-0.727,3.458-0.73c0.499-0.052,0.996,0.124,1.35,0.48
	c0.28,0.363,0.447,0.801,0.479,1.259C343.544,402.212,343.286,402.771,342.843,403.162z"/>
<path fill="#E9EAEB" d="M358.607,414.667c-0.751,0.704-1.549,1.355-2.39,1.949c-0.733,0.525-1.524,0.964-2.358,1.309
	c-0.784,0.319-1.623,0.481-2.47,0.48c-0.373-0.066-0.698-0.292-0.889-0.62c-0.249-0.412-0.371-0.888-0.351-1.37
	c0.061-1.108,0.364-2.19,0.891-3.168c0.639-1.309,1.346-2.583,2.118-3.818c0.813-1.333,1.637-2.619,2.469-3.858
	c0.714-1.061,1.364-2.162,1.949-3.298c0.21-0.351,0.324-0.75,0.33-1.16c0.008-0.241-0.059-0.478-0.19-0.68
	c-0.153-0.192-0.395-0.293-0.64-0.27c-0.274,0.015-0.543,0.086-0.789,0.21c-0.397,0.197-0.772,0.435-1.119,0.71
	c-0.746,0.606-1.52,1.289-2.319,2.049s-1.546,1.539-2.238,2.339c-0.721,0.8-1.387,1.596-2,2.389s-1.133,1.506-1.559,2.139
	c-0.887,1.333-1.756,2.735-2.609,4.208c-0.853,1.473-1.735,2.875-2.648,4.208h-2.279l11.444-18.532h2.239l-3.898,6.427
	c1.213-1.333,2.38-2.522,3.499-3.568c0.794-0.771,1.631-1.495,2.509-2.169c0.286-0.212,0.599-0.387,0.93-0.52
	c0.295-0.121,0.61-0.185,0.93-0.19c0.387,0.008,0.751,0.183,0.999,0.48c0.349,0.517,0.504,1.139,0.44,1.759
	c-0.039,0.63-0.216,1.245-0.521,1.799c-0.397,0.792-0.841,1.56-1.329,2.299l-1.72,2.629c-0.605,0.926-1.179,1.859-1.719,2.799
	c-0.522,0.903-0.974,1.845-1.35,2.819c-0.34,0.842-0.522,1.74-0.54,2.648c-0.084,0.467,0.226,0.915,0.692,1
	c0.102,0.019,0.206,0.019,0.308,0c0.61-0.031,1.205-0.202,1.739-0.5c0.748-0.384,1.464-0.829,2.139-1.33
	c0.834-0.621,1.632-1.288,2.39-1.999c0.826-0.76,1.655-1.556,2.488-2.389v0.29C360.279,413.101,359.419,413.934,358.607,414.667z"/>
<path fill="#E9EAEB" d="M379.936,405.051l-0.789,0.08c-1.016,0-2.026-0.147-2.999-0.439c-0.806-0.222-1.589-0.52-2.339-0.89
	c-0.374,1.192-0.853,2.35-1.429,3.458c-0.686,1.345-1.474,2.635-2.359,3.858c-0.939,1.301-1.979,2.528-3.108,3.668
	c-1.08,1.107-2.3,2.068-3.628,2.859c-0.839,0.426-1.759,0.668-2.699,0.709c-1.332,0-1.999-0.759-1.999-2.279
	c0.027-0.677,0.139-1.349,0.33-1.999c0.294-0.977,0.654-1.932,1.079-2.859c0.489-1.085,1.051-2.138,1.68-3.148
	c0.658-1.042,1.379-2.044,2.158-2.999c0.759-0.947,1.598-1.827,2.51-2.628c0.835-0.743,1.771-1.365,2.778-1.85
	c0.92-0.443,1.927-0.676,2.948-0.679c0.441-0.038,0.878,0.115,1.2,0.42c0.256,0.292,0.452,0.632,0.579,1
	c-0.01,0.193-0.01,0.386,0,0.58c0.013,0.236,0.013,0.473,0,0.709c0.003,0.183-0.024,0.365-0.08,0.54l0.6,0.459
	c0.32,0.25,0.678,0.445,1.06,0.58c0.626,0.281,1.279,0.496,1.949,0.64c0.559,0.12,1.128,0.184,1.699,0.19
	c0.44,0.005,0.878-0.073,1.289-0.23c0.289-0.103,0.567-0.233,0.83-0.39v0.16C380.818,404.825,380.387,404.989,379.936,405.051z
	 M373.07,400.633c-0.237-0.261-0.578-0.404-0.93-0.39c-0.931,0.063-1.814,0.436-2.509,1.06c-0.994,0.799-1.905,1.696-2.719,2.679
	c-0.956,1.14-1.841,2.338-2.649,3.588c-0.859,1.333-1.625,2.599-2.299,3.798c-0.672,1.199-1.249,2.266-1.729,3.198
	c-0.34,0.644-0.631,1.312-0.87,1.999c-0.045,0.163-0.071,0.331-0.08,0.5c-0.031,0.601,0.431,1.113,1.031,1.145
	c0.101,0.005,0.2-0.003,0.299-0.025c0.445-0.01,0.887-0.088,1.31-0.23c0.558-0.189,1.084-0.462,1.559-0.81
	c1.392-0.999,2.678-2.138,3.838-3.398c1.176-1.266,2.236-2.635,3.169-4.088c0.848-1.318,1.555-2.722,2.109-4.188
	c0.495-1.255,0.763-2.589,0.789-3.938C373.4,401.203,373.285,400.882,373.07,400.633z"/>
<path fill="#E9EAEB" d="M389.491,414.217c-2.114,1.901-4.699,3.202-7.486,3.768c-1.335,0.276-2.694,0.417-4.059,0.42
	c-1.005,0.017-2.01-0.066-2.998-0.25c-0.803-0.168-1.453-0.757-1.699-1.539c-0.08-0.288-0.017-0.597,0.17-0.83
	c0.226,0.093,0.385,0.298,0.42,0.54c0.271,0.454,0.607,0.865,0.999,1.22c0.447,0.373,1.02,0.559,1.6,0.52
	c1.484,0.033,2.952-0.311,4.269-1c1.136-0.607,2.131-1.449,2.918-2.469c0.76-0.994,1.328-2.119,1.679-3.318
	c0.35-1.145,0.531-2.333,0.54-3.528c0.001-0.841-0.069-1.68-0.21-2.509c-0.125-0.757-0.299-1.505-0.52-2.239
	c-0.178-0.604-0.405-1.192-0.68-1.759c-0.189-0.41-0.442-0.788-0.749-1.119c-0.72,1.272-1.522,2.648-2.409,4.128
	c-0.886,1.479-1.803,2.918-2.749,4.318c-0.878,1.3-1.825,2.551-2.839,3.748c-0.772,0.959-1.689,1.792-2.719,2.469l-0.459-0.29
	c1.163-0.885,2.208-1.917,3.108-3.068c1.02-1.273,1.999-2.605,2.938-3.999c0.939-1.393,1.815-2.769,2.629-4.128
	c0.812-1.333,1.539-2.479,2.179-3.438h0.869l-0.119,0.46c1.118,1.289,1.978,2.782,2.528,4.398c0.481,1.417,0.734,2.901,0.75,4.398
	c0.073,1.738-0.32,3.463-1.14,4.998c-0.609,1.16-1.577,2.092-2.759,2.659c0.414-0.083,0.816-0.214,1.2-0.39
	c0.804-0.335,1.58-0.736,2.318-1.2c0.964-0.593,1.88-1.261,2.738-1.999c0.964-0.828,1.802-1.791,2.489-2.859l0.29,0.29
	C391.688,411.952,390.665,413.163,389.491,414.217z"/>
<path fill="#E9EAEB" d="M400.826,400.163h3.438l-0.46,0.46h-3.148l-1.93,2.999c-0.666,1.033-1.349,2.062-2.049,3.088l-1.999,2.999
	l-1.818,2.719c-0.333,0.5-0.637,0.983-0.91,1.449c-0.263,0.438-0.459,0.913-0.58,1.409c-0.128,0.193-0.213,0.411-0.249,0.64
	c-0.014,0.2-0.014,0.4,0,0.6c-0.004,0.23,0.03,0.46,0.1,0.679c0.077,0.225,0.182,0.439,0.31,0.64c0.153,0.147,0.35,0.242,0.561,0.27
	c0.254,0.043,0.511,0.063,0.77,0.06c0.417-0.002,0.833-0.052,1.239-0.15c0.345-0.079,0.681-0.196,0.999-0.35
	c2.17-0.926,4.229-2.093,6.138-3.479c1.395-0.967,2.593-2.192,3.528-3.608h0.289c-0.278,0.667-0.686,1.271-1.199,1.779
	c-0.665,0.683-1.388,1.308-2.158,1.869c-0.938,0.689-1.912,1.327-2.919,1.909c-1.093,0.667-2.26,1.289-3.499,1.869
	c-0.358,0.154-0.734,0.265-1.119,0.33c-0.438,0.082-0.884,0.122-1.329,0.12c-0.579,0.061-1.159-0.104-1.62-0.46
	c-0.677-0.574-1.047-1.432-0.999-2.319c0.123-1.883,0.771-3.694,1.869-5.228c0.967-1.606,2.003-3.229,3.108-4.868
	c1.106-1.639,2.226-3.305,3.358-4.998h-3.318v-0.459h3.608l4.998-7.667h1.999L400.826,400.163z"/>
<path fill="#E9EAEB" d="M410.491,415.376c-1.287,0.888-2.622,1.705-3.998,2.449c-0.402,0.229-0.837,0.396-1.289,0.5
	c-0.448,0.109-0.908,0.166-1.369,0.17c-0.339,0.007-0.678-0.043-1-0.15c-0.259-0.081-0.471-0.271-0.579-0.52
	c-0.156-0.265-0.274-0.551-0.351-0.85c-0.102-0.371-0.152-0.755-0.149-1.14c0.062-1.477,0.488-2.915,1.239-4.188
	c0.992-1.799,1.836-3.278,2.529-4.438c0.692-1.159,1.292-2.159,1.799-2.999l1.369-2.199c0.4-0.666,0.807-1.393,1.22-2.179h2.278
	c-0.666,1.133-1.362,2.342-2.089,3.628c-0.726,1.286-1.499,2.619-2.318,3.998c-0.787,1.366-1.572,2.755-2.359,4.168
	c-0.786,1.413-1.539,2.822-2.259,4.228c-0.151,0.311-0.224,0.654-0.21,1c-0.021,0.516,0.229,1.005,0.659,1.29
	c0.171,0.071,0.356,0.098,0.54,0.08c0.399-0.007,0.795-0.064,1.18-0.17c0.35-0.072,0.688-0.197,1-0.37
	c0.666-0.36,1.332-0.766,1.998-1.219c0.667-0.453,1.373-0.916,2.12-1.39c0.666-0.466,1.315-0.949,1.948-1.449
	c0.571-0.461,1.112-0.959,1.619-1.489l0.12,0.13C413.052,413.445,411.826,414.488,410.491,415.376z M415.799,393.526
	c-0.215,0.164-0.479,0.252-0.749,0.25c-0.27-0.006-0.531-0.093-0.75-0.25c-0.222-0.167-0.346-0.433-0.33-0.709
	c-0.003-0.297,0.116-0.583,0.33-0.79c0.221-0.148,0.484-0.222,0.75-0.21c0.129-0.014,0.26-0.014,0.39,0
	c0.127,0.031,0.247,0.089,0.35,0.17c0.126,0.092,0.22,0.222,0.27,0.37c0.041,0.136,0.062,0.278,0.061,0.42
	C416.164,393.067,416.04,393.358,415.799,393.526z"/>
</svg>
