<?xml version="1.0" encoding="utf-8"?>
<!-- Generator: Adobe Illustrator 15.1.0, SVG Export Plug-In . SVG Version: 6.00 Build 0)  -->
<!DOCTYPE svg PUBLIC "-//W3C//DTD SVG 1.1//EN" "http://www.w3.org/Graphics/SVG/1.1/DTD/svg11.dtd">
<svg version="1.1" id="Layer_1" xmlns="http://www.w3.org/2000/svg" xmlns:xlink="http://www.w3.org/1999/xlink" x="0px" y="0px"
	 width="315px" height="125.057px" viewBox="140.134 357.319 315 125.057" enable-background="new 140.134 357.319 315 125.057"
	 xml:space="preserve">
<title>Texty-Decor</title>
<path fill="#E9EAEB" d="M185.939,381.738c-0.911,1.246-2.026,2.328-3.3,3.2c-1.553,1.072-3.232,1.949-5,2.61
	c-2.034,0.772-4.146,1.316-6.3,1.62c-0.473,0.606-1.14,1.423-2,2.45s-1.76,2.193-2.7,3.5c-0.967,1.333-1.946,2.756-2.94,4.27
	c-0.997,1.536-1.905,3.129-2.72,4.77c-0.807,1.607-1.476,3.28-2,5c-0.498,1.621-0.757,3.305-0.77,5
	c-0.003,0.725,0.101,1.446,0.31,2.14c0.191,0.645,0.5,1.248,0.91,1.78c0.401,0.511,0.91,0.928,1.49,1.22
	c0.621,0.311,1.306,0.469,2,0.46c1.096-0.006,2.174-0.27,3.15-0.77c1.053-0.53,2.029-1.203,2.899-2
	c0.936-0.855,1.777-1.807,2.51-2.84c0.748-1.027,1.417-2.111,2-3.24c0.526-1.022,0.958-2.09,1.29-3.19
	c0.28-0.881,0.435-1.796,0.46-2.72c0.005-0.729-0.2-1.444-0.59-2.06c-0.407-0.656-1.139-1.04-1.91-1
	c-1.068-0.001-2.113,0.316-3,0.91c-0.938,0.618-1.771,1.381-2.47,2.26c-0.722,0.899-1.336,1.879-1.83,2.92
	c-0.446,0.941-0.782,1.931-1,2.95l-0.29-0.17c0.196-1.109,0.553-2.184,1.06-3.19c0.535-1.082,1.207-2.09,2-3
	c0.766-0.893,1.671-1.656,2.681-2.26c0.922-0.573,1.984-0.881,3.07-0.89c0.485-0.013,0.964,0.123,1.37,0.39
	c0.397,0.263,0.737,0.603,1,1c0.269,0.416,0.471,0.872,0.6,1.35c0.135,0.471,0.206,0.959,0.21,1.45
	c-0.018,1.066-0.207,2.124-0.56,3.13c-0.389,1.155-0.894,2.268-1.51,3.32c-0.7,1.134-1.511,2.196-2.42,3.17
	c-0.853,0.979-1.805,1.867-2.84,2.65c-0.97,0.743-2.032,1.358-3.16,1.83c-1.058,0.442-2.193,0.673-3.34,0.68
	c-0.891,0.027-1.771-0.188-2.55-0.62c-0.687-0.397-1.27-0.953-1.7-1.62c-0.44-0.693-0.755-1.458-0.93-2.26
	c-0.193-0.836-0.29-1.692-0.29-2.55c0.007-1.495,0.215-2.981,0.62-4.42c0.425-1.547,0.963-3.062,1.61-4.53
	c0.668-1.519,1.43-2.995,2.28-4.42c0.86-1.44,1.729-2.817,2.61-4.13c0.88-1.313,1.75-2.53,2.61-3.65c0.854-1.12,1.626-2.12,2.32-3
	c-0.153,0.015-0.307,0.015-0.46,0h-0.399c-0.99-0.01-1.978-0.107-2.951-0.29c-1.063-0.196-2.095-0.532-3.07-1
	c-0.937-0.43-1.766-1.062-2.43-1.85c-0.669-0.8-1.025-1.817-1-2.86c0.001-0.409,0.034-0.817,0.1-1.22
	c0.096-0.501,0.271-0.984,0.52-1.43c-0.111-0.304-0.201-0.614-0.27-0.93c-0.071-0.349-0.104-0.704-0.101-1.06
	c0.006-0.651,0.118-1.296,0.331-1.91c0.238-0.694,0.596-1.341,1.06-1.91c0.537-0.656,1.175-1.224,1.891-1.68
	c0.884-0.563,1.848-0.992,2.86-1.271c-0.977,0.324-1.906,0.778-2.76,1.351c-0.668,0.452-1.262,1.005-1.76,1.64
	c-0.438,0.536-0.776,1.146-1,1.8c-0.185,0.569-0.282,1.162-0.29,1.76c-0.014,0.606,0.084,1.209,0.29,1.78
	c0.468-0.666,1.059-1.235,1.74-1.68c1.139-0.736,2.439-1.186,3.79-1.31c0.62-0.053,1.18-0.08,1.68-0.08
	c0.747-0.002,1.492,0.082,2.22,0.25c0.662,0.149,1.294,0.409,1.87,0.77c0.529,0.334,0.972,0.79,1.29,1.33
	c0.329,0.575,0.495,1.228,0.48,1.89c0.029,1.196-0.551,2.326-1.54,3c-1.154,0.8-2.538,1.2-3.94,1.14
	c-0.938,0.008-1.871-0.141-2.76-0.44c-0.797-0.269-1.557-0.638-2.26-1.1c-0.626-0.409-1.192-0.904-1.68-1.47
	c-0.405-0.471-0.742-0.996-1-1.56c-0.212,0.358-0.361,0.75-0.44,1.16c-0.068,0.396-0.102,0.798-0.1,1.2
	c-0.023,0.871,0.256,1.722,0.79,2.41c0.559,0.744,1.28,1.349,2.11,1.77c0.903,0.448,1.866,0.761,2.86,0.93
	c1.059,0.193,2.133,0.29,3.209,0.29h0.871l0.87-0.06c0.667-0.667,1.374-1.4,2.12-2.2c0.747-0.8,1.563-1.656,2.45-2.57
	c0.854-0.887,1.743-1.757,2.67-2.61c0.894-0.83,1.843-1.598,2.84-2.3c0.908-0.645,1.88-1.194,2.9-1.64
	c0.901-0.4,1.875-0.611,2.86-0.62c0.439-0.01,0.873,0.104,1.25,0.33c0.406,0.367,0.611,0.906,0.55,1.45
	C187.096,379.637,186.677,380.792,185.939,381.738z M171.38,379.688c-0.353-0.446-0.783-0.825-1.27-1.12
	c-0.529-0.327-1.102-0.58-1.7-0.75c-0.601-0.177-1.224-0.268-1.85-0.27c-0.894-0.014-1.787,0.077-2.66,0.27
	c-0.677,0.155-1.332,0.394-1.95,0.71c-0.511,0.261-0.98,0.598-1.39,1c-0.342,0.338-0.653,0.707-0.93,1.1
	c0.334,0.759,0.79,1.458,1.35,2.07c0.522,0.567,1.13,1.049,1.8,1.43c0.658,0.371,1.36,0.656,2.09,0.85
	c0.724,0.192,1.47,0.29,2.22,0.29c0.574-0.003,1.143-0.108,1.68-0.31c0.559-0.201,1.079-0.495,1.54-0.87
	c0.453-0.37,0.833-0.821,1.12-1.33c0.292-0.512,0.444-1.091,0.44-1.68C171.868,380.573,171.696,380.083,171.38,379.688z
	 M186.289,377.438c-0.216-0.207-0.513-0.306-0.81-0.27c-0.88,0.005-1.749,0.196-2.549,0.56c-0.886,0.397-1.722,0.897-2.491,1.49
	c-0.853,0.655-1.658,1.37-2.409,2.14c-0.787,0.8-1.547,1.617-2.281,2.45c-0.733,0.833-1.436,1.653-2.109,2.46
	c-0.667,0.78-1.297,1.503-1.89,2.17c2.127-0.385,4.193-1.058,6.14-2c1.657-0.779,3.223-1.738,4.67-2.86
	c1.123-0.851,2.117-1.862,2.95-3c0.56-0.697,0.906-1.541,1-2.43C186.521,377.893,186.444,377.642,186.289,377.438z"/>
<path fill="#E9EAEB" d="M197.549,407.008l-0.79,0.08c-1.016,0-2.027-0.148-3-0.44c-0.806-0.222-1.59-0.52-2.34-0.89
	c-0.374,1.193-0.853,2.351-1.43,3.46c-0.682,1.346-1.467,2.636-2.35,3.86c-0.94,1.301-1.98,2.528-3.11,3.67
	c-1.08,1.107-2.301,2.068-3.629,2.86c-0.839,0.426-1.76,0.668-2.7,0.71c-1.333,0-2-0.76-2-2.28c0.027-0.678,0.138-1.35,0.33-2
	c0.303-0.988,0.673-1.954,1.11-2.89c0.49-1.086,1.051-2.138,1.68-3.15c0.658-1.043,1.379-2.044,2.16-3
	c0.758-0.948,1.598-1.829,2.51-2.63c0.815-0.768,1.734-1.417,2.73-1.93c0.92-0.444,1.928-0.677,2.95-0.68
	c0.44-0.041,0.876,0.108,1.199,0.41c0.257,0.292,0.454,0.632,0.58,1c-0.01,0.193-0.01,0.387,0,0.58c0.013,0.237,0.013,0.474,0,0.71
	c0.003,0.183-0.024,0.365-0.08,0.54l0.6,0.46c0.319,0.25,0.677,0.445,1.06,0.58c0.625,0.282,1.279,0.496,1.95,0.64
	c0.559,0.121,1.128,0.184,1.7,0.19c0.44,0.006,0.878-0.073,1.29-0.23c0.289-0.103,0.567-0.233,0.83-0.39v0.25
	C198.427,406.76,197.999,406.935,197.549,407.008z M190.639,402.588c-0.236-0.261-0.577-0.404-0.93-0.39
	c-0.932,0.062-1.815,0.436-2.51,1.06c-0.995,0.799-1.906,1.697-2.72,2.68c-0.957,1.141-1.841,2.34-2.65,3.59
	c-0.86,1.333-1.626,2.596-2.3,3.79c-0.673,1.193-1.247,2.28-1.72,3.26c-0.34,0.644-0.63,1.312-0.87,2
	c-0.045,0.163-0.072,0.331-0.08,0.5c-0.031,0.601,0.43,1.114,1.032,1.145c0.1,0.006,0.2-0.003,0.298-0.025
	c0.446-0.01,0.888-0.087,1.311-0.23c0.558-0.189,1.084-0.462,1.56-0.81c1.393-0.999,2.679-2.138,3.84-3.399
	c1.176-1.267,2.237-2.635,3.17-4.09c0.875-1.329,1.606-2.747,2.18-4.23c0.503-1.274,0.771-2.629,0.79-4
	C191.015,403.115,190.873,402.812,190.639,402.588z"/>
<path fill="#E9EAEB" d="M246.868,460.097c0.022,2.246-0.343,4.479-1.081,6.6c-0.695,1.974-1.69,3.829-2.95,5.5
	c-1.263,1.665-2.758,3.14-4.44,4.38c-1.713,1.27-3.565,2.339-5.52,3.189c-1.986,0.864-4.057,1.518-6.18,1.95
	c-2.128,0.438-4.296,0.659-6.47,0.66c-1.706-0.017-3.406-0.19-5.08-0.52c-1.877-0.366-3.72-0.888-5.51-1.561
	c-1.88-0.698-3.697-1.559-5.43-2.569c-1.704-0.983-3.274-2.184-4.67-3.57c-1.332-1.321-2.434-2.855-3.26-4.54
	c-0.824-1.715-1.241-3.597-1.22-5.499c-0.038-2.169,0.5-4.309,1.56-6.201c1.005-1.778,2.367-3.331,4-4.56
	c1.672-1.244,3.547-2.191,5.54-2.8c1.971-0.641,4.028-0.978,6.1-1c1.598-0.003,3.191,0.171,4.75,0.521
	c1.441,0.312,2.84,0.792,4.17,1.43c1.164,0.554,2.229,1.297,3.149,2.2c0.807,0.772,1.394,1.745,1.7,2.819
	c-0.491-1.025-1.189-1.938-2.05-2.68c-0.948-0.815-2.009-1.489-3.15-2c-1.254-0.568-2.569-0.991-3.919-1.26
	c-1.435-0.295-2.896-0.442-4.36-0.44c-1.957,0.011-3.901,0.311-5.771,0.891c-1.919,0.572-3.733,1.454-5.37,2.609
	c-1.609,1.129-2.97,2.575-4,4.25c-1.057,1.751-1.598,3.765-1.56,5.811c-0.023,1.877,0.366,3.738,1.14,5.449
	c0.757,1.642,1.796,3.138,3.07,4.42c1.329,1.332,2.829,2.482,4.46,3.42c1.672,0.976,3.429,1.795,5.25,2.45
	c1.781,0.641,3.615,1.126,5.48,1.45c1.707,0.307,3.436,0.467,5.17,0.479c3.275,0.025,6.533-0.492,9.64-1.529
	c2.87-0.95,5.526-2.451,7.82-4.421c2.226-1.934,4.016-4.32,5.25-6.999c1.321-2.931,1.98-6.116,1.93-9.33
	c0.048-2.985-0.56-5.944-1.78-8.67c-1.174-2.553-2.789-4.878-4.77-6.87c-2.051-2.051-4.384-3.799-6.93-5.189
	c-2.63-1.454-5.393-2.656-8.25-3.59c-5.533-1.799-11.311-2.736-17.13-2.78c-0.966,0-1.939,0.02-2.919,0.061
	c-0.98,0.04-1.954,0.116-2.92,0.229c-1.96,2.907-4.153,5.963-6.58,9.17c-2.578,3.394-5.342,6.643-8.28,9.729
	c-3.3,3.469-6.81,6.731-10.509,9.77c-4.185,3.428-8.614,6.546-13.25,9.33c-2.201,1.391-4.592,2.452-7.1,3.15
	c-1.981,0.546-4.024,0.839-6.08,0.87c-2.2,0.091-4.365-0.568-6.14-1.87c-1.523-1.2-2.373-3.062-2.28-5c0-2,0.817-4.377,2.45-7.13
	c1.731-2.867,3.871-5.468,6.35-7.72c2.727-2.512,5.668-4.78,8.79-6.78c3.296-2.12,6.734-4.012,10.291-5.66
	c3.535-1.652,7.157-3.114,10.85-4.379c3.44-1.186,6.945-2.171,10.5-2.95c3.023-0.684,6.096-1.122,9.19-1.311l21.239-33.639h2
	l-5,7.84c0.692-0.339,1.337-0.766,1.92-1.27l1.33-1.29c0.378-0.368,0.806-0.681,1.271-0.93c0.556-0.257,1.167-0.377,1.779-0.35
	c0.481-0.031,0.946,0.179,1.24,0.56c0.289,0.405,0.436,0.893,0.42,1.39c-0.008,0.338-0.059,0.674-0.15,1
	c-0.091,0.359-0.202,0.712-0.33,1.06c-0.126,0.333-0.257,0.643-0.39,0.93s-0.243,0.5-0.33,0.64l-5.27,9.33
	c-0.22,0.413-0.4,0.78-0.54,1.1c-0.127,0.266-0.199,0.555-0.21,0.85c-0.021,0.657,0.493,1.207,1.15,1.228
	c0.101,0.003,0.201-0.006,0.299-0.028c1.427-0.158,2.796-0.648,4-1.43c2.095-1.257,4.007-2.799,5.679-4.58l0.291,0.17
	c-0.811,1.005-1.729,1.917-2.74,2.72c-0.928,0.745-1.914,1.414-2.95,2c-0.896,0.506-1.841,0.921-2.82,1.24
	c-0.76,0.265-1.555,0.413-2.359,0.44c-0.518,0.028-1.033-0.086-1.491-0.33c-0.379-0.258-0.586-0.704-0.54-1.16
	c0.021-0.4,0.113-0.792,0.27-1.16c0.203-0.515,0.447-1.013,0.73-1.49c0.247-0.5,0.58-1.136,1-1.91l1.43-2.49l1.56-2.68l1.41-2.43
	c0.362-0.611,0.66-1.257,0.89-1.93c0.187-0.514,0.292-1.054,0.31-1.6c0.111-0.428-0.146-0.864-0.574-0.975
	c-0.07-0.018-0.143-0.026-0.216-0.025c-0.916,0.058-1.789,0.409-2.49,1c-0.997,0.804-1.915,1.701-2.74,2.68
	c-1.021,1.162-1.977,2.38-2.86,3.65c-0.939,1.333-1.826,2.667-2.66,4l-11.169,17.8c1.687-0.167,3.353-0.251,5-0.251
	c3.386-0.001,6.766,0.297,10.1,0.891c3.267,0.556,6.477,1.409,9.59,2.55c2.952,1.097,5.781,2.501,8.439,4.19
	c2.502,1.575,4.771,3.494,6.74,5.7c1.869,2.1,3.375,4.496,4.46,7.089c1.094,2.664,1.646,5.52,1.62,8.399v0.081L246.868,460.097z
	 M190.869,433.177c-3.075,0.572-6.114,1.327-9.099,2.261c-3.475,1.065-6.89,2.317-10.23,3.75c-3.59,1.532-7.062,3.327-10.39,5.369
	c-3.418,2.094-6.653,4.472-9.67,7.11c-3.03,2.656-5.717,5.68-8,9c-0.739,1.013-1.319,2.132-1.72,3.319
	c-0.332,0.99-0.507,2.026-0.521,3.07c-0.05,1.657,0.621,3.256,1.84,4.38c1.518,1.226,3.443,1.833,5.39,1.7
	c2.044-0.054,4.069-0.425,6-1.101c2.647-0.92,5.186-2.128,7.57-3.6c3.875-2.301,7.554-4.917,11-7.82
	c3.438-2.878,6.716-5.942,9.82-9.179c3.073-3.221,5.893-6.478,8.46-9.771c2.566-3.293,4.819-6.403,6.76-9.33
	c-2.406,0.126-4.801,0.406-7.17,0.84H190.869z"/>
<path fill="#E9EAEB" d="M247.448,407.008l-0.79,0.08c-1.017,0-2.027-0.148-3-0.44c-0.807-0.222-1.59-0.52-2.34-0.89
	c-0.375,1.193-0.853,2.351-1.43,3.46c-0.688,1.347-1.48,2.637-2.37,3.86c-0.94,1.301-1.98,2.528-3.11,3.67
	c-1.081,1.107-2.301,2.068-3.63,2.86c-0.839,0.426-1.76,0.668-2.7,0.71c-1.333,0-2-0.76-2-2.28c0.027-0.678,0.138-1.35,0.33-2
	c0.294-0.977,0.655-1.933,1.08-2.86c0.49-1.085,1.051-2.138,1.68-3.149c0.658-1.043,1.379-2.045,2.16-3
	c0.757-0.949,1.597-1.829,2.51-2.63c0.834-0.783,1.778-1.443,2.8-1.959c0.92-0.444,1.928-0.677,2.95-0.68
	c0.44-0.041,0.877,0.108,1.2,0.41c0.256,0.292,0.453,0.632,0.58,1c-0.011,0.193-0.011,0.387,0,0.58c0.013,0.237,0.013,0.474,0,0.71
	c0.002,0.183-0.025,0.365-0.08,0.54l0.6,0.46c0.32,0.25,0.678,0.445,1.06,0.58c0.625,0.282,1.279,0.496,1.95,0.64
	c0.559,0.121,1.128,0.184,1.7,0.19c0.441,0.006,0.878-0.073,1.291-0.23c0.289-0.103,0.566-0.233,0.83-0.39v0.25
	C248.34,406.763,247.905,406.938,247.448,407.008z M240.578,402.588c-0.237-0.261-0.578-0.404-0.93-0.39
	c-0.932,0.062-1.815,0.436-2.51,1.06c-0.995,0.799-1.906,1.697-2.72,2.68c-0.957,1.14-1.842,2.339-2.65,3.59
	c-0.86,1.333-1.627,2.596-2.301,3.79c-0.673,1.193-1.246,2.28-1.72,3.26c-0.34,0.644-0.631,1.312-0.87,2
	c-0.045,0.163-0.072,0.331-0.08,0.5c-0.032,0.601,0.43,1.114,1.031,1.146c0.1,0.005,0.201-0.003,0.299-0.026
	c0.446-0.01,0.887-0.087,1.31-0.23c0.558-0.189,1.084-0.462,1.56-0.81c1.393-0.999,2.68-2.138,3.84-3.399
	c1.176-1.267,2.237-2.635,3.169-4.09c0.87-1.336,1.594-2.761,2.16-4.25c0.496-1.255,0.764-2.59,0.79-3.94
	c-0.006-0.333-0.138-0.651-0.37-0.89H240.578z"/>
<path fill="#E9EAEB" d="M260.058,416.627c-0.749,0.722-1.548,1.39-2.39,2c-0.734,0.525-1.526,0.965-2.36,1.31
	c-0.784,0.318-1.623,0.481-2.47,0.48c-0.374-0.065-0.7-0.292-0.891-0.62c-0.248-0.412-0.37-0.889-0.35-1.37
	c0.06-1.109,0.364-2.192,0.89-3.17c0.639-1.31,1.347-2.585,2.12-3.82c0.813-1.333,1.636-2.62,2.47-3.86
	c0.713-1.061,1.364-2.163,1.95-3.3c0.21-0.351,0.324-0.751,0.331-1.16c0.007-0.241-0.059-0.478-0.19-0.68
	c-0.154-0.192-0.395-0.294-0.64-0.27c-0.275,0.015-0.544,0.086-0.79,0.21c-0.397,0.197-0.772,0.435-1.12,0.71
	c-0.747,0.606-1.52,1.29-2.32,2.05c-0.8,0.76-1.563,1.527-2.29,2.3c-0.72,0.8-1.387,1.597-2,2.39s-1.133,1.507-1.56,2.14
	c-0.887,1.333-1.756,2.736-2.61,4.21c-0.854,1.473-1.737,2.876-2.65,4.209h-2.25l11.45-18.54h2.25l-3.9,6.43
	c1.213-1.333,2.38-2.523,3.5-3.57c0.795-0.754,1.634-1.461,2.51-2.12c0.287-0.212,0.599-0.387,0.93-0.52
	c0.295-0.121,0.611-0.186,0.93-0.19c0.387,0.008,0.752,0.183,1,0.48c0.348,0.517,0.503,1.14,0.44,1.76
	c-0.038,0.631-0.215,1.246-0.52,1.8c-0.397,0.792-0.841,1.561-1.33,2.3l-1.72,2.63c-0.607,0.927-1.18,1.86-1.72,2.8
	c-0.523,0.903-0.975,1.846-1.35,2.82c-0.34,0.843-0.524,1.741-0.54,2.65c-0.085,0.467,0.225,0.915,0.692,1
	c0.102,0.019,0.206,0.019,0.308,0c0.611-0.031,1.206-0.202,1.74-0.5c0.749-0.383,1.465-0.828,2.14-1.33
	c0.834-0.621,1.632-1.289,2.39-2c0.826-0.76,1.656-1.553,2.49-2.38v0.29C261.715,415.071,260.858,415.881,260.058,416.627z"/>
<path fill="#E9EAEB" d="M275.058,408.618c-1.333,2.267-2.807,4.52-4.42,6.76c-0.426,0.547-0.782,1.145-1.06,1.78
	c-0.168,0.41-0.259,0.848-0.27,1.29c0.001,0.242,0.042,0.481,0.12,0.71c0.299,0.518,0.853,0.834,1.45,0.83
	c0.899-0.077,1.754-0.425,2.45-1c0.788-0.527,1.542-1.102,2.26-1.72c0.667-0.566,1.38-1.153,2.141-1.76l0.29,0.29l-1.2,1l-1.22,1
	l-1.16,0.93l-0.93,0.73c-0.471,0.268-0.971,0.483-1.49,0.64c-0.39,0.118-0.793,0.181-1.2,0.19c-0.363,0.008-0.723-0.056-1.06-0.19
	c-0.288-0.122-0.549-0.298-0.77-0.52c-0.309-0.286-0.531-0.653-0.64-1.06c-0.124-0.412-0.188-0.84-0.19-1.27
	c-0.017-0.492,0.054-0.983,0.21-1.45c-0.307,0.387-0.597,0.747-0.87,1.08c-0.275,0.33-0.573,0.64-0.89,0.93
	c-0.343,0.31-0.704,0.6-1.08,0.87c-0.448,0.32-0.912,0.617-1.39,0.89l-1.2,0.44c-0.401,0.146-0.823,0.224-1.25,0.23
	c-0.364,0.03-0.725-0.089-1-0.33c-0.412-0.548-0.618-1.225-0.58-1.91c0.003-0.721,0.122-1.437,0.35-2.12
	c0.187-0.615,0.46-1.201,0.81-1.74l8.17-12.36h2.12c-0.28,0.473-0.737,1.193-1.37,2.16c-0.634,0.966-1.36,2.06-2.18,3.28l-2.57,3.86
	c-0.9,1.333-1.737,2.62-2.51,3.86l-0.58,0.89c-0.22,0.347-0.433,0.707-0.64,1.08c-0.196,0.348-0.37,0.709-0.52,1.08
	c-0.121,0.268-0.192,0.557-0.21,0.85c-0.066,0.548,0.325,1.046,0.873,1.113c0.042,0.005,0.085,0.008,0.127,0.007
	c0.386-0.012,0.766-0.097,1.12-0.25c0.402-0.16,0.791-0.354,1.16-0.58c0.912-0.549,1.743-1.222,2.47-2
	c0.733-0.787,1.363-1.513,1.89-2.18l8.46-13.15h2.12C277.778,404.078,276.397,406.351,275.058,408.618z"/>
<path fill="#E9EAEB" d="M307.557,382.298c-0.971,1.757-2.088,3.43-3.34,5c-1.287,1.634-2.659,3.199-4.11,4.69
	c-1.453,1.493-2.863,2.846-4.229,4.06s-2.603,2.264-3.71,3.15l-2.49,2c-0.413,0.606-0.85,1.273-1.31,2s-0.923,1.474-1.39,2.24
	l-1.34,2.31c-0.46,0.747-0.896,1.437-1.31,2.07c0.198,0.076,0.408,0.12,0.62,0.13c0.824-0.025,1.639-0.188,2.41-0.48
	c0.912-0.319,1.776-0.759,2.57-1.31c0.776-0.53,1.467-1.174,2.05-1.91c0.538-0.639,0.838-1.445,0.85-2.28
	c0.003-0.424-0.096-0.843-0.291-1.22c-0.197-0.364-0.586-0.582-1-0.56c-0.37,0.002-0.734,0.095-1.06,0.27
	c-0.281,0.134-0.541,0.31-0.771,0.52l-0.25-0.25c0.344-0.278,0.728-0.5,1.14-0.66c0.351-0.135,0.724-0.206,1.1-0.21
	c0.633-0.001,1.243,0.242,1.7,0.68c0.479,0.411,0.752,1.01,0.75,1.64c-0.008,0.823-0.293,1.619-0.81,2.26
	c-0.571,0.736-1.265,1.369-2.05,1.87c-0.845,0.547-1.751,0.994-2.7,1.33c-0.883,0.325-1.804,0.54-2.74,0.64
	c0.394,0.267,0.732,0.606,1,1c0.344,0.491,0.52,1.081,0.5,1.68c-0.008,0.482-0.099,0.959-0.27,1.41c-0.18,0.5-0.374,1.003-0.58,1.51
	c-0.207,0.507-0.434,1.027-0.68,1.56c-0.158,0.46-0.242,0.943-0.25,1.43c-0.021,0.365,0.145,0.716,0.44,0.93
	c0.231,0.186,0.515,0.294,0.81,0.31c0.931-0.042,1.83-0.351,2.59-0.89c0.963-0.624,1.873-1.326,2.72-2.1
	c0.887-0.8,1.703-1.604,2.45-2.41c0.747-0.807,1.327-1.417,1.74-1.83h0.46c-0.553,0.667-1.22,1.42-2,2.26
	c-0.812,0.882-1.677,1.713-2.59,2.49c-0.888,0.765-1.853,1.435-2.88,2c-0.883,0.509-1.88,0.787-2.9,0.81
	c-0.562,0.012-1.102-0.213-1.49-0.62c-0.372-0.375-0.581-0.882-0.58-1.41c0-0.229,0.027-0.458,0.08-0.68
	c0.053-0.233,0.123-0.49,0.21-0.77c0.086-0.28,0.21-0.646,0.37-1.1l0.5-1.39c0.167-0.467,0.313-0.917,0.44-1.35
	c0.106-0.324,0.171-0.66,0.19-1c0.072-0.529-0.114-1.061-0.5-1.43c-0.29-0.216-0.639-0.338-1-0.35
	c-0.201-0.006-0.399,0.036-0.58,0.12l-6,10h-2l8.19-13.4c2.666-4.367,5.203-8.39,7.61-12.07c1.133-1.74,2.287-3.566,3.46-5.48
	c1.173-1.913,2.376-3.723,3.61-5.43c1.138-1.657,2.381-3.24,3.72-4.74c1.147-1.267,2.499-2.332,4-3.15
	c0.236-0.132,0.488-0.237,0.75-0.31c0.23-0.065,0.47-0.099,0.71-0.1c0.294-0.01,0.583,0.07,0.83,0.23
	c0.219,0.149,0.37,0.379,0.42,0.64c0.1,0.146,0.143,0.324,0.12,0.5C309.113,378.957,308.468,380.696,307.557,382.298z
	 M308.616,376.698c-0.021-0.353-0.324-0.622-0.678-0.6c0,0-0.001,0-0.002,0c-0.41,0.054-0.798,0.22-1.12,0.48
	c-0.682,0.507-1.308,1.084-1.87,1.72c-0.985,1.112-1.912,2.273-2.779,3.48c-0.94,1.333-1.977,2.847-3.11,4.54
	c-1.133,1.694-2.396,3.67-3.79,5.93l-4.79,7.61c2.834-2.16,5.508-4.523,8-7.07c2.03-2.077,3.934-4.274,5.7-6.58
	c1.283-1.652,2.427-3.408,3.42-5.25c0.584-0.958,0.971-2.021,1.14-3.13c-0.002-0.378-0.035-0.756-0.1-1.13H308.616z"/>
<path fill="#E9EAEB" d="M310.307,415.138c-0.694,0.875-1.449,1.701-2.26,2.47c-0.825,0.78-1.746,1.452-2.74,2
	c-0.99,0.552-2.106,0.838-3.24,0.83c-0.602,0.047-1.194-0.172-1.62-0.6c-0.333-0.336-0.525-0.787-0.54-1.26
	c-0.005-0.283,0.043-0.564,0.141-0.83c0.1-0.247,0.203-0.483,0.31-0.71c-0.313,0.403-0.647,0.79-1,1.16
	c-0.373,0.389-0.781,0.744-1.22,1.06c-0.454,0.325-0.948,0.591-1.47,0.79c-0.562,0.211-1.159,0.316-1.76,0.31
	c-0.396,0.016-0.786-0.108-1.1-0.35c-0.285-0.231-0.517-0.521-0.68-0.85c-0.169-0.348-0.287-0.718-0.35-1.1
	c-0.064-0.363-0.098-0.731-0.1-1.1c0.016-1.118,0.24-2.224,0.66-3.26c0.463-1.189,1.045-2.329,1.74-3.4
	c0.738-1.143,1.579-2.217,2.51-3.209c0.903-0.98,1.887-1.883,2.939-2.7c0.929-0.732,1.934-1.359,3-1.87
	c0.878-0.437,1.84-0.679,2.82-0.71c0.441,0.001,0.871,0.149,1.22,0.42c0.452,0.407,0.764,0.946,0.89,1.54l1.2-2h2.12
	c-0.387,0.667-0.974,1.613-1.76,2.84l-2.57,4.11l-2.81,4.57c-0.967,1.533-1.797,2.896-2.49,4.09
	c-0.147,0.263-0.265,0.541-0.351,0.83c-0.065,0.231-0.099,0.47-0.1,0.71c-0.054,0.289,0.078,0.58,0.33,0.73
	c0.29,0.11,0.6,0.162,0.91,0.15c1.023-0.026,2.017-0.349,2.86-0.93c0.968-0.621,1.866-1.346,2.68-2.16
	c0.75-0.74,1.458-1.521,2.12-2.34c0.593-0.747,1-1.244,1.22-1.49c0.111-0.018,0.224,0.029,0.29,0.12
	C311.586,413.564,310.987,414.277,310.307,415.138z M307.487,402.628c-0.271-0.296-0.659-0.457-1.06-0.44
	c-0.854,0.061-1.67,0.378-2.34,0.91c-0.968,0.698-1.856,1.499-2.65,2.39c-0.943,1.038-1.821,2.134-2.63,3.28
	c-0.83,1.162-1.597,2.367-2.3,3.61c-0.629,1.096-1.17,2.239-1.62,3.419c-0.35,0.843-0.553,1.739-0.6,2.65
	c-0.009,0.345,0.063,0.688,0.21,1c0.145,0.298,0.46,0.474,0.79,0.44c0.563,0,1.118-0.134,1.62-0.39c0.542-0.271,1.049-0.607,1.51-1
	c0.497-0.428,0.962-0.893,1.39-1.39c0.44-0.513,0.854-1.017,1.24-1.51c0.166-0.22,0.43-0.607,0.79-1.16l1.22-1.91l1.43-2.26
	l1.39-2.22c0.427-0.667,0.787-1.26,1.081-1.78l0.56-1c0.062-0.241,0.138-0.479,0.229-0.71c0.087-0.196,0.138-0.406,0.15-0.62
	C307.928,403.465,307.781,402.998,307.487,402.628L307.487,402.628z"/>
<path fill="#E9EAEB" d="M384.705,387.658c-1.023,1.731-2.343,3.268-3.9,4.54c-1.642,1.348-3.487,2.425-5.47,3.189
	c-1.979,0.788-4.09,1.195-6.22,1.2c-0.604,0.001-1.205-0.049-1.8-0.15c-0.525-0.087-1.039-0.234-1.53-0.44
	c-0.421-0.17-0.803-0.425-1.12-0.75c-0.293-0.31-0.487-0.7-0.56-1.12c-0.554,0.333-1.22,0.7-2,1.1s-1.646,0.803-2.6,1.21
	c-0.954,0.387-1.997,0.753-3.13,1.1c-1.186,0.357-2.391,0.642-3.61,0.85c-0.606,1.333-1.333,2.77-2.181,4.31
	c-0.847,1.54-1.753,3.06-2.72,4.56c-0.966,1.493-1.95,2.89-2.949,4.19c-0.857,1.146-1.814,2.213-2.86,3.19
	c0.397,0.144,0.773,0.339,1.12,0.58c0.406,0.27,0.787,0.574,1.14,0.91c0.326,0.3,0.618,0.636,0.87,1
	c0.214,0.291,0.336,0.639,0.351,1c0.666-0.414,1.333-0.87,1.999-1.37l2.05-1.49l1.95-1.45l1.681-1.291l-0.171,0.791l-7.409,5.379
	c0.031,0.662-0.228,1.305-0.71,1.76c-0.372,0.383-0.876,0.612-1.41,0.64c-0.419,0.021-0.811-0.207-1-0.58
	c0.032-0.366,0.214-0.702,0.5-0.93c0.534-0.457,1.117-0.853,1.74-1.18c-0.007-0.366-0.137-0.719-0.37-1
	c-0.261-0.343-0.559-0.655-0.89-0.93c-0.345-0.29-0.721-0.542-1.12-0.75c-0.333-0.181-0.69-0.312-1.061-0.39
	c-0.828,0.722-1.727,1.362-2.68,1.91c-1.072,0.626-2.188,1.174-3.34,1.64c-1.225,0.495-2.489,0.883-3.78,1.16
	c-1.313,0.291-2.654,0.439-4,0.44c-0.359,0-0.746-0.02-1.159-0.06c-0.397-0.038-0.787-0.128-1.16-0.27
	c-0.349-0.131-0.661-0.344-0.91-0.62c-0.261-0.313-0.393-0.713-0.37-1.12c-0.021-0.754,0.281-1.482,0.83-2
	c0.604-0.574,1.314-1.025,2.09-1.33c0.897-0.362,1.829-0.633,2.78-0.81c1.006-0.193,1.96-0.34,2.86-0.44
	c0.899-0.1,1.673-0.157,2.319-0.17h1.22c0.86,0,1.71,0.033,2.55,0.1c0.791,0.06,1.573,0.19,2.341,0.39
	c1.021-1.048,1.939-2.194,2.739-3.42c0.8-1.227,1.554-2.514,2.26-3.86c0.707-1.347,1.391-2.717,2.05-4.11
	c0.667-1.394,1.357-2.783,2.07-4.17l-1.87,0.15c-0.606,0.04-1.216,0.06-1.83,0.06c-2.149,0.001-4.295-0.193-6.409-0.58
	c-2.052-0.374-4.062-0.95-6-1.72c-1.871-0.741-3.658-1.679-5.33-2.8c-1.604-1.071-3.043-2.371-4.27-3.86
	c-1.199-1.459-2.151-3.104-2.82-4.87c-0.686-1.866-1.025-3.842-1-5.83c-0.012-2.17,0.326-4.327,1-6.39
	c0.624-1.91,1.509-3.724,2.63-5.39c1.091-1.613,2.396-3.069,3.88-4.33c1.424-1.205,2.977-2.248,4.63-3.11
	c1.606-0.842,3.304-1.497,5.06-1.95c1.633-0.428,3.312-0.649,5.001-0.66c1.761-0.004,3.514,0.235,5.209,0.71
	c1.601,0.437,3.111,1.154,4.46,2.12c1.279,0.917,2.341,2.106,3.11,3.479c0.8,1.489,1.199,3.16,1.16,4.85
	c-0.004,2-0.509,3.967-1.47,5.72c-0.989,1.832-2.312,3.464-3.9,4.81c-1.669,1.416-3.57,2.532-5.62,3.3
	c-2.103,0.81-4.337,1.223-6.59,1.22c-0.826-0.003-1.651-0.06-2.47-0.17c-0.875-0.117-1.74-0.297-2.59-0.54
	c0.729,0.192,1.471,0.333,2.22,0.42c0.724,0.081,1.451,0.121,2.181,0.12c1.523,0.003,3.042-0.185,4.52-0.56
	c1.445-0.367,2.844-0.896,4.17-1.58c1.286-0.66,2.491-1.469,3.59-2.41c1.051-0.884,1.99-1.892,2.8-3
	c0.778-1.084,1.4-2.272,1.851-3.53c0.438-1.226,0.661-2.518,0.659-3.82c0.039-1.625-0.385-3.226-1.22-4.62
	c-0.799-1.297-1.866-2.409-3.13-3.26c-1.294-0.868-2.724-1.513-4.229-1.91c-1.474-0.403-2.993-0.612-4.521-0.62
	c-2.773-0.008-5.512,0.625-8,1.85c-2.466,1.205-4.687,2.855-6.55,4.87c-1.866,2.019-3.362,4.352-4.42,6.89
	c-1.062,2.491-1.613,5.171-1.62,7.879c-0.061,2.82,0.611,5.608,1.95,8.09c1.297,2.321,3.106,4.314,5.29,5.83
	c2.357,1.62,4.985,2.805,7.76,3.5c3.054,0.787,6.196,1.177,9.35,1.16c0.607,0,1.217,0,1.83,0s1.237-0.041,1.87-0.12
	c2.126-3.293,4.187-6.293,6.18-9c1.837-2.539,3.928-4.884,6.24-7c2.069-1.896,4.433-3.443,6.999-4.58
	c2.683-1.128,5.57-1.687,8.48-1.64c1.077-0.012,2.15,0.126,3.189,0.41c0.914,0.25,1.768,0.682,2.511,1.27
	c0.706,0.523,1.284,1.2,1.689,1.98c0.41,0.945,0.608,1.969,0.58,3C386.191,384.282,385.669,386.086,384.705,387.658z
	 M338.456,414.768c-0.607,0-1.273,0-2,0h-1c-0.594,0-1.313,0.057-2.16,0.17s-1.753,0.244-2.72,0.39
	c-0.909,0.166-1.803,0.41-2.67,0.73c-0.73,0.265-1.407,0.658-2,1.16c-0.508,0.403-0.805,1.013-0.811,1.66
	c-0.005,0.235,0.103,0.458,0.29,0.6c0.202,0.156,0.434,0.268,0.681,0.33c0.265,0.068,0.536,0.108,0.81,0.12h0.71
	c1.312,0.004,2.621-0.144,3.9-0.44c1.188-0.271,2.348-0.66,3.46-1.16c1.016-0.458,1.992-1,2.92-1.62
	c0.809-0.537,1.584-1.125,2.319-1.76c-0.57-0.11-1.149-0.174-1.729-0.19V414.768z M383.455,377.769
	c-1.533-1.057-3.37-1.581-5.229-1.49c-1.961,0-3.906,0.338-5.75,1c-1.876,0.667-3.666,1.557-5.33,2.65
	c-1.705,1.122-3.296,2.408-4.75,3.84c-1.439,1.417-2.776,2.934-4,4.54c-1.161,1.512-2.201,3.114-3.11,4.79
	c-0.795,1.453-1.464,2.972-1.999,4.54c1.918-0.422,3.809-0.963,5.659-1.62c1.728-0.619,3.4-1.381,5-2.28
	c-0.019-0.193-0.019-0.387,0-0.58c0.013-0.859,0.203-1.707,0.56-2.49c0.369-0.849,0.871-1.632,1.49-2.32
	c0.622-0.69,1.359-1.266,2.18-1.7c0.814-0.437,1.726-0.664,2.65-0.66c0.747,0,1.12,0.263,1.12,0.79
	c-0.049,0.495-0.228,0.968-0.521,1.37c-0.418,0.644-0.904,1.24-1.45,1.78c-0.686,0.694-1.414,1.345-2.179,1.95
	c-0.867,0.689-1.782,1.314-2.74,1.87c0.091,0.822,0.602,1.537,1.35,1.89c0.878,0.397,1.836,0.589,2.8,0.56
	c1.989-0.009,3.96-0.389,5.81-1.12c1.892-0.718,3.656-1.73,5.23-3c1.52-1.222,2.801-2.714,3.779-4.4
	c0.951-1.615,1.452-3.456,1.45-5.33c0.139-1.792-0.637-3.532-2.06-4.63L383.455,377.769z M367.196,391.648
	c0.699-0.562,1.367-1.164,2-1.8c0.542-0.532,1.04-1.108,1.49-1.72c0.309-0.356,0.51-0.793,0.58-1.26
	c0.011-0.226-0.163-0.418-0.39-0.43c-0.037-0.002-0.074,0.001-0.111,0.01c-0.755,0.001-1.498,0.194-2.159,0.56
	c-0.695,0.374-1.315,0.872-1.83,1.47c-0.54,0.636-0.966,1.36-1.261,2.14c-0.315,0.801-0.491,1.65-0.52,2.51
	c0.761-0.451,1.482-0.962,2.16-1.53L367.196,391.648z"/>
<path fill="#E9EAEB" d="M364.005,405.178c-0.668,0.772-1.442,1.445-2.3,2c-0.953,0.667-2.046,1.333-3.279,2
	c-1.233,0.667-2.497,1.42-3.79,2.26c-0.554,1.133-1.094,2.227-1.62,3.28c-0.484,0.893-0.755,1.886-0.79,2.9
	c-0.091,0.657,0.123,1.319,0.58,1.8c0.382,0.291,0.85,0.446,1.33,0.44c0.935-0.021,1.857-0.217,2.72-0.58
	c0.997-0.394,1.949-0.894,2.84-1.49c0.888-0.583,1.715-1.253,2.47-2c0.66-0.634,1.214-1.37,1.641-2.18l0.17,0.37
	c-0.499,0.922-1.137,1.762-1.89,2.49c-0.782,0.766-1.652,1.437-2.591,2c-0.913,0.556-1.886,1.009-2.899,1.35
	c-0.895,0.315-1.833,0.484-2.78,0.5c-0.744,0.028-1.467-0.25-2-0.77c-0.608-0.814-0.884-1.83-0.77-2.84
	c0.021-0.922,0.168-1.838,0.439-2.72c0.315-1.068,0.734-2.103,1.25-3.09c0.559-1.081,1.204-2.114,1.93-3.09
	c0.741-1.003,1.575-1.934,2.49-2.78c0.904-0.834,1.912-1.546,3-2.12c1.044-0.559,2.172-0.944,3.34-1.14h0.29
	c0.316-0.014,0.626,0.089,0.87,0.29c0.223,0.2,0.344,0.49,0.33,0.79C364.959,403.719,364.61,404.549,364.005,405.178z
	 M363.465,402.278c-0.703,0.012-1.392,0.205-1.999,0.56c-0.691,0.392-1.332,0.866-1.91,1.41c-0.617,0.577-1.186,1.202-1.7,1.87
	c-0.526,0.667-0.997,1.317-1.41,1.95c-0.361,0.543-0.695,1.104-1,1.68l-0.52,1c1.272-0.667,2.483-1.333,3.63-2
	c1.037-0.608,2.039-1.276,3-2c0.776-0.581,1.481-1.252,2.1-2c0.469-0.508,0.747-1.161,0.79-1.85
	C364.425,402.484,364.099,402.278,363.465,402.278L363.465,402.278z"/>
<path fill="#E9EAEB" d="M383.415,407.008l-0.79,0.08c-1.016,0-2.027-0.148-3-0.44c-0.806-0.222-1.59-0.52-2.34-0.89
	c-0.374,1.193-0.854,2.351-1.43,3.46c-0.688,1.347-1.48,2.637-2.37,3.86c-0.94,1.301-1.98,2.528-3.11,3.67
	c-1.08,1.107-2.301,2.068-3.63,2.86c-0.839,0.426-1.76,0.668-2.7,0.71c-1.333,0-2-0.76-2-2.28c0.028-0.678,0.139-1.35,0.33-2
	c0.294-0.977,0.655-1.933,1.08-2.86c0.49-1.085,1.052-2.138,1.681-3.149c0.658-1.043,1.379-2.045,2.159-3
	c0.758-0.949,1.599-1.829,2.51-2.63c0.845-0.786,1.798-1.446,2.83-1.959c0.921-0.444,1.929-0.677,2.95-0.68
	c0.44-0.041,0.877,0.108,1.2,0.41c0.256,0.292,0.453,0.632,0.58,1c-0.011,0.193-0.011,0.387,0,0.58c0.012,0.237,0.012,0.474,0,0.71
	c0.002,0.183-0.024,0.365-0.08,0.54l0.6,0.46c0.32,0.25,0.678,0.445,1.061,0.58c0.625,0.282,1.279,0.496,1.95,0.64
	c0.559,0.121,1.128,0.184,1.699,0.19c0.44,0.006,0.879-0.073,1.29-0.23c0.289-0.103,0.566-0.233,0.83-0.39v0.25
	C384.328,406.768,383.882,406.942,383.415,407.008z M376.545,402.588c-0.237-0.261-0.577-0.404-0.93-0.39
	c-0.932,0.062-1.815,0.436-2.51,1.06c-0.995,0.799-1.907,1.697-2.721,2.68c-0.956,1.14-1.841,2.339-2.649,3.59
	c-0.86,1.333-1.627,2.596-2.3,3.79c-0.674,1.193-1.247,2.28-1.72,3.26c-0.341,0.644-0.631,1.312-0.871,2
	c-0.045,0.163-0.071,0.331-0.079,0.5c-0.032,0.601,0.431,1.114,1.031,1.146c0.101,0.005,0.2-0.003,0.298-0.026
	c0.446-0.01,0.888-0.087,1.311-0.23c0.559-0.189,1.084-0.462,1.561-0.81c1.392-0.999,2.679-2.138,3.839-3.399
	c1.176-1.267,2.237-2.635,3.171-4.09c0.869-1.336,1.593-2.761,2.159-4.25c0.496-1.255,0.764-2.59,0.79-3.94
	c-0.006-0.333-0.138-0.651-0.37-0.89H376.545z"/>
<path fill="#E9EAEB" d="M396.025,416.627c-0.746,0.721-1.541,1.39-2.38,2c-0.733,0.525-1.526,0.965-2.359,1.31
	c-0.785,0.318-1.624,0.481-2.47,0.48c-0.375-0.065-0.701-0.292-0.891-0.62c-0.249-0.412-0.371-0.889-0.351-1.37
	c0.061-1.109,0.364-2.192,0.891-3.17c0.639-1.31,1.347-2.585,2.12-3.82c0.812-1.333,1.637-2.62,2.47-3.86
	c0.714-1.061,1.365-2.163,1.95-3.3c0.21-0.351,0.324-0.751,0.329-1.16c0.009-0.241-0.058-0.478-0.189-0.68
	c-0.154-0.192-0.395-0.294-0.64-0.27c-0.275,0.015-0.544,0.086-0.79,0.21c-0.397,0.197-0.772,0.435-1.12,0.71
	c-0.746,0.606-1.521,1.29-2.319,2.05c-0.801,0.76-1.567,1.527-2.301,2.3c-0.72,0.8-1.387,1.597-2,2.39s-1.133,1.507-1.56,2.14
	c-0.887,1.333-1.757,2.736-2.61,4.21c-0.853,1.473-1.739,2.876-2.66,4.209h-2.239l11.449-18.54h2.28l-3.9,6.43
	c1.221-1.333,2.388-2.523,3.5-3.57c0.796-0.754,1.634-1.461,2.511-2.12c0.286-0.212,0.599-0.387,0.93-0.52
	c0.295-0.121,0.61-0.186,0.93-0.19c0.387,0.008,0.752,0.183,1,0.48c0.349,0.517,0.504,1.14,0.44,1.76
	c-0.038,0.631-0.216,1.246-0.521,1.8c-0.397,0.792-0.841,1.561-1.33,2.3l-1.72,2.63c-0.606,0.927-1.18,1.86-1.72,2.8
	c-0.523,0.903-0.975,1.846-1.351,2.82c-0.34,0.843-0.522,1.741-0.539,2.65c-0.085,0.467,0.225,0.915,0.691,1
	c0.102,0.019,0.206,0.019,0.309,0c0.61-0.031,1.205-0.202,1.739-0.5c0.749-0.383,1.465-0.828,2.141-1.33
	c0.83-0.621,1.625-1.289,2.379-2c0.834-0.76,1.664-1.553,2.491-2.38v0.29C397.688,415.071,396.825,415.881,396.025,416.627z"/>
<path fill="#E9EAEB" d="M405.635,417.337c-1.288,0.888-2.624,1.706-4,2.45c-0.403,0.229-0.838,0.397-1.29,0.5
	c-0.449,0.109-0.908,0.166-1.37,0.17c-0.339,0.007-0.678-0.044-1-0.15c-0.26-0.082-0.471-0.271-0.58-0.52
	c-0.156-0.266-0.274-0.552-0.35-0.85c-0.103-0.372-0.153-0.755-0.15-1.14c0.065-1.477,0.491-2.916,1.24-4.189
	c0.993-1.8,1.837-3.28,2.53-4.44c0.692-1.16,1.293-2.16,1.799-3l1.37-2.2c0.4-0.667,0.808-1.393,1.221-2.18h2.279
	c-0.666,1.133-1.363,2.343-2.09,3.629s-1.499,2.62-2.319,4c-0.787,1.366-1.577,2.756-2.37,4.169c-0.793,1.414-1.547,2.824-2.26,4.23
	c-0.151,0.311-0.224,0.654-0.21,1c-0.022,0.516,0.229,1.006,0.659,1.29c0.171,0.071,0.356,0.098,0.54,0.08
	c0.399-0.007,0.796-0.064,1.181-0.17c0.35-0.073,0.687-0.198,0.999-0.37c0.667-0.36,1.334-0.767,2-1.22
	c0.667-0.454,1.374-0.917,2.121-1.39c0.666-0.473,1.332-0.957,1.999-1.45c0.571-0.462,1.112-0.96,1.62-1.49l0.13,0.12
	C408.23,415.401,406.989,416.449,405.635,417.337z M410.954,395.438c-0.215,0.164-0.479,0.252-0.75,0.25
	c-0.27-0.006-0.53-0.093-0.75-0.25c-0.222-0.167-0.346-0.433-0.33-0.71c-0.003-0.298,0.116-0.583,0.33-0.79
	c0.222-0.148,0.484-0.222,0.75-0.21c0.13-0.014,0.261-0.014,0.391,0c0.127,0.031,0.246,0.089,0.35,0.17
	c0.126,0.093,0.22,0.222,0.27,0.37c0.04,0.133,0.061,0.271,0.061,0.41C411.324,394.972,411.199,395.268,410.954,395.438z"/>
<path fill="#E9EAEB" d="M439.764,380.998c-0.847,1.38-1.786,2.907-2.82,4.58c-1.033,1.673-2.137,3.45-3.31,5.33
	c-1.2,1.88-2.416,3.803-3.65,5.77c-1.232,1.966-2.47,3.916-3.709,5.85l-3.641,5.55c-1.133,1.773-2.183,3.44-3.149,5l-2.53,4
	c-0.345,0.392-0.549,0.888-0.58,1.41c-0.018,0.471,0.251,0.906,0.681,1.1c0.497,0.244,1.046,0.364,1.6,0.35
	c0.796,0.007,1.584-0.171,2.3-0.52c0.723-0.368,1.396-0.829,2-1.37c0.685-0.601,1.329-1.246,1.93-1.93c0.667-0.72,1.334-1.454,2-2.2
	l0.17,0.46l-1.7,1.91c-0.617,0.698-1.286,1.35-1.999,1.95c-0.715,0.604-1.501,1.118-2.341,1.53c-0.859,0.418-1.804,0.63-2.76,0.62
	c-0.705,0.022-1.401-0.166-2-0.54c-0.609-0.474-0.925-1.234-0.829-2c0.021-0.422,0.099-0.839,0.229-1.24
	c0.212-0.672,0.483-1.325,0.81-1.95c-0.476,0.491-0.92,1.012-1.33,1.56c-0.511,0.667-1.059,1.304-1.64,1.91
	c-0.58,0.611-1.228,1.154-1.93,1.62c-0.636,0.438-1.388,0.674-2.16,0.68c-0.603,0.022-1.183-0.227-1.58-0.68
	c-0.429-0.594-0.634-1.32-0.58-2.05c0.027-1.02,0.202-2.031,0.521-3c0.371-1.194,0.85-2.352,1.43-3.46
	c0.637-1.218,1.372-2.382,2.2-3.479c0.823-1.091,1.755-2.096,2.78-3c0.955-0.861,2.03-1.582,3.189-2.14
	c1.071-0.525,2.247-0.802,3.439-0.81c0.512-0.011,1.019,0.11,1.47,0.351c0.488,0.293,0.846,0.762,1.001,1.31
	c0.913-1.333,1.886-2.776,2.92-4.33c1.033-1.553,2.076-3.15,3.13-4.79l3.13-4.87c1.033-1.62,2.013-3.163,2.939-4.63
	s1.771-2.8,2.53-4l1.931-3.13h1.949L439.764,380.998z M421.284,401.998c-0.935,0.04-1.839,0.341-2.61,0.87
	c-1.032,0.655-1.991,1.419-2.859,2.28c-1.014,0.99-1.949,2.057-2.8,3.19c-0.866,1.15-1.661,2.353-2.381,3.6
	c-0.666,1.137-1.229,2.332-1.68,3.57c-0.372,0.958-0.582,1.973-0.62,3c-0.022,0.363,0.096,0.721,0.33,1
	c0.245,0.23,0.575,0.349,0.91,0.33c0.896-0.021,1.758-0.341,2.45-0.91c0.874-0.68,1.665-1.458,2.36-2.32
	c0.82-1.004,1.582-2.056,2.279-3.15c0.747-1.16,1.467-2.3,2.16-3.42c0.693-1.12,1.359-2.163,2-3.13c0.51-0.827,1.113-1.592,1.8-2.28
	c0.076-0.194,0.134-0.395,0.17-0.6c0.014-0.187,0.014-0.374,0-0.56c0.084-0.735-0.444-1.399-1.18-1.483
	c-0.109-0.013-0.221-0.011-0.33,0.003V401.998z"/>
<path fill="#E9EAEB" d="M438.124,405.178c-0.669,0.772-1.442,1.445-2.3,2c-0.953,0.667-2.047,1.333-3.28,2
	c-1.233,0.667-2.51,1.42-3.83,2.26c-0.553,1.133-1.094,2.227-1.62,3.28c-0.483,0.893-0.755,1.886-0.79,2.9
	c-0.09,0.657,0.123,1.319,0.58,1.8c0.382,0.291,0.851,0.446,1.33,0.44c0.936-0.021,1.857-0.217,2.72-0.58
	c0.997-0.394,1.949-0.893,2.841-1.49c0.887-0.583,1.715-1.253,2.47-2c0.659-0.634,1.214-1.37,1.64-2.18l0.17,0.37
	c-0.498,0.922-1.136,1.762-1.891,2.49c-0.781,0.766-1.651,1.437-2.589,2c-0.914,0.556-1.887,1.009-2.9,1.35
	c-0.894,0.315-1.832,0.484-2.78,0.5c-0.744,0.029-1.467-0.25-2-0.77c-0.608-0.814-0.883-1.83-0.77-2.84
	c0.02-0.922,0.168-1.838,0.439-2.72c0.313-1.067,0.729-2.102,1.24-3.09c0.559-1.081,1.204-2.114,1.931-3.09
	c0.74-1.003,1.574-1.934,2.489-2.78c0.903-0.834,1.912-1.547,3-2.12c1.044-0.559,2.172-0.944,3.34-1.14h0.29
	c0.315-0.014,0.626,0.089,0.87,0.29c0.223,0.2,0.344,0.49,0.33,0.79C439.04,403.712,438.71,404.542,438.124,405.178z
	 M437.584,402.278c-0.704,0.012-1.393,0.205-2,0.56c-0.69,0.392-1.332,0.866-1.91,1.41c-0.616,0.577-1.185,1.202-1.7,1.87
	c-0.526,0.667-0.996,1.317-1.41,1.95c-0.36,0.543-0.694,1.104-1,1.68l-0.52,1c1.273-0.667,2.483-1.333,3.63-2
	c1.038-0.608,2.039-1.276,3-2c0.773-0.581,1.476-1.252,2.09-2c0.468-0.508,0.747-1.161,0.79-1.85c-0.007-0.414-0.313-0.62-0.92-0.62
	H437.584z"/>
<path fill="#E9EAEB" d="M452.083,416.167c-2.115,1.902-4.701,3.204-7.489,3.77c-1.34,0.273-2.703,0.411-4.07,0.41
	c-1.006,0.017-2.011-0.067-3-0.25c-0.802-0.164-1.452-0.75-1.699-1.53c-0.081-0.288-0.017-0.597,0.17-0.83
	c0.226,0.093,0.385,0.299,0.42,0.54c0.271,0.454,0.607,0.865,1,1.22c0.446,0.373,1.02,0.559,1.6,0.52
	c1.485,0.033,2.954-0.311,4.27-1c1.138-0.608,2.132-1.45,2.921-2.47c0.759-0.994,1.328-2.119,1.68-3.32
	c0.349-1.145,0.53-2.333,0.539-3.53c0.001-0.841-0.069-1.681-0.21-2.51c-0.124-0.757-0.298-1.505-0.52-2.24
	c-0.177-0.604-0.405-1.193-0.68-1.76c-0.19-0.41-0.443-0.788-0.75-1.12c-0.721,1.273-1.523,2.65-2.41,4.13s-1.8,2.91-2.739,4.29
	c-0.879,1.3-1.827,2.552-2.841,3.75c-0.774,0.958-1.691,1.791-2.72,2.47l-0.46-0.29c1.164-0.886,2.209-1.917,3.109-3.07
	c1.027-1.273,2.011-2.607,2.95-4c0.94-1.393,1.817-2.77,2.631-4.13c0.812-1.333,1.539-2.48,2.18-3.44h0.87l-0.12,0.46
	c1.119,1.29,1.979,2.784,2.53,4.4c0.481,1.417,0.734,2.903,0.749,4.4c0.073,1.739-0.32,3.465-1.14,5
	c-0.612,1.156-1.579,2.085-2.76,2.65c0.413-0.083,0.816-0.214,1.2-0.39c0.805-0.335,1.581-0.736,2.319-1.2
	c0.965-0.594,1.881-1.262,2.74-2c0.964-0.828,1.803-1.792,2.49-2.86l0.289,0.29C454.291,413.877,453.265,415.102,452.083,416.167z"
	/>
</svg>
