<svg xmlns="http://www.w3.org/2000/svg" xmlns:xlink="http://www.w3.org/1999/xlink" viewBox="0 0 310 505"><defs><style>.a{fill:none;}.b{clip-path:url(#a);}.c{opacity:0.7;}.d{fill:#f6f6f6;fill-rule:evenodd;}</style><clipPath id="a"><rect class="a" width="310" height="505"/></clipPath></defs><title>head</title><g class="b"><g class="c"><path class="d" d="M99.17,391.42c0.15-17.66,9.1-36.12,26-42.33-0.6,0-1.22,0-1.83,0a42.12,42.12,0,0,0-17.94,4.11c-20.12,9.69-23.87,35.43-17,54.66,5.77,16.13,20.08,28.11,37.37,37.09C107.43,429.34,99,413.82,99.17,391.42Zm88.26,58.12c2.77,17.14,3.73,19.3-37.31,8.41a285,285,0,0,0,32.68,10.5c12.23,3.28,13.55-.89,8.94-10.62C190.75,455.72,187.43,449.55,187.43,449.55Zm10.35-111.66c0.93-1.18.7-1.61,0.1-2.83a29.18,29.18,0,0,0-6.77-8.74A19.22,19.22,0,0,0,180,321.58c-4.86-.39-6.83.7-10.54,3.5-2.87,2.17-6.46,5.28-7.17,7.9-0.47,1.79.29,2.25,2,2.33,8,0.37,15.44,16.9,28.88,7A24.77,24.77,0,0,0,197.78,337.88Zm-15,2a16,16,0,0,1-4.2-2.14c-2.15-1.5-5.54-3.42-6.73-5.34-0.89-1.44,1.23-2.49,2.06-3.1,3.66-2.71,7-3.47,9-1.82a33,33,0,0,1,5.12,5.49C191.75,337.86,187,341,182.83,339.86Zm19.85,75.58c5.72,2.15,13.5,2.58,14.2-1.62-3.27-.29-9.57-1.09-11.66-5.31a1.4,1.4,0,0,0-1.05-1c-3.29-1.4-5.18-1.59-6.17.2a3.46,3.46,0,0,0,.13,3.66A8.76,8.76,0,0,0,202.67,415.44Zm-48.55,90.24c-0.11-2.8-.05-16.25,11.19-22.58l0.85,0.23c5.47,2.41,42,18.15,55.58,14.76-0.84-.34-2.69-1.54-2.54-3.15,0,0,12,2.32,15.07-.51A3.49,3.49,0,0,1,231,492.6s8.84-.67,11.92-3.76c0,0-7.66-13.8-8.38-29.31l-0.27.55a22.35,22.35,0,0,0-2-6.14c-4.76-9.39-6.36-19.53-5.88-30a112.86,112.86,0,0,1,1.11-12.08,41.85,41.85,0,0,1,1.83-7.59,38,38,0,0,0,1.89-5.72,17.15,17.15,0,0,0-1.84-11.1,27.58,27.58,0,0,0,8.13-10.33c3.73-7.8,2-17-2.86-23.9a11.15,11.15,0,0,0,1.74-6.22c-11.15-3.65-17.41-17.61-20.18-35q-1.54-9.75-3.41-19.45c-2.28-11.8-5.71-28.54-11.62-39-2.24-4-4.53-8.19-9.07-12.16-5.3-4.63-6.81-5-6.81-5s8.21-38.4,58.39-81.82c35.32-30.56,60.69-36.38,60.69-36.38s-3.92-4.94-5.06-6.29C286.59,96.89,272,82.32,258.78,71.73,166.19-2.52,48.22-13.87-49.13,42.13A285.53,285.53,0,0,0-147.61,136c-48,74.53-54.83,161.88-20.77,267l2.91,8.94c4.06,12.48,7.9,24.28,11.11,35.45,5.75,19.93,10,44.43,8.55,60.92a76.42,76.42,0,0,0-13.13,25.76c-11.29,38.85,4.25,85.86,38.68,117L-103.76,666l-10.39-19.67c-0.46-.86-45.25-86.93-2.9-116.73,13.93-9.81,31.24-10.61,46.32-2.18,24.85,13.91,38.05,48.1,35.32,91.45-7,111.3,66.2,150.1,76.31,151.32l11.62,1.39-8.43-8.12C-11.23,710.19-6.52,662.74-2,616.84c3.61-36.41,7-70.79-17.72-106.21-8.5-12.17-19.11-21-31.22-26.31,0.63,0,1.26-.09,1.8-0.17,16.27-4,67.65-19,96.68,2.22,52.63,38.46,67.65,20.3,67.65,20.3s20.89-27.58,26.22-29.94c0.85-.37,9.73,2.79,11.55,3.36-3.46,6.54-8.39,18.57-9.73,31.23,0,0,13.2,2.61,18.64,4.05,35.27,9.36,61,33.17,72.79,103l0.17,0.63c5.13,14.69,7.21,32.24,6.17,52.18-11.86,9-18.54,22.09-25.59,35.91-4.34,8.5-8.82,17.29-14.76,25.59-5.17,7.24-16.24,19.52-25.13,25.25,9.41-2,10.19-2.35,18.62-5.77a149.18,149.18,0,0,0,12.83-15c6.27-8.77,10.89-17.82,15.34-26.57,6.91-13.53,13.43-26.3,24.69-34.2l1.51-1.08,0.12-1.86c1.31-21.58-.83-40.67-6.38-56.72C230.63,548.08,205,515.63,154.12,505.69ZM220,348c2,3.2,3.84,4.75,6.4,7.4,5.82,6,6.3,13.65,4,18.38-3,6.33-8.48,11.45-13.61,7.7,6.7-2.3,1.44-4.43-.22-5.07-3.46-1.32-7.66-2.78-9.14,1.74-0.54,1.6-.42,2,1,3a6.15,6.15,0,0,0,4.6,1c-0.38,1.56-2.09,2.61-4.68,1.77-7.48-2-6.11-10.2-1.5-12.87a3.06,3.06,0,0,1,2.6-.66c2.65,0.67,4,.11,5.21-1.09a18,18,0,0,1-2.49-.87,16.23,16.23,0,0,0-8.83-2.2c-2,.05-2.62.55-3.76,2.13-5.1,7.09-2.73,13.3-1.2,15.55,2.93,4.32,9,4.72,14,4,6.12-.88,10,1.08,11,5.58,1.24,5.34-1.76,5.32-3.61,17.2a124.38,124.38,0,0,0-1.19,12.91c-0.49,10.42.84,22.25,6.71,33.83,3.52,6.95,1.33,14.24-9.93,7.27C209.13,451.2,204,440,199.86,429.1a25,25,0,0,0,12.94,3.12c-4.83-7.13-10-10.19-15.43-9.84C195,415.71,193,409,191.15,401.9c-5.22-20.64-9.34-37-22.62-54.9a50.34,50.34,0,0,0-24.07-17.91c10.76-22.09,23.28-29.62,34.82-28.41,7.79,0.82,14.19,4.81,20,11.32C207.82,321.45,213.46,337.36,220,348ZM-146.9,445.28c-3.26-11.3-7.12-23.15-11.2-35.7l-2.9-8.93c-33.29-102.8-26.78-188,19.91-260.44A277.89,277.89,0,0,1-45.27,48.85C49.26-5.53,163.9,5.56,253.93,77.78a258.68,258.68,0,0,1,34.32,32.65c-41.54,18.38-69.32,43.66-99.39,82.41a163.74,163.74,0,0,0-17.51-10.76c0.22-.42.44-0.85,0.7-1.35,1.37-2.63,3.42-6.34,6-10.76a323.22,323.22,0,0,1,20.6-31.23c2-2.72,4.22-5.35,6.29-8s4.31-5.07,6.46-7.44,4.29-4.59,6.39-6.65l6-5.64,5.41-4.41a52,52,0,0,1,4.38-3.16l3.9-2.66-4.07,2.4a51.8,51.8,0,0,0-4.59,2.87l-5.75,4.09-6.47,5.28c-2.25,1.92-4.49,4.1-6.89,6.28s-4.63,4.67-7,7.08-4.63,5-6.88,7.67a326.79,326.79,0,0,0-23,30.26c-2.88,4.32-5.22,8-6.8,10.57l-1,1.61a164.36,164.36,0,0,0-16-6.57c0.91-2.85,2.39-7.4,4.35-13.12,3.38-9.78,8.15-22.75,13.5-35.5,2.66-6.38,5.5-12.68,8.28-18.54l4.16-8.36c1.41-2.61,2.75-5.08,4-7.36s2.55-4.26,3.61-6.08,2.11-3.34,3-4.59l2.69-3.95-2.94,3.76c-0.93,1.2-2.09,2.63-3.26,4.39s-2.62,3.68-4,5.87L177.84,96l-4.73,8.12c-3.17,5.7-6.45,11.85-9.54,18.08-6.21,12.46-11.87,25.19-15.93,34.83-2.39,5.7-4.23,10.28-5.34,13.11a162.59,162.59,0,0,0-19.46-4.63c1.53-8.53,5.51-30.36,10.19-52.14,3-13.93,6.26-27.81,9.09-38.11,1.39-5.16,2.69-9.41,3.67-12.38l1.56-4.65s-0.67,1.65-1.86,4.54-2.74,7.08-4.47,12.16c-3.5,10.13-7.67,23.82-11.53,37.57-6.17,21.82-11.64,43.78-13.65,52a164.69,164.69,0,0,0-18.61-1.33L95.76,50.32,90.22,163.15A165.6,165.6,0,0,0,69.53,165L49.16,53.25,62.59,166.2A161.56,161.56,0,0,0,41.24,172L3.57,63.47l31,111A162.8,162.8,0,0,0,16,183.14L-41.57,85,9.84,186.67A164.64,164.64,0,0,0-7.52,198.83l-71.05-84.45,65.6,89A163.85,163.85,0,0,0-28,218.31l-83.33-63.77,78.72,69.17a164.16,164.16,0,0,0-13.18,18.73L-135,200.2l85.6,48.42a163.3,163.3,0,0,0-9.78,21.47l-87.9-20,85.58,26.79a162.76,162.76,0,0,0-5.45,22.27l-85-2.81,84,10a165.15,165.15,0,0,0-1.36,20.8c0,0.82.09,1.68,0.11,2.51l-75,12.82,75.33-5.64A159.86,159.86,0,0,0-65,359.56l-65.53,33.11,67.34-26.08a240.87,240.87,0,0,0,8.52,25.16l-55.57,51,71.76-55.95,10.6-8.52c4.88-4.41,8.27,1.69,12.94,6.5l-49.42,74.84c-1.07,1.8-12,14.73-17.8,15.72-20.39,3.47-42.68,9.82-55.78,24.07C-137.23,481.76-142.38,461-146.9,445.28Zm120.78,69.85c23.07,33,19.8,66,16.34,100.95-4.18,42.17-8.49,85.61,30.53,133.71C-1.48,731.31-32.1,691.15-27.58,619.39c2.93-46.45-11.77-83.38-39.32-98.8a52.07,52.07,0,0,0-25.48-6.82,50.47,50.47,0,0,0-29.19,9.43c-33.64,23.67-20.82,74.69-9.49,104.34-20.4-27.5-28.7-62.46-20.33-91.24,7.73-26.6,28.23-44,57.73-49.08C-74.09,483.88-46.47,486-26.12,515.12Zm26-99.26C-1,421.38-6.29,429.15-10.6,431.78c-1.92,1.16-3.87,2.4-5.84,3.67-3.56,2.31-5.07,5.37-2.14,9.8l3.35,5.05c-6,6.76-15,19.06-37.62,19.36l48.27-76.12C2.51,400.79,1.09,407.94-.15,415.87Zm-6.71-42.53c-6.31-8.74-10.81-32.76-10.81-46.28a112.32,112.32,0,0,1,185.19-85.48,27.58,27.58,0,0,1,7.43.33l0.63,0.21a0.8,0.8,0,0,0,0-.11c8,1.65,14.08,7.11,18.8,15.44,6.14,10.84,10.55,34.2,13.67,53.1-1-1.27-1.93-2.52-3-3.71-6.75-7.49-14.8-12.77-25-13.85-21.14-2.21-35.23,17.1-43.27,34.08a64.06,64.06,0,0,0-39.16,5.3c-17.64,8.49-27.58,23.9-31.37,40.8-13.54,1.7-25.06,13.38-29.22,28.75L12.92,413.82C12.89,395.81,7.52,381.42-6.86,373.34Zm74.46,38a130.45,130.45,0,0,0-22.36-.3h0c3.76-9.63,13.46-13.42,20.54-7.4A74,74,0,0,0,67.6,411.33ZM44.78,429.52c-11.12,1.09-22.17,5.08-33.14,12.23,0,0-3.6-4-2.5-5.43,3.06-4.1,20.46-11.88,32.59-13.08,8.83-.87,20.2-0.53,29.11,1.79a70.07,70.07,0,0,0,6.78,9.25A72.53,72.53,0,0,0,44.78,429.52ZM76.24,413c-9.14-25.52-3.55-60,24.78-73.65a57.58,57.58,0,0,1,24.6-5.63c13.47,0,27.18,5.07,36.68,17.91,12.36,16.72,16.12,31.59,21.34,52.2,5.7,22.59,14.13,41.42,26.33,67.57,2.2,4.7,2.64,8.82,1.15,10.73-1.36,1.75-4.83,2.24-9.51,1.35h0C128.31,469.58,88.48,447.19,76.24,413Zm-48.5-19.17c5.12-13.66,15.52-25.5,29.32-30.17,0.1-.32.2-0.64,0.32-1a70.71,70.71,0,0,1,18.87-29.4c-6.83-2.83-27.7-3.14-39.17,12.12-18.73-31.54-23.55-89.26,34.79-116.72A101,101,0,0,0-6.3,327.06c0,12,3.12,27.32,8.26,38.35,11.41,7.56,17.72,18.48,20.52,31ZM201.2,353.89c-2.62,2.6-7.53,9.18-7.47,13.31,5.15-8.73,12.37-8.17,16.57-7.61,5.58,0.74,9.61,3.34,13.67,6.88a11.87,11.87,0,0,0-3-5.71c-2.84-2.94-5.21-5.13-7.41-8.7-4.68-7.58-11.28-24.34-18.74-31.61C199.74,331.28,206.22,348.89,201.2,353.89Z"/></g></g></svg>