<?xml version="1.0" encoding="utf-8"?>
<!-- Generator: Adobe Illustrator 15.1.0, SVG Export Plug-In . SVG Version: 6.00 Build 0)  -->
<!DOCTYPE svg PUBLIC "-//W3C//DTD SVG 1.1//EN" "http://www.w3.org/Graphics/SVG/1.1/DTD/svg11.dtd">
<svg version="1.1" id="Layer_1" xmlns="http://www.w3.org/2000/svg" xmlns:xlink="http://www.w3.org/1999/xlink" x="0px" y="0px"
	 width="217px" height="112px" viewBox="188.98 377.073 217 112" enable-background="new 188.98 377.073 217 112"
	 xml:space="preserve">
<title>Texty-Decor</title>
<path fill="#E9EAEB" d="M259.224,377.979c0.952,0.104,1.893,0.29,2.812,0.559c0.973,0.285,1.915,0.666,2.812,1.137
	c0.923,0.482,1.75,1.127,2.443,1.905c0.742,0.852,1.323,1.832,1.715,2.892c0.468,1.308,0.69,2.69,0.658,4.078
	c-0.017,1.771-0.539,3.501-1.505,4.986c-1.061,1.661-2.412,3.117-3.989,4.298c-1.684,1.275-3.554,2.284-5.544,2.992
	c-2.014,0.749-4.144,1.134-6.292,1.137c-1.274-0.002-2.542-0.156-3.779-0.458c-1.302-0.322-2.549-0.836-3.7-1.526
	c-0.578,1.104-1.243,2.227-1.994,3.371c-0.751,1.144-1.502,2.254-2.253,3.331c-0.772,1.077-1.523,2.074-2.254,2.992
	c-0.73,0.917-1.396,1.695-1.994,2.333c0.52,1.305,0.801,2.693,0.828,4.099c0.016,0.984-0.167,1.96-0.539,2.872
	c-0.323,0.792-0.801,1.51-1.406,2.114c-0.558,0.552-1.218,0.989-1.944,1.286c-0.683,0.285-1.415,0.434-2.154,0.439
	c-0.771,0.007-1.532-0.179-2.214-0.539c-0.691-0.372-1.249-0.951-1.595-1.655l-1.944,1.237c-0.625,0.405-1.294,0.74-1.995,0.997
	c0.52,0.284,1.104,0.428,1.695,0.419c0.45-0.006,0.896-0.077,1.326-0.21c0.477-0.141,0.926-0.363,1.326-0.658
	c-0.356,0.421-0.822,0.735-1.346,0.907c-0.489,0.162-1.001,0.246-1.516,0.25c-0.412,0.005-0.823-0.035-1.227-0.12
	c-0.31-0.061-0.61-0.157-0.897-0.289c-2.047,1.045-4.195,1.877-6.412,2.483c-2.472,0.678-5.025,1.014-7.588,0.997
	c-1.426-0.006-2.848-0.116-4.258-0.329c-1.511-0.227-3-0.587-4.447-1.077c-1.466-0.492-2.879-1.131-4.218-1.904
	c-1.312-0.75-2.5-1.698-3.521-2.812c-1.017-1.117-1.836-2.398-2.423-3.789c-0.629-1.541-0.938-3.193-0.908-4.856
	c-0.003-2.133,0.531-4.232,1.556-6.103c1.034-1.917,2.406-3.633,4.048-5.065c1.664-1.458,3.558-2.63,5.604-3.47
	c1.962-0.834,4.071-1.271,6.203-1.287c1.455,0.003,2.901,0.211,4.298,0.619c1.389,0.392,2.698,1.023,3.869,1.864
	c1.145,0.828,2.097,1.892,2.792,3.122c0.742,1.349,1.113,2.869,1.077,4.407c0.007,1.375-0.282,2.736-0.848,3.989
	c-0.561,1.237-1.345,2.359-2.313,3.311c-0.994,0.977-2.139,1.789-3.391,2.403c-1.251,0.624-2.6,1.029-3.989,1.197
	c-1.812,0.099-3.601-0.441-5.056-1.526c-1.156-0.913-1.829-2.306-1.825-3.779c0.03-1.077,0.328-2.129,0.867-3.061
	c0.704-1.213,1.663-2.258,2.812-3.062c-1.047,0.809-1.914,1.828-2.543,2.992c-0.502,0.919-0.779,1.944-0.808,2.991
	c-0.011,1.325,0.575,2.585,1.596,3.431c1.411,1.048,3.154,1.547,4.906,1.406c1.278-0.167,2.517-0.559,3.66-1.157
	c1.14-0.584,2.186-1.337,3.101-2.233c0.888-0.863,1.617-1.875,2.153-2.992c0.533-1.118,0.809-2.341,0.808-3.58
	c0.027-1.455-0.316-2.893-0.998-4.178c-0.625-1.178-1.508-2.2-2.582-2.991c-1.106-0.799-2.345-1.394-3.66-1.755
	c-1.353-0.384-2.752-0.579-4.158-0.578c-1.329,0.005-2.651,0.193-3.929,0.558c-1.325,0.374-2.603,0.896-3.81,1.556
	c-1.223,0.671-2.367,1.477-3.41,2.403c-1.045,0.919-1.976,1.96-2.772,3.102c-0.783,1.123-1.41,2.348-1.864,3.639
	c-0.45,1.282-0.679,2.631-0.678,3.989c-0.053,2.196,0.574,4.355,1.794,6.182c1.222,1.779,2.814,3.272,4.667,4.378
	c1.925,1.165,4.017,2.029,6.203,2.562c2.15,0.552,4.361,0.837,6.581,0.848c2.44,0.013,4.872-0.278,7.24-0.867
	c2.093-0.504,4.107-1.296,5.983-2.354c-0.97-0.798-1.724-1.827-2.194-2.992c-0.399-1.031-0.609-2.125-0.618-3.231
	c-0.007-0.929,0.169-1.851,0.519-2.712c0.336-0.825,0.79-1.597,1.346-2.293c0.552-0.722,1.195-1.369,1.915-1.924
	c0.692-0.522,1.426-0.985,2.194-1.386c0.735-4.019,2.027-7.916,3.838-11.577c1.74-3.569,4.028-6.843,6.781-9.703
	c2.677-2.768,5.837-5.025,9.323-6.661c3.594-1.672,7.515-2.52,11.478-2.482C257.577,377.823,258.403,377.88,259.224,377.979z
	 M225.579,415.872c-0.281-1.348-0.421-2.722-0.419-4.099c0-0.465,0-0.921,0-1.366s0.043-0.901,0.129-1.366
	c-0.625,0.19-1.207,0.498-1.715,0.908c-0.655,0.504-1.239,1.094-1.735,1.755c-0.548,0.72-1.007,1.503-1.366,2.333
	c-0.365,0.819-0.555,1.706-0.559,2.603c-0.003,0.637,0.081,1.271,0.249,1.885c0.154,0.569,0.375,1.118,0.658,1.635
	c0.268,0.477,0.589,0.922,0.958,1.327c0.3,0.342,0.634,0.652,0.997,0.928c0.771-0.466,1.453-0.901,2.044-1.307l2.044-1.386
	c-0.58-1.226-1.015-2.514-1.296-3.839L225.579,415.872z M234.414,410.387c-0.34-0.39-0.737-0.726-1.177-0.997
	c-0.551-0.343-1.14-0.621-1.755-0.828c-0.753-0.245-1.542-0.363-2.333-0.349c-1.04,0.017-2.071,0.185-3.062,0.499
	c-0.086,0.431-0.143,0.868-0.169,1.307c0,0.452,0,0.914,0,1.386c0,1.398,0.147,2.792,0.439,4.158
	c0.244,1.242,0.685,2.438,1.306,3.54c0.911-0.718,1.689-1.383,2.333-1.994c0.645-0.611,1.244-1.203,1.795-1.775
	c0.552-0.592,1.077-1.213,1.576-1.865c0.498-0.651,1.05-1.39,1.655-2.214c-0.154-0.317-0.363-0.604-0.619-0.848L234.414,410.387z
	 M267.012,383.892c-0.507-1.19-1.286-2.246-2.273-3.082c-0.995-0.807-2.151-1.392-3.391-1.715c-1.369-0.366-2.781-0.547-4.198-0.539
	c-2.599-0.008-5.181,0.402-7.648,1.217c-2.459,0.808-4.805,1.928-6.98,3.33c-2.195,1.431-4.222,3.103-6.043,4.986
	c-1.834,1.871-3.484,3.915-4.926,6.103c-1.416,2.139-2.609,4.418-3.56,6.8c-0.925,2.245-1.594,4.586-1.994,6.98
	c0.523-0.185,1.064-0.315,1.615-0.389c0.493-0.065,0.989-0.099,1.486-0.1c0.803-0.007,1.602,0.104,2.374,0.329
	c0.692,0.195,1.361,0.466,1.994,0.808c0.499,0.27,0.958,0.605,1.366,0.998c0.289,0.27,0.535,0.583,0.729,0.927
	c0.552-0.745,1.167-1.612,1.845-2.603c0.678-0.991,1.343-2.024,1.995-3.102c0.665-1.077,1.329-2.144,1.994-3.201
	c0.665-1.057,1.224-2.054,1.676-2.991c-0.451-0.51-0.791-1.107-0.997-1.755c-0.251-0.725-0.375-1.487-0.369-2.254
	c0.021-1.113,0.261-2.211,0.708-3.231c0.549-1.248,1.343-2.374,2.334-3.311c1.298-1.21,2.77-2.218,4.367-2.992
	c2.16-1.061,4.436-1.867,6.781-2.403l0.169,0.169c-0.706,0.336-1.328,0.823-1.825,1.426c-0.734,0.825-1.417,1.694-2.044,2.603
	c-0.705,1.003-1.409,2.101-2.114,3.291c-0.705,1.19-1.369,2.353-1.994,3.49c-0.618,1.144-1.177,2.22-1.675,3.23
	c-0.499,1.011-0.897,1.845-1.197,2.503c1.08,0.71,2.259,1.254,3.5,1.615c1.135,0.326,2.31,0.494,3.49,0.499
	c2.003,0.002,3.988-0.37,5.854-1.097c1.812-0.689,3.496-1.673,4.986-2.912c1.404-1.164,2.587-2.573,3.49-4.158
	c0.857-1.461,1.314-3.122,1.326-4.816c0.042-1.588-0.25-3.168-0.857-4.637L267.012,383.892z M235.889,412.811
	c-0.417,0.642-0.895,1.243-1.426,1.795c-0.605,0.665-1.27,1.33-1.994,1.995c-0.725,0.665-1.476,1.313-2.253,1.944
	c-0.772,0.665-1.49,1.23-2.154,1.695c0.322,0.653,0.833,1.195,1.466,1.555c0.565,0.312,1.199,0.477,1.845,0.479
	c0.653-0.005,1.296-0.154,1.884-0.438c0.634-0.299,1.204-0.719,1.676-1.236c1.092-1.189,1.684-2.753,1.655-4.368
	c-0.007-1.174-0.251-2.333-0.718-3.411L235.889,412.811z M249.351,385.527c-1.335,0.779-2.577,1.709-3.699,2.772
	c-0.987,0.926-1.825,1.999-2.483,3.181c-0.575,1.003-0.887,2.135-0.907,3.291c-0.009,1.192,0.4,2.349,1.156,3.271
	c1.259-2.922,2.812-5.709,4.637-8.316c1.651-2.364,3.628-4.482,5.874-6.292c-1.602,0.542-3.143,1.25-4.598,2.114L249.351,385.527z"
	/>
<path fill="#E9EAEB" d="M259.413,413.15l-0.788,0.08c-1.014,0-2.021-0.147-2.992-0.439c-0.804-0.221-1.585-0.519-2.333-0.888
	c-0.374,1.19-0.851,2.344-1.426,3.451c-0.684,1.342-1.471,2.629-2.354,3.849c-0.937,1.298-1.974,2.522-3.102,3.66
	c-1.077,1.104-2.294,2.063-3.62,2.852c-0.836,0.426-1.755,0.667-2.692,0.708c-1.33,0-1.995-0.758-1.995-2.273
	c0.027-0.676,0.138-1.346,0.33-1.994c0.293-0.974,0.654-1.927,1.077-2.852c0.488-1.083,1.048-2.132,1.675-3.141
	c0.657-1.04,1.376-2.039,2.154-2.992c0.757-0.945,1.594-1.823,2.503-2.623c0.834-0.741,1.767-1.362,2.772-1.845
	c0.917-0.442,1.923-0.674,2.941-0.678c0.441-0.038,0.876,0.115,1.197,0.419c0.256,0.292,0.452,0.63,0.579,0.997
	c-0.011,0.193-0.011,0.386,0,0.579c0.013,0.236,0.013,0.472,0,0.708c0.002,0.183-0.025,0.364-0.08,0.538l0.598,0.459
	c0.319,0.249,0.676,0.444,1.057,0.578c0.624,0.281,1.275,0.495,1.944,0.639c0.558,0.12,1.125,0.183,1.696,0.189
	c0.439,0.005,0.876-0.072,1.286-0.229c0.288-0.103,0.565-0.233,0.828-0.389v0.099C260.298,412.885,259.868,413.069,259.413,413.15z
	 M252.562,408.742c-0.236-0.26-0.576-0.403-0.927-0.389c-0.929,0.063-1.811,0.435-2.503,1.057c-0.992,0.797-1.901,1.692-2.712,2.672
	c-0.957,1.137-1.843,2.333-2.652,3.58c-0.857,1.33-1.622,2.593-2.293,3.79c-0.671,1.196-1.253,2.276-1.745,3.24
	c-0.339,0.643-0.629,1.309-0.868,1.995c-0.045,0.162-0.072,0.33-0.08,0.498c-0.031,0.6,0.429,1.111,1.028,1.143
	c0.1,0.005,0.201-0.003,0.298-0.025c0.444-0.01,0.885-0.088,1.306-0.229c0.553-0.189,1.075-0.462,1.546-0.808
	c1.389-0.996,2.672-2.133,3.829-3.391c1.172-1.264,2.23-2.628,3.161-4.079c0.866-1.332,1.588-2.753,2.154-4.238
	c0.494-1.252,0.761-2.583,0.788-3.929c0.002-0.323-0.115-0.636-0.33-0.877V408.742z"/>
<path fill="#E9EAEB" d="M265.656,408.273h3.43l-0.458,0.458h-3.141l-1.925,2.992c-0.665,1.03-1.346,2.058-2.044,3.081l-1.995,2.992
	l-1.845,2.683c-0.333,0.499-0.634,0.981-0.907,1.446c-0.262,0.437-0.458,0.911-0.579,1.406c-0.128,0.192-0.213,0.41-0.249,0.638
	c-0.014,0.199-0.014,0.399,0,0.599c-0.003,0.229,0.03,0.459,0.1,0.678c0.078,0.225,0.181,0.438,0.309,0.639
	c0.153,0.146,0.348,0.241,0.559,0.269c0.253,0.043,0.511,0.063,0.768,0.061c0.417-0.002,0.832-0.052,1.236-0.149
	c0.345-0.079,0.679-0.196,0.998-0.35c2.165-0.924,4.218-2.087,6.123-3.47c1.392-0.965,2.586-2.187,3.521-3.6h0.289
	c-0.278,0.665-0.685,1.268-1.197,1.775c-0.665,0.681-1.385,1.305-2.154,1.865c-0.935,0.688-1.907,1.323-2.912,1.904
	c-1.09,0.665-2.253,1.286-3.49,1.864c-0.357,0.154-0.732,0.265-1.116,0.33c-0.438,0.08-0.882,0.12-1.327,0.119
	c-0.578,0.061-1.156-0.104-1.616-0.459c-0.676-0.572-1.045-1.429-0.997-2.313c0.123-1.878,0.769-3.685,1.865-5.215
	c0.964-1.602,1.998-3.221,3.101-4.856s2.22-3.297,3.351-4.986h-3.311v-0.459h3.62l4.986-7.648h1.995L265.656,408.273z"/>
<path fill="#E9EAEB" d="M285.141,421.676c-0.412,0.332-0.848,0.711-1.306,1.137s-0.955,0.848-1.486,1.267
	c-0.56,0.428-1.146,0.821-1.755,1.177c-0.654,0.38-1.346,0.69-2.064,0.927c-0.339,0.135-0.695,0.219-1.057,0.249
	c-0.346,0-0.678,0-0.997,0c-0.963,0.042-1.914-0.228-2.713-0.768c-0.683-0.47-1.081-1.255-1.057-2.084
	c0.003-0.381,0.037-0.761,0.1-1.137c0.073-0.435,0.236-0.849,0.479-1.217l5.983-9.513c0.459-0.604,0.757-1.314,0.868-2.064
	c0.021-0.297-0.131-0.58-0.389-0.728c-0.223-0.137-0.47-0.228-0.729-0.269c-0.598-0.009-1.195,0.061-1.775,0.209
	c-0.435,0.114-0.851,0.288-1.237,0.519c-0.302,0.183-0.58,0.404-0.827,0.658c-0.22,0.24-0.409,0.449-0.579,0.638
	c-0.412,0.665-0.894,1.493-1.446,2.483c-0.552,0.99-1.2,2.087-1.944,3.291c-0.791,1.238-1.646,2.433-2.563,3.58
	c-0.982,1.23-2.092,2.354-3.311,3.351l-0.249-0.409c1.202-1.069,2.304-2.248,3.291-3.52c1.034-1.315,2-2.684,2.892-4.099
	c0.871-1.376,1.622-2.659,2.254-3.849s1.1-2.114,1.406-2.772c0.246-0.525,0.458-1.007,0.638-1.446
	c0.159-0.395,0.338-0.781,0.539-1.157c0.145-0.289,0.341-0.548,0.579-0.768c0.213-0.182,0.487-0.278,0.768-0.269
	c0.384,0.021,0.722,0.262,0.868,0.618c-0.019,0.181-0.1,0.351-0.229,0.479c-0.163,0.19-0.336,0.37-0.519,0.539
	c-0.188,0.172-0.361,0.359-0.519,0.559c-0.134,0.149-0.215,0.338-0.229,0.539c-0.011,0.096-0.011,0.193,0,0.289
	c0.017,0.092,0.058,0.178,0.12,0.249l0.997-0.149c0.351-0.042,0.704-0.063,1.057-0.06c0.657-0.014,1.307,0.144,1.884,0.459
	c0.521,0.271,0.835,0.82,0.808,1.406c-0.107,0.938-0.45,1.833-0.997,2.603c-0.831,1.436-1.705,2.905-2.623,4.408
	s-1.835,3.042-2.752,4.617c-0.5,0.741-0.812,1.594-0.908,2.483c-0.041,0.521,0.184,1.027,0.598,1.346
	c0.485,0.316,1.058,0.47,1.635,0.439c0.333,0.001,0.667-0.02,0.998-0.061c0.342-0.05,0.677-0.141,0.997-0.269
	c0.597-0.229,1.171-0.513,1.715-0.849c0.619-0.372,1.24-0.784,1.865-1.236s1.203-0.914,1.735-1.386
	c0.539-0.472,0.974-0.871,1.307-1.196L285.141,421.676z"/>
<path fill="#E9EAEB" d="M297.954,411.335c-0.666,0.77-1.438,1.441-2.293,1.994c-0.951,0.665-2.041,1.33-3.271,1.994
	c-1.23,0.665-2.497,1.423-3.799,2.274c-0.552,1.13-1.09,2.22-1.616,3.271c-0.483,0.89-0.752,1.88-0.788,2.892
	c-0.09,0.655,0.123,1.315,0.578,1.795c0.381,0.29,0.848,0.444,1.327,0.438c0.933-0.021,1.853-0.217,2.712-0.578
	c0.994-0.394,1.943-0.892,2.832-1.485c0.885-0.582,1.709-1.251,2.463-1.995c0.658-0.632,1.21-1.366,1.635-2.173l0.17,0.369
	c-0.497,0.92-1.132,1.757-1.885,2.483c-0.78,0.764-1.647,1.433-2.583,1.994c-0.911,0.554-1.881,1.005-2.892,1.346
	c-0.892,0.314-1.828,0.482-2.772,0.499c-0.742,0.027-1.462-0.25-1.995-0.768c-0.606-0.812-0.881-1.825-0.767-2.832
	c0.019-0.92,0.167-1.833,0.438-2.713c0.312-1.064,0.726-2.096,1.237-3.081c0.552-1.066,1.188-2.087,1.904-3.051
	c0.739-1,1.57-1.928,2.483-2.772c0.901-0.832,1.907-1.542,2.992-2.114c1.041-0.558,2.166-0.942,3.33-1.137h0.29
	c0.315-0.014,0.625,0.089,0.868,0.289c0.222,0.2,0.343,0.489,0.329,0.788C298.858,409.906,298.529,410.714,297.954,411.335z
	 M297.416,408.443c-0.702,0.012-1.389,0.204-1.994,0.559c-0.688,0.391-1.328,0.863-1.905,1.406
	c-0.614,0.575-1.181,1.199-1.695,1.865c-0.525,0.665-0.994,1.313-1.406,1.945c-0.36,0.541-0.693,1.1-0.997,1.675l-0.519,0.997
	c1.27-0.665,2.476-1.33,3.62-1.995c1.035-0.606,2.034-1.272,2.992-1.994c0.772-0.58,1.472-1.249,2.084-1.994
	c0.467-0.506,0.746-1.158,0.788-1.845C298.376,408.649,298.054,408.443,297.416,408.443z"/>
<path fill="#E9EAEB" d="M326.484,384.181c-0.039,0.276-0.109,0.547-0.209,0.808c-0.742,2.072-1.747,4.039-2.991,5.854
	c-1.396,2.111-2.953,4.111-4.657,5.983c-1.805,1.981-3.727,3.852-5.754,5.604c-1.979,1.723-4.049,3.337-6.202,4.836l-1.944,2.992
	c0.337-0.327,0.729-0.594,1.156-0.788c0.364-0.162,0.758-0.247,1.157-0.25c0.696-0.007,1.357,0.305,1.794,0.848
	c0.521,0.681,0.78,1.527,0.729,2.383c-0.019,1.163-0.214,2.316-0.578,3.42c-0.406,1.274-0.955,2.499-1.636,3.649
	c-0.714,1.217-1.553,2.357-2.503,3.4c-0.929,1.032-1.984,1.944-3.142,2.713c1.766-0.125,3.498-0.543,5.126-1.237
	c1.398-0.602,2.673-1.457,3.76-2.522l0.289,0.289c-0.6,0.723-1.33,1.325-2.154,1.775c-0.954,0.541-1.955,0.995-2.991,1.355
	c-1.09,0.387-2.211,0.677-3.351,0.868c-1.08,0.191-2.174,0.291-3.271,0.299c-0.864,0.015-1.71-0.24-2.423-0.728
	c-0.728-0.528-1.128-1.397-1.057-2.294c0.047-1.099,0.322-2.175,0.808-3.161c0.662-1.433,1.415-2.822,2.253-4.159l3.41-5.524
	c1.037-1.668,1.994-3.228,2.872-4.677s1.726-2.829,2.543-4.138l2.423-3.889c0.798-1.283,1.632-2.586,2.503-3.909
	c0.871-1.323,1.802-2.729,2.792-4.218c0.764-1.103,1.625-2.134,2.572-3.082c0.849-0.881,1.755-1.704,2.713-2.463
	c0.795-0.639,1.653-1.194,2.562-1.655c0.643-0.352,1.354-0.557,2.085-0.599c0.365-0.02,0.724,0.106,0.997,0.349
	c0.274,0.312,0.408,0.723,0.368,1.137C326.532,383.697,326.516,383.94,326.484,384.181z M308.425,410.547
	c-0.334-0.452-0.864-0.715-1.426-0.708c-0.562,0.029-1.106,0.208-1.575,0.519c-0.674,0.437-1.251,1.007-1.696,1.675l-3.64,5.125
	c-0.946,1.218-1.681,2.587-2.173,4.049c-0.241,0.78-0.388,1.587-0.438,2.403c-0.062,0.478,0.109,0.955,0.458,1.286
	c0.34,0.231,0.746,0.347,1.157,0.329c0.722-0.003,1.432-0.188,2.063-0.538c1.171-0.596,2.232-1.385,3.141-2.334
	c0.892-0.929,1.675-1.956,2.334-3.061c0.641-1.07,1.162-2.207,1.556-3.391c0.369-1.096,0.633-2.225,0.788-3.371
	c0.052-0.702-0.135-1.401-0.529-1.984H308.425z M325.876,382.526c-0.105-0.184-0.309-0.289-0.52-0.269
	c-0.473,0.057-0.926,0.22-1.325,0.479c-0.79,0.49-1.503,1.095-2.114,1.795c-0.948,1.025-1.838,2.104-2.663,3.231
	c-0.924,1.243-1.854,2.573-2.792,3.989s-1.861,2.829-2.772,4.238c-0.91,1.436-1.765,2.802-2.562,4.099l-2.193,3.56l-1.615,2.603
	c4.28-3.098,8.156-6.719,11.537-10.78c1.446-1.74,2.778-3.572,3.988-5.484c1.069-1.682,2.016-3.438,2.832-5.255
	c0.209-0.482,0.321-1.001,0.33-1.526c0.022-0.232-0.015-0.466-0.11-0.678H325.876z"/>
<path fill="#E9EAEB" d="M356.49,472.612c-0.693,1.98-1.686,3.843-2.941,5.524c-1.252,1.666-2.744,3.139-4.428,4.367
	c-1.715,1.256-3.561,2.322-5.505,3.182c-1.976,0.884-4.042,1.554-6.162,1.994c-2.123,0.437-4.285,0.657-6.452,0.658
	c-1.708-0.017-3.41-0.19-5.086-0.52c-3.865-0.732-7.575-2.126-10.969-4.118c-1.691-0.983-3.249-2.18-4.637-3.56
	c-1.328-1.317-2.428-2.848-3.251-4.527c-1.738-3.723-1.616-8.048,0.329-11.667c1.002-1.774,2.36-3.322,3.989-4.547
	c1.662-1.238,3.523-2.183,5.504-2.792c1.959-0.641,4.003-0.977,6.063-0.998c1.593-0.003,3.182,0.171,4.736,0.52
	c1.437,0.312,2.832,0.789,4.158,1.426c1.161,0.552,2.223,1.293,3.142,2.193c0.804,0.771,1.389,1.741,1.694,2.812
	c-0.489-1.022-1.186-1.933-2.044-2.673c-0.94-0.81-1.991-1.481-3.121-1.994c-1.243-0.572-2.548-0.997-3.889-1.267
	c-1.431-0.293-2.888-0.44-4.349-0.438c-1.951,0.01-3.89,0.31-5.753,0.888c-1.92,0.573-3.735,1.452-5.375,2.603
	c-1.607,1.123-2.965,2.565-3.989,4.237c-1.054,1.747-1.593,3.755-1.556,5.794c-0.024,1.879,0.371,3.738,1.157,5.444
	c0.768,1.635,1.81,3.126,3.081,4.408c1.321,1.325,2.81,2.472,4.428,3.41c1.665,0.974,3.417,1.789,5.235,2.434
	c1.783,0.638,3.618,1.121,5.484,1.445c1.698,0.306,3.42,0.467,5.146,0.479c3.267,0.025,6.515-0.49,9.612-1.525
	c2.862-0.947,5.512-2.444,7.799-4.407c2.219-1.931,4.004-4.31,5.235-6.98c1.316-2.923,1.974-6.099,1.924-9.304
	c0.048-2.978-0.559-5.928-1.774-8.646c-1.171-2.545-2.781-4.864-4.757-6.851c-2.046-2.043-4.373-3.782-6.911-5.166
	c-2.622-1.45-5.377-2.648-8.227-3.58c-5.518-1.794-11.279-2.729-17.082-2.772c-0.99,0-1.971,0.021-2.941,0.061
	c-0.97,0.04-1.935,0.116-2.892,0.229c-0.991,1.156-2.177,2.646-3.56,4.468c-1.383,1.82-2.919,3.815-4.607,5.982
	c-1.695,2.194-3.543,4.484-5.544,6.871c-2.001,2.387-4.131,4.743-6.392,7.07c-2.261,2.333-4.624,4.554-7.09,6.66
	c-2.404,2.065-4.976,3.927-7.688,5.565c-2.582,1.563-5.327,2.841-8.187,3.809c-2.753,0.93-5.639,1.404-8.546,1.406
	c-2.198,0.121-4.373-0.513-6.162-1.795c-1.52-1.197-2.366-3.055-2.274-4.986c0-1.994,0.815-4.364,2.443-7.109
	c1.729-2.863,3.87-5.457,6.352-7.699c2.729-2.5,5.669-4.763,8.785-6.761c3.287-2.114,6.715-4,10.261-5.644
	c3.526-1.648,7.137-3.106,10.819-4.368c3.431-1.178,6.927-2.157,10.471-2.932c3.015-0.681,6.079-1.118,9.164-1.306l7.978-12.535
	c-0.473,0.279-0.888,0.499-1.247,0.658c-0.321,0.15-0.655,0.273-0.997,0.369c-0.282,0.081-0.573,0.131-0.867,0.149h-0.827
	c-0.827,0.063-1.633-0.283-2.154-0.928c-0.499-0.706-0.747-1.559-0.708-2.423c0.024-1.019,0.206-2.028,0.538-2.992
	c0.397-1.198,0.94-2.344,1.615-3.41l5.256-8.566h2.063l-7.857,13.282c-0.288,0.385-0.479,0.833-0.559,1.307
	c-0.088,0.413-0.138,0.834-0.149,1.256c-0.02,0.583,0.18,1.152,0.559,1.596c0.408,0.443,0.994,0.678,1.596,0.639
	c1.031-0.104,2.006-0.521,2.791-1.197c1.416-1.148,2.661-2.491,3.7-3.988l7.778-12.904h2.113c-1.329,2.347-2.735,4.74-4.217,7.18
	c-1.483,2.439-3.012,4.929-4.588,7.469c-1.556,2.493-3.128,4.996-4.717,7.509l-4.696,7.409c1.682-0.166,3.344-0.249,4.985-0.249
	c3.366,0,6.727,0.264,10.052,0.787c3.242,0.499,6.432,1.286,9.533,2.354c2.94,1.022,5.763,2.36,8.417,3.989
	c2.506,1.515,4.771,3.397,6.721,5.584c1.89,2.138,3.395,4.588,4.447,7.239c1.102,2.828,1.65,5.841,1.615,8.875
	C357.559,468.301,357.205,470.51,356.49,472.612z M301.764,439.256c-3.083,0.562-6.13,1.308-9.125,2.233
	c-3.465,1.062-6.87,2.312-10.201,3.739c-3.58,1.529-7.043,3.319-10.361,5.355c-3.408,2.088-6.634,4.459-9.643,7.09
	c-3.021,2.649-5.701,5.664-7.978,8.976c-0.753,1.003-1.349,2.116-1.765,3.3c-0.331,0.987-0.505,2.021-0.519,3.062
	c-0.059,1.678,0.623,3.298,1.865,4.428c1.513,1.223,3.434,1.827,5.375,1.695c2.613-0.004,5.207-0.438,7.679-1.286
	c2.591-0.885,5.081-2.041,7.429-3.45c2.498-1.5,4.869-3.2,7.09-5.086c2.3-1.941,4.527-4.002,6.682-6.183
	c2.153-2.181,4.208-4.421,6.162-6.722c1.961-2.3,3.809-4.547,5.545-6.74c1.734-2.194,3.347-4.255,4.836-6.183
	s2.842-3.623,4.059-5.086C306.501,438.531,304.119,438.817,301.764,439.256L301.764,439.256z"/>
<path fill="#E9EAEB" d="M374.19,386.515c-0.698,1.449-1.512,2.84-2.434,4.158c-1.108,1.604-2.296,3.152-3.56,4.637
	c-1.33,1.603-2.735,3.155-4.218,4.657c-1.483,1.502-2.966,2.895-4.448,4.178c-1.348,1.166-2.763,2.251-4.238,3.25
	c-0.265,0.696-0.599,1.364-0.996,1.995c-0.525,0.897-1.091,1.828-1.695,2.792c-0.605,0.964-1.19,1.868-1.755,2.712
	c-0.565,0.844-0.944,1.43-1.138,1.755c-0.362,0.571-0.779,1.105-1.246,1.595c-0.516,0.558-1.099,1.051-1.735,1.466
	c0.27,0.026,0.508,0.183,0.639,0.419c0.161,0.276,0.279,0.575,0.349,0.888c0.08,0.346,0.149,0.711,0.209,1.097
	c0.061,0.386,0.117,0.718,0.17,0.997l0.249,0.997c0.073,0.347,0.19,0.682,0.35,0.997c0.133,0.269,0.315,0.509,0.538,0.708
	c0.214,0.183,0.488,0.278,0.768,0.27c1.011,0.023,1.997-0.305,2.793-0.927c0.795-0.63,1.512-1.354,2.134-2.154
	c0.665-0.812,1.257-1.596,1.774-2.354c0.442-0.668,1.055-1.205,1.775-1.556h0.459c-0.827,0.44-1.535,1.073-2.064,1.845
	c-0.578,0.812-1.177,1.626-1.795,2.443c-0.614,0.808-1.332,1.532-2.134,2.153c-0.899,0.651-1.992,0.978-3.102,0.928
	c-0.8-0.019-1.552-0.383-2.063-0.997c-0.604-0.683-0.957-1.553-0.998-2.463c0-0.332-0.02-0.665-0.06-0.997
	c-0.01-0.304-0.036-0.607-0.08-0.908c-0.032-0.218-0.089-0.433-0.169-0.638c-0.049-0.151-0.19-0.252-0.35-0.25
	c-0.203,0.017-0.395,0.105-0.538,0.25l-0.289-0.289c0.499-0.525,0.921-0.987,1.267-1.386s0.642-0.765,0.887-1.097
	c0.246-0.332,0.473-0.665,0.679-0.997s0.405-0.665,0.598-0.997c1.655-2.732,3.317-5.468,4.986-8.207
	c1.669-2.739,3.231-5.352,4.688-7.838c1.555-2.539,3.064-4.926,4.526-7.16c1.463-2.233,2.829-4.191,4.099-5.874
	c0.445-0.563,0.929-1.097,1.446-1.596c0.568-0.554,1.179-1.063,1.824-1.525c0.591-0.428,1.215-0.808,1.865-1.137
	c0.496-0.275,1.049-0.432,1.615-0.458c0.336-0.006,0.663,0.103,0.928,0.309c0.276,0.254,0.42,0.622,0.389,0.997
	C375.029,384.359,374.722,385.488,374.19,386.515z M374.419,382.526c-0.133-0.222-0.381-0.35-0.639-0.329
	c-0.463,0.062-0.9,0.249-1.267,0.539c-0.729,0.535-1.396,1.146-1.994,1.825c-0.484,0.543-0.934,1.116-1.346,1.715
	c-0.665,0.897-1.43,1.988-2.294,3.271c-0.864,1.283-1.818,2.656-2.862,4.118c-1.023,1.516-2.021,3.031-2.991,4.547
	c-0.971,1.516-1.895,2.955-2.772,4.317c-0.871,1.363-1.595,2.513-2.174,3.45c1.489-1.05,2.985-2.224,4.487-3.52
	c1.503-1.296,2.936-2.656,4.298-4.079c1.363-1.423,2.64-2.855,3.829-4.298c1.105-1.338,2.141-2.733,3.102-4.178
	c0.794-1.178,1.484-2.423,2.064-3.72c0.441-0.911,0.695-1.901,0.748-2.912c-0.001-0.268-0.065-0.531-0.189-0.768V382.526z"/>
<path fill="#E9EAEB" d="M369.911,414.765c-1.329,2.26-2.799,4.507-4.407,6.741c-0.426,0.545-0.78,1.142-1.058,1.775
	c-0.167,0.408-0.258,0.845-0.269,1.286c0.001,0.241,0.042,0.48,0.12,0.708c0.298,0.516,0.85,0.832,1.445,0.828
	c0.896-0.077,1.749-0.425,2.443-0.998c0.785-0.525,1.537-1.098,2.254-1.715c0.664-0.565,1.376-1.15,2.134-1.755l0.289,0.289
	l-1.196,0.997l-1.217,0.997l-1.157,0.928l-0.927,0.728c-0.47,0.269-0.969,0.482-1.486,0.639c-0.389,0.117-0.791,0.181-1.197,0.189
	c-0.36,0.009-0.721-0.056-1.057-0.189c-0.287-0.121-0.547-0.298-0.768-0.519c-0.309-0.285-0.53-0.651-0.639-1.058
	c-0.123-0.41-0.187-0.837-0.189-1.266c-0.016-0.491,0.055-0.98,0.21-1.446c-0.306,0.386-0.595,0.744-0.868,1.077
	c-0.273,0.328-0.57,0.639-0.887,0.928c-0.343,0.309-0.702,0.598-1.077,0.867c-0.447,0.319-0.909,0.615-1.386,0.888l-1.197,0.438
	c-0.399,0.146-0.821,0.223-1.246,0.229c-0.363,0.029-0.723-0.089-0.997-0.329c-0.411-0.547-0.616-1.222-0.578-1.905
	c0.03-1.363,0.43-2.694,1.156-3.849l8.147-12.325h2.063c-0.278,0.472-0.734,1.19-1.366,2.154c-0.631,0.964-1.355,2.054-2.173,3.271
	l-2.563,3.849c-0.897,1.33-1.731,2.612-2.503,3.849l-0.578,0.888c-0.22,0.346-0.433,0.704-0.638,1.077
	c-0.196,0.347-0.369,0.707-0.52,1.076c-0.121,0.268-0.191,0.555-0.209,0.848c-0.066,0.547,0.323,1.044,0.87,1.11
	c0.042,0.005,0.085,0.007,0.127,0.007c0.385-0.012,0.764-0.097,1.116-0.249c0.402-0.159,0.789-0.353,1.157-0.579
	c0.91-0.547,1.738-1.218,2.463-1.994c0.731-0.784,1.359-1.509,1.885-2.174l8.437-13.113h2.114
	C372.608,410.238,371.248,412.505,369.911,414.765z"/>
<path fill="#E9EAEB" d="M403.915,387.223c-0.844,1.376-1.781,2.898-2.812,4.567c-1.03,1.668-2.147,3.44-3.351,5.315
	c-1.196,1.875-2.41,3.792-3.64,5.754c-1.229,1.961-2.463,3.905-3.699,5.833l-3.561,5.544c-1.13,1.762-2.177,3.424-3.141,4.986
	l-2.523,3.988c-0.344,0.392-0.548,0.886-0.578,1.406c-0.018,0.47,0.25,0.903,0.678,1.097c0.496,0.243,1.044,0.363,1.596,0.35
	c0.794,0.007,1.579-0.171,2.294-0.519c0.721-0.367,1.391-0.827,1.994-1.366c0.682-0.6,1.325-1.242,1.924-1.925
	c0.665-0.718,1.33-1.449,1.995-2.194l0.169,0.458c-0.524,0.579-1.09,1.214-1.694,1.905c-0.616,0.696-1.283,1.346-1.995,1.944
	c-0.712,0.603-1.496,1.114-2.333,1.525c-0.857,0.417-1.8,0.628-2.752,0.618c-0.704,0.021-1.397-0.165-1.995-0.538
	c-0.608-0.473-0.922-1.23-0.827-1.994c0.021-0.421,0.099-0.837,0.229-1.237c0.211-0.67,0.481-1.321,0.808-1.944
	c-0.475,0.49-0.918,1.01-1.326,1.556c-0.511,0.664-1.057,1.3-1.636,1.905c-0.579,0.608-1.225,1.15-1.925,1.615
	c-0.634,0.437-1.384,0.672-2.153,0.678c-0.601,0.023-1.18-0.227-1.576-0.678c-0.428-0.592-0.633-1.316-0.578-2.044
	c0.027-1.018,0.202-2.025,0.519-2.992c0.37-1.19,0.848-2.346,1.427-3.45c0.635-1.215,1.368-2.375,2.193-3.47
	c0.821-1.087,1.75-2.09,2.771-2.992c0.954-0.858,2.025-1.577,3.182-2.134c1.068-0.523,2.24-0.8,3.43-0.808
	c0.511-0.011,1.016,0.109,1.467,0.349c0.486,0.293,0.843,0.76,0.997,1.307c0.91-1.33,1.881-2.769,2.911-4.318
	c1.03-1.549,2.071-3.141,3.121-4.777l3.122-4.856c1.037-1.616,2.018-3.151,2.941-4.607c0.924-1.456,1.765-2.786,2.522-3.989
	l1.925-3.122h1.944L403.915,387.223z M385.488,408.164c-0.932,0.04-1.833,0.341-2.603,0.868c-1.03,0.652-1.986,1.415-2.852,2.273
	c-1.011,0.988-1.944,2.051-2.793,3.181c-0.873,1.15-1.676,2.352-2.403,3.6c-0.665,1.114-1.229,2.286-1.685,3.5
	c-0.372,0.956-0.581,1.967-0.618,2.991c-0.023,0.362,0.095,0.72,0.329,0.997c0.244,0.229,0.572,0.349,0.907,0.329
	c0.893-0.021,1.754-0.34,2.443-0.907c0.871-0.678,1.661-1.453,2.354-2.313c0.818-1.001,1.577-2.05,2.273-3.141
	c0.744-1.157,1.463-2.293,2.154-3.41c0.69-1.117,1.355-2.157,1.994-3.122c0.508-0.825,1.109-1.588,1.795-2.273
	c0.076-0.193,0.133-0.394,0.169-0.598c0.014-0.186,0.014-0.373,0-0.559c0.054-0.736-0.5-1.376-1.236-1.429
	c-0.076-0.005-0.153-0.004-0.229,0.003V408.164z"/>
<path fill="#E9EAEB" d="M397.773,423.45c-1.284,0.886-2.616,1.701-3.988,2.443c-0.402,0.228-0.836,0.396-1.286,0.499
	c-0.447,0.108-0.906,0.165-1.366,0.169c-0.339,0.007-0.676-0.043-0.997-0.149c-0.259-0.081-0.47-0.27-0.578-0.519
	c-0.156-0.265-0.274-0.55-0.35-0.848c-0.098-0.37-0.145-0.753-0.14-1.137c0.062-1.473,0.487-2.908,1.236-4.178
	c0.991-1.795,1.832-3.271,2.523-4.427c0.691-1.157,1.289-2.154,1.795-2.992l1.365-2.194c0.399-0.665,0.805-1.389,1.217-2.174h2.273
	c-0.664,1.13-1.359,2.336-2.084,3.62s-1.495,2.613-2.312,3.989c-0.785,1.363-1.569,2.749-2.354,4.158
	c-0.784,1.41-1.535,2.815-2.253,4.219c-0.151,0.31-0.223,0.652-0.21,0.997c-0.021,0.515,0.229,1.003,0.658,1.286
	c0.17,0.07,0.355,0.098,0.539,0.08c0.397-0.008,0.793-0.064,1.177-0.17c0.349-0.072,0.685-0.196,0.997-0.369
	c0.665-0.358,1.329-0.765,1.994-1.216c0.665-0.453,1.37-0.915,2.114-1.387c0.665-0.466,1.312-0.947,1.944-1.446
	c0.561-0.471,1.09-0.977,1.585-1.515l0.12,0.129C400.315,421.503,399.1,422.554,397.773,423.45z M403.058,401.642
	c-0.214,0.165-0.478,0.252-0.748,0.249c-0.269-0.006-0.529-0.093-0.747-0.249c-0.222-0.166-0.345-0.432-0.329-0.708
	c-0.004-0.297,0.115-0.582,0.329-0.788c0.221-0.148,0.482-0.221,0.747-0.209c0.13-0.014,0.26-0.014,0.39,0
	c0.127,0.03,0.246,0.088,0.349,0.169c0.126,0.092,0.22,0.221,0.27,0.369c0.041,0.136,0.061,0.277,0.06,0.419
	C403.425,401.185,403.301,401.476,403.058,401.642z"/>
</svg>
