<?xml version="1.0" encoding="utf-8"?>
<!DOCTYPE svg PUBLIC "-//W3C//DTD SVG 1.1//EN" "http://www.w3.org/Graphics/SVG/1.1/DTD/svg11.dtd">
<svg version="1.1" id="Layer_1" xmlns="http://www.w3.org/2000/svg" xmlns:xlink="http://www.w3.org/1999/xlink" x="0px" y="0px"
	 width="96.562px" height="112.656px" viewBox="0 0 96.562 112.656" enable-background="new 0 0 96.562 112.656"
	 xml:space="preserve">
<g id="menu_1_">
	<g id="XMLID_8_">
		<g id="XMLID_1738_">
			<g id="XMLID_1865_">
				<g>
					<path id="XMLID_130_" fill="#A39475" d="M0.014,103.008V85.558H0.88v16.585h5.834v0.866H0.014z"/>
					<path id="XMLID_128_" fill="#A39475" d="M10.154,103.008V85.558h6.7v0.866H11.02v7.413h5.834v0.866H11.02v7.439h5.834v0.866
						H10.154z"/>
					<path id="XMLID_125_" fill="#A39475" d="M29.517,103.365c-5.019,0-9.094-4.05-9.094-9.069c0-5.019,4.076-9.095,9.094-9.095
						s9.07,4.076,9.07,9.095C38.587,99.314,34.536,103.365,29.517,103.365z M29.517,102.524c4.535,0,8.229-3.694,8.229-8.229
						c0-4.56-3.694-8.254-8.229-8.254c-4.56,0-8.254,3.694-8.254,8.254C21.263,98.83,24.958,102.524,29.517,102.524z"/>
					<path id="XMLID_123_" fill="#A39475" d="M44.042,88.538v14.47h-0.867V85.074l8.254,15.081V85.558h0.866v17.935L44.042,88.538z"
						/>
					<path id="XMLID_121_" fill="#A39475" d="M58.412,103.008V85.558h0.867v17.451H58.412z"/>
					<path id="XMLID_118_" fill="#A39475" d="M67.227,103.008h-1.834V85.558h1.834c4.815,0,8.713,3.923,8.713,8.738
						C75.94,99.11,72.042,103.008,67.227,103.008z M67.227,86.424h-0.968v15.718h0.968c4.331,0,7.847-3.516,7.847-7.847
						C75.074,89.939,71.558,86.424,67.227,86.424z"/>
					<path id="XMLID_116_" fill="#A39475" d="M80.528,103.008V85.558h6.7v0.866h-5.834v7.413h5.834v0.866h-5.834v7.439h5.834v0.866
						H80.528z"/>
					<path id="XMLID_114_" fill="#A39475" d="M91.841,103.263c-0.229,0-0.458-0.026-0.662-0.102v-0.918
						c0.255,0.077,0.484,0.102,0.662,0.102c2.293,0,3.77-1.681,3.77-3.923c0-1.757-0.917-2.878-1.859-4.05
						c-0.994-1.198-2.013-2.446-2.013-4.509c0-2.675,1.885-4.534,4.458-4.534h0.128v0.891h-0.128c-2.038,0-3.566,1.503-3.566,3.617
						c0,1.758,0.917,2.904,1.859,4.076c0.993,1.222,2.012,2.522,2.012,4.611C96.503,101.301,94.618,103.263,91.841,103.263z"/>
				</g>
			</g>
			<g id="XMLID_1740_">
				<g>
					<path id="XMLID_277_" fill="#A39475" d="M1.505,106.269v4.973H1.245v-4.973H0v-0.26h2.789v0.26H1.505z"/>
					<path id="XMLID_275_" fill="#A39475" d="M6.588,108.164H6.565c-0.344,0-0.672,0.214-0.802,0.504v2.575H5.503v-3.232h0.259
						v0.267c0.161-0.214,0.444-0.375,0.825-0.375V108.164z"/>
					<path id="XMLID_272_" fill="#A39475" d="M12.328,111.005c-0.291,0.214-0.642,0.344-1.031,0.344
						c-0.955,0-1.727-0.764-1.727-1.719c0-0.947,0.772-1.727,1.727-1.727c0.382,0,0.741,0.138,1.031,0.352v-0.244h0.259v3.232
						h-0.259V111.005z M12.328,108.591c-0.275-0.252-0.634-0.427-1.031-0.427c-0.802,0-1.467,0.664-1.467,1.467
						c0,0.802,0.664,1.459,1.467,1.459c0.398,0,0.756-0.168,1.031-0.427V108.591z"/>
					<path id="XMLID_270_" fill="#A39475" d="M16.594,108.278c0.16-0.214,0.444-0.375,0.825-0.375c0.55,0,0.985,0.405,0.985,1.069
						v2.269h-0.26v-2.269c0-0.534-0.336-0.809-0.725-0.809c-0.367,0-0.688,0.206-0.825,0.504v2.575h-0.259v-3.232h0.259V108.278z"/>
					<path id="XMLID_268_" fill="#A39475" d="M22.045,111.319c-0.046,0-0.1-0.008-0.123-0.016v-0.259
						c0.046,0.015,0.084,0.015,0.123,0.015c0.382,0,0.626-0.282,0.626-0.657c0-0.305-0.168-0.519-0.344-0.741
						c-0.183-0.237-0.382-0.481-0.382-0.879c0-0.519,0.367-0.863,0.848-0.863h0.023v0.252h-0.023c-0.329,0-0.588,0.237-0.588,0.603
						c0,0.314,0.168,0.519,0.336,0.733c0.191,0.244,0.389,0.489,0.389,0.894C22.93,110.929,22.571,111.319,22.045,111.319z"/>
					<path id="XMLID_266_" fill="#A39475" d="M27.54,108.271h-0.626v2.972h-0.26v-2.972h-0.55v-0.26h0.55v-1.207
						c0-0.52,0.367-0.802,0.795-0.802c0.022,0,0.053,0,0.091,0.007v0.275c-0.046-0.007-0.069-0.007-0.091-0.007
						c-0.298,0-0.535,0.198-0.535,0.527v1.207h0.626V108.271z"/>
					<path id="XMLID_263_" fill="#A39475" d="M30.636,109.631c0-0.947,0.771-1.727,1.726-1.727c0.955,0,1.727,0.764,1.727,1.719
						c0,0.947-0.771,1.727-1.727,1.727C31.408,111.349,30.636,110.585,30.636,109.631z M32.363,111.089
						c0.802,0,1.467-0.664,1.467-1.467c0-0.802-0.664-1.459-1.467-1.459c-0.802,0-1.467,0.664-1.467,1.467
						C30.896,110.432,31.561,111.089,32.363,111.089z"/>
					<path id="XMLID_261_" fill="#A39475" d="M38.692,108.164h-0.023c-0.344,0-0.673,0.214-0.803,0.504v2.575h-0.259v-3.232h0.259
						v0.267c0.161-0.214,0.444-0.375,0.825-0.375V108.164z"/>
					<path id="XMLID_259_" fill="#A39475" d="M42.988,108.164c-0.367,0-0.688,0.206-0.825,0.504v2.575h-0.259v-3.232h0.259v0.267
						c0.16-0.214,0.444-0.375,0.825-0.375c0.382,0,0.703,0.199,0.871,0.535c0.168-0.328,0.534-0.535,0.939-0.535
						c0.55,0,0.986,0.405,0.986,1.069v2.269h-0.26v-2.269c0-0.534-0.336-0.809-0.726-0.809c-0.389,0-0.725,0.236-0.848,0.557
						c0.016,0.077,0.023,0.161,0.023,0.252v2.269h-0.26v-2.269C43.713,108.439,43.377,108.164,42.988,108.164z"/>
					<path id="XMLID_257_" fill="#A39475" d="M53.613,108.011h0.283l1.024,2.697l1.024-2.697h0.282l-1.78,4.645h-0.283l0.626-1.604
						L53.613,108.011z"/>
					<path id="XMLID_254_" fill="#A39475" d="M59.209,109.631c0-0.947,0.771-1.727,1.726-1.727c0.955,0,1.727,0.764,1.727,1.719
						c0,0.947-0.771,1.727-1.727,1.727C59.98,111.349,59.209,110.585,59.209,109.631z M60.935,111.089
						c0.802,0,1.467-0.664,1.467-1.467c0-0.802-0.664-1.459-1.467-1.459c-0.802,0-1.467,0.664-1.467,1.467
						C59.468,110.432,60.133,111.089,60.935,111.089z"/>
					<path id="XMLID_252_" fill="#A39475" d="M67.99,110.982c-0.168,0.214-0.451,0.367-0.825,0.367
						c-0.551,0-0.986-0.405-0.986-1.069v-2.269h0.26v2.269c0,0.534,0.336,0.809,0.726,0.809c0.359,0,0.687-0.206,0.825-0.496v-2.582
						h0.259v3.232H67.99V110.982z"/>
					<path id="XMLID_250_" fill="#A39475" d="M73.081,108.164h-0.023c-0.343,0-0.672,0.214-0.802,0.504v2.575h-0.26v-3.232h0.26
						v0.267c0.161-0.214,0.443-0.375,0.825-0.375V108.164z"/>
					<path id="XMLID_248_" fill="#A39475" d="M80.909,111.242v-5.233h0.259v5.233H80.909z"/>
					<path id="XMLID_245_" fill="#A39475" d="M84.914,107.293v-0.658h0.26v0.658H84.914z M84.914,111.242v-3.232h0.26v3.232H84.914z
						"/>
					<path id="XMLID_243_" fill="#A39475" d="M90.012,108.271h-0.626v2.972h-0.259v-2.972h-0.55v-0.26h0.55v-1.207
						c0-0.52,0.366-0.802,0.794-0.802c0.023,0,0.053,0,0.091,0.007v0.275c-0.045-0.007-0.068-0.007-0.091-0.007
						c-0.298,0-0.535,0.198-0.535,0.527v1.207h0.626V108.271z"/>
					<path id="XMLID_240_" fill="#A39475" d="M96.05,110.845c-0.314,0.314-0.741,0.504-1.215,0.504
						c-0.955,0-1.727-0.764-1.727-1.719c0-0.947,0.772-1.727,1.727-1.727c0.894,0,1.642,0.672,1.719,1.681
						c0.007,0.061,0.007,0.114,0.007,0.175h-3.193c0.068,0.742,0.703,1.329,1.467,1.329c0.397,0,0.756-0.168,1.031-0.427
						L96.05,110.845z M93.369,109.501h2.926c-0.069-0.741-0.703-1.337-1.459-1.337C94.072,108.164,93.437,108.76,93.369,109.501z"/>
				</g>
			</g>
		</g>
		<g id="XMLID_528_">
			<path fill="#A39475" d="M47.815,72.588c-20.013,0-36.294-16.282-36.294-36.294S27.802,0,47.815,0
				c20.012,0,36.293,16.282,36.293,36.294S67.827,72.588,47.815,72.588z M47.815,0.87c-19.533,0-35.425,15.891-35.425,35.425
				s15.892,35.425,35.425,35.425c19.533,0,35.424-15.891,35.424-35.425S67.348,0.87,47.815,0.87z"/>
			<g id="XMLID_100_">
				<g>
					<path fill-rule="evenodd" clip-rule="evenodd" fill="#A39475" d="M49.208,36.286c0.014-1.663,0.856-3.401,2.45-3.986
						c-0.057-0.003-0.114-0.004-0.172-0.004c-0.575,0-1.172,0.138-1.689,0.387c-1.895,0.913-2.247,3.336-1.6,5.146
						c0.544,1.519,1.89,2.647,3.519,3.492C49.985,39.855,49.19,38.395,49.208,36.286z M57.518,41.758
						c0.261,1.614,0.351,1.817-3.512,0.792c1.011,0.408,2.074,0.72,3.077,0.988c1.151,0.308,1.276-0.084,0.842-1
						C57.83,42.34,57.518,41.758,57.518,41.758z M58.492,31.245c0.088-0.111,0.066-0.151,0.009-0.266
						c-0.175-0.354-0.447-0.663-0.638-0.823c-0.337-0.285-0.687-0.416-1.048-0.446c-0.458-0.037-0.643,0.066-0.992,0.33
						c-0.27,0.205-0.608,0.497-0.675,0.743c-0.045,0.168,0.027,0.212,0.192,0.219c0.758,0.035,1.453,1.591,2.719,0.658
						C58.184,31.568,58.357,31.417,58.492,31.245z M57.084,31.431c-0.14-0.045-0.276-0.118-0.396-0.201
						c-0.203-0.141-0.522-0.322-0.633-0.502c-0.083-0.135,0.116-0.234,0.194-0.291c0.344-0.255,0.655-0.327,0.849-0.171
						c0.163,0.13,0.353,0.344,0.482,0.517C57.924,31.243,57.478,31.536,57.084,31.431z M58.952,38.547
						c0.538,0.203,1.271,0.243,1.337-0.153c-0.308-0.027-0.901-0.102-1.098-0.5c-0.031-0.063-0.032-0.065-0.099-0.093
						c-0.31-0.132-0.488-0.15-0.581,0.019c-0.068,0.124-0.052,0.223,0.012,0.345C58.605,38.32,58.753,38.472,58.952,38.547z
						 M58.813,32.752c-0.246,0.245-0.709,0.864-0.703,1.253c0.485-0.822,1.164-0.769,1.56-0.717c0.525,0.07,0.904,0.314,1.287,0.648
						c-0.039-0.204-0.156-0.404-0.285-0.537c-0.268-0.277-0.491-0.483-0.698-0.82c-0.44-0.713-1.062-2.291-1.764-2.976
						C58.676,30.623,59.286,32.282,58.813,32.752z M42.482,36.511c0.482-1.286,1.461-2.401,2.76-2.841
						c0.01-0.031,0.019-0.06,0.03-0.09c0.367-1.076,0.969-2.023,1.777-2.768c-0.643-0.266-2.608-0.296-3.688,1.141
						c-1.764-2.97-2.217-8.404,3.275-10.99c-4.215,0.973-7.359,4.751-7.359,9.262c0,1.128,0.294,2.572,0.778,3.611
						c1.075,0.712,1.668,1.74,1.932,2.919L42.482,36.511z M54.381,47.044c-0.011-0.264-0.005-1.53,1.054-2.126
						c0.027,0.007,0.054,0.014,0.08,0.022c0.515,0.227,3.957,1.709,5.233,1.39c-0.079-0.032-0.254-0.145-0.24-0.296
						c0,0,1.127,0.218,1.419-0.048c-0.124,0.001-0.269-0.07-0.304-0.173c0,0,0.833-0.064,1.122-0.354c0,0-0.721-1.299-0.789-2.76
						l-0.025,0.052c-0.036-0.203-0.103-0.401-0.193-0.578c-0.448-0.884-0.599-1.839-0.554-2.822
						c0.018-0.379,0.046-0.763,0.105-1.138c0.038-0.244,0.089-0.482,0.172-0.715c0.065-0.181,0.141-0.346,0.178-0.538
						c0.043-0.218,0.03-0.427-0.02-0.643c-0.035-0.15-0.087-0.284-0.154-0.402c0.334-0.244,0.592-0.61,0.765-0.972
						c0.351-0.735,0.188-1.601-0.269-2.25c0.105-0.177,0.176-0.383,0.164-0.586c-1.05-0.344-1.639-1.658-1.9-3.293
						c-0.097-0.612-0.203-1.223-0.321-1.831c-0.215-1.111-0.538-2.687-1.094-3.67c-0.211-0.374-0.426-0.771-0.854-1.144
						c-0.499-0.436-0.641-0.472-0.641-0.472s0.773-3.616,5.498-7.703c3.326-2.878,5.714-3.425,5.714-3.425s-0.369-0.465-0.476-0.592
						c-1.199-1.42-2.575-2.792-3.817-3.789C55.518-0.805,44.41-1.873,35.244,3.399c-3.771,2.169-6.89,5.142-9.272,8.839
						c-4.522,7.017-5.162,15.241-1.956,25.141l0.274,0.842c0.382,1.175,0.744,2.286,1.047,3.337c0.541,1.876,0.94,4.183,0.805,5.736
						c-0.543,0.699-0.968,1.504-1.236,2.425c-1.063,3.657,0.401,8.084,3.642,11.016l1.553,1.405l-0.978-1.852
						c-0.043-0.081-4.261-8.185-0.273-10.991c1.312-0.923,2.941-0.999,4.361-0.205c2.34,1.309,3.583,4.529,3.326,8.611
						c-0.661,10.479,6.232,14.133,7.185,14.247l1.094,0.131l-0.793-0.764c-5.208-5.018-4.765-9.486-4.336-13.807
						c0.34-3.428,0.661-6.665-1.668-10c-0.8-1.146-1.8-1.972-2.94-2.477c0.06-0.004,0.119-0.009,0.169-0.015
						c1.531-0.373,6.369-1.788,9.103,0.209c4.955,3.621,6.37,1.911,6.37,1.911s1.966-2.597,2.469-2.819
						c0.08-0.035,0.916,0.262,1.088,0.317c-0.325,0.616-0.79,1.749-0.916,2.94c0,0,1.243,0.246,1.755,0.381
						c3.321,0.881,5.743,3.123,6.853,9.699l0.016,0.06c0.483,1.383,0.678,3.036,0.581,4.913c-1.117,0.848-1.746,2.08-2.41,3.381
						c-0.408,0.801-0.831,1.628-1.389,2.409c-0.487,0.682-1.529,1.838-2.366,2.378c0.886-0.192,0.96-0.221,1.753-0.543
						c0.344-0.349,0.889-0.965,1.208-1.41c0.59-0.826,1.025-1.678,1.445-2.502c0.65-1.274,1.264-2.476,2.325-3.22l0.143-0.102
						l0.012-0.175c0.124-2.032-0.078-3.829-0.601-5.34C61.584,51.035,59.167,47.98,54.381,47.044z M60.588,32.2
						c0.186,0.301,0.361,0.447,0.603,0.697c0.548,0.567,0.593,1.285,0.38,1.73c-0.285,0.596-0.798,1.078-1.282,0.725
						c0.631-0.216,0.136-0.417-0.021-0.477c-0.326-0.124-0.721-0.262-0.86,0.164c-0.05,0.151-0.04,0.188,0.092,0.278
						c0.131,0.09,0.276,0.119,0.433,0.095c-0.036,0.147-0.197,0.245-0.441,0.167c-0.704-0.189-0.575-0.96-0.141-1.212
						c0.09-0.053,0.147-0.087,0.245-0.062c0.249,0.063,0.377,0.011,0.49-0.103c-0.053-0.015-0.181-0.054-0.234-0.082
						c-0.261-0.14-0.492-0.216-0.831-0.207c-0.187,0.005-0.247,0.052-0.354,0.201c-0.48,0.667-0.257,1.252-0.113,1.464
						c0.276,0.406,0.845,0.444,1.315,0.378c0.576-0.082,0.939,0.102,1.038,0.526c0.116,0.503-0.166,0.501-0.34,1.619
						c-0.055,0.355-0.09,0.766-0.112,1.216c-0.046,0.981,0.079,2.095,0.632,3.186c0.331,0.654,0.125,1.341-0.935,0.685
						c-0.591-1.272-1.07-2.331-1.465-3.353c0.289,0.162,0.684,0.303,1.219,0.294c-0.455-0.672-0.94-0.959-1.453-0.927
						c-0.223-0.628-0.416-1.256-0.586-1.928c-0.491-1.944-0.88-3.479-2.129-5.168c-0.627-0.849-1.418-1.388-2.267-1.686
						c1.014-2.08,2.192-2.789,3.279-2.675c0.734,0.077,1.336,0.453,1.887,1.066C59.437,29.698,59.968,31.196,60.588,32.2z
						 M26.039,41.356c-0.307-1.064-0.67-2.18-1.055-3.361l-0.273-0.841c-3.135-9.679-2.521-17.699,1.875-24.521
						c2.319-3.598,5.354-6.491,9.022-8.601c8.9-5.12,19.694-4.076,28.17,2.724c1.098,0.881,2.143,1.826,3.232,3.074
						c-3.911,1.731-6.526,4.111-9.357,7.759c-0.527-0.37-1.076-0.71-1.648-1.013c0.02-0.039,0.041-0.08,0.066-0.128
						c0.129-0.247,0.322-0.597,0.561-1.013c0.482-0.83,1.168-1.916,1.94-2.94c0.193-0.256,0.398-0.504,0.592-0.753
						c0.207-0.238,0.406-0.477,0.608-0.7c0.208-0.216,0.404-0.432,0.601-0.626c0.202-0.188,0.393-0.366,0.569-0.531
						c0.187-0.152,0.358-0.292,0.51-0.415c0.148-0.13,0.299-0.214,0.413-0.297c0.234-0.16,0.367-0.251,0.367-0.251
						s-0.139,0.082-0.383,0.226c-0.118,0.076-0.276,0.15-0.432,0.27c-0.161,0.114-0.344,0.243-0.542,0.385
						c-0.189,0.154-0.392,0.32-0.609,0.497c-0.211,0.181-0.423,0.386-0.649,0.591c-0.219,0.212-0.436,0.44-0.662,0.667
						c-0.214,0.237-0.436,0.475-0.648,0.722c-0.852,0.985-1.62,2.038-2.166,2.849c-0.271,0.407-0.491,0.75-0.64,0.995
						c-0.034,0.057-0.064,0.106-0.09,0.152c-0.488-0.233-0.992-0.437-1.506-0.618c0.086-0.268,0.225-0.697,0.41-1.235
						c0.319-0.921,0.768-2.142,1.271-3.342c0.25-0.601,0.518-1.194,0.779-1.745c0.136-0.273,0.267-0.537,0.392-0.787
						c0.132-0.246,0.259-0.478,0.375-0.693c0.119-0.214,0.24-0.401,0.34-0.573c0.099-0.172,0.199-0.314,0.28-0.432
						c0.161-0.237,0.253-0.371,0.253-0.371s-0.101,0.129-0.276,0.354c-0.088,0.113-0.197,0.248-0.307,0.413
						c-0.113,0.164-0.247,0.347-0.38,0.553c-0.13,0.208-0.273,0.433-0.423,0.671c-0.141,0.243-0.291,0.499-0.445,0.764
						c-0.299,0.537-0.607,1.115-0.898,1.703c-0.585,1.173-1.118,2.372-1.5,3.279c-0.225,0.537-0.398,0.968-0.502,1.234
						c-0.596-0.181-1.207-0.327-1.832-0.436c0.144-0.803,0.519-2.859,0.959-4.909c0.281-1.312,0.589-2.618,0.856-3.589
						c0.131-0.486,0.253-0.886,0.346-1.166c0.094-0.278,0.147-0.438,0.147-0.438s-0.063,0.155-0.175,0.428
						c-0.11,0.272-0.258,0.667-0.42,1.145c-0.33,0.954-0.722,2.242-1.086,3.537c-0.581,2.054-1.096,4.122-1.285,4.892
						c-0.575-0.075-1.159-0.115-1.752-0.125l-0.14-10.617l-0.522,10.623c-0.66,0.018-1.312,0.072-1.949,0.17L44.499,4.447
						l1.264,10.634c-0.688,0.136-1.359,0.322-2.011,0.547L40.206,5.408l2.92,10.45c-0.603,0.237-1.188,0.509-1.751,0.817
						l-5.419-9.241l4.84,9.573c-0.571,0.346-1.115,0.73-1.634,1.145l-6.69-7.951l6.176,8.38c-0.503,0.437-0.977,0.906-1.419,1.405
						l-7.846-6.004l7.412,6.513c-0.453,0.557-0.868,1.145-1.241,1.763l-8.395-3.977l8.06,4.558
						c-0.353,0.647-0.661,1.322-0.921,2.022l-8.276-1.886l8.058,2.523c-0.219,0.68-0.39,1.38-0.513,2.096l-8.008-0.265l7.908,0.937
						c-0.081,0.642-0.128,1.294-0.128,1.958c0,0.078,0.008,0.158,0.01,0.236l-7.057,1.207l7.092-0.531
						c0.063,0.704,0.194,1.43,0.366,2.147l-6.17,3.117l6.341-2.456c0.232,0.836,0.51,1.641,0.802,2.369l-5.232,4.8l6.756-5.267
						l0.998-0.802c0.46-0.415,0.778,0.159,1.218,0.612l-4.653,7.047c-0.1,0.17-1.125,1.387-1.676,1.481
						c-1.919,0.327-4.018,0.924-5.252,2.267C26.95,44.791,26.465,42.833,26.039,41.356z M37.411,47.932
						c2.173,3.112,1.865,6.217,1.539,9.504c-0.394,3.97-0.799,8.06,2.875,12.589c-2.094-1.738-4.977-5.52-4.551-12.276
						c0.276-4.373-1.109-7.85-3.702-9.302c-0.767-0.429-1.587-0.643-2.399-0.643c-0.96,0-1.909,0.298-2.748,0.888
						c-3.167,2.229-1.96,7.032-0.894,9.824c-1.921-2.589-2.702-5.88-1.914-8.591c0.728-2.504,2.658-4.145,5.436-4.621
						C32.894,44.99,35.495,45.188,37.411,47.932z M39.856,38.587c-0.082,0.519-0.578,1.251-0.984,1.498
						c-0.181,0.109-0.364,0.226-0.55,0.345c-0.336,0.218-0.477,0.506-0.202,0.922l0.315,0.476c-0.563,0.637-1.416,1.795-3.542,1.823
						l4.545-7.167C40.107,37.167,39.972,37.841,39.856,38.587z M39.225,34.583c-0.594-0.823-1.018-3.084-1.018-4.358
						c0-5.84,4.736-10.576,10.576-10.576c2.618,0,5.013,0.952,6.86,2.528c0.25-0.023,0.482-0.008,0.7,0.031l0.059,0.02
						c0.002-0.004,0.003-0.007,0.004-0.011c0.752,0.155,1.326,0.67,1.77,1.454c0.578,1.021,0.994,3.22,1.287,5
						c-0.09-0.119-0.182-0.237-0.283-0.35c-0.636-0.705-1.393-1.203-2.355-1.304c-1.99-0.208-3.317,1.61-4.074,3.208
						c-1.276-0.247-2.615-0.017-3.687,0.499c-1.661,0.799-2.596,2.25-2.953,3.841c-1.275,0.16-2.36,1.259-2.751,2.707l-2.275,1.122
						C41.084,36.699,40.578,35.344,39.225,34.583z M46.235,38.161c-0.7-0.065-1.403-0.084-2.105-0.029h-0.001
						c0.354-0.907,1.267-1.264,1.934-0.697C46.107,37.682,46.165,37.923,46.235,38.161z M44.086,39.873
						c-1.047,0.103-2.087,0.478-3.12,1.151c0,0-0.339-0.372-0.235-0.511c0.288-0.386,1.926-1.119,3.069-1.231
						c0.831-0.082,1.902-0.05,2.741,0.168c0.191,0.296,0.4,0.609,0.638,0.871C46.137,39.93,45.105,39.773,44.086,39.873z
						 M47.048,38.316c-0.86-2.403-0.334-5.649,2.333-6.935c0.686-0.33,1.496-0.53,2.316-0.53c1.268,0,2.559,0.477,3.453,1.686
						c1.164,1.574,1.518,2.975,2.009,4.914c0.537,2.127,1.331,3.9,2.479,6.362c0.207,0.443,0.249,0.83,0.108,1.01
						c-0.128,0.165-0.454,0.211-0.896,0.128h0C51.951,43.644,48.201,41.536,47.048,38.316z"/>
				</g>
			</g>
		</g>
	</g>
</g>
</svg>
