<?xml version="1.0" encoding="utf-8"?>
<!DOCTYPE svg PUBLIC "-//W3C//DTD SVG 1.1//EN" "http://www.w3.org/Graphics/SVG/1.1/DTD/svg11.dtd">
<svg version="1.1" id="Layer_1" xmlns="http://www.w3.org/2000/svg" xmlns:xlink="http://www.w3.org/1999/xlink" x="0px" y="0px"
	 width="93.193px" height="89.582px" viewBox="0 0 93.193 89.582" enable-background="new 0 0 93.193 89.582" xml:space="preserve">
<g id="Copyright">
	<rect x="0" y="68.069" display="none" fill="#FFFFFF" width="93.193" height="33.878"/>
	<path display="none" fill="#FFFFFF" d="M45.925,68.21c-18.806,0-34.105-15.299-34.105-34.105C11.82,15.3,27.12,0,45.925,0
		C64.731,0,80.03,15.3,80.03,34.106C80.03,52.911,64.731,68.21,45.925,68.21z"/>
	<g>
		<g>
			<g>
				<path fill="#A39475" d="M6.734,88.803V74.495h0.71v13.597h4.783v0.71H6.734z"/>
				<path fill="#A39475" d="M15.049,88.803V74.495h5.492v0.711h-4.782v6.078h4.782v0.71h-4.782v6.099h4.782v0.71H15.049z"/>
				<path fill="#A39475" d="M30.924,89.095c-4.115,0-7.456-3.321-7.456-7.436s3.342-7.457,7.456-7.457
					c4.115,0,7.436,3.342,7.436,7.457S35.039,89.095,30.924,89.095z M30.924,88.406c3.718,0,6.746-3.028,6.746-6.746
					c0-3.739-3.029-6.767-6.746-6.767c-3.739,0-6.768,3.028-6.768,6.767C24.156,85.377,27.185,88.406,30.924,88.406z"/>
				<path fill="#A39475" d="M42.832,76.939v11.863h-0.711V74.098l6.767,12.365V74.495h0.71V89.2L42.832,76.939z"/>
				<path fill="#A39475" d="M54.614,88.803V74.495h0.71v14.307H54.614z"/>
				<path fill="#A39475" d="M61.841,88.803h-1.504V74.495h1.504c3.947,0,7.143,3.216,7.143,7.164
					C68.984,85.607,65.788,88.803,61.841,88.803z M61.841,75.206h-0.794v12.887h0.794c3.551,0,6.433-2.883,6.433-6.433
					C68.274,78.088,65.392,75.206,61.841,75.206z"/>
				<path fill="#A39475" d="M72.746,88.803V74.495h5.493v0.711h-4.783v6.078h4.783v0.71h-4.783v6.099h4.783v0.71H72.746z"/>
				<path fill="#A39475" d="M82.021,89.012c-0.188,0-0.376-0.021-0.543-0.084v-0.752c0.209,0.063,0.397,0.084,0.543,0.084
					c1.88,0,3.091-1.379,3.091-3.217c0-1.44-0.752-2.359-1.524-3.321c-0.815-0.981-1.65-2.005-1.65-3.697
					c0-2.193,1.546-3.718,3.655-3.718h0.105v0.731h-0.105c-1.671,0-2.924,1.232-2.924,2.965c0,1.441,0.752,2.381,1.524,3.342
					c0.814,1.002,1.65,2.068,1.65,3.781C85.843,87.403,84.298,89.012,82.021,89.012z"/>
			</g>
		</g>
		<g display="none">
			<g display="inline">
				<path fill="#A39475" d="M7.957,91.476v4.078H7.744v-4.078H6.723v-0.213H9.01v0.213H7.957z"/>
				<path fill="#A39475" d="M12.125,93.029h-0.019c-0.282,0-0.551,0.176-0.658,0.413v2.111h-0.213v-2.65h0.213v0.219
					c0.132-0.175,0.364-0.307,0.677-0.307V93.029z"/>
				<path fill="#A39475" d="M16.831,95.359c-0.238,0.175-0.526,0.281-0.846,0.281c-0.783,0-1.416-0.626-1.416-1.409
					c0-0.777,0.633-1.416,1.416-1.416c0.313,0,0.607,0.113,0.846,0.288v-0.201h0.212v2.65h-0.212V95.359z M16.831,93.38
					c-0.225-0.207-0.52-0.351-0.846-0.351c-0.658,0-1.203,0.545-1.203,1.203c0,0.657,0.545,1.196,1.203,1.196
					c0.326,0,0.62-0.137,0.846-0.35V93.38z"/>
				<path fill="#A39475" d="M20.328,93.123c0.132-0.175,0.364-0.307,0.677-0.307c0.451,0,0.808,0.332,0.808,0.877v1.861H21.6v-1.861
					c0-0.438-0.275-0.663-0.595-0.663c-0.301,0-0.564,0.169-0.677,0.413v2.111h-0.213v-2.65h0.213V93.123z"/>
				<path fill="#A39475" d="M24.797,95.616c-0.038,0-0.081-0.006-0.1-0.013v-0.212c0.038,0.012,0.069,0.012,0.1,0.012
					c0.313,0,0.514-0.232,0.514-0.538c0-0.251-0.138-0.426-0.282-0.607c-0.15-0.195-0.313-0.395-0.313-0.721
					c0-0.426,0.301-0.707,0.695-0.707h0.02v0.206h-0.02c-0.269,0-0.482,0.194-0.482,0.495c0,0.257,0.138,0.426,0.276,0.601
					c0.156,0.2,0.319,0.401,0.319,0.733C25.523,95.297,25.229,95.616,24.797,95.616z"/>
				<path fill="#A39475" d="M29.302,93.117h-0.513v2.437h-0.213v-2.437h-0.451v-0.213h0.451v-0.989c0-0.426,0.301-0.657,0.652-0.657
					c0.018,0,0.044,0,0.075,0.005v0.226c-0.038-0.005-0.057-0.005-0.075-0.005c-0.245,0-0.439,0.163-0.439,0.432v0.989h0.513V93.117
					z"/>
				<path fill="#A39475" d="M31.841,94.232c0-0.777,0.632-1.416,1.415-1.416c0.783,0,1.416,0.627,1.416,1.409
					c0,0.777-0.632,1.416-1.416,1.416C32.474,95.641,31.841,95.015,31.841,94.232z M33.257,95.428c0.658,0,1.203-0.545,1.203-1.203
					c0-0.657-0.545-1.196-1.203-1.196c-0.657,0-1.203,0.545-1.203,1.203C32.054,94.889,32.599,95.428,33.257,95.428z"/>
				<path fill="#A39475" d="M38.446,93.029h-0.019c-0.282,0-0.551,0.176-0.658,0.413v2.111h-0.212v-2.65h0.212v0.219
					c0.132-0.175,0.364-0.307,0.677-0.307V93.029z"/>
				<path fill="#A39475" d="M41.968,93.029c-0.301,0-0.564,0.169-0.677,0.413v2.111h-0.213v-2.65h0.213v0.219
					c0.132-0.175,0.363-0.307,0.677-0.307c0.313,0,0.576,0.163,0.714,0.439c0.137-0.269,0.438-0.439,0.77-0.439
					c0.451,0,0.808,0.332,0.808,0.877v1.861h-0.213v-1.861c0-0.438-0.275-0.663-0.595-0.663c-0.319,0-0.595,0.194-0.695,0.457
					c0.013,0.063,0.019,0.131,0.019,0.206v1.861h-0.213v-1.861C42.563,93.255,42.287,93.029,41.968,93.029z"/>
				<path fill="#A39475" d="M50.679,92.904h0.232l0.839,2.211l0.839-2.211h0.232l-1.459,3.809H51.13l0.514-1.315L50.679,92.904z"/>
				<path fill="#A39475" d="M55.267,94.232c0-0.777,0.632-1.416,1.415-1.416c0.783,0,1.416,0.627,1.416,1.409
					c0,0.777-0.633,1.416-1.416,1.416C55.899,95.641,55.267,95.015,55.267,94.232z M56.682,95.428c0.658,0,1.203-0.545,1.203-1.203
					c0-0.657-0.545-1.196-1.203-1.196c-0.657,0-1.203,0.545-1.203,1.203C55.48,94.889,56.025,95.428,56.682,95.428z"/>
				<path fill="#A39475" d="M62.467,95.34c-0.138,0.176-0.37,0.301-0.676,0.301c-0.451,0-0.808-0.332-0.808-0.877v-1.861h0.213
					v1.861c0,0.438,0.275,0.663,0.595,0.663c0.294,0,0.563-0.169,0.676-0.407v-2.118h0.213v2.65h-0.213V95.34z"/>
				<path fill="#A39475" d="M66.641,93.029h-0.019c-0.281,0-0.551,0.176-0.657,0.413v2.111h-0.213v-2.65h0.213v0.219
					c0.132-0.175,0.363-0.307,0.676-0.307V93.029z"/>
				<path fill="#A39475" d="M73.059,95.553v-4.291h0.213v4.291H73.059z"/>
				<path fill="#A39475" d="M76.342,92.315v-0.539h0.213v0.539H76.342z M76.342,95.553v-2.65h0.213v2.65H76.342z"/>
				<path fill="#A39475" d="M80.522,93.117h-0.514v2.437h-0.212v-2.437h-0.451v-0.213h0.451v-0.989c0-0.426,0.3-0.657,0.651-0.657
					c0.019,0,0.044,0,0.075,0.005v0.226c-0.037-0.005-0.056-0.005-0.075-0.005c-0.244,0-0.439,0.163-0.439,0.432v0.989h0.514V93.117
					z"/>
				<path fill="#A39475" d="M85.472,95.228c-0.257,0.257-0.608,0.413-0.996,0.413c-0.782,0-1.415-0.626-1.415-1.409
					c0-0.777,0.633-1.416,1.415-1.416c0.733,0,1.347,0.551,1.409,1.378c0.006,0.05,0.006,0.094,0.006,0.144h-2.618
					c0.056,0.608,0.576,1.09,1.202,1.09c0.326,0,0.62-0.137,0.846-0.35L85.472,95.228z M83.274,94.125h2.399
					c-0.057-0.607-0.576-1.096-1.197-1.096C83.85,93.029,83.33,93.518,83.274,94.125z"/>
			</g>
		</g>
	</g>
	<g>
		<path fill="#A39475" d="M45.925,63.809c-16.378,0-29.703-13.325-29.703-29.703S29.547,4.402,45.925,4.402
			c16.378,0,29.702,13.325,29.702,29.703S62.303,63.809,45.925,63.809z M45.925,5.008c-16.045,0-29.097,13.053-29.097,29.097
			c0,16.044,13.053,29.097,29.097,29.097c16.044,0,29.097-13.053,29.097-29.097C75.022,18.061,61.969,5.008,45.925,5.008z"/>
	</g>
	<g>
		<g>
			<path fill-rule="evenodd" clip-rule="evenodd" fill="#A39475" d="M47.067,34.099c0.012-1.363,0.702-2.788,2.009-3.268
				c-0.046-0.002-0.094-0.003-0.141-0.003c-0.471,0-0.961,0.113-1.385,0.317c-1.553,0.748-1.843,2.735-1.312,4.219
				c0.445,1.245,1.55,2.17,2.885,2.863C47.704,37.025,47.052,35.827,47.067,34.099z M53.88,38.585c0.214,1.323,0.288,1.49-2.88,0.65
				c0.829,0.334,1.7,0.59,2.523,0.81c0.944,0.253,1.046-0.07,0.69-0.82C54.136,39.062,53.88,38.585,53.88,38.585z M55.057,35.952
				c0.441,0.166,1.042,0.199,1.096-0.125c-0.252-0.022-0.739-0.084-0.9-0.41c-0.025-0.052-0.026-0.053-0.081-0.077
				c-0.254-0.108-0.4-0.122-0.476,0.016c-0.056,0.102-0.043,0.183,0.01,0.283C54.772,35.766,54.893,35.891,55.057,35.952z
				 M54.679,29.966c0.072-0.091,0.054-0.124,0.008-0.218c-0.143-0.29-0.367-0.544-0.523-0.675c-0.276-0.234-0.564-0.341-0.859-0.366
				c-0.375-0.03-0.527,0.054-0.813,0.271c-0.221,0.167-0.499,0.408-0.553,0.609c-0.037,0.138,0.023,0.174,0.157,0.18
				c0.621,0.029,1.192,1.304,2.23,0.539C54.427,30.231,54.569,30.107,54.679,29.966z M53.525,30.119
				c-0.115-0.037-0.226-0.096-0.324-0.165c-0.166-0.116-0.428-0.264-0.52-0.412c-0.068-0.111,0.095-0.192,0.159-0.239
				c0.282-0.209,0.537-0.268,0.696-0.14c0.133,0.107,0.289,0.282,0.395,0.424C54.213,29.963,53.848,30.205,53.525,30.119z
				 M41.553,34.283c0.395-1.054,1.198-1.969,2.263-2.329c0.008-0.025,0.016-0.05,0.025-0.074c0.301-0.882,0.794-1.658,1.457-2.269
				c-0.527-0.218-2.139-0.243-3.024,0.935c-1.447-2.434-1.818-6.889,2.685-9.01c-3.456,0.798-6.033,3.895-6.033,7.593
				c0,0.925,0.241,2.109,0.638,2.961c0.881,0.584,1.368,1.427,1.584,2.394L41.553,34.283z M51.309,42.919
				c-0.009-0.216-0.004-1.255,0.864-1.742c0.022,0.005,0.044,0.012,0.066,0.018c0.422,0.186,3.244,1.401,4.29,1.14
				c-0.065-0.027-0.208-0.119-0.196-0.243c0,0,0.924,0.179,1.163-0.04c-0.102,0.001-0.22-0.057-0.249-0.142
				c0,0,0.683-0.052,0.92-0.29c0,0-0.591-1.065-0.647-2.262l-0.021,0.042c-0.029-0.166-0.085-0.328-0.158-0.473
				c-0.367-0.726-0.491-1.508-0.454-2.314c0.015-0.311,0.038-0.626,0.086-0.933c0.031-0.2,0.073-0.395,0.141-0.586
				c0.053-0.149,0.115-0.284,0.146-0.441c0.035-0.179,0.025-0.351-0.016-0.527c-0.029-0.124-0.072-0.233-0.126-0.33
				c0.274-0.2,0.485-0.5,0.627-0.797c0.288-0.603,0.154-1.313-0.221-1.845c0.086-0.146,0.145-0.314,0.135-0.48
				c-0.861-0.282-1.344-1.359-1.557-2.7c-0.08-0.502-0.167-1.002-0.263-1.501c-0.176-0.911-0.441-2.204-0.896-3.009
				c-0.174-0.306-0.35-0.632-0.701-0.938c-0.409-0.357-0.525-0.387-0.525-0.387s0.634-2.964,4.507-6.316
				c2.727-2.359,4.685-2.808,4.685-2.808s-0.302-0.382-0.391-0.486c-0.983-1.164-2.111-2.289-3.129-3.106
				c-7.147-5.731-16.254-6.607-23.769-2.285c-3.092,1.778-5.649,4.216-7.602,7.246c-3.707,5.753-4.232,12.496-1.603,20.613
				l0.225,0.691c0.313,0.963,0.609,1.874,0.858,2.736c0.444,1.539,0.771,3.429,0.66,4.702c-0.445,0.573-0.794,1.233-1.013,1.988
				c-0.872,2.999,0.328,6.628,2.986,9.032l1.273,1.152L30.6,53.777c-0.035-0.067-3.493-6.711-0.224-9.011
				c1.076-0.757,2.412-0.819,3.575-0.168c1.918,1.073,2.937,3.713,2.726,7.06c-0.541,8.592,5.11,11.586,5.891,11.681l0.897,0.107
				l-0.65-0.627c-4.27-4.114-3.907-7.777-3.555-11.32c0.279-2.81,0.542-5.464-1.368-8.199c-0.656-0.94-1.476-1.617-2.41-2.031
				c0.049-0.003,0.097-0.007,0.139-0.013c1.256-0.305,5.222-1.466,7.463,0.172c4.063,2.969,5.223,1.567,5.223,1.567
				s1.612-2.129,2.024-2.311c0.065-0.029,0.751,0.215,0.892,0.26c-0.267,0.505-0.648,1.433-0.751,2.41c0,0,1.019,0.202,1.439,0.313
				c2.723,0.722,4.708,2.561,5.619,7.952l0.013,0.049c0.396,1.134,0.556,2.489,0.476,4.028c-0.915,0.696-1.431,1.706-1.975,2.772
				c-0.335,0.657-0.681,1.334-1.139,1.975c-0.399,0.559-1.254,1.507-1.94,1.949c0.726-0.158,0.787-0.182,1.437-0.446
				c0.282-0.286,0.729-0.791,0.99-1.156c0.484-0.676,0.84-1.375,1.184-2.051c0.533-1.045,1.037-2.03,1.906-2.641l0.117-0.083
				l0.01-0.143c0.101-1.667-0.065-3.14-0.493-4.378C57.215,46.192,55.233,43.687,51.309,42.919z M56.398,30.749
				c0.152,0.247,0.296,0.367,0.494,0.571c0.45,0.465,0.486,1.054,0.312,1.419c-0.234,0.489-0.654,0.884-1.051,0.594
				c0.517-0.177,0.112-0.342-0.017-0.391c-0.267-0.102-0.591-0.214-0.705,0.135c-0.041,0.124-0.032,0.154,0.076,0.228
				c0.108,0.074,0.226,0.098,0.355,0.078c-0.029,0.12-0.161,0.201-0.361,0.137c-0.577-0.154-0.472-0.787-0.116-0.994
				c0.074-0.044,0.121-0.071,0.201-0.051c0.204,0.052,0.309,0.009,0.402-0.084c-0.044-0.013-0.149-0.044-0.192-0.068
				c-0.214-0.114-0.404-0.177-0.682-0.17c-0.153,0.004-0.202,0.043-0.29,0.165c-0.394,0.547-0.211,1.026-0.093,1.201
				c0.226,0.333,0.693,0.364,1.078,0.31c0.472-0.067,0.77,0.084,0.851,0.431c0.096,0.413-0.136,0.411-0.279,1.328
				c-0.045,0.291-0.074,0.628-0.092,0.997c-0.038,0.804,0.065,1.718,0.518,2.612c0.272,0.536,0.103,1.099-0.767,0.562
				c-0.485-1.043-0.877-1.911-1.201-2.749c0.237,0.133,0.56,0.249,0.999,0.241c-0.373-0.551-0.771-0.786-1.191-0.76
				c-0.182-0.515-0.341-1.03-0.48-1.58c-0.403-1.593-0.721-2.853-1.746-4.238c-0.513-0.696-1.162-1.138-1.858-1.382
				c0.831-1.706,1.797-2.286,2.688-2.193c0.602,0.063,1.095,0.372,1.547,0.874C55.454,28.697,55.89,29.925,56.398,30.749z
				 M28.072,38.256c-0.252-0.873-0.55-1.787-0.865-2.756l-0.224-0.689c-2.57-7.936-2.067-14.512,1.537-20.104
				c1.901-2.95,4.39-5.322,7.397-7.052c7.297-4.198,16.146-3.341,23.096,2.234c0.9,0.722,1.757,1.497,2.649,2.52
				c-3.207,1.419-5.351,3.371-7.672,6.361c-0.432-0.303-0.882-0.582-1.352-0.83c0.017-0.033,0.034-0.066,0.054-0.105
				c0.106-0.202,0.264-0.489,0.46-0.831c0.395-0.681,0.957-1.57,1.59-2.411c0.158-0.21,0.326-0.413,0.485-0.617
				c0.17-0.195,0.333-0.391,0.498-0.574c0.171-0.178,0.331-0.355,0.493-0.513c0.165-0.155,0.322-0.301,0.466-0.436
				c0.153-0.124,0.293-0.239,0.418-0.34c0.121-0.107,0.246-0.176,0.339-0.244c0.192-0.131,0.301-0.206,0.301-0.206
				s-0.114,0.067-0.314,0.185c-0.097,0.062-0.226,0.123-0.355,0.221c-0.132,0.094-0.282,0.2-0.444,0.316
				c-0.155,0.126-0.322,0.262-0.499,0.408c-0.174,0.148-0.347,0.316-0.532,0.484c-0.18,0.174-0.357,0.361-0.543,0.547
				c-0.175,0.195-0.357,0.39-0.531,0.592c-0.698,0.808-1.328,1.671-1.776,2.336c-0.222,0.333-0.403,0.616-0.525,0.816
				c-0.028,0.046-0.052,0.087-0.074,0.124c-0.4-0.191-0.813-0.358-1.234-0.507c0.07-0.22,0.185-0.571,0.336-1.013
				c0.261-0.756,0.629-1.757,1.042-2.74c0.205-0.493,0.425-0.979,0.638-1.431c0.111-0.224,0.219-0.44,0.321-0.646
				c0.109-0.202,0.212-0.392,0.307-0.568c0.097-0.175,0.196-0.329,0.278-0.469c0.081-0.141,0.163-0.258,0.229-0.354
				c0.132-0.194,0.208-0.305,0.208-0.305s-0.082,0.105-0.227,0.29c-0.072,0.092-0.161,0.203-0.252,0.339
				c-0.092,0.135-0.203,0.284-0.312,0.454c-0.107,0.17-0.224,0.355-0.347,0.55c-0.116,0.2-0.238,0.409-0.365,0.627
				c-0.245,0.441-0.498,0.915-0.736,1.396c-0.479,0.962-0.917,1.945-1.23,2.689c-0.185,0.44-0.327,0.794-0.412,1.012
				c-0.488-0.148-0.99-0.269-1.502-0.357c0.118-0.659,0.425-2.344,0.786-4.025c0.231-1.076,0.483-2.146,0.702-2.942
				c0.108-0.398,0.208-0.726,0.284-0.956c0.077-0.228,0.12-0.359,0.12-0.359s-0.051,0.127-0.143,0.351
				c-0.09,0.223-0.211,0.547-0.345,0.938c-0.27,0.782-0.592,1.839-0.89,2.901c-0.476,1.684-0.898,3.38-1.053,4.011
				c-0.471-0.061-0.951-0.095-1.437-0.102l-0.115-8.705l-0.428,8.71c-0.541,0.014-1.075,0.059-1.598,0.139l-1.572-8.623l1.036,8.718
				c-0.564,0.112-1.114,0.264-1.649,0.449l-2.907-8.378l2.394,8.568c-0.494,0.194-0.974,0.417-1.436,0.67l-4.442-7.576l3.968,7.849
				c-0.468,0.284-0.914,0.599-1.34,0.939l-5.485-6.519l5.064,6.87c-0.412,0.359-0.801,0.743-1.164,1.152l-6.432-4.922l6.077,5.339
				c-0.371,0.457-0.712,0.939-1.017,1.446l-6.882-3.261l6.608,3.738c-0.29,0.53-0.542,1.084-0.755,1.658l-6.785-1.546l6.606,2.068
				c-0.179,0.557-0.32,1.132-0.421,1.719l-6.565-0.217l6.483,0.768c-0.067,0.527-0.105,1.062-0.105,1.606
				c0,0.064,0.007,0.13,0.008,0.194l-5.786,0.989l5.815-0.435c0.052,0.577,0.159,1.172,0.3,1.761l-5.058,2.555l5.198-2.013
				c0.19,0.686,0.418,1.345,0.658,1.943l-4.29,3.935l5.539-4.318l0.819-0.657c0.377-0.34,0.638,0.13,0.999,0.502l-3.815,5.777
				c-0.082,0.139-0.922,1.137-1.374,1.214c-1.574,0.268-3.295,0.758-4.306,1.859C28.818,41.072,28.421,39.467,28.072,38.256z
				 M37.396,43.647c1.781,2.551,1.529,5.097,1.261,7.793c-0.323,3.254-0.655,6.608,2.357,10.321
				c-1.716-1.425-4.08-4.526-3.731-10.065c0.226-3.586-0.909-6.437-3.036-7.627c-0.629-0.352-1.301-0.527-1.967-0.527
				c-0.787,0-1.565,0.244-2.253,0.728c-2.597,1.827-1.607,5.765-0.732,8.054c-1.575-2.123-2.215-4.821-1.57-7.043
				c0.597-2.053,2.179-3.399,4.457-3.789C33.693,41.235,35.825,41.398,37.396,43.647z M39.4,35.985
				c-0.067,0.426-0.474,1.026-0.806,1.229c-0.149,0.09-0.299,0.185-0.451,0.283c-0.275,0.179-0.391,0.415-0.166,0.756l0.259,0.39
				c-0.462,0.522-1.161,1.472-2.904,1.494l3.726-5.876C39.606,34.822,39.496,35.374,39.4,35.985z M38.883,32.703
				c-0.487-0.675-0.835-2.529-0.835-3.573c0-4.788,3.883-8.671,8.671-8.671c2.147,0,4.11,0.781,5.625,2.073
				c0.205-0.019,0.395-0.007,0.573,0.025l0.049,0.016c0.002-0.003,0.003-0.005,0.004-0.009c0.617,0.127,1.087,0.549,1.451,1.192
				c0.474,0.837,0.814,2.64,1.055,4.099c-0.074-0.098-0.149-0.194-0.232-0.286c-0.521-0.579-1.142-0.986-1.931-1.069
				c-1.632-0.171-2.719,1.32-3.34,2.631c-1.046-0.203-2.144-0.014-3.023,0.409c-1.361,0.655-2.129,1.844-2.421,3.149
				c-1.045,0.132-1.935,1.033-2.255,2.219l-1.865,0.92C40.407,34.438,39.992,33.326,38.883,32.703z M44.63,35.635
				c-0.574-0.053-1.151-0.069-1.726-0.023h0c0.29-0.743,1.039-1.037,1.586-0.571C44.525,35.243,44.573,35.441,44.63,35.635z
				 M42.868,37.04c-0.858,0.085-1.711,0.392-2.558,0.944c0,0-0.278-0.305-0.193-0.419c0.236-0.317,1.579-0.918,2.516-1.01
				c0.681-0.067,1.56-0.041,2.247,0.138c0.156,0.243,0.328,0.5,0.523,0.714C44.55,37.086,43.704,36.958,42.868,37.04z
				 M45.297,35.763c-0.705-1.97-0.274-4.632,1.913-5.686c0.563-0.27,1.227-0.435,1.899-0.435c1.04,0,2.098,0.392,2.831,1.383
				c0.954,1.29,1.245,2.439,1.647,4.029c0.44,1.744,1.091,3.197,2.033,5.216c0.17,0.363,0.204,0.68,0.089,0.828
				c-0.105,0.135-0.372,0.173-0.734,0.105C49.317,40.131,46.242,38.403,45.297,35.763z M54.942,31.201
				c-0.201,0.201-0.581,0.709-0.576,1.028c0.397-0.674,0.955-0.631,1.279-0.588c0.431,0.057,0.741,0.258,1.055,0.531
				c-0.032-0.167-0.128-0.331-0.234-0.441c-0.219-0.227-0.402-0.396-0.572-0.672c-0.361-0.585-0.87-1.878-1.446-2.44
				C54.83,29.456,55.33,30.816,54.942,31.201z"/>
		</g>
	</g>
</g>
</svg>
