<?xml version="1.0" encoding="utf-8"?>
<!DOCTYPE svg PUBLIC "-//W3C//DTD SVG 1.1//EN" "http://www.w3.org/Graphics/SVG/1.1/DTD/svg11.dtd">
<svg version="1.1" id="Layer_1" xmlns="http://www.w3.org/2000/svg" xmlns:xlink="http://www.w3.org/1999/xlink" x="0px" y="0px"
	 width="86.167px" height="12.139px" viewBox="0 0 86.167 12.139" enable-background="new 0 0 86.167 12.139" xml:space="preserve">
<g>
	<path fill="#A39475" d="M44.06,6.225c-0.018,0.723,0.1,1.443,0.358,2.117c0.161,0.42,0.489,0.689,0.738,1.015
		c0.181,0.028,0.324,0.1,0.335,0.25c0.012,0.156-0.15,0.315-0.283,0.373c-0.414,0.182-0.869-0.123-1.291,0.127
		c-0.237,0.14-0.295,0.492-0.28,0.744c0.018,0.303,0.168,0.611,0.466,0.721c0.174,0.063,0.369,0.037,0.54-0.02
		c0.137-0.046-0.074-0.295-0.151-0.361c-0.148-0.128-0.401-0.099-0.562-0.022c-0.264,0.127,0.01-0.302,0.092-0.36
		c0.376-0.267,0.855-0.344,1.111,0.114c0.222,0.395-0.279,0.958-0.606,1.098c-0.543,0.234-1.134,0.131-1.355-0.46
		c-0.203-0.545,0.046-1.194,0.412-1.605c0.202-0.227,0.444-0.388,0.721-0.495c-0.725-0.834-0.771-2.723-0.717-3.518
		c0.057-0.827,0.283-2.257,0.899-3.162c-0.091,0.001-0.182-0.003-0.271-0.013c-0.304-0.035-0.582-0.19-0.777-0.423
		c-0.342-0.41-0.426-1.048-0.22-1.535c0.239-0.563,0.796-0.926,1.406-0.777c1.029,0.25,0.123,1.76-0.78,1.337
		c-0.181-0.085,0.172-0.435,0.312-0.416c0.035,0.004,0.429,0.056,0.416-0.057c-0.024-0.208-0.173-0.283-0.345-0.332
		c-0.147-0.042-0.314-0.056-0.459-0.003c-0.045,0.017-0.051,0.021-0.089,0.126C43.627,0.833,43.628,1,43.648,1.151
		c0.041,0.322,0.226,0.59,0.486,0.778c0.369,0.266,0.713,0.19,1.113,0.164c0.067-0.032,0.137-0.059,0.209-0.081
		c0.293-0.086,0.117,0.246,0.026,0.354C44.523,3.497,44.097,4.731,44.06,6.225z"/>
	<path fill="#A39475" d="M54.018,4.997C52.906,4.61,52,3.777,50.949,3.26c-0.048,0.938-1.014,1.466-1.945,1.587
		c-0.154,0.02-0.274-0.388,0.236-0.564c0.393-0.135,0.553-0.516,0.458-0.935c-0.057-0.252-0.291-0.367-0.423-0.551
		c-0.836-0.075-1.698,0.059-2.391,0.461c-1.35,0.783-1.878,3.169-0.91,3.908c0.216,0.165,0.397-0.013,0.489-0.21
		C46.679,6.495,46.452,6,46.542,6.003c0.494,0.018,0.687,0.539,0.714,0.99c0.022,0.355-0.035,0.712-0.454,0.995
		c0.256,0.328,0.839,0.52,1.215,0.458c-0.218-0.848,0.161-1.391,0.809-1.452c0.775-0.072,0.667,1.029,0.356,1.442
		c-0.553,0.735-1.383,0.835-2.222,0.579c-2.405-0.733-2.417-3.423-1.224-5.189c1.228-1.818,3.787-2.246,5.681-1.246
		C52.21,3,52.919,3.557,53.693,3.996c-0.007-0.109-0.001-0.214,0.015-0.295c0.085-0.43,0.439-0.913,0.866-1.053
		c0.186-0.062,0.15,0.07,0.071,0.198c-0.155,1.131,2.216,1.679,2.967,1.284c0.15-0.079,0.359-0.214,0.397-0.431
		c-0.54-0.176-0.585-0.679-0.318-1.059c0.365-0.52,1.179,0.02,1.124,0.586C58.619,5.238,55.804,5.618,54.018,4.997z"/>
	<path fill="#A39475" d="M86.075,3.345c0.095-0.086,0.129-0.218,0.043-0.399c-0.026-0.056-0.334-0.354-0.308-0.174
		c0.105,0.746-1.382-0.241-1.635-0.321c-0.366-0.117-0.747-0.162-1.055,0.017c-0.201-1.056-1.978-0.81-1.301,0.177
		c0.038,0.056,0.289,0.225,0.222,0.046c-0.175-0.461,0.195-0.652,0.598-0.618c0.613,0.052-0.121,0.829-0.344,0.909
		c-0.782,0.282-1.5-0.213-2.112-0.632c-0.834-0.571-2.505-0.392-2.047,0.884H60.132c-0.041-0.081-0.124-0.137-0.221-0.137
		c-0.137,0-0.248,0.111-0.248,0.248c0,0.137,0.111,0.249,0.248,0.249c0.097,0,0.18-0.056,0.221-0.137h18.004
		c-0.457,1.276,1.214,1.455,2.047,0.884c0.612-0.42,1.33-0.914,2.112-0.632c0.223,0.08,0.956,0.857,0.344,0.91
		C82.236,4.652,81.866,4.46,82.041,4c0.068-0.179-0.183-0.01-0.222,0.046c-0.678,0.987,1.1,1.233,1.301,0.178
		c0.308,0.178,0.689,0.134,1.055,0.017c0.253-0.081,1.74-1.067,1.635-0.322c-0.025,0.18,0.282-0.118,0.308-0.174
		C86.203,3.563,86.17,3.431,86.075,3.345z M79.487,2.557c0.081,0.124,0.09,0.302-0.026,0.405c-0.06,0.053-0.155,0.047-0.227,0.036
		c0,0.013-0.001,0.026-0.001,0.039c-0.007-0.031-0.004-0.06,0.01-0.087c0.015-0.044,0.038-0.084,0.052-0.129
		c0.025-0.079-0.115-0.222-0.19-0.223c-0.201-0.004-0.233,0.134-0.182,0.304c0.056,0.184,0.249,0.338,0.418,0.409
		c0.039,0.017,0.077,0.028,0.114,0.035c-0.037,0.006-0.075,0.017-0.114,0.034c-0.169,0.071-0.362,0.226-0.418,0.409
		c-0.052,0.17-0.02,0.308,0.182,0.304c0.074-0.001,0.214-0.144,0.19-0.223c-0.014-0.046-0.037-0.084-0.052-0.129
		c-0.014-0.028-0.018-0.056-0.01-0.087c0.001,0.013,0.001,0.026,0.001,0.039c0.073-0.01,0.167-0.017,0.227,0.036
		c0.116,0.103,0.107,0.281,0.026,0.405c-0.075,0.114-0.431,0.157-0.559,0.169c-0.118,0.01-0.259,0.007-0.364-0.06
		c-0.024-0.016-0.043-0.026-0.063-0.032c-0.208-0.173-0.307-0.416-0.207-0.788l0.573-0.077l-0.573-0.077
		c-0.1-0.372-0.001-0.615,0.207-0.788c0.02-0.007,0.039-0.017,0.063-0.032c0.104-0.067,0.246-0.07,0.364-0.06
		C79.056,2.4,79.413,2.442,79.487,2.557z M81.671,3.345c-0.033,0.005-0.064,0.012-0.094,0.018c-0.375,0.089-0.703,0.277-1.011,0.506
		c-0.367,0.273-0.853,0.646-1.349,0.631c0.318-0.104,0.603-0.376,0.649-0.721c0.032-0.233-0.089-0.405-0.277-0.435
		c0.188-0.03,0.309-0.202,0.277-0.435c-0.046-0.345-0.332-0.617-0.649-0.721c0.496-0.016,0.983,0.358,1.349,0.63
		c0.308,0.229,0.636,0.417,1.011,0.506C81.607,3.333,81.639,3.339,81.671,3.345z M85.249,3.345
		c-0.716,0.374-1.326,1.024-2.133,0.528c-0.082-0.314-0.398-0.47-0.743-0.528c0.345-0.059,0.661-0.214,0.743-0.528
		C83.923,2.321,84.533,2.971,85.249,3.345z"/>
	<path fill="#A39475" d="M41.95,2.769c-0.089,0.01-0.18,0.015-0.271,0.013c0.615,0.905,0.842,2.335,0.899,3.162
		c0.054,0.795,0.009,2.684-0.717,3.518c0.277,0.108,0.518,0.268,0.721,0.495c0.366,0.411,0.616,1.06,0.412,1.605
		c-0.221,0.592-0.812,0.694-1.355,0.46c-0.327-0.141-0.828-0.703-0.606-1.098c0.257-0.457,0.736-0.381,1.111-0.114
		c0.082,0.058,0.356,0.487,0.092,0.36c-0.161-0.077-0.413-0.106-0.562,0.022c-0.077,0.066-0.288,0.314-0.151,0.361
		c0.171,0.058,0.366,0.084,0.54,0.02c0.298-0.11,0.448-0.418,0.466-0.721c0.015-0.252-0.043-0.604-0.281-0.744
		c-0.422-0.25-0.877,0.055-1.291-0.127c-0.132-0.058-0.294-0.217-0.283-0.373c0.011-0.15,0.155-0.222,0.335-0.25
		c0.249-0.327,0.578-0.595,0.739-1.015c0.258-0.675,0.376-1.394,0.358-2.117c-0.037-1.495-0.464-2.729-1.421-3.859
		c-0.091-0.108-0.267-0.44,0.026-0.354c0.072,0.021,0.142,0.049,0.209,0.081c0.4,0.027,0.744,0.102,1.113-0.164
		c0.26-0.188,0.445-0.456,0.486-0.778C42.539,1,42.54,0.833,42.487,0.688c-0.039-0.105-0.044-0.109-0.089-0.126
		c-0.145-0.053-0.312-0.039-0.459,0.003c-0.172,0.049-0.32,0.124-0.345,0.332c-0.013,0.113,0.381,0.061,0.416,0.057
		c0.14-0.018,0.493,0.332,0.312,0.416c-0.902,0.423-1.809-1.086-0.78-1.337c0.61-0.148,1.167,0.214,1.406,0.777
		c0.206,0.487,0.122,1.125-0.22,1.535C42.533,2.579,42.255,2.734,41.95,2.769z"/>
	<path fill="#A39475" d="M39.207,9.016c-0.839,0.256-1.67,0.156-2.222-0.579c-0.311-0.413-0.419-1.515,0.356-1.442
		c0.648,0.061,1.027,0.604,0.808,1.452c0.377,0.062,0.959-0.13,1.216-0.458c-0.42-0.283-0.476-0.64-0.454-0.995
		c0.028-0.451,0.221-0.971,0.714-0.99c0.09-0.003-0.137,0.492,0.077,0.953c0.092,0.198,0.273,0.376,0.49,0.21
		c0.968-0.739,0.44-3.125-0.91-3.908c-0.693-0.402-1.555-0.537-2.391-0.461c-0.133,0.184-0.366,0.299-0.423,0.551
		c-0.095,0.419,0.065,0.799,0.458,0.935c0.511,0.176,0.391,0.584,0.237,0.564c-0.931-0.121-1.897-0.649-1.946-1.587
		c-1.05,0.518-1.956,1.35-3.068,1.737c-1.786,0.622-4.601,0.241-4.796-1.771C27.298,2.66,28.112,2.12,28.477,2.64
		c0.266,0.38,0.222,0.883-0.319,1.059c0.039,0.217,0.248,0.352,0.397,0.431c0.75,0.395,3.121-0.153,2.966-1.284
		c-0.079-0.129-0.115-0.26,0.071-0.198c0.427,0.14,0.78,0.623,0.866,1.053c0.016,0.081,0.022,0.187,0.015,0.295
		C33.248,3.557,33.957,3,34.75,2.581c1.894-1,4.453-0.572,5.68,1.246C41.624,5.593,41.613,8.282,39.207,9.016z"/>
	<path fill="#A39475" d="M26.505,3.345c0-0.138-0.111-0.248-0.249-0.248c-0.097,0-0.18,0.056-0.221,0.137H8.031
		C8.488,1.958,6.818,1.779,5.984,2.35c-0.612,0.419-1.33,0.914-2.112,0.632c-0.223-0.08-0.957-0.857-0.344-0.909
		C3.931,2.038,4.301,2.23,4.126,2.691C4.059,2.87,4.31,2.701,4.348,2.645c0.678-0.987-1.1-1.233-1.301-0.177
		C2.739,2.289,2.358,2.334,1.992,2.451c-0.253,0.081-1.74,1.067-1.635,0.321c0.025-0.18-0.282,0.119-0.308,0.174
		c-0.085,0.181-0.051,0.313,0.043,0.399c-0.094,0.085-0.128,0.217-0.043,0.398C0.075,3.8,0.383,4.098,0.357,3.918
		C0.253,3.173,1.739,4.159,1.992,4.24c0.366,0.117,0.747,0.162,1.055-0.017c0.201,1.056,1.978,0.809,1.301-0.178
		C4.31,3.99,4.059,3.821,4.126,4C4.301,4.46,3.931,4.652,3.529,4.618c-0.613-0.052,0.121-0.829,0.344-0.91
		C4.654,3.427,5.372,3.921,5.984,4.34c0.834,0.571,2.505,0.392,2.048-0.884h18.004c0.041,0.081,0.123,0.137,0.221,0.137
		C26.393,3.594,26.505,3.482,26.505,3.345z M3.794,3.345C3.449,3.403,3.133,3.559,3.051,3.873C2.244,4.369,1.633,3.719,0.918,3.345
		c0.716-0.374,1.326-1.024,2.133-0.528C3.133,3.131,3.449,3.287,3.794,3.345z M6.949,2.19C6.632,2.293,6.347,2.566,6.301,2.91
		C6.269,3.143,6.39,3.315,6.577,3.345C6.39,3.375,6.269,3.547,6.301,3.78c0.046,0.345,0.331,0.617,0.649,0.721
		C6.454,4.516,5.967,4.143,5.6,3.87C5.292,3.641,4.964,3.453,4.589,3.364C4.56,3.357,4.529,3.351,4.495,3.345
		C4.529,3.339,4.56,3.333,4.589,3.326C4.964,3.237,5.292,3.049,5.6,2.82C5.967,2.548,6.454,2.174,6.949,2.19z M7.3,3.345
		l0.573,0.077c0.1,0.372,0.001,0.615-0.207,0.788c-0.02,0.007-0.039,0.017-0.063,0.032c-0.104,0.067-0.246,0.07-0.364,0.06
		C7.111,4.291,6.754,4.248,6.68,4.133C6.599,4.01,6.59,3.831,6.706,3.729C6.766,3.676,6.86,3.683,6.933,3.693
		c0-0.013,0.001-0.026,0.001-0.039c0.008,0.031,0.005,0.059-0.01,0.087C6.909,3.785,6.885,3.824,6.871,3.87
		c-0.025,0.079,0.115,0.222,0.19,0.223c0.202,0.004,0.233-0.134,0.182-0.304C7.187,3.605,6.994,3.451,6.825,3.379
		C6.786,3.363,6.747,3.352,6.711,3.345c0.037-0.007,0.075-0.018,0.114-0.035C6.994,3.24,7.187,3.085,7.243,2.902
		c0.052-0.17,0.02-0.308-0.182-0.304c-0.074,0.002-0.215,0.144-0.19,0.223C6.885,2.866,6.909,2.905,6.924,2.95
		c0.015,0.028,0.018,0.057,0.01,0.087c0-0.013,0-0.026-0.001-0.039C6.86,3.008,6.766,3.015,6.706,2.961
		C6.59,2.859,6.599,2.68,6.68,2.557C6.754,2.442,7.111,2.4,7.239,2.388c0.117-0.01,0.259-0.007,0.364,0.06
		C7.626,2.464,7.646,2.473,7.666,2.48c0.208,0.173,0.307,0.416,0.207,0.788L7.3,3.345z"/>
	<path fill="#A39475" d="M42.609,8.965c0-0.262,0.212-0.83,0.474-0.83c0.262,0,0.475,0.569,0.475,0.83
		c0,0.262-0.212,0.474-0.475,0.474C42.822,9.439,42.609,9.227,42.609,8.965z"/>
	<path fill="#A39475" d="M43.585,3.523c0,0.277-0.225,0.858-0.502,0.858c-0.277,0-0.502-0.581-0.502-0.858
		c0-0.277,0.225-0.502,0.502-0.502C43.36,3.021,43.585,3.246,43.585,3.523z"/>
</g>
</svg>
