<?xml version="1.0" standalone="no"?>
<!DOCTYPE svg PUBLIC "-//W3C//DTD SVG 1.1//EN" "http://www.w3.org/Graphics/SVG/1.1/DTD/svg11.dtd" >
<svg xmlns="http://www.w3.org/2000/svg" xmlns:xlink="http://www.w3.org/1999/xlink" version="1.1">
<metadata>
Created by FontForge 20150824 at Fri Jul 22 05:12:38 2016
 By Everything Fonts
Copyright (c) 2009 by Mark Simonson. www.ms-studio.com. All rights reserved.
</metadata>
<defs>
<font id="MostraNuova-Bold" horiz-adv-x="465" >
  <font-face 
    font-family="Mostra Nuova"
    font-weight="700"
    font-stretch="normal"
    units-per-em="1000"
    panose-1="2 11 8 2 2 2 2 6 3 2"
    ascent="800"
    descent="-200"
    x-height="468"
    cap-height="685"
    bbox="-59 -246 998 924"
    underline-thickness="20"
    underline-position="-133"
    stemh="128"
    stemv="128"
    unicode-range="U+000D-FB02"
  />
<missing-glyph horiz-adv-x="590" 
d="M510 0h-430v685h430v-685zM140 60h310v565h-310v-565zM236 279v84c32 0 59 26 59 58c0 33 -27 59 -59 59v83c78 0 142 -63 142 -142c0 -78 -64 -142 -142 -142zM319 136h-83v84h83v-84z" />
    <glyph glyph-name="fi" unicode="fi" horiz-adv-x="502" 
d="M264 468v-128h-70v-340h-128v340h-56v128h56v53c0 94 50 178 154 178c12 0 30 -3 44 -12v-121c-6 3 -16 5 -24 5c-25 0 -46 -23 -46 -50v-53h70zM452 0h-128v468h128v-468zM452 513h-128v128h128v-128z" />
    <glyph glyph-name="fl" unicode="fl" horiz-adv-x="502" 
d="M264 468v-128h-70v-340h-128v340h-56v128h56v53c0 94 50 178 154 178c12 0 30 -3 44 -12v-121c-6 3 -16 5 -24 5c-25 0 -46 -23 -46 -50v-53h70zM452 0h-128v685h128v-685z" />
    <glyph glyph-name=".notdef" horiz-adv-x="590" 
d="M510 0h-430v685h430v-685zM140 60h310v565h-310v-565zM236 279v84c32 0 59 26 59 58c0 33 -27 59 -59 59v83c78 0 142 -63 142 -142c0 -78 -64 -142 -142 -142zM319 136h-83v84h83v-84z" />
    <glyph glyph-name="NULL" horiz-adv-x="0" 
 />
    <glyph glyph-name="NULL" horiz-adv-x="0" 
 />
    <glyph glyph-name="CR" unicode="&#xd;" horiz-adv-x="260" 
 />
    <glyph glyph-name="space" unicode=" " horiz-adv-x="260" 
 />
    <glyph glyph-name="uni00A0" unicode="&#xa0;" horiz-adv-x="260" 
 />
    <glyph glyph-name="zero" unicode="0" horiz-adv-x="783" 
d="M748 342c0 -197 -159 -356 -356 -356s-357 159 -357 356s160 357 357 357s356 -160 356 -357zM611 342c0 121 -98 219 -219 219s-220 -98 -220 -219s99 -219 220 -219s219 98 219 219z" />
    <glyph glyph-name="one" unicode="1" horiz-adv-x="296" 
d="M216 0h-136v609l136 94v-703z" />
    <glyph glyph-name="two" unicode="2" horiz-adv-x="392" 
d="M362 0h-362l173 395c6 14 9 30 9 46c0 65 -54 118 -113 118h-5v135h5c134 0 249 -113 249 -253c0 -35 -7 -69 -21 -100l-89 -205h154v-136z" />
    <glyph glyph-name="three" unicode="3" horiz-adv-x="390" 
d="M330 238c0 -141 -114 -254 -248 -254h-5v135h5c59 0 113 53 113 119c0 65 -53 118 -118 118l85 193h-132v136h340l-117 -265c49 -48 77 -114 77 -182z" />
    <glyph glyph-name="four" unicode="4" horiz-adv-x="507" 
d="M487 132h-108v-132h-136v132h-255l391 597v-461h108v-136zM243 268v82l-58 -82h58z" />
    <glyph glyph-name="five" unicode="5" horiz-adv-x="344" 
d="M304 238c0 -141 -115 -254 -249 -254h-5v135h5c59 0 113 53 113 119c0 65 -54 118 -113 118h-5v329h250v-136h-114v-97c73 -47 118 -127 118 -214z" />
    <glyph glyph-name="six" unicode="6" 
d="M389 685l-136 -316c97 -11 172 -92 172 -191c0 -106 -86 -192 -193 -192c-106 0 -192 86 -192 192c0 28 6 55 17 80l185 427h147zM289 178c0 32 -25 57 -57 57c-31 0 -56 -26 -56 -57s25 -57 56 -57c32 0 57 26 57 57z" />
    <glyph glyph-name="seven" unicode="7" horiz-adv-x="442" 
d="M442 685l-295 -685h-147l237 549h-200v136h405z" />
    <glyph glyph-name="eight" unicode="8" horiz-adv-x="544" 
d="M504 218c0 -128 -104 -232 -232 -232s-232 104 -232 232c0 69 30 131 78 173c-24 32 -38 72 -38 116c0 106 86 192 192 192s192 -86 192 -192c0 -44 -14 -84 -38 -116c48 -42 78 -104 78 -173zM329 507c0 31 -26 56 -57 56s-57 -25 -57 -56c0 -32 26 -57 57 -57
s57 25 57 57zM368 218c0 53 -43 96 -96 96s-96 -43 -96 -96c0 -54 43 -97 96 -97s96 43 96 97z" />
    <glyph glyph-name="nine" unicode="9" 
d="M223 0h-147l136 316c-97 10 -172 92 -172 191c0 106 86 192 193 192c106 0 192 -86 192 -192c0 -28 -6 -55 -17 -80zM176 507c0 -32 25 -57 56 -57c32 0 57 25 57 57c0 31 -25 56 -57 56c-31 0 -56 -25 -56 -56z" />
    <glyph glyph-name="A" unicode="A" horiz-adv-x="517" 
d="M384 0l-21 57h-209l-21 -57h-146l272 706l271 -706h-146zM259 332l-68 -177h135z" />
    <glyph glyph-name="Aacute" unicode="&#xc1;" horiz-adv-x="517" 
d="M384 0l-21 57h-209l-21 -57h-146l272 706l271 -706h-146zM259 332l-68 -177h135zM228 709l-73 73l136 137l74 -74z" />
    <glyph glyph-name="Agrave" unicode="&#xc0;" horiz-adv-x="517" 
d="M384 0l-21 57h-209l-21 -57h-146l272 706l271 -706h-146zM259 332l-68 -177h135zM365 782l-74 -73l-136 136l73 74z" />
    <glyph glyph-name="Acircumflex" unicode="&#xc2;" horiz-adv-x="517" 
d="M384 0l-21 57h-209l-21 -57h-146l272 706l271 -706h-146zM259 332l-68 -177h135zM196 709l-73 73l136 137l136 -137l-73 -73l-63 63z" />
    <glyph glyph-name="Adieresis" unicode="&#xc4;" horiz-adv-x="517" 
d="M384 0l-21 57h-209l-21 -57h-146l272 706l271 -706h-146zM259 332l-68 -177h135zM119 792c0 35 28 64 63 64s63 -29 63 -64c0 -34 -28 -63 -63 -63s-63 29 -63 63zM274 792c0 35 28 64 63 64s63 -29 63 -64c0 -34 -28 -63 -63 -63s-63 29 -63 63z" />
    <glyph glyph-name="Atilde" unicode="&#xc3;" horiz-adv-x="517" 
d="M384 0l-21 57h-209l-21 -57h-146l272 706l271 -706h-146zM259 332l-68 -177h135zM419 825c0 -66 -45 -102 -101 -102c-32 0 -54 13 -72 23c-13 8 -24 14 -36 14c-19 0 -32 -14 -31 -32h-77c-2 8 -3 19 -3 30c0 67 45 103 101 103c32 0 54 -13 72 -24c13 -7 24 -14 36 -14
c19 0 32 14 31 33h76c3 -9 4 -20 4 -31z" />
    <glyph glyph-name="Aring" unicode="&#xc5;" horiz-adv-x="517" 
d="M384 0l-21 57h-209l-21 -57h-146l272 706l271 -706h-146zM259 332l-68 -177h135zM359 808c0 -55 -44 -99 -99 -99s-99 44 -99 99s44 99 99 99s99 -44 99 -99zM304 808c0 24 -20 44 -44 44s-44 -20 -44 -44s20 -44 44 -44s44 20 44 44z" />
    <glyph glyph-name="Abreve" unicode="&#x102;" horiz-adv-x="517" 
d="M384 0l-21 57h-209l-21 -57h-146l272 706l271 -706h-146zM259 332l-68 -177h135zM260 824c36 0 72 14 100 42l73 -74c-48 -48 -111 -72 -174 -72s-125 24 -173 72l74 74c27 -28 64 -42 100 -42z" />
    <glyph glyph-name="Amacron" unicode="&#x100;" horiz-adv-x="517" 
d="M384 0l-21 57h-209l-21 -57h-146l272 706l271 -706h-146zM259 332l-68 -177h135zM415 845v-103h-312v103h312z" />
    <glyph glyph-name="Aogonek" unicode="&#x104;" horiz-adv-x="517" 
d="M259 332l-68 -177h135zM495 -96v-79c-72 0 -129 58 -129 129c0 21 5 40 14 58l-17 45h-209l-21 -57h-146l272 706l271 -706h-35c-24 0 -45 -21 -45 -47c0 -27 21 -49 45 -49z" />
    <glyph glyph-name="A.alt1" horiz-adv-x="517" 
d="M259 1l-86 108l-41 -109h-145l271 706l271 -706h-145l-41 107zM258 332l-77 -202h154z" />
    <glyph glyph-name="Aacute.alt1" horiz-adv-x="517" 
d="M259 1l-86 108l-41 -109h-145l271 706l271 -706h-145l-41 107zM258 332l-77 -202h154zM227 709l-73 73l136 137l74 -74z" />
    <glyph glyph-name="Agrave.alt1" horiz-adv-x="517" 
d="M259 1l-86 108l-41 -109h-145l271 706l271 -706h-145l-41 107zM258 332l-77 -202h154zM364 782l-74 -73l-136 136l73 74z" />
    <glyph glyph-name="Acircumflex.alt1" horiz-adv-x="517" 
d="M259 1l-86 108l-41 -109h-145l271 706l271 -706h-145l-41 107zM258 332l-77 -202h154zM195 709l-73 73l136 137l136 -137l-73 -73l-63 63z" />
    <glyph glyph-name="Adieresis.alt1" horiz-adv-x="517" 
d="M259 1l-86 108l-41 -109h-145l271 706l271 -706h-145l-41 107zM258 332l-77 -202h154zM118 792c0 35 28 64 63 64s63 -29 63 -64c0 -34 -28 -63 -63 -63s-63 29 -63 63zM273 792c0 35 28 64 63 64s63 -29 63 -64c0 -34 -28 -63 -63 -63s-63 29 -63 63z" />
    <glyph glyph-name="Atilde.alt1" horiz-adv-x="517" 
d="M259 1l-86 108l-41 -109h-145l271 706l271 -706h-145l-41 107zM258 332l-77 -202h154zM418 825c0 -66 -45 -102 -101 -102c-32 0 -54 13 -72 23c-13 8 -24 14 -36 14c-19 0 -32 -14 -31 -32h-77c-2 8 -3 19 -3 30c0 67 45 103 101 103c32 0 54 -13 72 -24
c13 -7 24 -14 36 -14c19 0 32 14 31 33h76c3 -9 4 -20 4 -31z" />
    <glyph glyph-name="Aring.alt1" horiz-adv-x="517" 
d="M259 1l-86 108l-41 -109h-145l271 706l271 -706h-145l-41 107zM258 332l-77 -202h154zM358 808c0 -55 -44 -99 -99 -99s-99 44 -99 99s44 99 99 99s99 -44 99 -99zM303 808c0 24 -20 44 -44 44s-44 -20 -44 -44s20 -44 44 -44s44 20 44 44z" />
    <glyph glyph-name="Abreve.alt1" horiz-adv-x="517" 
d="M259 1l-86 108l-41 -109h-145l271 706l271 -706h-145l-41 107zM258 332l-77 -202h154zM259 824c36 0 72 14 100 42l73 -74c-48 -48 -111 -72 -174 -72s-125 24 -173 72l74 74c27 -28 64 -42 100 -42z" />
    <glyph glyph-name="Amacron.alt1" horiz-adv-x="517" 
d="M259 1l-86 108l-41 -109h-145l271 706l271 -706h-145l-41 107zM258 332l-77 -202h154zM414 845v-103h-312v103h312z" />
    <glyph glyph-name="Aogonek.alt1" horiz-adv-x="517" 
d="M258 332l-77 -202h154zM495 -96v-79c-72 0 -129 58 -129 129c0 21 5 40 14 57l-37 96l-84 -106l-86 108l-41 -109h-145l271 706l271 -706h-34c-24 0 -45 -21 -45 -47c0 -27 21 -49 45 -49z" />
    <glyph glyph-name="A.alt2" horiz-adv-x="517" 
d="M384 0l-126 332l-126 -332h-145l271 706l271 -706h-145z" />
    <glyph glyph-name="Aacute.alt2" horiz-adv-x="517" 
d="M384 0l-126 332l-126 -332h-145l271 706l271 -706h-145zM227 709l-73 73l136 137l74 -74z" />
    <glyph glyph-name="Agrave.alt2" horiz-adv-x="517" 
d="M384 0l-126 332l-126 -332h-145l271 706l271 -706h-145zM364 782l-74 -73l-136 136l73 74z" />
    <glyph glyph-name="Acircumflex.alt2" horiz-adv-x="517" 
d="M384 0l-126 332l-126 -332h-145l271 706l271 -706h-145zM195 709l-73 73l136 137l136 -137l-73 -73l-63 63z" />
    <glyph glyph-name="Adieresis.alt2" horiz-adv-x="517" 
d="M384 0l-126 332l-126 -332h-145l271 706l271 -706h-145zM118 792c0 35 28 64 63 64s63 -29 63 -64c0 -34 -28 -63 -63 -63s-63 29 -63 63zM273 792c0 35 28 64 63 64s63 -29 63 -64c0 -34 -28 -63 -63 -63s-63 29 -63 63z" />
    <glyph glyph-name="Atilde.alt2" horiz-adv-x="517" 
d="M384 0l-126 332l-126 -332h-145l271 706l271 -706h-145zM418 825c0 -66 -45 -102 -101 -102c-32 0 -54 13 -72 23c-13 8 -24 14 -36 14c-19 0 -32 -14 -31 -32h-77c-2 8 -3 19 -3 30c0 67 45 103 101 103c32 0 54 -13 72 -24c13 -7 24 -14 36 -14c19 0 32 14 31 33h76
c3 -9 4 -20 4 -31z" />
    <glyph glyph-name="Aring.alt2" horiz-adv-x="517" 
d="M384 0l-126 332l-126 -332h-145l271 706l271 -706h-145zM358 808c0 -55 -44 -99 -99 -99s-99 44 -99 99s44 99 99 99s99 -44 99 -99zM303 808c0 24 -20 44 -44 44s-44 -20 -44 -44s20 -44 44 -44s44 20 44 44z" />
    <glyph glyph-name="Abreve.alt2" horiz-adv-x="517" 
d="M384 0l-126 332l-126 -332h-145l271 706l271 -706h-145zM259 824c36 0 72 14 100 42l73 -74c-48 -48 -111 -72 -174 -72s-125 24 -173 72l74 74c27 -28 64 -42 100 -42z" />
    <glyph glyph-name="Amacron.alt2" horiz-adv-x="517" 
d="M384 0l-126 332l-126 -332h-145l271 706l271 -706h-145zM414 845v-103h-312v103h312z" />
    <glyph glyph-name="Aogonek.alt2" horiz-adv-x="517" 
d="M495 -96v-79c-72 0 -129 58 -129 129c0 21 5 40 14 57l-122 321l-126 -332h-145l271 706l271 -706h-34c-24 0 -45 -21 -45 -47c0 -27 21 -49 45 -49z" />
    <glyph glyph-name="AE" unicode="&#xc6;" horiz-adv-x="789" 
d="M142 0h-155l382 685h370v-136h-229v-137h229v-135h-229v-141h229v-136h-365v57h-200zM228 155h146v264z" />
    <glyph glyph-name="AEacute" unicode="&#x1fc;" horiz-adv-x="789" 
d="M142 0h-155l382 685h370v-136h-229v-137h229v-135h-229v-141h229v-136h-365v57h-200zM228 155h146v264zM411 709l-73 73l136 137l74 -74z" />
    <glyph glyph-name="AE.alt1" horiz-adv-x="789" 
d="M142 0h-154l381 685h370v-136h-229v-191l172 65v-157l-172 65v-195h229v-136h-365v107l-84 -106l-87 109zM214 130h160v289z" />
    <glyph glyph-name="AEacute.alt1" horiz-adv-x="789" 
d="M142 0h-154l381 685h370v-136h-229v-191l172 65v-157l-172 65v-195h229v-136h-365v107l-84 -106l-87 109zM214 130h160v289zM411 709l-73 73l136 137l74 -74z" />
    <glyph glyph-name="AE.alt2" horiz-adv-x="789" 
d="M142 0h-155l382 685h370v-136h-229v-137h229v-135h-229v-141h229v-136h-365v419z" />
    <glyph glyph-name="AEacute.alt2" horiz-adv-x="789" 
d="M142 0h-155l382 685h370v-136h-229v-137h229v-135h-229v-141h229v-136h-365v419zM411 709l-73 73l136 137l74 -74z" />
    <glyph glyph-name="B" unicode="B" horiz-adv-x="512" 
d="M472 206c0 -114 -93 -206 -206 -206h-186v685h169c113 0 204 -92 204 -204c0 -52 -19 -98 -59 -130c51 -32 78 -85 78 -145zM336 206c0 39 -31 71 -70 71h-50v-141h50c39 0 70 31 70 70zM318 481c0 37 -31 68 -69 68h-33v-137h33c38 0 69 31 69 69z" />
    <glyph glyph-name="C" unicode="C" horiz-adv-x="654" 
d="M548 186l96 -96c-65 -64 -154 -104 -252 -104c-197 0 -357 159 -357 356s160 357 357 357c98 0 187 -40 252 -104l-96 -96c-40 40 -95 65 -156 65c-123 0 -222 -99 -222 -222c0 -122 99 -221 222 -221c61 0 116 25 156 65z" />
    <glyph glyph-name="Ccedilla" unicode="&#xc7;" horiz-adv-x="654" 
d="M408 -201l-72 72c9 10 15 24 15 39s-6 29 -15 39l37 38c-188 9 -338 164 -338 355c0 197 160 357 357 357c98 0 187 -40 252 -104l-96 -96c-40 40 -95 65 -156 65c-123 0 -222 -99 -222 -222c0 -122 99 -221 222 -221c61 0 116 25 156 65l96 -96
c-56 -55 -129 -92 -211 -101c13 -23 21 -50 21 -79c0 -44 -18 -83 -46 -111z" />
    <glyph glyph-name="Cacute" unicode="&#x106;" horiz-adv-x="654" 
d="M548 186l96 -96c-65 -64 -154 -104 -252 -104c-197 0 -357 159 -357 356s160 357 357 357c98 0 187 -40 252 -104l-96 -96c-40 40 -95 65 -156 65c-123 0 -222 -99 -222 -222c0 -122 99 -221 222 -221c61 0 116 25 156 65zM361 709l-73 73l136 137l74 -74z" />
    <glyph glyph-name="Ccaron" unicode="&#x10c;" horiz-adv-x="654" 
d="M548 186l96 -96c-65 -64 -154 -104 -252 -104c-197 0 -357 159 -357 356s160 357 357 357c98 0 187 -40 252 -104l-96 -96c-40 40 -95 65 -156 65c-123 0 -222 -99 -222 -222c0 -122 99 -221 222 -221c61 0 116 25 156 65zM455 919l73 -74l-136 -136l-136 136l73 74
l63 -63z" />
    <glyph glyph-name="Ccircumflex" unicode="&#x108;" horiz-adv-x="654" 
d="M548 186l96 -96c-65 -64 -154 -104 -252 -104c-197 0 -357 159 -357 356s160 357 357 357c98 0 187 -40 252 -104l-96 -96c-40 40 -95 65 -156 65c-123 0 -222 -99 -222 -222c0 -122 99 -221 222 -221c61 0 116 25 156 65zM329 709l-73 73l136 137l136 -137l-73 -73
l-63 63z" />
    <glyph glyph-name="Cdotaccent" unicode="&#x10a;" horiz-adv-x="654" 
d="M548 186l96 -96c-65 -64 -154 -104 -252 -104c-197 0 -357 159 -357 356s160 357 357 357c98 0 187 -40 252 -104l-96 -96c-40 40 -95 65 -156 65c-123 0 -222 -99 -222 -222c0 -122 99 -221 222 -221c61 0 116 25 156 65zM329 792c0 35 28 64 63 64s63 -29 63 -64
c0 -34 -28 -63 -63 -63s-63 29 -63 63z" />
    <glyph glyph-name="C.alt2" horiz-adv-x="432" 
d="M392 564c-123 0 -222 -99 -222 -222c0 -122 99 -221 222 -221v-135c-197 0 -357 159 -357 356s160 357 357 357v-135z" />
    <glyph glyph-name="Ccedilla.alt2" horiz-adv-x="432" 
d="M291 -201l-72 72c9 10 15 24 15 39s-6 29 -15 39l56 56c-140 48 -240 180 -240 337c0 197 160 357 357 357v-135c-123 0 -222 -99 -222 -222c0 -122 99 -221 222 -221v-135c-28 0 -55 3 -80 9c15 -24 25 -53 25 -85c0 -44 -18 -83 -46 -111z" />
    <glyph glyph-name="Cacute.alt2" horiz-adv-x="432" 
d="M392 564c-123 0 -222 -99 -222 -222c0 -122 99 -221 222 -221v-135c-197 0 -357 159 -357 356s160 357 357 357v-135zM263 709l-73 73l136 137l74 -74z" />
    <glyph glyph-name="Ccaron.alt2" horiz-adv-x="432" 
d="M392 564c-123 0 -222 -99 -222 -222c0 -122 99 -221 222 -221v-135c-197 0 -357 159 -357 356s160 357 357 357v-135zM356 919l73 -74l-136 -136l-136 136l73 74l63 -63z" />
    <glyph glyph-name="Ccircumflex.alt2" horiz-adv-x="432" 
d="M392 564c-123 0 -222 -99 -222 -222c0 -122 99 -221 222 -221v-135c-197 0 -357 159 -357 356s160 357 357 357v-135zM230 709l-73 73l136 137l136 -137l-73 -73l-63 63z" />
    <glyph glyph-name="Cdotaccent.alt2" horiz-adv-x="432" 
d="M392 564c-123 0 -222 -99 -222 -222c0 -122 99 -221 222 -221v-135c-197 0 -357 159 -357 356s160 357 357 357v-135zM233 792c0 35 28 64 63 64s63 -29 63 -64c0 -34 -28 -63 -63 -63s-63 29 -63 63z" />
    <glyph glyph-name="D" unicode="D" horiz-adv-x="631" 
d="M596 342c0 -189 -154 -342 -343 -342h-173v685h173c189 0 343 -154 343 -343zM460 342c0 115 -92 207 -207 207h-37v-413h37c115 0 207 92 207 206z" />
    <glyph glyph-name="Dcaron" unicode="&#x10e;" horiz-adv-x="631" 
d="M596 342c0 -189 -154 -342 -343 -342h-173v685h173c189 0 343 -154 343 -343zM460 342c0 115 -92 207 -207 207h-37v-413h37c115 0 207 92 207 206zM378 919l73 -74l-136 -136l-136 136l73 74l63 -63z" />
    <glyph glyph-name="Dcroat" unicode="&#x110;" horiz-adv-x="631" 
d="M23 292v103h57v290h173c189 0 343 -154 343 -343s-154 -342 -343 -342h-173v292h-57zM460 342c0 115 -92 207 -207 207h-37v-154h59v-103h-59v-156h37c115 0 207 92 207 206z" />
    <glyph glyph-name="E" unicode="E" horiz-adv-x="495" 
d="M445 0h-365v685h365v-136h-229v-137h229v-135h-229v-141h229v-136z" />
    <glyph glyph-name="Eacute" unicode="&#xc9;" horiz-adv-x="495" 
d="M445 0h-365v685h365v-136h-229v-137h229v-135h-229v-141h229v-136zM231 709l-73 73l136 137l74 -74z" />
    <glyph glyph-name="Egrave" unicode="&#xc8;" horiz-adv-x="495" 
d="M445 0h-365v685h365v-136h-229v-137h229v-135h-229v-141h229v-136zM368 782l-74 -73l-136 136l73 74z" />
    <glyph glyph-name="Ecircumflex" unicode="&#xca;" horiz-adv-x="495" 
d="M445 0h-365v685h365v-136h-229v-137h229v-135h-229v-141h229v-136zM199 709l-73 73l136 137l136 -137l-73 -73l-63 63z" />
    <glyph glyph-name="Edieresis" unicode="&#xcb;" horiz-adv-x="495" 
d="M445 0h-365v685h365v-136h-229v-137h229v-135h-229v-141h229v-136zM122 792c0 35 28 64 63 64s63 -29 63 -64c0 -34 -28 -63 -63 -63s-63 29 -63 63zM277 792c0 35 28 64 63 64s63 -29 63 -64c0 -34 -28 -63 -63 -63s-63 29 -63 63z" />
    <glyph glyph-name="Ebreve" unicode="&#x114;" horiz-adv-x="495" 
d="M445 0h-365v685h365v-136h-229v-137h229v-135h-229v-141h229v-136zM263 824c36 0 72 14 100 42l73 -74c-48 -48 -111 -72 -174 -72s-125 24 -173 72l74 74c27 -28 64 -42 100 -42z" />
    <glyph glyph-name="Ecaron" unicode="&#x11a;" horiz-adv-x="495" 
d="M445 0h-365v685h365v-136h-229v-137h229v-135h-229v-141h229v-136zM325 919l73 -74l-136 -136l-136 136l73 74l63 -63z" />
    <glyph glyph-name="Edotaccent" unicode="&#x116;" horiz-adv-x="495" 
d="M445 0h-365v685h365v-136h-229v-137h229v-135h-229v-141h229v-136zM199 792c0 35 28 64 63 64s63 -29 63 -64c0 -34 -28 -63 -63 -63s-63 29 -63 63z" />
    <glyph glyph-name="Emacron" unicode="&#x112;" horiz-adv-x="495" 
d="M445 0h-365v685h365v-136h-229v-137h229v-135h-229v-141h229v-136zM418 845v-103h-312v103h312z" />
    <glyph glyph-name="Eogonek" unicode="&#x118;" horiz-adv-x="495" 
d="M445 -175c-72 0 -129 58 -129 129c0 16 3 32 9 46h-245v685h365v-136h-229v-137h229v-135h-229v-141h229v-136c-24 0 -45 -21 -45 -47c0 -27 21 -49 45 -49v-79z" />
    <glyph glyph-name="E.alt1" horiz-adv-x="495" 
d="M445 0h-365v685h365v-136h-229v-191l171 65v-157l-171 65v-195h229v-136z" />
    <glyph glyph-name="Eacute.alt1" horiz-adv-x="495" 
d="M445 0h-365v685h365v-136h-229v-191l171 65v-157l-171 65v-195h229v-136zM231 709l-73 73l136 137l74 -74z" />
    <glyph glyph-name="Egrave.alt1" horiz-adv-x="495" 
d="M445 0h-365v685h365v-136h-229v-191l171 65v-157l-171 65v-195h229v-136zM368 782l-74 -73l-136 136l73 74z" />
    <glyph glyph-name="Ecircumflex.alt1" horiz-adv-x="495" 
d="M445 0h-365v685h365v-136h-229v-191l171 65v-157l-171 65v-195h229v-136zM199 709l-73 73l136 137l136 -137l-73 -73l-63 63z" />
    <glyph glyph-name="Edieresis.alt1" horiz-adv-x="495" 
d="M445 0h-365v685h365v-136h-229v-191l171 65v-157l-171 65v-195h229v-136zM122 792c0 35 28 64 63 64s63 -29 63 -64c0 -34 -28 -63 -63 -63s-63 29 -63 63zM277 792c0 35 28 64 63 64s63 -29 63 -64c0 -34 -28 -63 -63 -63s-63 29 -63 63z" />
    <glyph glyph-name="Ebreve.alt1" horiz-adv-x="495" 
d="M445 0h-365v685h365v-136h-229v-191l171 65v-157l-171 65v-195h229v-136zM263 824c36 0 72 14 100 42l73 -74c-48 -48 -111 -72 -174 -72s-125 24 -173 72l74 74c27 -28 64 -42 100 -42z" />
    <glyph glyph-name="Ecaron.alt1" horiz-adv-x="495" 
d="M445 0h-365v685h365v-136h-229v-191l171 65v-157l-171 65v-195h229v-136zM325 919l73 -74l-136 -136l-136 136l73 74l63 -63z" />
    <glyph glyph-name="Edotaccent.alt1" horiz-adv-x="495" 
d="M445 0h-365v685h365v-136h-229v-191l171 65v-157l-171 65v-195h229v-136zM199 792c0 35 28 64 63 64s63 -29 63 -64c0 -34 -28 -63 -63 -63s-63 29 -63 63z" />
    <glyph glyph-name="Emacron.alt1" horiz-adv-x="495" 
d="M445 0h-365v685h365v-136h-229v-191l171 65v-157l-171 65v-195h229v-136zM418 845v-103h-312v103h312z" />
    <glyph glyph-name="Eogonek.alt1" horiz-adv-x="495" 
d="M445 -96v-79c-72 0 -129 58 -129 129c0 16 3 32 9 46h-245v685h365v-136h-229v-191l171 65v-157l-171 65v-195h229v-136c-24 0 -45 -21 -45 -47c0 -27 21 -49 45 -49z" />
    <glyph glyph-name="F" unicode="F" horiz-adv-x="495" 
d="M445 277h-229v-277h-136v685h365v-136h-229v-137h229v-135z" />
    <glyph glyph-name="F.alt1" horiz-adv-x="495" 
d="M387 266l-171 65v-331h-136v685h365v-136h-229v-191l171 65v-157z" />
    <glyph glyph-name="G" unicode="G" horiz-adv-x="758" 
d="M392 121c75 0 141 37 181 94h-181v127h356c0 -196 -160 -356 -356 -356c-197 0 -357 160 -357 356c0 197 160 357 357 357c94 0 185 -38 252 -104l-96 -96c-41 41 -98 65 -156 65c-123 0 -222 -99 -222 -222c0 -122 99 -221 222 -221z" />
    <glyph glyph-name="Gbreve" unicode="&#x11e;" horiz-adv-x="758" 
d="M392 121c75 0 141 37 181 94h-181v127h356c0 -196 -160 -356 -356 -356c-197 0 -357 160 -357 356c0 197 160 357 357 357c94 0 185 -38 252 -104l-96 -96c-41 41 -98 65 -156 65c-123 0 -222 -99 -222 -222c0 -122 99 -221 222 -221zM393 824c36 0 72 14 100 42l73 -74
c-48 -48 -111 -72 -174 -72s-125 24 -173 72l74 74c27 -28 64 -42 100 -42z" />
    <glyph glyph-name="Gcircumflex" unicode="&#x11c;" horiz-adv-x="758" 
d="M392 121c75 0 141 37 181 94h-181v127h356c0 -196 -160 -356 -356 -356c-197 0 -357 160 -357 356c0 197 160 357 357 357c94 0 185 -38 252 -104l-96 -96c-41 41 -98 65 -156 65c-123 0 -222 -99 -222 -222c0 -122 99 -221 222 -221zM329 709l-73 73l136 137l136 -137
l-73 -73l-63 63z" />
    <glyph glyph-name="uni0122" unicode="&#x122;" horiz-adv-x="758" 
d="M392 121c75 0 141 37 181 94h-181v127h356c0 -196 -160 -356 -356 -356c-197 0 -357 160 -357 356c0 197 160 357 357 357c94 0 185 -38 252 -104l-96 -96c-41 41 -98 65 -156 65c-123 0 -222 -99 -222 -222c0 -122 99 -221 222 -221zM460 -137l-136 -109v196h136v-87z
" />
    <glyph glyph-name="Gdotaccent" unicode="&#x120;" horiz-adv-x="758" 
d="M392 121c75 0 141 37 181 94h-181v127h356c0 -196 -160 -356 -356 -356c-197 0 -357 160 -357 356c0 197 160 357 357 357c94 0 185 -38 252 -104l-96 -96c-41 41 -98 65 -156 65c-123 0 -222 -99 -222 -222c0 -122 99 -221 222 -221zM329 792c0 35 28 64 63 64
s63 -29 63 -64c0 -34 -28 -63 -63 -63s-63 29 -63 63z" />
    <glyph glyph-name="G.alt1" horiz-adv-x="704" 
d="M392 121c43 0 82 12 116 32v189h136v-252c-65 -64 -154 -104 -252 -104c-197 0 -357 159 -357 356s160 357 357 357c98 0 187 -40 252 -104l-96 -96c-40 40 -95 65 -156 65c-123 0 -222 -99 -222 -222c0 -122 99 -221 222 -221z" />
    <glyph glyph-name="Gbreve.alt1" horiz-adv-x="704" 
d="M392 121c43 0 82 12 116 32v189h136v-252c-65 -64 -154 -104 -252 -104c-197 0 -357 159 -357 356s160 357 357 357c98 0 187 -40 252 -104l-96 -96c-40 40 -95 65 -156 65c-123 0 -222 -99 -222 -222c0 -122 99 -221 222 -221zM393 824c36 0 72 14 100 42l73 -74
c-48 -48 -111 -72 -174 -72s-125 24 -173 72l74 74c27 -28 64 -42 100 -42z" />
    <glyph glyph-name="Gcircumflex.alt1" horiz-adv-x="704" 
d="M392 121c43 0 82 12 116 32v189h136v-252c-65 -64 -154 -104 -252 -104c-197 0 -357 159 -357 356s160 357 357 357c98 0 187 -40 252 -104l-96 -96c-40 40 -95 65 -156 65c-123 0 -222 -99 -222 -222c0 -122 99 -221 222 -221zM329 709l-73 73l136 137l136 -137l-73 -73
l-63 63z" />
    <glyph glyph-name="uni0122.alt1" horiz-adv-x="704" 
d="M392 121c43 0 82 12 116 32v189h136v-252c-65 -64 -154 -104 -252 -104c-197 0 -357 159 -357 356s160 357 357 357c98 0 187 -40 252 -104l-96 -96c-40 40 -95 65 -156 65c-123 0 -222 -99 -222 -222c0 -122 99 -221 222 -221zM460 -137l-136 -109v196h136v-87z" />
    <glyph glyph-name="Gdotaccent.alt1" horiz-adv-x="704" 
d="M392 121c43 0 82 12 116 32v189h136v-252c-65 -64 -154 -104 -252 -104c-197 0 -357 159 -357 356s160 357 357 357c98 0 187 -40 252 -104l-96 -96c-40 40 -95 65 -156 65c-123 0 -222 -99 -222 -222c0 -122 99 -221 222 -221zM329 792c0 35 28 64 63 64s63 -29 63 -64
c0 -34 -28 -63 -63 -63s-63 29 -63 63z" />
    <glyph glyph-name="G.alt2" horiz-adv-x="496" 
d="M456 -14h-64c-197 0 -357 160 -357 356c0 197 160 357 357 357v-135c-123 0 -222 -99 -222 -222c0 -94 61 -179 150 -209v124h136v-271z" />
    <glyph glyph-name="Gbreve.alt2" horiz-adv-x="496" 
d="M456 -14h-64c-197 0 -357 160 -357 356c0 197 160 357 357 357v-135c-123 0 -222 -99 -222 -222c0 -94 61 -179 150 -209v124h136v-271zM296 824c36 0 72 14 100 42l73 -74c-48 -48 -111 -72 -174 -72s-125 24 -173 72l74 74c27 -28 64 -42 100 -42z" />
    <glyph glyph-name="Gcircumflex.alt2" horiz-adv-x="496" 
d="M456 -14h-64c-197 0 -357 160 -357 356c0 197 160 357 357 357v-135c-123 0 -222 -99 -222 -222c0 -94 61 -179 150 -209v124h136v-271zM231 709l-73 73l136 137l136 -137l-73 -73l-63 63z" />
    <glyph glyph-name="uni0122.alt2" horiz-adv-x="496" 
d="M456 -14h-64c-197 0 -357 160 -357 356c0 197 160 357 357 357v-135c-123 0 -222 -99 -222 -222c0 -94 61 -179 150 -209v124h136v-271zM388 -137l-136 -109v196h136v-87z" />
    <glyph glyph-name="Gdotaccent.alt2" horiz-adv-x="496" 
d="M456 -14h-64c-197 0 -357 160 -357 356c0 197 160 357 357 357v-135c-123 0 -222 -99 -222 -222c0 -94 61 -179 150 -209v124h136v-271zM229 792c0 35 28 64 63 64s63 -29 63 -64c0 -34 -28 -63 -63 -63s-63 29 -63 63z" />
    <glyph glyph-name="G.alt3" horiz-adv-x="591" 
d="M551 0h-173c-189 0 -343 153 -343 342c0 197 160 357 357 357v-135c-123 0 -222 -99 -222 -222c0 -114 93 -206 208 -206h37v121h136v-257z" />
    <glyph glyph-name="Gbreve.alt3" horiz-adv-x="591" 
d="M551 0h-173c-189 0 -343 153 -343 342c0 197 160 357 357 357v-135c-123 0 -222 -99 -222 -222c0 -114 93 -206 208 -206h37v121h136v-257zM296 824c36 0 72 14 100 42l73 -74c-48 -48 -111 -72 -174 -72s-125 24 -173 72l74 74c27 -28 64 -42 100 -42z" />
    <glyph glyph-name="Gcircumflex.alt3" horiz-adv-x="591" 
d="M551 0h-173c-189 0 -343 153 -343 342c0 197 160 357 357 357v-135c-123 0 -222 -99 -222 -222c0 -114 93 -206 208 -206h37v121h136v-257zM230 709l-73 73l136 137l136 -137l-73 -73l-63 63z" />
    <glyph glyph-name="uni0122.alt3" horiz-adv-x="591" 
d="M551 0h-173c-189 0 -343 153 -343 342c0 197 160 357 357 357v-135c-123 0 -222 -99 -222 -222c0 -114 93 -206 208 -206h37v121h136v-257zM361 -137l-136 -109v196h136v-87z" />
    <glyph glyph-name="Gdotaccent.alt3" horiz-adv-x="591" 
d="M551 0h-173c-189 0 -343 153 -343 342c0 197 160 357 357 357v-135c-123 0 -222 -99 -222 -222c0 -114 93 -206 208 -206h37v121h136v-257zM229 792c0 35 28 64 63 64s63 -29 63 -64c0 -34 -28 -63 -63 -63s-63 29 -63 63z" />
    <glyph glyph-name="H" unicode="H" horiz-adv-x="590" 
d="M510 0h-135v277h-159v-277h-136v685h136v-273h159v273h135v-685z" />
    <glyph glyph-name="Hbar" unicode="&#x126;" horiz-adv-x="590" 
d="M510 0h-135v277h-159v-277h-136v497h-40v103h40v85h136v-85h159v85h135v-85h40v-103h-40v-497zM216 412h159v85h-159v-85z" />
    <glyph glyph-name="Hcircumflex" unicode="&#x124;" horiz-adv-x="590" 
d="M510 0h-135v277h-159v-277h-136v685h136v-273h159v273h135v-685zM232 709l-73 73l136 137l136 -137l-73 -73l-63 63z" />
    <glyph glyph-name="I" unicode="I" horiz-adv-x="296" 
d="M216 0h-136v685h136v-685z" />
    <glyph glyph-name="Iacute" unicode="&#xcd;" horiz-adv-x="296" 
d="M216 0h-136v685h136v-685zM116 709l-73 73l136 137l74 -74z" />
    <glyph glyph-name="Igrave" unicode="&#xcc;" horiz-adv-x="296" 
d="M216 0h-136v685h136v-685zM253 782l-74 -73l-136 136l73 74z" />
    <glyph glyph-name="Icircumflex" unicode="&#xce;" horiz-adv-x="296" 
d="M216 0h-136v685h136v-685zM84 709l-73 73l136 137l136 -137l-73 -73l-63 63z" />
    <glyph glyph-name="Idieresis" unicode="&#xcf;" horiz-adv-x="296" 
d="M216 0h-136v685h136v-685zM7 792c0 35 28 64 63 64s63 -29 63 -64c0 -34 -28 -63 -63 -63s-63 29 -63 63zM162 792c0 35 28 64 63 64s63 -29 63 -64c0 -34 -28 -63 -63 -63s-63 29 -63 63z" />
    <glyph glyph-name="Ibreve" unicode="&#x12c;" horiz-adv-x="296" 
d="M216 0h-136v685h136v-685zM148 824c36 0 72 14 100 42l73 -74c-48 -48 -111 -72 -174 -72s-125 24 -173 72l74 74c27 -28 64 -42 100 -42z" />
    <glyph glyph-name="Idotaccent" unicode="&#x130;" horiz-adv-x="296" 
d="M216 0h-136v685h136v-685zM84 793c0 35 28 64 63 64s63 -29 63 -64c0 -34 -28 -63 -63 -63s-63 29 -63 63z" />
    <glyph glyph-name="Imacron" unicode="&#x12a;" horiz-adv-x="296" 
d="M216 0h-136v685h136v-685zM303 845v-103h-312v103h312z" />
    <glyph glyph-name="Iogonek" unicode="&#x12e;" horiz-adv-x="296" 
d="M216 -175c-72 0 -129 58 -129 129c0 16 3 32 9 46h-16v685h136v-685c-24 0 -45 -21 -45 -47c0 -27 21 -49 45 -49v-79z" />
    <glyph glyph-name="Itilde" unicode="&#x128;" horiz-adv-x="296" 
d="M216 0h-136v685h136v-685zM307 825c0 -66 -45 -102 -101 -102c-32 0 -54 13 -72 23c-13 8 -24 14 -36 14c-19 0 -32 -14 -31 -32h-77c-2 8 -3 19 -3 30c0 67 45 103 101 103c32 0 54 -13 72 -24c13 -7 24 -14 36 -14c19 0 32 14 31 33h76c3 -9 4 -20 4 -31z" />
    <glyph glyph-name="IJ" unicode="&#x132;" horiz-adv-x="644" 
d="M216 0h-136v685h136v-685zM564 685v-462c0 -131 -85 -232 -232 -232c-8 0 -19 1 -26 3v137c7 -3 17 -5 26 -5c52 0 96 45 96 97v462h136z" />
    <glyph glyph-name="J" unicode="J" horiz-adv-x="355" 
d="M275 685v-462c0 -131 -85 -232 -232 -232c-8 0 -19 1 -26 3v137c7 -3 17 -5 26 -5c52 0 96 45 96 97v462h136z" />
    <glyph glyph-name="Jcircumflex" unicode="&#x134;" horiz-adv-x="355" 
d="M275 685v-462c0 -131 -85 -232 -232 -232c-8 0 -19 1 -26 3v137c7 -3 17 -5 26 -5c52 0 96 45 96 97v462h136zM144 709l-73 73l136 137l136 -137l-73 -73l-63 63z" />
    <glyph glyph-name="K" unicode="K" horiz-adv-x="560" 
d="M581 0h-160l-141 235l-64 -108v-127h-136v685h136v-294l174 294h159l-189 -316z" />
    <glyph glyph-name="uni0136" unicode="&#x136;" horiz-adv-x="569" 
d="M581 0h-160l-141 235l-64 -108v-127h-136v685h136v-294l174 294h159l-189 -316zM352 -137l-136 -109v196h136v-87z" />
    <glyph glyph-name="K.alt1" horiz-adv-x="560" 
d="M216 685v-314l186 314h159l-203 -331l212 -354h-160l-194 324v-324h-136v685h136z" />
    <glyph glyph-name="uni0136.alt1" horiz-adv-x="560" 
d="M216 685v-314l186 314h159l-203 -331l212 -354h-160l-194 324v-324h-136v685h136zM353 -137l-136 -109v196h136v-87z" />
    <glyph glyph-name="L" unicode="L" horiz-adv-x="460" 
d="M445 0h-365v685h136v-549h229v-136z" />
    <glyph glyph-name="Lacute" unicode="&#x139;" horiz-adv-x="460" 
d="M445 0h-365v685h136v-549h229v-136zM234 709l-73 73l136 137l74 -74z" />
    <glyph glyph-name="Lcaron" unicode="&#x13d;" horiz-adv-x="460" 
d="M445 0h-365v685h136v-549h229v-136zM445 598l-136 -159v246h136v-87z" />
    <glyph glyph-name="uni013B" unicode="&#x13b;" horiz-adv-x="460" 
d="M445 0h-365v685h136v-549h229v-136zM327 -137l-136 -109v196h136v-87z" />
    <glyph glyph-name="Ldot" unicode="&#x13f;" 
d="M445 0h-365v685h136v-549h229v-136zM450 272h-136v138h136v-138z" />
    <glyph glyph-name="Lslash" unicode="&#x141;" horiz-adv-x="460" 
d="M445 0h-365v256l-60 -25v112l60 26v316h136v-257l114 49v-113l-114 -49v-179h229v-136z" />
    <glyph glyph-name="M" unicode="M" horiz-adv-x="664" 
d="M584 0h-136v319l-116 -136l-116 136v-319h-136v704l252 -296l252 296v-704z" />
    <glyph glyph-name="M.alt1" horiz-adv-x="769" 
d="M784 0h-145l-126 332l-126 -332h-4l-126 332l-126 -332h-145l271 706l128 -333l128 333z" />
    <glyph glyph-name="M.alt2" horiz-adv-x="690" 
d="M433 332l-88 -232l-88 232l-126 -332h-145l271 706l88 -229l88 229l271 -706h-145z" />
    <glyph glyph-name="M.alt3" horiz-adv-x="740" 
d="M370 365l290 339v-704h-136v319l-154 -180l-154 180v-319h-136v704z" />
    <glyph glyph-name="N" unicode="N" horiz-adv-x="586" 
d="M506 -19l-290 338v-319h-136v704l290 -339v320h136v-704z" />
    <glyph glyph-name="Ntilde" unicode="&#xd1;" horiz-adv-x="586" 
d="M506 -19l-290 338v-319h-136v704l290 -339v320h136v-704zM453 825c0 -66 -45 -102 -101 -102c-32 0 -54 13 -72 23c-13 8 -24 14 -36 14c-19 0 -32 -14 -31 -32h-77c-2 8 -3 19 -3 30c0 67 45 103 101 103c32 0 54 -13 72 -24c13 -7 24 -14 36 -14c19 0 32 14 31 33h76
c3 -9 4 -20 4 -31z" />
    <glyph glyph-name="Nacute" unicode="&#x143;" horiz-adv-x="586" 
d="M506 -19l-290 338v-319h-136v704l290 -339v320h136v-704zM262 709l-73 73l136 137l74 -74z" />
    <glyph glyph-name="Ncaron" unicode="&#x147;" horiz-adv-x="586" 
d="M506 -19l-290 338v-319h-136v704l290 -339v320h136v-704zM356 919l73 -74l-136 -136l-136 136l73 74l63 -63z" />
    <glyph glyph-name="uni0145" unicode="&#x145;" horiz-adv-x="586" 
d="M506 -19l-290 338v-319h-136v704l290 -339v320h136v-704zM361 -137l-136 -109v196h136v-87z" />
    <glyph glyph-name="Eng" unicode="&#x14a;" horiz-adv-x="586" 
d="M506 33c0 -131 -85 -232 -232 -232c-8 0 -19 1 -26 3v137c7 -3 17 -5 26 -5c52 0 96 45 96 97v106l-154 180v-319h-136v704l290 -339v320h136v-652z" />
    <glyph glyph-name="O" unicode="O" horiz-adv-x="783" 
d="M748 342c0 -197 -159 -356 -356 -356s-357 159 -357 356s160 357 357 357s356 -160 356 -357zM172 342c0 -121 99 -219 220 -219s219 98 219 219s-98 219 -219 219s-220 -98 -220 -219z" />
    <glyph glyph-name="Oacute" unicode="&#xd3;" horiz-adv-x="783" 
d="M748 342c0 -197 -159 -356 -356 -356s-357 159 -357 356s160 357 357 357s356 -160 356 -357zM172 342c0 -121 99 -219 220 -219s219 98 219 219s-98 219 -219 219s-220 -98 -220 -219zM361 709l-73 73l136 137l74 -74z" />
    <glyph glyph-name="Ograve" unicode="&#xd2;" horiz-adv-x="783" 
d="M748 342c0 -197 -159 -356 -356 -356s-357 159 -357 356s160 357 357 357s356 -160 356 -357zM172 342c0 -121 99 -219 220 -219s219 98 219 219s-98 219 -219 219s-220 -98 -220 -219zM498 782l-74 -73l-136 136l73 74z" />
    <glyph glyph-name="Ocircumflex" unicode="&#xd4;" horiz-adv-x="783" 
d="M748 342c0 -197 -159 -356 -356 -356s-357 159 -357 356s160 357 357 357s356 -160 356 -357zM172 342c0 -121 99 -219 220 -219s219 98 219 219s-98 219 -219 219s-220 -98 -220 -219zM329 709l-73 73l136 137l136 -137l-73 -73l-63 63z" />
    <glyph glyph-name="Odieresis" unicode="&#xd6;" horiz-adv-x="783" 
d="M748 342c0 -197 -159 -356 -356 -356s-357 159 -357 356s160 357 357 357s356 -160 356 -357zM172 342c0 -121 99 -219 220 -219s219 98 219 219s-98 219 -219 219s-220 -98 -220 -219zM252 792c0 35 28 64 63 64s63 -29 63 -64c0 -34 -28 -63 -63 -63s-63 29 -63 63z
M407 792c0 35 28 64 63 64s63 -29 63 -64c0 -34 -28 -63 -63 -63s-63 29 -63 63z" />
    <glyph glyph-name="Otilde" unicode="&#xd5;" horiz-adv-x="783" 
d="M748 342c0 -197 -159 -356 -356 -356s-357 159 -357 356s160 357 357 357s356 -160 356 -357zM172 342c0 -121 99 -219 220 -219s219 98 219 219s-98 219 -219 219s-220 -98 -220 -219zM552 825c0 -66 -45 -102 -101 -102c-32 0 -54 13 -72 23c-13 8 -24 14 -36 14
c-19 0 -32 -14 -31 -32h-77c-2 8 -3 19 -3 30c0 67 45 103 101 103c32 0 54 -13 72 -24c13 -7 24 -14 36 -14c19 0 32 14 31 33h76c3 -9 4 -20 4 -31z" />
    <glyph glyph-name="Obreve" unicode="&#x14e;" horiz-adv-x="783" 
d="M748 342c0 -197 -159 -356 -356 -356s-357 159 -357 356s160 357 357 357s356 -160 356 -357zM172 342c0 -121 99 -219 220 -219s219 98 219 219s-98 219 -219 219s-220 -98 -220 -219zM393 824c36 0 72 14 100 42l73 -74c-48 -48 -111 -72 -174 -72s-125 24 -173 72
l74 74c27 -28 64 -42 100 -42z" />
    <glyph glyph-name="Ohungarumlaut" unicode="&#x150;" horiz-adv-x="783" 
d="M748 342c0 -197 -159 -356 -356 -356s-357 159 -357 356s160 357 357 357s356 -160 356 -357zM172 342c0 -121 99 -219 220 -219s219 98 219 219s-98 219 -219 219s-220 -98 -220 -219zM546 855l-72 -147l-83 41l72 147zM393 855l-72 -147l-83 41l72 147z" />
    <glyph glyph-name="Omacron" unicode="&#x14c;" horiz-adv-x="783" 
d="M748 342c0 -197 -159 -356 -356 -356s-357 159 -357 356s160 357 357 357s356 -160 356 -357zM172 342c0 -121 99 -219 220 -219s219 98 219 219s-98 219 -219 219s-220 -98 -220 -219zM548 845v-103h-312v103h312z" />
    <glyph glyph-name="Oslash" unicode="&#xd8;" horiz-adv-x="783" 
d="M748 342c0 -197 -159 -356 -356 -356c-74 0 -143 22 -200 61l-51 -51l-96 96l51 51c-38 57 -61 125 -61 199c0 197 160 357 357 357c74 0 142 -23 199 -61l51 51l96 -96l-51 -51c38 -57 61 -126 61 -200zM611 342c0 36 -9 70 -24 100l-295 -295c30 -16 64 -24 100 -24
c121 0 219 98 219 219zM172 342c0 -36 8 -69 24 -99l294 294c-29 15 -63 24 -98 24c-121 0 -220 -98 -220 -219z" />
    <glyph glyph-name="Oslashacute" unicode="&#x1fe;" horiz-adv-x="783" 
d="M748 342c0 -197 -159 -356 -356 -356c-74 0 -143 22 -200 61l-51 -51l-96 96l51 51c-38 57 -61 125 -61 199c0 197 160 357 357 357c74 0 142 -23 199 -61l51 51l96 -96l-51 -51c38 -57 61 -126 61 -200zM611 342c0 36 -9 70 -24 100l-295 -295c30 -16 64 -24 100 -24
c121 0 219 98 219 219zM172 342c0 -36 8 -69 24 -99l294 294c-29 15 -63 24 -98 24c-121 0 -220 -98 -220 -219zM361 709l-73 73l136 137l74 -74z" />
    <glyph glyph-name="OE" unicode="&#x152;" horiz-adv-x="1027" 
d="M977 0h-364v87c-56 -69 -134 -101 -221 -101c-197 0 -357 160 -357 356c0 197 160 357 357 357c87 0 165 -32 221 -101v87h364v-136h-229v-137h229v-135h-229v-141h229v-136zM172 342c0 -121 99 -219 220 -219s219 98 219 219s-98 219 -219 219s-220 -98 -220 -219z" />
    <glyph glyph-name="OE.alt1" horiz-adv-x="1027" 
d="M977 0h-364v87c-56 -69 -134 -101 -221 -101c-197 0 -357 160 -357 356c0 197 160 357 357 357c87 0 165 -32 221 -101v87h364v-136h-229v-191l172 65v-157l-172 65v-195h229v-136zM172 342c0 -121 99 -219 220 -219s219 98 219 219s-98 219 -219 219s-220 -98 -220 -219
z" />
    <glyph glyph-name="P" unicode="P" horiz-adv-x="542" 
d="M507 431c0 -140 -114 -254 -254 -254h-37v-177h-136v685h173c140 0 254 -114 254 -254zM371 431c0 65 -53 118 -118 118h-37v-236h37c65 0 118 53 118 118z" />
    <glyph glyph-name="Q" unicode="Q" horiz-adv-x="783" 
d="M756 73l-96 -96l-67 71c-57 -39 -127 -62 -201 -62c-197 0 -357 159 -357 356s160 357 357 357s356 -160 356 -357c0 -75 -23 -145 -63 -202zM611 342c0 121 -98 219 -219 219s-219 -98 -219 -219s98 -219 219 -219s219 98 219 219z" />
    <glyph glyph-name="Q.alt1" horiz-adv-x="783" 
d="M652 99l148 -70l-97 -95l-68 148c-64 -60 -149 -96 -243 -96c-197 0 -357 159 -357 356s160 357 357 357s356 -160 356 -357c0 -94 -36 -180 -96 -243zM172 342c0 -121 99 -219 220 -219s219 98 219 219s-98 219 -219 219s-220 -98 -220 -219z" />
    <glyph glyph-name="Q.alt2" horiz-adv-x="783" 
d="M748 342c0 -175 -125 -319 -290 -350v-97h-135v98c-164 31 -288 175 -288 349c0 197 160 357 357 357s356 -160 356 -357zM323 221h135v-88c88 28 153 111 153 209c0 121 -98 219 -219 219s-220 -98 -220 -219c0 -97 63 -179 151 -208v87z" />
    <glyph glyph-name="Q.alt3" horiz-adv-x="783" 
d="M748 342c0 -75 -23 -144 -62 -201l70 -68l-96 -96l-69 70c-57 -39 -125 -61 -199 -61c-197 0 -357 159 -357 356s160 357 357 357s356 -160 356 -357zM431 210l92 92l63 -62c16 30 25 65 25 102c0 121 -98 219 -219 219s-220 -98 -220 -219s99 -219 220 -219
c36 0 70 9 100 24z" />
    <glyph glyph-name="R" unicode="R" horiz-adv-x="552" 
d="M507 431c0 -94 -53 -181 -136 -224l181 -207h-181l-155 177v-177h-136v685h173c140 0 254 -114 254 -254zM371 431c0 65 -53 118 -118 118h-37v-236h37c65 0 118 53 118 118z" />
    <glyph glyph-name="Racute" unicode="&#x154;" horiz-adv-x="552" 
d="M507 431c0 -94 -53 -181 -136 -224l181 -207h-181l-155 177v-177h-136v685h173c140 0 254 -114 254 -254zM371 431c0 65 -53 118 -118 118h-37v-236h37c65 0 118 53 118 118zM245 709l-73 73l136 137l74 -74z" />
    <glyph glyph-name="Rcaron" unicode="&#x158;" horiz-adv-x="552" 
d="M507 431c0 -94 -53 -181 -136 -224l181 -207h-181l-155 177v-177h-136v685h173c140 0 254 -114 254 -254zM371 431c0 65 -53 118 -118 118h-37v-236h37c65 0 118 53 118 118zM339 919l73 -74l-136 -136l-136 136l73 74l63 -63z" />
    <glyph glyph-name="uni0156" unicode="&#x156;" horiz-adv-x="552" 
d="M507 431c0 -94 -53 -181 -136 -224l181 -207h-181l-155 177v-177h-136v685h173c140 0 254 -114 254 -254zM371 431c0 65 -53 118 -118 118h-37v-236h37c65 0 118 53 118 118zM344 -137l-136 -109v196h136v-87z" />
    <glyph glyph-name="R.alt1" horiz-adv-x="552" 
d="M507 431c0 -95 -54 -182 -138 -226l139 -129l-96 -95l-196 196v-177h-136v685h173c140 0 254 -114 254 -254zM371 431c0 65 -53 118 -118 118h-37v-236h37c65 0 118 53 118 118z" />
    <glyph glyph-name="Racute.alt1" horiz-adv-x="552" 
d="M507 431c0 -95 -54 -182 -138 -226l139 -129l-96 -95l-196 196v-177h-136v685h173c140 0 254 -114 254 -254zM371 431c0 65 -53 118 -118 118h-37v-236h37c65 0 118 53 118 118zM245 709l-73 73l136 137l74 -74z" />
    <glyph glyph-name="Rcaron.alt1" horiz-adv-x="552" 
d="M507 431c0 -95 -54 -182 -138 -226l139 -129l-96 -95l-196 196v-177h-136v685h173c140 0 254 -114 254 -254zM371 431c0 65 -53 118 -118 118h-37v-236h37c65 0 118 53 118 118zM339 919l73 -74l-136 -136l-136 136l73 74l63 -63z" />
    <glyph glyph-name="uni0156.alt1" horiz-adv-x="552" 
d="M507 431c0 -95 -54 -182 -138 -226l139 -129l-96 -95l-196 196v-177h-136v685h173c140 0 254 -114 254 -254zM371 431c0 65 -53 118 -118 118h-37v-236h37c65 0 118 53 118 118zM344 -137l-136 -109v196h136v-87z" />
    <glyph glyph-name="S" unicode="S" horiz-adv-x="338" 
d="M298 223c0 -139 -93 -232 -232 -232c-9 0 -18 0 -26 3v137c8 -4 17 -5 26 -5c52 0 96 45 96 97c0 40 -22 73 -45 108c-27 41 -56 85 -56 147c0 126 86 216 216 216h5v-135h-5c-46 0 -81 -38 -81 -87c0 -28 18 -54 39 -84c29 -41 63 -90 63 -165z" />
    <glyph glyph-name="Sacute" unicode="&#x15a;" horiz-adv-x="338" 
d="M298 223c0 -139 -93 -232 -232 -232c-9 0 -18 0 -26 3v137c8 -4 17 -5 26 -5c52 0 96 45 96 97c0 40 -22 73 -45 108c-27 41 -56 85 -56 147c0 126 86 216 216 216h5v-135h-5c-46 0 -81 -38 -81 -87c0 -28 18 -54 39 -84c29 -41 63 -90 63 -165zM138 709l-73 73l136 137
l74 -74z" />
    <glyph glyph-name="uni015E" unicode="&#x15e;" horiz-adv-x="338" 
d="M298 223c0 -139 -93 -232 -232 -232c-9 0 -18 0 -26 3v137c8 -4 17 -5 26 -5c52 0 96 45 96 97c0 40 -22 73 -45 108c-27 41 -56 85 -56 147c0 126 86 216 216 216h5v-135h-5c-46 0 -81 -38 -81 -87c0 -28 18 -54 39 -84c29 -41 63 -90 63 -165zM195 -201l-72 72
c9 10 15 24 15 39s-6 29 -15 39l72 72c28 -28 46 -67 46 -111s-18 -83 -46 -111z" />
    <glyph glyph-name="Scircumflex" unicode="&#x15c;" horiz-adv-x="338" 
d="M298 223c0 -139 -93 -232 -232 -232c-9 0 -18 0 -26 3v137c8 -4 17 -5 26 -5c52 0 96 45 96 97c0 40 -22 73 -45 108c-27 41 -56 85 -56 147c0 126 86 216 216 216h5v-135h-5c-46 0 -81 -38 -81 -87c0 -28 18 -54 39 -84c29 -41 63 -90 63 -165zM106 709l-73 73l136 137
l136 -137l-73 -73l-63 63z" />
    <glyph glyph-name="uni0218" unicode="&#x218;" horiz-adv-x="338" 
d="M298 223c0 -139 -93 -232 -232 -232c-9 0 -18 0 -26 3v137c8 -4 17 -5 26 -5c52 0 96 45 96 97c0 40 -22 73 -45 108c-27 41 -56 85 -56 147c0 126 86 216 216 216h5v-135h-5c-46 0 -81 -38 -81 -87c0 -28 18 -54 39 -84c29 -41 63 -90 63 -165z" />
    <glyph glyph-name="Scaron" unicode="&#x160;" horiz-adv-x="338" 
d="M298 223c0 -139 -93 -232 -232 -232c-9 0 -18 0 -26 3v137c8 -4 17 -5 26 -5c52 0 96 45 96 97c0 40 -22 73 -45 108c-27 41 -56 85 -56 147c0 126 86 216 216 216h5v-135h-5c-46 0 -81 -38 -81 -87c0 -28 18 -54 39 -84c29 -41 63 -90 63 -165zM232 919l73 -74
l-136 -136l-136 136l73 74l63 -63z" />
    <glyph glyph-name="S.alt1" horiz-adv-x="479" 
d="M491 561c-111 0 -153 -130 -199 -267c-51 -148 -107 -304 -264 -303l-41 139c105 0 147 117 188 244c50 153 99 321 259 320z" />
    <glyph glyph-name="Sacute.alt1" horiz-adv-x="479" 
d="M491 561c-111 0 -153 -130 -199 -267c-51 -148 -107 -304 -264 -303l-41 139c105 0 147 117 188 244c50 153 99 321 259 320zM323 709l-73 73l136 137l74 -74z" />
    <glyph glyph-name="uni015E.alt1" horiz-adv-x="479" 
d="M116 -201l-72 72c9 10 15 24 15 39s-6 29 -15 39l54 54c-21 -7 -44 -12 -70 -12l-41 139c108 0 148 122 191 252c48 151 99 313 256 312l57 -133c-110 1 -152 -127 -198 -262c-39 -115 -81 -236 -171 -285c24 -27 40 -63 40 -104c0 -44 -18 -83 -46 -111z" />
    <glyph glyph-name="Scircumflex.alt1" horiz-adv-x="479" 
d="M491 561c-111 0 -153 -130 -199 -267c-51 -148 -107 -304 -264 -303l-41 139c105 0 147 117 188 244c50 153 99 321 259 320zM291 709l-73 73l136 137l136 -137l-73 -73l-63 63z" />
    <glyph glyph-name="uni0218.alt1" horiz-adv-x="479" 
d="M491 561c-111 0 -153 -130 -199 -267c-51 -148 -107 -304 -264 -303l-41 139c105 0 147 117 188 244c50 153 99 321 259 320zM158 -137l-136 -109v196h136v-87z" />
    <glyph glyph-name="Scaron.alt1" horiz-adv-x="479" 
d="M491 561c-111 0 -153 -130 -199 -267c-51 -148 -107 -304 -264 -303l-41 139c105 0 147 117 188 244c50 153 99 321 259 320zM417 919l73 -74l-136 -136l-136 136l73 74l63 -63z" />
    <glyph glyph-name="S.alt2" horiz-adv-x="306" 
d="M102 685h164c-53 -42 -90 -122 -90 -188c0 -54 19 -90 40 -129c24 -45 50 -94 50 -180c0 -57 -22 -128 -61 -188h-165c53 42 90 122 90 188c0 54 -19 90 -40 129c-24 45 -50 94 -50 180c0 57 23 128 62 188z" />
    <glyph glyph-name="Sacute.alt2" horiz-adv-x="306" 
d="M102 685h164c-53 -42 -90 -122 -90 -188c0 -54 19 -90 40 -129c24 -45 50 -94 50 -180c0 -57 -22 -128 -61 -188h-165c53 42 90 122 90 188c0 54 -19 90 -40 129c-24 45 -50 94 -50 180c0 57 23 128 62 188zM122 709l-73 73l136 137l74 -74z" />
    <glyph glyph-name="uni015E.alt2" horiz-adv-x="306" 
d="M159 -201l-72 72c9 10 15 24 15 39s-6 29 -15 39l51 51h-98c53 42 90 122 90 188c0 55 -19 90 -40 129c-24 45 -50 94 -50 180c0 57 23 128 62 188h164c-53 -42 -90 -122 -90 -188c0 -55 19 -91 40 -129c24 -45 50 -94 50 -180c0 -57 -22 -128 -61 -188h-28
c17 -25 28 -56 28 -90c0 -44 -18 -83 -46 -111z" />
    <glyph glyph-name="Scircumflex.alt2" horiz-adv-x="306" 
d="M102 685h164c-53 -42 -90 -122 -90 -188c0 -54 19 -90 40 -129c24 -45 50 -94 50 -180c0 -57 -22 -128 -61 -188h-165c53 42 90 122 90 188c0 54 -19 90 -40 129c-24 45 -50 94 -50 180c0 57 23 128 62 188zM90 709l-73 73l136 137l136 -137l-73 -73l-63 63z" />
    <glyph glyph-name="uni0218.alt2" horiz-adv-x="306" 
d="M102 685h164c-53 -42 -90 -122 -90 -188c0 -54 19 -90 40 -129c24 -45 50 -94 50 -180c0 -57 -22 -128 -61 -188h-165c53 42 90 122 90 188c0 54 -19 90 -40 129c-24 45 -50 94 -50 180c0 57 23 128 62 188zM221 -137l-136 -109v196h136v-87z" />
    <glyph glyph-name="Scaron.alt2" horiz-adv-x="306" 
d="M102 685h164c-53 -42 -90 -122 -90 -188c0 -54 19 -90 40 -129c24 -45 50 -94 50 -180c0 -57 -22 -128 -61 -188h-165c53 42 90 122 90 188c0 54 -19 90 -40 129c-24 45 -50 94 -50 180c0 57 23 128 62 188zM216 919l73 -74l-136 -136l-136 136l73 74l63 -63z" />
    <glyph glyph-name="S.alt3" horiz-adv-x="306" 
d="M130 188c0 54 -19 90 -39 128c-25 46 -51 94 -51 181c0 57 26 142 72 202l126 -51c-30 -31 -62 -85 -62 -151c0 -54 19 -90 40 -129c24 -45 50 -94 50 -180c0 -57 -26 -142 -72 -202l-126 51c30 31 62 85 62 151z" />
    <glyph glyph-name="Sacute.alt3" horiz-adv-x="306" 
d="M130 188c0 54 -19 90 -39 128c-25 46 -51 94 -51 181c0 57 26 142 72 202l126 -51c-30 -31 -62 -85 -62 -151c0 -54 19 -90 40 -129c24 -45 50 -94 50 -180c0 -57 -26 -142 -72 -202l-126 51c30 31 62 85 62 151zM122 709l-73 73l136 137l74 -74z" />
    <glyph glyph-name="uni015E.alt3" horiz-adv-x="306" 
d="M159 -201l-72 72c9 10 15 24 15 39s-6 29 -15 39l57 57l-76 31c30 31 62 85 62 151c0 54 -19 90 -40 129c-24 45 -50 94 -50 180c0 57 26 142 72 202l126 -51c-30 -31 -62 -85 -62 -151c0 -55 19 -91 40 -130c24 -45 50 -93 50 -179c0 -57 -26 -142 -72 -202l-11 5
c14 -24 22 -51 22 -81c0 -44 -18 -83 -46 -111z" />
    <glyph glyph-name="Scircumflex.alt3" horiz-adv-x="306" 
d="M130 188c0 54 -19 90 -39 128c-25 46 -51 94 -51 181c0 57 26 142 72 202l126 -51c-30 -31 -62 -85 -62 -151c0 -54 19 -90 40 -129c24 -45 50 -94 50 -180c0 -57 -26 -142 -72 -202l-126 51c30 31 62 85 62 151zM90 709l-73 73l136 137l136 -137l-73 -73l-63 63z" />
    <glyph glyph-name="uni0218.alt3" horiz-adv-x="306" 
d="M130 188c0 54 -19 90 -39 128c-25 46 -51 94 -51 181c0 57 26 142 72 202l126 -51c-30 -31 -62 -85 -62 -151c0 -54 19 -90 40 -129c24 -45 50 -94 50 -180c0 -57 -26 -142 -72 -202l-126 51c30 31 62 85 62 151zM221 -137l-136 -109v196h136v-87z" />
    <glyph glyph-name="Scaron.alt3" horiz-adv-x="306" 
d="M130 188c0 54 -19 90 -39 128c-25 46 -51 94 -51 181c0 57 26 142 72 202l126 -51c-30 -31 -62 -85 -62 -151c0 -54 19 -90 40 -129c24 -45 50 -94 50 -180c0 -57 -26 -142 -72 -202l-126 51c30 31 62 85 62 151zM216 919l73 -74l-136 -136l-136 136l73 74l63 -63z" />
    <glyph glyph-name="S.alt4" horiz-adv-x="464" 
d="M438 196c0 -116 -99 -210 -221 -210c-65 0 -152 29 -200 121l118 74c9 -33 42 -58 82 -58c46 0 83 33 83 73c0 49 -49 79 -104 112c-73 45 -157 95 -157 204c0 103 89 187 198 187c66 0 145 -34 183 -116l-123 -63c-7 29 -37 42 -60 42c-33 0 -61 -23 -61 -50
c0 -36 42 -61 93 -91c75 -45 169 -103 169 -225z" />
    <glyph glyph-name="Sacute.alt4" horiz-adv-x="464" 
d="M438 196c0 -116 -99 -210 -221 -210c-65 0 -152 29 -200 121l118 74c9 -33 42 -58 82 -58c46 0 83 33 83 73c0 49 -49 79 -104 112c-73 45 -157 95 -157 204c0 103 89 187 198 187c66 0 145 -34 183 -116l-123 -63c-7 29 -37 42 -60 42c-33 0 -61 -23 -61 -50
c0 -36 42 -61 93 -91c75 -45 169 -103 169 -225zM206 709l-73 73l136 137l74 -74z" />
    <glyph glyph-name="uni015E.alt4" horiz-adv-x="464" 
d="M243 -201l-72 72c9 10 15 24 15 39s-6 29 -15 39l37 37c-64 3 -145 33 -191 121l118 74c9 -33 42 -58 82 -58c46 0 83 33 83 73c0 49 -49 79 -104 113c-73 44 -157 94 -157 203c0 103 89 187 198 187c66 0 145 -34 183 -116l-123 -63c-7 29 -37 42 -60 42
c-33 0 -61 -23 -61 -50c0 -36 42 -61 93 -91c75 -45 169 -102 169 -225c0 -100 -74 -183 -172 -204c15 -24 23 -52 23 -82c0 -44 -18 -83 -46 -111z" />
    <glyph glyph-name="Scircumflex.alt4" horiz-adv-x="464" 
d="M438 196c0 -116 -99 -210 -221 -210c-65 0 -152 29 -200 121l118 74c9 -33 42 -58 82 -58c46 0 83 33 83 73c0 49 -49 79 -104 112c-73 45 -157 95 -157 204c0 103 89 187 198 187c66 0 145 -34 183 -116l-123 -63c-7 29 -37 42 -60 42c-33 0 -61 -23 -61 -50
c0 -36 42 -61 93 -91c75 -45 169 -103 169 -225zM174 709l-73 73l136 137l136 -137l-73 -73l-63 63z" />
    <glyph glyph-name="uni0218.alt4" horiz-adv-x="464" 
d="M438 196c0 -116 -99 -210 -221 -210c-65 0 -152 29 -200 121l118 74c9 -33 42 -58 82 -58c46 0 83 33 83 73c0 49 -49 79 -104 112c-73 45 -157 95 -157 204c0 103 89 187 198 187c66 0 145 -34 183 -116l-123 -63c-7 29 -37 42 -60 42c-33 0 -61 -23 -61 -50
c0 -36 42 -61 93 -91c75 -45 169 -103 169 -225zM299 -137l-136 -109v196h136v-87z" />
    <glyph glyph-name="Scaron.alt4" horiz-adv-x="464" 
d="M438 196c0 -116 -99 -210 -221 -210c-65 0 -152 29 -200 121l118 74c9 -33 42 -58 82 -58c46 0 83 33 83 73c0 49 -49 79 -104 112c-73 45 -157 95 -157 204c0 103 89 187 198 187c66 0 145 -34 183 -116l-123 -63c-7 29 -37 42 -60 42c-33 0 -61 -23 -61 -50
c0 -36 42 -61 93 -91c75 -45 169 -103 169 -225zM300 919l73 -74l-136 -136l-136 136l73 74l63 -63z" />
    <glyph glyph-name="T" unicode="T" horiz-adv-x="405" 
d="M385 549h-115v-549h-136v549h-114v136h365v-136z" />
    <glyph glyph-name="Tbar" unicode="&#x166;" horiz-adv-x="405" 
d="M358 325v-103h-88v-222h-136v222h-88v103h88v224h-114v136h365v-136h-115v-224h88z" />
    <glyph glyph-name="Tcaron" unicode="&#x164;" horiz-adv-x="405" 
d="M385 549h-115v-549h-136v549h-114v136h365v-136zM265 919l73 -74l-136 -136l-136 136l73 74l63 -63z" />
    <glyph glyph-name="Tcommaaccent" unicode="&#x162;" horiz-adv-x="405" 
d="M261 -90c0 -44 -18 -83 -46 -111l-72 72c9 10 15 24 15 39s-6 29 -15 39l51 51h-60v549h-114v136h365v-136h-115v-549h-37c17 -25 28 -56 28 -90z" />
    <glyph glyph-name="uni021A" unicode="&#x21a;" horiz-adv-x="405" 
d="M385 549h-115v-549h-136v549h-114v136h365v-136zM270 -137l-136 -109v196h136v-87z" />
    <glyph glyph-name="U" unicode="U" horiz-adv-x="590" 
d="M510 201c0 -119 -96 -215 -215 -215s-215 96 -215 215v484h136v-484c0 -44 35 -80 79 -80s80 36 80 80v484h135v-484z" />
    <glyph glyph-name="Uacute" unicode="&#xda;" horiz-adv-x="590" 
d="M510 201c0 -119 -96 -215 -215 -215s-215 96 -215 215v484h136v-484c0 -44 35 -80 79 -80s80 36 80 80v484h135v-484zM264 709l-73 73l136 137l74 -74z" />
    <glyph glyph-name="Ugrave" unicode="&#xd9;" horiz-adv-x="590" 
d="M510 201c0 -119 -96 -215 -215 -215s-215 96 -215 215v484h136v-484c0 -44 35 -80 79 -80s80 36 80 80v484h135v-484zM401 782l-74 -73l-136 136l73 74z" />
    <glyph glyph-name="Ucircumflex" unicode="&#xdb;" horiz-adv-x="590" 
d="M510 201c0 -119 -96 -215 -215 -215s-215 96 -215 215v484h136v-484c0 -44 35 -80 79 -80s80 36 80 80v484h135v-484zM232 709l-73 73l136 137l136 -137l-73 -73l-63 63z" />
    <glyph glyph-name="Udieresis" unicode="&#xdc;" horiz-adv-x="590" 
d="M510 201c0 -119 -96 -215 -215 -215s-215 96 -215 215v484h136v-484c0 -44 35 -80 79 -80s80 36 80 80v484h135v-484zM155 792c0 35 28 64 63 64s63 -29 63 -64c0 -34 -28 -63 -63 -63s-63 29 -63 63zM310 792c0 35 28 64 63 64s63 -29 63 -64c0 -34 -28 -63 -63 -63
s-63 29 -63 63z" />
    <glyph glyph-name="Ubreve" unicode="&#x16c;" horiz-adv-x="590" 
d="M510 201c0 -119 -96 -215 -215 -215s-215 96 -215 215v484h136v-484c0 -44 35 -80 79 -80s80 36 80 80v484h135v-484zM296 824c36 0 72 14 100 42l73 -74c-48 -48 -111 -72 -174 -72s-125 24 -173 72l74 74c27 -28 64 -42 100 -42z" />
    <glyph glyph-name="Uhungarumlaut" unicode="&#x170;" horiz-adv-x="590" 
d="M510 201c0 -119 -96 -215 -215 -215s-215 96 -215 215v484h136v-484c0 -44 35 -80 79 -80s80 36 80 80v484h135v-484zM449 855l-72 -147l-83 41l72 147zM296 855l-72 -147l-83 41l72 147z" />
    <glyph glyph-name="Umacron" unicode="&#x16a;" horiz-adv-x="590" 
d="M510 201c0 -119 -96 -215 -215 -215s-215 96 -215 215v484h136v-484c0 -44 35 -80 79 -80s80 36 80 80v484h135v-484zM451 845v-103h-312v103h312z" />
    <glyph glyph-name="Uring" unicode="&#x16e;" horiz-adv-x="590" 
d="M510 201c0 -119 -96 -215 -215 -215s-215 96 -215 215v484h136v-484c0 -44 35 -80 79 -80s80 36 80 80v484h135v-484zM395 808c0 -55 -44 -99 -99 -99s-99 44 -99 99s44 99 99 99s99 -44 99 -99zM340 808c0 24 -20 44 -44 44s-44 -20 -44 -44s20 -44 44 -44s44 20 44 44z
" />
    <glyph glyph-name="Utilde" unicode="&#x168;" horiz-adv-x="590" 
d="M510 201c0 -119 -96 -215 -215 -215s-215 96 -215 215v484h136v-484c0 -44 35 -80 79 -80s80 36 80 80v484h135v-484zM455 825c0 -66 -45 -102 -101 -102c-32 0 -54 13 -72 23c-13 8 -24 14 -36 14c-19 0 -32 -14 -31 -32h-77c-2 8 -3 19 -3 30c0 67 45 103 101 103
c32 0 54 -13 72 -24c13 -7 24 -14 36 -14c19 0 32 14 31 33h76c3 -9 4 -20 4 -31z" />
    <glyph glyph-name="Uogonek" unicode="&#x172;" horiz-adv-x="590" 
d="M380 -175c-72 0 -129 58 -129 129c0 12 2 24 5 36c-100 18 -176 105 -176 211v484h136v-484c0 -44 35 -80 79 -80s80 36 80 80v484h135v-484c0 -94 -60 -173 -143 -203c-18 -6 -32 -24 -32 -45c0 -27 21 -49 45 -49v-79z" />
    <glyph glyph-name="V" unicode="V" horiz-adv-x="517" 
d="M259 353l125 332h146l-271 -706l-272 706h146z" />
    <glyph glyph-name="W" unicode="W" horiz-adv-x="769" 
d="M782 685l-271 -706l-127 332l-125 -332l-272 706h146l126 -332l124 332h4l124 -332l125 332h146z" />
    <glyph glyph-name="Wacute" unicode="&#x1e82;" horiz-adv-x="769" 
d="M782 685l-271 -706l-127 332l-125 -332l-272 706h146l126 -332l124 332h4l124 -332l125 332h146zM354 709l-73 73l136 137l74 -74z" />
    <glyph glyph-name="Wcircumflex" unicode="&#x174;" horiz-adv-x="769" 
d="M782 685l-271 -706l-127 332l-125 -332l-272 706h146l126 -332l124 332h4l124 -332l125 332h146zM322 709l-73 73l136 137l136 -137l-73 -73l-63 63z" />
    <glyph glyph-name="Wdieresis" unicode="&#x1e84;" horiz-adv-x="769" 
d="M782 685l-271 -706l-127 332l-125 -332l-272 706h146l126 -332l124 332h4l124 -332l125 332h146zM245 792c0 35 28 64 63 64s63 -29 63 -64c0 -34 -28 -63 -63 -63s-63 29 -63 63zM400 792c0 35 28 64 63 64s63 -29 63 -64c0 -34 -28 -63 -63 -63s-63 29 -63 63z" />
    <glyph glyph-name="Wgrave" unicode="&#x1e80;" horiz-adv-x="769" 
d="M782 685l-271 -706l-127 332l-125 -332l-272 706h146l126 -332l124 332h4l124 -332l125 332h146zM491 782l-74 -73l-136 136l73 74z" />
    <glyph glyph-name="W.alt2" horiz-adv-x="692" 
d="M434 353l125 332h146l-271 -706l-88 230l-87 -230l-272 706h146l126 -332l87 234z" />
    <glyph glyph-name="Wacute.alt2" horiz-adv-x="692" 
d="M434 353l125 332h146l-271 -706l-88 230l-87 -230l-272 706h146l126 -332l87 234zM314 709l-73 73l136 137l74 -74z" />
    <glyph glyph-name="Wcircumflex.alt2" horiz-adv-x="692" 
d="M434 353l125 332h146l-271 -706l-88 230l-87 -230l-272 706h146l126 -332l87 234zM283 709l-73 73l136 137l136 -137l-73 -73l-63 63z" />
    <glyph glyph-name="Wdieresis.alt2" horiz-adv-x="692" 
d="M434 353l125 332h146l-271 -706l-88 230l-87 -230l-272 706h146l126 -332l87 234zM206 792c0 35 28 64 63 64s63 -29 63 -64c0 -34 -28 -63 -63 -63s-63 29 -63 63zM361 792c0 35 28 64 63 64s63 -29 63 -64c0 -34 -28 -63 -63 -63s-63 29 -63 63z" />
    <glyph glyph-name="Wgrave.alt2" horiz-adv-x="692" 
d="M434 353l125 332h146l-271 -706l-88 230l-87 -230l-272 706h146l126 -332l87 234zM451 782l-74 -73l-136 136l73 74z" />
    <glyph glyph-name="X" unicode="X" horiz-adv-x="558" 
d="M568 0h-158l-131 216l-130 -216h-159l210 347l-204 338h159l124 -206l124 206h159l-203 -338z" />
    <glyph glyph-name="Y" unicode="Y" horiz-adv-x="577" 
d="M590 685l-234 -387v-298h-135v298l-234 387h160l142 -236l141 236h160z" />
    <glyph glyph-name="Yacute" unicode="&#xdd;" horiz-adv-x="577" 
d="M590 685l-234 -387v-298h-135v298l-234 387h160l142 -236l141 236h160zM258 714l-73 73l136 137l74 -74z" />
    <glyph glyph-name="Ygrave" unicode="&#x1ef2;" horiz-adv-x="577" 
d="M590 685l-234 -387v-298h-135v298l-234 387h160l142 -236l141 236h160zM395 782l-74 -73l-136 136l73 74z" />
    <glyph glyph-name="Ycircumflex" unicode="&#x176;" horiz-adv-x="577" 
d="M590 685l-234 -387v-298h-135v298l-234 387h160l142 -236l141 236h160zM226 709l-73 73l136 137l136 -137l-73 -73l-63 63z" />
    <glyph glyph-name="Ydieresis" unicode="&#x178;" horiz-adv-x="577" 
d="M590 685l-234 -387v-298h-135v298l-234 387h160l142 -236l141 236h160zM149 792c0 35 28 64 63 64s63 -29 63 -64c0 -34 -28 -63 -63 -63s-63 29 -63 63zM304 792c0 35 28 64 63 64s63 -29 63 -64c0 -34 -28 -63 -63 -63s-63 29 -63 63z" />
    <glyph glyph-name="Y.alt1" horiz-adv-x="590" 
d="M602 685l-414 -685h-158l191 317l-221 368h159l142 -236l142 236h159z" />
    <glyph glyph-name="Yacute.alt1" horiz-adv-x="590" 
d="M602 685l-414 -685h-158l191 317l-221 368h159l142 -236l142 236h159zM270 709l-73 73l136 137l74 -74z" />
    <glyph glyph-name="Ygrave.alt1" horiz-adv-x="590" 
d="M602 685l-414 -685h-158l191 317l-221 368h159l142 -236l142 236h159zM407 782l-74 -73l-136 136l73 74z" />
    <glyph glyph-name="Ycircumflex.alt1" horiz-adv-x="590" 
d="M602 685l-414 -685h-158l191 317l-221 368h159l142 -236l142 236h159zM238 709l-73 73l136 137l136 -137l-73 -73l-63 63z" />
    <glyph glyph-name="Ydieresis.alt1" horiz-adv-x="590" 
d="M602 685l-414 -685h-158l191 317l-221 368h159l142 -236l142 236h159zM161 792c0 35 28 64 63 64s63 -29 63 -64c0 -34 -28 -63 -63 -63s-63 29 -63 63zM316 792c0 35 28 64 63 64s63 -29 63 -64c0 -34 -28 -63 -63 -63s-63 29 -63 63z" />
    <glyph glyph-name="Z" unicode="Z" horiz-adv-x="519" 
d="M488 0h-468l262 549h-241v136h458l-264 -549h253v-136z" />
    <glyph glyph-name="Zacute" unicode="&#x179;" horiz-adv-x="519" 
d="M488 0h-468l262 549h-241v136h458l-264 -549h253v-136zM234 709l-73 73l136 137l74 -74z" />
    <glyph glyph-name="Zcaron" unicode="&#x17d;" horiz-adv-x="519" 
d="M488 0h-468l262 549h-241v136h458l-264 -549h253v-136zM328 919l73 -74l-136 -136l-136 136l73 74l63 -63z" />
    <glyph glyph-name="Zdotaccent" unicode="&#x17b;" horiz-adv-x="519" 
d="M488 0h-468l262 549h-241v136h458l-264 -549h253v-136zM202 792c0 35 28 64 63 64s63 -29 63 -64c0 -34 -28 -63 -63 -63s-63 29 -63 63z" />
    <glyph glyph-name="Eth" unicode="&#xd0;" horiz-adv-x="631" 
d="M20 292v103h60v290h173c189 0 343 -154 343 -343s-154 -342 -343 -342h-173v292h-60zM460 342c0 115 -92 207 -207 207h-37v-154h119v-103h-119v-156h37c115 0 207 92 207 206z" />
    <glyph glyph-name="Thorn" unicode="&#xde;" horiz-adv-x="542" 
d="M507 341c0 -140 -114 -254 -254 -254h-37v-87h-136v685h136v-91h37c140 0 254 -113 254 -253zM371 341c0 65 -53 118 -118 118h-37v-236h37c65 0 118 53 118 118z" />
    <glyph glyph-name="a" unicode="a" horiz-adv-x="551" 
d="M373 0v29c-27 -27 -64 -43 -117 -43c-115 0 -226 111 -226 248s111 248 226 248c53 0 90 -16 117 -44v30h128v-468h-128zM373 161v146c-22 29 -56 47 -95 47c-65 0 -120 -54 -120 -120s55 -120 120 -120c39 0 73 18 95 47z" />
    <glyph glyph-name="aacute" unicode="&#xe1;" horiz-adv-x="551" 
d="M373 0v29c-27 -27 -64 -43 -117 -43c-115 0 -226 111 -226 248s111 248 226 248c53 0 90 -16 117 -44v30h128v-468h-128zM373 161v146c-22 29 -56 47 -95 47c-65 0 -120 -54 -120 -120s55 -120 120 -120c39 0 73 18 95 47zM246 497l-73 73l136 137l74 -74z" />
    <glyph glyph-name="agrave" unicode="&#xe0;" horiz-adv-x="551" 
d="M373 0v29c-27 -27 -64 -43 -117 -43c-115 0 -226 111 -226 248s111 248 226 248c53 0 90 -16 117 -44v30h128v-468h-128zM373 161v146c-22 29 -56 47 -95 47c-65 0 -120 -54 -120 -120s55 -120 120 -120c39 0 73 18 95 47zM383 570l-74 -73l-136 136l73 74z" />
    <glyph glyph-name="acircumflex" unicode="&#xe2;" horiz-adv-x="551" 
d="M373 0v29c-27 -27 -64 -43 -117 -43c-115 0 -226 111 -226 248s111 248 226 248c53 0 90 -16 117 -44v30h128v-468h-128zM373 161v146c-22 29 -56 47 -95 47c-65 0 -120 -54 -120 -120s55 -120 120 -120c39 0 73 18 95 47zM214 493l-73 73l136 137l136 -137l-73 -73
l-63 63z" />
    <glyph glyph-name="adieresis" unicode="&#xe4;" horiz-adv-x="551" 
d="M373 0v29c-27 -27 -64 -43 -117 -43c-115 0 -226 111 -226 248s111 248 226 248c53 0 90 -16 117 -44v30h128v-468h-128zM373 161v146c-22 29 -56 47 -95 47c-65 0 -120 -54 -120 -120s55 -120 120 -120c39 0 73 18 95 47zM137 576c0 35 28 64 63 64s63 -29 63 -64
c0 -34 -28 -63 -63 -63s-63 29 -63 63zM292 576c0 35 28 64 63 64s63 -29 63 -64c0 -34 -28 -63 -63 -63s-63 29 -63 63z" />
    <glyph glyph-name="atilde" unicode="&#xe3;" horiz-adv-x="551" 
d="M373 0v29c-27 -27 -64 -43 -117 -43c-115 0 -226 111 -226 248s111 248 226 248c53 0 90 -16 117 -44v30h128v-468h-128zM373 161v146c-22 29 -56 47 -95 47c-65 0 -120 -54 -120 -120s55 -120 120 -120c39 0 73 18 95 47zM437 611c0 -66 -45 -102 -101 -102
c-32 0 -54 13 -72 23c-13 8 -24 14 -36 14c-19 0 -32 -14 -31 -32h-77c-2 8 -3 19 -3 30c0 67 45 103 101 103c32 0 54 -13 72 -24c13 -7 24 -14 36 -14c19 0 32 14 31 33h76c3 -9 4 -20 4 -31z" />
    <glyph glyph-name="aring" unicode="&#xe5;" horiz-adv-x="551" 
d="M373 0v29c-27 -27 -64 -43 -117 -43c-115 0 -226 111 -226 248s111 248 226 248c53 0 90 -16 117 -44v30h128v-468h-128zM373 161v146c-22 29 -56 47 -95 47c-65 0 -120 -54 -120 -120s55 -120 120 -120c39 0 73 18 95 47zM377 596c0 -55 -44 -99 -99 -99s-99 44 -99 99
s44 99 99 99s99 -44 99 -99zM322 596c0 24 -20 44 -44 44s-44 -20 -44 -44s20 -44 44 -44s44 20 44 44z" />
    <glyph glyph-name="abreve" unicode="&#x103;" horiz-adv-x="551" 
d="M373 0v29c-27 -27 -64 -43 -117 -43c-115 0 -226 111 -226 248s111 248 226 248c53 0 90 -16 117 -44v30h128v-468h-128zM373 161v146c-22 29 -56 47 -95 47c-65 0 -120 -54 -120 -120s55 -120 120 -120c39 0 73 18 95 47zM278 615c36 0 72 14 100 42l73 -74
c-48 -48 -111 -72 -174 -72s-125 24 -173 72l74 74c27 -28 64 -42 100 -42z" />
    <glyph glyph-name="amacron" unicode="&#x101;" horiz-adv-x="551" 
d="M373 0v29c-27 -27 -64 -43 -117 -43c-115 0 -226 111 -226 248s111 248 226 248c53 0 90 -16 117 -44v30h128v-468h-128zM373 161v146c-22 29 -56 47 -95 47c-65 0 -120 -54 -120 -120s55 -120 120 -120c39 0 73 18 95 47zM433 629v-103h-312v103h312z" />
    <glyph glyph-name="aogonek" unicode="&#x105;" horiz-adv-x="551" 
d="M501 -175c-72 0 -129 58 -129 129c0 16 3 32 9 46h-8v29c-27 -27 -64 -43 -117 -43c-115 0 -226 111 -226 248s111 248 226 248c53 0 90 -16 117 -44v30h128v-468c-24 0 -45 -21 -45 -47c0 -27 21 -49 45 -49v-79zM373 161v146c-22 29 -56 47 -95 47
c-65 0 -120 -54 -120 -120s55 -120 120 -120c39 0 73 18 95 47z" />
    <glyph glyph-name="a.alt1" horiz-adv-x="444" 
d="M394 304v-304h-128v18c-23 -21 -48 -32 -83 -32c-83 0 -158 70 -158 168c0 97 75 167 158 167c35 0 60 -11 83 -32v15c0 32 -26 50 -56 50c-8 0 -23 -1 -29 -4v124c18 8 37 8 49 8c104 0 164 -84 164 -178zM213 94c18 0 45 9 53 30v60c-8 21 -35 31 -53 31
c-34 0 -60 -27 -60 -61s26 -60 60 -60z" />
    <glyph glyph-name="aacute.alt1" horiz-adv-x="444" 
d="M394 304v-304h-128v18c-23 -21 -48 -32 -83 -32c-83 0 -158 70 -158 168c0 97 75 167 158 167c35 0 60 -11 83 -32v15c0 32 -26 50 -56 50c-8 0 -23 -1 -29 -4v124c18 8 37 8 49 8c104 0 164 -84 164 -178zM213 94c18 0 45 9 53 30v60c-8 21 -35 31 -53 31
c-34 0 -60 -27 -60 -61s26 -60 60 -60zM191 497l-73 73l136 137l74 -74z" />
    <glyph glyph-name="agrave.alt1" horiz-adv-x="444" 
d="M394 304v-304h-128v18c-23 -21 -48 -32 -83 -32c-83 0 -158 70 -158 168c0 97 75 167 158 167c35 0 60 -11 83 -32v15c0 32 -26 50 -56 50c-8 0 -23 -1 -29 -4v124c18 8 37 8 49 8c104 0 164 -84 164 -178zM213 94c18 0 45 9 53 30v60c-8 21 -35 31 -53 31
c-34 0 -60 -27 -60 -61s26 -60 60 -60zM328 570l-74 -73l-136 136l73 74z" />
    <glyph glyph-name="acircumflex.alt1" horiz-adv-x="444" 
d="M394 304v-304h-128v18c-23 -21 -48 -32 -83 -32c-83 0 -158 70 -158 168c0 97 75 167 158 167c35 0 60 -11 83 -32v15c0 32 -26 50 -56 50c-8 0 -23 -1 -29 -4v124c18 8 37 8 49 8c104 0 164 -84 164 -178zM213 94c18 0 45 9 53 30v60c-8 21 -35 31 -53 31
c-34 0 -60 -27 -60 -61s26 -60 60 -60zM159 493l-73 73l136 137l136 -137l-73 -73l-63 63z" />
    <glyph glyph-name="adieresis.alt1" horiz-adv-x="444" 
d="M394 304v-304h-128v18c-23 -21 -48 -32 -83 -32c-83 0 -158 70 -158 168c0 97 75 167 158 167c35 0 60 -11 83 -32v15c0 32 -26 50 -56 50c-8 0 -23 -1 -29 -4v124c18 8 37 8 49 8c104 0 164 -84 164 -178zM213 94c18 0 45 9 53 30v60c-8 21 -35 31 -53 31
c-34 0 -60 -27 -60 -61s26 -60 60 -60zM82 576c0 35 28 64 63 64s63 -29 63 -64c0 -34 -28 -63 -63 -63s-63 29 -63 63zM237 576c0 35 28 64 63 64s63 -29 63 -64c0 -34 -28 -63 -63 -63s-63 29 -63 63z" />
    <glyph glyph-name="atilde.alt1" horiz-adv-x="444" 
d="M394 304v-304h-128v18c-23 -21 -48 -32 -83 -32c-83 0 -158 70 -158 168c0 97 75 167 158 167c35 0 60 -11 83 -32v15c0 32 -26 50 -56 50c-8 0 -23 -1 -29 -4v124c18 8 37 8 49 8c104 0 164 -84 164 -178zM213 94c18 0 45 9 53 30v60c-8 21 -35 31 -53 31
c-34 0 -60 -27 -60 -61s26 -60 60 -60zM382 611c0 -66 -45 -102 -101 -102c-32 0 -54 13 -72 23c-13 8 -24 14 -36 14c-19 0 -32 -14 -31 -32h-77c-2 8 -3 19 -3 30c0 67 45 103 101 103c32 0 54 -13 72 -24c13 -7 24 -14 36 -14c19 0 32 14 31 33h76c3 -9 4 -20 4 -31z" />
    <glyph glyph-name="aring.alt1" horiz-adv-x="444" 
d="M394 304v-304h-128v18c-23 -21 -48 -32 -83 -32c-83 0 -158 70 -158 168c0 97 75 167 158 167c35 0 60 -11 83 -32v15c0 32 -26 50 -56 50c-8 0 -23 -1 -29 -4v124c18 8 37 8 49 8c104 0 164 -84 164 -178zM213 94c18 0 45 9 53 30v60c-8 21 -35 31 -53 31
c-34 0 -60 -27 -60 -61s26 -60 60 -60zM322 596c0 -55 -44 -99 -99 -99s-99 44 -99 99s44 99 99 99s99 -44 99 -99zM267 596c0 24 -20 44 -44 44s-44 -20 -44 -44s20 -44 44 -44s44 20 44 44z" />
    <glyph glyph-name="abreve.alt1" horiz-adv-x="444" 
d="M394 304v-304h-128v18c-23 -21 -48 -32 -83 -32c-83 0 -158 70 -158 168c0 97 75 167 158 167c35 0 60 -11 83 -32v15c0 32 -26 50 -56 50c-8 0 -23 -1 -29 -4v124c18 8 37 8 49 8c104 0 164 -84 164 -178zM213 94c18 0 45 9 53 30v60c-8 21 -35 31 -53 31
c-34 0 -60 -27 -60 -61s26 -60 60 -60zM223 615c36 0 72 14 100 42l73 -74c-48 -48 -111 -72 -174 -72s-125 24 -173 72l74 74c27 -28 64 -42 100 -42z" />
    <glyph glyph-name="amacron.alt1" horiz-adv-x="444" 
d="M394 304v-304h-128v18c-23 -21 -48 -32 -83 -32c-83 0 -158 70 -158 168c0 97 75 167 158 167c35 0 60 -11 83 -32v15c0 32 -26 50 -56 50c-8 0 -23 -1 -29 -4v124c18 8 37 8 49 8c104 0 164 -84 164 -178zM213 94c18 0 45 9 53 30v60c-8 21 -35 31 -53 31
c-34 0 -60 -27 -60 -61s26 -60 60 -60zM378 629v-103h-312v103h312z" />
    <glyph glyph-name="aogonek.alt1" horiz-adv-x="444" 
d="M394 -175c-72 0 -129 58 -129 129c0 16 3 32 9 46h-8v18c-23 -21 -48 -32 -83 -32c-83 0 -158 70 -158 168c0 97 75 167 158 167c35 0 60 -11 83 -32v15c0 32 -26 50 -56 50c-8 0 -23 -1 -29 -4v124c18 8 37 8 49 8c104 0 164 -84 164 -178v-304c-24 0 -45 -21 -45 -47
c0 -27 21 -49 45 -49v-79zM213 94c18 0 45 9 53 30v60c-8 21 -35 31 -53 31c-34 0 -60 -27 -60 -61s26 -60 60 -60z" />
    <glyph glyph-name="ae" unicode="&#xe6;" horiz-adv-x="889" 
d="M256 -14c-115 0 -226 111 -226 248s111 248 226 248c53 0 90 -16 117 -44v30h128v-28c36 27 80 42 128 42c127 0 230 -111 230 -248c0 -18 -1 -31 -4 -49h-354c19 -42 61 -71 110 -71c33 0 63 13 84 35l96 -91c-42 -45 -99 -72 -162 -72c-48 0 -92 15 -128 42v-28h-128
v29c-27 -27 -64 -43 -117 -43zM278 114c39 0 73 18 95 47v146c-22 29 -56 47 -95 47c-65 0 -120 -54 -120 -120s55 -120 120 -120zM611 354c-48 0 -90 -30 -109 -71h218c-19 42 -61 71 -109 71z" />
    <glyph glyph-name="aeacute" unicode="&#x1fd;" horiz-adv-x="889" 
d="M256 -14c-115 0 -226 111 -226 248s111 248 226 248c53 0 90 -16 117 -44v30h128v-28c36 27 80 42 128 42c127 0 230 -111 230 -248c0 -18 -1 -31 -4 -49h-354c19 -42 61 -71 110 -71c33 0 63 13 84 35l96 -91c-42 -45 -99 -72 -162 -72c-48 0 -92 15 -128 42v-28h-128
v29c-27 -27 -64 -43 -117 -43zM278 114c39 0 73 18 95 47v146c-22 29 -56 47 -95 47c-65 0 -120 -54 -120 -120s55 -120 120 -120zM611 354c-48 0 -90 -30 -109 -71h218c-19 42 -61 71 -109 71zM406 497l-73 73l136 137l74 -74z" />
    <glyph glyph-name="ae.alt1" horiz-adv-x="713" 
d="M25 154c0 97 75 167 158 167c35 0 60 -11 83 -32v15c0 32 -26 50 -56 50c-8 0 -23 -1 -29 -4v124c18 8 37 8 49 8c60 0 106 -28 133 -71c42 43 97 71 159 71c69 0 133 -33 174 -85c6 -8 12 -16 17 -25l-250 -250c13 -5 27 -8 43 -8c31 0 61 11 85 35l90 -90
c-49 -49 -96 -73 -159 -73c-48 0 -92 15 -128 41v-27h-128v18c-23 -21 -48 -32 -83 -32c-83 0 -158 70 -158 168zM213 94c18 0 45 9 53 30v60c-8 21 -35 31 -53 31c-34 0 -60 -27 -60 -61s26 -60 60 -60zM506 354c-50 0 -95 -32 -112 -78v-85l154 155c-13 5 -28 8 -42 8z
" />
    <glyph glyph-name="aeacute.alt1" horiz-adv-x="713" 
d="M25 154c0 97 75 167 158 167c35 0 60 -11 83 -32v15c0 32 -26 50 -56 50c-8 0 -23 -1 -29 -4v124c18 8 37 8 49 8c60 0 106 -28 133 -71c42 43 97 71 159 71c69 0 133 -33 174 -85c6 -8 12 -16 17 -25l-250 -250c13 -5 27 -8 43 -8c31 0 61 11 85 35l90 -90
c-49 -49 -96 -73 -159 -73c-48 0 -92 15 -128 41v-27h-128v18c-23 -21 -48 -32 -83 -32c-83 0 -158 70 -158 168zM213 94c18 0 45 9 53 30v60c-8 21 -35 31 -53 31c-34 0 -60 -27 -60 -61s26 -60 60 -60zM506 354c-50 0 -95 -32 -112 -78v-85l154 155c-13 5 -28 8 -42 8z
M299 497l-73 73l136 137l74 -74z" />
    <glyph glyph-name="ae.alt2" horiz-adv-x="820" 
d="M373 0v29c-27 -27 -64 -43 -117 -43c-115 0 -226 111 -226 248s111 248 226 248c53 0 90 -16 117 -44v30h128v-30c36 28 80 44 128 44c66 0 129 -31 170 -80c8 -9 15 -20 21 -30l-250 -250c13 -5 27 -8 43 -8c31 0 61 11 85 35l90 -90c-49 -49 -96 -73 -159 -73
c-47 0 -92 15 -128 41v-27h-128zM373 161v146c-22 29 -56 47 -95 47c-65 0 -120 -54 -120 -120s55 -120 120 -120c39 0 73 18 95 47zM613 354c-49 0 -94 -32 -112 -77v-86l154 155c-13 5 -28 8 -42 8z" />
    <glyph glyph-name="aeacute.alt2" horiz-adv-x="820" 
d="M373 0v29c-27 -27 -64 -43 -117 -43c-115 0 -226 111 -226 248s111 248 226 248c53 0 90 -16 117 -44v30h128v-30c36 28 80 44 128 44c66 0 129 -31 170 -80c8 -9 15 -20 21 -30l-250 -250c13 -5 27 -8 43 -8c31 0 61 11 85 35l90 -90c-49 -49 -96 -73 -159 -73
c-47 0 -92 15 -128 41v-27h-128zM373 161v146c-22 29 -56 47 -95 47c-65 0 -120 -54 -120 -120s55 -120 120 -120c39 0 73 18 95 47zM613 354c-49 0 -94 -32 -112 -77v-86l154 155c-13 5 -28 8 -42 8zM405 497l-73 73l136 137l74 -74z" />
    <glyph glyph-name="ae.alt3" horiz-adv-x="782" 
d="M183 321c35 0 60 -11 83 -32v15c0 32 -26 50 -56 50c-8 0 -23 -1 -29 -4v124c18 8 37 8 49 8c60 0 105 -28 132 -69c42 43 98 69 160 69c127 0 230 -111 230 -248c0 -18 -1 -31 -4 -49h-354c19 -42 61 -71 110 -71c33 0 63 13 84 35l96 -91c-42 -45 -99 -72 -162 -72
c-48 0 -92 15 -128 42v-28h-128v18c-23 -21 -48 -32 -83 -32c-83 0 -158 70 -158 168c0 97 75 167 158 167zM213 94c18 0 45 9 53 30v60c-8 21 -35 31 -53 31c-34 0 -60 -27 -60 -61s26 -60 60 -60zM504 354c-48 0 -90 -30 -109 -71h218c-19 42 -61 71 -109 71z" />
    <glyph glyph-name="aeacute.alt3" horiz-adv-x="782" 
d="M183 321c35 0 60 -11 83 -32v15c0 32 -26 50 -56 50c-8 0 -23 -1 -29 -4v124c18 8 37 8 49 8c60 0 105 -28 132 -69c42 43 98 69 160 69c127 0 230 -111 230 -248c0 -18 -1 -31 -4 -49h-354c19 -42 61 -71 110 -71c33 0 63 13 84 35l96 -91c-42 -45 -99 -72 -162 -72
c-48 0 -92 15 -128 42v-28h-128v18c-23 -21 -48 -32 -83 -32c-83 0 -158 70 -158 168c0 97 75 167 158 167zM213 94c18 0 45 9 53 30v60c-8 21 -35 31 -53 31c-34 0 -60 -27 -60 -61s26 -60 60 -60zM504 354c-48 0 -90 -30 -109 -71h218c-19 42 -61 71 -109 71zM299 497
l-73 73l136 137l74 -74z" />
    <glyph glyph-name="b" unicode="b" horiz-adv-x="551" 
d="M178 685v-247c27 28 64 44 117 44c115 0 226 -111 226 -248s-111 -248 -226 -248c-53 0 -90 16 -117 43v-29h-128v685h128zM273 354c-39 0 -73 -18 -95 -47v-146c22 -29 56 -47 95 -47c65 0 120 54 120 120s-55 120 -120 120z" />
    <glyph glyph-name="c" unicode="c" horiz-adv-x="474" 
d="M362 149l91 -91c-45 -45 -107 -72 -175 -72c-137 0 -248 111 -248 248s111 248 248 248c69 0 131 -28 176 -73l-91 -90c-22 21 -52 35 -85 35c-66 0 -120 -54 -120 -120s54 -120 120 -120c33 0 63 13 84 35z" />
    <glyph glyph-name="ccedilla" unicode="&#xe7;" horiz-adv-x="474" 
d="M293 -201l-72 72c9 10 15 24 15 39s-6 29 -15 39l38 38c-128 10 -229 116 -229 247c0 137 111 248 248 248c69 0 131 -28 176 -73l-91 -90c-22 21 -52 35 -85 35c-66 0 -120 -54 -120 -120s54 -120 120 -120c33 0 63 13 84 35l91 -91c-36 -36 -83 -60 -135 -69
c13 -23 21 -50 21 -79c0 -44 -18 -83 -46 -111z" />
    <glyph glyph-name="cacute" unicode="&#x107;" horiz-adv-x="474" 
d="M362 149l91 -91c-45 -45 -107 -72 -175 -72c-137 0 -248 111 -248 248s111 248 248 248c69 0 131 -28 176 -73l-91 -90c-22 21 -52 35 -85 35c-66 0 -120 -54 -120 -120s54 -120 120 -120c33 0 63 13 84 35zM246 497l-73 73l136 137l74 -74z" />
    <glyph glyph-name="ccaron" unicode="&#x10d;" horiz-adv-x="474" 
d="M362 149l91 -91c-45 -45 -107 -72 -175 -72c-137 0 -248 111 -248 248s111 248 248 248c69 0 131 -28 176 -73l-91 -90c-22 21 -52 35 -85 35c-66 0 -120 -54 -120 -120s54 -120 120 -120c33 0 63 13 84 35zM340 702l73 -74l-136 -136l-136 136l73 74l63 -63z" />
    <glyph glyph-name="ccircumflex" unicode="&#x109;" horiz-adv-x="474" 
d="M362 149l91 -91c-45 -45 -107 -72 -175 -72c-137 0 -248 111 -248 248s111 248 248 248c69 0 131 -28 176 -73l-91 -90c-22 21 -52 35 -85 35c-66 0 -120 -54 -120 -120s54 -120 120 -120c33 0 63 13 84 35zM214 493l-73 73l136 137l136 -137l-73 -73l-63 63z" />
    <glyph glyph-name="cdotaccent" unicode="&#x10b;" horiz-adv-x="474" 
d="M362 149l91 -91c-45 -45 -107 -72 -175 -72c-137 0 -248 111 -248 248s111 248 248 248c69 0 131 -28 176 -73l-91 -90c-22 21 -52 35 -85 35c-66 0 -120 -54 -120 -120s54 -120 120 -120c33 0 63 13 84 35zM214 576c0 35 28 64 63 64s63 -29 63 -64
c0 -34 -28 -63 -63 -63s-63 29 -63 63z" />
    <glyph glyph-name="c.alt2" horiz-adv-x="318" 
d="M278 -14c-137 0 -248 111 -248 248s111 248 248 248v-128c-66 0 -120 -54 -120 -120s54 -120 120 -120v-128z" />
    <glyph glyph-name="ccedilla.alt2" horiz-adv-x="318" 
d="M226 -201l-72 72c9 10 15 24 15 39s-6 29 -15 39l48 49c-100 31 -172 125 -172 236c0 137 111 248 248 248v-128c-66 0 -120 -54 -120 -120s54 -120 120 -120v-128c-9 0 -18 1 -27 2c13 -23 21 -49 21 -78c0 -44 -18 -83 -46 -111z" />
    <glyph glyph-name="cacute.alt2" horiz-adv-x="318" 
d="M278 -14c-137 0 -248 111 -248 248s111 248 248 248v-128c-66 0 -120 -54 -120 -120s54 -120 120 -120v-128zM183 497l-73 73l136 137l74 -74z" />
    <glyph glyph-name="ccaron.alt2" horiz-adv-x="318" 
d="M278 -14c-137 0 -248 111 -248 248s111 248 248 248v-128c-66 0 -120 -54 -120 -120s54 -120 120 -120v-128zM277 702l73 -74l-136 -136l-136 136l73 74l63 -63z" />
    <glyph glyph-name="ccircumflex.alt2" horiz-adv-x="318" 
d="M278 -14c-137 0 -248 111 -248 248s111 248 248 248v-128c-66 0 -120 -54 -120 -120s54 -120 120 -120v-128zM151 493l-73 73l136 137l136 -137l-73 -73l-63 63z" />
    <glyph glyph-name="cdotaccent.alt2" horiz-adv-x="318" 
d="M278 -14c-137 0 -248 111 -248 248s111 248 248 248v-128c-66 0 -120 -54 -120 -120s54 -120 120 -120v-128zM151 576c0 35 28 64 63 64s63 -29 63 -64c0 -34 -28 -63 -63 -63s-63 29 -63 63z" />
    <glyph glyph-name="d" unicode="d" horiz-adv-x="551" 
d="M373 0v29c-27 -27 -64 -43 -117 -43c-115 0 -226 111 -226 248s111 248 226 248c53 0 90 -16 117 -44v247h128v-685h-128zM373 161v146c-22 29 -56 47 -95 47c-65 0 -120 -54 -120 -120s55 -120 120 -120c39 0 73 18 95 47z" />
    <glyph glyph-name="dcaron" unicode="&#x10f;" horiz-adv-x="687" 
d="M373 0v29c-27 -27 -64 -43 -117 -43c-115 0 -226 111 -226 248s111 248 226 248c53 0 90 -16 117 -44v247h128v-685h-128zM373 161v146c-22 29 -56 47 -95 47c-65 0 -120 -54 -120 -120s55 -120 120 -120c39 0 73 18 95 47zM687 598l-136 -159v246h136v-87z" />
    <glyph glyph-name="dcroat" unicode="&#x111;" horiz-adv-x="551" 
d="M373 0v29c-27 -27 -64 -43 -117 -43c-115 0 -226 111 -226 248s111 248 226 248c53 0 90 -16 117 -44v88h-134v103h134v56h128v-56h50v-103h-50v-526h-128zM373 161v146c-22 29 -56 47 -95 47c-65 0 -120 -54 -120 -120s55 -120 120 -120c39 0 73 18 95 47z" />
    <glyph glyph-name="e" unicode="e" horiz-adv-x="556" 
d="M362 149l91 -91c-45 -45 -107 -72 -175 -72c-137 0 -248 111 -248 248s111 248 248 248s248 -111 248 -248c0 -18 -1 -31 -4 -49h-354c19 -42 61 -71 110 -71c33 0 63 13 84 35zM278 354c-49 0 -91 -29 -110 -71h219c-19 42 -61 71 -109 71z" />
    <glyph glyph-name="eacute" unicode="&#xe9;" horiz-adv-x="556" 
d="M362 149l91 -91c-45 -45 -107 -72 -175 -72c-137 0 -248 111 -248 248s111 248 248 248s248 -111 248 -248c0 -18 -1 -31 -4 -49h-354c19 -42 61 -71 110 -71c33 0 63 13 84 35zM278 354c-49 0 -91 -29 -110 -71h219c-19 42 -61 71 -109 71zM246 497l-73 73l136 137
l74 -74z" />
    <glyph glyph-name="egrave" unicode="&#xe8;" horiz-adv-x="556" 
d="M362 149l91 -91c-45 -45 -107 -72 -175 -72c-137 0 -248 111 -248 248s111 248 248 248s248 -111 248 -248c0 -18 -1 -31 -4 -49h-354c19 -42 61 -71 110 -71c33 0 63 13 84 35zM278 354c-49 0 -91 -29 -110 -71h219c-19 42 -61 71 -109 71zM383 570l-74 -73l-136 136
l73 74z" />
    <glyph glyph-name="ecircumflex" unicode="&#xea;" horiz-adv-x="556" 
d="M362 149l91 -91c-45 -45 -107 -72 -175 -72c-137 0 -248 111 -248 248s111 248 248 248s248 -111 248 -248c0 -18 -1 -31 -4 -49h-354c19 -42 61 -71 110 -71c33 0 63 13 84 35zM278 354c-49 0 -91 -29 -110 -71h219c-19 42 -61 71 -109 71zM214 493l-73 73l136 137
l136 -137l-73 -73l-63 63z" />
    <glyph glyph-name="edieresis" unicode="&#xeb;" horiz-adv-x="556" 
d="M362 149l91 -91c-45 -45 -107 -72 -175 -72c-137 0 -248 111 -248 248s111 248 248 248s248 -111 248 -248c0 -18 -1 -31 -4 -49h-354c19 -42 61 -71 110 -71c33 0 63 13 84 35zM278 354c-49 0 -91 -29 -110 -71h219c-19 42 -61 71 -109 71zM137 576c0 35 28 64 63 64
s63 -29 63 -64c0 -34 -28 -63 -63 -63s-63 29 -63 63zM292 576c0 35 28 64 63 64s63 -29 63 -64c0 -34 -28 -63 -63 -63s-63 29 -63 63z" />
    <glyph glyph-name="ebreve" unicode="&#x115;" horiz-adv-x="556" 
d="M362 149l91 -91c-45 -45 -107 -72 -175 -72c-137 0 -248 111 -248 248s111 248 248 248s248 -111 248 -248c0 -18 -1 -31 -4 -49h-354c19 -42 61 -71 110 -71c33 0 63 13 84 35zM278 354c-49 0 -91 -29 -110 -71h219c-19 42 -61 71 -109 71zM278 615c36 0 72 14 100 42
l73 -74c-48 -48 -111 -72 -174 -72s-125 24 -173 72l74 74c27 -28 64 -42 100 -42z" />
    <glyph glyph-name="ecaron" unicode="&#x11b;" horiz-adv-x="556" 
d="M362 149l91 -91c-45 -45 -107 -72 -175 -72c-137 0 -248 111 -248 248s111 248 248 248s248 -111 248 -248c0 -18 -1 -31 -4 -49h-354c19 -42 61 -71 110 -71c33 0 63 13 84 35zM278 354c-49 0 -91 -29 -110 -71h219c-19 42 -61 71 -109 71zM340 702l73 -74l-136 -136
l-136 136l73 74l63 -63z" />
    <glyph glyph-name="edotaccent" unicode="&#x117;" horiz-adv-x="556" 
d="M362 149l91 -91c-45 -45 -107 -72 -175 -72c-137 0 -248 111 -248 248s111 248 248 248s248 -111 248 -248c0 -18 -1 -31 -4 -49h-354c19 -42 61 -71 110 -71c33 0 63 13 84 35zM278 354c-49 0 -91 -29 -110 -71h219c-19 42 -61 71 -109 71zM214 576c0 35 28 64 63 64
s63 -29 63 -64c0 -34 -28 -63 -63 -63s-63 29 -63 63z" />
    <glyph glyph-name="emacron" unicode="&#x113;" horiz-adv-x="556" 
d="M362 149l91 -91c-45 -45 -107 -72 -175 -72c-137 0 -248 111 -248 248s111 248 248 248s248 -111 248 -248c0 -18 -1 -31 -4 -49h-354c19 -42 61 -71 110 -71c33 0 63 13 84 35zM278 354c-49 0 -91 -29 -110 -71h219c-19 42 -61 71 -109 71zM433 629v-103h-312v103h312z
" />
    <glyph glyph-name="eogonek" unicode="&#x119;" horiz-adv-x="556" 
d="M355 -2c-19 -6 -33 -24 -33 -45c0 -27 21 -49 45 -49v-79c-72 0 -129 58 -129 129c0 12 2 24 5 34c-121 18 -213 121 -213 246c0 137 111 248 248 248s248 -111 248 -248c0 -18 -1 -31 -4 -49h-354c19 -42 61 -71 110 -71c33 0 63 13 84 35l91 -91
c-27 -27 -61 -48 -98 -60zM278 354c-49 0 -91 -29 -110 -71h219c-19 42 -61 71 -109 71z" />
    <glyph glyph-name="e.alt1" horiz-adv-x="485" 
d="M363 149l90 -90c-49 -49 -112 -73 -175 -73c-131 0 -248 110 -248 248c0 131 111 248 248 248c63 0 126 -25 175 -73c13 -12 22 -22 32 -37l-250 -250c13 -5 27 -8 43 -8c31 0 61 11 85 35zM158 234c0 -15 3 -30 8 -43l154 155c-13 5 -28 8 -42 8
c-64 0 -120 -53 -120 -120z" />
    <glyph glyph-name="eacute.alt1" horiz-adv-x="485" 
d="M363 149l90 -90c-49 -49 -112 -73 -175 -73c-131 0 -248 110 -248 248c0 131 111 248 248 248c63 0 126 -25 175 -73c13 -12 22 -22 32 -37l-250 -250c13 -5 27 -8 43 -8c31 0 61 11 85 35zM158 234c0 -15 3 -30 8 -43l154 155c-13 5 -28 8 -42 8
c-64 0 -120 -53 -120 -120zM247 497l-73 73l136 137l74 -74z" />
    <glyph glyph-name="egrave.alt1" horiz-adv-x="485" 
d="M363 149l90 -90c-49 -49 -112 -73 -175 -73c-131 0 -248 110 -248 248c0 131 111 248 248 248c63 0 126 -25 175 -73c13 -12 22 -22 32 -37l-250 -250c13 -5 27 -8 43 -8c31 0 61 11 85 35zM158 234c0 -15 3 -30 8 -43l154 155c-13 5 -28 8 -42 8
c-64 0 -120 -53 -120 -120zM384 570l-74 -73l-136 136l73 74z" />
    <glyph glyph-name="ecircumflex.alt1" horiz-adv-x="485" 
d="M363 149l90 -90c-49 -49 -112 -73 -175 -73c-131 0 -248 110 -248 248c0 131 111 248 248 248c63 0 126 -25 175 -73c13 -12 22 -22 32 -37l-250 -250c13 -5 27 -8 43 -8c31 0 61 11 85 35zM158 234c0 -15 3 -30 8 -43l154 155c-13 5 -28 8 -42 8
c-64 0 -120 -53 -120 -120zM215 493l-73 73l136 137l136 -137l-73 -73l-63 63z" />
    <glyph glyph-name="edieresis.alt1" horiz-adv-x="485" 
d="M363 149l90 -90c-49 -49 -112 -73 -175 -73c-131 0 -248 110 -248 248c0 131 111 248 248 248c63 0 126 -25 175 -73c13 -12 22 -22 32 -37l-250 -250c13 -5 27 -8 43 -8c31 0 61 11 85 35zM158 234c0 -15 3 -30 8 -43l154 155c-13 5 -28 8 -42 8
c-64 0 -120 -53 -120 -120zM138 576c0 35 28 64 63 64s63 -29 63 -64c0 -34 -28 -63 -63 -63s-63 29 -63 63zM293 576c0 35 28 64 63 64s63 -29 63 -64c0 -34 -28 -63 -63 -63s-63 29 -63 63z" />
    <glyph glyph-name="ebreve.alt1" horiz-adv-x="485" 
d="M363 149l90 -90c-49 -49 -112 -73 -175 -73c-131 0 -248 110 -248 248c0 131 111 248 248 248c63 0 126 -25 175 -73c13 -12 22 -22 32 -37l-250 -250c13 -5 27 -8 43 -8c31 0 61 11 85 35zM158 234c0 -15 3 -30 8 -43l154 155c-13 5 -28 8 -42 8
c-64 0 -120 -53 -120 -120zM279 615c36 0 72 14 100 42l73 -74c-48 -48 -111 -72 -174 -72s-125 24 -173 72l74 74c27 -28 64 -42 100 -42z" />
    <glyph glyph-name="ecaron.alt1" horiz-adv-x="485" 
d="M363 149l90 -90c-49 -49 -112 -73 -175 -73c-131 0 -248 110 -248 248c0 131 111 248 248 248c63 0 126 -25 175 -73c13 -12 22 -22 32 -37l-250 -250c13 -5 27 -8 43 -8c31 0 61 11 85 35zM158 234c0 -15 3 -30 8 -43l154 155c-13 5 -28 8 -42 8
c-64 0 -120 -53 -120 -120zM341 702l73 -74l-136 -136l-136 136l73 74l63 -63z" />
    <glyph glyph-name="edotaccent.alt1" horiz-adv-x="485" 
d="M363 149l90 -90c-49 -49 -112 -73 -175 -73c-131 0 -248 110 -248 248c0 131 111 248 248 248c63 0 126 -25 175 -73c13 -12 22 -22 32 -37l-250 -250c13 -5 27 -8 43 -8c31 0 61 11 85 35zM158 234c0 -15 3 -30 8 -43l154 155c-13 5 -28 8 -42 8
c-64 0 -120 -53 -120 -120zM215 576c0 35 28 64 63 64s63 -29 63 -64c0 -34 -28 -63 -63 -63s-63 29 -63 63z" />
    <glyph glyph-name="emacron.alt1" horiz-adv-x="485" 
d="M363 149l90 -90c-49 -49 -112 -73 -175 -73c-131 0 -248 110 -248 248c0 131 111 248 248 248c63 0 126 -25 175 -73c13 -12 22 -22 32 -37l-250 -250c13 -5 27 -8 43 -8c31 0 61 11 85 35zM158 234c0 -15 3 -30 8 -43l154 155c-13 5 -28 8 -42 8
c-64 0 -120 -53 -120 -120zM434 629v-103h-312v103h312z" />
    <glyph glyph-name="eogonek.alt1" horiz-adv-x="485" 
d="M354 -2c-18 -6 -32 -24 -32 -45c0 -27 21 -49 45 -49v-79c-72 0 -129 58 -129 129c0 12 2 24 5 35c-116 17 -213 119 -213 245c0 131 111 248 248 248c63 0 126 -25 175 -73c13 -12 22 -22 32 -37l-250 -250c13 -5 27 -8 43 -8c31 0 61 11 85 35l90 -90
c-29 -29 -63 -49 -99 -61zM158 234c0 -15 3 -30 8 -43l154 155c-13 5 -28 8 -42 8c-64 0 -120 -53 -120 -120z" />
    <glyph glyph-name="f" unicode="f" horiz-adv-x="274" 
d="M264 468v-128h-70v-340h-128v340h-56v128h56v53c0 94 50 178 154 178c12 0 30 -3 44 -12v-121c-6 3 -16 5 -24 5c-25 0 -46 -23 -46 -50v-53h70z" />
    <glyph glyph-name="fi.alt1" horiz-adv-x="502" 
d="M264 468v-128h-70v-340h-128v340h-56v128h56v53c0 94 50 178 154 178c12 0 30 -3 44 -12v-121c-6 3 -16 5 -24 5c-25 0 -46 -23 -46 -50v-53h70zM452 0h-128v468h128v-468zM389 483h-4l-81 158h168z" />
    <glyph glyph-name="g" unicode="g" horiz-adv-x="551" 
d="M501 468v-420c0 -156 -123 -247 -243 -247c-17 0 -47 3 -59 7v127c9 -2 27 -6 45 -6c65 0 119 34 128 99c-27 -27 -64 -42 -116 -42c-115 0 -226 111 -226 248s111 248 226 248c53 0 90 -16 117 -44v30h128zM373 161v146c-22 29 -56 47 -95 47c-65 0 -120 -54 -120 -120
s55 -120 120 -120c39 0 73 18 95 47z" />
    <glyph glyph-name="gbreve" unicode="&#x11f;" horiz-adv-x="551" 
d="M501 468v-420c0 -156 -123 -247 -243 -247c-17 0 -47 3 -59 7v127c9 -2 27 -6 45 -6c65 0 119 34 128 99c-27 -27 -64 -42 -116 -42c-115 0 -226 111 -226 248s111 248 226 248c53 0 90 -16 117 -44v30h128zM373 161v146c-22 29 -56 47 -95 47c-65 0 -120 -54 -120 -120
s55 -120 120 -120c39 0 73 18 95 47zM278 615c36 0 72 14 100 42l73 -74c-48 -48 -111 -72 -174 -72s-125 24 -173 72l74 74c27 -28 64 -42 100 -42z" />
    <glyph glyph-name="gcircumflex" unicode="&#x11d;" horiz-adv-x="551" 
d="M501 468v-420c0 -156 -123 -247 -243 -247c-17 0 -47 3 -59 7v127c9 -2 27 -6 45 -6c65 0 119 34 128 99c-27 -27 -64 -42 -116 -42c-115 0 -226 111 -226 248s111 248 226 248c53 0 90 -16 117 -44v30h128zM373 161v146c-22 29 -56 47 -95 47c-65 0 -120 -54 -120 -120
s55 -120 120 -120c39 0 73 18 95 47zM214 493l-73 73l136 137l136 -137l-73 -73l-63 63z" />
    <glyph glyph-name="uni0123" unicode="&#x123;" horiz-adv-x="551" 
d="M501 468v-420c0 -156 -123 -247 -243 -247c-17 0 -47 3 -59 7v127c9 -2 27 -6 45 -6c65 0 119 34 128 99c-27 -27 -64 -42 -116 -42c-115 0 -226 111 -226 248s111 248 226 248c53 0 90 -16 117 -44v30h128zM373 161v146c-22 29 -56 47 -95 47c-65 0 -120 -54 -120 -120
s55 -120 120 -120c39 0 73 18 95 47zM209 617l136 109v-196h-136v87z" />
    <glyph glyph-name="gdotaccent" unicode="&#x121;" horiz-adv-x="551" 
d="M501 468v-420c0 -156 -123 -247 -243 -247c-17 0 -47 3 -59 7v127c9 -2 27 -6 45 -6c65 0 119 34 128 99c-27 -27 -64 -42 -116 -42c-115 0 -226 111 -226 248s111 248 226 248c53 0 90 -16 117 -44v30h128zM373 161v146c-22 29 -56 47 -95 47c-65 0 -120 -54 -120 -120
s55 -120 120 -120c39 0 73 18 95 47zM214 576c0 35 28 64 63 64s63 -29 63 -64c0 -34 -28 -63 -63 -63s-63 29 -63 63z" />
    <glyph glyph-name="g.alt1" horiz-adv-x="493" 
d="M230 80c-111 0 -200 91 -200 202s89 200 200 200c39 0 75 -11 105 -30l9 16h134l-61 -115c8 -22 13 -46 13 -71s-5 -49 -13 -72c40 -47 61 -104 61 -161c0 -136 -112 -248 -248 -248c-63 0 -127 24 -175 73l90 90c23 -24 54 -35 85 -35c67 0 120 53 120 120
c0 21 -6 42 -17 60c-30 -18 -65 -29 -103 -29zM230 209c40 0 72 33 72 73s-32 72 -72 72s-72 -32 -72 -72s32 -73 72 -73z" />
    <glyph glyph-name="gbreve.alt1" horiz-adv-x="493" 
d="M230 80c-111 0 -200 91 -200 202s89 200 200 200c39 0 75 -11 105 -30l9 16h134l-61 -115c8 -22 13 -46 13 -71s-5 -49 -13 -72c40 -47 61 -104 61 -161c0 -136 -112 -248 -248 -248c-63 0 -127 24 -175 73l90 90c23 -24 54 -35 85 -35c67 0 120 53 120 120
c0 21 -6 42 -17 60c-30 -18 -65 -29 -103 -29zM230 209c40 0 72 33 72 73s-32 72 -72 72s-72 -32 -72 -72s32 -73 72 -73zM230 615c36 0 72 14 100 42l73 -74c-48 -48 -111 -72 -174 -72s-125 24 -173 72l74 74c27 -28 64 -42 100 -42z" />
    <glyph glyph-name="gcircumflex.alt1" horiz-adv-x="493" 
d="M230 80c-111 0 -200 91 -200 202s89 200 200 200c39 0 75 -11 105 -30l9 16h134l-61 -115c8 -22 13 -46 13 -71s-5 -49 -13 -72c40 -47 61 -104 61 -161c0 -136 -112 -248 -248 -248c-63 0 -127 24 -175 73l90 90c23 -24 54 -35 85 -35c67 0 120 53 120 120
c0 21 -6 42 -17 60c-30 -18 -65 -29 -103 -29zM230 209c40 0 72 33 72 73s-32 72 -72 72s-72 -32 -72 -72s32 -73 72 -73zM166 493l-73 73l136 137l136 -137l-73 -73l-63 63z" />
    <glyph glyph-name="uni0123.alt1" horiz-adv-x="493" 
d="M230 80c-111 0 -200 91 -200 202s89 200 200 200c39 0 75 -11 105 -30l9 16h134l-61 -115c8 -22 13 -46 13 -71s-5 -49 -13 -72c40 -47 61 -104 61 -161c0 -136 -112 -248 -248 -248c-63 0 -127 24 -175 73l90 90c23 -24 54 -35 85 -35c67 0 120 53 120 120
c0 21 -6 42 -17 60c-30 -18 -65 -29 -103 -29zM230 209c40 0 72 33 72 73s-32 72 -72 72s-72 -32 -72 -72s32 -73 72 -73zM161 617l136 109v-196h-136v87z" />
    <glyph glyph-name="gdotaccent.alt1" horiz-adv-x="493" 
d="M230 80c-111 0 -200 91 -200 202s89 200 200 200c39 0 75 -11 105 -30l9 16h134l-61 -115c8 -22 13 -46 13 -71s-5 -49 -13 -72c40 -47 61 -104 61 -161c0 -136 -112 -248 -248 -248c-63 0 -127 24 -175 73l90 90c23 -24 54 -35 85 -35c67 0 120 53 120 120
c0 21 -6 42 -17 60c-30 -18 -65 -29 -103 -29zM230 209c40 0 72 33 72 73s-32 72 -72 72s-72 -32 -72 -72s32 -73 72 -73zM166 576c0 35 28 64 63 64s63 -29 63 -64c0 -34 -28 -63 -63 -63s-63 29 -63 63z" />
    <glyph glyph-name="h" unicode="h" 
d="M178 685v-254c22 28 61 51 102 51c77 0 135 -58 135 -159v-323h-128v299c0 34 -19 55 -54 55c-23 0 -46 -15 -55 -36v-318h-128v685h128z" />
    <glyph glyph-name="hbar" unicode="&#x127;" 
d="M178 685v-57h134v-103h-134v-94c22 28 61 51 102 51c77 0 135 -58 135 -159v-323h-128v299c0 34 -19 55 -54 55c-23 0 -46 -15 -55 -36v-318h-128v525h-50v103h50v57h128z" />
    <glyph glyph-name="hcircumflex" unicode="&#x125;" 
d="M178 685v-254c22 28 61 51 102 51c77 0 135 -58 135 -159v-323h-128v299c0 34 -19 55 -54 55c-23 0 -46 -15 -55 -36v-318h-128v685h128zM50 710l-73 73l136 137l136 -137l-73 -73l-63 63z" />
    <glyph glyph-name="i" unicode="i" horiz-adv-x="228" 
d="M178 0h-128v468h128v-468zM178 513h-128v128h128v-128z" />
    <glyph glyph-name="dotlessi" unicode="&#x131;" horiz-adv-x="228" 
d="M178 0h-128v468h128v-468z" />
    <glyph glyph-name="iacute" unicode="&#xed;" horiz-adv-x="228" 
d="M178 0h-128v468h128v-468zM83 497l-73 73l136 137l74 -74z" />
    <glyph glyph-name="igrave" unicode="&#xec;" horiz-adv-x="228" 
d="M178 0h-128v468h128v-468zM220 570l-74 -73l-136 136l73 74z" />
    <glyph glyph-name="icircumflex" unicode="&#xee;" horiz-adv-x="228" 
d="M178 0h-128v468h128v-468zM51 493l-73 73l136 137l136 -137l-73 -73l-63 63z" />
    <glyph glyph-name="idieresis" unicode="&#xef;" horiz-adv-x="228" 
d="M178 0h-128v468h128v-468zM-26 576c0 35 28 64 63 64s63 -29 63 -64c0 -34 -28 -63 -63 -63s-63 29 -63 63zM129 576c0 35 28 64 63 64s63 -29 63 -64c0 -34 -28 -63 -63 -63s-63 29 -63 63z" />
    <glyph glyph-name="ibreve" unicode="&#x12d;" horiz-adv-x="228" 
d="M178 0h-128v468h128v-468zM115 615c36 0 72 14 100 42l73 -74c-48 -48 -111 -72 -174 -72s-125 24 -173 72l74 74c27 -28 64 -42 100 -42z" />
    <glyph glyph-name="imacron" unicode="&#x12b;" horiz-adv-x="228" 
d="M178 0h-128v468h128v-468zM270 629v-103h-312v103h312z" />
    <glyph glyph-name="itilde" unicode="&#x129;" horiz-adv-x="228" 
d="M178 0h-128v468h128v-468zM274 611c0 -66 -45 -102 -101 -102c-32 0 -54 13 -72 23c-13 8 -24 14 -36 14c-19 0 -32 -14 -31 -32h-77c-2 8 -3 19 -3 30c0 67 45 103 101 103c32 0 54 -13 72 -24c13 -7 24 -14 36 -14c19 0 32 14 31 33h76c3 -9 4 -20 4 -31z" />
    <glyph glyph-name="iogonek" unicode="&#x12f;" horiz-adv-x="228" 
d="M178 513h-128v128h128v-128zM178 -175c-72 0 -129 58 -129 129c0 16 3 32 9 46h-8v468h128v-468c-24 0 -45 -21 -45 -47c0 -27 21 -49 45 -49v-79z" />
    <glyph glyph-name="i.dotaccent" horiz-adv-x="228" 
d="M178 0h-128v468h128v-468zM178 513h-128v128h128v-128z" />
    <glyph glyph-name="i.dotaccentalt1" horiz-adv-x="228" 
d="M178 0h-128v468h128v-468zM115 483h-4l-81 158h168z" />
    <glyph glyph-name="ij" unicode="&#x133;" horiz-adv-x="456" 
d="M178 0h-128v468h128v-468zM178 513h-128v128h128v-128zM406 468v-489c0 -94 -50 -178 -154 -178c-12 0 -30 3 -44 12v121c6 -3 16 -5 24 -5c25 0 46 23 46 50v489h128zM406 513h-128v128h128v-128z" />
    <glyph glyph-name="i.alt1" horiz-adv-x="228" 
d="M178 0h-128v468h128v-468zM115 483h-4l-81 158h168z" />
    <glyph glyph-name="iogonek.alt1" horiz-adv-x="228" 
d="M115 483h-4l-81 158h168zM178 -175c-72 0 -129 58 -129 129c0 16 3 32 9 46h-8v468h128v-468c-24 0 -45 -21 -45 -47c0 -27 21 -49 45 -49v-79z" />
    <glyph glyph-name="ij.alt1" horiz-adv-x="456" 
d="M178 0h-128v468h128v-468zM115 483h-4l-81 158h168zM406 468v-489c0 -94 -50 -178 -154 -178c-12 0 -30 3 -44 12v121c6 -3 16 -5 24 -5c25 0 46 23 46 50v489h128zM343 483h-4l-81 158h168z" />
    <glyph glyph-name="j" unicode="j" horiz-adv-x="228" 
d="M178 468v-489c0 -94 -50 -178 -154 -178c-12 0 -30 3 -44 12v121c6 -3 16 -5 24 -5c25 0 46 23 46 50v489h128zM178 513h-128v128h128v-128z" />
    <glyph glyph-name="uni0237" unicode="&#x237;" horiz-adv-x="228" 
d="M178 468v-489c0 -94 -50 -178 -154 -178c-12 0 -30 3 -44 12v121c6 -3 16 -5 24 -5c25 0 46 23 46 50v489h128z" />
    <glyph glyph-name="jcircumflex" unicode="&#x135;" horiz-adv-x="228" 
d="M178 468v-489c0 -94 -50 -178 -154 -178c-12 0 -30 3 -44 12v121c6 -3 16 -5 24 -5c25 0 46 23 46 50v489h128zM51 493l-73 73l136 137l136 -137l-73 -73l-63 63z" />
    <glyph glyph-name="j.alt1" horiz-adv-x="228" 
d="M178 468v-489c0 -94 -50 -178 -154 -178c-12 0 -30 3 -44 12v121c6 -3 16 -5 24 -5c25 0 46 23 46 50v489h128zM115 483h-4l-81 158h168z" />
    <glyph glyph-name="k" unicode="k" horiz-adv-x="460" 
d="M460 0h-159l-103 145l-20 -27v-118h-128v685h128v-367l104 150h159l-163 -220z" />
    <glyph glyph-name="uni0137" unicode="&#x137;" horiz-adv-x="460" 
d="M460 0h-159l-103 145l-20 -27v-118h-128v685h128v-367l104 150h159l-163 -220zM298 -137l-136 -109v196h136v-87z" />
    <glyph glyph-name="kgreenlandic" unicode="&#x138;" horiz-adv-x="460" 
d="M460 0h-159l-103 145l-20 -27v-118h-128v468h128v-150l104 150h159l-163 -220z" />
    <glyph glyph-name="k.alt1" horiz-adv-x="460" 
d="M178 685v-367l104 150h159l-163 -220l182 -248h-159l-123 175v-175h-128v685h128z" />
    <glyph glyph-name="uni0137.alt1" horiz-adv-x="460" 
d="M178 685v-367l104 150h159l-163 -220l182 -248h-159l-123 175v-175h-128v685h128zM298 -137l-136 -109v196h136v-87z" />
    <glyph glyph-name="kgreenlandic.alt1" horiz-adv-x="460" 
d="M178 468v-150l104 150h159l-163 -220l182 -248h-159l-123 175v-175h-128v468h128z" />
    <glyph glyph-name="l" unicode="l" horiz-adv-x="228" 
d="M178 0h-128v685h128v-685z" />
    <glyph glyph-name="lacute" unicode="&#x13a;" horiz-adv-x="228" 
d="M178 0h-128v685h128v-685zM82 714l-73 73l136 137l74 -74z" />
    <glyph glyph-name="lcaron" unicode="&#x13e;" horiz-adv-x="364" 
d="M178 0h-128v685h128v-685zM364 598l-136 -159v246h136v-87z" />
    <glyph glyph-name="uni013C" unicode="&#x13c;" horiz-adv-x="228" 
d="M178 0h-128v685h128v-685zM181 -137l-136 -109v196h136v-87z" />
    <glyph glyph-name="ldot" unicode="&#x140;" horiz-adv-x="364" 
d="M178 0h-128v685h128v-685zM364 59h-136v138h136v-138z" />
    <glyph glyph-name="lslash" unicode="&#x142;" horiz-adv-x="228" 
d="M178 0h-128v151l-50 -21v112l50 21v422h128v-366l50 22v-113l-50 -22v-206z" />
    <glyph glyph-name="m" unicode="m" horiz-adv-x="702" 
d="M287 299c0 34 -19 55 -54 55c-23 0 -46 -15 -55 -36v-318h-128v468h128v-37c22 28 61 51 102 51c43 0 81 -19 105 -53c30 29 75 53 124 53c85 0 143 -58 143 -159v-323h-128v299c0 34 -19 55 -54 55c-24 0 -46 -15 -55 -36v-318h-128v299z" />
    <glyph glyph-name="n" unicode="n" 
d="M178 468v-37c22 28 61 51 102 51c77 0 135 -58 135 -159v-323h-128v299c0 34 -19 55 -54 55c-23 0 -46 -15 -55 -36v-318h-128v468h128z" />
    <glyph glyph-name="ntilde" unicode="&#xf1;" 
d="M178 468v-37c22 28 61 51 102 51c77 0 135 -58 135 -159v-323h-128v299c0 34 -19 55 -54 55c-23 0 -46 -15 -55 -36v-318h-128v468h128zM392 611c0 -66 -45 -102 -101 -102c-32 0 -54 13 -72 23c-13 8 -24 14 -36 14c-19 0 -32 -14 -31 -32h-77c-2 8 -3 19 -3 30
c0 67 45 103 101 103c32 0 54 -13 72 -24c13 -7 24 -14 36 -14c19 0 32 14 31 33h76c3 -9 4 -20 4 -31z" />
    <glyph glyph-name="nacute" unicode="&#x144;" 
d="M178 468v-37c22 28 61 51 102 51c77 0 135 -58 135 -159v-323h-128v299c0 34 -19 55 -54 55c-23 0 -46 -15 -55 -36v-318h-128v468h128zM201 497l-73 73l136 137l74 -74z" />
    <glyph glyph-name="napostrophe" unicode="&#x149;" 
d="M178 468v-37c22 28 61 51 102 51c77 0 135 -58 135 -159v-323h-128v299c0 34 -19 55 -54 55c-23 0 -46 -15 -55 -36v-318h-128v468h128zM186 614l-136 -127v197h136v-70z" />
    <glyph glyph-name="ncaron" unicode="&#x148;" 
d="M178 468v-37c22 28 61 51 102 51c77 0 135 -58 135 -159v-323h-128v299c0 34 -19 55 -54 55c-23 0 -46 -15 -55 -36v-318h-128v468h128zM295 702l73 -74l-136 -136l-136 136l73 74l63 -63z" />
    <glyph glyph-name="uni0146" unicode="&#x146;" 
d="M178 468v-37c22 28 61 51 102 51c77 0 135 -58 135 -159v-323h-128v299c0 34 -19 55 -54 55c-23 0 -46 -15 -55 -36v-318h-128v468h128zM300 -137l-136 -109v196h136v-87z" />
    <glyph glyph-name="eng" unicode="&#x14b;" 
d="M50 0v468h128v-37c22 28 61 51 102 51c77 0 135 -58 135 -159v-344c0 -94 -50 -178 -154 -178c-12 0 -30 3 -44 12v121c6 -3 16 -5 24 -5c25 0 46 23 46 50v320c0 34 -19 55 -54 55c-23 0 -46 -15 -55 -36v-318h-128z" />
    <glyph glyph-name="o" unicode="o" horiz-adv-x="556" 
d="M278 -14c-137 0 -248 111 -248 248s111 248 248 248s248 -111 248 -248s-111 -248 -248 -248zM158 234c0 -66 54 -120 120 -120s120 54 120 120s-54 120 -120 120s-120 -54 -120 -120z" />
    <glyph glyph-name="oacute" unicode="&#xf3;" horiz-adv-x="556" 
d="M278 -14c-137 0 -248 111 -248 248s111 248 248 248s248 -111 248 -248s-111 -248 -248 -248zM158 234c0 -66 54 -120 120 -120s120 54 120 120s-54 120 -120 120s-120 -54 -120 -120zM247 497l-73 73l136 137l74 -74z" />
    <glyph glyph-name="ograve" unicode="&#xf2;" horiz-adv-x="556" 
d="M278 -14c-137 0 -248 111 -248 248s111 248 248 248s248 -111 248 -248s-111 -248 -248 -248zM158 234c0 -66 54 -120 120 -120s120 54 120 120s-54 120 -120 120s-120 -54 -120 -120zM384 570l-74 -73l-136 136l73 74z" />
    <glyph glyph-name="ocircumflex" unicode="&#xf4;" horiz-adv-x="556" 
d="M278 -14c-137 0 -248 111 -248 248s111 248 248 248s248 -111 248 -248s-111 -248 -248 -248zM158 234c0 -66 54 -120 120 -120s120 54 120 120s-54 120 -120 120s-120 -54 -120 -120zM215 493l-73 73l136 137l136 -137l-73 -73l-63 63z" />
    <glyph glyph-name="odieresis" unicode="&#xf6;" horiz-adv-x="556" 
d="M278 -14c-137 0 -248 111 -248 248s111 248 248 248s248 -111 248 -248s-111 -248 -248 -248zM158 234c0 -66 54 -120 120 -120s120 54 120 120s-54 120 -120 120s-120 -54 -120 -120zM138 576c0 35 28 64 63 64s63 -29 63 -64c0 -34 -28 -63 -63 -63s-63 29 -63 63z
M293 576c0 35 28 64 63 64s63 -29 63 -64c0 -34 -28 -63 -63 -63s-63 29 -63 63z" />
    <glyph glyph-name="otilde" unicode="&#xf5;" horiz-adv-x="556" 
d="M278 -14c-137 0 -248 111 -248 248s111 248 248 248s248 -111 248 -248s-111 -248 -248 -248zM158 234c0 -66 54 -120 120 -120s120 54 120 120s-54 120 -120 120s-120 -54 -120 -120zM438 611c0 -66 -45 -102 -101 -102c-32 0 -54 13 -72 23c-13 8 -24 14 -36 14
c-19 0 -32 -14 -31 -32h-77c-2 8 -3 19 -3 30c0 67 45 103 101 103c32 0 54 -13 72 -24c13 -7 24 -14 36 -14c19 0 32 14 31 33h76c3 -9 4 -20 4 -31z" />
    <glyph glyph-name="obreve" unicode="&#x14f;" horiz-adv-x="556" 
d="M278 -14c-137 0 -248 111 -248 248s111 248 248 248s248 -111 248 -248s-111 -248 -248 -248zM158 234c0 -66 54 -120 120 -120s120 54 120 120s-54 120 -120 120s-120 -54 -120 -120zM279 615c36 0 72 14 100 42l73 -74c-48 -48 -111 -72 -174 -72s-125 24 -173 72
l74 74c27 -28 64 -42 100 -42z" />
    <glyph glyph-name="ohungarumlaut" unicode="&#x151;" horiz-adv-x="556" 
d="M278 -14c-137 0 -248 111 -248 248s111 248 248 248s248 -111 248 -248s-111 -248 -248 -248zM158 234c0 -66 54 -120 120 -120s120 54 120 120s-54 120 -120 120s-120 -54 -120 -120zM432 644l-72 -147l-83 41l72 147zM279 644l-72 -147l-83 41l72 147z" />
    <glyph glyph-name="omacron" unicode="&#x14d;" horiz-adv-x="556" 
d="M278 -14c-137 0 -248 111 -248 248s111 248 248 248s248 -111 248 -248s-111 -248 -248 -248zM158 234c0 -66 54 -120 120 -120s120 54 120 120s-54 120 -120 120s-120 -54 -120 -120zM434 629v-103h-312v103h312z" />
    <glyph glyph-name="oslash" unicode="&#xf8;" horiz-adv-x="556" 
d="M100 -14l-69 70l40 40c-26 40 -41 87 -41 138c0 137 111 248 248 248c51 0 98 -15 137 -42l42 42l69 -70l-42 -42c26 -39 42 -86 42 -136c0 -137 -111 -248 -248 -248c-51 0 -98 15 -137 41zM158 234c0 -15 3 -30 8 -43l155 155c-14 5 -28 8 -43 8
c-66 0 -120 -54 -120 -120zM278 114c66 0 120 54 120 120c0 15 -3 29 -8 42l-155 -155c14 -5 28 -7 43 -7z" />
    <glyph glyph-name="oslashacute" unicode="&#x1ff;" horiz-adv-x="556" 
d="M100 -14l-69 70l40 40c-26 40 -41 87 -41 138c0 137 111 248 248 248c51 0 98 -15 137 -42l42 42l69 -70l-42 -42c26 -39 42 -86 42 -136c0 -137 -111 -248 -248 -248c-51 0 -98 15 -137 41zM158 234c0 -15 3 -30 8 -43l155 155c-14 5 -28 8 -43 8
c-66 0 -120 -54 -120 -120zM278 114c66 0 120 54 120 120c0 15 -3 29 -8 42l-155 -155c14 -5 28 -7 43 -7zM247 497l-73 73l136 137l74 -74z" />
    <glyph glyph-name="oe" unicode="&#x153;" horiz-adv-x="854" 
d="M278 -14c-137 0 -248 111 -248 248s111 248 248 248c56 0 107 -19 148 -50c42 32 93 50 150 50c137 0 248 -111 248 -248c0 -18 -1 -31 -4 -49h-299c-4 -17 -9 -33 -15 -49c19 -14 44 -22 70 -22c33 0 63 13 84 35l91 -91c-45 -45 -107 -72 -175 -72
c-56 0 -109 18 -150 50c-42 -31 -93 -50 -148 -50zM158 234c0 -66 54 -120 120 -120s120 54 120 120s-54 120 -120 120s-120 -54 -120 -120zM506 331c6 -15 11 -32 15 -48h164c-19 42 -61 71 -109 71c-26 0 -51 -9 -70 -23z" />
    <glyph glyph-name="oe.alt1" horiz-adv-x="780" 
d="M278 -14c-137 0 -248 111 -248 248s111 248 248 248c56 0 107 -19 149 -50c41 30 91 50 146 50c63 0 126 -25 175 -73c13 -12 22 -22 32 -37l-250 -250c13 -5 28 -8 43 -8c31 0 61 11 85 35l90 -90c-49 -49 -112 -73 -175 -73c-53 0 -105 18 -147 49
c-41 -31 -93 -49 -148 -49zM158 234c0 -66 54 -120 120 -120s120 54 120 120s-54 120 -120 120s-120 -54 -120 -120zM505 333c11 -24 17 -50 20 -78l90 91c-13 5 -28 8 -42 8c-25 0 -48 -8 -68 -21z" />
    <glyph glyph-name="p" unicode="p" horiz-adv-x="551" 
d="M178 468v-30c27 28 64 44 117 44c115 0 226 -111 226 -248s-111 -248 -226 -248c-53 0 -90 16 -117 43v-214h-128v653h128zM273 354c-39 0 -73 -18 -95 -47v-146c22 -29 56 -47 95 -47c65 0 120 54 120 120s-55 120 -120 120z" />
    <glyph glyph-name="q" unicode="q" horiz-adv-x="551" 
d="M373 -185v214c-27 -27 -64 -43 -117 -43c-115 0 -226 111 -226 248s111 248 226 248c53 0 90 -16 117 -44v30h128v-653h-128zM373 161v146c-22 29 -56 47 -95 47c-65 0 -120 -54 -120 -120s55 -120 120 -120c39 0 73 18 95 47z" />
    <glyph glyph-name="r" unicode="r" horiz-adv-x="290" 
d="M280 482v-128h-3c-32 0 -78 -23 -99 -55v-299h-128v468h128v-37c22 28 61 51 102 51z" />
    <glyph glyph-name="racute" unicode="&#x155;" horiz-adv-x="290" 
d="M280 482v-128h-3c-32 0 -78 -23 -99 -55v-299h-128v468h128v-37c22 28 61 51 102 51zM134 497l-73 73l136 137l74 -74z" />
    <glyph glyph-name="rcaron" unicode="&#x159;" horiz-adv-x="290" 
d="M280 482v-128h-3c-32 0 -78 -23 -99 -55v-299h-128v468h128v-37c22 28 61 51 102 51zM228 702l73 -74l-136 -136l-136 136l73 74l63 -63z" />
    <glyph glyph-name="uni0157" unicode="&#x157;" horiz-adv-x="290" 
d="M280 482v-128h-3c-32 0 -78 -23 -99 -55v-299h-128v468h128v-37c22 28 61 51 102 51zM182 -137l-136 -109v196h136v-87z" />
    <glyph glyph-name="r.alt2" horiz-adv-x="351" 
d="M50 0v468h128v-468h-128zM190 401c0 45 35 81 80 81s81 -36 81 -81s-36 -80 -81 -80s-80 35 -80 80z" />
    <glyph glyph-name="racute.alt2" horiz-adv-x="351" 
d="M50 0v468h128v-468h-128zM190 401c0 45 35 81 80 81s81 -36 81 -81s-36 -80 -81 -80s-80 35 -80 80zM134 497l-73 73l136 137l74 -74z" />
    <glyph glyph-name="rcaron.alt2" horiz-adv-x="351" 
d="M50 0v468h128v-468h-128zM190 401c0 45 35 81 80 81s81 -36 81 -81s-36 -80 -81 -80s-80 35 -80 80zM228 702l73 -74l-136 -136l-136 136l73 74l63 -63z" />
    <glyph glyph-name="uni0157.alt2" horiz-adv-x="351" 
d="M50 0v468h128v-468h-128zM190 401c0 45 35 81 80 81s81 -36 81 -81s-36 -80 -81 -80s-80 35 -80 80zM183 -137l-136 -109v196h136v-87z" />
    <glyph glyph-name="s" unicode="s" horiz-adv-x="272" 
d="M242 145c0 -86 -81 -159 -184 -159c-6 0 -23 0 -28 2v129c10 -3 22 -3 28 -3c29 0 48 18 48 41c0 17 -11 34 -25 54c-20 30 -45 67 -45 126c0 79 72 148 179 148h3v-129h-3c-19 0 -40 -13 -40 -40c0 -16 10 -30 23 -47c19 -27 44 -61 44 -122z" />
    <glyph glyph-name="sacute" unicode="&#x15b;" horiz-adv-x="272" 
d="M242 145c0 -86 -81 -159 -184 -159c-6 0 -23 0 -28 2v129c10 -3 22 -3 28 -3c29 0 48 18 48 41c0 17 -11 34 -25 54c-20 30 -45 67 -45 126c0 79 72 148 179 148h3v-129h-3c-19 0 -40 -13 -40 -40c0 -16 10 -30 23 -47c19 -27 44 -61 44 -122zM105 497l-73 73l136 137
l74 -74z" />
    <glyph glyph-name="uni015F" unicode="&#x15f;" horiz-adv-x="272" 
d="M155 -201l-72 72c9 10 15 24 15 39s-6 29 -15 39l51 51c-23 -8 -49 -14 -76 -14c-6 0 -23 0 -28 2v129c10 -3 22 -3 28 -3c29 0 48 18 48 41c0 17 -11 34 -25 54c-20 30 -45 67 -45 126c0 79 72 148 179 148h3v-129h-3c-19 0 -40 -13 -40 -40c0 -17 10 -31 23 -48
c20 -26 44 -60 44 -121c0 -54 -32 -103 -80 -132c24 -27 39 -63 39 -103c0 -44 -18 -83 -46 -111z" />
    <glyph glyph-name="scircumflex" unicode="&#x15d;" horiz-adv-x="272" 
d="M242 145c0 -86 -81 -159 -184 -159c-6 0 -23 0 -28 2v129c10 -3 22 -3 28 -3c29 0 48 18 48 41c0 17 -11 34 -25 54c-20 30 -45 67 -45 126c0 79 72 148 179 148h3v-129h-3c-19 0 -40 -13 -40 -40c0 -16 10 -30 23 -47c19 -27 44 -61 44 -122zM73 493l-73 73l136 137
l136 -137l-73 -73l-63 63z" />
    <glyph glyph-name="uni0219" unicode="&#x219;" horiz-adv-x="272" 
d="M242 145c0 -86 -81 -159 -184 -159c-6 0 -23 0 -28 2v129c10 -3 22 -3 28 -3c29 0 48 18 48 41c0 17 -11 34 -25 54c-20 30 -45 67 -45 126c0 79 72 148 179 148h3v-129h-3c-19 0 -40 -13 -40 -40c0 -16 10 -30 23 -47c19 -27 44 -61 44 -122zM230 -137l-136 -109v196
h136v-87z" />
    <glyph glyph-name="scaron" unicode="&#x161;" horiz-adv-x="272" 
d="M242 145c0 -86 -81 -159 -184 -159c-6 0 -23 0 -28 2v129c10 -3 22 -3 28 -3c29 0 48 18 48 41c0 17 -11 34 -25 54c-20 30 -45 67 -45 126c0 79 72 148 179 148h3v-129h-3c-19 0 -40 -13 -40 -40c0 -16 10 -30 23 -47c19 -27 44 -61 44 -122zM199 702l73 -74l-136 -136
l-136 136l73 74l63 -63z" />
    <glyph glyph-name="s.alt1" horiz-adv-x="412" 
d="M373 483l50 -117c-99 0 -132 -83 -168 -171c-40 -99 -83 -204 -227 -204l-37 123c98 0 129 81 162 166c37 98 77 203 220 203z" />
    <glyph glyph-name="sacute.alt1" horiz-adv-x="412" 
d="M373 483l50 -117c-99 0 -132 -83 -168 -171c-40 -99 -83 -204 -227 -204l-37 123c98 0 129 81 162 166c37 98 77 203 220 203zM279 497l-73 73l136 137l74 -74z" />
    <glyph glyph-name="uni015F.alt1" horiz-adv-x="412" 
d="M112 -201l-72 72c9 10 15 24 15 39s-6 29 -15 39l50 50c-19 -5 -39 -8 -62 -8l-37 123c98 0 129 81 162 167c37 97 77 202 220 202l50 -117c-99 0 -132 -83 -168 -171c-30 -73 -61 -150 -134 -185c23 -26 37 -61 37 -100c0 -44 -18 -83 -46 -111z" />
    <glyph glyph-name="scircumflex.alt1" horiz-adv-x="412" 
d="M373 483l50 -117c-99 0 -132 -83 -168 -171c-40 -99 -83 -204 -227 -204l-37 123c98 0 129 81 162 166c37 98 77 203 220 203zM247 493l-73 73l136 137l136 -137l-73 -73l-63 63z" />
    <glyph glyph-name="uni0219.alt1" horiz-adv-x="412" 
d="M373 483l50 -117c-99 0 -132 -83 -168 -171c-40 -99 -83 -204 -227 -204l-37 123c98 0 129 81 162 166c37 98 77 203 220 203zM143 -137l-136 -109v196h136v-87z" />
    <glyph glyph-name="scaron.alt1" horiz-adv-x="412" 
d="M373 483l50 -117c-99 0 -132 -83 -168 -171c-40 -99 -83 -204 -227 -204l-37 123c98 0 129 81 162 166c37 98 77 203 220 203zM373 702l73 -74l-136 -136l-136 136l73 74l63 -63z" />
    <glyph glyph-name="s.alt2" horiz-adv-x="275" 
d="M88 468h141c-37 -30 -55 -83 -55 -128c0 -36 12 -61 25 -89c14 -31 30 -65 30 -121c0 -39 -15 -89 -42 -130h-141c36 29 55 84 55 130c0 35 -11 59 -24 85c-15 32 -31 66 -31 125c0 38 15 86 42 128z" />
    <glyph glyph-name="sacute.alt2" horiz-adv-x="275" 
d="M88 468h141c-37 -30 -55 -83 -55 -128c0 -36 12 -61 25 -89c14 -31 30 -65 30 -121c0 -39 -15 -89 -42 -130h-141c36 29 55 84 55 130c0 35 -11 59 -24 85c-15 32 -31 66 -31 125c0 38 15 86 42 128zM106 497l-73 73l136 137l74 -74z" />
    <glyph glyph-name="uni015F.alt2" horiz-adv-x="275" 
d="M153 -201l-72 72c9 10 15 24 15 39s-6 29 -15 39l51 51h-86c36 29 55 84 55 130c0 35 -11 59 -24 85c-15 32 -31 66 -31 125c0 38 15 86 42 128h141c-37 -30 -55 -83 -55 -128c0 -36 12 -61 24 -88c15 -32 31 -66 31 -122c0 -39 -15 -89 -42 -130h-16
c17 -25 28 -56 28 -90c0 -44 -18 -83 -46 -111z" />
    <glyph glyph-name="scircumflex.alt2" horiz-adv-x="275" 
d="M88 468h141c-37 -30 -55 -83 -55 -128c0 -36 12 -61 25 -89c14 -31 30 -65 30 -121c0 -39 -15 -89 -42 -130h-141c36 29 55 84 55 130c0 35 -11 59 -24 85c-15 32 -31 66 -31 125c0 38 15 86 42 128zM74 493l-73 73l136 137l136 -137l-73 -73l-63 63z" />
    <glyph glyph-name="uni0219.alt2" horiz-adv-x="275" 
d="M88 468h141c-37 -30 -55 -83 -55 -128c0 -36 12 -61 25 -89c14 -31 30 -65 30 -121c0 -39 -15 -89 -42 -130h-141c36 29 55 84 55 130c0 35 -11 59 -24 85c-15 32 -31 66 -31 125c0 38 15 86 42 128zM205 -137l-136 -109v196h136v-87z" />
    <glyph glyph-name="scaron.alt2" horiz-adv-x="275" 
d="M88 468h141c-37 -30 -55 -83 -55 -128c0 -36 12 -61 25 -89c14 -31 30 -65 30 -121c0 -39 -15 -89 -42 -130h-141c36 29 55 84 55 130c0 35 -11 59 -24 85c-15 32 -31 66 -31 125c0 38 15 86 42 128zM200 702l73 -74l-136 -136l-136 136l73 74l63 -63z" />
    <glyph glyph-name="s.alt3" horiz-adv-x="274" 
d="M174 338c0 -35 12 -60 24 -86c15 -32 31 -66 31 -122c0 -39 -18 -104 -52 -144l-117 50c13 11 41 48 41 94c0 35 -11 58 -24 84c-15 31 -31 65 -31 124c0 39 18 104 52 144l117 -50c-13 -11 -41 -48 -41 -94z" />
    <glyph glyph-name="sacute.alt3" horiz-adv-x="274" 
d="M174 338c0 -35 12 -60 24 -86c15 -32 31 -66 31 -122c0 -39 -18 -104 -52 -144l-117 50c13 11 41 48 41 94c0 35 -11 58 -24 84c-15 31 -31 65 -31 124c0 39 18 104 52 144l117 -50c-13 -11 -41 -48 -41 -94zM106 497l-73 73l136 137l74 -74z" />
    <glyph glyph-name="uni015F.alt3" horiz-adv-x="274" 
d="M153 -201l-72 72c9 10 15 24 15 39s-6 29 -15 39l54 54l-75 33c13 11 41 48 41 94c0 34 -11 58 -23 83c-15 32 -32 66 -32 125c0 39 18 104 52 144l117 -50c-13 -11 -41 -48 -41 -94c0 -36 12 -61 24 -87c15 -31 31 -65 31 -121c0 -39 -18 -102 -51 -142
c13 -22 21 -49 21 -78c0 -44 -18 -83 -46 -111z" />
    <glyph glyph-name="scircumflex.alt3" horiz-adv-x="274" 
d="M174 338c0 -35 12 -60 24 -86c15 -32 31 -66 31 -122c0 -39 -18 -104 -52 -144l-117 50c13 11 41 48 41 94c0 35 -11 58 -24 84c-15 31 -31 65 -31 124c0 39 18 104 52 144l117 -50c-13 -11 -41 -48 -41 -94zM74 493l-73 73l136 137l136 -137l-73 -73l-63 63z" />
    <glyph glyph-name="uni0219.alt3" horiz-adv-x="274" 
d="M174 338c0 -35 12 -60 24 -86c15 -32 31 -66 31 -122c0 -39 -18 -104 -52 -144l-117 50c13 11 41 48 41 94c0 35 -11 58 -24 84c-15 31 -31 65 -31 124c0 39 18 104 52 144l117 -50c-13 -11 -41 -48 -41 -94zM205 -137l-136 -109v196h136v-87z" />
    <glyph glyph-name="scaron.alt3" horiz-adv-x="274" 
d="M174 338c0 -35 12 -60 24 -86c15 -32 31 -66 31 -122c0 -39 -18 -104 -52 -144l-117 50c13 11 41 48 41 94c0 35 -11 58 -24 84c-15 31 -31 65 -31 124c0 39 18 104 52 144l117 -50c-13 -11 -41 -48 -41 -94zM200 702l73 -74l-136 -136l-136 136l73 74l63 -63z" />
    <glyph glyph-name="s.alt4" horiz-adv-x="368" 
d="M338 137c0 -80 -71 -151 -159 -151c-57 0 -125 23 -157 101l108 58c7 -15 24 -35 49 -35c19 0 32 16 32 32c0 26 -27 38 -59 53c-50 23 -113 51 -113 144c0 75 68 143 152 143c54 0 112 -27 141 -86l-106 -59c-7 17 -19 25 -35 25s-28 -14 -28 -27c0 -21 24 -31 54 -44
c52 -22 121 -51 121 -154z" />
    <glyph glyph-name="sacute.alt4" horiz-adv-x="368" 
d="M338 137c0 -80 -71 -151 -159 -151c-57 0 -125 23 -157 101l108 58c7 -15 24 -35 49 -35c19 0 32 16 32 32c0 26 -27 38 -59 53c-50 23 -113 51 -113 144c0 75 68 143 152 143c54 0 112 -27 141 -86l-106 -59c-7 17 -19 25 -35 25s-28 -14 -28 -27c0 -21 24 -31 54 -44
c52 -22 121 -51 121 -154zM159 497l-73 73l136 137l74 -74z" />
    <glyph glyph-name="uni015F.alt4" horiz-adv-x="368" 
d="M195 -201l-72 72c9 10 15 24 15 39s-6 29 -15 39l37 38c-52 4 -110 30 -138 100l108 58c7 -15 24 -35 49 -35c19 0 32 16 32 32c0 26 -27 38 -59 53c-50 23 -113 51 -113 144c0 75 68 143 152 143c54 0 112 -27 141 -86l-106 -59c-7 17 -19 25 -35 25s-28 -14 -28 -27
c0 -21 24 -31 54 -44c51 -21 121 -50 121 -154c0 -68 -51 -129 -119 -146c14 -23 22 -51 22 -81c0 -44 -18 -83 -46 -111z" />
    <glyph glyph-name="scircumflex.alt4" horiz-adv-x="368" 
d="M338 137c0 -80 -71 -151 -159 -151c-57 0 -125 23 -157 101l108 58c7 -15 24 -35 49 -35c19 0 32 16 32 32c0 26 -27 38 -59 53c-50 23 -113 51 -113 144c0 75 68 143 152 143c54 0 112 -27 141 -86l-106 -59c-7 17 -19 25 -35 25s-28 -14 -28 -27c0 -21 24 -31 54 -44
c52 -22 121 -51 121 -154zM129 493l-73 73l136 137l136 -137l-73 -73l-63 63z" />
    <glyph glyph-name="uni0219.alt4" horiz-adv-x="368" 
d="M338 137c0 -80 -71 -151 -159 -151c-57 0 -125 23 -157 101l108 58c7 -15 24 -35 49 -35c19 0 32 16 32 32c0 26 -27 38 -59 53c-50 23 -113 51 -113 144c0 75 68 143 152 143c54 0 112 -27 141 -86l-106 -59c-7 17 -19 25 -35 25s-28 -14 -28 -27c0 -21 24 -31 54 -44
c52 -22 121 -51 121 -154zM256 -137l-136 -109v196h136v-87z" />
    <glyph glyph-name="scaron.alt4" horiz-adv-x="368" 
d="M338 137c0 -80 -71 -151 -159 -151c-57 0 -125 23 -157 101l108 58c7 -15 24 -35 49 -35c19 0 32 16 32 32c0 26 -27 38 -59 53c-50 23 -113 51 -113 144c0 75 68 143 152 143c54 0 112 -27 141 -86l-106 -59c-7 17 -19 25 -35 25s-28 -14 -28 -27c0 -21 24 -31 54 -44
c52 -22 121 -51 121 -154zM252 702l73 -74l-136 -136l-136 136l73 74l63 -63z" />
    <glyph glyph-name="germandbls" unicode="&#xdf;" horiz-adv-x="511" 
d="M456 628l-84 -191c74 -54 106 -127 106 -203c0 -137 -112 -248 -243 -248h-5v128h5c60 0 115 54 115 120c0 65 -54 120 -116 120h-4l78 201c-2 1 -8 2 -13 2c-61 0 -117 -54 -117 -120v-437h-128v437c0 137 111 248 248 248c60 0 115 -22 158 -57z" />
    <glyph glyph-name="t" unicode="t" horiz-adv-x="274" 
d="M264 468v-128h-70v-340h-128v340h-56v128h56v124l128 60v-184h70z" />
    <glyph glyph-name="tbar" unicode="&#x167;" horiz-adv-x="274" 
d="M261 230v-103h-67v-127h-128v127h-55v103h55v110h-56v128h56v124l128 60v-184h70v-128h-70v-110h67z" />
    <glyph glyph-name="tcaron" unicode="&#x165;" horiz-adv-x="386" 
d="M264 468v-128h-70v-340h-128v340h-56v128h56v124l128 60v-184h70zM376 598l-136 -109v196h136v-87z" />
    <glyph glyph-name="tcommaaccent" unicode="&#x163;" horiz-adv-x="274" 
d="M189 -90c0 -44 -18 -83 -46 -111l-72 72c9 10 15 24 15 39s-6 29 -15 39l51 51h-56v340h-56v128h56v124l128 60v-184h70v-128h-70v-340h-33c17 -25 28 -56 28 -90z" />
    <glyph glyph-name="uni021B" unicode="&#x21b;" horiz-adv-x="274" 
d="M264 468v-128h-70v-340h-128v340h-56v128h56v124l128 60v-184h70zM198 -137l-136 -109v196h136v-87z" />
    <glyph glyph-name="u" unicode="u" 
d="M287 0v36c-23 -28 -61 -50 -102 -50c-77 0 -135 58 -135 159v323h128v-299c0 -34 19 -55 54 -55c23 0 46 15 55 35v319h128v-468h-128z" />
    <glyph glyph-name="uacute" unicode="&#xfa;" 
d="M287 0v36c-23 -28 -61 -50 -102 -50c-77 0 -135 58 -135 159v323h128v-299c0 -34 19 -55 54 -55c23 0 46 15 55 35v319h128v-468h-128zM201 497l-73 73l136 137l74 -74z" />
    <glyph glyph-name="ugrave" unicode="&#xf9;" 
d="M287 0v36c-23 -28 -61 -50 -102 -50c-77 0 -135 58 -135 159v323h128v-299c0 -34 19 -55 54 -55c23 0 46 15 55 35v319h128v-468h-128zM338 570l-74 -73l-136 136l73 74z" />
    <glyph glyph-name="ucircumflex" unicode="&#xfb;" 
d="M287 0v36c-23 -28 -61 -50 -102 -50c-77 0 -135 58 -135 159v323h128v-299c0 -34 19 -55 54 -55c23 0 46 15 55 35v319h128v-468h-128zM169 493l-73 73l136 137l136 -137l-73 -73l-63 63z" />
    <glyph glyph-name="udieresis" unicode="&#xfc;" 
d="M287 0v36c-23 -28 -61 -50 -102 -50c-77 0 -135 58 -135 159v323h128v-299c0 -34 19 -55 54 -55c23 0 46 15 55 35v319h128v-468h-128zM92 576c0 35 28 64 63 64s63 -29 63 -64c0 -34 -28 -63 -63 -63s-63 29 -63 63zM247 576c0 35 28 64 63 64s63 -29 63 -64
c0 -34 -28 -63 -63 -63s-63 29 -63 63z" />
    <glyph glyph-name="ubreve" unicode="&#x16d;" 
d="M287 0v36c-23 -28 -61 -50 -102 -50c-77 0 -135 58 -135 159v323h128v-299c0 -34 19 -55 54 -55c23 0 46 15 55 35v319h128v-468h-128zM233 615c36 0 72 14 100 42l73 -74c-48 -48 -111 -72 -174 -72s-125 24 -173 72l74 74c27 -28 64 -42 100 -42z" />
    <glyph glyph-name="uhungarumlaut" unicode="&#x171;" 
d="M287 0v36c-23 -28 -61 -50 -102 -50c-77 0 -135 58 -135 159v323h128v-299c0 -34 19 -55 54 -55c23 0 46 15 55 35v319h128v-468h-128zM386 644l-72 -147l-83 41l72 147zM233 644l-72 -147l-83 41l72 147z" />
    <glyph glyph-name="umacron" unicode="&#x16b;" 
d="M287 0v36c-23 -28 -61 -50 -102 -50c-77 0 -135 58 -135 159v323h128v-299c0 -34 19 -55 54 -55c23 0 46 15 55 35v319h128v-468h-128zM388 629v-103h-312v103h312z" />
    <glyph glyph-name="uogonek" unicode="&#x173;" 
d="M415 -175c-72 0 -129 58 -129 129c0 16 3 32 9 46h-8v36c-23 -28 -61 -50 -102 -50c-77 0 -135 58 -135 159v323h128v-299c0 -34 19 -55 54 -55c23 0 46 15 55 35v319h128v-468c-24 0 -45 -21 -45 -47c0 -27 21 -49 45 -49v-79z" />
    <glyph glyph-name="uring" unicode="&#x16f;" 
d="M287 0v36c-23 -28 -61 -50 -102 -50c-77 0 -135 58 -135 159v323h128v-299c0 -34 19 -55 54 -55c23 0 46 15 55 35v319h128v-468h-128zM332 596c0 -55 -44 -99 -99 -99s-99 44 -99 99s44 99 99 99s99 -44 99 -99zM277 596c0 24 -20 44 -44 44s-44 -20 -44 -44
s20 -44 44 -44s44 20 44 44z" />
    <glyph glyph-name="utilde" unicode="&#x169;" 
d="M287 0v36c-23 -28 -61 -50 -102 -50c-77 0 -135 58 -135 159v323h128v-299c0 -34 19 -55 54 -55c23 0 46 15 55 35v319h128v-468h-128zM392 611c0 -66 -45 -102 -101 -102c-32 0 -54 13 -72 23c-13 8 -24 14 -36 14c-19 0 -32 -14 -31 -32h-77c-2 8 -3 19 -3 30
c0 67 45 103 101 103c32 0 54 -13 72 -24c13 -7 24 -14 36 -14c19 0 32 14 31 33h76c3 -9 4 -20 4 -31z" />
    <glyph glyph-name="u.alt2" 
d="M178 468v-300c0 -30 24 -54 54 -54s55 24 55 54v300h128v-300c0 -101 -82 -182 -183 -182s-182 81 -182 182v300h128z" />
    <glyph glyph-name="uacute.alt2" 
d="M178 468v-300c0 -30 24 -54 54 -54s55 24 55 54v300h128v-300c0 -101 -82 -182 -183 -182s-182 81 -182 182v300h128zM201 497l-73 73l136 137l74 -74z" />
    <glyph glyph-name="ugrave.alt2" 
d="M178 468v-300c0 -30 24 -54 54 -54s55 24 55 54v300h128v-300c0 -101 -82 -182 -183 -182s-182 81 -182 182v300h128zM338 570l-74 -73l-136 136l73 74z" />
    <glyph glyph-name="ucircumflex.alt2" 
d="M178 468v-300c0 -30 24 -54 54 -54s55 24 55 54v300h128v-300c0 -101 -82 -182 -183 -182s-182 81 -182 182v300h128zM169 493l-73 73l136 137l136 -137l-73 -73l-63 63z" />
    <glyph glyph-name="udieresis.alt2" 
d="M178 468v-300c0 -30 24 -54 54 -54s55 24 55 54v300h128v-300c0 -101 -82 -182 -183 -182s-182 81 -182 182v300h128zM92 576c0 35 28 64 63 64s63 -29 63 -64c0 -34 -28 -63 -63 -63s-63 29 -63 63zM247 576c0 35 28 64 63 64s63 -29 63 -64c0 -34 -28 -63 -63 -63
s-63 29 -63 63z" />
    <glyph glyph-name="ubreve.alt2" 
d="M178 468v-300c0 -30 24 -54 54 -54s55 24 55 54v300h128v-300c0 -101 -82 -182 -183 -182s-182 81 -182 182v300h128zM233 615c36 0 72 14 100 42l73 -74c-48 -48 -111 -72 -174 -72s-125 24 -173 72l74 74c27 -28 64 -42 100 -42z" />
    <glyph glyph-name="uhungarumlaut.alt2" 
d="M178 468v-300c0 -30 24 -54 54 -54s55 24 55 54v300h128v-300c0 -101 -82 -182 -183 -182s-182 81 -182 182v300h128zM386 644l-72 -147l-83 41l72 147zM233 644l-72 -147l-83 41l72 147z" />
    <glyph glyph-name="umacron.alt2" 
d="M178 468v-300c0 -30 24 -54 54 -54s55 24 55 54v300h128v-300c0 -101 -82 -182 -183 -182s-182 81 -182 182v300h128zM388 629v-103h-312v103h312z" />
    <glyph glyph-name="uogonek.alt2" 
d="M298 -2c-18 -7 -31 -24 -31 -45c0 -27 21 -49 45 -49v-79c-72 0 -129 58 -129 129c0 13 2 25 6 37c-80 19 -139 91 -139 177v300h128v-300c0 -30 24 -54 54 -54s55 24 55 54v300h128v-300c0 -78 -49 -144 -117 -170z" />
    <glyph glyph-name="uring.alt2" 
d="M178 468v-300c0 -30 24 -54 54 -54s55 24 55 54v300h128v-300c0 -101 -82 -182 -183 -182s-182 81 -182 182v300h128zM331 596c0 -55 -44 -99 -99 -99s-99 44 -99 99s44 99 99 99s99 -44 99 -99zM276 596c0 24 -20 44 -44 44s-44 -20 -44 -44s20 -44 44 -44s44 20 44 44z
" />
    <glyph glyph-name="utilde.alt2" 
d="M178 468v-300c0 -30 24 -54 54 -54s55 24 55 54v300h128v-300c0 -101 -82 -182 -183 -182s-182 81 -182 182v300h128zM392 611c0 -66 -45 -102 -101 -102c-32 0 -54 13 -72 23c-13 8 -24 14 -36 14c-19 0 -32 -14 -31 -32h-77c-2 8 -3 19 -3 30c0 67 45 103 101 103
c32 0 54 -13 72 -24c13 -7 24 -14 36 -14c19 0 32 14 31 33h76c3 -9 4 -20 4 -31z" />
    <glyph glyph-name="v" unicode="v" horiz-adv-x="396" 
d="M406 468l-208 -489l-208 489h139l69 -168l69 168h139z" />
    <glyph glyph-name="w" unicode="w" horiz-adv-x="567" 
d="M284 474l78 -191l76 185h139l-208 -489l-86 201l-85 -201l-208 489h139l76 -185l77 191h2z" />
    <glyph glyph-name="wacute" unicode="&#x1e83;" horiz-adv-x="567" 
d="M284 474l78 -191l76 185h139l-208 -489l-86 201l-85 -201l-208 489h139l76 -185l77 191h2zM252 497l-73 73l136 137l74 -74z" />
    <glyph glyph-name="wcircumflex" unicode="&#x175;" horiz-adv-x="567" 
d="M284 474l78 -191l76 185h139l-208 -489l-86 201l-85 -201l-208 489h139l76 -185l77 191h2zM220 493l-73 73l136 137l136 -137l-73 -73l-63 63z" />
    <glyph glyph-name="wdieresis" unicode="&#x1e85;" horiz-adv-x="567" 
d="M284 474l78 -191l76 185h139l-208 -489l-86 201l-85 -201l-208 489h139l76 -185l77 191h2zM143 576c0 35 28 64 63 64s63 -29 63 -64c0 -34 -28 -63 -63 -63s-63 29 -63 63zM298 576c0 35 28 64 63 64s63 -29 63 -64c0 -34 -28 -63 -63 -63s-63 29 -63 63z" />
    <glyph glyph-name="wgrave" unicode="&#x1e81;" horiz-adv-x="567" 
d="M284 474l78 -191l76 185h139l-208 -489l-86 201l-85 -201l-208 489h139l76 -185l77 191h2zM389 570l-74 -73l-136 136l73 74z" />
    <glyph glyph-name="x" unicode="x" horiz-adv-x="449" 
d="M442 0h-148l-70 126l-70 -126h-147l142 239l-138 229h149l64 -115l64 115h149l-139 -229z" />
    <glyph glyph-name="y" unicode="y" horiz-adv-x="416" 
d="M140 117l-150 351h139l79 -187l79 187h139l-278 -653h-138z" />
    <glyph glyph-name="yacute" unicode="&#xfd;" horiz-adv-x="416" 
d="M140 117l-150 351h139l79 -187l79 187h139l-278 -653h-138zM177 497l-73 73l136 137l74 -74z" />
    <glyph glyph-name="ygrave" unicode="&#x1ef3;" horiz-adv-x="416" 
d="M140 117l-150 351h139l79 -187l79 187h139l-278 -653h-138zM314 570l-74 -73l-136 136l73 74z" />
    <glyph glyph-name="ycircumflex" unicode="&#x177;" horiz-adv-x="416" 
d="M140 117l-150 351h139l79 -187l79 187h139l-278 -653h-138zM145 493l-73 73l136 137l136 -137l-73 -73l-63 63z" />
    <glyph glyph-name="ydieresis" unicode="&#xff;" horiz-adv-x="416" 
d="M140 117l-150 351h139l79 -187l79 187h139l-278 -653h-138zM68 576c0 35 28 64 63 64s63 -29 63 -64c0 -34 -28 -63 -63 -63s-63 29 -63 63zM223 576c0 35 28 64 63 64s63 -29 63 -64c0 -34 -28 -63 -63 -63s-63 29 -63 63z" />
    <glyph glyph-name="z" unicode="z" horiz-adv-x="409" 
d="M377 0h-357l162 340h-154v128h357l-162 -340h154v-128z" />
    <glyph glyph-name="zacute" unicode="&#x17a;" horiz-adv-x="409" 
d="M377 0h-357l162 340h-154v128h357l-162 -340h154v-128zM171 497l-73 73l136 137l74 -74z" />
    <glyph glyph-name="zcaron" unicode="&#x17e;" horiz-adv-x="409" 
d="M377 0h-357l162 340h-154v128h357l-162 -340h154v-128zM265 702l73 -74l-136 -136l-136 136l73 74l63 -63z" />
    <glyph glyph-name="zdotaccent" unicode="&#x17c;" horiz-adv-x="409" 
d="M377 0h-357l162 340h-154v128h357l-162 -340h154v-128zM139 576c0 35 28 64 63 64s63 -29 63 -64c0 -34 -28 -63 -63 -63s-63 29 -63 63z" />
    <glyph glyph-name="z.alt1" horiz-adv-x="379" 
d="M92 -199v128c72 0 131 59 131 131s-59 131 -131 131l72 149h-154v128h357l-103 -215c46 -42 87 -107 87 -193c0 -143 -116 -259 -259 -259z" />
    <glyph glyph-name="zacute.alt1" horiz-adv-x="379" 
d="M92 -199v128c72 0 131 59 131 131s-59 131 -131 131l72 149h-154v128h357l-103 -215c46 -42 87 -107 87 -193c0 -143 -116 -259 -259 -259zM148 497l-73 73l136 137l74 -74z" />
    <glyph glyph-name="zcaron.alt1" horiz-adv-x="379" 
d="M92 -199v128c72 0 131 59 131 131s-59 131 -131 131l72 149h-154v128h357l-103 -215c46 -42 87 -107 87 -193c0 -143 -116 -259 -259 -259zM242 702l73 -74l-136 -136l-136 136l73 74l63 -63z" />
    <glyph glyph-name="zdotaccent.alt1" horiz-adv-x="379" 
d="M92 -199v128c72 0 131 59 131 131s-59 131 -131 131l72 149h-154v128h357l-103 -215c46 -42 87 -107 87 -193c0 -143 -116 -259 -259 -259zM116 576c0 35 28 64 63 64s63 -29 63 -64c0 -34 -28 -63 -63 -63s-63 29 -63 63z" />
    <glyph glyph-name="eth" unicode="&#xf0;" horiz-adv-x="556" 
d="M491 685v-96l-86 -24l100 -230c16 -37 21 -73 21 -101c0 -137 -111 -248 -248 -248s-248 111 -248 248s111 248 248 248c5 0 10 0 15 -1l-20 47l-122 -33v95l85 24l-30 71h147l15 -35zM278 114c66 0 120 54 120 120s-54 120 -120 120s-120 -54 -120 -120
s54 -120 120 -120z" />
    <glyph glyph-name="thorn" unicode="&#xfe;" horiz-adv-x="551" 
d="M178 685v-247c27 28 64 44 117 44c115 0 226 -111 226 -248s-111 -248 -226 -248c-53 0 -90 16 -117 43v-214h-128v870h128zM273 354c-39 0 -73 -18 -95 -47v-146c22 -29 56 -47 95 -47c65 0 120 54 120 120s-55 120 -120 120z" />
    <glyph glyph-name="ordfeminine" unicode="&#xaa;" horiz-adv-x="460" 
d="M410 685v-369h-110v23c-22 -22 -51 -34 -92 -34c-91 0 -178 87 -178 195s87 196 178 196c41 0 70 -13 92 -35v24h110zM225 415c39 0 61 19 75 44v83c-14 26 -36 44 -75 44c-46 0 -85 -39 -85 -86s39 -85 85 -85zM410 68h-360v135h360v-135z" />
    <glyph glyph-name="ordfeminine.alt1" horiz-adv-x="389" 
d="M339 554v-238h-110v17c-22 -19 -47 -28 -75 -28c-65 0 -124 55 -124 132c0 76 59 131 124 131c28 0 54 -9 75 -27v13c0 25 -21 40 -44 40c-7 0 -18 -1 -23 -4v98c14 6 29 6 38 6c82 0 139 -66 139 -140zM339 68h-289v135h289v-135zM187 390c14 0 35 7 42 23v47
c-7 17 -28 25 -42 25c-27 0 -47 -22 -47 -48c0 -27 20 -47 47 -47z" />
    <glyph glyph-name="ordmasculine" unicode="&#xba;" horiz-adv-x="460" 
d="M30 499c0 111 90 200 200 200c111 0 200 -89 200 -200c0 -110 -89 -200 -200 -200c-110 0 -200 90 -200 200zM412 203v-135h-364v135h364zM230 407c51 0 92 41 92 92s-41 92 -92 92s-92 -41 -92 -92s41 -92 92 -92z" />
    <glyph glyph-name="ampersand" unicode="&#x26;" horiz-adv-x="650" 
d="M309 549l126 -243l38 67h160l-123 -212l84 -161h-153l-20 38c-37 -31 -89 -52 -149 -52c-131 0 -237 106 -237 237c0 109 73 200 173 228l-121 234h389v-136h-167zM272 123c29 0 61 13 83 43l-81 157h-2c-55 0 -100 -45 -100 -100s45 -100 100 -100z" />
    <glyph glyph-name="period" unicode="." horiz-adv-x="256" 
d="M196 0h-136v138h136v-138z" />
    <glyph glyph-name="comma" unicode="," horiz-adv-x="256" 
d="M196 51l-136 -159v246h136v-87z" />
    <glyph glyph-name="colon" unicode=":" horiz-adv-x="256" 
d="M196 330h-136v138h136v-138zM196 0h-136v138h136v-138z" />
    <glyph glyph-name="colon.case" horiz-adv-x="256" 
d="M196 0h-136v138h136v-138zM196 547h-136v138h136v-138z" />
    <glyph glyph-name="semicolon" unicode=";" horiz-adv-x="256" 
d="M196 330h-136v138h136v-138zM196 51l-136 -159v246h136v-87z" />
    <glyph glyph-name="semicolon.case" horiz-adv-x="256" 
d="M196 547h-136v138h136v-138zM196 51l-136 -159v246h136v-87z" />
    <glyph glyph-name="exclam" unicode="!" horiz-adv-x="256" 
d="M196 547l-66 -319h-4l-66 319v138h136v-138zM196 0h-136v138h136v-138z" />
    <glyph glyph-name="exclamdown" unicode="&#xa1;" horiz-adv-x="256" 
d="M60 -47l66 318h4l66 -318v-138h-136v138zM60 468h136v-138h-136v138z" />
    <glyph glyph-name="exclamdown.case" horiz-adv-x="256" 
d="M60 685h136v-138h-136v138zM60 138l66 318h4l66 -318v-138h-136v138z" />
    <glyph glyph-name="question" unicode="?" horiz-adv-x="332" 
d="M60 235v136c53 0 96 43 96 96s-43 96 -96 96v136c128 0 232 -104 232 -232s-104 -232 -232 -232zM196 0h-136v138h136v-138z" />
    <glyph glyph-name="questiondown" unicode="&#xbf;" horiz-adv-x="332" 
d="M136 468h136v-138h-136v138zM272 128c-53 0 -96 -43 -96 -96c0 -54 43 -97 96 -97v-135c-128 0 -232 104 -232 232s104 232 232 232v-136z" />
    <glyph glyph-name="questiondown.case" horiz-adv-x="332" 
d="M272 314c-53 0 -96 -43 -96 -96c0 -54 43 -97 96 -97v-135c-128 0 -232 104 -232 232s104 232 232 232v-136zM136 685h136v-138h-136v138z" />
    <glyph glyph-name="ellipsis" unicode="&#x2026;" horiz-adv-x="767" 
d="M707 0h-136v138h136v-138zM451 0h-135v138h135v-138zM196 0h-136v138h136v-138z" />
    <glyph glyph-name="quotedbl" unicode="&#x22;" horiz-adv-x="451" 
d="M391 598l-135 -159v246h135v-87zM196 598l-136 -159v246h136v-87z" />
    <glyph glyph-name="quotesingle" unicode="'" horiz-adv-x="256" 
d="M196 598l-136 -159v246h136v-87z" />
    <glyph glyph-name="quotedblleft" unicode="&#x201c;" horiz-adv-x="451" 
d="M391 439l-135 159v87h135v-246zM196 439l-136 159v87h136v-246z" />
    <glyph glyph-name="quotedblright" unicode="&#x201d;" horiz-adv-x="451" 
d="M391 598l-135 -159v246h135v-87zM196 598l-136 -159v246h136v-87z" />
    <glyph glyph-name="quoteleft" unicode="&#x2018;" horiz-adv-x="256" 
d="M196 439l-136 159v87h136v-246z" />
    <glyph glyph-name="quoteright" unicode="&#x2019;" horiz-adv-x="256" 
d="M196 598l-136 -159v246h136v-87z" />
    <glyph glyph-name="quotesinglbase" unicode="&#x201a;" horiz-adv-x="256" 
d="M196 51l-136 -159v246h136v-87z" />
    <glyph glyph-name="quotedblbase" unicode="&#x201e;" horiz-adv-x="451" 
d="M391 51l-135 -159v246h135v-87zM196 51l-136 -159v246h136v-87z" />
    <glyph glyph-name="guillemotleft" unicode="&#xab;" horiz-adv-x="529" 
d="M509 26h-131l-128 209l128 209h131l-128 -209zM280 26h-131l-129 209l129 209h131l-129 -209z" />
    <glyph glyph-name="guillemotleft.case" horiz-adv-x="529" 
d="M509 133h-131l-128 209l128 209h131l-128 -209zM280 133h-131l-129 209l129 209h131l-129 -209z" />
    <glyph glyph-name="guillemotright" unicode="&#xbb;" horiz-adv-x="529" 
d="M151 26h-131l129 209l-129 209h131l129 -209zM381 26h-131l128 209l-128 209h131l128 -209z" />
    <glyph glyph-name="guillemotright.case" horiz-adv-x="529" 
d="M509 342l-128 -209h-131l128 209l-128 209h131zM280 342l-129 -209h-131l129 209l-129 209h131z" />
    <glyph glyph-name="guilsinglleft" unicode="&#x2039;" horiz-adv-x="300" 
d="M280 26h-131l-129 209l129 209h131l-129 -209z" />
    <glyph glyph-name="guilsinglleft.case" horiz-adv-x="300" 
d="M280 133h-131l-129 209l129 209h131l-129 -209z" />
    <glyph glyph-name="guilsinglright" unicode="&#x203a;" horiz-adv-x="300" 
d="M151 26h-131l129 209l-129 209h131l129 -209z" />
    <glyph glyph-name="guilsinglright.case" horiz-adv-x="300" 
d="M280 342l-129 -209h-131l129 209l-129 209h131z" />
    <glyph glyph-name="hyphen" unicode="-" horiz-adv-x="355" 
d="M335 168h-315v135h315v-135z" />
    <glyph glyph-name="hyphen.case" horiz-adv-x="355" 
d="M335 275h-315v135h315v-135z" />
    <glyph glyph-name="endash" unicode="&#x2013;" horiz-adv-x="513" 
d="M493 168h-473v135h473v-135z" />
    <glyph glyph-name="endash.case" horiz-adv-x="513" 
d="M493 275h-473v135h473v-135z" />
    <glyph glyph-name="emdash" unicode="&#x2014;" horiz-adv-x="670" 
d="M650 168h-630v135h630v-135z" />
    <glyph glyph-name="emdash.case" horiz-adv-x="670" 
d="M650 275h-630v135h630v-135z" />
    <glyph glyph-name="underscore" unicode="_" horiz-adv-x="553" 
d="M533 -103h-513v58h513v-58z" />
    <glyph glyph-name="periodcentered" unicode="&#xb7;" horiz-adv-x="256" 
d="M196 167h-136v138h136v-138z" />
    <glyph glyph-name="periodcentered.case" horiz-adv-x="256" 
d="M196 273h-136v138h136v-138z" />
    <glyph glyph-name="bullet" unicode="&#x2022;" horiz-adv-x="379" 
d="M344 235c0 -85 -69 -154 -154 -154c-86 0 -155 69 -155 154c0 86 69 155 155 155c85 0 154 -69 154 -155z" />
    <glyph glyph-name="bullet.case" horiz-adv-x="379" 
d="M344 342c0 -85 -69 -154 -154 -154c-86 0 -155 69 -155 154c0 86 69 155 155 155c85 0 154 -69 154 -155z" />
    <glyph glyph-name="parenleft" unicode="(" horiz-adv-x="339" 
d="M316 30l-74 -99c-126 94 -207 243 -207 411c0 169 81 318 207 411l74 -98c-96 -71 -158 -185 -158 -313s62 -241 158 -312z" />
    <glyph glyph-name="parenright" unicode=")" horiz-adv-x="339" 
d="M304 342c0 -168 -81 -317 -207 -411l-74 99c96 71 158 184 158 312s-62 242 -158 313l74 98c126 -93 207 -242 207 -411z" />
    <glyph glyph-name="bracketleft" unicode="[" horiz-adv-x="333" 
d="M313 -55h-233v795h233v-124h-109v-547h109v-124z" />
    <glyph glyph-name="bracketright" unicode="]" horiz-adv-x="333" 
d="M253 -55h-233v124h109v547h-109v124h233v-795z" />
    <glyph glyph-name="braceleft" unicode="{" horiz-adv-x="332" 
d="M267 -59c-94 0 -171 77 -171 171v121c0 26 -20 47 -46 47h-30v125h30c26 0 46 21 46 46v121c0 95 77 172 171 172h45v-125h-45c-25 0 -46 -21 -46 -47v-121c0 -52 -24 -88 -61 -109c37 -21 61 -56 61 -109v-121c0 -25 21 -46 46 -46h45v-125h-45z" />
    <glyph glyph-name="braceright" unicode="}" horiz-adv-x="332" 
d="M64 -59h-44v125h44c26 0 47 21 47 46v121c0 53 23 88 61 109c-38 21 -61 57 -61 109v121c0 26 -21 47 -47 47h-44v125h44c95 0 171 -77 171 -172v-121c0 -25 21 -46 47 -46h30v-125h-30c-26 0 -47 -21 -47 -47v-121c0 -94 -76 -171 -171 -171z" />
    <glyph glyph-name="slash" unicode="/" horiz-adv-x="467" 
d="M457 704l-334 -772l-113 48l333 773z" />
    <glyph glyph-name="backslash" unicode="\" horiz-adv-x="467" 
d="M343 -68l-333 772l113 49l334 -773z" />
    <glyph glyph-name="bar" unicode="|" horiz-adv-x="284" 
d="M204 -55h-124v795h124v-795z" />
    <glyph glyph-name="brokenbar" unicode="&#xa6;" horiz-adv-x="284" 
d="M204 445h-124v295h124v-295zM204 -55h-124v295h124v-295z" />
    <glyph glyph-name="less" unicode="&#x3c;" horiz-adv-x="440" 
d="M302 619l87 -87l-189 -190l189 -189l-87 -87l-277 276z" />
    <glyph glyph-name="equal" unicode="=" horiz-adv-x="553" 
d="M533 404h-513v124h513v-124zM533 157h-513v123h513v-123z" />
    <glyph glyph-name="greater" unicode="&#x3e;" horiz-adv-x="440" 
d="M51 532l87 87l277 -277l-277 -276l-87 87l189 189z" />
    <glyph glyph-name="at" unicode="@" horiz-adv-x="778" 
d="M743 347c0 -165 -114 -248 -224 -248h-56v23c-22 -22 -51 -34 -92 -34c-91 0 -178 87 -178 195s87 196 178 196c41 0 70 -13 92 -35v24h110v-297c59 22 103 82 103 176c0 142 -116 225 -275 225s-298 -129 -298 -289c0 -159 129 -288 289 -288v-68
c-197 0 -357 159 -357 356s169 357 366 357s342 -113 342 -293zM303 283c0 -47 39 -85 85 -85c39 0 59 19 75 44v83c-16 26 -36 44 -75 44c-46 0 -85 -39 -85 -86z" />
    <glyph glyph-name="at.case" horiz-adv-x="778" 
d="M743 406c0 -165 -114 -248 -224 -248h-56v23c-22 -22 -51 -34 -92 -34c-91 0 -178 87 -178 195s87 196 178 196c41 0 70 -13 92 -35v24h110v-297c59 22 103 82 103 176c0 142 -116 225 -275 225s-298 -129 -298 -289c0 -159 129 -288 289 -288v-68
c-197 0 -357 159 -357 356s169 357 366 357s342 -113 342 -293zM303 342c0 -47 39 -85 85 -85c39 0 59 19 75 44v83c-16 26 -36 44 -75 44c-46 0 -85 -39 -85 -86z" />
    <glyph glyph-name="numbersign" unicode="#" horiz-adv-x="617" 
d="M196 0h-136l35 142h-75v136h109l32 129h-76v135h109l35 143h136l-35 -143h56l35 143h136l-35 -143h75v-135h-109l-32 -129h76v-136h-109l-35 -142h-136l35 142h-56zM296 407l-31 -129h55l32 129h-56z" />
    <glyph glyph-name="dollar" unicode="$" horiz-adv-x="338" 
d="M118 0l9 72c-20 -3 -40 -5 -61 -5c-8 0 -19 1 -26 3v120c7 -3 17 -4 26 -4c52 0 96 32 96 73c0 30 -20 50 -42 72c-28 27 -59 58 -59 116c0 61 28 106 70 135l-13 103h116l-9 -67c17 3 34 4 52 4h5v-119h-5c-42 0 -81 -22 -81 -64c0 -22 17 -38 36 -56
c30 -27 66 -61 66 -133c0 -64 -31 -111 -77 -142l13 -108h-116z" />
    <glyph glyph-name="cent" unicode="&#xa2;" horiz-adv-x="515" 
d="M245 0l11 76c-128 24 -221 136 -221 266s93 243 221 267l-11 76h117l-10 -75c55 -9 107 -36 146 -76l-93 -93c-26 26 -62 41 -99 41c-77 0 -139 -63 -139 -140s62 -139 139 -139c37 0 73 14 99 41l93 -94c-39 -39 -90 -66 -145 -75l9 -75h-117z" />
    <glyph glyph-name="sterling" unicode="&#xa3;" horiz-adv-x="434" 
d="M384 275h-83c3 -15 5 -29 5 -45c0 -33 -11 -66 -34 -94h112v-136h-334v136h49c53 0 97 35 97 87c0 19 -4 36 -9 52h-137v135h81c-5 18 -8 39 -8 62c0 123 79 222 217 222h5v-135h-5c-41 0 -81 -33 -81 -87c0 -23 2 -43 6 -62h119v-135z" />
    <glyph glyph-name="yen" unicode="&#xa5;" horiz-adv-x="602" 
d="M60 279v98h125l-186 308h160l142 -236l141 236h160l-186 -308h126v-98h-174v-50h174v-98h-174v-131h-135v131h-173v98h173v50h-173z" />
    <glyph glyph-name="uni0192" unicode="&#x192;" horiz-adv-x="459" 
d="M50 275v135h122v53c0 127 88 231 231 231h6v-135h-6c-55 0 -95 -39 -95 -96v-53h101v-135h-101v-52c0 -131 -85 -232 -232 -232c-8 0 -19 1 -26 3v137c7 -3 17 -5 26 -5c52 0 96 45 96 97v52h-122z" />
    <glyph glyph-name="Euro" unicode="&#x20ac;" horiz-adv-x="737" 
d="M35 368v98h105c50 136 181 233 335 233c98 0 187 -40 252 -104l-96 -96c-40 40 -95 65 -156 65c-77 0 -145 -39 -185 -98h216v-98h-252c-1 -9 -1 -17 -1 -26s0 -17 1 -25h252v-98h-216c40 -59 108 -98 185 -98c61 0 116 25 156 65l96 -96c-65 -64 -154 -104 -252 -104
c-154 0 -285 97 -335 233h-105v98h84c-1 9 -1 16 -1 25c0 8 0 17 1 26h-84z" />
    <glyph glyph-name="currency" unicode="&#xa4;" horiz-adv-x="556" 
d="M525 164l-69 -70l-41 41c-39 -26 -86 -41 -137 -41s-98 15 -137 41l-41 -41l-69 70l40 40c-26 40 -41 87 -41 138c0 50 16 97 42 136l-42 42l69 70l42 -42c39 27 86 42 137 42s98 -15 137 -42l42 42l69 -70l-42 -42c26 -39 42 -86 42 -136c0 -51 -15 -98 -41 -138z
M158 342c0 -66 54 -120 120 -120s120 54 120 120s-54 120 -120 120s-120 -54 -120 -120z" />
    <glyph glyph-name="percent" unicode="%" horiz-adv-x="714" 
d="M332 550c0 -82 -67 -149 -149 -149s-149 67 -149 149s67 149 149 149s149 -67 149 -149zM573 685l-295 -685h-135l295 685h135zM680 135c0 -83 -67 -149 -149 -149c-83 0 -149 66 -149 149c0 82 66 149 149 149c82 0 149 -67 149 -149zM575 135c0 24 -20 44 -44 44
c-25 0 -44 -20 -44 -44c0 -25 19 -44 44 -44c24 0 44 19 44 44zM227 550c0 25 -20 44 -44 44s-44 -19 -44 -44c0 -24 20 -44 44 -44s44 20 44 44z" />
    <glyph glyph-name="perthousand" unicode="&#x2030;" horiz-adv-x="1032" 
d="M332 550c0 -82 -67 -149 -149 -149s-149 67 -149 149s67 149 149 149s149 -67 149 -149zM573 685l-295 -685h-135l295 685h135zM227 550c0 25 -20 44 -44 44s-44 -19 -44 -44c0 -24 20 -44 44 -44s44 20 44 44zM680 135c0 -83 -67 -149 -149 -149c-83 0 -149 66 -149 149
c0 82 66 149 149 149c82 0 149 -67 149 -149zM575 135c0 24 -20 44 -44 44c-25 0 -44 -20 -44 -44c0 -25 19 -44 44 -44c24 0 44 19 44 44zM998 135c0 -83 -67 -149 -149 -149s-149 66 -149 149c0 82 67 149 149 149s149 -67 149 -149zM893 135c0 24 -20 44 -44 44
s-44 -20 -44 -44c0 -25 20 -44 44 -44s44 19 44 44z" />
    <glyph glyph-name="degree" unicode="&#xb0;" horiz-adv-x="278" 
d="M258 580c0 -66 -54 -119 -119 -119c-66 0 -119 53 -119 119s53 119 119 119c65 0 119 -53 119 -119zM192 580c0 29 -24 53 -53 53s-53 -24 -53 -53s24 -53 53 -53s53 24 53 53z" />
    <glyph glyph-name="asterisk" unicode="*" horiz-adv-x="413" 
d="M92 369l-68 117l104 27l-104 27l68 118l75 -77l-29 104h136l-29 -105l76 78l68 -118l-105 -27l104 -27l-68 -117l-75 77l29 -104h-136l29 103z" />
    <glyph glyph-name="dagger" unicode="&#x2020;" horiz-adv-x="361" 
d="M341 469h-99v-239h-124v239h-98v124h98v92h124v-92h99v-124z" />
    <glyph glyph-name="daggerdbl" unicode="&#x2021;" horiz-adv-x="361" 
d="M20 353h99v116h-99v124h99v92h123v-92h99v-124h-99v-116h99v-123h-99v-92h-123v92h-99v123z" />
    <glyph glyph-name="section" unicode="&#xa7;" horiz-adv-x="401" 
d="M40 360c0 62 28 117 86 151c-15 28 -22 59 -22 89c0 49 17 95 53 135h149c-39 -27 -71 -73 -71 -128c0 -57 28 -90 58 -124c33 -38 68 -78 68 -158c0 -62 -28 -118 -86 -152c15 -29 22 -59 22 -89c0 -47 -16 -93 -54 -136h-149c39 27 72 74 72 129c0 56 -28 89 -57 124
c-34 39 -69 80 -69 159zM140 360c0 -37 21 -58 43 -80c10 -10 19 -19 27 -30c31 12 52 38 52 73c0 37 -20 57 -41 78c-10 10 -20 20 -29 33c-32 -12 -52 -38 -52 -74z" />
    <glyph glyph-name="paragraph" unicode="&#xb6;" horiz-adv-x="411" 
d="M331 -55h-31v709h-85v-709h-31v442c-82 0 -149 66 -149 149c0 82 67 149 149 149h147v-740z" />
    <glyph glyph-name="registered" unicode="&#xae;" horiz-adv-x="437" 
d="M402 518c0 -102 -82 -184 -184 -184c-101 0 -183 82 -183 184c0 101 82 183 183 183c102 0 184 -82 184 -183zM287 547c0 -29 -17 -55 -42 -68l56 -63h-56l-47 54v-54h-41v209h53c42 0 77 -35 77 -78zM246 547c0 20 -17 36 -36 36h-12v-72h12c19 0 36 17 36 36zM78 518
c0 -78 63 -140 140 -140c78 0 141 62 141 140c0 77 -63 140 -141 140c-77 0 -140 -63 -140 -140z" />
    <glyph glyph-name="copyright" unicode="&#xa9;" horiz-adv-x="783" 
d="M748 342c0 -197 -159 -356 -356 -356s-357 159 -357 356s160 357 357 357s356 -160 356 -357zM95 342c0 -163 133 -296 297 -296c163 0 296 133 296 296c0 164 -133 297 -296 297c-164 0 -297 -133 -297 -297zM459 274l94 -93c-41 -41 -98 -67 -161 -67
c-126 0 -228 102 -228 228s102 228 228 228c63 0 120 -25 161 -66l-94 -94c-17 18 -41 28 -67 28c-53 0 -96 -43 -96 -96s43 -96 96 -96c26 0 50 11 67 28z" />
    <glyph glyph-name="uni2117" unicode="&#x2117;" horiz-adv-x="783" 
d="M555 410c0 -84 -69 -152 -153 -152h-16v-136h-112v441h128c84 0 153 -69 153 -153zM446 410c0 24 -20 44 -44 44h-16v-87h16c24 0 44 19 44 43zM748 342c0 -197 -159 -356 -356 -356s-357 159 -357 356s160 357 357 357s356 -160 356 -357zM95 342
c0 -163 133 -296 297 -296c163 0 296 133 296 296c0 164 -133 297 -296 297c-164 0 -297 -133 -297 -297z" />
    <glyph glyph-name="trademark" unicode="&#x2122;" horiz-adv-x="592" 
d="M532 342h-68v160l-58 -68l-58 68v-160h-68v352l126 -148l126 148v-352zM217 617h-57v-275h-68v275h-57v68h182v-68z" />
    <glyph glyph-name="plus" unicode="+" horiz-adv-x="553" 
d="M533 281h-194v-195h-124v195h-195v123h195v195h124v-195h194v-123z" />
    <glyph glyph-name="minus" unicode="&#x2212;" horiz-adv-x="553" 
d="M533 275h-513v135h513v-135z" />
    <glyph glyph-name="multiply" unicode="&#xd7;" horiz-adv-x="553" 
d="M415 568l87 -88l-138 -138l138 -137l-87 -88l-138 138l-138 -138l-88 88l138 137l-138 138l88 88l138 -138z" />
    <glyph glyph-name="divide" unicode="&#xf7;" horiz-adv-x="553" 
d="M533 275h-513v135h513v-135zM344 467h-136v138h136v-138zM344 80h-136v138h136v-138z" />
    <glyph glyph-name="fraction" unicode="&#x2044;" horiz-adv-x="467" 
d="M457 704l-334 -772l-113 48l333 773z" />
    <glyph glyph-name="asciicircum" unicode="^" horiz-adv-x="306" 
d="M90 489l-73 73l136 137l136 -137l-73 -73l-63 63z" />
    <glyph glyph-name="asciitilde" unicode="~" horiz-adv-x="354" 
d="M337 376c0 -66 -45 -102 -101 -102c-32 0 -54 13 -72 23c-13 8 -24 14 -36 14c-19 0 -32 -14 -31 -32h-77c-2 8 -3 19 -3 30c0 67 45 103 101 103c32 0 54 -13 72 -24c13 -7 24 -14 36 -14c19 0 32 14 31 33h76c3 -9 4 -20 4 -31z" />
    <glyph glyph-name="lozenge" unicode="&#x25ca;" horiz-adv-x="381" 
d="M361 235l-170 -170l-171 170l171 171z" />
    <glyph glyph-name="lozenge.case" horiz-adv-x="381" 
d="M361 342l-170 -170l-171 170l171 171z" />
    <glyph glyph-name="acute" unicode="&#xb4;" horiz-adv-x="244" 
d="M90 497l-73 73l136 137l74 -74z" />
    <glyph glyph-name="acute.caps" horiz-adv-x="244" 
d="M90 709l-73 73l136 137l74 -74z" />
    <glyph glyph-name="grave" unicode="`" horiz-adv-x="244" 
d="M227 570l-74 -73l-136 136l73 74z" />
    <glyph glyph-name="grave.caps" horiz-adv-x="244" 
d="M227 782l-74 -73l-136 136l73 74z" />
    <glyph glyph-name="circumflex" unicode="&#x2c6;" horiz-adv-x="296" 
d="M85 493l-73 73l136 137l136 -137l-73 -73l-63 63z" />
    <glyph glyph-name="circumflex.caps" horiz-adv-x="296" 
d="M85 709l-73 73l136 137l136 -137l-73 -73l-63 63z" />
    <glyph glyph-name="dieresis" unicode="&#xa8;" horiz-adv-x="315" 
d="M17 576c0 35 28 64 63 64s63 -29 63 -64c0 -34 -28 -63 -63 -63s-63 29 -63 63zM172 576c0 35 28 64 63 64s63 -29 63 -64c0 -34 -28 -63 -63 -63s-63 29 -63 63z" />
    <glyph glyph-name="dieresis.caps" horiz-adv-x="315" 
d="M17 792c0 35 28 64 63 64s63 -29 63 -64c0 -34 -28 -63 -63 -63s-63 29 -63 63zM172 792c0 35 28 64 63 64s63 -29 63 -64c0 -34 -28 -63 -63 -63s-63 29 -63 63z" />
    <glyph glyph-name="tilde" unicode="&#x2dc;" horiz-adv-x="354" 
d="M337 611c0 -66 -45 -102 -101 -102c-32 0 -54 13 -72 23c-13 8 -24 14 -36 14c-19 0 -32 -14 -31 -32h-77c-2 8 -3 19 -3 30c0 67 45 103 101 103c32 0 54 -13 72 -24c13 -7 24 -14 36 -14c19 0 32 14 31 33h76c3 -9 4 -20 4 -31z" />
    <glyph glyph-name="tilde.caps" horiz-adv-x="354" 
d="M337 825c0 -66 -45 -102 -101 -102c-32 0 -54 13 -72 23c-13 8 -24 14 -36 14c-19 0 -32 -14 -31 -32h-77c-2 8 -3 19 -3 30c0 67 45 103 101 103c32 0 54 -13 72 -24c13 -7 24 -14 36 -14c19 0 32 14 31 33h76c3 -9 4 -20 4 -31z" />
    <glyph glyph-name="ring" unicode="&#x2da;" horiz-adv-x="232" 
d="M215 596c0 -55 -44 -99 -99 -99s-99 44 -99 99s44 99 99 99s99 -44 99 -99zM160 596c0 24 -20 44 -44 44s-44 -20 -44 -44s20 -44 44 -44s44 20 44 44z" />
    <glyph glyph-name="ring.caps" horiz-adv-x="232" 
d="M215 808c0 -55 -44 -99 -99 -99s-99 44 -99 99s44 99 99 99s99 -44 99 -99zM160 808c0 24 -20 44 -44 44s-44 -20 -44 -44s20 -44 44 -44s44 20 44 44z" />
    <glyph glyph-name="breve" unicode="&#x2d8;" horiz-adv-x="381" 
d="M191 615c36 0 72 14 100 42l73 -74c-48 -48 -111 -72 -174 -72s-125 24 -173 72l74 74c27 -28 64 -42 100 -42z" />
    <glyph glyph-name="breve.caps" horiz-adv-x="381" 
d="M191 824c36 0 72 14 100 42l73 -74c-48 -48 -111 -72 -174 -72s-125 24 -173 72l74 74c27 -28 64 -42 100 -42z" />
    <glyph glyph-name="macron" unicode="&#xaf;" horiz-adv-x="370" 
d="M341 629v-103h-312v103h312z" />
    <glyph glyph-name="macron.caps" horiz-adv-x="370" 
d="M341 845v-103h-312v103h312z" />
    <glyph glyph-name="dotaccent" unicode="&#x2d9;" horiz-adv-x="160" 
d="M17 576c0 35 28 64 63 64s63 -29 63 -64c0 -34 -28 -63 -63 -63s-63 29 -63 63z" />
    <glyph glyph-name="dotaccent.caps" horiz-adv-x="160" 
d="M17 792c0 35 28 64 63 64s63 -29 63 -64c0 -34 -28 -63 -63 -63s-63 29 -63 63z" />
    <glyph glyph-name="hungarumlaut" unicode="&#x2dd;" horiz-adv-x="342" 
d="M325 644l-72 -147l-83 41l72 147zM172 644l-72 -147l-83 41l72 147z" />
    <glyph glyph-name="hungarumlaut.caps" horiz-adv-x="342" 
d="M325 855l-72 -147l-83 41l72 147zM172 855l-72 -147l-83 41l72 147z" />
    <glyph glyph-name="caron" unicode="&#x2c7;" horiz-adv-x="306" 
d="M216 702l73 -74l-136 -136l-136 136l73 74l63 -63z" />
    <glyph glyph-name="caron.caps" horiz-adv-x="306" 
d="M216 919l73 -74l-136 -136l-136 136l73 74l63 -63z" />
    <glyph glyph-name="cedilla" unicode="&#xb8;" horiz-adv-x="170" 
d="M101 -201l-72 72c9 10 15 24 15 39s-6 29 -15 39l72 72c28 -28 46 -67 46 -111s-18 -83 -46 -111z" />
    <glyph glyph-name="ogonek" unicode="&#x2db;" horiz-adv-x="169" 
d="M151 0c-24 0 -45 -21 -45 -47c0 -27 21 -49 45 -49v-79c-72 0 -129 58 -129 129c0 70 57 128 129 128v-82z" />
    <glyph glyph-name="uni0326" unicode="&#x326;" horiz-adv-x="256" 
d="M196 -137l-136 -109v196h136v-87z" />
    <glyph glyph-name="uni0326.salt" horiz-adv-x="256" 
d="M60 617l136 109v-196h-136v87z" />
    <glyph glyph-name="uniF8FF" unicode="&#xf8ff;" horiz-adv-x="808" 
d="M803 450l-246 -179l94 -290l-247 179l-247 -179l95 290l-247 179h305l94 290l94 -290h305zM541 365h-105l-32 100l-32 -100h-105l85 -61l-33 -100l85 62l85 -62l-33 100z" />
    <glyph glyph-name="uni00AD" unicode="&#xad;" horiz-adv-x="355" 
d="M335 168h-315v135h315v-135z" />
    </font>
</defs>
</svg>
