<?xml version="1.0" standalone="no"?>
<!DOCTYPE svg PUBLIC "-//W3C//DTD SVG 1.1//EN" "http://www.w3.org/Graphics/SVG/1.1/DTD/svg11.dtd" >
<svg xmlns="http://www.w3.org/2000/svg" xmlns:xlink="http://www.w3.org/1999/xlink" version="1.1">
<metadata>
Created by FontForge 20150824 at Fri Jul 22 05:12:52 2016
 By Everything Fonts
Copyright (c) 2009 by Mark Simonson. www.ms-studio.com. All rights reserved.
</metadata>
<defs>
<font id="MostraNuova-Light" horiz-adv-x="431" >
  <font-face 
    font-family="Mostra Nuova"
    font-weight="300"
    font-stretch="normal"
    units-per-em="1000"
    panose-1="2 11 3 2 2 2 2 6 3 2"
    ascent="800"
    descent="-200"
    x-height="423"
    cap-height="685"
    bbox="-76 -212 1054 909"
    underline-thickness="20"
    underline-position="-133"
    stemh="34"
    stemv="34"
    unicode-range="U+000D-FB02"
  />
<missing-glyph horiz-adv-x="569" 
d="M449 0h-329v685h329v-685zM147 27h275v631h-275v-631zM219 281v28c62 0 114 52 114 114c0 63 -52 115 -114 115v27c78 0 142 -63 142 -142c0 -78 -64 -142 -142 -142zM250 138h-31v63h31v-63z" />
    <glyph glyph-name="fi" unicode="fi" horiz-adv-x="442" 
d="M223 423v-34h-82v-389h-34v389h-72v34h72v158c0 68 48 105 104 105c3 0 7 0 12 -1v-36c-6 1 -9 1 -12 1c-39 0 -70 -26 -70 -69v-158h82zM362 0h-34v423h34v-423zM362 517h-34v86h34v-86z" />
    <glyph glyph-name="fl" unicode="fl" horiz-adv-x="442" 
d="M223 423v-34h-82v-389h-34v389h-72v34h72v158c0 68 48 105 104 105c3 0 7 0 12 -1v-36c-6 1 -9 1 -12 1c-39 0 -70 -26 -70 -69v-158h82zM362 0h-34v685h34v-685z" />
    <glyph glyph-name=".notdef" horiz-adv-x="569" 
d="M449 0h-329v685h329v-685zM147 27h275v631h-275v-631zM219 281v28c62 0 114 52 114 114c0 63 -52 115 -114 115v27c78 0 142 -63 142 -142c0 -78 -64 -142 -142 -142zM250 138h-31v63h31v-63z" />
    <glyph glyph-name="NULL" horiz-adv-x="0" 
 />
    <glyph glyph-name="NULL" horiz-adv-x="0" 
 />
    <glyph glyph-name="CR" unicode="&#xd;" horiz-adv-x="274" 
 />
    <glyph glyph-name="space" unicode=" " horiz-adv-x="274" 
 />
    <glyph glyph-name="uni00A0" unicode="&#xa0;" horiz-adv-x="274" 
 />
    <glyph glyph-name="zero" unicode="0" horiz-adv-x="833" 
d="M773 342c0 -197 -159 -356 -356 -356s-357 159 -357 356s160 357 357 357s356 -160 356 -357zM740 342c0 179 -145 324 -323 324c-179 0 -324 -145 -324 -324c0 -178 145 -323 324 -323c178 0 323 145 323 323z" />
    <glyph glyph-name="one" unicode="1" horiz-adv-x="274" 
d="M154 0h-34v667l34 36v-703z" />
    <glyph glyph-name="two" unicode="2" horiz-adv-x="388" 
d="M343 0h-288l186 342c18 32 24 68 24 99c0 121 -100 219 -215 219h-5v34h5c134 0 249 -113 249 -253c0 -36 -7 -76 -27 -112l-158 -295h229v-34z" />
    <glyph glyph-name="three" unicode="3" horiz-adv-x="395" 
d="M335 238c0 -141 -115 -254 -248 -254h-5v33h5c115 0 215 99 215 220c0 109 -73 183 -145 204l93 210h-215v34h267l-99 -225c79 -43 132 -126 132 -222z" />
    <glyph glyph-name="four" unicode="4" horiz-adv-x="529" 
d="M514 166h-142v-166h-34v166h-323l357 563v-529h142v-34zM338 200v416l-262 -416h262z" />
    <glyph glyph-name="five" unicode="5" horiz-adv-x="391" 
d="M336 238c0 -141 -115 -254 -249 -254h-5v33h5c116 0 216 98 216 221c0 122 -100 220 -216 220h-5v227h250v-34h-216v-162c126 -17 220 -125 220 -251z" />
    <glyph glyph-name="six" unicode="6" horiz-adv-x="500" 
d="M299 685l-148 -343c29 18 64 29 101 29c107 0 193 -87 193 -193s-86 -192 -193 -192c-106 0 -192 86 -192 192c0 29 6 55 17 80l185 427h37zM410 178c0 87 -71 158 -158 158s-157 -71 -157 -158s70 -157 157 -157s158 70 158 157z" />
    <glyph glyph-name="seven" unicode="7" horiz-adv-x="378" 
d="M363 685l-295 -685h-37l280 651h-281v34h333z" />
    <glyph glyph-name="eight" unicode="8" horiz-adv-x="547" 
d="M472 180c0 -110 -89 -194 -198 -194c-110 0 -199 84 -199 194c0 81 49 143 118 169c-66 26 -112 85 -112 162c0 107 86 188 193 188c106 0 192 -81 192 -188c0 -77 -46 -136 -112 -162c70 -26 118 -88 118 -169zM432 511c0 88 -71 154 -158 154c-88 0 -159 -66 -159 -154
c0 -87 71 -147 159 -147c87 0 158 60 158 147zM438 180c0 90 -74 155 -164 155c-91 0 -165 -65 -165 -155c0 -91 74 -160 165 -160c90 0 164 69 164 160z" />
    <glyph glyph-name="nine" unicode="9" horiz-adv-x="500" 
d="M238 0h-37l148 342c-30 -18 -64 -28 -101 -28c-107 0 -193 87 -193 193s86 192 193 192c106 0 192 -86 192 -192c0 -29 -6 -55 -17 -80zM90 507c0 -87 71 -158 158 -158s157 71 157 158s-70 157 -157 157s-158 -70 -158 -157z" />
    <glyph glyph-name="A" unicode="A" horiz-adv-x="572" 
d="M518 0l-48 127h-368l-48 -127h-39l271 706l271 -706h-39zM286 614l-174 -459h348z" />
    <glyph glyph-name="Aacute" unicode="&#xc1;" horiz-adv-x="572" 
d="M518 0l-48 127h-368l-48 -127h-39l271 706l271 -706h-39zM286 614l-174 -459h348zM229 713l-22 21l136 137l22 -22z" />
    <glyph glyph-name="Agrave" unicode="&#xc0;" horiz-adv-x="572" 
d="M518 0l-48 127h-368l-48 -127h-39l271 706l271 -706h-39zM286 614l-174 -459h348zM365 734l-22 -21l-136 136l22 22z" />
    <glyph glyph-name="Acircumflex" unicode="&#xc2;" horiz-adv-x="572" 
d="M518 0l-48 127h-368l-48 -127h-39l271 706l271 -706h-39zM286 614l-174 -459h348zM171 713l-22 21l136 137l137 -137l-22 -21l-115 114z" />
    <glyph glyph-name="Adieresis" unicode="&#xc4;" horiz-adv-x="572" 
d="M518 0l-48 127h-368l-48 -127h-39l271 706l271 -706h-39zM286 614l-174 -459h348zM177 792c0 18 14 31 31 31s31 -13 31 -31c0 -17 -14 -31 -31 -31s-31 14 -31 31zM332 792c0 18 14 31 31 31s31 -13 31 -31c0 -17 -14 -31 -31 -31s-31 14 -31 31z" />
    <glyph glyph-name="Atilde" unicode="&#xc3;" horiz-adv-x="572" 
d="M518 0l-48 127h-368l-48 -127h-39l271 706l271 -706h-39zM286 614l-174 -459h348zM446 834c0 -51 -37 -90 -91 -90c-36 0 -58 18 -79 36c-18 15 -36 29 -60 29c-36 0 -60 -26 -60 -61h-31v3c0 50 37 89 91 89c36 0 58 -19 79 -36c18 -15 36 -29 60 -29c36 0 60 26 60 62
h31v-3z" />
    <glyph glyph-name="Aring" unicode="&#xc5;" horiz-adv-x="572" 
d="M518 0l-48 127h-368l-48 -127h-39l271 706l271 -706h-39zM286 614l-174 -459h348zM384 808c0 -55 -44 -99 -99 -99s-99 44 -99 99s44 99 99 99s99 -44 99 -99zM356 808c0 39 -32 71 -71 71s-71 -32 -71 -71s32 -71 71 -71s71 32 71 71z" />
    <glyph glyph-name="Abreve" unicode="&#x102;" horiz-adv-x="572" 
d="M518 0l-48 127h-368l-48 -127h-39l271 706l271 -706h-39zM286 614l-174 -459h348zM286 778c55 0 109 21 151 63l22 -22c-48 -48 -111 -72 -174 -72s-125 24 -173 72l22 22c42 -42 97 -63 152 -63z" />
    <glyph glyph-name="Amacron" unicode="&#x100;" horiz-adv-x="572" 
d="M518 0l-48 127h-368l-48 -127h-39l271 706l271 -706h-39zM286 614l-174 -459h348zM445 808v-31h-319v31h319z" />
    <glyph glyph-name="Aogonek" unicode="&#x104;" horiz-adv-x="572" 
d="M286 614l-174 -459h348zM542 -165v-34c-64 0 -117 53 -117 117c0 52 35 96 82 111l-37 98h-368l-48 -127h-39l271 706l271 -706h-15c-45 0 -83 -37 -83 -82c0 -46 38 -83 83 -83z" />
    <glyph glyph-name="A.alt1" horiz-adv-x="572" 
d="M286 116l-174 38l-58 -154h-39l271 706l271 -706h-39l-58 154zM286 614l-174 -459h348z" />
    <glyph glyph-name="Aacute.alt1" horiz-adv-x="572" 
d="M286 116l-174 38l-58 -154h-39l271 706l271 -706h-39l-58 154zM286 614l-174 -459h348zM229 713l-22 21l136 137l22 -22z" />
    <glyph glyph-name="Agrave.alt1" horiz-adv-x="572" 
d="M286 116l-174 38l-58 -154h-39l271 706l271 -706h-39l-58 154zM286 614l-174 -459h348zM365 734l-22 -21l-136 136l22 22z" />
    <glyph glyph-name="Acircumflex.alt1" horiz-adv-x="572" 
d="M286 116l-174 38l-58 -154h-39l271 706l271 -706h-39l-58 154zM286 614l-174 -459h348zM171 713l-22 21l136 137l137 -137l-22 -21l-115 114z" />
    <glyph glyph-name="Adieresis.alt1" horiz-adv-x="572" 
d="M286 116l-174 38l-58 -154h-39l271 706l271 -706h-39l-58 154zM286 614l-174 -459h348zM177 792c0 18 14 31 31 31s31 -13 31 -31c0 -17 -14 -31 -31 -31s-31 14 -31 31zM332 792c0 18 14 31 31 31s31 -13 31 -31c0 -17 -14 -31 -31 -31s-31 14 -31 31z" />
    <glyph glyph-name="Atilde.alt1" horiz-adv-x="572" 
d="M286 116l-174 38l-58 -154h-39l271 706l271 -706h-39l-58 154zM286 614l-174 -459h348zM446 834c0 -51 -37 -90 -91 -90c-36 0 -58 18 -79 36c-18 15 -36 29 -60 29c-36 0 -60 -26 -60 -61h-31v3c0 50 37 89 91 89c36 0 58 -19 79 -36c18 -15 36 -29 60 -29
c36 0 60 26 60 62h31v-3z" />
    <glyph glyph-name="Aring.alt1" horiz-adv-x="572" 
d="M286 116l-174 38l-58 -154h-39l271 706l271 -706h-39l-58 154zM286 614l-174 -459h348zM384 808c0 -55 -44 -99 -99 -99s-99 44 -99 99s44 99 99 99s99 -44 99 -99zM356 808c0 39 -32 71 -71 71s-71 -32 -71 -71s32 -71 71 -71s71 32 71 71z" />
    <glyph glyph-name="Abreve.alt1" horiz-adv-x="572" 
d="M286 116l-174 38l-58 -154h-39l271 706l271 -706h-39l-58 154zM286 614l-174 -459h348zM286 778c55 0 109 21 151 63l22 -22c-48 -48 -111 -72 -174 -72s-125 24 -173 72l22 22c42 -42 97 -63 152 -63z" />
    <glyph glyph-name="Amacron.alt1" horiz-adv-x="572" 
d="M286 116l-174 38l-58 -154h-39l271 706l271 -706h-39l-58 154zM286 614l-174 -459h348zM445 808v-31h-319v31h319z" />
    <glyph glyph-name="Aogonek.alt1" horiz-adv-x="572" 
d="M286 614l-174 -459h348zM542 -165v-34c-64 0 -117 53 -117 117c0 52 35 96 82 111l-47 125l-174 -38l-174 38l-58 -154h-39l271 706l271 -706h-15c-45 0 -83 -37 -83 -82c0 -46 38 -83 83 -83z" />
    <glyph glyph-name="A.alt2" horiz-adv-x="572" 
d="M518 0l-232 614l-232 -614h-39l271 706l271 -706h-39z" />
    <glyph glyph-name="Aacute.alt2" horiz-adv-x="572" 
d="M518 0l-232 614l-232 -614h-39l271 706l271 -706h-39zM229 713l-22 21l136 137l22 -22z" />
    <glyph glyph-name="Agrave.alt2" horiz-adv-x="572" 
d="M518 0l-232 614l-232 -614h-39l271 706l271 -706h-39zM365 734l-22 -21l-136 136l22 22z" />
    <glyph glyph-name="Acircumflex.alt2" horiz-adv-x="572" 
d="M518 0l-232 614l-232 -614h-39l271 706l271 -706h-39zM171 713l-22 21l136 137l137 -137l-22 -21l-115 114z" />
    <glyph glyph-name="Adieresis.alt2" horiz-adv-x="572" 
d="M518 0l-232 614l-232 -614h-39l271 706l271 -706h-39zM177 792c0 18 14 31 31 31s31 -13 31 -31c0 -17 -14 -31 -31 -31s-31 14 -31 31zM332 792c0 18 14 31 31 31s31 -13 31 -31c0 -17 -14 -31 -31 -31s-31 14 -31 31z" />
    <glyph glyph-name="Atilde.alt2" horiz-adv-x="572" 
d="M518 0l-232 614l-232 -614h-39l271 706l271 -706h-39zM446 834c0 -51 -37 -90 -91 -90c-36 0 -58 18 -79 36c-18 15 -36 29 -60 29c-36 0 -60 -26 -60 -61h-31v3c0 50 37 89 91 89c36 0 58 -19 79 -36c18 -15 36 -29 60 -29c36 0 60 26 60 62h31v-3z" />
    <glyph glyph-name="Aring.alt2" horiz-adv-x="572" 
d="M518 0l-232 614l-232 -614h-39l271 706l271 -706h-39zM384 808c0 -55 -44 -99 -99 -99s-99 44 -99 99s44 99 99 99s99 -44 99 -99zM356 808c0 39 -32 71 -71 71s-71 -32 -71 -71s32 -71 71 -71s71 32 71 71z" />
    <glyph glyph-name="Abreve.alt2" horiz-adv-x="572" 
d="M518 0l-232 614l-232 -614h-39l271 706l271 -706h-39zM286 778c55 0 109 21 151 63l22 -22c-48 -48 -111 -72 -174 -72s-125 24 -173 72l22 22c42 -42 97 -63 152 -63z" />
    <glyph glyph-name="Amacron.alt2" horiz-adv-x="572" 
d="M518 0l-232 614l-232 -614h-39l271 706l271 -706h-39zM445 808v-31h-319v31h319z" />
    <glyph glyph-name="Aogonek.alt2" horiz-adv-x="572" 
d="M542 -165v-34c-64 0 -117 53 -117 117c0 52 35 96 82 111l-221 585l-232 -614h-39l271 706l271 -706h-15c-45 0 -83 -37 -83 -82c0 -46 38 -83 83 -83z" />
    <glyph glyph-name="AE" unicode="&#xc6;" horiz-adv-x="818" 
d="M59 0h-44l458 685h265v-34h-230v-291h230v-34h-230v-292h230v-34h-263v127h-332zM161 155h314v472z" />
    <glyph glyph-name="AEacute" unicode="&#x1fc;" horiz-adv-x="818" 
d="M59 0h-44l458 685h265v-34h-230v-291h230v-34h-230v-292h230v-34h-263v127h-332zM161 155h314v472zM435 713l-22 21l136 137l22 -22z" />
    <glyph glyph-name="AE.alt1" horiz-adv-x="818" 
d="M59 0h-44l458 685h265v-34h-230v-306l230 20v-44l-230 20v-307h230v-34h-263v153l-158 -37l-157 37zM161 155h314v472z" />
    <glyph glyph-name="AEacute.alt1" horiz-adv-x="818" 
d="M59 0h-44l458 685h265v-34h-230v-306l230 20v-44l-230 20v-307h230v-34h-263v153l-158 -37l-157 37zM161 155h314v472zM435 713l-22 21l136 137l22 -22z" />
    <glyph glyph-name="AE.alt2" horiz-adv-x="818" 
d="M59 0h-44l458 685h265v-34h-230v-291h230v-34h-230v-292h230v-34h-263v627z" />
    <glyph glyph-name="AEacute.alt2" horiz-adv-x="818" 
d="M59 0h-44l458 685h265v-34h-230v-291h230v-34h-230v-292h230v-34h-263v627zM435 713l-22 21l136 137l22 -22z" />
    <glyph glyph-name="B" unicode="B" horiz-adv-x="477" 
d="M387 180c0 -104 -79 -180 -183 -180h-84v685h68c102 0 180 -77 180 -180c0 -78 -45 -136 -112 -159c77 -19 131 -80 131 -166zM350 180c0 81 -65 146 -146 146h-50v-292h50c81 0 146 65 146 146zM331 505c0 81 -65 146 -145 146h-32v-291h42c76 0 135 68 135 145z" />
    <glyph glyph-name="C" unicode="C" horiz-adv-x="699" 
d="M645 114l24 -24c-65 -64 -154 -104 -252 -104c-197 0 -357 159 -357 356s160 357 357 357c98 0 187 -40 252 -105l-24 -23c-58 58 -139 95 -228 95c-179 0 -324 -145 -324 -324c0 -178 145 -323 324 -323c89 0 170 36 228 95z" />
    <glyph glyph-name="Ccedilla" unicode="&#xc7;" horiz-adv-x="699" 
d="M415 -199l-25 25c21 20 31 47 31 74s-10 54 -31 75l11 11c-188 8 -341 164 -341 356c0 197 160 357 357 357c98 0 187 -40 252 -105l-24 -23c-58 58 -139 95 -228 95c-179 0 -324 -145 -324 -324c0 -178 145 -323 324 -323c89 0 170 36 228 95l24 -24
c-63 -62 -148 -101 -242 -104c19 -25 29 -56 29 -86c0 -36 -14 -72 -41 -99z" />
    <glyph glyph-name="Cacute" unicode="&#x106;" horiz-adv-x="699" 
d="M645 114l24 -24c-65 -64 -154 -104 -252 -104c-197 0 -357 159 -357 356s160 357 357 357c98 0 187 -40 252 -105l-24 -23c-58 58 -139 95 -228 95c-179 0 -324 -145 -324 -324c0 -178 145 -323 324 -323c89 0 170 36 228 95zM360 713l-22 21l136 137l22 -22z" />
    <glyph glyph-name="Ccaron" unicode="&#x10c;" horiz-adv-x="699" 
d="M645 114l24 -24c-65 -64 -154 -104 -252 -104c-197 0 -357 159 -357 356s160 357 357 357c98 0 187 -40 252 -105l-24 -23c-58 58 -139 95 -228 95c-179 0 -324 -145 -324 -324c0 -178 145 -323 324 -323c89 0 170 36 228 95zM530 871l22 -22l-137 -136l-136 136l22 22
l114 -115z" />
    <glyph glyph-name="Ccircumflex" unicode="&#x108;" horiz-adv-x="699" 
d="M645 114l24 -24c-65 -64 -154 -104 -252 -104c-197 0 -357 159 -357 356s160 357 357 357c98 0 187 -40 252 -105l-24 -23c-58 58 -139 95 -228 95c-179 0 -324 -145 -324 -324c0 -178 145 -323 324 -323c89 0 170 36 228 95zM301 713l-22 21l136 137l137 -137l-22 -21
l-115 114z" />
    <glyph glyph-name="Cdotaccent" unicode="&#x10a;" horiz-adv-x="699" 
d="M645 114l24 -24c-65 -64 -154 -104 -252 -104c-197 0 -357 159 -357 356s160 357 357 357c98 0 187 -40 252 -105l-24 -23c-58 58 -139 95 -228 95c-179 0 -324 -145 -324 -324c0 -178 145 -323 324 -323c89 0 170 36 228 95zM383 792c0 18 14 31 31 31s31 -13 31 -31
c0 -17 -14 -31 -31 -31s-31 14 -31 31z" />
    <glyph glyph-name="C.alt2" horiz-adv-x="457" 
d="M417 666c-179 0 -324 -145 -324 -324c0 -178 145 -323 324 -323v-33c-197 0 -357 159 -357 356s160 357 357 357v-33z" />
    <glyph glyph-name="Ccedilla.alt2" horiz-adv-x="457" 
d="M319 -199l-25 25c21 20 31 47 31 74s-10 54 -31 75l25 25c-149 42 -259 179 -259 342c0 197 160 357 357 357v-33c-179 0 -324 -145 -324 -324c0 -178 145 -323 324 -323v-33c-34 0 -65 5 -96 13c26 -28 39 -63 39 -99s-14 -72 -41 -99z" />
    <glyph glyph-name="Cacute.alt2" horiz-adv-x="457" 
d="M417 666c-179 0 -324 -145 -324 -324c0 -178 145 -323 324 -323v-33c-197 0 -357 159 -357 356s160 357 357 357v-33zM261 713l-22 21l136 137l22 -22z" />
    <glyph glyph-name="Ccaron.alt2" horiz-adv-x="457" 
d="M417 666c-179 0 -324 -145 -324 -324c0 -178 145 -323 324 -323v-33c-197 0 -357 159 -357 356s160 357 357 357v-33zM435 871l22 -22l-137 -136l-136 136l22 22l114 -115z" />
    <glyph glyph-name="Ccircumflex.alt2" horiz-adv-x="457" 
d="M417 666c-179 0 -324 -145 -324 -324c0 -178 145 -323 324 -323v-33c-197 0 -357 159 -357 356s160 357 357 357v-33zM203 713l-22 21l136 137l137 -137l-22 -21l-115 114z" />
    <glyph glyph-name="Cdotaccent.alt2" horiz-adv-x="457" 
d="M417 666c-179 0 -324 -145 -324 -324c0 -178 145 -323 324 -323v-33c-197 0 -357 159 -357 356s160 357 357 357v-33zM289 792c0 18 14 31 31 31s31 -13 31 -31c0 -17 -14 -31 -31 -31s-31 14 -31 31z" />
    <glyph glyph-name="D" unicode="D" horiz-adv-x="594" 
d="M534 342c0 -189 -153 -342 -342 -342h-72v685h72c189 0 342 -154 342 -343zM500 342c0 171 -138 309 -308 309h-38v-617h38c170 0 308 138 308 308z" />
    <glyph glyph-name="Dcaron" unicode="&#x10e;" horiz-adv-x="594" 
d="M534 342c0 -189 -153 -342 -342 -342h-72v685h72c189 0 342 -154 342 -343zM500 342c0 171 -138 309 -308 309h-38v-617h38c170 0 308 138 308 308zM411 871l22 -22l-137 -136l-136 136l22 22l114 -115z" />
    <glyph glyph-name="Dcroat" unicode="&#x110;" horiz-adv-x="594" 
d="M30 328v31h90v326h72c189 0 342 -154 342 -343s-153 -342 -342 -342h-72v328h-90zM500 342c0 171 -138 309 -308 309h-38v-292h171v-31h-171v-294h38c170 0 308 138 308 308z" />
    <glyph glyph-name="E" unicode="E" horiz-adv-x="463" 
d="M383 0h-263v685h263v-34h-229v-291h229v-34h-229v-292h229v-34z" />
    <glyph glyph-name="Eacute" unicode="&#xc9;" horiz-adv-x="463" 
d="M383 0h-263v685h263v-34h-229v-291h229v-34h-229v-292h229v-34zM197 713l-22 21l136 137l22 -22z" />
    <glyph glyph-name="Egrave" unicode="&#xc8;" horiz-adv-x="463" 
d="M383 0h-263v685h263v-34h-229v-291h229v-34h-229v-292h229v-34zM336 734l-22 -21l-136 136l22 22z" />
    <glyph glyph-name="Ecircumflex" unicode="&#xca;" horiz-adv-x="463" 
d="M383 0h-263v685h263v-34h-229v-291h229v-34h-229v-292h229v-34zM135 713l-22 21l136 137l137 -137l-22 -21l-115 114z" />
    <glyph glyph-name="Edieresis" unicode="&#xcb;" horiz-adv-x="463" 
d="M383 0h-263v685h263v-34h-229v-291h229v-34h-229v-292h229v-34zM143 792c0 18 14 31 31 31s31 -13 31 -31c0 -17 -14 -31 -31 -31s-31 14 -31 31zM298 792c0 18 14 31 31 31s31 -13 31 -31c0 -17 -14 -31 -31 -31s-31 14 -31 31z" />
    <glyph glyph-name="Ebreve" unicode="&#x114;" horiz-adv-x="463" 
d="M383 0h-263v685h263v-34h-229v-291h229v-34h-229v-292h229v-34zM252 778c55 0 109 21 151 63l22 -22c-48 -48 -111 -72 -174 -72s-125 24 -173 72l22 22c42 -42 97 -63 152 -63z" />
    <glyph glyph-name="Ecaron" unicode="&#x11a;" horiz-adv-x="463" 
d="M383 0h-263v685h263v-34h-229v-291h229v-34h-229v-292h229v-34zM366 871l22 -22l-137 -136l-136 136l22 22l114 -115z" />
    <glyph glyph-name="Edotaccent" unicode="&#x116;" horiz-adv-x="463" 
d="M383 0h-263v685h263v-34h-229v-291h229v-34h-229v-292h229v-34zM225 792c0 18 14 31 31 31s31 -13 31 -31c0 -17 -14 -31 -31 -31s-31 14 -31 31z" />
    <glyph glyph-name="Emacron" unicode="&#x112;" horiz-adv-x="463" 
d="M383 0h-263v685h263v-34h-229v-291h229v-34h-229v-292h229v-34zM415 808v-31h-319v31h319z" />
    <glyph glyph-name="Eogonek" unicode="&#x118;" horiz-adv-x="463" 
d="M383 -199c-64 0 -117 53 -117 117c0 32 13 61 35 82h-181v685h263v-34h-229v-291h229v-34h-229v-292h229v-34c-45 0 -83 -37 -83 -82c0 -46 38 -83 83 -83v-34z" />
    <glyph glyph-name="E.alt1" horiz-adv-x="463" 
d="M383 0h-263v685h263v-34h-229v-306l229 20v-44l-229 20v-307h229v-34z" />
    <glyph glyph-name="Eacute.alt1" horiz-adv-x="463" 
d="M383 0h-263v685h263v-34h-229v-306l229 20v-44l-229 20v-307h229v-34zM194 713l-22 21l136 137l22 -22z" />
    <glyph glyph-name="Egrave.alt1" horiz-adv-x="463" 
d="M383 0h-263v685h263v-34h-229v-306l229 20v-44l-229 20v-307h229v-34zM334 734l-22 -21l-136 136l22 22z" />
    <glyph glyph-name="Ecircumflex.alt1" horiz-adv-x="463" 
d="M383 0h-263v685h263v-34h-229v-306l229 20v-44l-229 20v-307h229v-34zM137 713l-22 21l136 137l137 -137l-22 -21l-115 114z" />
    <glyph glyph-name="Edieresis.alt1" horiz-adv-x="463" 
d="M383 0h-263v685h263v-34h-229v-306l229 20v-44l-229 20v-307h229v-34zM148 792c0 18 14 31 31 31s31 -13 31 -31c0 -17 -14 -31 -31 -31s-31 14 -31 31zM303 792c0 18 14 31 31 31s31 -13 31 -31c0 -17 -14 -31 -31 -31s-31 14 -31 31z" />
    <glyph glyph-name="Ebreve.alt1" horiz-adv-x="463" 
d="M383 0h-263v685h263v-34h-229v-306l229 20v-44l-229 20v-307h229v-34zM252 778c55 0 109 21 151 63l22 -22c-48 -48 -111 -72 -174 -72s-125 24 -173 72l22 22c42 -42 97 -63 152 -63z" />
    <glyph glyph-name="Ecaron.alt1" horiz-adv-x="463" 
d="M383 0h-263v685h263v-34h-229v-306l229 20v-44l-229 20v-307h229v-34zM366 871l22 -22l-137 -136l-136 136l22 22l114 -115z" />
    <glyph glyph-name="Edotaccent.alt1" horiz-adv-x="463" 
d="M383 0h-263v685h263v-34h-229v-306l229 20v-44l-229 20v-307h229v-34zM225 792c0 18 14 31 31 31s31 -13 31 -31c0 -17 -14 -31 -31 -31s-31 14 -31 31z" />
    <glyph glyph-name="Emacron.alt1" horiz-adv-x="463" 
d="M383 0h-263v685h263v-34h-229v-306l229 20v-44l-229 20v-307h229v-34zM415 808v-31h-319v31h319z" />
    <glyph glyph-name="Eogonek.alt1" horiz-adv-x="463" 
d="M383 -165v-34c-64 0 -117 53 -117 117c0 32 13 61 35 82h-181v685h263v-34h-229v-306l229 20v-44l-229 20v-307h229v-34c-45 0 -83 -37 -83 -82c0 -46 38 -83 83 -83z" />
    <glyph glyph-name="F" unicode="F" horiz-adv-x="448" 
d="M383 326h-229v-326h-34v685h263v-34h-229v-291h229v-34z" />
    <glyph glyph-name="F.alt1" horiz-adv-x="448" 
d="M383 321l-229 20v-341h-34v685h263v-34h-229v-306l229 20v-44z" />
    <glyph glyph-name="G" unicode="G" horiz-adv-x="773" 
d="M417 19c131 0 243 76 294 188h-299v34h346c-45 -151 -184 -255 -341 -255c-197 0 -357 159 -357 356s160 357 357 357c94 0 185 -38 252 -105l-24 -23c-61 60 -143 95 -228 95c-179 0 -324 -145 -324 -324c0 -178 145 -323 324 -323z" />
    <glyph glyph-name="Gbreve" unicode="&#x11e;" horiz-adv-x="773" 
d="M417 19c131 0 243 76 294 188h-299v34h346c-45 -151 -184 -255 -341 -255c-197 0 -357 159 -357 356s160 357 357 357c94 0 185 -38 252 -105l-24 -23c-61 60 -143 95 -228 95c-179 0 -324 -145 -324 -324c0 -178 145 -323 324 -323zM418 778c55 0 109 21 151 63l22 -22
c-48 -48 -111 -72 -174 -72s-125 24 -173 72l22 22c42 -42 97 -63 152 -63z" />
    <glyph glyph-name="Gcircumflex" unicode="&#x11c;" horiz-adv-x="773" 
d="M417 19c131 0 243 76 294 188h-299v34h346c-45 -151 -184 -255 -341 -255c-197 0 -357 159 -357 356s160 357 357 357c94 0 185 -38 252 -105l-24 -23c-61 60 -143 95 -228 95c-179 0 -324 -145 -324 -324c0 -178 145 -323 324 -323zM304 713l-22 21l136 137l137 -137
l-22 -21l-115 114z" />
    <glyph glyph-name="uni0122" unicode="&#x122;" horiz-adv-x="773" 
d="M417 19c131 0 243 76 294 188h-299v34h346c-45 -151 -184 -255 -341 -255c-197 0 -357 159 -357 356s160 357 357 357c94 0 185 -38 252 -105l-24 -23c-61 60 -143 95 -228 95c-179 0 -324 -145 -324 -324c0 -178 145 -323 324 -323zM446 -143l-51 -69v162h51v-93z" />
    <glyph glyph-name="Gdotaccent" unicode="&#x120;" horiz-adv-x="773" 
d="M417 19c131 0 243 76 294 188h-299v34h346c-45 -151 -184 -255 -341 -255c-197 0 -357 159 -357 356s160 357 357 357c94 0 185 -38 252 -105l-24 -23c-61 60 -143 95 -228 95c-179 0 -324 -145 -324 -324c0 -178 145 -323 324 -323zM386 792c0 18 14 31 31 31
s31 -13 31 -31c0 -17 -14 -31 -31 -31s-31 14 -31 31z" />
    <glyph glyph-name="G.alt1" horiz-adv-x="773" 
d="M417 19c84 0 160 32 218 84v239h34v-252c-65 -64 -154 -104 -252 -104c-197 0 -357 159 -357 356s160 357 357 357c98 0 187 -40 252 -105l-24 -23c-58 58 -139 95 -228 95c-179 0 -324 -145 -324 -324c0 -178 145 -323 324 -323z" />
    <glyph glyph-name="Gbreve.alt1" horiz-adv-x="773" 
d="M417 19c84 0 160 32 218 84v239h34v-252c-65 -64 -154 -104 -252 -104c-197 0 -357 159 -357 356s160 357 357 357c98 0 187 -40 252 -105l-24 -23c-58 58 -139 95 -228 95c-179 0 -324 -145 -324 -324c0 -178 145 -323 324 -323zM418 778c55 0 109 21 151 63l22 -22
c-48 -48 -111 -72 -174 -72s-125 24 -173 72l22 22c42 -42 97 -63 152 -63z" />
    <glyph glyph-name="Gcircumflex.alt1" horiz-adv-x="773" 
d="M417 19c84 0 160 32 218 84v239h34v-252c-65 -64 -154 -104 -252 -104c-197 0 -357 159 -357 356s160 357 357 357c98 0 187 -40 252 -105l-24 -23c-58 58 -139 95 -228 95c-179 0 -324 -145 -324 -324c0 -178 145 -323 324 -323zM303 713l-22 21l136 137l137 -137
l-22 -21l-115 114z" />
    <glyph glyph-name="uni0122.alt1" horiz-adv-x="773" 
d="M417 19c84 0 160 32 218 84v239h34v-252c-65 -64 -154 -104 -252 -104c-197 0 -357 159 -357 356s160 357 357 357c98 0 187 -40 252 -105l-24 -23c-58 58 -139 95 -228 95c-179 0 -324 -145 -324 -324c0 -178 145 -323 324 -323zM445 -143l-51 -69v162h51v-93z" />
    <glyph glyph-name="Gdotaccent.alt1" horiz-adv-x="773" 
d="M417 19c84 0 160 32 218 84v239h34v-252c-65 -64 -154 -104 -252 -104c-197 0 -357 159 -357 356s160 357 357 357c98 0 187 -40 252 -105l-24 -23c-58 58 -139 95 -228 95c-179 0 -324 -145 -324 -324c0 -178 145 -323 324 -323zM386 792c0 18 14 31 31 31
s31 -13 31 -31c0 -17 -14 -31 -31 -31s-31 14 -31 31z" />
    <glyph glyph-name="G.alt2" horiz-adv-x="491" 
d="M417 -14h-13c-191 7 -344 163 -344 356c0 197 160 357 357 357v-33c-179 -1 -324 -145 -324 -324c0 -165 125 -304 290 -321v217h34v-252z" />
    <glyph glyph-name="Gbreve.alt2" horiz-adv-x="491" 
d="M417 -14h-13c-191 7 -344 163 -344 356c0 197 160 357 357 357v-33c-179 -1 -324 -145 -324 -324c0 -165 125 -304 290 -321v217h34v-252zM317 778c55 0 109 21 151 63l22 -22c-48 -48 -111 -72 -174 -72s-125 24 -173 72l22 22c42 -42 97 -63 152 -63z" />
    <glyph glyph-name="Gcircumflex.alt2" horiz-adv-x="491" 
d="M417 -14h-13c-191 7 -344 163 -344 356c0 197 160 357 357 357v-33c-179 -1 -324 -145 -324 -324c0 -165 125 -304 290 -321v217h34v-252zM206 713l-22 21l136 137l137 -137l-22 -21l-115 114z" />
    <glyph glyph-name="uni0122.alt2" horiz-adv-x="491" 
d="M417 -14h-13c-191 7 -344 163 -344 356c0 197 160 357 357 357v-33c-179 -1 -324 -145 -324 -324c0 -165 125 -304 290 -321v217h34v-252zM341 -143l-51 -69v162h51v-93z" />
    <glyph glyph-name="Gdotaccent.alt2" horiz-adv-x="491" 
d="M417 -14h-13c-191 7 -344 163 -344 356c0 197 160 357 357 357v-33c-179 -1 -324 -145 -324 -324c0 -165 125 -304 290 -321v217h34v-252zM290 792c0 18 14 31 31 31s31 -13 31 -31c0 -17 -14 -31 -31 -31s-31 14 -31 31z" />
    <glyph glyph-name="G.alt3" horiz-adv-x="534" 
d="M474 0h-72c-189 0 -342 153 -342 342c0 197 160 357 357 357v-33c-179 -1 -324 -145 -324 -324c0 -170 139 -308 309 -308h38v204h34v-238z" />
    <glyph glyph-name="Gbreve.alt3" horiz-adv-x="534" 
d="M474 0h-72c-189 0 -342 153 -342 342c0 197 160 357 357 357v-33c-179 -1 -324 -145 -324 -324c0 -170 139 -308 309 -308h38v204h34v-238zM318 778c55 0 109 21 151 63l22 -22c-48 -48 -111 -72 -174 -72s-125 24 -173 72l22 22c42 -42 97 -63 152 -63z" />
    <glyph glyph-name="Gcircumflex.alt3" horiz-adv-x="534" 
d="M474 0h-72c-189 0 -342 153 -342 342c0 197 160 357 357 357v-33c-179 -1 -324 -145 -324 -324c0 -170 139 -308 309 -308h38v204h34v-238zM204 713l-22 21l136 137l137 -137l-22 -21l-115 114z" />
    <glyph glyph-name="uni0122.alt3" horiz-adv-x="534" 
d="M474 0h-72c-189 0 -342 153 -342 342c0 197 160 357 357 357v-33c-179 -1 -324 -145 -324 -324c0 -170 139 -308 309 -308h38v204h34v-238zM344 -143l-51 -69v162h51v-93z" />
    <glyph glyph-name="Gdotaccent.alt3" horiz-adv-x="534" 
d="M474 0h-72c-189 0 -342 153 -342 342c0 197 160 357 357 357v-33c-179 -1 -324 -145 -324 -324c0 -170 139 -308 309 -308h38v204h34v-238zM287 792c0 18 14 31 31 31s31 -13 31 -31c0 -17 -14 -31 -31 -31s-31 14 -31 31z" />
    <glyph glyph-name="H" unicode="H" horiz-adv-x="569" 
d="M449 0h-34v326h-261v-326h-34v685h34v-325h261v325h34v-685z" />
    <glyph glyph-name="Hbar" unicode="&#x126;" horiz-adv-x="569" 
d="M449 0h-34v326h-261v-326h-34v506h-58v31h58v148h34v-148h261v148h34v-148h60v-31h-60v-506zM154 360h261v146h-261v-146z" />
    <glyph glyph-name="Hcircumflex" unicode="&#x124;" horiz-adv-x="569" 
d="M449 0h-34v326h-261v-326h-34v685h34v-325h261v325h34v-685zM170 713l-22 21l136 137l137 -137l-22 -21l-115 114z" />
    <glyph glyph-name="I" unicode="I" horiz-adv-x="274" 
d="M154 0h-34v685h34v-685z" />
    <glyph glyph-name="Iacute" unicode="&#xcd;" horiz-adv-x="274" 
d="M154 0h-34v685h34v-685zM80 713l-22 21l136 137l22 -22z" />
    <glyph glyph-name="Igrave" unicode="&#xcc;" horiz-adv-x="274" 
d="M154 0h-34v685h34v-685zM216 734l-22 -21l-136 136l22 22z" />
    <glyph glyph-name="Icircumflex" unicode="&#xce;" horiz-adv-x="274" 
d="M154 0h-34v685h34v-685zM23 713l-22 21l136 137l137 -137l-22 -21l-115 114z" />
    <glyph glyph-name="Idieresis" unicode="&#xcf;" horiz-adv-x="274" 
d="M154 0h-34v685h34v-685zM29 792c0 18 14 31 31 31s31 -13 31 -31c0 -17 -14 -31 -31 -31s-31 14 -31 31zM184 792c0 18 14 31 31 31s31 -13 31 -31c0 -17 -14 -31 -31 -31s-31 14 -31 31z" />
    <glyph glyph-name="Ibreve" unicode="&#x12c;" horiz-adv-x="274" 
d="M154 0h-34v685h34v-685zM138 778c55 0 109 21 151 63l22 -22c-48 -48 -111 -72 -174 -72s-125 24 -173 72l22 22c42 -42 97 -63 152 -63z" />
    <glyph glyph-name="Idotaccent" unicode="&#x130;" horiz-adv-x="274" 
d="M154 0h-34v685h34v-685zM106 792c0 18 14 31 31 31s31 -13 31 -31c0 -17 -14 -31 -31 -31s-31 14 -31 31z" />
    <glyph glyph-name="Imacron" unicode="&#x12a;" horiz-adv-x="274" 
d="M154 0h-34v685h34v-685zM297 808v-31h-319v31h319z" />
    <glyph glyph-name="Iogonek" unicode="&#x12e;" horiz-adv-x="274" 
d="M154 -199c-64 0 -117 53 -117 117c0 52 35 96 83 111v656h34v-685c-45 0 -83 -37 -83 -82c0 -46 38 -83 83 -83v-34z" />
    <glyph glyph-name="Itilde" unicode="&#x128;" horiz-adv-x="274" 
d="M154 0h-34v685h34v-685zM298 834c0 -51 -37 -90 -91 -90c-36 0 -58 18 -79 36c-18 15 -36 29 -60 29c-36 0 -60 -26 -60 -61h-31v3c0 50 37 89 91 89c36 0 58 -19 79 -36c18 -15 36 -29 60 -29c36 0 60 26 60 62h31v-3z" />
    <glyph glyph-name="IJ" unicode="&#x132;" horiz-adv-x="618" 
d="M154 0h-34v685h34v-685zM498 685v-508c0 -121 -83 -187 -183 -187c-9 0 -19 1 -26 4v37c7 -4 16 -5 26 -5c85 0 149 56 149 151v508h34z" />
    <glyph glyph-name="J" unicode="J" horiz-adv-x="344" 
d="M224 685v-508c0 -121 -83 -187 -183 -187c-9 0 -19 1 -26 4v37c7 -4 16 -5 26 -5c85 0 149 56 149 151v508h34z" />
    <glyph glyph-name="Jcircumflex" unicode="&#x134;" horiz-adv-x="344" 
d="M224 685v-508c0 -121 -83 -187 -183 -187c-9 0 -19 1 -26 4v37c7 -4 16 -5 26 -5c85 0 149 56 149 151v508h34zM92 713l-22 21l136 137l137 -137l-22 -21l-115 114z" />
    <glyph glyph-name="K" unicode="K" horiz-adv-x="417" 
d="M402 0h-42l-200 334l-6 -10v-324h-34v685h34v-295l174 295h43l-190 -315z" />
    <glyph glyph-name="uni0136" unicode="&#x136;" horiz-adv-x="417" 
d="M402 0h-42l-200 334l-6 -10v-324h-34v685h34v-295l174 295h43l-190 -315zM262 -143l-51 -69v162h51v-93z" />
    <glyph glyph-name="K.alt1" horiz-adv-x="417" 
d="M154 685v-313l186 313h43l-203 -331l211 -354h-42l-195 325v-325h-34v685h34z" />
    <glyph glyph-name="uni0136.alt1" horiz-adv-x="417" 
d="M154 685v-313l186 313h43l-203 -331l211 -354h-42l-195 325v-325h-34v685h34zM262 -143l-51 -69v162h51v-93z" />
    <glyph glyph-name="L" unicode="L" horiz-adv-x="398" 
d="M383 0h-263v685h34v-651h229v-34z" />
    <glyph glyph-name="Lacute" unicode="&#x139;" horiz-adv-x="398" 
d="M383 0h-263v685h34v-651h229v-34zM199 713l-22 21l136 137l22 -22z" />
    <glyph glyph-name="Lcaron" unicode="&#x13d;" horiz-adv-x="398" 
d="M383 0h-263v685h34v-651h229v-34zM362 619l-51 -119v185h51v-66z" />
    <glyph glyph-name="uni013B" unicode="&#x13b;" horiz-adv-x="398" 
d="M383 0h-263v685h34v-651h229v-34zM276 -143l-51 -69v162h51v-93z" />
    <glyph glyph-name="Ldot" unicode="&#x13f;" horiz-adv-x="398" 
d="M383 0h-263v685h34v-651h229v-34zM362 290h-51v103h51v-103z" />
    <glyph glyph-name="Lslash" unicode="&#x141;" horiz-adv-x="398" 
d="M383 0h-263v314l-90 -38v37l90 38v334h34v-319l114 49v-37l-114 -49v-295h229v-34z" />
    <glyph glyph-name="M" unicode="M" horiz-adv-x="676" 
d="M556 0h-34v601l-184 -250l-184 250v-601h-34v704l218 -296l218 296v-704z" />
    <glyph glyph-name="M.alt1" horiz-adv-x="816" 
d="M801 0h-37l-184 602l-170 -565h-4l-170 565l-184 -602h-37l221 706l172 -560l172 560z" />
    <glyph glyph-name="M.alt2" horiz-adv-x="846" 
d="M560 614l-137 -363l-137 363l-232 -614h-39l271 706l137 -357l137 357l271 -706h-39z" />
    <glyph glyph-name="M.alt3" horiz-adv-x="818" 
d="M409 108l-255 460v-568h-34v704l289 -528l289 528v-704h-34v568z" />
    <glyph glyph-name="N" unicode="N" horiz-adv-x="598" 
d="M478 -19l-324 587v-568h-34v704l324 -592v573h34v-704z" />
    <glyph glyph-name="Ntilde" unicode="&#xd1;" horiz-adv-x="598" 
d="M478 -19l-324 587v-568h-34v704l324 -592v573h34v-704zM459 834c0 -51 -37 -90 -91 -90c-36 0 -58 18 -79 36c-18 15 -36 29 -60 29c-36 0 -60 -26 -60 -61h-31v3c0 50 37 89 91 89c36 0 58 -19 79 -36c18 -15 36 -29 60 -29c36 0 60 26 60 62h31v-3z" />
    <glyph glyph-name="Nacute" unicode="&#x143;" horiz-adv-x="598" 
d="M478 -19l-324 587v-568h-34v704l324 -592v573h34v-704zM242 713l-22 21l136 137l22 -22z" />
    <glyph glyph-name="Ncaron" unicode="&#x147;" horiz-adv-x="598" 
d="M478 -19l-324 587v-568h-34v704l324 -592v573h34v-704zM413 871l22 -22l-137 -136l-136 136l22 22l114 -115z" />
    <glyph glyph-name="uni0145" unicode="&#x145;" horiz-adv-x="598" 
d="M478 -19l-324 587v-568h-34v704l324 -592v573h34v-704zM324 -143l-51 -69v162h51v-93z" />
    <glyph glyph-name="Eng" unicode="&#x14a;" horiz-adv-x="598" 
d="M478 -8c0 -121 -83 -187 -183 -187c-9 0 -19 1 -26 4v37c7 -4 16 -5 26 -5c85 0 149 56 149 151v50l-290 526v-568h-34v704l324 -592v573h34v-693z" />
    <glyph glyph-name="O" unicode="O" horiz-adv-x="833" 
d="M773 342c0 -197 -159 -356 -356 -356s-357 159 -357 356s160 357 357 357s356 -160 356 -357zM93 342c0 -178 145 -323 324 -323c178 0 323 145 323 323c0 179 -145 324 -323 324c-179 0 -324 -145 -324 -324z" />
    <glyph glyph-name="Oacute" unicode="&#xd3;" horiz-adv-x="833" 
d="M773 342c0 -197 -159 -356 -356 -356s-357 159 -357 356s160 357 357 357s356 -160 356 -357zM93 342c0 -178 145 -323 324 -323c178 0 323 145 323 323c0 179 -145 324 -323 324c-179 0 -324 -145 -324 -324zM359 713l-22 21l136 137l22 -22z" />
    <glyph glyph-name="Ograve" unicode="&#xd2;" horiz-adv-x="833" 
d="M773 342c0 -197 -159 -356 -356 -356s-357 159 -357 356s160 357 357 357s356 -160 356 -357zM93 342c0 -178 145 -323 324 -323c178 0 323 145 323 323c0 179 -145 324 -323 324c-179 0 -324 -145 -324 -324zM495 734l-22 -21l-136 136l22 22z" />
    <glyph glyph-name="Ocircumflex" unicode="&#xd4;" horiz-adv-x="833" 
d="M773 342c0 -197 -159 -356 -356 -356s-357 159 -357 356s160 357 357 357s356 -160 356 -357zM93 342c0 -178 145 -323 324 -323c178 0 323 145 323 323c0 179 -145 324 -323 324c-179 0 -324 -145 -324 -324zM302 713l-22 21l136 137l137 -137l-22 -21l-115 114z" />
    <glyph glyph-name="Odieresis" unicode="&#xd6;" horiz-adv-x="833" 
d="M773 342c0 -197 -159 -356 -356 -356s-357 159 -357 356s160 357 357 357s356 -160 356 -357zM93 342c0 -178 145 -323 324 -323c178 0 323 145 323 323c0 179 -145 324 -323 324c-179 0 -324 -145 -324 -324zM308 792c0 18 14 31 31 31s31 -13 31 -31
c0 -17 -14 -31 -31 -31s-31 14 -31 31zM463 792c0 18 14 31 31 31s31 -13 31 -31c0 -17 -14 -31 -31 -31s-31 14 -31 31z" />
    <glyph glyph-name="Otilde" unicode="&#xd5;" horiz-adv-x="833" 
d="M773 342c0 -197 -159 -356 -356 -356s-357 159 -357 356s160 357 357 357s356 -160 356 -357zM93 342c0 -178 145 -323 324 -323c178 0 323 145 323 323c0 179 -145 324 -323 324c-179 0 -324 -145 -324 -324zM577 834c0 -51 -37 -90 -91 -90c-36 0 -58 18 -79 36
c-18 15 -36 29 -60 29c-36 0 -60 -26 -60 -61h-31v3c0 50 37 89 91 89c36 0 58 -19 79 -36c18 -15 36 -29 60 -29c36 0 60 26 60 62h31v-3z" />
    <glyph glyph-name="Obreve" unicode="&#x14e;" horiz-adv-x="833" 
d="M773 342c0 -197 -159 -356 -356 -356s-357 159 -357 356s160 357 357 357s356 -160 356 -357zM93 342c0 -178 145 -323 324 -323c178 0 323 145 323 323c0 179 -145 324 -323 324c-179 0 -324 -145 -324 -324zM417 778c55 0 109 21 151 63l22 -22
c-48 -48 -111 -72 -174 -72s-125 24 -173 72l22 22c42 -42 97 -63 152 -63z" />
    <glyph glyph-name="Ohungarumlaut" unicode="&#x150;" horiz-adv-x="833" 
d="M773 342c0 -197 -159 -356 -356 -356s-357 159 -357 356s160 357 357 357s356 -160 356 -357zM93 342c0 -178 145 -323 324 -323c178 0 323 145 323 323c0 179 -145 324 -323 324c-179 0 -324 -145 -324 -324zM531 858l-72 -146l-28 13l72 147zM402 858l-72 -146l-28 13
l72 147z" />
    <glyph glyph-name="Omacron" unicode="&#x14c;" horiz-adv-x="833" 
d="M773 342c0 -197 -159 -356 -356 -356s-357 159 -357 356s160 357 357 357s356 -160 356 -357zM93 342c0 -178 145 -323 324 -323c178 0 323 145 323 323c0 179 -145 324 -323 324c-179 0 -324 -145 -324 -324zM576 808v-31h-319v31h319z" />
    <glyph glyph-name="Oslash" unicode="&#xd8;" horiz-adv-x="833" 
d="M773 342c0 -197 -159 -356 -356 -356c-93 0 -177 35 -240 93l-70 -70l-24 24l70 69c-58 64 -93 148 -93 240c0 197 160 357 357 357c92 0 176 -35 239 -93l70 70l24 -24l-70 -70c58 -63 93 -148 93 -240zM740 342c0 83 -32 159 -84 216l-456 -456c57 -52 133 -83 217 -83
c178 0 323 145 323 323zM93 342c0 -83 31 -159 83 -217l456 457c-57 51 -133 83 -215 83c-179 0 -324 -144 -324 -323z" />
    <glyph glyph-name="Oslashacute" unicode="&#x1fe;" horiz-adv-x="833" 
d="M773 342c0 -197 -159 -356 -356 -356c-93 0 -177 35 -240 93l-70 -70l-24 24l70 69c-58 64 -93 148 -93 240c0 197 160 357 357 357c92 0 176 -35 239 -93l70 70l24 -24l-70 -70c58 -63 93 -148 93 -240zM740 342c0 83 -32 159 -84 216l-456 -456c57 -52 133 -83 217 -83
c178 0 323 145 323 323zM93 342c0 -83 31 -159 83 -217l456 457c-57 51 -133 83 -215 83c-179 0 -324 -144 -324 -323zM359 713l-22 21l136 137l22 -22z" />
    <glyph glyph-name="OE" unicode="&#x152;" horiz-adv-x="1082" 
d="M1002 0h-263v199c-55 -130 -181 -213 -322 -213c-197 0 -357 160 -357 356c0 197 160 357 357 357c141 0 267 -84 322 -213v199h263v-34h-229v-291h229v-34h-229v-292h229v-34zM93 342c0 -178 145 -323 324 -323s322 145 322 323c0 179 -143 323 -322 323
s-324 -144 -324 -323z" />
    <glyph glyph-name="OE.alt1" horiz-adv-x="1082" 
d="M1002 0h-263v199c-55 -130 -181 -213 -322 -213c-197 0 -357 160 -357 356c0 197 160 357 357 357c141 0 267 -84 322 -213v199h263v-34h-229v-306l229 20v-44l-229 20v-307h229v-34zM93 342c0 -178 145 -323 324 -323s322 145 322 323c0 179 -143 323 -322 323
s-324 -144 -324 -323z" />
    <glyph glyph-name="P" unicode="P" horiz-adv-x="493" 
d="M428 448c0 -131 -106 -237 -237 -237h-37v-211h-34v685h71c131 0 237 -106 237 -237zM394 448c0 112 -91 203 -203 203h-37v-406h37c112 0 203 91 203 203z" />
    <glyph glyph-name="Q" unicode="Q" horiz-adv-x="833" 
d="M781 1l-24 -24l-101 101c-63 -57 -147 -92 -239 -92c-197 0 -357 159 -357 356s160 357 357 357s356 -160 356 -357c0 -92 -35 -176 -93 -240zM740 342c0 179 -145 324 -323 324c-179 0 -324 -145 -324 -324c0 -178 145 -323 324 -323c178 0 323 145 323 323z" />
    <glyph glyph-name="Q.alt1" horiz-adv-x="833" 
d="M681 104l120 -93l-30 -31l-93 120c-65 -70 -158 -114 -261 -114c-197 0 -357 159 -357 356s160 357 357 357s356 -160 356 -357c0 -92 -35 -175 -92 -238zM93 342c0 -178 145 -323 324 -323c178 0 323 145 323 323c0 179 -145 324 -323 324c-179 0 -324 -145 -324 -324z
" />
    <glyph glyph-name="Q.alt2" horiz-adv-x="833" 
d="M773 342c0 -191 -150 -346 -339 -355v-143h-34v143c-189 9 -340 163 -340 355c0 197 160 357 357 357s356 -160 356 -357zM400 170h34v-151c170 9 306 150 306 323c0 179 -145 324 -323 324c-179 0 -324 -145 -324 -324c0 -173 136 -314 307 -323v151z" />
    <glyph glyph-name="Q.alt3" horiz-adv-x="833" 
d="M773 342c0 -93 -35 -177 -93 -240l101 -101l-24 -24l-101 101c-63 -57 -147 -92 -239 -92c-197 0 -357 159 -357 356s160 357 357 357s356 -160 356 -357zM527 207l24 24l105 -106c52 58 84 134 84 217c0 179 -145 324 -323 324c-179 0 -324 -145 -324 -324
c0 -178 145 -323 324 -323c82 0 158 31 215 82z" />
    <glyph glyph-name="R" unicode="R" horiz-adv-x="519" 
d="M429 448c0 -127 -99 -231 -225 -237l184 -211h-46l-188 214v-214h-34v685h72c131 0 237 -106 237 -237zM395 448c0 112 -91 203 -203 203h-38v-406h38c112 0 203 91 203 203z" />
    <glyph glyph-name="Racute" unicode="&#x154;" horiz-adv-x="519" 
d="M429 448c0 -127 -99 -231 -225 -237l184 -211h-46l-188 214v-214h-34v685h72c131 0 237 -106 237 -237zM395 448c0 112 -91 203 -203 203h-38v-406h38c112 0 203 91 203 203zM202 713l-22 21l136 137l22 -22z" />
    <glyph glyph-name="Rcaron" unicode="&#x158;" horiz-adv-x="519" 
d="M429 448c0 -127 -99 -231 -225 -237l184 -211h-46l-188 214v-214h-34v685h72c131 0 237 -106 237 -237zM395 448c0 112 -91 203 -203 203h-38v-406h38c112 0 203 91 203 203zM374 871l22 -22l-137 -136l-136 136l22 22l114 -115z" />
    <glyph glyph-name="uni0156" unicode="&#x156;" horiz-adv-x="519" 
d="M429 448c0 -127 -99 -231 -225 -237l184 -211h-46l-188 214v-214h-34v685h72c131 0 237 -106 237 -237zM395 448c0 112 -91 203 -203 203h-38v-406h38c112 0 203 91 203 203zM285 -143l-51 -69v162h51v-93z" />
    <glyph glyph-name="R.alt1" horiz-adv-x="519" 
d="M429 448c0 -126 -98 -230 -224 -237l177 -203l-27 -23l-201 230v-215h-34v685h72c131 0 237 -106 237 -237zM395 448c0 112 -91 203 -203 203h-38v-406h38c112 0 203 91 203 203z" />
    <glyph glyph-name="Racute.alt1" horiz-adv-x="519" 
d="M429 448c0 -126 -98 -230 -224 -237l177 -203l-27 -23l-201 230v-215h-34v685h72c131 0 237 -106 237 -237zM395 448c0 112 -91 203 -203 203h-38v-406h38c112 0 203 91 203 203zM202 713l-22 21l136 137l22 -22z" />
    <glyph glyph-name="Rcaron.alt1" horiz-adv-x="519" 
d="M429 448c0 -126 -98 -230 -224 -237l177 -203l-27 -23l-201 230v-215h-34v685h72c131 0 237 -106 237 -237zM395 448c0 112 -91 203 -203 203h-38v-406h38c112 0 203 91 203 203zM374 871l22 -22l-137 -136l-136 136l22 22l114 -115z" />
    <glyph glyph-name="uni0156.alt1" horiz-adv-x="519" 
d="M429 448c0 -126 -98 -230 -224 -237l177 -203l-27 -23l-201 230v-215h-34v685h72c131 0 237 -106 237 -237zM395 448c0 112 -91 203 -203 203h-38v-406h38c112 0 203 91 203 203zM285 -143l-51 -69v162h51v-93z" />
    <glyph glyph-name="S" unicode="S" horiz-adv-x="359" 
d="M284 176c0 -109 -74 -186 -183 -186c-9 0 -18 1 -26 4v36c10 -3 19 -4 26 -4c90 0 148 66 148 154c0 69 -36 113 -73 159c-39 47 -79 96 -79 177c0 105 74 178 175 178h5v-35h-5c-80 0 -140 -59 -140 -142c0 -69 36 -114 73 -160c39 -48 79 -99 79 -181z" />
    <glyph glyph-name="Sacute" unicode="&#x15a;" horiz-adv-x="359" 
d="M284 176c0 -109 -74 -186 -183 -186c-9 0 -18 1 -26 4v36c10 -3 19 -4 26 -4c90 0 148 66 148 154c0 69 -36 113 -73 159c-39 47 -79 96 -79 177c0 105 74 178 175 178h5v-35h-5c-80 0 -140 -59 -140 -142c0 -69 36 -114 73 -160c39 -48 79 -99 79 -181zM122 713l-22 21
l136 137l22 -22z" />
    <glyph glyph-name="uni015E" unicode="&#x15e;" horiz-adv-x="359" 
d="M284 176c0 -109 -74 -186 -183 -186c-9 0 -18 1 -26 4v36c10 -3 19 -4 26 -4c90 0 148 66 148 154c0 69 -36 113 -73 159c-39 47 -79 96 -79 177c0 105 74 178 175 178h5v-35h-5c-80 0 -140 -59 -140 -142c0 -69 36 -114 73 -160c39 -48 79 -99 79 -181zM178 -199l-25 25
c21 20 31 47 31 74s-10 54 -31 75l25 25c27 -28 41 -64 41 -100s-14 -72 -41 -99z" />
    <glyph glyph-name="Scircumflex" unicode="&#x15c;" horiz-adv-x="359" 
d="M284 176c0 -109 -74 -186 -183 -186c-9 0 -18 1 -26 4v36c10 -3 19 -4 26 -4c90 0 148 66 148 154c0 69 -36 113 -73 159c-39 47 -79 96 -79 177c0 105 74 178 175 178h5v-35h-5c-80 0 -140 -59 -140 -142c0 -69 36 -114 73 -160c39 -48 79 -99 79 -181zM65 713l-22 21
l136 137l137 -137l-22 -21l-115 114z" />
    <glyph glyph-name="uni0218" unicode="&#x218;" horiz-adv-x="359" 
d="M284 176c0 -109 -74 -186 -183 -186c-9 0 -18 1 -26 4v36c10 -3 19 -4 26 -4c90 0 148 66 148 154c0 69 -36 113 -73 159c-39 47 -79 96 -79 177c0 105 74 178 175 178h5v-35h-5c-80 0 -140 -59 -140 -142c0 -69 36 -114 73 -160c39 -48 79 -99 79 -181z" />
    <glyph glyph-name="Scaron" unicode="&#x160;" horiz-adv-x="359" 
d="M284 176c0 -109 -74 -186 -183 -186c-9 0 -18 1 -26 4v36c10 -3 19 -4 26 -4c90 0 148 66 148 154c0 69 -36 113 -73 159c-39 47 -79 96 -79 177c0 105 74 178 175 178h5v-35h-5c-80 0 -140 -59 -140 -142c0 -69 36 -114 73 -160c39 -48 79 -99 79 -181zM294 864l22 -22
l-137 -136l-136 136l22 22l114 -115z" />
    <glyph glyph-name="S.alt1" horiz-adv-x="456" 
d="M448 665c-125 0 -165 -160 -205 -325c-43 -173 -85 -350 -227 -349l-8 34c126 0 165 161 205 326c41 170 83 344 224 343z" />
    <glyph glyph-name="Sacute.alt1" horiz-adv-x="456" 
d="M448 665c-125 0 -165 -160 -205 -325c-43 -173 -85 -350 -227 -349l-8 34c126 0 165 161 205 326c41 170 83 344 224 343zM306 713l-22 21l136 137l22 -22z" />
    <glyph glyph-name="uni015E.alt1" horiz-adv-x="456" 
d="M448 665c-125 0 -165 -160 -205 -325c-43 -173 -85 -350 -227 -349l-8 34c126 0 165 161 205 326c41 170 83 344 224 343zM80 -199l-25 25c21 20 31 47 31 74s-10 54 -31 75l25 25c27 -28 41 -64 41 -100s-14 -72 -41 -99z" />
    <glyph glyph-name="Scircumflex.alt1" horiz-adv-x="456" 
d="M448 665c-125 0 -165 -160 -205 -325c-43 -173 -85 -350 -227 -349l-8 34c126 0 165 161 205 326c41 170 83 344 224 343zM213 713l-22 21l136 137l137 -137l-22 -21l-115 114z" />
    <glyph glyph-name="uni0218.alt1" horiz-adv-x="456" 
d="M448 665c-125 0 -165 -160 -205 -325c-43 -173 -85 -350 -227 -349l-8 34c126 0 165 161 205 326c41 170 83 344 224 343zM253 -143l-51 -69v162h51v-93z" />
    <glyph glyph-name="Scaron.alt1" horiz-adv-x="456" 
d="M448 665c-125 0 -165 -160 -205 -325c-43 -173 -85 -350 -227 -349l-8 34c126 0 165 161 205 326c41 170 83 344 224 343zM443 871l22 -22l-137 -136l-136 136l22 22l114 -115z" />
    <glyph glyph-name="S.alt2" horiz-adv-x="303" 
d="M168 685h45c-58 -42 -82 -115 -82 -184c0 -63 18 -108 37 -154s38 -93 38 -160c0 -72 -22 -138 -71 -187h-45c58 42 82 118 82 187c0 60 -18 104 -36 149c-19 47 -39 96 -39 165c0 70 22 135 71 184z" />
    <glyph glyph-name="Sacute.alt2" horiz-adv-x="303" 
d="M168 685h45c-58 -42 -82 -115 -82 -184c0 -63 18 -108 37 -154s38 -93 38 -160c0 -72 -22 -138 -71 -187h-45c58 42 82 118 82 187c0 60 -18 104 -36 149c-19 47 -39 96 -39 165c0 70 22 135 71 184zM94 713l-22 21l136 137l22 -22z" />
    <glyph glyph-name="uni015E.alt2" horiz-adv-x="303" 
d="M168 685h45c-58 -42 -82 -115 -82 -184c0 -63 18 -108 37 -154s38 -93 38 -160c0 -72 -22 -138 -71 -187h-45c58 42 82 118 82 187c0 60 -18 104 -36 149c-19 47 -39 96 -39 165c0 70 22 135 71 184zM152 -199l-25 25c21 20 31 47 31 74s-10 54 -31 75l25 25
c27 -28 41 -64 41 -100s-14 -72 -41 -99z" />
    <glyph glyph-name="Scircumflex.alt2" horiz-adv-x="303" 
d="M168 685h45c-58 -42 -82 -115 -82 -184c0 -63 18 -108 37 -154s38 -93 38 -160c0 -72 -22 -138 -71 -187h-45c58 42 82 118 82 187c0 60 -18 104 -36 149c-19 47 -39 96 -39 165c0 70 22 135 71 184zM37 713l-22 21l136 137l137 -137l-22 -21l-115 114z" />
    <glyph glyph-name="uni0218.alt2" horiz-adv-x="303" 
d="M168 685h45c-58 -42 -82 -115 -82 -184c0 -63 18 -108 37 -154s38 -93 38 -160c0 -72 -22 -138 -71 -187h-45c58 42 82 118 82 187c0 60 -18 104 -36 149c-19 47 -39 96 -39 165c0 70 22 135 71 184zM177 -143l-51 -69v162h51v-93z" />
    <glyph glyph-name="Scaron.alt2" horiz-adv-x="303" 
d="M168 685h45c-58 -42 -82 -115 -82 -184c0 -63 18 -108 37 -154s38 -93 38 -160c0 -72 -22 -138 -71 -187h-45c58 42 82 118 82 187c0 60 -18 104 -36 149c-19 47 -39 96 -39 165c0 70 22 135 71 184zM266 871l22 -22l-137 -136l-136 136l22 22l114 -115z" />
    <glyph glyph-name="S.alt3" horiz-adv-x="303" 
d="M172 184c0 60 -18 105 -36 151c-19 48 -39 97 -39 166c0 70 23 145 86 198l23 -25c-48 -39 -75 -104 -75 -173c0 -63 18 -109 37 -155c19 -47 38 -95 38 -162c0 -70 -23 -145 -86 -198l-23 25c48 39 75 104 75 173z" />
    <glyph glyph-name="Sacute.alt3" horiz-adv-x="303" 
d="M172 184c0 60 -18 105 -36 151c-19 48 -39 97 -39 166c0 70 23 145 86 198l23 -25c-48 -39 -75 -104 -75 -173c0 -63 18 -109 37 -155c19 -47 38 -95 38 -162c0 -70 -23 -145 -86 -198l-23 25c48 39 75 104 75 173zM94 713l-22 21l136 137l22 -22z" />
    <glyph glyph-name="uni015E.alt3" horiz-adv-x="303" 
d="M172 184c0 60 -18 105 -36 151c-19 48 -39 97 -39 166c0 70 23 145 86 198l23 -25c-48 -39 -75 -104 -75 -173c0 -63 18 -109 37 -155c19 -47 38 -95 38 -162c0 -70 -23 -145 -86 -198l-23 25c48 39 75 104 75 173zM143 -199l-25 25c21 20 31 47 31 74s-10 54 -31 75
l25 25c27 -28 41 -64 41 -100s-14 -72 -41 -99z" />
    <glyph glyph-name="Scircumflex.alt3" horiz-adv-x="303" 
d="M172 184c0 60 -18 105 -36 151c-19 48 -39 97 -39 166c0 70 23 145 86 198l23 -25c-48 -39 -75 -104 -75 -173c0 -63 18 -109 37 -155c19 -47 38 -95 38 -162c0 -70 -23 -145 -86 -198l-23 25c48 39 75 104 75 173zM37 713l-22 21l136 137l137 -137l-22 -21l-115 114z
" />
    <glyph glyph-name="uni0218.alt3" horiz-adv-x="303" 
d="M172 184c0 60 -18 105 -36 151c-19 48 -39 97 -39 166c0 70 23 145 86 198l23 -25c-48 -39 -75 -104 -75 -173c0 -63 18 -109 37 -155c19 -47 38 -95 38 -162c0 -70 -23 -145 -86 -198l-23 25c48 39 75 104 75 173zM177 -143l-51 -69v162h51v-93z" />
    <glyph glyph-name="Scaron.alt3" horiz-adv-x="303" 
d="M172 184c0 60 -18 105 -36 151c-19 48 -39 97 -39 166c0 70 23 145 86 198l23 -25c-48 -39 -75 -104 -75 -173c0 -63 18 -109 37 -155c19 -47 38 -95 38 -162c0 -70 -23 -145 -86 -198l-23 25c48 39 75 104 75 173zM266 871l22 -22l-137 -136l-136 136l22 22l114 -115z
" />
    <glyph glyph-name="S.alt4" horiz-adv-x="493" 
d="M433 174c0 -104 -89 -188 -197 -188c-67 0 -138 33 -176 106l29 18c29 -58 86 -90 147 -90c90 0 163 69 163 154c0 99 -77 135 -155 172c-81 38 -163 77 -163 185c0 92 78 168 175 168c53 0 121 -25 158 -95l-29 -17c-24 48 -72 78 -129 78c-79 0 -141 -59 -141 -134
c0 -87 71 -121 147 -156c83 -40 171 -82 171 -201z" />
    <glyph glyph-name="Sacute.alt4" horiz-adv-x="493" 
d="M433 174c0 -104 -89 -188 -197 -188c-67 0 -138 33 -176 106l29 18c29 -58 86 -90 147 -90c90 0 163 69 163 154c0 99 -77 135 -155 172c-81 38 -163 77 -163 185c0 92 78 168 175 168c53 0 121 -25 158 -95l-29 -17c-24 48 -72 78 -129 78c-79 0 -141 -59 -141 -134
c0 -87 71 -121 147 -156c83 -40 171 -82 171 -201zM199 713l-22 21l136 137l22 -22z" />
    <glyph glyph-name="uni015E.alt4" horiz-adv-x="493" 
d="M240 -199l-25 25c21 20 31 47 31 74s-10 54 -31 75l11 11c-64 3 -130 36 -166 106l29 18c29 -58 86 -90 147 -90c90 0 163 69 163 154c0 99 -77 136 -156 172c-80 38 -162 77 -162 185c0 92 78 168 175 168c53 0 121 -25 158 -95l-29 -17c-24 48 -72 78 -129 78
c-79 0 -141 -59 -141 -134c0 -87 71 -121 146 -156c83 -40 172 -81 172 -201c0 -99 -81 -179 -181 -187c19 -26 29 -56 29 -87c0 -36 -14 -72 -41 -99z" />
    <glyph glyph-name="Scircumflex.alt4" horiz-adv-x="493" 
d="M433 174c0 -104 -89 -188 -197 -188c-67 0 -138 33 -176 106l29 18c29 -58 86 -90 147 -90c90 0 163 69 163 154c0 99 -77 135 -155 172c-81 38 -163 77 -163 185c0 92 78 168 175 168c53 0 121 -25 158 -95l-29 -17c-24 48 -72 78 -129 78c-79 0 -141 -59 -141 -134
c0 -87 71 -121 147 -156c83 -40 171 -82 171 -201zM142 713l-22 21l136 137l137 -137l-22 -21l-115 114z" />
    <glyph glyph-name="uni0218.alt4" horiz-adv-x="493" 
d="M433 174c0 -104 -89 -188 -197 -188c-67 0 -138 33 -176 106l29 18c29 -58 86 -90 147 -90c90 0 163 69 163 154c0 99 -77 135 -155 172c-81 38 -163 77 -163 185c0 92 78 168 175 168c53 0 121 -25 158 -95l-29 -17c-24 48 -72 78 -129 78c-79 0 -141 -59 -141 -134
c0 -87 71 -121 147 -156c83 -40 171 -82 171 -201zM272 -143l-51 -69v162h51v-93z" />
    <glyph glyph-name="Scaron.alt4" horiz-adv-x="493" 
d="M433 174c0 -104 -89 -188 -197 -188c-67 0 -138 33 -176 106l29 18c29 -58 86 -90 147 -90c90 0 163 69 163 154c0 99 -77 135 -155 172c-81 38 -163 77 -163 185c0 92 78 168 175 168c53 0 121 -25 158 -95l-29 -17c-24 48 -72 78 -129 78c-79 0 -141 -59 -141 -134
c0 -87 71 -121 147 -156c83 -40 171 -82 171 -201zM371 871l22 -22l-137 -136l-136 136l22 22l114 -115z" />
    <glyph glyph-name="T" unicode="T" horiz-adv-x="395" 
d="M380 651h-168v-651h-34v651h-163v34h365v-34z" />
    <glyph glyph-name="Tbar" unicode="&#x166;" horiz-adv-x="395" 
d="M356 340v-31h-144v-309h-34v309h-141v31h141v311h-163v34h365v-34h-168v-311h144z" />
    <glyph glyph-name="Tcaron" unicode="&#x164;" horiz-adv-x="395" 
d="M380 651h-168v-651h-34v651h-163v34h365v-34zM312 871l22 -22l-137 -136l-136 136l22 22l114 -115z" />
    <glyph glyph-name="Tcommaaccent" unicode="&#x162;" horiz-adv-x="395" 
d="M380 651h-168v-651h-34v651h-163v34h365v-34zM195 -200l-25 25c21 20 31 47 31 74s-10 54 -31 75l25 25c27 -28 41 -64 41 -100s-14 -72 -41 -99z" />
    <glyph glyph-name="uni021A" unicode="&#x21a;" horiz-adv-x="395" 
d="M380 651h-168v-651h-34v651h-163v34h365v-34zM223 -143l-51 -69v162h51v-93z" />
    <glyph glyph-name="U" unicode="U" horiz-adv-x="603" 
d="M483 172c0 -100 -82 -181 -182 -181s-181 81 -181 181v513h34v-513c0 -81 66 -148 147 -148c82 0 148 67 148 148v513h34v-513z" />
    <glyph glyph-name="Uacute" unicode="&#xda;" horiz-adv-x="603" 
d="M483 172c0 -100 -82 -181 -182 -181s-181 81 -181 181v513h34v-513c0 -81 66 -148 147 -148c82 0 148 67 148 148v513h34v-513zM244 713l-22 21l136 137l22 -22z" />
    <glyph glyph-name="Ugrave" unicode="&#xd9;" horiz-adv-x="603" 
d="M483 172c0 -100 -82 -181 -182 -181s-181 81 -181 181v513h34v-513c0 -81 66 -148 147 -148c82 0 148 67 148 148v513h34v-513zM380 734l-22 -21l-136 136l22 22z" />
    <glyph glyph-name="Ucircumflex" unicode="&#xdb;" horiz-adv-x="603" 
d="M483 172c0 -100 -82 -181 -182 -181s-181 81 -181 181v513h34v-513c0 -81 66 -148 147 -148c82 0 148 67 148 148v513h34v-513zM187 713l-22 21l136 137l137 -137l-22 -21l-115 114z" />
    <glyph glyph-name="Udieresis" unicode="&#xdc;" horiz-adv-x="603" 
d="M483 172c0 -100 -82 -181 -182 -181s-181 81 -181 181v513h34v-513c0 -81 66 -148 147 -148c82 0 148 67 148 148v513h34v-513zM193 792c0 18 14 31 31 31s31 -13 31 -31c0 -17 -14 -31 -31 -31s-31 14 -31 31zM348 792c0 18 14 31 31 31s31 -13 31 -31
c0 -17 -14 -31 -31 -31s-31 14 -31 31z" />
    <glyph glyph-name="Ubreve" unicode="&#x16c;" horiz-adv-x="603" 
d="M483 172c0 -100 -82 -181 -182 -181s-181 81 -181 181v513h34v-513c0 -81 66 -148 147 -148c82 0 148 67 148 148v513h34v-513zM302 778c55 0 109 21 151 63l22 -22c-48 -48 -111 -72 -174 -72s-125 24 -173 72l22 22c42 -42 97 -63 152 -63z" />
    <glyph glyph-name="Uhungarumlaut" unicode="&#x170;" horiz-adv-x="603" 
d="M483 172c0 -100 -82 -181 -182 -181s-181 81 -181 181v513h34v-513c0 -81 66 -148 147 -148c82 0 148 67 148 148v513h34v-513zM416 858l-72 -146l-28 13l72 147zM287 858l-72 -146l-28 13l72 147z" />
    <glyph glyph-name="Umacron" unicode="&#x16a;" horiz-adv-x="603" 
d="M483 172c0 -100 -82 -181 -182 -181s-181 81 -181 181v513h34v-513c0 -81 66 -148 147 -148c82 0 148 67 148 148v513h34v-513zM461 808v-31h-319v31h319z" />
    <glyph glyph-name="Uring" unicode="&#x16e;" horiz-adv-x="603" 
d="M483 172c0 -100 -82 -181 -182 -181s-181 81 -181 181v513h34v-513c0 -81 66 -148 147 -148c82 0 148 67 148 148v513h34v-513zM399 808c0 -55 -44 -99 -99 -99s-99 44 -99 99s44 99 99 99s99 -44 99 -99zM371 808c0 39 -32 71 -71 71s-71 -32 -71 -71s32 -71 71 -71
s71 32 71 71z" />
    <glyph glyph-name="Utilde" unicode="&#x168;" horiz-adv-x="603" 
d="M483 172c0 -100 -82 -181 -182 -181s-181 81 -181 181v513h34v-513c0 -81 66 -148 147 -148c82 0 148 67 148 148v513h34v-513zM462 834c0 -51 -37 -90 -91 -90c-36 0 -58 18 -79 36c-18 15 -36 29 -60 29c-36 0 -60 -26 -60 -61h-31v3c0 50 37 89 91 89
c36 0 58 -19 79 -36c18 -15 36 -29 60 -29c36 0 60 26 60 62h31v-3z" />
    <glyph glyph-name="Uogonek" unicode="&#x172;" horiz-adv-x="603" 
d="M370 -199c-64 0 -117 53 -117 117c0 28 11 54 29 74c-91 10 -162 86 -162 180v513h34v-513c0 -81 66 -148 147 -148c82 0 148 67 148 148v513h34v-513c0 -84 -58 -155 -136 -175c-34 -10 -60 -42 -60 -79c0 -46 38 -83 83 -83v-34z" />
    <glyph glyph-name="V" unicode="V" horiz-adv-x="572" 
d="M286 70l234 615h37l-271 -706l-271 706h37z" />
    <glyph glyph-name="W" unicode="W" horiz-adv-x="818" 
d="M803 685l-226 -706l-168 593l-168 -593l-226 706h37l187 -594l168 594h4l168 -594l187 594h37z" />
    <glyph glyph-name="Wacute" unicode="&#x1e82;" horiz-adv-x="818" 
d="M803 685l-226 -706l-168 593l-168 -593l-226 706h37l187 -594l168 594h4l168 -594l187 594h37zM352 713l-22 21l136 137l22 -22z" />
    <glyph glyph-name="Wcircumflex" unicode="&#x174;" horiz-adv-x="818" 
d="M803 685l-226 -706l-168 593l-168 -593l-226 706h37l187 -594l168 594h4l168 -594l187 594h37zM295 713l-22 21l136 137l137 -137l-22 -21l-115 114z" />
    <glyph glyph-name="Wdieresis" unicode="&#x1e84;" horiz-adv-x="818" 
d="M803 685l-226 -706l-168 593l-168 -593l-226 706h37l187 -594l168 594h4l168 -594l187 594h37zM301 792c0 18 14 31 31 31s31 -13 31 -31c0 -17 -14 -31 -31 -31s-31 14 -31 31zM456 792c0 18 14 31 31 31s31 -13 31 -31c0 -17 -14 -31 -31 -31s-31 14 -31 31z" />
    <glyph glyph-name="Wgrave" unicode="&#x1e80;" horiz-adv-x="818" 
d="M803 685l-226 -706l-168 593l-168 -593l-226 706h37l187 -594l168 594h4l168 -594l187 594h37zM488 734l-22 -21l-136 136l22 22z" />
    <glyph glyph-name="W.alt2" horiz-adv-x="801" 
d="M517 77l232 608h37l-271 -706l-114 352l-115 -352l-271 706h37l232 -608l116 357z" />
    <glyph glyph-name="Wacute.alt2" horiz-adv-x="801" 
d="M517 77l232 608h37l-271 -706l-114 352l-115 -352l-271 706h37l232 -608l116 357zM343 713l-22 21l136 137l22 -22z" />
    <glyph glyph-name="Wcircumflex.alt2" horiz-adv-x="801" 
d="M517 77l232 608h37l-271 -706l-114 352l-115 -352l-271 706h37l232 -608l116 357zM286 713l-22 21l136 137l137 -137l-22 -21l-115 114z" />
    <glyph glyph-name="Wdieresis.alt2" horiz-adv-x="801" 
d="M517 77l232 608h37l-271 -706l-114 352l-115 -352l-271 706h37l232 -608l116 357zM292 792c0 18 14 31 31 31s31 -13 31 -31c0 -17 -14 -31 -31 -31s-31 14 -31 31zM447 792c0 18 14 31 31 31s31 -13 31 -31c0 -17 -14 -31 -31 -31s-31 14 -31 31z" />
    <glyph glyph-name="Wgrave.alt2" horiz-adv-x="801" 
d="M517 77l232 608h37l-271 -706l-114 352l-115 -352l-271 706h37l232 -608l116 357zM479 734l-22 -21l-136 136l22 22z" />
    <glyph glyph-name="X" unicode="X" horiz-adv-x="519" 
d="M489 0h-39l-190 315l-191 -315h-39l210 347l-204 338h40l184 -305l184 305h39l-204 -338z" />
    <glyph glyph-name="Y" unicode="Y" horiz-adv-x="559" 
d="M544 685l-248 -411v-274h-34v275l-247 410h40l225 -373l224 373h40z" />
    <glyph glyph-name="Yacute" unicode="&#xdd;" horiz-adv-x="559" 
d="M544 685l-248 -411v-274h-34v275l-247 410h40l225 -373l224 373h40zM222 713l-22 21l136 137l22 -22z" />
    <glyph glyph-name="Ygrave" unicode="&#x1ef2;" horiz-adv-x="559" 
d="M544 685l-248 -411v-274h-34v275l-247 410h40l225 -373l224 373h40zM358 734l-22 -21l-136 136l22 22z" />
    <glyph glyph-name="Ycircumflex" unicode="&#x176;" horiz-adv-x="559" 
d="M544 685l-248 -411v-274h-34v275l-247 410h40l225 -373l224 373h40zM165 713l-22 21l136 137l137 -137l-22 -21l-115 114z" />
    <glyph glyph-name="Ydieresis" unicode="&#x178;" horiz-adv-x="559" 
d="M544 685l-248 -411v-274h-34v275l-247 410h40l225 -373l224 373h40zM171 792c0 18 14 31 31 31s31 -13 31 -31c0 -17 -14 -31 -31 -31s-31 14 -31 31zM326 792c0 18 14 31 31 31s31 -13 31 -31c0 -17 -14 -31 -31 -31s-31 14 -31 31z" />
    <glyph glyph-name="Y.alt1" horiz-adv-x="529" 
d="M514 685l-413 -685h-40l189 312l-225 373h39l206 -340l205 340h39z" />
    <glyph glyph-name="Yacute.alt1" horiz-adv-x="529" 
d="M514 685l-413 -685h-40l189 312l-225 373h39l206 -340l205 340h39zM212 713l-22 21l136 137l22 -22z" />
    <glyph glyph-name="Ygrave.alt1" horiz-adv-x="529" 
d="M514 685l-413 -685h-40l189 312l-225 373h39l206 -340l205 340h39zM348 734l-22 -21l-136 136l22 22z" />
    <glyph glyph-name="Ycircumflex.alt1" horiz-adv-x="529" 
d="M514 685l-413 -685h-40l189 312l-225 373h39l206 -340l205 340h39zM155 713l-22 21l136 137l137 -137l-22 -21l-115 114z" />
    <glyph glyph-name="Ydieresis.alt1" horiz-adv-x="529" 
d="M514 685l-413 -685h-40l189 312l-225 373h39l206 -340l205 340h39zM161 792c0 18 14 31 31 31s31 -13 31 -31c0 -17 -14 -31 -31 -31s-31 14 -31 31zM316 792c0 18 14 31 31 31s31 -13 31 -31c0 -17 -14 -31 -31 -31s-31 14 -31 31z" />
    <glyph glyph-name="Z" unicode="Z" horiz-adv-x="433" 
d="M396 0h-359l305 651h-296v34h350l-305 -651h305v-34z" />
    <glyph glyph-name="Zacute" unicode="&#x179;" horiz-adv-x="433" 
d="M396 0h-359l305 651h-296v34h350l-305 -651h305v-34zM159 713l-22 21l136 137l22 -22z" />
    <glyph glyph-name="Zcaron" unicode="&#x17d;" horiz-adv-x="433" 
d="M396 0h-359l305 651h-296v34h350l-305 -651h305v-34zM331 864l22 -22l-137 -136l-136 136l22 22l114 -115z" />
    <glyph glyph-name="Zdotaccent" unicode="&#x17b;" horiz-adv-x="433" 
d="M396 0h-359l305 651h-296v34h350l-305 -651h305v-34zM188 792c0 18 14 31 31 31s31 -13 31 -31c0 -17 -14 -31 -31 -31s-31 14 -31 31z" />
    <glyph glyph-name="Eth" unicode="&#xd0;" horiz-adv-x="594" 
d="M30 328v31h90v326h72c189 0 342 -154 342 -343s-153 -342 -342 -342h-72v328h-90zM500 342c0 171 -138 309 -308 309h-38v-292h171v-31h-171v-294h38c170 0 308 138 308 308z" />
    <glyph glyph-name="Thorn" unicode="&#xde;" horiz-adv-x="493" 
d="M428 339c0 -131 -106 -237 -237 -237h-37v-102h-34v685h34v-109h37c131 0 237 -106 237 -237zM394 339c0 112 -91 203 -203 203h-37v-406h37c112 0 203 91 203 203z" />
    <glyph glyph-name="a" unicode="a" horiz-adv-x="525" 
d="M411 76v271c-36 33 -83 56 -135 56c-105 0 -192 -87 -192 -192s87 -191 192 -191c52 0 99 22 135 56zM411 0v31c-38 -28 -84 -45 -135 -45c-125 0 -226 100 -226 225c0 124 101 226 226 226c50 0 97 -18 135 -46v32h34v-423h-34z" />
    <glyph glyph-name="aacute" unicode="&#xe1;" horiz-adv-x="525" 
d="M411 76v271c-36 33 -83 56 -135 56c-105 0 -192 -87 -192 -192s87 -191 192 -191c52 0 99 22 135 56zM411 0v31c-38 -28 -84 -45 -135 -45c-125 0 -226 100 -226 225c0 124 101 226 226 226c50 0 97 -18 135 -46v32h34v-423h-34zM205 481l-22 21l136 137l22 -22z" />
    <glyph glyph-name="agrave" unicode="&#xe0;" horiz-adv-x="525" 
d="M411 76v271c-36 33 -83 56 -135 56c-105 0 -192 -87 -192 -192s87 -191 192 -191c52 0 99 22 135 56zM411 0v31c-38 -28 -84 -45 -135 -45c-125 0 -226 100 -226 225c0 124 101 226 226 226c50 0 97 -18 135 -46v32h34v-423h-34zM341 504l-22 -21l-136 136l22 22z" />
    <glyph glyph-name="acircumflex" unicode="&#xe2;" horiz-adv-x="525" 
d="M411 76v271c-36 33 -83 56 -135 56c-105 0 -192 -87 -192 -192s87 -191 192 -191c52 0 99 22 135 56zM411 0v31c-38 -28 -84 -45 -135 -45c-125 0 -226 100 -226 225c0 124 101 226 226 226c50 0 97 -18 135 -46v32h34v-423h-34zM148 489l-22 21l136 137l137 -137
l-22 -21l-115 114z" />
    <glyph glyph-name="adieresis" unicode="&#xe4;" horiz-adv-x="525" 
d="M411 76v271c-36 33 -83 56 -135 56c-105 0 -192 -87 -192 -192s87 -191 192 -191c52 0 99 22 135 56zM411 0v31c-38 -28 -84 -45 -135 -45c-125 0 -226 100 -226 225c0 124 101 226 226 226c50 0 97 -18 135 -46v32h34v-423h-34zM154 559c0 18 14 31 31 31s31 -13 31 -31
c0 -17 -14 -31 -31 -31s-31 14 -31 31zM309 559c0 18 14 31 31 31s31 -13 31 -31c0 -17 -14 -31 -31 -31s-31 14 -31 31z" />
    <glyph glyph-name="atilde" unicode="&#xe3;" horiz-adv-x="525" 
d="M411 76v271c-36 33 -83 56 -135 56c-105 0 -192 -87 -192 -192s87 -191 192 -191c52 0 99 22 135 56zM411 0v31c-38 -28 -84 -45 -135 -45c-125 0 -226 100 -226 225c0 124 101 226 226 226c50 0 97 -18 135 -46v32h34v-423h-34zM423 602c0 -51 -37 -90 -91 -90
c-36 0 -58 18 -79 36c-18 15 -36 29 -60 29c-36 0 -60 -26 -60 -61h-31v3c0 50 37 89 91 89c36 0 58 -19 79 -36c18 -15 36 -29 60 -29c36 0 60 26 60 62h31v-3z" />
    <glyph glyph-name="aring" unicode="&#xe5;" horiz-adv-x="525" 
d="M411 76v271c-36 33 -83 56 -135 56c-105 0 -192 -87 -192 -192s87 -191 192 -191c52 0 99 22 135 56zM411 0v31c-38 -28 -84 -45 -135 -45c-125 0 -226 100 -226 225c0 124 101 226 226 226c50 0 97 -18 135 -46v32h34v-423h-34zM361 561c0 -55 -44 -99 -99 -99
s-99 44 -99 99s44 99 99 99s99 -44 99 -99zM333 561c0 39 -32 71 -71 71s-71 -32 -71 -71s32 -71 71 -71s71 32 71 71z" />
    <glyph glyph-name="abreve" unicode="&#x103;" horiz-adv-x="525" 
d="M411 76v271c-36 33 -83 56 -135 56c-105 0 -192 -87 -192 -192s87 -191 192 -191c52 0 99 22 135 56zM411 0v31c-38 -28 -84 -45 -135 -45c-125 0 -226 100 -226 225c0 124 101 226 226 226c50 0 97 -18 135 -46v32h34v-423h-34zM263 545c55 0 109 21 151 63l22 -22
c-48 -48 -111 -72 -174 -72s-125 24 -173 72l22 22c42 -42 97 -63 152 -63z" />
    <glyph glyph-name="amacron" unicode="&#x101;" horiz-adv-x="525" 
d="M411 76v271c-36 33 -83 56 -135 56c-105 0 -192 -87 -192 -192s87 -191 192 -191c52 0 99 22 135 56zM411 0v31c-38 -28 -84 -45 -135 -45c-125 0 -226 100 -226 225c0 124 101 226 226 226c50 0 97 -18 135 -46v32h34v-423h-34zM422 575v-31h-319v31h319z" />
    <glyph glyph-name="aogonek" unicode="&#x105;" horiz-adv-x="525" 
d="M445 -199c-64 0 -117 50 -117 111c0 50 35 92 83 105v22c-38 -30 -84 -53 -135 -53c-125 0 -226 100 -226 225c0 124 101 226 226 226c50 0 97 -18 135 -46v32h34v-423c-45 0 -83 -37 -83 -82c0 -46 38 -83 83 -83v-34zM411 76v271c-36 33 -83 56 -135 56
c-105 0 -192 -87 -192 -192s87 -191 192 -191c52 0 99 22 135 56z" />
    <glyph glyph-name="a.alt1" horiz-adv-x="404" 
d="M324 291v-291h-34v11c-25 -15 -53 -25 -85 -25c-86 0 -155 69 -155 155c0 85 69 155 155 155c32 0 60 -10 85 -26v21c0 68 -46 112 -107 112c-5 0 -11 0 -21 -1v34c7 1 16 1 21 1c77 0 141 -51 141 -146zM205 20c33 0 63 14 85 35v172c-22 21 -52 35 -85 35
c-66 0 -121 -55 -121 -121c0 -67 55 -121 121 -121z" />
    <glyph glyph-name="aacute.alt1" horiz-adv-x="404" 
d="M324 291v-291h-34v11c-25 -15 -53 -25 -85 -25c-86 0 -155 69 -155 155c0 85 69 155 155 155c32 0 60 -10 85 -26v21c0 68 -46 112 -107 112c-5 0 -11 0 -21 -1v34c7 1 16 1 21 1c77 0 141 -51 141 -146zM205 20c33 0 63 14 85 35v172c-22 21 -52 35 -85 35
c-66 0 -121 -55 -121 -121c0 -67 55 -121 121 -121zM145 481l-22 21l136 137l22 -22z" />
    <glyph glyph-name="agrave.alt1" horiz-adv-x="404" 
d="M324 291v-291h-34v11c-25 -15 -53 -25 -85 -25c-86 0 -155 69 -155 155c0 85 69 155 155 155c32 0 60 -10 85 -26v21c0 68 -46 112 -107 112c-5 0 -11 0 -21 -1v34c7 1 16 1 21 1c77 0 141 -51 141 -146zM205 20c33 0 63 14 85 35v172c-22 21 -52 35 -85 35
c-66 0 -121 -55 -121 -121c0 -67 55 -121 121 -121zM281 504l-22 -21l-136 136l22 22z" />
    <glyph glyph-name="acircumflex.alt1" horiz-adv-x="404" 
d="M324 291v-291h-34v11c-25 -15 -53 -25 -85 -25c-86 0 -155 69 -155 155c0 85 69 155 155 155c32 0 60 -10 85 -26v21c0 68 -46 112 -107 112c-5 0 -11 0 -21 -1v34c7 1 16 1 21 1c77 0 141 -51 141 -146zM205 20c33 0 63 14 85 35v172c-22 21 -52 35 -85 35
c-66 0 -121 -55 -121 -121c0 -67 55 -121 121 -121zM87 489l-22 21l136 137l137 -137l-22 -21l-115 114z" />
    <glyph glyph-name="adieresis.alt1" horiz-adv-x="404" 
d="M324 291v-291h-34v11c-25 -15 -53 -25 -85 -25c-86 0 -155 69 -155 155c0 85 69 155 155 155c32 0 60 -10 85 -26v21c0 68 -46 112 -107 112c-5 0 -11 0 -21 -1v34c7 1 16 1 21 1c77 0 141 -51 141 -146zM205 20c33 0 63 14 85 35v172c-22 21 -52 35 -85 35
c-66 0 -121 -55 -121 -121c0 -67 55 -121 121 -121zM93 559c0 18 14 31 31 31s31 -13 31 -31c0 -17 -14 -31 -31 -31s-31 14 -31 31zM248 559c0 18 14 31 31 31s31 -13 31 -31c0 -17 -14 -31 -31 -31s-31 14 -31 31z" />
    <glyph glyph-name="atilde.alt1" horiz-adv-x="404" 
d="M324 291v-291h-34v11c-25 -15 -53 -25 -85 -25c-86 0 -155 69 -155 155c0 85 69 155 155 155c32 0 60 -10 85 -26v21c0 68 -46 112 -107 112c-5 0 -11 0 -21 -1v34c7 1 16 1 21 1c77 0 141 -51 141 -146zM205 20c33 0 63 14 85 35v172c-22 21 -52 35 -85 35
c-66 0 -121 -55 -121 -121c0 -67 55 -121 121 -121zM362 602c0 -51 -37 -90 -91 -90c-36 0 -58 18 -79 36c-18 15 -36 29 -60 29c-36 0 -60 -26 -60 -61h-31v3c0 50 37 89 91 89c36 0 58 -19 79 -36c18 -15 36 -29 60 -29c36 0 60 26 60 62h31v-3z" />
    <glyph glyph-name="aring.alt1" horiz-adv-x="404" 
d="M324 291v-291h-34v11c-25 -15 -53 -25 -85 -25c-86 0 -155 69 -155 155c0 85 69 155 155 155c32 0 60 -10 85 -26v21c0 68 -46 112 -107 112c-5 0 -11 0 -21 -1v34c7 1 16 1 21 1c77 0 141 -51 141 -146zM205 20c33 0 63 14 85 35v172c-22 21 -52 35 -85 35
c-66 0 -121 -55 -121 -121c0 -67 55 -121 121 -121zM301 561c0 -55 -44 -99 -99 -99s-99 44 -99 99s44 99 99 99s99 -44 99 -99zM273 561c0 39 -32 71 -71 71s-71 -32 -71 -71s32 -71 71 -71s71 32 71 71z" />
    <glyph glyph-name="abreve.alt1" horiz-adv-x="404" 
d="M324 291v-291h-34v11c-25 -15 -53 -25 -85 -25c-86 0 -155 69 -155 155c0 85 69 155 155 155c32 0 60 -10 85 -26v21c0 68 -46 112 -107 112c-5 0 -11 0 -21 -1v34c7 1 16 1 21 1c77 0 141 -51 141 -146zM205 20c33 0 63 14 85 35v172c-22 21 -52 35 -85 35
c-66 0 -121 -55 -121 -121c0 -67 55 -121 121 -121zM203 545c55 0 109 21 151 63l22 -22c-48 -48 -111 -72 -174 -72s-125 24 -173 72l22 22c42 -42 97 -63 152 -63z" />
    <glyph glyph-name="amacron.alt1" horiz-adv-x="404" 
d="M324 291v-291h-34v11c-25 -15 -53 -25 -85 -25c-86 0 -155 69 -155 155c0 85 69 155 155 155c32 0 60 -10 85 -26v21c0 68 -46 112 -107 112c-5 0 -11 0 -21 -1v34c7 1 16 1 21 1c77 0 141 -51 141 -146zM205 20c33 0 63 14 85 35v172c-22 21 -52 35 -85 35
c-66 0 -121 -55 -121 -121c0 -67 55 -121 121 -121zM361 575v-31h-319v31h319z" />
    <glyph glyph-name="aogonek.alt1" horiz-adv-x="404" 
d="M324 -199c-64 0 -117 50 -117 111c0 34 17 65 43 85c-14 -6 -29 -11 -45 -11c-86 0 -155 69 -155 155c0 85 69 155 155 155c32 0 60 -10 85 -26v21c0 68 -46 112 -107 112c-5 0 -11 0 -21 -1v34c7 1 16 1 21 1c77 0 141 -51 141 -146v-291c-45 0 -83 -37 -83 -82
c0 -46 38 -83 83 -83v-34zM205 20c33 0 63 14 85 35v172c-22 21 -52 35 -85 35c-66 0 -121 -55 -121 -121c0 -67 55 -121 121 -121z" />
    <glyph glyph-name="ae" unicode="&#xe6;" horiz-adv-x="851" 
d="M276 -14c-125 0 -226 100 -226 225c0 124 101 226 226 226c50 0 97 -18 135 -46v32h34v-32c38 29 84 46 135 46c117 0 215 -87 225 -218c1 -13 1 -17 1 -25h-361v-118c36 -33 83 -56 135 -56s99 22 135 56l24 -24c-41 -41 -97 -66 -159 -66c-51 0 -97 17 -135 46v-32h-34
v31c-38 -28 -84 -45 -135 -45zM276 20c52 0 99 22 135 56v271c-36 33 -83 56 -135 56c-105 0 -192 -87 -192 -192s87 -191 192 -191zM580 403c-47 0 -100 -21 -135 -56v-119h326c-8 96 -91 175 -191 175z" />
    <glyph glyph-name="aeacute" unicode="&#x1fd;" horiz-adv-x="851" 
d="M276 -14c-125 0 -226 100 -226 225c0 124 101 226 226 226c50 0 97 -18 135 -46v32h34v-32c38 29 84 46 135 46c117 0 215 -87 225 -218c1 -13 1 -17 1 -25h-361v-118c36 -33 83 -56 135 -56s99 22 135 56l24 -24c-41 -41 -97 -66 -159 -66c-51 0 -97 17 -135 46v-32h-34
v31c-38 -28 -84 -45 -135 -45zM276 20c52 0 99 22 135 56v271c-36 33 -83 56 -135 56c-105 0 -192 -87 -192 -192s87 -191 192 -191zM580 403c-47 0 -100 -21 -135 -56v-119h326c-8 96 -91 175 -191 175zM371 481l-22 21l136 137l22 -22z" />
    <glyph glyph-name="ae.alt1" horiz-adv-x="667" 
d="M50 141c0 85 69 155 155 155c32 0 60 -10 85 -26v21c0 68 -46 112 -107 112c-5 0 -11 0 -21 -1v34c7 1 16 1 21 1c50 0 94 -22 119 -63c41 39 96 63 157 63c62 0 118 -25 159 -66l14 -16l-293 -293c34 -26 75 -42 120 -42c52 0 99 22 135 56l24 -24
c-41 -41 -97 -66 -159 -66c-51 0 -97 17 -135 46v-32h-34v11c-25 -15 -53 -25 -85 -25c-86 0 -155 69 -155 155zM324 291v-196l260 260c-34 29 -78 48 -125 48c-56 0 -107 -25 -142 -63c4 -15 7 -31 7 -49zM205 20c33 0 63 14 85 35v172c-22 21 -52 35 -85 35
c-66 0 -121 -55 -121 -121c0 -67 55 -121 121 -121z" />
    <glyph glyph-name="aeacute.alt1" horiz-adv-x="667" 
d="M50 141c0 85 69 155 155 155c32 0 60 -10 85 -26v21c0 68 -46 112 -107 112c-5 0 -11 0 -21 -1v34c7 1 16 1 21 1c50 0 94 -22 119 -63c41 39 96 63 157 63c62 0 118 -25 159 -66l14 -16l-293 -293c34 -26 75 -42 120 -42c52 0 99 22 135 56l24 -24
c-41 -41 -97 -66 -159 -66c-51 0 -97 17 -135 46v-32h-34v11c-25 -15 -53 -25 -85 -25c-86 0 -155 69 -155 155zM324 291v-196l260 260c-34 29 -78 48 -125 48c-56 0 -107 -25 -142 -63c4 -15 7 -31 7 -49zM205 20c33 0 63 14 85 35v172c-22 21 -52 35 -85 35
c-66 0 -121 -55 -121 -121c0 -67 55 -121 121 -121zM250 481l-22 21l136 137l22 -22z" />
    <glyph glyph-name="ae.alt2" horiz-adv-x="788" 
d="M411 0v31c-38 -28 -84 -45 -135 -45c-125 0 -226 100 -226 225c0 124 101 226 226 226c50 0 97 -18 135 -46v32h34v-31c38 28 84 45 135 45c62 0 118 -25 159 -66l14 -16l-293 -293c34 -26 75 -42 120 -42c52 0 99 22 135 56l24 -24c-41 -41 -97 -66 -159 -66
c-51 0 -97 17 -135 46v-32h-34zM411 76v271c-36 33 -83 56 -135 56c-105 0 -192 -87 -192 -192s87 -191 192 -191c52 0 99 22 135 56zM580 403c-53 0 -101 -22 -135 -57v-251l260 260c-34 29 -78 48 -125 48z" />
    <glyph glyph-name="aeacute.alt2" horiz-adv-x="788" 
d="M411 0v31c-38 -28 -84 -45 -135 -45c-125 0 -226 100 -226 225c0 124 101 226 226 226c50 0 97 -18 135 -46v32h34v-31c38 28 84 45 135 45c62 0 118 -25 159 -66l14 -16l-293 -293c34 -26 75 -42 120 -42c52 0 99 22 135 56l24 -24c-41 -41 -97 -66 -159 -66
c-51 0 -97 17 -135 46v-32h-34zM411 76v271c-36 33 -83 56 -135 56c-105 0 -192 -87 -192 -192s87 -191 192 -191c52 0 99 22 135 56zM580 403c-53 0 -101 -22 -135 -57v-251l260 260c-34 29 -78 48 -125 48zM371 481l-22 21l136 137l22 -22z" />
    <glyph glyph-name="ae.alt3" horiz-adv-x="730" 
d="M205 296c32 0 60 -10 85 -26v21c0 68 -46 112 -107 112c-5 0 -11 0 -21 -1v34c7 1 16 1 21 1c50 0 95 -22 120 -63c40 39 95 63 156 63c117 0 215 -87 225 -218c1 -13 1 -17 1 -25h-361v-118c36 -33 83 -56 135 -56s99 22 135 56l24 -24c-41 -41 -97 -66 -159 -66
c-51 0 -97 17 -135 46v-32h-34v11c-25 -15 -53 -25 -85 -25c-86 0 -155 69 -155 155c0 85 69 155 155 155zM459 403c-50 0 -106 -24 -142 -63c5 -15 7 -31 7 -49v-63h326c-8 96 -91 175 -191 175zM205 20c33 0 63 14 85 35v172c-22 21 -52 35 -85 35
c-66 0 -121 -55 -121 -121c0 -67 55 -121 121 -121z" />
    <glyph glyph-name="aeacute.alt3" horiz-adv-x="730" 
d="M205 296c32 0 60 -10 85 -26v21c0 68 -46 112 -107 112c-5 0 -11 0 -21 -1v34c7 1 16 1 21 1c50 0 95 -22 120 -63c40 39 95 63 156 63c117 0 215 -87 225 -218c1 -13 1 -17 1 -25h-361v-118c36 -33 83 -56 135 -56s99 22 135 56l24 -24c-41 -41 -97 -66 -159 -66
c-51 0 -97 17 -135 46v-32h-34v11c-25 -15 -53 -25 -85 -25c-86 0 -155 69 -155 155c0 85 69 155 155 155zM459 403c-50 0 -106 -24 -142 -63c5 -15 7 -31 7 -49v-63h326c-8 96 -91 175 -191 175zM205 20c33 0 63 14 85 35v172c-22 21 -52 35 -85 35
c-66 0 -121 -55 -121 -121c0 -67 55 -121 121 -121zM250 481l-22 21l136 137l22 -22z" />
    <glyph glyph-name="b" unicode="b" horiz-adv-x="525" 
d="M114 685v-294c38 29 84 46 135 46c125 0 226 -100 226 -225c0 -124 -101 -226 -226 -226c-51 0 -97 17 -135 46v-32h-34v685h34zM249 403c-52 0 -99 -22 -135 -56v-271c36 -33 83 -56 135 -56c105 0 192 87 192 192s-87 191 -192 191z" />
    <glyph glyph-name="c" unicode="c" horiz-adv-x="475" 
d="M411 76l24 -24c-41 -41 -97 -66 -159 -66c-125 0 -226 100 -226 225c0 124 101 226 226 226c62 0 118 -26 159 -67l-24 -23c-36 33 -83 56 -135 56c-105 0 -192 -87 -192 -192s87 -191 192 -191c52 0 99 22 135 56z" />
    <glyph glyph-name="ccedilla" unicode="&#xe7;" horiz-adv-x="475" 
d="M279 -199l-25 25c21 20 31 47 31 74s-10 54 -31 75l11 11c-120 6 -215 103 -215 225c0 124 101 226 226 226c62 0 118 -26 159 -67l-24 -23c-36 33 -83 56 -135 56c-105 0 -192 -87 -192 -192s87 -191 192 -191c52 0 99 22 135 56l24 -24c-38 -38 -88 -62 -144 -65
c19 -26 29 -56 29 -87c0 -36 -14 -72 -41 -99z" />
    <glyph glyph-name="cacute" unicode="&#x107;" horiz-adv-x="475" 
d="M411 76l24 -24c-41 -41 -97 -66 -159 -66c-125 0 -226 100 -226 225c0 124 101 226 226 226c62 0 118 -26 159 -67l-24 -23c-36 33 -83 56 -135 56c-105 0 -192 -87 -192 -192s87 -191 192 -191c52 0 99 22 135 56zM219 481l-22 21l136 137l22 -22z" />
    <glyph glyph-name="ccaron" unicode="&#x10d;" horiz-adv-x="475" 
d="M411 76l24 -24c-41 -41 -97 -66 -159 -66c-125 0 -226 100 -226 225c0 124 101 226 226 226c62 0 118 -26 159 -67l-24 -23c-36 33 -83 56 -135 56c-105 0 -192 -87 -192 -192s87 -191 192 -191c52 0 99 22 135 56zM390 632l22 -22l-137 -136l-136 136l22 22l114 -115z
" />
    <glyph glyph-name="ccircumflex" unicode="&#x109;" horiz-adv-x="475" 
d="M411 76l24 -24c-41 -41 -97 -66 -159 -66c-125 0 -226 100 -226 225c0 124 101 226 226 226c62 0 118 -26 159 -67l-24 -23c-36 33 -83 56 -135 56c-105 0 -192 -87 -192 -192s87 -191 192 -191c52 0 99 22 135 56zM162 489l-22 21l136 137l137 -137l-22 -21l-115 114z
" />
    <glyph glyph-name="cdotaccent" unicode="&#x10b;" horiz-adv-x="475" 
d="M411 76l24 -24c-41 -41 -97 -66 -159 -66c-125 0 -226 100 -226 225c0 124 101 226 226 226c62 0 118 -26 159 -67l-24 -23c-36 33 -83 56 -135 56c-105 0 -192 -87 -192 -192s87 -191 192 -191c52 0 99 22 135 56zM245 560c0 18 14 31 31 31s31 -13 31 -31
c0 -17 -14 -31 -31 -31s-31 14 -31 31z" />
    <glyph glyph-name="c.alt2" horiz-adv-x="326" 
d="M276 -14c-125 0 -226 100 -226 225c0 124 101 226 226 226v-34c-105 0 -192 -87 -192 -192s87 -191 192 -191v-34z" />
    <glyph glyph-name="ccedilla.alt2" horiz-adv-x="326" 
d="M251 -199l-25 25c21 20 31 47 31 74s-10 54 -31 75l14 14c-108 17 -190 109 -190 222c0 124 101 226 226 226v-34c-105 0 -192 -87 -192 -192s87 -191 192 -191v-34h-13c19 -25 29 -56 29 -86c0 -36 -14 -72 -41 -99z" />
    <glyph glyph-name="cacute.alt2" horiz-adv-x="326" 
d="M276 -14c-125 0 -226 100 -226 225c0 124 101 226 226 226v-34c-105 0 -192 -87 -192 -192s87 -191 192 -191v-34zM190 481l-22 21l136 137l22 -22z" />
    <glyph glyph-name="ccaron.alt2" horiz-adv-x="326" 
d="M276 -14c-125 0 -226 100 -226 225c0 124 101 226 226 226v-34c-105 0 -192 -87 -192 -192s87 -191 192 -191v-34zM326 632l22 -22l-137 -136l-136 136l22 22l114 -115z" />
    <glyph glyph-name="ccircumflex.alt2" horiz-adv-x="326" 
d="M276 -14c-125 0 -226 100 -226 225c0 124 101 226 226 226v-34c-105 0 -192 -87 -192 -192s87 -191 192 -191v-34zM97 489l-22 21l136 137l137 -137l-22 -21l-115 114z" />
    <glyph glyph-name="cdotaccent.alt2" horiz-adv-x="326" 
d="M276 -14c-125 0 -226 100 -226 225c0 124 101 226 226 226v-34c-105 0 -192 -87 -192 -192s87 -191 192 -191v-34zM215 560c0 18 14 31 31 31s31 -13 31 -31c0 -17 -14 -31 -31 -31s-31 14 -31 31z" />
    <glyph glyph-name="d" unicode="d" horiz-adv-x="525" 
d="M411 0v31c-38 -28 -84 -45 -135 -45c-125 0 -226 100 -226 225c0 124 101 226 226 226c50 0 97 -18 135 -46v294h34v-685h-34zM411 76v271c-36 33 -83 56 -135 56c-105 0 -192 -87 -192 -192s87 -191 192 -191c52 0 99 22 135 56z" />
    <glyph glyph-name="dcaron" unicode="&#x10f;" horiz-adv-x="525" 
d="M411 0v31c-38 -28 -84 -45 -135 -45c-125 0 -226 100 -226 225c0 124 101 226 226 226c50 0 97 -18 135 -46v294h34v-685h-34zM411 76v271c-36 33 -83 56 -135 56c-105 0 -192 -87 -192 -192s87 -191 192 -191c52 0 99 22 135 56zM550 619l-51 -119v185h51v-66z" />
    <glyph glyph-name="dcroat" unicode="&#x111;" horiz-adv-x="525" 
d="M411 0v31c-38 -28 -84 -45 -135 -45c-125 0 -226 100 -226 225c0 124 101 226 226 226c50 0 97 -18 135 -46v160h-205v31h205v103h34v-103h80v-31h-80v-551h-34zM411 76v271c-36 33 -83 56 -135 56c-105 0 -192 -87 -192 -192s87 -191 192 -191c52 0 99 22 135 56z" />
    <glyph glyph-name="e" unicode="e" horiz-adv-x="547" 
d="M411 76l24 -24c-41 -41 -97 -66 -159 -66c-125 0 -226 100 -226 225c0 124 101 226 226 226c117 0 215 -88 225 -220c1 -8 1 -15 1 -23h-418c9 -97 92 -174 192 -174c52 0 99 22 135 56zM276 403c-100 0 -183 -78 -192 -175h383c-9 97 -92 175 -191 175z" />
    <glyph glyph-name="eacute" unicode="&#xe9;" horiz-adv-x="547" 
d="M411 76l24 -24c-41 -41 -97 -66 -159 -66c-125 0 -226 100 -226 225c0 124 101 226 226 226c117 0 215 -88 225 -220c1 -8 1 -15 1 -23h-418c9 -97 92 -174 192 -174c52 0 99 22 135 56zM276 403c-100 0 -183 -78 -192 -175h383c-9 97 -92 175 -191 175zM214 481l-22 21
l136 137l22 -22z" />
    <glyph glyph-name="egrave" unicode="&#xe8;" horiz-adv-x="547" 
d="M411 76l24 -24c-41 -41 -97 -66 -159 -66c-125 0 -226 100 -226 225c0 124 101 226 226 226c117 0 215 -88 225 -220c1 -8 1 -15 1 -23h-418c9 -97 92 -174 192 -174c52 0 99 22 135 56zM276 403c-100 0 -183 -78 -192 -175h383c-9 97 -92 175 -191 175zM350 504l-22 -21
l-136 136l22 22z" />
    <glyph glyph-name="ecircumflex" unicode="&#xea;" horiz-adv-x="547" 
d="M411 76l24 -24c-41 -41 -97 -66 -159 -66c-125 0 -226 100 -226 225c0 124 101 226 226 226c117 0 215 -88 225 -220c1 -8 1 -15 1 -23h-418c9 -97 92 -174 192 -174c52 0 99 22 135 56zM276 403c-100 0 -183 -78 -192 -175h383c-9 97 -92 175 -191 175zM156 489l-22 21
l136 137l137 -137l-22 -21l-115 114z" />
    <glyph glyph-name="edieresis" unicode="&#xeb;" horiz-adv-x="547" 
d="M411 76l24 -24c-41 -41 -97 -66 -159 -66c-125 0 -226 100 -226 225c0 124 101 226 226 226c117 0 215 -88 225 -220c1 -8 1 -15 1 -23h-418c9 -97 92 -174 192 -174c52 0 99 22 135 56zM276 403c-100 0 -183 -78 -192 -175h383c-9 97 -92 175 -191 175zM162 559
c0 18 14 31 31 31s31 -13 31 -31c0 -17 -14 -31 -31 -31s-31 14 -31 31zM317 559c0 18 14 31 31 31s31 -13 31 -31c0 -17 -14 -31 -31 -31s-31 14 -31 31z" />
    <glyph glyph-name="ebreve" unicode="&#x115;" horiz-adv-x="547" 
d="M411 76l24 -24c-41 -41 -97 -66 -159 -66c-125 0 -226 100 -226 225c0 124 101 226 226 226c117 0 215 -88 225 -220c1 -8 1 -15 1 -23h-418c9 -97 92 -174 192 -174c52 0 99 22 135 56zM276 403c-100 0 -183 -78 -192 -175h383c-9 97 -92 175 -191 175zM271 545
c55 0 109 21 151 63l22 -22c-48 -48 -111 -72 -174 -72s-125 24 -173 72l22 22c42 -42 97 -63 152 -63z" />
    <glyph glyph-name="ecaron" unicode="&#x11b;" horiz-adv-x="547" 
d="M411 76l24 -24c-41 -41 -97 -66 -159 -66c-125 0 -226 100 -226 225c0 124 101 226 226 226c117 0 215 -88 225 -220c1 -8 1 -15 1 -23h-418c9 -97 92 -174 192 -174c52 0 99 22 135 56zM276 403c-100 0 -183 -78 -192 -175h383c-9 97 -92 175 -191 175zM385 632l22 -22
l-137 -136l-136 136l22 22l114 -115z" />
    <glyph glyph-name="edotaccent" unicode="&#x117;" horiz-adv-x="547" 
d="M411 76l24 -24c-41 -41 -97 -66 -159 -66c-125 0 -226 100 -226 225c0 124 101 226 226 226c117 0 215 -88 225 -220c1 -8 1 -15 1 -23h-418c9 -97 92 -174 192 -174c52 0 99 22 135 56zM276 403c-100 0 -183 -78 -192 -175h383c-9 97 -92 175 -191 175zM240 560
c0 18 14 31 31 31s31 -13 31 -31c0 -17 -14 -31 -31 -31s-31 14 -31 31z" />
    <glyph glyph-name="emacron" unicode="&#x113;" horiz-adv-x="547" 
d="M411 76l24 -24c-41 -41 -97 -66 -159 -66c-125 0 -226 100 -226 225c0 124 101 226 226 226c117 0 215 -88 225 -220c1 -8 1 -15 1 -23h-418c9 -97 92 -174 192 -174c52 0 99 22 135 56zM276 403c-100 0 -183 -78 -192 -175h383c-9 97 -92 175 -191 175zM430 575v-31
h-319v31h319z" />
    <glyph glyph-name="eogonek" unicode="&#x119;" horiz-adv-x="547" 
d="M368 -199c-64 0 -117 53 -117 117c0 25 8 49 22 68c-123 1 -223 101 -223 225s101 226 226 226c117 0 215 -88 225 -220c1 -8 1 -15 1 -23h-418c9 -97 92 -174 192 -174c52 0 99 22 135 56l24 -24c-27 -27 -59 -46 -96 -57c-31 -12 -54 -42 -54 -77c0 -46 38 -83 83 -83
v-34zM276 403c-100 0 -183 -78 -192 -175h383c-9 97 -92 175 -191 175z" />
    <glyph glyph-name="e.alt1" horiz-adv-x="484" 
d="M411 76l24 -24c-41 -41 -97 -66 -159 -66c-125 0 -226 100 -226 225c0 124 101 226 226 226c62 0 118 -25 159 -66l14 -16l-293 -293c33 -27 75 -42 120 -42c52 0 99 22 135 56zM84 211c0 -48 18 -92 47 -126l270 270c-34 29 -78 48 -125 48c-105 0 -192 -87 -192 -192z
" />
    <glyph glyph-name="eacute.alt1" horiz-adv-x="484" 
d="M411 76l24 -24c-41 -41 -97 -66 -159 -66c-125 0 -226 100 -226 225c0 124 101 226 226 226c62 0 118 -25 159 -66l14 -16l-293 -293c33 -27 75 -42 120 -42c52 0 99 22 135 56zM84 211c0 -48 18 -92 47 -126l270 270c-34 29 -78 48 -125 48c-105 0 -192 -87 -192 -192z
M192 481l-22 21l136 137l22 -22z" />
    <glyph glyph-name="egrave.alt1" horiz-adv-x="484" 
d="M411 76l24 -24c-41 -41 -97 -66 -159 -66c-125 0 -226 100 -226 225c0 124 101 226 226 226c62 0 118 -25 159 -66l14 -16l-293 -293c33 -27 75 -42 120 -42c52 0 99 22 135 56zM84 211c0 -48 18 -92 47 -126l270 270c-34 29 -78 48 -125 48c-105 0 -192 -87 -192 -192z
M328 504l-22 -21l-136 136l22 22z" />
    <glyph glyph-name="ecircumflex.alt1" horiz-adv-x="484" 
d="M411 76l24 -24c-41 -41 -97 -66 -159 -66c-125 0 -226 100 -226 225c0 124 101 226 226 226c62 0 118 -25 159 -66l14 -16l-293 -293c33 -27 75 -42 120 -42c52 0 99 22 135 56zM84 211c0 -48 18 -92 47 -126l270 270c-34 29 -78 48 -125 48c-105 0 -192 -87 -192 -192z
M135 489l-22 21l136 137l137 -137l-22 -21l-115 114z" />
    <glyph glyph-name="edieresis.alt1" horiz-adv-x="484" 
d="M411 76l24 -24c-41 -41 -97 -66 -159 -66c-125 0 -226 100 -226 225c0 124 101 226 226 226c62 0 118 -25 159 -66l14 -16l-293 -293c33 -27 75 -42 120 -42c52 0 99 22 135 56zM84 211c0 -48 18 -92 47 -126l270 270c-34 29 -78 48 -125 48c-105 0 -192 -87 -192 -192z
M141 559c0 18 14 31 31 31s31 -13 31 -31c0 -17 -14 -31 -31 -31s-31 14 -31 31zM296 559c0 18 14 31 31 31s31 -13 31 -31c0 -17 -14 -31 -31 -31s-31 14 -31 31z" />
    <glyph glyph-name="ebreve.alt1" horiz-adv-x="484" 
d="M411 76l24 -24c-41 -41 -97 -66 -159 -66c-125 0 -226 100 -226 225c0 124 101 226 226 226c62 0 118 -25 159 -66l14 -16l-293 -293c33 -27 75 -42 120 -42c52 0 99 22 135 56zM84 211c0 -48 18 -92 47 -126l270 270c-34 29 -78 48 -125 48c-105 0 -192 -87 -192 -192z
M250 545c55 0 109 21 151 63l22 -22c-48 -48 -111 -72 -174 -72s-125 24 -173 72l22 22c42 -42 97 -63 152 -63z" />
    <glyph glyph-name="ecaron.alt1" horiz-adv-x="484" 
d="M411 76l24 -24c-41 -41 -97 -66 -159 -66c-125 0 -226 100 -226 225c0 124 101 226 226 226c62 0 118 -25 159 -66l14 -16l-293 -293c33 -27 75 -42 120 -42c52 0 99 22 135 56zM84 211c0 -48 18 -92 47 -126l270 270c-34 29 -78 48 -125 48c-105 0 -192 -87 -192 -192z
M364 632l22 -22l-137 -136l-136 136l22 22l114 -115z" />
    <glyph glyph-name="edotaccent.alt1" horiz-adv-x="484" 
d="M411 76l24 -24c-41 -41 -97 -66 -159 -66c-125 0 -226 100 -226 225c0 124 101 226 226 226c62 0 118 -25 159 -66l14 -16l-293 -293c33 -27 75 -42 120 -42c52 0 99 22 135 56zM84 211c0 -48 18 -92 47 -126l270 270c-34 29 -78 48 -125 48c-105 0 -192 -87 -192 -192z
M218 560c0 18 14 31 31 31s31 -13 31 -31c0 -17 -14 -31 -31 -31s-31 14 -31 31z" />
    <glyph glyph-name="emacron.alt1" horiz-adv-x="484" 
d="M411 76l24 -24c-41 -41 -97 -66 -159 -66c-125 0 -226 100 -226 225c0 124 101 226 226 226c62 0 118 -25 159 -66l14 -16l-293 -293c33 -27 75 -42 120 -42c52 0 99 22 135 56zM84 211c0 -48 18 -92 47 -126l270 270c-34 29 -78 48 -125 48c-105 0 -192 -87 -192 -192z
M409 575v-31h-319v31h319z" />
    <glyph glyph-name="eogonek.alt1" horiz-adv-x="484" 
d="M368 -199c-64 0 -117 53 -117 117c0 25 8 49 22 68c-123 1 -223 101 -223 225s101 226 226 226c62 0 118 -25 159 -66l14 -16l-293 -293c33 -27 75 -42 120 -42c52 0 99 22 135 56l24 -24c-27 -27 -59 -45 -96 -57c-31 -11 -54 -42 -54 -77c0 -46 38 -83 83 -83v-34z
M84 211c0 -48 18 -92 47 -126l270 270c-34 29 -78 48 -125 48c-105 0 -192 -87 -192 -192z" />
    <glyph glyph-name="f" unicode="f" horiz-adv-x="248" 
d="M223 423v-34h-82v-389h-34v389h-72v34h72v158c0 68 48 105 104 105c3 0 7 0 12 -1v-36c-6 1 -9 1 -12 1c-39 0 -70 -26 -70 -69v-158h82z" />
    <glyph glyph-name="fi.alt1" horiz-adv-x="442" 
d="M223 423v-34h-82v-389h-34v389h-72v34h72v158c0 68 48 105 104 105c3 0 7 0 12 -1v-36c-6 1 -9 1 -12 1c-39 0 -70 -26 -70 -69v-158h82zM362 0h-34v423h34v-423zM347 502h-4l-20 101h44z" />
    <glyph glyph-name="g" unicode="g" horiz-adv-x="525" 
d="M445 423v-426c0 -127 -86 -196 -190 -196c-6 0 -19 0 -28 2v34c14 -2 21 -2 28 -2c89 0 156 63 156 162v34c-38 -28 -84 -45 -135 -45c-125 0 -226 100 -226 225c0 124 101 226 226 226c50 0 97 -18 135 -46v32h34zM411 76v271c-36 33 -83 56 -135 56
c-105 0 -192 -87 -192 -192s87 -191 192 -191c52 0 99 22 135 56z" />
    <glyph glyph-name="gbreve" unicode="&#x11f;" horiz-adv-x="525" 
d="M445 423v-426c0 -127 -86 -196 -190 -196c-6 0 -19 0 -28 2v34c14 -2 21 -2 28 -2c89 0 156 63 156 162v34c-38 -28 -84 -45 -135 -45c-125 0 -226 100 -226 225c0 124 101 226 226 226c50 0 97 -18 135 -46v32h34zM411 76v271c-36 33 -83 56 -135 56
c-105 0 -192 -87 -192 -192s87 -191 192 -191c52 0 99 22 135 56zM263 545c55 0 109 21 151 63l22 -22c-48 -48 -111 -72 -174 -72s-125 24 -173 72l22 22c42 -42 97 -63 152 -63z" />
    <glyph glyph-name="gcircumflex" unicode="&#x11d;" horiz-adv-x="525" 
d="M445 423v-426c0 -127 -86 -196 -190 -196c-6 0 -19 0 -28 2v34c14 -2 21 -2 28 -2c89 0 156 63 156 162v34c-38 -28 -84 -45 -135 -45c-125 0 -226 100 -226 225c0 124 101 226 226 226c50 0 97 -18 135 -46v32h34zM411 76v271c-36 33 -83 56 -135 56
c-105 0 -192 -87 -192 -192s87 -191 192 -191c52 0 99 22 135 56zM148 489l-22 21l136 137l137 -137l-22 -21l-115 114z" />
    <glyph glyph-name="uni0123" unicode="&#x123;" horiz-adv-x="525" 
d="M445 423v-426c0 -127 -86 -196 -190 -196c-6 0 -19 0 -28 2v34c14 -2 21 -2 28 -2c89 0 156 63 156 162v34c-38 -28 -84 -45 -135 -45c-125 0 -226 100 -226 225c0 124 101 226 226 226c50 0 97 -18 135 -46v32h34zM411 76v271c-36 33 -83 56 -135 56
c-105 0 -192 -87 -192 -192s87 -191 192 -191c52 0 99 22 135 56zM237 575l51 69v-162h-51v93z" />
    <glyph glyph-name="gdotaccent" unicode="&#x121;" horiz-adv-x="525" 
d="M445 423v-426c0 -127 -86 -196 -190 -196c-6 0 -19 0 -28 2v34c14 -2 21 -2 28 -2c89 0 156 63 156 162v34c-38 -28 -84 -45 -135 -45c-125 0 -226 100 -226 225c0 124 101 226 226 226c50 0 97 -18 135 -46v32h34zM411 76v271c-36 33 -83 56 -135 56
c-105 0 -192 -87 -192 -192s87 -191 192 -191c52 0 99 22 135 56zM231 560c0 18 14 31 31 31s31 -13 31 -31c0 -17 -14 -31 -31 -31s-31 14 -31 31z" />
    <glyph glyph-name="g.alt1" horiz-adv-x="495" 
d="M221 96c-95 0 -171 76 -171 170s76 171 171 171c51 0 98 -23 129 -60l24 46h40l-41 -78c12 -24 19 -50 19 -78c0 -27 -6 -53 -18 -76c51 -50 71 -108 71 -163c0 -124 -100 -226 -226 -226c-57 0 -114 21 -158 64l24 25c37 -37 85 -55 134 -55c102 0 192 85 192 192
c0 45 -18 96 -56 134c-31 -40 -80 -66 -134 -66zM221 130c75 0 137 62 137 137s-62 136 -137 136s-137 -62 -137 -137c0 -74 62 -136 137 -136z" />
    <glyph glyph-name="gbreve.alt1" horiz-adv-x="495" 
d="M221 96c-95 0 -171 76 -171 170s76 171 171 171c51 0 98 -23 129 -60l24 46h40l-41 -78c12 -24 19 -50 19 -78c0 -27 -6 -53 -18 -76c51 -50 71 -108 71 -163c0 -124 -100 -226 -226 -226c-57 0 -114 21 -158 64l24 25c37 -37 85 -55 134 -55c102 0 192 85 192 192
c0 45 -18 96 -56 134c-31 -40 -80 -66 -134 -66zM221 130c75 0 137 62 137 137s-62 136 -137 136s-137 -62 -137 -137c0 -74 62 -136 137 -136zM224 545c55 0 109 21 151 63l22 -22c-48 -48 -111 -72 -174 -72s-125 24 -173 72l22 22c42 -42 97 -63 152 -63z" />
    <glyph glyph-name="gcircumflex.alt1" horiz-adv-x="495" 
d="M221 96c-95 0 -171 76 -171 170s76 171 171 171c51 0 98 -23 129 -60l24 46h40l-41 -78c12 -24 19 -50 19 -78c0 -27 -6 -53 -18 -76c51 -50 71 -108 71 -163c0 -124 -100 -226 -226 -226c-57 0 -114 21 -158 64l24 25c37 -37 85 -55 134 -55c102 0 192 85 192 192
c0 45 -18 96 -56 134c-31 -40 -80 -66 -134 -66zM221 130c75 0 137 62 137 137s-62 136 -137 136s-137 -62 -137 -137c0 -74 62 -136 137 -136zM109 489l-22 21l136 137l137 -137l-22 -21l-115 114z" />
    <glyph glyph-name="uni0123.alt1" horiz-adv-x="495" 
d="M221 96c-95 0 -171 76 -171 170s76 171 171 171c51 0 98 -23 129 -60l24 46h40l-41 -78c12 -24 19 -50 19 -78c0 -27 -6 -53 -18 -76c51 -50 71 -108 71 -163c0 -124 -100 -226 -226 -226c-57 0 -114 21 -158 64l24 25c37 -37 85 -55 134 -55c102 0 192 85 192 192
c0 45 -18 96 -56 134c-31 -40 -80 -66 -134 -66zM221 130c75 0 137 62 137 137s-62 136 -137 136s-137 -62 -137 -137c0 -74 62 -136 137 -136zM198 575l51 69v-162h-51v93z" />
    <glyph glyph-name="gdotaccent.alt1" horiz-adv-x="495" 
d="M221 96c-95 0 -171 76 -171 170s76 171 171 171c51 0 98 -23 129 -60l24 46h40l-41 -78c12 -24 19 -50 19 -78c0 -27 -6 -53 -18 -76c51 -50 71 -108 71 -163c0 -124 -100 -226 -226 -226c-57 0 -114 21 -158 64l24 25c37 -37 85 -55 134 -55c102 0 192 85 192 192
c0 45 -18 96 -56 134c-31 -40 -80 -66 -134 -66zM221 130c75 0 137 62 137 137s-62 136 -137 136s-137 -62 -137 -137c0 -74 62 -136 137 -136zM193 560c0 18 14 31 31 31s31 -13 31 -31c0 -17 -14 -31 -31 -31s-31 14 -31 31z" />
    <glyph glyph-name="h" unicode="h" 
d="M114 685v-297c21 28 58 49 108 49c72 0 129 -53 129 -140v-297h-34v297c0 70 -44 106 -95 106c-48 0 -90 -27 -108 -66v-337h-34v685h34z" />
    <glyph glyph-name="hbar" unicode="&#x127;" 
d="M114 685v-109h205v-31h-205v-157c21 28 58 49 108 49c72 0 129 -53 129 -140v-297h-34v297c0 70 -44 106 -95 106c-48 0 -90 -27 -108 -66v-337h-34v545h-80v31h80v109h34z" />
    <glyph glyph-name="hcircumflex" unicode="&#x125;" 
d="M114 685v-297c21 28 58 49 108 49c72 0 129 -53 129 -140v-297h-34v297c0 70 -44 106 -95 106c-48 0 -90 -27 -108 -66v-337h-34v685h34zM-17 751l-22 21l136 137l137 -137l-22 -21l-115 114z" />
    <glyph glyph-name="i" unicode="i" horiz-adv-x="194" 
d="M114 0h-34v423h34v-423zM114 517h-34v86h34v-86z" />
    <glyph glyph-name="dotlessi" unicode="&#x131;" horiz-adv-x="194" 
d="M114 0h-34v423h34v-423z" />
    <glyph glyph-name="iacute" unicode="&#xed;" horiz-adv-x="194" 
d="M114 0h-34v423h34v-423zM40 481l-22 21l136 137l22 -22z" />
    <glyph glyph-name="igrave" unicode="&#xec;" horiz-adv-x="194" 
d="M114 0h-34v423h34v-423zM176 504l-22 -21l-136 136l22 22z" />
    <glyph glyph-name="icircumflex" unicode="&#xee;" horiz-adv-x="194" 
d="M114 0h-34v423h34v-423zM-17 489l-22 21l136 137l137 -137l-22 -21l-115 114z" />
    <glyph glyph-name="idieresis" unicode="&#xef;" horiz-adv-x="194" 
d="M114 0h-34v423h34v-423zM-11 559c0 18 14 31 31 31s31 -13 31 -31c0 -17 -14 -31 -31 -31s-31 14 -31 31zM144 559c0 18 14 31 31 31s31 -13 31 -31c0 -17 -14 -31 -31 -31s-31 14 -31 31z" />
    <glyph glyph-name="ibreve" unicode="&#x12d;" horiz-adv-x="194" 
d="M114 0h-34v423h34v-423zM98 545c55 0 109 21 151 63l22 -22c-48 -48 -111 -72 -174 -72s-125 24 -173 72l22 22c42 -42 97 -63 152 -63z" />
    <glyph glyph-name="imacron" unicode="&#x12b;" horiz-adv-x="194" 
d="M114 0h-34v423h34v-423zM257 575v-31h-319v31h319z" />
    <glyph glyph-name="itilde" unicode="&#x129;" horiz-adv-x="194" 
d="M114 0h-34v423h34v-423zM258 602c0 -51 -37 -90 -91 -90c-36 0 -58 18 -79 36c-18 15 -36 29 -60 29c-36 0 -60 -26 -60 -61h-31v3c0 50 37 89 91 89c36 0 58 -19 79 -36c18 -15 36 -29 60 -29c36 0 60 26 60 62h31v-3z" />
    <glyph glyph-name="iogonek" unicode="&#x12f;" horiz-adv-x="194" 
d="M114 517h-34v86h34v-86zM114 -199c-64 0 -117 53 -117 117c0 52 35 96 83 111v394h34v-423c-45 0 -83 -37 -83 -82c0 -46 38 -83 83 -83v-34z" />
    <glyph glyph-name="i.dotaccent" horiz-adv-x="194" 
d="M114 0h-34v423h34v-423zM114 517h-34v86h34v-86z" />
    <glyph glyph-name="i.dotaccentalt1" horiz-adv-x="194" 
d="M114 0h-34v423h34v-423zM99 502h-4l-20 101h44z" />
    <glyph glyph-name="ij" unicode="&#x133;" horiz-adv-x="388" 
d="M114 0h-34v423h34v-423zM114 517h-34v86h34v-86zM308 423v-517c0 -68 -46 -105 -102 -105c-3 0 -7 0 -12 1v36c6 -1 9 -1 12 -1c39 0 68 26 68 69v517h34zM308 517h-34v86h34v-86z" />
    <glyph glyph-name="i.alt1" horiz-adv-x="194" 
d="M114 0h-34v423h34v-423zM99 502h-4l-20 101h44z" />
    <glyph glyph-name="iogonek.alt1" horiz-adv-x="194" 
d="M99 502h-4l-20 101h44zM114 -199c-64 0 -117 53 -117 117c0 52 35 96 83 111v394h34v-423c-45 0 -83 -37 -83 -82c0 -46 38 -83 83 -83v-34z" />
    <glyph glyph-name="ij.alt1" horiz-adv-x="388" 
d="M114 0h-34v423h34v-423zM99 502h-4l-20 101h44zM308 423v-517c0 -68 -46 -105 -102 -105c-3 0 -7 0 -12 1v36c6 -1 9 -1 12 -1c39 0 68 26 68 69v517h34zM293 502h-4l-20 101h44z" />
    <glyph glyph-name="j" unicode="j" horiz-adv-x="194" 
d="M114 423v-517c0 -68 -46 -105 -102 -105c-3 0 -7 0 -12 1v36c6 -1 9 -1 12 -1c39 0 68 26 68 69v517h34zM114 517h-34v86h34v-86z" />
    <glyph glyph-name="uni0237" unicode="&#x237;" horiz-adv-x="194" 
d="M114 423v-517c0 -68 -46 -105 -102 -105c-3 0 -7 0 -12 1v36c6 -1 9 -1 12 -1c39 0 68 26 68 69v517h34z" />
    <glyph glyph-name="jcircumflex" unicode="&#x135;" horiz-adv-x="194" 
d="M114 423v-517c0 -68 -46 -105 -102 -105c-3 0 -7 0 -12 1v36c6 -1 9 -1 12 -1c39 0 68 26 68 69v517h34zM-17 489l-22 21l136 137l137 -137l-22 -21l-115 114z" />
    <glyph glyph-name="j.alt1" horiz-adv-x="194" 
d="M114 423v-517c0 -68 -46 -105 -102 -105c-3 0 -7 0 -12 1v36c6 -1 9 -1 12 -1c39 0 68 26 68 69v517h34zM99 502h-4l-20 101h44z" />
    <glyph glyph-name="k" unicode="k" horiz-adv-x="342" 
d="M312 0h-46l-141 190l-11 -15v-175h-34v685h34v-452l141 190h46l-154 -204z" />
    <glyph glyph-name="uni0137" unicode="&#x137;" horiz-adv-x="342" 
d="M312 0h-46l-141 190l-11 -15v-175h-34v685h34v-452l141 190h46l-154 -204zM196 -143l-51 -69v162h51v-93z" />
    <glyph glyph-name="kgreenlandic" unicode="&#x138;" horiz-adv-x="342" 
d="M312 0h-46l-141 190l-11 -15v-175h-34v423h34v-190l141 190h46l-154 -204z" />
    <glyph glyph-name="k.alt1" horiz-adv-x="342" 
d="M114 685v-453l141 191h46l-154 -204l165 -219h-46l-152 205v-205h-34v685h34z" />
    <glyph glyph-name="uni0137.alt1" horiz-adv-x="342" 
d="M114 685v-453l141 191h46l-154 -204l165 -219h-46l-152 205v-205h-34v685h34zM196 -143l-51 -69v162h51v-93z" />
    <glyph glyph-name="kgreenlandic.alt1" horiz-adv-x="342" 
d="M114 423v-191l141 191h46l-154 -204l165 -219h-46l-152 205v-205h-34v423h34z" />
    <glyph glyph-name="l" unicode="l" horiz-adv-x="194" 
d="M114 0h-34v685h34v-685z" />
    <glyph glyph-name="lacute" unicode="&#x13a;" horiz-adv-x="194" 
d="M114 0h-34v685h34v-685zM40 743l-22 21l136 137l22 -22z" />
    <glyph glyph-name="lcaron" unicode="&#x13e;" horiz-adv-x="194" 
d="M114 0h-34v685h34v-685zM219 619l-51 -119v185h51v-66z" />
    <glyph glyph-name="uni013C" unicode="&#x13c;" horiz-adv-x="194" 
d="M114 0h-34v685h34v-685zM122 -143l-51 -69v162h51v-93z" />
    <glyph glyph-name="ldot" unicode="&#x140;" horiz-adv-x="265" 
d="M114 0h-34v685h34v-685zM255 159h-51v103h51v-103z" />
    <glyph glyph-name="lslash" unicode="&#x142;" horiz-adv-x="194" 
d="M114 0h-34v186l-80 -35v37l80 35v462h34v-448l80 35v-37l-80 -35v-200z" />
    <glyph glyph-name="m" unicode="m" horiz-adv-x="668" 
d="M317 297c0 70 -44 106 -95 106c-48 0 -90 -27 -108 -66v-337h-34v423h34v-35c21 28 58 49 108 49s92 -26 114 -70c22 43 70 70 123 70c72 0 129 -53 129 -140v-297h-34v297c0 70 -44 106 -95 106s-95 -31 -111 -73c2 -10 3 -21 3 -33v-297h-34v297z" />
    <glyph glyph-name="n" unicode="n" 
d="M114 423v-35c21 28 58 49 108 49c72 0 129 -53 129 -140v-297h-34v297c0 70 -44 106 -95 106c-48 0 -90 -27 -108 -66v-337h-34v423h34z" />
    <glyph glyph-name="ntilde" unicode="&#xf1;" 
d="M114 423v-35c21 28 58 49 108 49c72 0 129 -53 129 -140v-297h-34v297c0 70 -44 106 -95 106c-48 0 -90 -27 -108 -66v-337h-34v423h34zM376 602c0 -51 -37 -90 -91 -90c-36 0 -58 18 -79 36c-18 15 -36 29 -60 29c-36 0 -60 -26 -60 -61h-31v3c0 50 37 89 91 89
c36 0 58 -19 79 -36c18 -15 36 -29 60 -29c36 0 60 26 60 62h31v-3z" />
    <glyph glyph-name="nacute" unicode="&#x144;" 
d="M114 423v-35c21 28 58 49 108 49c72 0 129 -53 129 -140v-297h-34v297c0 70 -44 106 -95 106c-48 0 -90 -27 -108 -66v-337h-34v423h34zM158 481l-22 21l136 137l22 -22z" />
    <glyph glyph-name="napostrophe" unicode="&#x149;" 
d="M114 423v-35c21 28 58 49 108 49c72 0 129 -53 129 -140v-297h-34v297c0 70 -44 106 -95 106c-48 0 -90 -27 -108 -66v-337h-34v423h34zM131 619l-51 -119v185h51v-66z" />
    <glyph glyph-name="ncaron" unicode="&#x148;" 
d="M114 423v-35c21 28 58 49 108 49c72 0 129 -53 129 -140v-297h-34v297c0 70 -44 106 -95 106c-48 0 -90 -27 -108 -66v-337h-34v423h34zM330 632l22 -22l-137 -136l-136 136l22 22l114 -115z" />
    <glyph glyph-name="uni0146" unicode="&#x146;" 
d="M114 423v-35c21 28 58 49 108 49c72 0 129 -53 129 -140v-297h-34v297c0 70 -44 106 -95 106c-48 0 -90 -27 -108 -66v-337h-34v423h34zM241 -143l-51 -69v162h51v-93z" />
    <glyph glyph-name="eng" unicode="&#x14b;" 
d="M80 0v423h34v-35c21 28 58 49 108 49c72 0 129 -53 129 -140v-391c0 -68 -46 -105 -102 -105c-3 0 -7 0 -12 1v36c6 -1 9 -1 12 -1c39 0 68 26 68 69v391c0 70 -44 106 -95 106c-48 0 -90 -27 -108 -66v-337h-34z" />
    <glyph glyph-name="o" unicode="o" horiz-adv-x="552" 
d="M276 -14c-125 0 -226 100 -226 225c0 124 101 226 226 226s226 -100 226 -225c0 -124 -101 -226 -226 -226zM84 211c0 -105 87 -191 192 -191s192 87 192 192s-87 191 -192 191s-192 -87 -192 -192z" />
    <glyph glyph-name="oacute" unicode="&#xf3;" horiz-adv-x="552" 
d="M276 -14c-125 0 -226 100 -226 225c0 124 101 226 226 226s226 -100 226 -225c0 -124 -101 -226 -226 -226zM84 211c0 -105 87 -191 192 -191s192 87 192 192s-87 191 -192 191s-192 -87 -192 -192zM219 481l-22 21l136 137l22 -22z" />
    <glyph glyph-name="ograve" unicode="&#xf2;" horiz-adv-x="552" 
d="M276 -14c-125 0 -226 100 -226 225c0 124 101 226 226 226s226 -100 226 -225c0 -124 -101 -226 -226 -226zM84 211c0 -105 87 -191 192 -191s192 87 192 192s-87 191 -192 191s-192 -87 -192 -192zM355 504l-22 -21l-136 136l22 22z" />
    <glyph glyph-name="ocircumflex" unicode="&#xf4;" horiz-adv-x="552" 
d="M276 -14c-125 0 -226 100 -226 225c0 124 101 226 226 226s226 -100 226 -225c0 -124 -101 -226 -226 -226zM84 211c0 -105 87 -191 192 -191s192 87 192 192s-87 191 -192 191s-192 -87 -192 -192zM161 489l-22 21l136 137l137 -137l-22 -21l-115 114z" />
    <glyph glyph-name="odieresis" unicode="&#xf6;" horiz-adv-x="552" 
d="M276 -14c-125 0 -226 100 -226 225c0 124 101 226 226 226s226 -100 226 -225c0 -124 -101 -226 -226 -226zM84 211c0 -105 87 -191 192 -191s192 87 192 192s-87 191 -192 191s-192 -87 -192 -192zM167 559c0 18 14 31 31 31s31 -13 31 -31c0 -17 -14 -31 -31 -31
s-31 14 -31 31zM322 559c0 18 14 31 31 31s31 -13 31 -31c0 -17 -14 -31 -31 -31s-31 14 -31 31z" />
    <glyph glyph-name="otilde" unicode="&#xf5;" horiz-adv-x="552" 
d="M276 -14c-125 0 -226 100 -226 225c0 124 101 226 226 226s226 -100 226 -225c0 -124 -101 -226 -226 -226zM84 211c0 -105 87 -191 192 -191s192 87 192 192s-87 191 -192 191s-192 -87 -192 -192zM436 602c0 -51 -37 -90 -91 -90c-36 0 -58 18 -79 36
c-18 15 -36 29 -60 29c-36 0 -60 -26 -60 -61h-31v3c0 50 37 89 91 89c36 0 58 -19 79 -36c18 -15 36 -29 60 -29c36 0 60 26 60 62h31v-3z" />
    <glyph glyph-name="obreve" unicode="&#x14f;" horiz-adv-x="552" 
d="M276 -14c-125 0 -226 100 -226 225c0 124 101 226 226 226s226 -100 226 -225c0 -124 -101 -226 -226 -226zM84 211c0 -105 87 -191 192 -191s192 87 192 192s-87 191 -192 191s-192 -87 -192 -192zM276 545c55 0 109 21 151 63l22 -22c-48 -48 -111 -72 -174 -72
s-125 24 -173 72l22 22c42 -42 97 -63 152 -63z" />
    <glyph glyph-name="ohungarumlaut" unicode="&#x151;" horiz-adv-x="552" 
d="M276 -14c-125 0 -226 100 -226 225c0 124 101 226 226 226s226 -100 226 -225c0 -124 -101 -226 -226 -226zM84 211c0 -105 87 -191 192 -191s192 87 192 192s-87 191 -192 191s-192 -87 -192 -192zM390 626l-72 -146l-28 13l72 147zM261 626l-72 -146l-28 13l72 147z
" />
    <glyph glyph-name="omacron" unicode="&#x14d;" horiz-adv-x="552" 
d="M276 -14c-125 0 -226 100 -226 225c0 124 101 226 226 226s226 -100 226 -225c0 -124 -101 -226 -226 -226zM84 211c0 -105 87 -191 192 -191s192 87 192 192s-87 191 -192 191s-192 -87 -192 -192zM435 575v-31h-319v31h319z" />
    <glyph glyph-name="oslash" unicode="&#xf8;" horiz-adv-x="552" 
d="M74 -14l-24 24l54 54c-34 40 -54 90 -54 147c0 124 101 226 226 226c56 0 107 -21 146 -54l56 56l24 -24l-56 -56c35 -39 56 -91 56 -148c0 -124 -101 -225 -226 -225c-57 0 -108 20 -148 54zM276 20c105 0 192 86 192 191c0 47 -18 90 -46 124l-269 -270
c33 -28 76 -45 123 -45zM84 211c0 -47 17 -89 45 -122l269 269c-34 28 -76 45 -122 45c-105 0 -192 -87 -192 -192z" />
    <glyph glyph-name="oslashacute" unicode="&#x1ff;" horiz-adv-x="552" 
d="M74 -14l-24 24l54 54c-34 40 -54 90 -54 147c0 124 101 226 226 226c56 0 107 -21 146 -54l56 56l24 -24l-56 -56c35 -39 56 -91 56 -148c0 -124 -101 -225 -226 -225c-57 0 -108 20 -148 54zM276 20c105 0 192 86 192 191c0 47 -18 90 -46 124l-269 -270
c33 -28 76 -45 123 -45zM84 211c0 -47 17 -89 45 -122l269 269c-34 28 -76 45 -122 45c-105 0 -192 -87 -192 -192zM219 481l-22 21l136 137l22 -22z" />
    <glyph glyph-name="oe" unicode="&#x153;" horiz-adv-x="851" 
d="M276 -14c-125 0 -226 100 -226 225c0 124 101 226 226 226c59 0 112 -22 152 -59c40 37 94 59 152 59c118 0 215 -88 225 -221c1 -7 1 -15 1 -22h-305c-3 -47 -22 -90 -50 -124c35 -30 80 -50 129 -50c52 0 99 22 135 56l24 -24c-41 -41 -97 -66 -159 -66
c-58 0 -112 23 -152 59c-40 -37 -93 -59 -152 -59zM84 211c0 -105 87 -191 192 -191s192 87 192 192s-87 191 -192 191s-192 -87 -192 -192zM452 353c28 -34 46 -78 49 -125h270c-6 90 -86 175 -191 175c-49 0 -93 -19 -128 -50z" />
    <glyph glyph-name="oe.alt1" horiz-adv-x="788" 
d="M276 -14c-125 0 -226 100 -226 225c0 124 101 226 226 226c58 0 112 -22 152 -59c40 36 93 59 152 59c62 0 118 -25 159 -66l14 -16l-293 -293c34 -26 75 -42 120 -42c52 0 99 22 135 56l24 -24c-41 -41 -97 -66 -159 -66c-58 0 -112 23 -152 59
c-40 -37 -93 -59 -152 -59zM84 211c0 -105 87 -191 192 -191s192 87 192 192s-87 191 -192 191s-192 -87 -192 -192zM502 212c0 -25 -5 -50 -12 -72l215 215c-34 29 -78 48 -125 48c-49 0 -94 -19 -128 -50c31 -38 50 -87 50 -141z" />
    <glyph glyph-name="p" unicode="p" horiz-adv-x="525" 
d="M114 423v-32c38 29 84 46 135 46c125 0 226 -100 226 -225c0 -124 -101 -226 -226 -226c-51 0 -97 17 -135 46v-217h-34v608h34zM249 403c-52 0 -99 -22 -135 -56v-271c36 -33 83 -56 135 -56c105 0 192 87 192 192s-87 191 -192 191z" />
    <glyph glyph-name="q" unicode="q" horiz-adv-x="525" 
d="M411 -185v216c-38 -28 -84 -45 -135 -45c-125 0 -226 100 -226 225c0 124 101 226 226 226c50 0 97 -18 135 -46v32h34v-608h-34zM411 76v271c-36 33 -83 56 -135 56c-105 0 -192 -87 -192 -192s87 -191 192 -191c52 0 99 22 135 56z" />
    <glyph glyph-name="r" unicode="r" horiz-adv-x="232" 
d="M222 437v-34h-3c-45 0 -88 -28 -105 -66v-337h-34v423h34v-35c21 28 58 49 108 49z" />
    <glyph glyph-name="racute" unicode="&#x155;" horiz-adv-x="232" 
d="M222 437v-34h-3c-45 0 -88 -28 -105 -66v-337h-34v423h34v-35c21 28 58 49 108 49zM89 481l-22 21l136 137l22 -22z" />
    <glyph glyph-name="rcaron" unicode="&#x159;" horiz-adv-x="232" 
d="M222 437v-34h-3c-45 0 -88 -28 -105 -66v-337h-34v423h34v-35c21 28 58 49 108 49zM261 632l22 -22l-137 -136l-136 136l22 22l114 -115z" />
    <glyph glyph-name="uni0157" unicode="&#x157;" horiz-adv-x="232" 
d="M222 437v-34h-3c-45 0 -88 -28 -105 -66v-337h-34v423h34v-35c21 28 58 49 108 49zM122 -143l-51 -69v162h51v-93z" />
    <glyph glyph-name="r.alt2" horiz-adv-x="249" 
d="M114 423v-423h-34v423h34zM181 409c0 15 12 28 27 28s28 -13 28 -28s-13 -27 -28 -27s-27 12 -27 27z" />
    <glyph glyph-name="racute.alt2" horiz-adv-x="249" 
d="M114 423v-423h-34v423h34zM181 409c0 15 12 28 27 28s28 -13 28 -28s-13 -27 -28 -27s-27 12 -27 27zM67 481l-22 21l136 137l22 -22z" />
    <glyph glyph-name="rcaron.alt2" horiz-adv-x="249" 
d="M114 423v-423h-34v423h34zM181 409c0 15 12 28 27 28s28 -13 28 -28s-13 -27 -28 -27s-27 12 -27 27zM239 632l22 -22l-137 -136l-136 136l22 22l114 -115z" />
    <glyph glyph-name="uni0157.alt2" horiz-adv-x="249" 
d="M114 423v-423h-34v423h34zM181 409c0 15 12 28 27 28s28 -13 28 -28s-13 -27 -28 -27s-27 12 -27 27zM123 -143l-51 -69v162h51v-93z" />
    <glyph glyph-name="s" unicode="s" horiz-adv-x="232" 
d="M182 110c0 -69 -47 -120 -116 -120c-6 0 -13 1 -16 2v34c6 -2 11 -2 16 -2c50 0 82 37 82 86c0 40 -22 68 -45 97c-24 31 -50 63 -50 115c0 68 48 113 111 113h3v-33h-3c-43 0 -77 -31 -77 -79c0 -41 22 -68 44 -96c25 -32 51 -64 51 -117z" />
    <glyph glyph-name="sacute" unicode="&#x15b;" horiz-adv-x="232" 
d="M182 110c0 -69 -47 -120 -116 -120c-6 0 -13 1 -16 2v34c6 -2 11 -2 16 -2c50 0 82 37 82 86c0 40 -22 68 -45 97c-24 31 -50 63 -50 115c0 68 48 113 111 113h3v-33h-3c-43 0 -77 -31 -77 -79c0 -41 22 -68 44 -96c25 -32 51 -64 51 -117zM59 481l-22 21l136 137l22 -22
z" />
    <glyph glyph-name="uni015F" unicode="&#x15f;" horiz-adv-x="232" 
d="M182 110c0 -69 -47 -120 -116 -120c-6 0 -13 1 -16 2v34c6 -2 11 -2 16 -2c50 0 82 37 82 86c0 40 -22 68 -45 97c-24 31 -50 63 -50 115c0 68 48 113 111 113h3v-33h-3c-43 0 -77 -31 -77 -79c0 -41 22 -68 44 -96c25 -32 51 -64 51 -117zM116 -199l-25 25
c21 20 31 47 31 74s-10 54 -31 75l25 25c27 -28 41 -64 41 -100s-14 -72 -41 -99z" />
    <glyph glyph-name="scircumflex" unicode="&#x15d;" horiz-adv-x="232" 
d="M182 110c0 -69 -47 -120 -116 -120c-6 0 -13 1 -16 2v34c6 -2 11 -2 16 -2c50 0 82 37 82 86c0 40 -22 68 -45 97c-24 31 -50 63 -50 115c0 68 48 113 111 113h3v-33h-3c-43 0 -77 -31 -77 -79c0 -41 22 -68 44 -96c25 -32 51 -64 51 -117zM2 489l-22 21l136 137
l137 -137l-22 -21l-115 114z" />
    <glyph glyph-name="uni0219" unicode="&#x219;" horiz-adv-x="232" 
d="M182 110c0 -69 -47 -120 -116 -120c-6 0 -13 1 -16 2v34c6 -2 11 -2 16 -2c50 0 82 37 82 86c0 40 -22 68 -45 97c-24 31 -50 63 -50 115c0 68 48 113 111 113h3v-33h-3c-43 0 -77 -31 -77 -79c0 -41 22 -68 44 -96c25 -32 51 -64 51 -117zM141 -143l-51 -69v162h51v-93z
" />
    <glyph glyph-name="scaron" unicode="&#x161;" horiz-adv-x="232" 
d="M182 110c0 -69 -47 -120 -116 -120c-6 0 -13 1 -16 2v34c6 -2 11 -2 16 -2c50 0 82 37 82 86c0 40 -22 68 -45 97c-24 31 -50 63 -50 115c0 68 48 113 111 113h3v-33h-3c-43 0 -77 -31 -77 -79c0 -41 22 -68 44 -96c25 -32 51 -64 51 -117zM231 632l22 -22l-137 -136
l-136 136l22 22l114 -115z" />
    <glyph glyph-name="s.alt1" horiz-adv-x="391" 
d="M376 432l11 -31c-119 0 -149 -100 -180 -201c-31 -103 -64 -209 -195 -209l-8 34c115 0 144 97 174 196c32 104 64 211 198 211z" />
    <glyph glyph-name="sacute.alt1" horiz-adv-x="391" 
d="M376 432l11 -31c-119 0 -149 -100 -180 -201c-31 -103 -64 -209 -195 -209l-8 34c115 0 144 97 174 196c32 104 64 211 198 211zM253 481l-22 21l136 137l22 -22z" />
    <glyph glyph-name="uni015F.alt1" horiz-adv-x="391" 
d="M376 432l11 -31c-119 0 -149 -100 -180 -201c-31 -103 -64 -209 -195 -209l-8 34c115 0 144 97 174 196c32 104 64 211 198 211zM85 -199l-25 25c21 20 31 47 31 74s-10 54 -31 75l25 25c27 -28 41 -64 41 -100s-14 -72 -41 -99z" />
    <glyph glyph-name="scircumflex.alt1" horiz-adv-x="391" 
d="M376 432l11 -31c-119 0 -149 -100 -180 -201c-31 -103 -64 -209 -195 -209l-8 34c115 0 144 97 174 196c32 104 64 211 198 211zM143 489l-22 21l136 137l137 -137l-22 -21l-115 114z" />
    <glyph glyph-name="uni0219.alt1" horiz-adv-x="391" 
d="M376 432l11 -31c-119 0 -149 -100 -180 -201c-31 -103 -64 -209 -195 -209l-8 34c115 0 144 97 174 196c32 104 64 211 198 211zM221 -143l-51 -69v162h51v-93z" />
    <glyph glyph-name="scaron.alt1" horiz-adv-x="391" 
d="M376 432l11 -31c-119 0 -149 -100 -180 -201c-31 -103 -64 -209 -195 -209l-8 34c115 0 144 97 174 196c32 104 64 211 198 211zM373 632l22 -22l-137 -136l-136 136l22 22l114 -115z" />
    <glyph glyph-name="s.alt2" horiz-adv-x="213" 
d="M108 423h45c-41 -29 -55 -77 -55 -115c0 -33 11 -60 23 -88c13 -31 27 -63 27 -105c0 -40 -13 -85 -43 -115h-45c36 26 54 77 54 115c0 34 -11 59 -23 86c-13 29 -27 60 -27 107c0 42 14 85 44 115z" />
    <glyph glyph-name="sacute.alt2" horiz-adv-x="213" 
d="M108 423h45c-41 -29 -55 -77 -55 -115c0 -33 11 -60 23 -88c13 -31 27 -63 27 -105c0 -40 -13 -85 -43 -115h-45c36 26 54 77 54 115c0 34 -11 59 -23 86c-13 29 -27 60 -27 107c0 42 14 85 44 115zM50 481l-22 21l136 137l22 -22z" />
    <glyph glyph-name="uni015F.alt2" horiz-adv-x="213" 
d="M108 423h45c-41 -29 -55 -77 -55 -115c0 -33 11 -60 23 -88c13 -31 27 -63 27 -105c0 -40 -13 -85 -43 -115h-45c36 26 54 77 54 115c0 34 -11 59 -23 86c-13 29 -27 60 -27 107c0 42 14 85 44 115zM107 -199l-25 25c21 20 31 47 31 74s-10 54 -31 75l25 25
c27 -28 41 -64 41 -100s-14 -72 -41 -99z" />
    <glyph glyph-name="scircumflex.alt2" horiz-adv-x="213" 
d="M108 423h45c-41 -29 -55 -77 -55 -115c0 -33 11 -60 23 -88c13 -31 27 -63 27 -105c0 -40 -13 -85 -43 -115h-45c36 26 54 77 54 115c0 34 -11 59 -23 86c-13 29 -27 60 -27 107c0 42 14 85 44 115zM11 489l-22 21l136 137l137 -137l-22 -21l-115 114z" />
    <glyph glyph-name="uni0219.alt2" horiz-adv-x="213" 
d="M108 423h45c-41 -29 -55 -77 -55 -115c0 -33 11 -60 23 -88c13 -31 27 -63 27 -105c0 -40 -13 -85 -43 -115h-45c36 26 54 77 54 115c0 34 -11 59 -23 86c-13 29 -27 60 -27 107c0 42 14 85 44 115zM132 -143l-51 -69v162h51v-93z" />
    <glyph glyph-name="scaron.alt2" horiz-adv-x="213" 
d="M108 423h45c-41 -29 -55 -77 -55 -115c0 -33 11 -60 23 -88c13 -31 27 -63 27 -105c0 -40 -13 -85 -43 -115h-45c36 26 54 77 54 115c0 34 -11 59 -23 86c-13 29 -27 60 -27 107c0 42 14 85 44 115zM221 632l22 -22l-137 -136l-136 136l22 22l114 -115z" />
    <glyph glyph-name="s.alt3" horiz-adv-x="213" 
d="M64 308c0 40 14 95 60 129l22 -26c-34 -26 -48 -65 -48 -103c0 -33 12 -60 24 -89c12 -30 26 -62 26 -104c0 -40 -13 -95 -59 -129l-22 26c32 26 47 65 47 103c0 34 -11 59 -23 86c-13 29 -27 60 -27 107z" />
    <glyph glyph-name="sacute.alt3" horiz-adv-x="213" 
d="M64 308c0 40 14 95 60 129l22 -26c-34 -26 -48 -65 -48 -103c0 -33 12 -60 24 -89c12 -30 26 -62 26 -104c0 -40 -13 -95 -59 -129l-22 26c32 26 47 65 47 103c0 34 -11 59 -23 86c-13 29 -27 60 -27 107zM50 481l-22 21l136 137l22 -22z" />
    <glyph glyph-name="uni015F.alt3" horiz-adv-x="213" 
d="M64 308c0 40 14 95 60 129l22 -26c-34 -26 -48 -65 -48 -103c0 -33 12 -60 24 -89c12 -30 26 -62 26 -104c0 -40 -13 -95 -59 -129l-22 26c32 26 47 65 47 103c0 34 -11 59 -23 86c-13 29 -27 60 -27 107zM118 -199l-25 25c21 20 31 47 31 74s-10 54 -31 75l25 25
c27 -28 41 -64 41 -100s-14 -72 -41 -99z" />
    <glyph glyph-name="scircumflex.alt3" horiz-adv-x="213" 
d="M64 308c0 40 14 95 60 129l22 -26c-34 -26 -48 -65 -48 -103c0 -33 12 -60 24 -89c12 -30 26 -62 26 -104c0 -40 -13 -95 -59 -129l-22 26c32 26 47 65 47 103c0 34 -11 59 -23 86c-13 29 -27 60 -27 107zM-8 489l-22 21l136 137l137 -137l-22 -21l-115 114z" />
    <glyph glyph-name="uni0219.alt3" horiz-adv-x="213" 
d="M64 308c0 40 14 95 60 129l22 -26c-34 -26 -48 -65 -48 -103c0 -33 12 -60 24 -89c12 -30 26 -62 26 -104c0 -40 -13 -95 -59 -129l-22 26c32 26 47 65 47 103c0 34 -11 59 -23 86c-13 29 -27 60 -27 107zM132 -143l-51 -69v162h51v-93z" />
    <glyph glyph-name="scaron.alt3" horiz-adv-x="213" 
d="M64 308c0 40 14 95 60 129l22 -26c-34 -26 -48 -65 -48 -103c0 -33 12 -60 24 -89c12 -30 26 -62 26 -104c0 -40 -13 -95 -59 -129l-22 26c32 26 47 65 47 103c0 34 -11 59 -23 86c-13 29 -27 60 -27 107zM221 632l22 -22l-137 -136l-136 136l22 22l114 -115z" />
    <glyph glyph-name="s.alt4" horiz-adv-x="326" 
d="M276 105c0 -66 -56 -119 -125 -119c-42 0 -87 21 -111 67l29 16c17 -32 48 -49 82 -49c50 0 91 37 91 85c0 56 -43 79 -89 103c-49 26 -100 53 -100 123c0 58 50 106 111 106c34 0 77 -16 100 -60l-29 -16c-14 26 -40 42 -71 42c-43 0 -77 -32 -77 -72
c0 -48 40 -70 84 -93c50 -26 105 -55 105 -133z" />
    <glyph glyph-name="sacute.alt4" horiz-adv-x="326" 
d="M276 105c0 -66 -56 -119 -125 -119c-42 0 -87 21 -111 67l29 16c17 -32 48 -49 82 -49c50 0 91 37 91 85c0 56 -43 79 -89 103c-49 26 -100 53 -100 123c0 58 50 106 111 106c34 0 77 -16 100 -60l-29 -16c-14 26 -40 42 -71 42c-43 0 -77 -32 -77 -72
c0 -48 40 -70 84 -93c50 -26 105 -55 105 -133zM106 481l-22 21l136 137l22 -22z" />
    <glyph glyph-name="uni015F.alt4" horiz-adv-x="326" 
d="M156 -199l-25 25c21 20 31 47 31 74s-10 54 -31 75l11 11c-40 3 -80 24 -102 67l29 16c17 -32 48 -49 82 -49c50 0 91 37 91 85c0 56 -43 79 -89 103c-49 26 -100 53 -100 123c0 58 50 106 111 106c34 0 77 -16 100 -60l-29 -16c-14 26 -40 42 -71 42
c-43 0 -77 -32 -77 -72c0 -48 39 -69 82 -92c51 -27 107 -56 107 -134c0 -61 -47 -110 -109 -118c20 -25 30 -56 30 -87c0 -36 -14 -72 -41 -99z" />
    <glyph glyph-name="scircumflex.alt4" horiz-adv-x="326" 
d="M276 105c0 -66 -56 -119 -125 -119c-42 0 -87 21 -111 67l29 16c17 -32 48 -49 82 -49c50 0 91 37 91 85c0 56 -43 79 -89 103c-49 26 -100 53 -100 123c0 58 50 106 111 106c34 0 77 -16 100 -60l-29 -16c-14 26 -40 42 -71 42c-43 0 -77 -32 -77 -72
c0 -48 40 -70 84 -93c50 -26 105 -55 105 -133zM49 489l-22 21l136 137l137 -137l-22 -21l-115 114z" />
    <glyph glyph-name="uni0219.alt4" horiz-adv-x="326" 
d="M276 105c0 -66 -56 -119 -125 -119c-42 0 -87 21 -111 67l29 16c17 -32 48 -49 82 -49c50 0 91 37 91 85c0 56 -43 79 -89 103c-49 26 -100 53 -100 123c0 58 50 106 111 106c34 0 77 -16 100 -60l-29 -16c-14 26 -40 42 -71 42c-43 0 -77 -32 -77 -72
c0 -48 40 -70 84 -93c50 -26 105 -55 105 -133zM188 -143l-51 -69v162h51v-93z" />
    <glyph glyph-name="scaron.alt4" horiz-adv-x="326" 
d="M276 105c0 -66 -56 -119 -125 -119c-42 0 -87 21 -111 67l29 16c17 -32 48 -49 82 -49c50 0 91 37 91 85c0 56 -43 79 -89 103c-49 26 -100 53 -100 123c0 58 50 106 111 106c34 0 77 -16 100 -60l-29 -16c-14 26 -40 42 -71 42c-43 0 -77 -32 -77 -72
c0 -48 40 -70 84 -93c50 -26 105 -55 105 -133zM278 632l22 -22l-137 -136l-136 136l22 22l114 -115z" />
    <glyph glyph-name="germandbls" unicode="&#xdf;" horiz-adv-x="463" 
d="M235 441l89 202c-17 5 -34 8 -53 8c-87 0 -157 -61 -157 -157v-494h-34v494c0 125 88 191 191 191c36 0 70 -7 99 -23l-89 -202c79 -43 132 -126 132 -222c0 -141 -114 -254 -248 -254h-5v33h5c116 0 215 99 215 220c0 102 -67 176 -131 199z" />
    <glyph glyph-name="t" unicode="t" horiz-adv-x="248" 
d="M223 423v-34h-82v-389h-34v389h-72v34h72v158l34 20v-178h82z" />
    <glyph glyph-name="tbar" unicode="&#x167;" horiz-adv-x="248" 
d="M222 210v-31h-81v-179h-34v179h-70v31h70v179h-72v34h72v158l34 20v-178h82v-34h-82v-179h81z" />
    <glyph glyph-name="tcaron" unicode="&#x165;" horiz-adv-x="248" 
d="M223 423v-34h-82v-389h-34v389h-72v34h72v158l34 20v-178h82zM258 619l-51 -119v185h51v-66z" />
    <glyph glyph-name="tcommaaccent" unicode="&#x163;" horiz-adv-x="248" 
d="M223 423v-34h-82v-389h-34v389h-72v34h72v158l34 20v-178h82zM124 -200l-25 25c21 20 31 47 31 74s-10 54 -31 75l25 25c27 -28 41 -64 41 -100s-14 -72 -41 -99z" />
    <glyph glyph-name="uni021B" unicode="&#x21b;" horiz-adv-x="248" 
d="M223 423v-34h-82v-389h-34v389h-72v34h72v158l34 20v-178h82zM154 -143l-51 -69v162h51v-93z" />
    <glyph glyph-name="u" unicode="u" 
d="M317 0v34c-22 -28 -59 -48 -108 -48c-72 0 -129 53 -129 140v297h34v-297c0 -70 44 -106 95 -106c47 0 90 27 108 65v338h34v-423h-34z" />
    <glyph glyph-name="uacute" unicode="&#xfa;" 
d="M317 0v34c-22 -28 -59 -48 -108 -48c-72 0 -129 53 -129 140v297h34v-297c0 -70 44 -106 95 -106c47 0 90 27 108 65v338h34v-423h-34zM158 481l-22 21l136 137l22 -22z" />
    <glyph glyph-name="ugrave" unicode="&#xf9;" 
d="M317 0v34c-22 -28 -59 -48 -108 -48c-72 0 -129 53 -129 140v297h34v-297c0 -70 44 -106 95 -106c47 0 90 27 108 65v338h34v-423h-34zM294 504l-22 -21l-136 136l22 22z" />
    <glyph glyph-name="ucircumflex" unicode="&#xfb;" 
d="M317 0v34c-22 -28 -59 -48 -108 -48c-72 0 -129 53 -129 140v297h34v-297c0 -70 44 -106 95 -106c47 0 90 27 108 65v338h34v-423h-34zM101 489l-22 21l136 137l137 -137l-22 -21l-115 114z" />
    <glyph glyph-name="udieresis" unicode="&#xfc;" 
d="M317 0v34c-22 -28 -59 -48 -108 -48c-72 0 -129 53 -129 140v297h34v-297c0 -70 44 -106 95 -106c47 0 90 27 108 65v338h34v-423h-34zM107 559c0 18 14 31 31 31s31 -13 31 -31c0 -17 -14 -31 -31 -31s-31 14 -31 31zM262 559c0 18 14 31 31 31s31 -13 31 -31
c0 -17 -14 -31 -31 -31s-31 14 -31 31z" />
    <glyph glyph-name="ubreve" unicode="&#x16d;" 
d="M317 0v34c-22 -28 -59 -48 -108 -48c-72 0 -129 53 -129 140v297h34v-297c0 -70 44 -106 95 -106c47 0 90 27 108 65v338h34v-423h-34zM216 545c55 0 109 21 151 63l22 -22c-48 -48 -111 -72 -174 -72s-125 24 -173 72l22 22c42 -42 97 -63 152 -63z" />
    <glyph glyph-name="uhungarumlaut" unicode="&#x171;" 
d="M317 0v34c-22 -28 -59 -48 -108 -48c-72 0 -129 53 -129 140v297h34v-297c0 -70 44 -106 95 -106c47 0 90 27 108 65v338h34v-423h-34zM330 626l-72 -146l-28 13l72 147zM201 626l-72 -146l-28 13l72 147z" />
    <glyph glyph-name="umacron" unicode="&#x16b;" 
d="M317 0v34c-22 -28 -59 -48 -108 -48c-72 0 -129 53 -129 140v297h34v-297c0 -70 44 -106 95 -106c47 0 90 27 108 65v338h34v-423h-34zM375 575v-31h-319v31h319z" />
    <glyph glyph-name="uogonek" unicode="&#x173;" 
d="M351 -199c-64 0 -117 50 -117 111c0 46 35 87 83 100v32c-19 -28 -59 -58 -108 -58c-72 0 -129 53 -129 140v297h34v-297c0 -70 44 -106 95 -106c47 0 90 27 108 65v338h34v-428c-45 0 -83 -32 -83 -77c0 -46 38 -83 83 -83v-34z" />
    <glyph glyph-name="uring" unicode="&#x16f;" 
d="M317 0v34c-22 -28 -59 -48 -108 -48c-72 0 -129 53 -129 140v297h34v-297c0 -70 44 -106 95 -106c47 0 90 27 108 65v338h34v-423h-34zM314 561c0 -55 -44 -99 -99 -99s-99 44 -99 99s44 99 99 99s99 -44 99 -99zM286 561c0 39 -32 71 -71 71s-71 -32 -71 -71
s32 -71 71 -71s71 32 71 71z" />
    <glyph glyph-name="utilde" unicode="&#x169;" 
d="M317 0v34c-22 -28 -59 -48 -108 -48c-72 0 -129 53 -129 140v297h34v-297c0 -70 44 -106 95 -106c47 0 90 27 108 65v338h34v-423h-34zM376 602c0 -51 -37 -90 -91 -90c-36 0 -58 18 -79 36c-18 15 -36 29 -60 29c-36 0 -60 -26 -60 -61h-31v3c0 50 37 89 91 89
c36 0 58 -19 79 -36c18 -15 36 -29 60 -29c36 0 60 26 60 62h31v-3z" />
    <glyph glyph-name="u.alt2" 
d="M80 121v302h34v-302c0 -56 45 -101 101 -101s102 45 102 101v302h34v-302c0 -75 -61 -135 -136 -135s-135 60 -135 135z" />
    <glyph glyph-name="uacute.alt2" 
d="M80 121v302h34v-302c0 -56 45 -101 101 -101s102 45 102 101v302h34v-302c0 -75 -61 -135 -136 -135s-135 60 -135 135zM158 481l-22 21l136 137l22 -22z" />
    <glyph glyph-name="ugrave.alt2" 
d="M80 121v302h34v-302c0 -56 45 -101 101 -101s102 45 102 101v302h34v-302c0 -75 -61 -135 -136 -135s-135 60 -135 135zM294 504l-22 -21l-136 136l22 22z" />
    <glyph glyph-name="ucircumflex.alt2" 
d="M80 121v302h34v-302c0 -56 45 -101 101 -101s102 45 102 101v302h34v-302c0 -75 -61 -135 -136 -135s-135 60 -135 135zM101 489l-22 21l136 137l137 -137l-22 -21l-115 114z" />
    <glyph glyph-name="udieresis.alt2" 
d="M80 121v302h34v-302c0 -56 45 -101 101 -101s102 45 102 101v302h34v-302c0 -75 -61 -135 -136 -135s-135 60 -135 135zM107 559c0 18 14 31 31 31s31 -13 31 -31c0 -17 -14 -31 -31 -31s-31 14 -31 31zM262 559c0 18 14 31 31 31s31 -13 31 -31c0 -17 -14 -31 -31 -31
s-31 14 -31 31z" />
    <glyph glyph-name="ubreve.alt2" 
d="M80 121v302h34v-302c0 -56 45 -101 101 -101s102 45 102 101v302h34v-302c0 -75 -61 -135 -136 -135s-135 60 -135 135zM216 545c55 0 109 21 151 63l22 -22c-48 -48 -111 -72 -174 -72s-125 24 -173 72l22 22c42 -42 97 -63 152 -63z" />
    <glyph glyph-name="uhungarumlaut.alt2" 
d="M80 121v302h34v-302c0 -56 45 -101 101 -101s102 45 102 101v302h34v-302c0 -75 -61 -135 -136 -135s-135 60 -135 135zM330 626l-72 -146l-28 13l72 147zM201 626l-72 -146l-28 13l72 147z" />
    <glyph glyph-name="umacron.alt2" 
d="M80 121v302h34v-302c0 -56 45 -101 101 -101s102 45 102 101v302h34v-302c0 -75 -61 -135 -136 -135s-135 60 -135 135zM375 575v-31h-319v31h319z" />
    <glyph glyph-name="uogonek.alt2" 
d="M264 -5c-32 -11 -55 -42 -55 -77c0 -46 38 -83 83 -83v-34c-64 0 -117 53 -117 117c0 26 8 50 23 69c-67 8 -118 65 -118 134v302h34v-302c0 -56 45 -101 101 -101s102 45 102 101v302h34v-302c0 -58 -36 -107 -87 -126z" />
    <glyph glyph-name="uring.alt2" 
d="M80 121v302h34v-302c0 -56 45 -101 101 -101s102 45 102 101v302h34v-302c0 -75 -61 -135 -136 -135s-135 60 -135 135zM314 561c0 -55 -44 -99 -99 -99s-99 44 -99 99s44 99 99 99s99 -44 99 -99zM286 561c0 39 -32 71 -71 71s-71 -32 -71 -71s32 -71 71 -71
s71 32 71 71z" />
    <glyph glyph-name="utilde.alt2" 
d="M80 121v302h34v-302c0 -56 45 -101 101 -101s102 45 102 101v302h34v-302c0 -75 -61 -135 -136 -135s-135 60 -135 135zM376 602c0 -51 -37 -90 -91 -90c-36 0 -58 18 -79 36c-18 15 -36 29 -60 29c-36 0 -60 -26 -60 -61h-31v3c0 50 37 89 91 89c36 0 58 -19 79 -36
c18 -15 36 -29 60 -29c36 0 60 26 60 62h31v-3z" />
    <glyph glyph-name="v" unicode="v" horiz-adv-x="362" 
d="M352 423l-171 -444l-171 444h37l134 -353l134 353h37z" />
    <glyph glyph-name="w" unicode="w" horiz-adv-x="586" 
d="M294 423l113 -346l132 346h37l-171 -444l-112 342l-112 -342l-171 444h37l132 -346l113 346h2z" />
    <glyph glyph-name="wacute" unicode="&#x1e83;" horiz-adv-x="586" 
d="M294 423l113 -346l132 346h37l-171 -444l-112 342l-112 -342l-171 444h37l132 -346l113 346h2zM236 481l-22 21l136 137l22 -22z" />
    <glyph glyph-name="wcircumflex" unicode="&#x175;" horiz-adv-x="586" 
d="M294 423l113 -346l132 346h37l-171 -444l-112 342l-112 -342l-171 444h37l132 -346l113 346h2zM178 489l-22 21l136 137l137 -137l-22 -21l-115 114z" />
    <glyph glyph-name="wdieresis" unicode="&#x1e85;" horiz-adv-x="586" 
d="M294 423l113 -346l132 346h37l-171 -444l-112 342l-112 -342l-171 444h37l132 -346l113 346h2zM184 559c0 18 14 31 31 31s31 -13 31 -31c0 -17 -14 -31 -31 -31s-31 14 -31 31zM339 559c0 18 14 31 31 31s31 -13 31 -31c0 -17 -14 -31 -31 -31s-31 14 -31 31z" />
    <glyph glyph-name="wgrave" unicode="&#x1e81;" horiz-adv-x="586" 
d="M294 423l113 -346l132 346h37l-171 -444l-112 342l-112 -342l-171 444h37l132 -346l113 346h2zM372 504l-22 -21l-136 136l22 22z" />
    <glyph glyph-name="x" unicode="x" horiz-adv-x="361" 
d="M331 0h-39l-111 184l-112 -184h-39l131 216l-125 207h40l105 -174l105 174h39l-125 -207z" />
    <glyph glyph-name="y" unicode="y" horiz-adv-x="362" 
d="M164 25l-154 398h37l134 -353l134 353h37l-233 -608h-37z" />
    <glyph glyph-name="yacute" unicode="&#xfd;" horiz-adv-x="362" 
d="M164 25l-154 398h37l134 -353l134 353h37l-233 -608h-37zM124 481l-22 21l136 137l22 -22z" />
    <glyph glyph-name="ygrave" unicode="&#x1ef3;" horiz-adv-x="362" 
d="M164 25l-154 398h37l134 -353l134 353h37l-233 -608h-37zM260 504l-22 -21l-136 136l22 22z" />
    <glyph glyph-name="ycircumflex" unicode="&#x177;" horiz-adv-x="362" 
d="M164 25l-154 398h37l134 -353l134 353h37l-233 -608h-37zM66 489l-22 21l136 137l137 -137l-22 -21l-115 114z" />
    <glyph glyph-name="ydieresis" unicode="&#xff;" horiz-adv-x="362" 
d="M164 25l-154 398h37l134 -353l134 353h37l-233 -608h-37zM72 559c0 18 14 31 31 31s31 -13 31 -31c0 -17 -14 -31 -31 -31s-31 14 -31 31zM227 559c0 18 14 31 31 31s31 -13 31 -31c0 -17 -14 -31 -31 -31s-31 14 -31 31z" />
    <glyph glyph-name="z" unicode="z" horiz-adv-x="337" 
d="M304 0h-271l212 389h-203v34h262l-213 -389h213v-34z" />
    <glyph glyph-name="zacute" unicode="&#x17a;" horiz-adv-x="337" 
d="M304 0h-271l212 389h-203v34h262l-213 -389h213v-34zM111 481l-22 21l136 137l22 -22z" />
    <glyph glyph-name="zcaron" unicode="&#x17e;" horiz-adv-x="337" 
d="M304 0h-271l212 389h-203v34h262l-213 -389h213v-34zM283 632l22 -22l-137 -136l-136 136l22 22l114 -115z" />
    <glyph glyph-name="zdotaccent" unicode="&#x17c;" horiz-adv-x="337" 
d="M304 0h-271l212 389h-203v34h262l-213 -389h213v-34zM137 560c0 18 14 31 31 31s31 -13 31 -31c0 -17 -14 -31 -31 -31s-31 14 -31 31z" />
    <glyph glyph-name="z.alt1" horiz-adv-x="332" 
d="M57 -184v34c105 0 192 86 192 191s-81 164 -119 177l93 171h-203v34h262l-105 -191c37 -23 106 -85 106 -191c0 -125 -101 -225 -226 -225z" />
    <glyph glyph-name="zacute.alt1" horiz-adv-x="332" 
d="M57 -184v34c105 0 192 86 192 191s-81 164 -119 177l93 171h-203v34h262l-105 -191c37 -23 106 -85 106 -191c0 -125 -101 -225 -226 -225zM94 481l-22 21l136 137l22 -22z" />
    <glyph glyph-name="zcaron.alt1" horiz-adv-x="332" 
d="M57 -184v34c105 0 192 86 192 191s-81 164 -119 177l93 171h-203v34h262l-105 -191c37 -23 106 -85 106 -191c0 -125 -101 -225 -226 -225zM266 632l22 -22l-137 -136l-136 136l22 22l114 -115z" />
    <glyph glyph-name="zdotaccent.alt1" horiz-adv-x="332" 
d="M57 -184v34c105 0 192 86 192 191s-81 164 -119 177l93 171h-203v34h262l-105 -191c37 -23 106 -85 106 -191c0 -125 -101 -225 -226 -225zM120 560c0 18 14 31 31 31s31 -13 31 -31c0 -17 -14 -31 -31 -31s-31 14 -31 31z" />
    <glyph glyph-name="eth" unicode="&#xf0;" horiz-adv-x="552" 
d="M492 647v-37l-120 -52l111 -255c12 -28 19 -59 19 -91c0 -124 -101 -226 -226 -226s-226 100 -226 225c0 124 101 226 226 226c44 0 89 -12 129 -41l-65 148l-135 -58v37l122 53l-47 109h37l41 -96zM276 20c105 0 192 87 192 192s-87 191 -192 191s-192 -87 -192 -192
s87 -191 192 -191z" />
    <glyph glyph-name="thorn" unicode="&#xfe;" horiz-adv-x="525" 
d="M114 685v-294c38 29 84 46 135 46c125 0 226 -100 226 -225c0 -124 -101 -226 -226 -226c-51 0 -97 17 -135 46v-217h-34v870h34zM249 403c-52 0 -99 -22 -135 -56v-271c36 -33 83 -56 135 -56c105 0 192 87 192 192s-87 191 -192 191z" />
    <glyph glyph-name="ordfeminine" unicode="&#xaa;" horiz-adv-x="474" 
d="M394 685v-369h-33v26c-32 -24 -70 -38 -114 -38c-109 0 -197 88 -197 197c0 108 88 197 197 197c44 0 82 -15 114 -39v26h33zM247 337c45 0 83 16 114 45v239c-31 28 -69 45 -114 45c-92 0 -164 -73 -164 -165s72 -164 164 -164zM394 120h-314v31h314v-31z" />
    <glyph glyph-name="ordfeminine.alt1" horiz-adv-x="370" 
d="M290 569v-253h-33v14c-21 -15 -44 -26 -72 -26c-75 0 -135 61 -135 136c0 74 60 136 135 136c28 0 51 -11 72 -27v20c0 60 -37 95 -91 95c-4 0 -11 0 -18 -1v33c6 1 14 1 18 1c68 0 124 -44 124 -128zM185 337c29 0 53 12 72 31v144c-19 19 -43 31 -72 31
c-57 0 -102 -45 -102 -103c0 -59 45 -103 102 -103zM290 120h-210v31h210v-31z" />
    <glyph glyph-name="ordmasculine" unicode="&#xba;" horiz-adv-x="494" 
d="M50 501c0 109 89 197 197 197c109 0 197 -88 197 -197c0 -108 -88 -197 -197 -197c-108 0 -197 89 -197 197zM433 151v-31h-371v31h371zM247 337c92 0 165 73 165 164c0 92 -73 165 -165 165c-91 0 -164 -73 -164 -165c0 -91 73 -164 164 -164z" />
    <glyph glyph-name="ampersand" unicode="&#x26;" horiz-adv-x="644" 
d="M201 651l302 -477l67 116h40l-86 -148l90 -142h-40l-69 108c-55 -84 -128 -122 -208 -122c-131 0 -237 106 -237 237c0 126 98 229 222 236l-143 226h323v-34h-261zM297 19c73 0 138 38 187 121l-182 287h-5c-112 0 -203 -92 -203 -204s91 -204 203 -204z" />
    <glyph glyph-name="period" unicode="." horiz-adv-x="215" 
d="M133 0h-51v103h51v-103z" />
    <glyph glyph-name="comma" unicode="," horiz-adv-x="215" 
d="M133 38l-51 -119v184h51v-65z" />
    <glyph glyph-name="colon" unicode=":" horiz-adv-x="215" 
d="M133 319h-51v104h51v-104zM133 0h-51v103h51v-103z" />
    <glyph glyph-name="colon.case" horiz-adv-x="215" 
d="M133 0h-51v103h51v-103zM133 581h-51v104h51v-104z" />
    <glyph glyph-name="semicolon" unicode=";" horiz-adv-x="216" 
d="M134 319h-51v104h51v-104zM133 38l-51 -119v184h51v-65z" />
    <glyph glyph-name="semicolon.case" horiz-adv-x="216" 
d="M134 581h-51v104h51v-104zM133 38l-51 -119v184h51v-65z" />
    <glyph glyph-name="exclam" unicode="!" horiz-adv-x="291" 
d="M162 547l-15 -373h-4l-15 373v138h34v-138zM171 0h-51v103h51v-103z" />
    <glyph glyph-name="exclamdown" unicode="&#xa1;" horiz-adv-x="291" 
d="M129 -30l15 279h4l15 -279v-138h-34v138zM120 423h51v-103h-51v103z" />
    <glyph glyph-name="exclamdown.case" horiz-adv-x="291" 
d="M120 685h51v-103h-51v103zM128 138l15 373h4l15 -373v-138h-34v138z" />
    <glyph glyph-name="question" unicode="?" horiz-adv-x="379" 
d="M82 235v32c110 0 200 90 200 200s-90 200 -200 200v32c128 0 232 -104 232 -232s-104 -232 -232 -232zM133 0h-51v103h51v-103z" />
    <glyph glyph-name="questiondown" unicode="&#xbf;" horiz-adv-x="356" 
d="M223 423h51v-104h-51v104zM274 203c-98 0 -178 -81 -178 -179c0 -99 80 -178 178 -178v-31c-115 0 -209 94 -209 209s94 209 209 209v-30z" />
    <glyph glyph-name="questiondown.case" horiz-adv-x="382" 
d="M322 418c-110 0 -200 -90 -200 -200c0 -111 90 -200 200 -200v-32c-128 0 -232 104 -232 232s104 232 232 232v-32zM271 685h51v-104h-51v104z" />
    <glyph glyph-name="ellipsis" unicode="&#x2026;" horiz-adv-x="644" 
d="M562 0h-50v103h50v-103zM348 0h-51v103h51v-103zM133 0h-51v103h51v-103z" />
    <glyph glyph-name="quotedbl" unicode="&#x22;" horiz-adv-x="326" 
d="M244 619l-51 -119v185h51v-66zM133 619l-51 -119v185h51v-66z" />
    <glyph glyph-name="quotesingle" unicode="'" horiz-adv-x="215" 
d="M133 619l-51 -119v185h51v-66z" />
    <glyph glyph-name="quotedblleft" unicode="&#x201c;" horiz-adv-x="326" 
d="M244 500l-51 119v66h51v-185zM133 500l-51 119v66h51v-185z" />
    <glyph glyph-name="quotedblright" unicode="&#x201d;" horiz-adv-x="326" 
d="M244 619l-51 -119v185h51v-66zM133 619l-51 -119v185h51v-66z" />
    <glyph glyph-name="quoteleft" unicode="&#x2018;" horiz-adv-x="215" 
d="M133 500l-51 119v66h51v-185z" />
    <glyph glyph-name="quoteright" unicode="&#x2019;" horiz-adv-x="215" 
d="M133 619l-51 -119v185h51v-66z" />
    <glyph glyph-name="quotesinglbase" unicode="&#x201a;" horiz-adv-x="215" 
d="M133 38l-51 -119v184h51v-65z" />
    <glyph glyph-name="quotedblbase" unicode="&#x201e;" horiz-adv-x="326" 
d="M244 38l-51 -119v184h51v-65zM133 38l-51 -119v184h51v-65z" />
    <glyph glyph-name="guillemotleft" unicode="&#xab;" horiz-adv-x="390" 
d="M360 3h-36l-129 209l129 209h36l-128 -209zM195 3h-36l-129 209l129 209h36l-128 -209z" />
    <glyph glyph-name="guillemotleft.case" horiz-adv-x="390" 
d="M360 133h-36l-129 209l129 209h36l-128 -209zM195 133h-36l-129 209l129 209h36l-128 -209z" />
    <glyph glyph-name="guillemotright" unicode="&#xbb;" horiz-adv-x="390" 
d="M67 3h-37l129 209l-129 209h37l128 -209zM232 3h-37l129 209l-129 209h37l128 -209z" />
    <glyph glyph-name="guillemotright.case" horiz-adv-x="390" 
d="M360 342l-128 -209h-37l129 209l-129 209h37zM195 342l-128 -209h-37l129 209l-129 209h37z" />
    <glyph glyph-name="guilsinglleft" unicode="&#x2039;" horiz-adv-x="225" 
d="M195 3h-36l-129 209l129 209h36l-128 -209z" />
    <glyph glyph-name="guilsinglleft.case" horiz-adv-x="225" 
d="M195 133h-36l-129 209l129 209h36l-128 -209z" />
    <glyph glyph-name="guilsinglright" unicode="&#x203a;" horiz-adv-x="225" 
d="M67 3h-37l129 209l-129 209h37l128 -209z" />
    <glyph glyph-name="guilsinglright.case" horiz-adv-x="225" 
d="M195 342l-128 -209h-37l129 209l-129 209h37z" />
    <glyph glyph-name="hyphen" unicode="-" horiz-adv-x="305" 
d="M285 196h-265v31h265v-31z" />
    <glyph glyph-name="hyphen.case" horiz-adv-x="305" 
d="M285 327h-265v31h265v-31z" />
    <glyph glyph-name="endash" unicode="&#x2013;" horiz-adv-x="437" 
d="M417 196h-397v31h397v-31z" />
    <glyph glyph-name="endash.case" horiz-adv-x="437" 
d="M417 327h-397v31h397v-31z" />
    <glyph glyph-name="emdash" unicode="&#x2014;" horiz-adv-x="570" 
d="M550 196h-530v31h530v-31z" />
    <glyph glyph-name="emdash.case" horiz-adv-x="570" 
d="M550 327h-530v31h530v-31z" />
    <glyph glyph-name="underscore" unicode="_" horiz-adv-x="553" 
d="M533 -105h-513v31h513v-31z" />
    <glyph glyph-name="periodcentered" unicode="&#xb7;" horiz-adv-x="215" 
d="M133 159h-51v103h51v-103z" />
    <glyph glyph-name="periodcentered.case" horiz-adv-x="215" 
d="M133 291h-51v103h51v-103z" />
    <glyph glyph-name="bullet" unicode="&#x2022;" horiz-adv-x="264" 
d="M204 211c0 -39 -32 -72 -72 -72s-72 33 -72 72c0 40 32 72 72 72s72 -32 72 -72z" />
    <glyph glyph-name="bullet.case" horiz-adv-x="264" 
d="M204 342c0 -39 -32 -72 -72 -72s-72 33 -72 72c0 40 32 72 72 72s72 -32 72 -72z" />
    <glyph glyph-name="parenleft" unicode="(" horiz-adv-x="316" 
d="M286 -44l-19 -25c-126 94 -207 243 -207 411c0 169 81 318 207 411l19 -24c-118 -88 -195 -228 -195 -387c0 -158 77 -298 195 -386z" />
    <glyph glyph-name="parenright" unicode=")" horiz-adv-x="316" 
d="M256 342c0 -168 -82 -317 -207 -411l-19 25c118 88 195 228 195 386c0 159 -77 299 -195 387l19 24c125 -93 207 -242 207 -411z" />
    <glyph glyph-name="bracketleft" unicode="[" horiz-adv-x="321" 
d="M291 -55h-171v795h171v-31h-140v-733h140v-31z" />
    <glyph glyph-name="bracketright" unicode="]" horiz-adv-x="321" 
d="M201 -55h-171v31h140v733h-140v31h171v-795z" />
    <glyph glyph-name="braceleft" unicode="{" horiz-adv-x="371" 
d="M336 -63c-90 0 -166 77 -166 171v79c0 78 -63 138 -135 138h-5v31h5c72 0 135 60 135 138v78c0 95 76 172 166 172h5v-31h-5c-72 0 -135 -63 -135 -141v-78c0 -76 -49 -133 -115 -154c66 -20 115 -77 115 -153v-79c0 -77 63 -140 135 -140h5v-31h-5z" />
    <glyph glyph-name="braceright" unicode="}" horiz-adv-x="371" 
d="M35 -63h-5v31h5c72 0 135 63 135 141v78c0 76 49 133 115 154c-66 20 -115 77 -115 153v79c0 77 -63 140 -135 140h-5v31h5c90 0 166 -77 166 -171v-79c0 -78 63 -138 135 -138h5v-31h-5c-72 0 -135 -60 -135 -138v-78c0 -95 -76 -172 -166 -172z" />
    <glyph glyph-name="slash" unicode="/" horiz-adv-x="408" 
d="M393 741l-350 -810l-28 13l349 809z" />
    <glyph glyph-name="backslash" unicode="\" horiz-adv-x="408" 
d="M364 -69l-349 810l28 12l350 -809z" />
    <glyph glyph-name="bar" unicode="|" horiz-adv-x="271" 
d="M151 -55h-31v795h31v-795z" />
    <glyph glyph-name="brokenbar" unicode="&#xa6;" horiz-adv-x="271" 
d="M151 445h-31v295h31v-295zM151 -55h-31v295h31v-295z" />
    <glyph glyph-name="less" unicode="&#x3c;" horiz-adv-x="401" 
d="M311 619l22 -22l-255 -255l255 -254l-22 -22l-277 276z" />
    <glyph glyph-name="equal" unicode="=" horiz-adv-x="553" 
d="M533 451h-513v31h513v-31zM533 203h-513v31h513v-31z" />
    <glyph glyph-name="greater" unicode="&#x3e;" horiz-adv-x="401" 
d="M68 597l22 22l277 -277l-277 -276l-22 22l255 254z" />
    <glyph glyph-name="at" unicode="@" horiz-adv-x="833" 
d="M773 268c0 -100 -61 -211 -164 -228c-9 -1 -18 -2 -27 -2v106c-31 -66 -92 -106 -165 -106c-110 0 -199 89 -199 198c0 110 89 199 199 199c73 0 134 -40 165 -106v94h33v-346c82 22 125 115 125 194c0 182 -139 288 -313 288c-176 0 -333 -143 -333 -323
c0 -178 144 -322 323 -322v-34c-197 0 -357 159 -357 356c0 199 171 357 366 357c193 0 347 -124 347 -325zM251 236c0 -91 74 -166 166 -166c90 0 165 74 165 165v2c0 91 -74 165 -165 165c-92 0 -166 -74 -166 -166z" />
    <glyph glyph-name="at.case" horiz-adv-x="833" 
d="M773 374c0 -100 -61 -211 -164 -228c-9 -1 -18 -2 -27 -2v106c-31 -66 -92 -106 -165 -106c-110 0 -199 89 -199 198c0 110 89 199 199 199c73 0 134 -40 165 -106v94h33v-346c82 22 125 115 125 194c0 182 -139 288 -313 288c-176 0 -333 -143 -333 -323
c0 -178 144 -322 323 -322v-34c-197 0 -357 159 -357 356c0 199 171 357 366 357c193 0 347 -124 347 -325zM251 342c0 -91 74 -166 166 -166c90 0 165 74 165 165v2c0 91 -74 165 -165 165c-92 0 -166 -74 -166 -166z" />
    <glyph glyph-name="numbersign" unicode="#" horiz-adv-x="529" 
d="M101 0h-34l48 193h-88v34h96l57 231h-88v34h97l47 193h34l-48 -193h158l48 193h33l-47 -193h88v-34h-96l-57 -231h88v-34h-97l-47 -193h-34l48 193h-158zM214 458l-57 -231h158l57 231h-158z" />
    <glyph glyph-name="dollar" unicode="$" horiz-adv-x="329" 
d="M154 0l3 81c-12 -3 -24 -4 -36 -4c-18 0 -44 3 -61 9v36c16 -6 41 -10 58 -10c64 0 115 41 115 107c0 54 -35 86 -71 119c-39 35 -80 72 -80 138c0 55 33 100 77 123l-5 86h39l-3 -75c10 3 20 4 31 4c14 0 28 -2 41 -5v-32c-12 3 -24 5 -36 5c-59 0 -109 -44 -109 -104
c0 -50 34 -83 70 -116c40 -38 82 -77 82 -142c0 -55 -31 -104 -80 -128l4 -92h-39z" />
    <glyph glyph-name="cent" unicode="&#xa2;" horiz-adv-x="553" 
d="M308 0l4 72c-142 10 -252 128 -252 270c0 143 111 261 253 271l-5 72h40l-3 -72c67 -3 131 -31 178 -79l-23 -23c-45 44 -106 70 -169 70c-131 0 -238 -107 -238 -239c0 -131 107 -238 238 -238c63 0 125 25 169 70l23 -24c-47 -47 -111 -75 -178 -79l3 -71h-40z" />
    <glyph glyph-name="sterling" unicode="&#xa3;" horiz-adv-x="471" 
d="M411 325h-135c29 -39 53 -83 53 -146c0 -60 -23 -120 -86 -145h168v-34h-351v34h86c84 0 148 51 148 145c0 64 -29 105 -62 146h-172v34h144c-33 41 -61 87 -61 159c0 101 71 176 175 176h5v-35h-5c-76 0 -140 -54 -140 -141c0 -70 34 -115 71 -159h162v-34z" />
    <glyph glyph-name="yen" unicode="&#xa5;" horiz-adv-x="559" 
d="M44 325v34h166l-196 326h40l226 -373l225 373h40l-197 -326h167v-34h-188l-31 -52v-99h219v-34h-219v-140h-34v140h-218v34h218v100l-31 51h-187z" />
    <glyph glyph-name="uni0192" unicode="&#x192;" horiz-adv-x="499" 
d="M60 325v34h173v148c0 130 87 187 188 187h5v-35h-5c-100 0 -152 -66 -152 -152v-148h170v-34h-170v-145c0 -124 -83 -190 -183 -190c-9 0 -19 1 -26 4v37c7 -4 16 -5 26 -5c85 0 147 59 147 154v145h-173z" />
    <glyph glyph-name="Euro" unicode="&#x20ac;" horiz-adv-x="775" 
d="M30 418v34h123c46 143 181 247 340 247c98 0 187 -40 252 -105l-24 -23c-58 58 -139 95 -228 95c-141 0 -260 -89 -305 -214h313v-34h-323c-6 -25 -9 -50 -9 -76s3 -52 9 -76h323v-33h-313c45 -125 164 -214 305 -214c89 0 170 36 228 95l24 -24
c-65 -64 -154 -104 -252 -104c-159 0 -294 103 -340 247h-123v33h114c-5 24 -8 50 -8 76s3 51 8 76h-114z" />
    <glyph glyph-name="currency" unicode="&#xa4;" horiz-adv-x="552" 
d="M84 342c0 -105 87 -192 192 -192s192 87 192 192s-87 192 -192 192s-192 -87 -192 -192zM50 342c0 55 19 105 52 144l-50 48l22 22l50 -47c40 36 93 59 152 59s112 -23 152 -59l50 47l22 -22l-50 -48c33 -39 52 -89 52 -144s-19 -105 -52 -144l50 -48l-22 -22l-50 47
c-40 -36 -93 -59 -152 -59s-112 23 -152 59l-50 -47l-22 22l50 48c-33 39 -52 89 -52 144z" />
    <glyph glyph-name="percent" unicode="%" horiz-adv-x="744" 
d="M343 550c0 -82 -67 -149 -149 -149s-149 67 -149 149s67 149 149 149s149 -67 149 -149zM537 685l-295 -685h-34l295 685h34zM699 135c0 -82 -66 -149 -149 -149c-82 0 -149 67 -149 149s67 149 149 149c83 0 149 -67 149 -149zM665 135c0 63 -51 114 -115 114
c-63 0 -114 -51 -114 -114s51 -114 114 -114c64 0 115 51 115 114zM308 550c0 63 -51 114 -114 114s-114 -51 -114 -114s51 -115 114 -115s114 52 114 115z" />
    <glyph glyph-name="perthousand" unicode="&#x2030;" horiz-adv-x="1099" 
d="M343 550c0 -82 -67 -149 -149 -149s-149 67 -149 149s67 149 149 149s149 -67 149 -149zM537 685l-295 -685h-34l295 685h34zM308 550c0 63 -51 114 -114 114s-114 -51 -114 -114s51 -115 114 -115s114 52 114 115zM699 135c0 -82 -66 -149 -149 -149
c-82 0 -149 67 -149 149s67 149 149 149c83 0 149 -67 149 -149zM665 135c0 63 -51 114 -115 114c-63 0 -114 -51 -114 -114s51 -114 114 -114c64 0 115 51 115 114zM1054 135c0 -82 -67 -149 -149 -149s-149 67 -149 149s67 149 149 149s149 -67 149 -149zM1019 135
c0 63 -51 114 -114 114s-114 -51 -114 -114s51 -114 114 -114s114 51 114 114z" />
    <glyph glyph-name="degree" unicode="&#xb0;" horiz-adv-x="308" 
d="M273 580c0 -66 -54 -119 -119 -119c-66 0 -119 53 -119 119s53 119 119 119c65 0 119 -53 119 -119zM239 580c0 47 -38 85 -85 85s-85 -38 -85 -85s38 -85 85 -85s85 38 85 85z" />
    <glyph glyph-name="asterisk" unicode="*" horiz-adv-x="374" 
d="M47 413l-17 29l131 72l-131 71l17 29l127 -78l-4 149h34l-4 -149l126 78l17 -30l-130 -70l131 -71l-17 -30l-127 78l4 -149h-34l4 150z" />
    <glyph glyph-name="dagger" unicode="&#x2020;" horiz-adv-x="381" 
d="M351 516h-145v-286h-31v286h-145v31h145v138h31v-138h145v-31z" />
    <glyph glyph-name="daggerdbl" unicode="&#x2021;" horiz-adv-x="381" 
d="M30 261h145v255h-145v31h145v138h31v-138h145v-31h-145v-255h145v-31h-145v-139h-31v139h-145v31z" />
    <glyph glyph-name="section" unicode="&#xa7;" horiz-adv-x="400" 
d="M60 377c0 65 34 124 107 157c-12 23 -20 50 -20 82c0 44 17 86 50 119h46c-36 -26 -66 -68 -66 -120c0 -65 38 -103 77 -143c42 -43 86 -87 86 -166c0 -65 -35 -125 -108 -157c13 -24 21 -50 21 -82c0 -44 -17 -86 -50 -119h-46c36 26 66 68 66 120c0 64 -38 103 -77 143
c-42 43 -86 87 -86 166zM91 376c0 -64 37 -106 78 -147c17 -17 33 -35 47 -54c57 23 93 70 93 132c0 63 -38 103 -77 144c-17 18 -34 37 -49 57c-57 -24 -92 -70 -92 -132z" />
    <glyph glyph-name="paragraph" unicode="&#xb6;" horiz-adv-x="476" 
d="M356 -55h-31v709h-85v-709h-31v442c-82 0 -149 66 -149 149c0 82 67 149 149 149h147v-740z" />
    <glyph glyph-name="registered" unicode="&#xae;" horiz-adv-x="457" 
d="M412 518c0 -101 -82 -184 -183 -184c-102 0 -184 83 -184 184s82 183 184 183c101 0 183 -82 183 -183zM283 551c0 -35 -24 -64 -56 -72l54 -62h-34l-41 47v-47h-26v208h28c41 0 75 -33 75 -74zM257 551c0 27 -22 49 -49 49h-2v-98h2c27 0 49 22 49 49zM66 518
c0 -90 73 -163 163 -163c89 0 162 73 162 163c0 89 -73 162 -162 162c-90 0 -163 -73 -163 -162z" />
    <glyph glyph-name="copyright" unicode="&#xa9;" horiz-adv-x="833" 
d="M773 342c0 -197 -159 -356 -356 -356s-357 159 -357 356s160 357 357 357s356 -160 356 -357zM87 342c0 -181 148 -329 330 -329c181 0 329 148 329 329c0 182 -148 330 -329 330c-182 0 -330 -148 -330 -330zM544 215l26 -26c-41 -41 -95 -64 -153 -64
c-120 0 -217 98 -217 217c0 120 97 217 217 217c58 0 112 -22 153 -63l-26 -27c-34 34 -79 53 -127 53c-100 0 -180 -81 -180 -180s80 -179 180 -179c48 0 93 18 127 52z" />
    <glyph glyph-name="uni2117" unicode="&#x2117;" horiz-adv-x="833" 
d="M546 406c0 -83 -68 -152 -152 -152h-17v-130h-33v435h50c84 0 152 -69 152 -153zM513 406c0 66 -53 119 -119 119h-17v-237h17c66 0 119 53 119 118zM773 342c0 -197 -159 -356 -356 -356s-357 159 -357 356s160 357 357 357s356 -160 356 -357zM87 342
c0 -181 148 -329 330 -329c181 0 329 148 329 329c0 182 -148 330 -329 330c-182 0 -330 -148 -330 -330z" />
    <glyph glyph-name="trademark" unicode="&#x2122;" horiz-adv-x="630" 
d="M540 342h-34v249l-75 -101l-76 101v-249h-33v352l109 -148l109 148v-352zM224 651h-74v-309h-34v309h-74v34h182v-34z" />
    <glyph glyph-name="plus" unicode="+" horiz-adv-x="553" 
d="M533 327h-241v-241h-31v241h-241v31h241v241h31v-241h241v-31z" />
    <glyph glyph-name="minus" unicode="&#x2212;" horiz-adv-x="553" 
d="M533 327h-513v31h513v-31z" />
    <glyph glyph-name="multiply" unicode="&#xd7;" horiz-adv-x="521" 
d="M431 535l22 -22l-170 -171l170 -170l-22 -22l-170 171l-171 -171l-22 22l171 170l-171 171l22 22l171 -171z" />
    <glyph glyph-name="divide" unicode="&#xf7;" horiz-adv-x="553" 
d="M533 327h-513v31h513v-31zM307 451h-51v104h51v-104zM307 132h-51v103h51v-103z" />
    <glyph glyph-name="fraction" unicode="&#x2044;" horiz-adv-x="408" 
d="M393 741l-350 -810l-28 13l349 809z" />
    <glyph glyph-name="asciicircum" unicode="^" horiz-adv-x="333" 
d="M52 541l-22 21l136 137l137 -137l-22 -21l-115 114z" />
    <glyph glyph-name="asciitilde" unicode="~" horiz-adv-x="381" 
d="M351 384c0 -51 -37 -90 -91 -90c-36 0 -58 18 -79 36c-18 15 -36 29 -60 29c-36 0 -60 -26 -60 -61h-31v3c0 50 37 89 91 89c36 0 58 -19 79 -36c18 -15 36 -29 60 -29c36 0 60 26 60 62h31v-3z" />
    <glyph glyph-name="lozenge" unicode="&#x25ca;" horiz-adv-x="279" 
d="M219 211l-79 -79l-80 79l80 80z" />
    <glyph glyph-name="lozenge.case" horiz-adv-x="279" 
d="M219 342l-79 -79l-80 79l80 80z" />
    <glyph glyph-name="acute" unicode="&#xb4;" horiz-adv-x="218" 
d="M52 481l-22 21l136 137l22 -22z" />
    <glyph glyph-name="acute.caps" horiz-adv-x="218" 
d="M52 713l-22 21l136 137l22 -22z" />
    <glyph glyph-name="grave" unicode="`" horiz-adv-x="218" 
d="M188 504l-22 -21l-136 136l22 22z" />
    <glyph glyph-name="grave.caps" horiz-adv-x="218" 
d="M188 734l-22 -21l-136 136l22 22z" />
    <glyph glyph-name="circumflex" unicode="&#x2c6;" horiz-adv-x="333" 
d="M52 489l-22 21l136 137l137 -137l-22 -21l-115 114z" />
    <glyph glyph-name="circumflex.caps" horiz-adv-x="333" 
d="M52 713l-22 21l136 137l137 -137l-22 -21l-115 114z" />
    <glyph glyph-name="dieresis" unicode="&#xa8;" horiz-adv-x="277" 
d="M30 559c0 18 14 31 31 31s31 -13 31 -31c0 -17 -14 -31 -31 -31s-31 14 -31 31zM185 559c0 18 14 31 31 31s31 -13 31 -31c0 -17 -14 -31 -31 -31s-31 14 -31 31z" />
    <glyph glyph-name="dieresis.caps" horiz-adv-x="277" 
d="M30 792c0 18 14 31 31 31s31 -13 31 -31c0 -17 -14 -31 -31 -31s-31 14 -31 31zM185 792c0 18 14 31 31 31s31 -13 31 -31c0 -17 -14 -31 -31 -31s-31 14 -31 31z" />
    <glyph glyph-name="tilde" unicode="&#x2dc;" horiz-adv-x="381" 
d="M351 602c0 -51 -37 -90 -91 -90c-36 0 -58 18 -79 36c-18 15 -36 29 -60 29c-36 0 -60 -26 -60 -61h-31v3c0 50 37 89 91 89c36 0 58 -19 79 -36c18 -15 36 -29 60 -29c36 0 60 26 60 62h31v-3z" />
    <glyph glyph-name="tilde.caps" horiz-adv-x="381" 
d="M351 834c0 -51 -37 -90 -91 -90c-36 0 -58 18 -79 36c-18 15 -36 29 -60 29c-36 0 -60 -26 -60 -61h-31v3c0 50 37 89 91 89c36 0 58 -19 79 -36c18 -15 36 -29 60 -29c36 0 60 26 60 62h31v-3z" />
    <glyph glyph-name="ring" unicode="&#x2da;" horiz-adv-x="258" 
d="M228 561c0 -55 -44 -99 -99 -99s-99 44 -99 99s44 99 99 99s99 -44 99 -99zM200 561c0 39 -32 71 -71 71s-71 -32 -71 -71s32 -71 71 -71s71 32 71 71z" />
    <glyph glyph-name="ring.caps" horiz-adv-x="258" 
d="M227 808c0 -55 -44 -99 -99 -99s-99 44 -99 99s44 99 99 99s99 -44 99 -99zM199 808c0 39 -32 71 -71 71s-71 -32 -71 -71s32 -71 71 -71s71 32 71 71z" />
    <glyph glyph-name="breve" unicode="&#x2d8;" horiz-adv-x="407" 
d="M204 545c55 0 109 21 151 63l22 -22c-48 -48 -111 -72 -174 -72s-125 24 -173 72l22 22c42 -42 97 -63 152 -63z" />
    <glyph glyph-name="breve.caps" horiz-adv-x="407" 
d="M204 778c55 0 109 21 151 63l22 -22c-48 -48 -111 -72 -174 -72s-125 24 -173 72l22 22c42 -42 97 -63 152 -63z" />
    <glyph glyph-name="macron" unicode="&#xaf;" horiz-adv-x="379" 
d="M349 575v-31h-319v31h319z" />
    <glyph glyph-name="macron.caps" horiz-adv-x="379" 
d="M349 808v-31h-319v31h319z" />
    <glyph glyph-name="dotaccent" unicode="&#x2d9;" horiz-adv-x="122" 
d="M30 560c0 18 14 31 31 31s31 -13 31 -31c0 -17 -14 -31 -31 -31s-31 14 -31 31z" />
    <glyph glyph-name="dotaccent.caps" horiz-adv-x="122" 
d="M30 792c0 18 14 31 31 31s31 -13 31 -31c0 -17 -14 -31 -31 -31s-31 14 -31 31z" />
    <glyph glyph-name="hungarumlaut" unicode="&#x2dd;" horiz-adv-x="289" 
d="M259 626l-72 -146l-28 13l72 147zM130 626l-72 -146l-28 13l72 147z" />
    <glyph glyph-name="hungarumlaut.caps" horiz-adv-x="289" 
d="M259 858l-72 -146l-28 13l72 147zM130 858l-72 -146l-28 13l72 147z" />
    <glyph glyph-name="caron" unicode="&#x2c7;" horiz-adv-x="333" 
d="M281 632l22 -22l-137 -136l-136 136l22 22l114 -115z" />
    <glyph glyph-name="caron.caps" horiz-adv-x="333" 
d="M281 871l22 -22l-137 -136l-136 136l22 22l114 -115z" />
    <glyph glyph-name="cedilla" unicode="&#xb8;" horiz-adv-x="111" 
d="M56 -199l-25 25c21 20 31 47 31 74s-10 54 -31 75l25 25c27 -28 41 -64 41 -100s-14 -72 -41 -99z" />
    <glyph glyph-name="ogonek" unicode="&#x2db;" horiz-adv-x="194" 
d="M161 -165v-34c-64 0 -117 53 -117 117s53 116 117 116v-34c-45 0 -83 -37 -83 -82c0 -46 38 -83 83 -83z" />
    <glyph glyph-name="uni0326" unicode="&#x326;" horiz-adv-x="171" 
d="M111 -143l-51 -69v162h51v-93z" />
    <glyph glyph-name="uni0326.salt" horiz-adv-x="171" 
d="M60 575l51 69v-162h-51v93z" />
    <glyph glyph-name="uniF8FF" unicode="&#xf8ff;" horiz-adv-x="808" 
d="M803 450l-246 -179l94 -290l-247 179l-247 -179l95 290l-247 179h305l94 290l94 -290h305zM723 424h-244l-75 231l-75 -231h-243l197 -143l-76 -231l197 143l197 -143l-75 231z" />
    <glyph glyph-name="uni00AD" unicode="&#xad;" horiz-adv-x="305" 
d="M285 196h-265v31h265v-31z" />
    </font>
</defs>
</svg>
